<?xml version="1.0" encoding="UTF-8" standalone="no"?>
<!DOCTYPE svg PUBLIC "-//W3C//DTD SVG 1.1//EN" "http://www.w3.org/Graphics/SVG/1.1/DTD/svg11.dtd">
<svg width="100%" height="100%" viewBox="0 0 48 48" version="1.1" xmlns="http://www.w3.org/2000/svg" xmlns:xlink="http://www.w3.org/1999/xlink" xml:space="preserve" xmlns:serif="http://www.serif.com/" style="fill-rule:evenodd;clip-rule:evenodd;stroke-linecap:round;stroke-linejoin:round;stroke-miterlimit:10;">
    <g>
        <ellipse id="XMLID_11655_" cx="24.5" cy="36.3" rx="15.8" ry="1.7" style="fill:rgb(69,65,60);fill-opacity:0.15;"/>
        <path d="M27.6,34C26.7,34.4 25.8,34.9 25.7,35.5C25.5,36.3 25.9,36.9 28.7,36.9C30.7,36.9 31.5,36.5 31.9,35.7C30.3,35.7 28.8,35.1 27.6,34Z" style="fill:rgb(242,81,6);fill-rule:nonzero;stroke:black;stroke-width:1px;"/>
        <path id="XMLID_11654_" d="M41.4,25.5C41.4,20.9 39,16.4 31.9,14.2C24.8,12 20.6,14.6 17.6,14.2C14.6,13.8 12.6,10.5 8.2,11C4.7,11.4 4.2,12.4 2.8,12.6C1.3,12.7 1.2,14.1 2.3,15.8C3.3,17.3 6,19.6 8.7,19.6C8.8,19.8 10.9,23.4 13.9,26.5C16,29 15,33.5 14.8,33.9C14.6,34.4 13.7,34.5 14,35.6C14.2,36.4 16.6,36.4 17.7,36.3C18.6,36.2 19.7,33.9 20.2,31C24.5,33 26.6,32.5 26.6,32.5C28.5,36.6 34.2,36.5 36.2,34.6C39.9,33.4 41.4,29.6 41.4,25.5Z" style="fill:rgb(242,81,6);fill-rule:nonzero;"/>
        <path id="XMLID_11653_" d="M41.4,25.5C41.4,20.9 39,16.4 31.9,14.2C24.8,12 20.6,14.6 17.6,14.2C14.6,13.8 12.6,10.5 8.2,11C4.7,11.4 4.2,12.4 2.8,12.6C1.3,12.7 1.2,14.1 2.3,15.8C3.3,17.3 6,19.6 8.7,19.6C8.8,19.8 10.9,23.4 13.9,26.5C16,29 15,33.5 14.8,33.9C14.6,34.4 13.7,34.5 14,35.6C14.2,36.4 16.6,36.4 17.7,36.3C18.6,36.2 19.7,33.9 20.2,31C24.5,33 26.6,32.5 26.6,32.5C28.5,36.6 34.2,36.5 36.2,34.6C39.9,33.4 41.4,29.6 41.4,25.5Z" style="fill:none;fill-rule:nonzero;stroke:black;stroke-width:1px;"/>
        <path id="XMLID_11652_" d="M11,11.5C11,11.5 14,7.6 17.6,8.7C21.3,9.8 18.8,14.8 15.7,15.6C12.5,16.4 11.7,14.6 11.7,14.6" style="fill:rgb(242,81,6);fill-rule:nonzero;"/>
        <path id="XMLID_11650_" d="M11,11.5C11,11.5 14,7.6 17.6,8.7C21.3,9.8 18.8,14.8 15.7,15.6C12.5,16.4 11.7,14.6 11.7,14.6" style="fill:none;fill-rule:nonzero;stroke:black;stroke-width:1px;"/>
        <path id="XMLID_11649_" d="M40.4,30.8C43.3,30.8 46,32.1 46,35.1C46,39.6 38.2,40.7 26.8,41.3C15.4,41.9 12.6,44.1 10.9,45.2" style="fill:none;fill-rule:nonzero;stroke:black;stroke-width:1px;"/>
        <path id="XMLID_11648_" d="M26.6,32.4C25.2,29.1 26.7,26 27.7,25.5" style="fill:none;fill-rule:nonzero;stroke:black;stroke-width:1px;"/>
        <path id="XMLID_11647_" d="M15.2,11.1C13,11.7 11.9,13 11.4,13.6L11.6,14.5C12,15.3 13.3,16.1 15.6,15.5C16.3,15.3 16.9,15 17.4,14.5C19.7,12.5 18.2,10.4 15.2,11.1Z" style="fill:none;fill-rule:nonzero;stroke:black;stroke-width:1px;"/>
        <circle id="XMLID_11646_" cx="8.1" cy="13.8" r="0.9" style="fill:white;stroke:black;stroke-width:1px;stroke-linecap:butt;stroke-miterlimit:2;"/>
    </g>
</svg>
