<?xml version="1.0" encoding="iso-8859-1"?>
<!-- Uploaded to: SVG Repo, www.svgrepo.com, Generator: SVG Repo Mixer Tools -->
<svg version="1.1" id="Layer_1" xmlns="http://www.w3.org/2000/svg" xmlns:xlink="http://www.w3.org/1999/xlink" 
	 viewBox="0 0 512 512" xml:space="preserve">
<rect y="50.093" style="fill:#995C0D;" width="512" height="411.814"/>
<g>
	<polygon style="fill:#B27214;" points="37.653,99.647 10.105,72.099 10.105,439.901 37.653,412.353 	"/>
	<polygon style="fill:#B27214;" points="462.436,87.743 489.982,60.198 22.018,60.198 49.563,87.743 	"/>
	<polygon style="fill:#B27214;" points="474.351,99.655 474.351,412.345 501.895,439.889 501.895,72.111 	"/>
	<polygon style="fill:#B27214;" points="49.561,424.258 22.018,451.802 489.982,451.802 462.438,424.258 	"/>
</g>
<rect x="47.758" y="97.85" style="fill:#F95428;" width="416.485" height="316.299"/>
<rect x="47.758" y="295.808" style="fill:#2197D8;" width="416.485" height="118.352"/>
<polyline style="fill:#F7C472;" points="421.422,414.153 333.096,295.805 178.908,295.805 90.582,414.153 "/>
<path style="fill:#FFAB24;" d="M345.259,295.805c0-49.295-39.962-89.257-89.257-89.257s-89.257,39.962-89.257,89.257"/>
<g>
	<path style="fill:#FFFFFF;" d="M366.308,337.346c-1.617,0-3.211-0.662-4.368-1.808c-0.281-0.281-0.539-0.595-0.763-0.943
		c-0.225-0.326-0.415-0.685-0.573-1.067c-0.146-0.37-0.269-0.752-0.348-1.145c-0.079-0.404-0.123-0.808-0.123-1.213
		c0-0.404,0.045-0.808,0.123-1.201c0.079-0.393,0.202-0.786,0.348-1.156c0.157-0.37,0.348-0.73,0.573-1.067
		c0.225-0.337,0.483-0.651,0.763-0.943c0.292-0.281,0.606-0.539,0.943-0.763c0.337-0.225,0.696-0.415,1.067-0.573
		c0.371-0.146,0.763-0.269,1.156-0.348c0.797-0.157,1.617-0.157,2.414,0c0.393,0.079,0.775,0.202,1.156,0.348
		c0.371,0.157,0.73,0.348,1.055,0.573c0.348,0.225,0.662,0.483,0.943,0.763c1.156,1.156,1.808,2.751,1.808,4.368
		c0,1.628-0.651,3.211-1.808,4.368C369.518,336.683,367.936,337.346,366.308,337.346z"/>
	<path style="fill:#FFFFFF;" d="M335.289,337.347h-84.766c-3.411,0-6.175-2.764-6.175-6.175s2.764-6.175,6.175-6.175h84.766
		c3.411,0,6.175,2.764,6.175,6.175S338.699,337.347,335.289,337.347z"/>
	<path style="fill:#FFFFFF;" d="M222.453,337.347h-76.76c-3.411,0-6.175-2.764-6.175-6.175s2.764-6.175,6.175-6.175h76.76
		c3.411,0,6.175,2.764,6.175,6.175S225.865,337.347,222.453,337.347z"/>
	<path style="fill:#FFFFFF;" d="M389.18,371.028h-70.732c-3.411,0-6.175-2.764-6.175-6.175s2.764-6.175,6.175-6.175h70.732
		c3.411,0,6.175,2.764,6.175,6.175S392.59,371.028,389.18,371.028z"/>
	<path style="fill:#FFFFFF;" d="M289.818,371.028h-89.257c-3.411,0-6.175-2.764-6.175-6.175s2.764-6.175,6.175-6.175h89.257
		c3.411,0,6.175,2.764,6.175,6.175S293.228,371.028,289.818,371.028z"/>
	<path style="fill:#FFFFFF;" d="M166.879,371.028h-44.056c-3.411,0-6.175-2.764-6.175-6.175s2.764-6.175,6.175-6.175h44.056
		c3.411,0,6.175,2.764,6.175,6.175S170.29,371.028,166.879,371.028z"/>
</g>
<g>
	<path style="fill:#2197D8;" d="M148.354,169.834h-37.05c-4.651,0-8.421,3.77-8.421,8.421s3.77,8.421,8.421,8.421h37.05
		c4.651,0,8.421-3.77,8.421-8.421S153.005,169.834,148.354,169.834z"/>
	<path style="fill:#2197D8;" d="M406.021,142.889H368.97c-4.651,0-8.421,3.77-8.421,8.421c0,1.898,0.636,3.643,1.695,5.051H343.71
		c-4.651,0-8.421,3.77-8.421,8.421s3.77,8.421,8.421,8.421h37.05c4.651,0,8.421-3.77,8.421-8.421c0-1.898-0.636-3.643-1.695-5.051
		h18.536c4.651,0,8.421-3.77,8.421-8.421C414.441,146.659,410.671,142.889,406.021,142.889z"/>
</g>
</svg>