<svg xmlns="http://www.w3.org/2000/svg" height="800" width="1200" viewBox="-4.244358 -2.13807 36.784436 12.82842">
	<g fill="#FFFFFF" fill-rule="evenodd">
		<path d="M3.995.00462c.73668-.0348 1.60839.12212 1.77077.64194.2662.852-1.08295 2.09433-2.25863 2.7041-.28815.14952-.46283.19055-.53559.18033-.06951-.01-.0802-.0789-.05766-.12666.04193-.0895.2314-.2721.48529-.47045C4.72258 1.90022 5.15286 1.14194 4.90303.83454 4.74277.63779 4.07185.501 3.37523.501c-.18915 0-.6861.0439-.73713-.1312C2.59649.22636 3.26358.0392 3.995.00462M2.43664 3.9111c.63165-.0369 1.39898.0734 1.82994.40319.21428.16374.36497.46526.27772.8109-.24874.981-1.17718 2.1678-3.2402 3.07979-.65597.29-1.17177.40096-1.28005.32317-.11637-.0837.22195-.73098.32376-.94588.32939-.69584.74082-1.37341 1.14192-1.9937.14781-.2283.3758-.62416.58236-.5925.18488.0284-.03168.44917-.17414.71675-.23934.4489-.89858 1.6961-.6811 1.77058.48078.16493 2.73649-1.55116 2.4039-2.5069-.15419-.44356-1.1336-.48581-1.75042-.48581-.28056 0-.89333.0663-.92724-.14853-.0366-.19824.93096-.3978 1.49355-.43106"/>
		<path d="M7.31527 2.8602c.37914.0685.68817.12152.75916.28159.07962.1814-.33329.19237-.54138.19666-.99743.0193-1.59888.0389-1.62896.37785-.03916.43629.42625.87545.8858 1.49135.41988.56216.89719 1.11682.75958 1.63422-.17147.64438-.9615.7807-1.7137.7808-.72055.00067-1.4032-.11493-1.6899-.1719-.35718-.0705-.30413-.24698-.20878-.30373.10615-.0634.7135-.0649 1.13555-.09.34731-.0205 1.35605-.0199 1.51326-.27832.19292-.31625-.27932-.85774-.71285-1.42475-.54107-.70752-1.13532-1.43786-.82085-1.97128.40701-.69017 1.59759-.64286 2.26307-.5225m15.54613 1.9347c.80104 0 1.10973-.27413 1.23645-.90745l.18988-.98653c.0127-.066-.02679-.086-.07699-.086h-.38735l-.10643.56763-.06094.3021-.0508.26253c-.07094.35747-.30228.51857-.69466.51857-.43164 0-.54714-.15713-.4796-.51857 0 0 .01665-.0903.02233-.11741l.08931-.44722.10672-.56763h-.3876c-.05014 0-.09735.02-.11015.086l-.1904.98653c-.13001.69572.21613.90745.90022.90745zM9.25477 5.8649c-.05796.27245.15523.40415.58836.67299.47336.29376.58166.31618.53807.47107-.03494.12473-.15914.12992-.37238.12992h-.8436c-.09578 0-.15146.0394-.16812.12504l-.03386.17284h1.06359c.4869 0 .79196-.0302.90277-.32757.05377-.14513.05322-.29508-.07815-.44331-.0669-.0755-.16565-.14166-.30186-.2185-.60799-.3436-.7667-.38335-.72828-.54983.02172-.0936.08638-.097.31502-.097h.71307c.0962 0 .15188-.0394.16854-.125l.03512-.1805h-.9024c-.5111 0-.81807.003-.8959.36987zm4.6905 0c-.05769.27245.15546.40415.58821.67299.47397.29376.58213.31618.53821.47107-.03507.12473-.15923.12992-.37237.12992h-.84337c-.09588 0-.15165.0394-.1683.12504l-.0335.17284h1.0635c.48685 0 .79178-.0302.90235-.32757.05443-.14513.05378-.29508-.0776-.44331-.0673-.0755-.16578-.14166-.3024-.2185-.60771-.3436-.7663-.38335-.72796-.54983.02144-.0936.08615-.097.31492-.097h.7135c.09568 0 .15155-.0394.16802-.125l.0354-.1805h-.90254c-.51119 0-.81797.003-.89608.36987zm11.88732 0c-.05759.27245.15556.40415.5879.67299.47401.29376.5823.31618.5382.47107-.03465.12473-.15885.12992-.37185.12992h-.84365c-.09592 0-.1516.0394-.1683.12504l-.0335.17284h1.06368c.48653 0 .7915-.0302.90231-.32757.05414-.14513.0535-.29508-.07796-.44331-.06689-.0755-.16579-.14166-.30223-.2185-.60757-.3436-.76656-.38335-.72786-.54983.02117-.0936.08638-.097.31506-.097h.71336c.09569 0 .15132-.0394.16802-.125l.03535-.1805h-.9023c-.51129 0-.81812.003-.89622.36987zM18.8135 4.424c.05387-.14528.0534-.2954-.07815-.44331-.06699-.0756-.16555-.14161-.30222-.21905-.60776-.3436-.76639-.38285-.7282-.54938.02163-.0933.08657-.0972.31549-.0972h.71289c.0961 0 .15183-.0393.16858-.12463l.03498-.18143h-.90245c-.51119 0-.81797.003-.8963.37053-.05746.27215.15573.4042.58844.6731.47365.2937.58171.31602.53845.47127-.03531.12473-.15933.12966-.37228.12966h-.84347c-.0961 0-.15192.0394-.16858.12499l-.03335.17319h1.06345c.48658 0 .79201-.0301.90272-.32777zm-2.26607 0c.05378-.14528.0533-.2954-.07782-.44331-.06726-.0756-.16598-.14161-.30237-.21905-.60813-.3436-.76652-.38285-.728-.54938.02135-.0933.08592-.0972.31525-.0972h.7127c.09615 0 .15193-.0393.1683-.12463l.03563-.18143h-.90273c-.51118 0-.81792.003-.89589.37053-.05786.27215.15551.4042.58808.6731.47356.2937.5819.31602.5384.47127-.03475.12473-.15913.12966-.3726.12966h-.84296c-.09624 0-.15174.0394-.16876.12499l-.0335.17319h1.06377c.48672 0 .7917-.0301.9025-.32777zm9.89246-1.60908c-.09606 0-.15021.0328-.16454.1052l-.0381.19548h.76266l-.3179 1.63617h.342c.09615 0 .15216-.0394.17114-.1378l.29162-1.49837h.63641c.0903 0 .12188-.0398.1375-.1187l.03504-.18198zm-16.61658.5385c-.04796 0-.0842.0327-.09052.0656l-.25943 1.3327h1.14736c.64255 0 1.08791-.23867 1.22696-.98082.10364-.55238-.13579-.95602-.79044-.95602H9.66971s-.00298.0137-.00572.0251c-.03131.13028-.01484.27408.20449.27408h1.0086c.48523 0 .55459.24265.4576.66999-.09522.41956-.26125.63557-.62548.66862h-.69089l.21338-1.09931zm16.34482 1.21707c.01647-.0848-.0133-.11776-.09108-.11776h-1.03912l.30586-1.57221c.0061-.0328-.01763-.0656-.05936-.0656h-.41453l-.37647 1.93685h1.63925zm-3.094.92994h-.43876l-.84942.7548-.55575-.7548h-.43843c-.07196 0-.11155.0457-.12648.12458l-.35237 1.81176h.37242c.07815 0 .12174-.0392.13574-.11147l.2639-1.356.428.61055c.01262.026.04843.059.1022.059h.19264c.05405 0 .1022-.033.12536-.059l.66516-.61054-.2639 1.35599c-.01395.0723.01439.11147.0928.11147h.37206l.35279-1.81176c.01489-.0789-.0058-.12458-.07796-.12458zm-4.64054.12458l-.3521 1.81176h1.7895l.03769-.19364c.01563-.0791-.0037-.10531-.09383-.10531h-1.18877l.10094-.51968h1.05089c.03014 0 .05177-.0195.05712-.0461l.0401-.20614c.0049-.026-.0093-.046-.03912-.046H18.7848l.10108-.51886h1.14713c.05405 0 .10783 0 .1224-.0723l.0439-.22836h-1.61538c-.08401 0-.13383.0389-.15035.12458zm5.3137 0l-.35224 1.81176h1.79006l.03721-.19364c.01549-.0791-.0035-.10531-.09341-.10531h-1.1891l.1011-.51968h1.05079c.03014 0 .05205-.0195.0568-.0461l.04038-.20614c.0051-.026-.0096-.046-.03908-.046h-1.05108l.10076-.51886h1.14723c.05429 0 .10796 0 .12192-.0723l.04442-.22836h-1.61528c-.08424 0-.1335.0389-.15048.12458zm-10.73322-.0593l-.17184.88167c-.30009.0922-1.07768.2608-.95627-.36276l.1137-.5842h-.40872c-.04814 0-.08452.0323-.09094.0653l-.10313.53193c-.19663 1.01109.76103.87298 1.38084.6829l-.12765.65622h.342c.0963 0 .15193-.0392.17138-.1375l.3492-1.79884h-.4141c-.04196 0-.07838.0323-.08447.0653zm5.11236.11634l.03568-.18153h-1.85564c-.09611 0-.15058.0325-.16468.10475l-.03819.19526h.76252l-.31771 1.63623h.34214c.09592 0 .15141-.0392.17123-.1375l.2911-1.49873h.6366c.09007 0 .12174-.0394.13695-.11848zM12.78957 3.629c.07271-.3773.29274-.51393.68535-.51393.41485 0 .52365.15565.45616.51393 0 0-.01703.0895-.02285.1165-.00809.0401-.02651.1442-.13406.1442h-1.03512l.05052-.2607zm-.58445 1.12275h.36619l.10667-.56315H13.819l-.10648.56315h.36633c.0482 0 .09397-.0198.10658-.0855l.19053-.97798c.1397-.74194-.27924-.89952-.84397-.89952-.6766 0-1.0628.16983-1.21026.89952l-.19021.97798c-.01265.0657.02535.0855.0736.0855zM19.90667 3.629c.07294-.3773.29265-.51393.68526-.51393.41503 0 .52356.15565.4563.51393 0 0-.01689.0895-.02299.1165-.0081.0401-.0265.1442-.13387.1442h-1.0354l.0507-.2607zm-.58445 1.12275h.36629l.10685-.56315h1.14076l-.10662.56315h.36651c.0481 0 .09401-.0198.10667-.0855l.19012-.97798c.1403-.74194-.27883-.89952-.8436-.89952-.6768 0-1.06299.16983-1.21054.89952l-.19012.97798c-.01247.0657.02526.0855.07368.0855z"/>
	</g>
	</svg>