<?xml version="1.0" encoding="UTF-8" standalone="no"?>
<!DOCTYPE svg PUBLIC "-//W3C//DTD SVG 1.1//EN" "http://www.w3.org/Graphics/SVG/1.1/DTD/svg11.dtd">
<svg width="100%" height="100%" viewBox="0 0 260 232" version="1.1" xmlns="http://www.w3.org/2000/svg" xmlns:xlink="http://www.w3.org/1999/xlink" xml:space="preserve" xmlns:serif="http://www.serif.com/" style="fill-rule:evenodd;clip-rule:evenodd;">
    <g transform="matrix(-5.74285e-17,-0.15,-0.15,5.74285e-17,10.9359,110.366)">
        <path d="M-1.516,0L-0.531,5.172L8.734,5.172L20.906,67.672L11.625,67.672L12.641,72.906L71.344,72.906L68.219,56.688L62.203,56.688L64.156,66.891L30.672,66.891L25.922,42.484L49.813,42.484L51.563,51.609L57.563,51.609L52.875,27.391L46.875,27.391L48.641,36.531L24.75,36.531L18.844,6L53.125,6L55.078,16.219L61.078,16.219L57.953,0L-1.516,0Z" style="fill:rgb(254,254,254);fill-rule:nonzero;"/>
    </g>
    <g transform="matrix(-4.02e-17,-0.105,-0.105,4.02e-17,13.2717,99.4163)">
        <path d="M12.797,55.516L7.328,55.516L7.328,68.5C10.807,70.365 14.313,71.781 17.844,72.75C21.375,73.729 24.833,74.219 28.219,74.219C35.802,74.219 41.792,72.38 46.188,68.703C50.583,65.026 52.781,60.031 52.781,53.719C52.781,46.583 47.802,38.052 37.844,28.125C37.063,27.375 36.474,26.807 36.078,26.422L17.672,8.016L48.094,8.016L48.094,17L53.813,17L53.813,0L6.781,0L6.781,5.328L28.906,27.391C33.792,32.276 37.276,36.76 39.359,40.844C41.443,44.927 42.484,49.219 42.484,53.719C42.484,58.625 41.203,62.464 38.641,65.234C36.089,68.005 32.568,69.391 28.078,69.391C23.422,69.391 19.823,68.234 17.281,65.922C14.75,63.609 13.255,60.141 12.797,55.516Z" style="fill:rgb(254,254,254);fill-rule:nonzero;"/>
    </g>
    <g transform="matrix(-4.02e-17,-0.105,-0.105,4.02e-17,13.2717,92.7359)">
        <path d="M12.797,55.516L7.328,55.516L7.328,68.5C10.807,70.365 14.313,71.781 17.844,72.75C21.375,73.729 24.833,74.219 28.219,74.219C35.802,74.219 41.792,72.38 46.188,68.703C50.583,65.026 52.781,60.031 52.781,53.719C52.781,46.583 47.802,38.052 37.844,28.125C37.063,27.375 36.474,26.807 36.078,26.422L17.672,8.016L48.094,8.016L48.094,17L53.813,17L53.813,0L6.781,0L6.781,5.328L28.906,27.391C33.792,32.276 37.276,36.76 39.359,40.844C41.443,44.927 42.484,49.219 42.484,53.719C42.484,58.625 41.203,62.464 38.641,65.234C36.089,68.005 32.568,69.391 28.078,69.391C23.422,69.391 19.823,68.234 17.281,65.922C14.75,63.609 13.255,60.141 12.797,55.516Z" style="fill:rgb(254,254,254);fill-rule:nonzero;"/>
    </g>
    <g id="ArialMT-48" transform="matrix(0.15,0,0,-0.15,26.6922,41.227)">
        <path d="M4.156,35.297C4.156,43.766 5.026,50.578 6.766,55.734C8.505,60.901 11.089,64.88 14.516,67.672C17.953,70.474 22.276,71.875 27.484,71.875C31.328,71.875 34.698,71.099 37.594,69.547C40.49,68.005 42.88,65.776 44.766,62.859C46.661,59.953 48.146,56.406 49.219,52.219C50.292,48.042 50.828,42.401 50.828,35.297C50.828,26.901 49.964,20.125 48.234,14.969C46.516,9.813 43.938,5.823 40.5,3C37.073,0.188 32.734,-1.219 27.484,-1.219C20.589,-1.219 15.172,1.255 11.234,6.203C6.516,12.161 4.156,21.859 4.156,35.297ZM13.188,35.297C13.188,23.547 14.563,15.724 17.313,11.828C20.063,7.943 23.453,6 27.484,6C31.526,6 34.922,7.953 37.672,11.859C40.422,15.766 41.797,23.578 41.797,35.297C41.797,47.089 40.422,54.917 37.672,58.781C34.922,62.656 31.495,64.594 27.391,64.594C23.359,64.594 20.135,62.885 17.719,59.469C14.698,55.115 13.188,47.057 13.188,35.297Z" style="fill:rgb(254,254,254);fill-rule:nonzero;"/>
    </g>
    <g transform="matrix(0.15,0,0,-0.15,35.0345,41.227)">
        <rect x="9.078" y="0" width="10.016" height="10.016" style="fill:rgb(254,254,254);"/>
    </g>
    <g transform="matrix(0.15,0,0,-0.15,39.202,41.227)">
        <path d="M50.344,8.453L50.344,0L3.031,0C2.969,2.115 3.307,4.151 4.047,6.109C5.255,9.328 7.182,12.5 9.828,15.625C12.484,18.75 16.323,22.365 21.344,26.469C29.125,32.844 34.38,37.896 37.109,41.625C39.849,45.354 41.219,48.88 41.219,52.203C41.219,55.682 39.969,58.615 37.469,61C34.979,63.396 31.734,64.594 27.734,64.594C23.505,64.594 20.12,63.323 17.578,60.781C15.036,58.25 13.75,54.74 13.719,50.25L4.688,51.172C5.302,57.911 7.625,63.047 11.656,66.578C15.698,70.109 21.125,71.875 27.938,71.875C34.802,71.875 40.234,69.969 44.234,66.156C48.245,62.354 50.25,57.635 50.25,52C50.25,49.135 49.661,46.318 48.484,43.547C47.318,40.786 45.375,37.875 42.656,34.813C39.938,31.75 35.422,27.552 29.109,22.219C23.828,17.792 20.438,14.786 18.938,13.203C17.448,11.63 16.214,10.047 15.234,8.453L50.344,8.453Z" style="fill:rgb(254,254,254);fill-rule:nonzero;"/>
    </g>
    <g id="m489c51ab10" transform="matrix(1,0,0,1,54.5422,35.858)">
        <path d="M0,0L-3.5,0" style="fill:none;fill-rule:nonzero;stroke:black;stroke-width:0.8px;"/>
    </g>
    <g id="m489c51ab101" serif:id="m489c51ab10" transform="matrix(1,0,0,1,54.5422,77.454)">
        <path d="M0,0L-3.5,0" style="fill:none;fill-rule:nonzero;stroke:black;stroke-width:0.8px;"/>
    </g>
    <g id="ArialMT-481" serif:id="ArialMT-48" transform="matrix(0.15,0,0,-0.15,26.6922,82.822)">
        <path d="M4.156,35.297C4.156,43.766 5.026,50.578 6.766,55.734C8.505,60.901 11.089,64.88 14.516,67.672C17.953,70.474 22.276,71.875 27.484,71.875C31.328,71.875 34.698,71.099 37.594,69.547C40.49,68.005 42.88,65.776 44.766,62.859C46.661,59.953 48.146,56.406 49.219,52.219C50.292,48.042 50.828,42.401 50.828,35.297C50.828,26.901 49.964,20.125 48.234,14.969C46.516,9.813 43.938,5.823 40.5,3C37.073,0.188 32.734,-1.219 27.484,-1.219C20.589,-1.219 15.172,1.255 11.234,6.203C6.516,12.161 4.156,21.859 4.156,35.297ZM13.188,35.297C13.188,23.547 14.563,15.724 17.313,11.828C20.063,7.943 23.453,6 27.484,6C31.526,6 34.922,7.953 37.672,11.859C40.422,15.766 41.797,23.578 41.797,35.297C41.797,47.089 40.422,54.917 37.672,58.781C34.922,62.656 31.495,64.594 27.391,64.594C23.359,64.594 20.135,62.885 17.719,59.469C14.698,55.115 13.188,47.057 13.188,35.297Z" style="fill:rgb(254,254,254);fill-rule:nonzero;"/>
    </g>
    <g transform="matrix(0.15,0,0,-0.15,35.0345,82.822)">
        <rect x="9.078" y="0" width="10.016" height="10.016" style="fill:rgb(254,254,254);"/>
    </g>
    <g transform="matrix(0.15,0,0,-0.15,39.202,82.822)">
        <path d="M37.25,0L28.469,0L28.469,56C26.354,53.99 23.578,51.974 20.141,49.953C16.703,47.932 13.62,46.417 10.891,45.406L10.891,53.906C15.807,56.219 20.104,59.016 23.781,62.297C27.458,65.589 30.063,68.781 31.594,71.875L37.25,71.875L37.25,0Z" style="fill:rgb(254,254,254);fill-rule:nonzero;"/>
    </g>
    <g id="m489c51ab102" serif:id="m489c51ab10" transform="matrix(1,0,0,1,54.5422,119.049)">
        <path d="M0,0L-3.5,0" style="fill:none;fill-rule:nonzero;stroke:black;stroke-width:0.8px;"/>
    </g>
    <g id="ArialMT-482" serif:id="ArialMT-48" transform="matrix(0.15,0,0,-0.15,26.6922,124.417)">
        <path d="M4.156,35.297C4.156,43.766 5.026,50.578 6.766,55.734C8.505,60.901 11.089,64.88 14.516,67.672C17.953,70.474 22.276,71.875 27.484,71.875C31.328,71.875 34.698,71.099 37.594,69.547C40.49,68.005 42.88,65.776 44.766,62.859C46.661,59.953 48.146,56.406 49.219,52.219C50.292,48.042 50.828,42.401 50.828,35.297C50.828,26.901 49.964,20.125 48.234,14.969C46.516,9.813 43.938,5.823 40.5,3C37.073,0.188 32.734,-1.219 27.484,-1.219C20.589,-1.219 15.172,1.255 11.234,6.203C6.516,12.161 4.156,21.859 4.156,35.297ZM13.188,35.297C13.188,23.547 14.563,15.724 17.313,11.828C20.063,7.943 23.453,6 27.484,6C31.526,6 34.922,7.953 37.672,11.859C40.422,15.766 41.797,23.578 41.797,35.297C41.797,47.089 40.422,54.917 37.672,58.781C34.922,62.656 31.495,64.594 27.391,64.594C23.359,64.594 20.135,62.885 17.719,59.469C14.698,55.115 13.188,47.057 13.188,35.297Z" style="fill:rgb(254,254,254);fill-rule:nonzero;"/>
    </g>
    <g transform="matrix(0.15,0,0,-0.15,35.0345,124.417)">
        <rect x="9.078" y="0" width="10.016" height="10.016" style="fill:rgb(254,254,254);"/>
    </g>
    <g transform="matrix(0.15,0,0,-0.15,39.202,124.417)">
        <path d="M4.156,35.297C4.156,43.766 5.026,50.578 6.766,55.734C8.505,60.901 11.089,64.88 14.516,67.672C17.953,70.474 22.276,71.875 27.484,71.875C31.328,71.875 34.698,71.099 37.594,69.547C40.49,68.005 42.88,65.776 44.766,62.859C46.661,59.953 48.146,56.406 49.219,52.219C50.292,48.042 50.828,42.401 50.828,35.297C50.828,26.901 49.964,20.125 48.234,14.969C46.516,9.813 43.938,5.823 40.5,3C37.073,0.188 32.734,-1.219 27.484,-1.219C20.589,-1.219 15.172,1.255 11.234,6.203C6.516,12.161 4.156,21.859 4.156,35.297ZM13.188,35.297C13.188,23.547 14.563,15.724 17.313,11.828C20.063,7.943 23.453,6 27.484,6C31.526,6 34.922,7.953 37.672,11.859C40.422,15.766 41.797,23.578 41.797,35.297C41.797,47.089 40.422,54.917 37.672,58.781C34.922,62.656 31.495,64.594 27.391,64.594C23.359,64.594 20.135,62.885 17.719,59.469C14.698,55.115 13.188,47.057 13.188,35.297Z" style="fill:rgb(254,254,254);fill-rule:nonzero;"/>
    </g>
    <g id="m489c51ab103" serif:id="m489c51ab10" transform="matrix(1,0,0,1,54.5422,160.644)">
        <path d="M0,0L-3.5,0" style="fill:none;fill-rule:nonzero;stroke:black;stroke-width:0.8px;"/>
    </g>
    <g id="ArialMT-8722" transform="matrix(0.15,0,0,-0.15,17.9313,166.013)">
        <rect x="5.563" y="31.203" width="47.266" height="8.203" style="fill:rgb(254,254,254);"/>
    </g>
    <g transform="matrix(0.15,0,0,-0.15,26.6911,166.013)">
        <path d="M4.156,35.297C4.156,43.766 5.026,50.578 6.766,55.734C8.505,60.901 11.089,64.88 14.516,67.672C17.953,70.474 22.276,71.875 27.484,71.875C31.328,71.875 34.698,71.099 37.594,69.547C40.49,68.005 42.88,65.776 44.766,62.859C46.661,59.953 48.146,56.406 49.219,52.219C50.292,48.042 50.828,42.401 50.828,35.297C50.828,26.901 49.964,20.125 48.234,14.969C46.516,9.813 43.938,5.823 40.5,3C37.073,0.188 32.734,-1.219 27.484,-1.219C20.589,-1.219 15.172,1.255 11.234,6.203C6.516,12.161 4.156,21.859 4.156,35.297ZM13.188,35.297C13.188,23.547 14.563,15.724 17.313,11.828C20.063,7.943 23.453,6 27.484,6C31.526,6 34.922,7.953 37.672,11.859C40.422,15.766 41.797,23.578 41.797,35.297C41.797,47.089 40.422,54.917 37.672,58.781C34.922,62.656 31.495,64.594 27.391,64.594C23.359,64.594 20.135,62.885 17.719,59.469C14.698,55.115 13.188,47.057 13.188,35.297Z" style="fill:rgb(254,254,254);fill-rule:nonzero;"/>
    </g>
    <g transform="matrix(0.15,0,0,-0.15,35.0334,166.013)">
        <rect x="9.078" y="0" width="10.016" height="10.016" style="fill:rgb(254,254,254);"/>
    </g>
    <g transform="matrix(0.15,0,0,-0.15,39.2009,166.013)">
        <path d="M37.25,0L28.469,0L28.469,56C26.354,53.99 23.578,51.974 20.141,49.953C16.703,47.932 13.62,46.417 10.891,45.406L10.891,53.906C15.807,56.219 20.104,59.016 23.781,62.297C27.458,65.589 30.063,68.781 31.594,71.875L37.25,71.875L37.25,0Z" style="fill:rgb(254,254,254);fill-rule:nonzero;"/>
    </g>
    <g id="me7402a3beb" transform="matrix(1,0,0,1,133.726,193.921)">
        <path d="M0,0L0,3.5" style="fill:none;fill-rule:nonzero;stroke:black;stroke-width:0.8px;"/>
    </g>
    <g id="ArialMT-483" serif:id="ArialMT-48" transform="matrix(0.15,0,0,-0.15,123.301,211.658)">
        <path d="M4.156,35.297C4.156,43.766 5.026,50.578 6.766,55.734C8.505,60.901 11.089,64.88 14.516,67.672C17.953,70.474 22.276,71.875 27.484,71.875C31.328,71.875 34.698,71.099 37.594,69.547C40.49,68.005 42.88,65.776 44.766,62.859C46.661,59.953 48.146,56.406 49.219,52.219C50.292,48.042 50.828,42.401 50.828,35.297C50.828,26.901 49.964,20.125 48.234,14.969C46.516,9.813 43.938,5.823 40.5,3C37.073,0.188 32.734,-1.219 27.484,-1.219C20.589,-1.219 15.172,1.255 11.234,6.203C6.516,12.161 4.156,21.859 4.156,35.297ZM13.188,35.297C13.188,23.547 14.563,15.724 17.313,11.828C20.063,7.943 23.453,6 27.484,6C31.526,6 34.922,7.953 37.672,11.859C40.422,15.766 41.797,23.578 41.797,35.297C41.797,47.089 40.422,54.917 37.672,58.781C34.922,62.656 31.495,64.594 27.391,64.594C23.359,64.594 20.135,62.885 17.719,59.469C14.698,55.115 13.188,47.057 13.188,35.297Z" style="fill:rgb(254,254,254);fill-rule:nonzero;"/>
    </g>
    <g transform="matrix(0.15,0,0,-0.15,131.643,211.658)">
        <rect x="9.078" y="0" width="10.016" height="10.016" style="fill:rgb(254,254,254);"/>
    </g>
    <g transform="matrix(0.15,0,0,-0.15,135.811,211.658)">
        <path d="M4.156,35.297C4.156,43.766 5.026,50.578 6.766,55.734C8.505,60.901 11.089,64.88 14.516,67.672C17.953,70.474 22.276,71.875 27.484,71.875C31.328,71.875 34.698,71.099 37.594,69.547C40.49,68.005 42.88,65.776 44.766,62.859C46.661,59.953 48.146,56.406 49.219,52.219C50.292,48.042 50.828,42.401 50.828,35.297C50.828,26.901 49.964,20.125 48.234,14.969C46.516,9.813 43.938,5.823 40.5,3C37.073,0.188 32.734,-1.219 27.484,-1.219C20.589,-1.219 15.172,1.255 11.234,6.203C6.516,12.161 4.156,21.859 4.156,35.297ZM13.188,35.297C13.188,23.547 14.563,15.724 17.313,11.828C20.063,7.943 23.453,6 27.484,6C31.526,6 34.922,7.953 37.672,11.859C40.422,15.766 41.797,23.578 41.797,35.297C41.797,47.089 40.422,54.917 37.672,58.781C34.922,62.656 31.495,64.594 27.391,64.594C23.359,64.594 20.135,62.885 17.719,59.469C14.698,55.115 13.188,47.057 13.188,35.297Z" style="fill:rgb(254,254,254);fill-rule:nonzero;"/>
    </g>
    <g transform="matrix(0.15,0,0,-0.15,143.622,229.362)">
        <path d="M-1.516,0L-0.531,5.172L8.734,5.172L20.906,67.672L11.625,67.672L12.641,72.906L71.344,72.906L68.219,56.688L62.203,56.688L64.156,66.891L30.672,66.891L25.922,42.484L49.813,42.484L51.563,51.609L57.563,51.609L52.875,27.391L46.875,27.391L48.641,36.531L24.75,36.531L18.844,6L53.125,6L55.078,16.219L61.078,16.219L57.953,0L-1.516,0Z" style="fill:rgb(254,254,254);fill-rule:nonzero;"/>
    </g>
    <g transform="matrix(0.105,0,0,-0.105,154.572,231.698)">
        <path d="M14.203,0L14.203,5.172L26.906,5.172L26.906,65.828L12.203,56.297L12.203,62.703L29.984,74.219L36.719,74.219L36.719,5.172L49.422,5.172L49.422,0L14.203,0Z" style="fill:rgb(254,254,254);fill-rule:nonzero;"/>
    </g>
    <g transform="matrix(0.105,0,0,-0.105,161.252,231.698)">
        <path d="M14.203,0L14.203,5.172L26.906,5.172L26.906,65.828L12.203,56.297L12.203,62.703L29.984,74.219L36.719,74.219L36.719,5.172L49.422,5.172L49.422,0L14.203,0Z" style="fill:rgb(254,254,254);fill-rule:nonzero;"/>
    </g>
    <g id="me7402a3beb1" serif:id="me7402a3beb" transform="matrix(1,0,0,1,221.708,193.921)">
        <path d="M0,0L0,3.5" style="fill:none;fill-rule:nonzero;stroke:black;stroke-width:0.8px;"/>
    </g>
    <g id="ArialMT-484" serif:id="ArialMT-48" transform="matrix(0.15,0,0,-0.15,211.283,211.658)">
        <path d="M4.156,35.297C4.156,43.766 5.026,50.578 6.766,55.734C8.505,60.901 11.089,64.88 14.516,67.672C17.953,70.474 22.276,71.875 27.484,71.875C31.328,71.875 34.698,71.099 37.594,69.547C40.49,68.005 42.88,65.776 44.766,62.859C46.661,59.953 48.146,56.406 49.219,52.219C50.292,48.042 50.828,42.401 50.828,35.297C50.828,26.901 49.964,20.125 48.234,14.969C46.516,9.813 43.938,5.823 40.5,3C37.073,0.188 32.734,-1.219 27.484,-1.219C20.589,-1.219 15.172,1.255 11.234,6.203C6.516,12.161 4.156,21.859 4.156,35.297ZM13.188,35.297C13.188,23.547 14.563,15.724 17.313,11.828C20.063,7.943 23.453,6 27.484,6C31.526,6 34.922,7.953 37.672,11.859C40.422,15.766 41.797,23.578 41.797,35.297C41.797,47.089 40.422,54.917 37.672,58.781C34.922,62.656 31.495,64.594 27.391,64.594C23.359,64.594 20.135,62.885 17.719,59.469C14.698,55.115 13.188,47.057 13.188,35.297Z" style="fill:rgb(254,254,254);fill-rule:nonzero;"/>
    </g>
    <g transform="matrix(0.15,0,0,-0.15,219.625,211.658)">
        <rect x="9.078" y="0" width="10.016" height="10.016" style="fill:rgb(254,254,254);"/>
    </g>
    <g transform="matrix(0.15,0,0,-0.15,223.793,211.658)">
        <path d="M50.344,8.453L50.344,0L3.031,0C2.969,2.115 3.307,4.151 4.047,6.109C5.255,9.328 7.182,12.5 9.828,15.625C12.484,18.75 16.323,22.365 21.344,26.469C29.125,32.844 34.38,37.896 37.109,41.625C39.849,45.354 41.219,48.88 41.219,52.203C41.219,55.682 39.969,58.615 37.469,61C34.979,63.396 31.734,64.594 27.734,64.594C23.505,64.594 20.12,63.323 17.578,60.781C15.036,58.25 13.75,54.74 13.719,50.25L4.688,51.172C5.302,57.911 7.625,63.047 11.656,66.578C15.698,70.109 21.125,71.875 27.938,71.875C34.802,71.875 40.234,69.969 44.234,66.156C48.245,62.354 50.25,57.635 50.25,52C50.25,49.135 49.661,46.318 48.484,43.547C47.318,40.786 45.375,37.875 42.656,34.813C39.938,31.75 35.422,27.552 29.109,22.219C23.828,17.792 20.438,14.786 18.938,13.203C17.448,11.63 16.214,10.047 15.234,8.453L50.344,8.453Z" style="fill:rgb(254,254,254);fill-rule:nonzero;"/>
    </g>
</svg>
