<?xml version="1.0" encoding="UTF-8" standalone="no"?>
<!DOCTYPE svg PUBLIC "-//W3C//DTD SVG 1.1//EN" "http://www.w3.org/Graphics/SVG/1.1/DTD/svg11.dtd">
<svg width="100%" height="100%" viewBox="0 0 1200 800" version="1.1" xmlns="http://www.w3.org/2000/svg" xmlns:xlink="http://www.w3.org/1999/xlink" xml:space="preserve" xmlns:serif="http://www.serif.com/" style="fill-rule:evenodd;clip-rule:evenodd;stroke-linejoin:round;stroke-miterlimit:2;">
    <g>
        <path d="M268.788,260.652C292.821,259.517 321.258,264.636 326.555,281.594C335.239,309.388 291.227,349.916 252.873,369.809C243.473,374.686 237.775,376.025 235.401,375.691C233.133,375.365 232.785,373.117 233.52,371.559C234.888,368.64 241.069,362.683 249.351,356.212C292.524,322.492 306.561,297.755 298.411,287.726C293.183,281.308 271.295,276.846 248.57,276.846C242.399,276.846 226.188,278.278 224.523,272.565C223.166,267.886 244.928,261.78 268.788,260.652M217.951,388.091C238.557,386.888 263.589,390.486 277.648,401.245C284.638,406.586 289.554,416.422 286.708,427.698C278.593,459.701 248.305,498.417 181.005,528.169C159.605,537.629 142.778,541.249 139.246,538.711C135.45,535.981 146.487,514.865 149.808,507.854C160.553,485.154 173.975,463.05 187.06,442.815C191.882,435.367 199.32,422.453 206.058,423.486C212.09,424.412 205.025,438.139 200.377,446.868C192.57,461.512 171.063,502.199 178.158,504.629C193.842,510.009 267.429,454.026 256.579,422.847C251.549,408.377 219.599,406.999 199.476,406.999C190.324,406.999 170.334,409.162 169.227,402.154C168.034,395.687 199.598,389.177 217.951,388.091" style="fill:white;"/>
        <path d="M377.104,353.809C389.472,356.043 399.554,357.773 401.87,362.995C404.467,368.912 390.997,369.27 384.208,369.41C351.67,370.04 332.049,370.679 331.068,381.737C329.79,395.969 344.973,410.296 359.965,430.388C373.662,448.727 389.233,466.822 384.744,483.701C379.15,504.722 353.378,509.169 328.839,509.172C305.333,509.194 283.063,505.423 273.71,503.564C262.058,501.264 263.789,495.507 266.899,493.656C270.362,491.588 290.175,491.539 303.944,490.72C315.274,490.051 348.181,490.071 353.31,481.64C359.604,471.324 344.198,453.659 330.055,435.162C312.404,412.08 293.018,388.255 303.277,370.853C316.555,348.338 355.394,349.882 377.104,353.808" style="fill:white;"/>
    </g>
</svg>
