<?xml version="1.0" encoding="UTF-8" standalone="no"?>
<!DOCTYPE svg PUBLIC "-//W3C//DTD SVG 1.1//EN" "http://www.w3.org/Graphics/SVG/1.1/DTD/svg11.dtd">
<svg width="100%" height="100%" viewBox="0 0 1152 1728" version="1.1" xmlns="http://www.w3.org/2000/svg" xmlns:xlink="http://www.w3.org/1999/xlink" xml:space="preserve" xmlns:serif="http://www.serif.com/" style="fill-rule:evenodd;clip-rule:evenodd;">
    <g id="figure_1">
        <g id="axes_6">
            <g id="patch_22">
                <path d="M418.45,1118.97L745.974,1118.97L762.35,1110.78L745.974,1102.59L418.45,1102.59L418.45,1118.97Z" style="fill:white;fill-rule:nonzero;stroke:white;stroke-width:0.01px;"/>
            </g>
            <g id="QuadMesh_1">
                <path d="M418.45,1118.97L454.841,1118.97L454.841,1102.59L418.45,1102.59L418.45,1118.97" style="fill:rgb(220,233,246);fill-rule:nonzero;"/>
                <path d="M454.841,1118.97L491.233,1118.97L491.233,1102.59L454.841,1102.59L454.841,1118.97" style="fill:rgb(159,202,225);fill-rule:nonzero;"/>
                <path d="M491.233,1118.97L527.624,1118.97L527.624,1102.59L491.233,1102.59L491.233,1118.97" style="fill:rgb(102,171,212);fill-rule:nonzero;"/>
                <path d="M527.624,1118.97L564.016,1118.97L564.016,1102.59L527.624,1102.59L527.624,1118.97" style="fill:rgb(70,149,200);fill-rule:nonzero;"/>
                <path d="M564.016,1118.97L600.408,1118.97L600.408,1102.59L564.016,1102.59L564.016,1118.97" style="fill:rgb(44,124,186);fill-rule:nonzero;"/>
                <path d="M600.408,1118.97L636.799,1118.97L636.799,1102.59L600.408,1102.59L600.408,1118.97" style="fill:rgb(25,102,173);fill-rule:nonzero;"/>
                <path d="M636.799,1118.97L673.191,1118.97L673.191,1102.59L636.799,1102.59L636.799,1118.97" style="fill:rgb(8,81,156);fill-rule:nonzero;"/>
                <path d="M673.191,1118.97L709.583,1118.97L709.583,1102.59L673.191,1102.59L673.191,1118.97" style="fill:rgb(8,64,130);fill-rule:nonzero;"/>
                <path d="M709.583,1118.97L745.974,1118.97L745.974,1102.59L709.583,1102.59L709.583,1118.97" style="fill:rgb(8,52,113);fill-rule:nonzero;"/>
                <path d="M745.974,1118.97L762.35,1110.78L745.974,1102.59L745.974,1118.97" style="fill:rgb(8,48,107);fill-rule:nonzero;"/>
            </g>
            <g id="patch_23">
                <path d="M418.45,1118.97L745.974,1118.97L762.35,1110.78L745.974,1102.59L418.45,1102.59L418.45,1118.97Z" style="fill:none;fill-rule:nonzero;stroke:black;stroke-width:0.8px;"/>
            </g>
        </g>
    </g>
</svg>
