<?xml version="1.0" encoding="UTF-8" standalone="no"?>
<!DOCTYPE svg PUBLIC "-//W3C//DTD SVG 1.0//EN"
"http://www.w3.org/Graphics/SVG/1.1/DTD/svg10.dtd">
<svg xmlns="http://www.w3.org/2000/svg" xmlns:xlink="http://www.w3.org/1999/xlink" width=" 90.00" height="300.00" >

<svg x="0.00" y="0.00" width=" 90.00" height="300.00" >
<polygon style= "fill: #00B9FF; opacity:1.00 " points="34.15,272.36 58.03,272.36 34.15,256.36 " />
<polygon style= "fill: #00B9FF; opacity:1.00 " points="58.03,272.36 58.03,256.36 34.15,256.36 " />
<polygon style= "fill: #00FFE7; opacity:1.00 " points="34.15,256.36 58.03,256.36 34.15,240.36 " />
<polygon style= "fill: #00FFE7; opacity:1.00 " points="58.03,256.36 58.03,240.36 34.15,240.36 " />
<polygon style= "fill: #00FF8B; opacity:1.00 " points="34.15,240.36 58.03,240.36 34.15,224.36 " />
<polygon style= "fill: #00FF8B; opacity:1.00 " points="58.03,240.36 58.03,224.36 34.15,224.36 " />
<polygon style= "fill: #00FF5C; opacity:1.00 " points="34.15,224.36 58.03,224.36 34.15,208.36 " />
<polygon style= "fill: #00FF5C; opacity:1.00 " points="58.03,224.36 58.03,208.36 34.15,208.36 " />
<polygon style= "fill: #00FF2E; opacity:1.00 " points="34.15,208.36 58.03,208.36 34.15,192.36 " />
<polygon style= "fill: #00FF2E; opacity:1.00 " points="58.03,208.36 58.03,192.36 34.15,192.36 " />
<polygon style= "fill: #2EFF00; opacity:1.00 " points="34.15,192.36 58.03,192.36 34.15,176.36 " />
<polygon style= "fill: #2EFF00; opacity:1.00 " points="58.03,192.36 58.03,176.36 34.15,176.36 " />
<polygon style= "fill: #8BFF00; opacity:1.00 " points="34.15,176.36 58.03,176.36 34.15,160.36 " />
<polygon style= "fill: #8BFF00; opacity:1.00 " points="58.03,176.36 58.03,160.36 34.15,160.36 " />
<polygon style= "fill: #E7FF00; opacity:1.00 " points="34.15,160.36 58.03,160.36 34.15,144.36 " />
<polygon style= "fill: #E7FF00; opacity:1.00 " points="58.03,160.36 58.03,144.36 34.15,144.36 " />
<polygon style= "fill: #FFE800; opacity:1.00 " points="34.15,144.36 58.03,144.36 34.15,128.36 " />
<polygon style= "fill: #FFE800; opacity:1.00 " points="58.03,144.36 58.03,128.36 34.15,128.36 " />
<polygon style= "fill: #FFB900; opacity:1.00 " points="34.15,128.36 58.03,128.36 34.15,112.36 " />
<polygon style= "fill: #FFB900; opacity:1.00 " points="58.03,128.36 58.03,112.36 34.15,112.36 " />
<polygon style= "fill: #FF5C00; opacity:1.00 " points="34.15,112.36 58.03,112.36 34.15,96.36 " />
<polygon style= "fill: #FF5C00; opacity:1.00 " points="58.03,112.36 58.03,96.36 34.15,96.36 " />
<polygon style= "fill: #FF0000; opacity:1.00 " points="34.15,96.36 58.03,96.36 34.15,80.36 " />
<polygon style= "fill: #FF0000; opacity:1.00 " points="58.03,96.36 58.03,80.36 34.15,80.36 " />

<!-- <line x1="34.15" y1="272.36"  x2="66.00" y2="272.36" style= "stroke: #000000;stroke-width:0.67; stroke-dasharray: 0 " /> 
<line x1="34.15" y1="256.36"  x2="66.00" y2="256.36" style= "stroke: #000000;stroke-width:0.67; stroke-dasharray: 0 " /> 
<line x1="34.15" y1="240.36"  x2="66.00" y2="240.36" style= "stroke: #000000;stroke-width:0.67; stroke-dasharray: 0 " /> 
<line x1="34.15" y1="224.36"  x2="66.00" y2="224.36" style= "stroke: #000000;stroke-width:0.67; stroke-dasharray: 0 " /> 
<line x1="34.15" y1="208.36"  x2="66.00" y2="208.36" style= "stroke: #000000;stroke-width:0.67; stroke-dasharray: 0 " /> 
<line x1="34.15" y1="192.36"  x2="66.00" y2="192.36" style= "stroke: #000000;stroke-width:0.67; stroke-dasharray: 0 " /> 
<line x1="34.15" y1="176.36"  x2="66.00" y2="176.36" style= "stroke: #000000;stroke-width:0.67; stroke-dasharray: 0 " /> 
<line x1="34.15" y1="160.36"  x2="66.00" y2="160.36" style= "stroke: #000000;stroke-width:0.67; stroke-dasharray: 0 " /> 
<line x1="34.15" y1="144.36"  x2="66.00" y2="144.36" style= "stroke: #000000;stroke-width:0.67; stroke-dasharray: 0 " /> 
<line x1="34.15" y1="128.36"  x2="66.00" y2="128.36" style= "stroke: #000000;stroke-width:0.67; stroke-dasharray: 0 " /> 
<line x1="34.15" y1="112.36"  x2="66.00" y2="112.36" style= "stroke: #000000;stroke-width:0.67; stroke-dasharray: 0 " /> 
<line x1="34.15" y1="96.36"  x2="66.00" y2="96.36" style= "stroke: #000000;stroke-width:0.67; stroke-dasharray: 0 " /> 
<line x1="34.15" y1="80.36"  x2="66.00" y2="80.36" style= "stroke: #000000;stroke-width:0.67; stroke-dasharray: 0 " /> 
<line x1="34.15" y1="272.36"  x2="34.15" y2="80.36" style= "stroke: #000000;stroke-width:0.67; stroke-dasharray: 0 " /> 
<line x1="34.15" y1="80.36"  x2="58.03" y2="80.36" style= "stroke: #000000;stroke-width:0.67; stroke-dasharray: 0 " /> 
<line x1="58.03" y1="80.36"  x2="58.03" y2="272.36" style= "stroke: #000000;stroke-width:0.67; stroke-dasharray: 0 " /> 
<line x1="58.03" y1="272.36"  x2="34.15" y2="272.36" style= "stroke: #000000;stroke-width:0.67; stroke-dasharray: 0 " />  -->
</svg>
</svg>
