<?xml version="1.0" encoding="UTF-8" standalone="no"?>
<!DOCTYPE svg PUBLIC "-//W3C//DTD SVG 1.1//EN" "http://www.w3.org/Graphics/SVG/1.1/DTD/svg11.dtd">
<svg width="100%" height="100%" viewBox="0 0 260 232" version="1.1" xmlns="http://www.w3.org/2000/svg" xmlns:xlink="http://www.w3.org/1999/xlink" xml:space="preserve" xmlns:serif="http://www.serif.com/" style="fill-rule:evenodd;clip-rule:evenodd;">
    <g id="axes_2" transform="matrix(1,0,0,1,-260.949,-101.618)">
        <g id="patch_7">
            <rect x="315.491" y="103.68" width="202.909" height="191.859" style="fill:white;fill-rule:nonzero;"/>
        </g>
        <g id="PathCollection_11">
            <path d="M395.574,293.804L399.64,295.171L400.83,295.539L509.11,295.539L513.369,293.465L515.163,292.465L518.4,290.26L518.4,249.64L518.192,249.317L515.609,245.752L513.369,242.918L512.762,242.153L509.523,238.518L508.374,237.339L505.954,234.848L503.417,232.42L502.091,231.143L498.497,227.922L497.923,227.403L493.614,223.773L493.444,223.628L488.768,219.912L488.65,219.817L483.959,216.297L483.533,215.972L479.187,212.885L478.091,212.092L474.453,209.639L472.325,208.176L469.755,206.53L466.237,204.226L465.095,203.529L460.471,200.672L459.776,200.24L455.885,197.998L452.875,196.219L451.336,195.376L446.824,192.884L445.523,192.163L442.349,190.54L437.911,188.216L437.632,188.072L433.51,186.126L429.147,184.013L429.005,183.946L424.82,182.147L420.531,180.281L419.356,179.785L416.279,178.602L412.063,177.011L408.219,175.589L407.885,175.477L403.744,174.183L399.64,172.958L395.574,171.82L393.728,171.358L391.544,170.866L387.551,170.087L383.596,169.439L379.677,168.942L375.796,168.616L371.952,168.481L368.145,168.557L364.375,168.862L360.642,169.415L356.946,170.233L353.288,171.333L353.222,171.358L349.666,172.944L346.082,174.913L345.057,175.589L342.534,177.522L340.021,179.785L339.024,180.833L336.473,183.946L335.551,185.27L333.861,188.072L332.115,191.527L331.836,192.163L330.396,196.219L329.282,200.24L328.716,203.066L328.516,204.226L328.089,208.176L327.91,212.092L327.963,215.972L328.233,219.817L328.702,223.628L328.716,223.708L329.453,227.403L330.39,231.143L331.485,234.848L332.115,236.697L332.815,238.518L334.38,242.153L335.551,244.663L336.121,245.752L338.127,249.317L339.024,250.837L340.321,252.847L342.534,256.177L342.653,256.341L345.297,259.801L346.082,260.793L348.159,263.225L349.666,264.932L351.264,266.614L353.288,268.671L354.656,269.968L356.946,272.059L358.381,273.287L360.642,275.144L362.486,276.571L364.375,277.97L367.012,279.82L368.145,280.577L371.952,283.001L372.009,283.034L375.796,285.154L377.767,286.213L379.677,287.18L383.596,289.077L384.216,289.357L387.551,290.763L391.544,292.395L391.732,292.465L395.574,293.804ZM398.884,249.317L395.574,248.102L391.544,246.348L390.384,245.752L387.551,244.159L384.369,242.153L383.596,241.617L379.677,238.585L379.6,238.518L375.796,234.921L375.725,234.848L372.519,231.143L371.952,230.403L369.94,227.403L368.145,224.186L367.877,223.628L366.754,219.817L366.53,215.972L367.358,212.092L368.145,210.57L369.759,208.176L371.952,206.237L375.195,204.226L375.796,203.969L379.677,202.922L383.596,202.438L387.551,202.435L391.544,202.831L395.574,203.551L398.33,204.226L399.64,204.618L403.744,206.123L407.885,207.775L408.79,208.176L412.063,209.946L415.984,212.092L416.279,212.294L420.531,215.316L421.45,215.972L424.82,219.028L425.697,219.817L428.82,223.628L429.147,224.215L430.889,227.403L432.287,231.143L433.004,234.848L433.01,238.518L432.079,242.153L429.881,245.752L429.147,246.476L425.107,249.317L424.82,249.455L420.531,250.836L416.279,251.517L412.063,251.638L407.885,251.304L403.744,250.594L399.64,249.57L398.884,249.317Z" style="fill:rgb(220,233,246);fill-rule:nonzero;"/>
        </g>
        <g id="PathCollection_12">
            <path d="M332.115,292.473L335.425,295.539L400.83,295.539L399.64,295.171L395.574,293.804L391.732,292.465L391.544,292.395L387.551,290.763L384.216,289.357L383.596,289.077L379.677,287.18L377.767,286.213L375.796,285.154L372.009,283.034L371.952,283.001L368.145,280.577L367.012,279.82L364.375,277.97L362.486,276.571L360.642,275.144L358.381,273.287L356.946,272.059L354.656,269.968L353.288,268.671L351.264,266.614L349.666,264.932L348.159,263.225L346.082,260.793L345.297,259.801L342.653,256.341L342.534,256.177L340.321,252.847L339.024,250.837L338.127,249.317L336.121,245.752L335.551,244.663L334.38,242.153L332.815,238.518L332.115,236.697L331.485,234.848L330.39,231.143L329.453,227.403L328.716,223.708L328.702,223.628L328.233,219.817L327.963,215.972L327.91,212.092L328.089,208.176L328.516,204.226L328.716,203.066L329.282,200.24L330.396,196.219L331.836,192.163L332.115,191.527L333.861,188.072L335.551,185.27L336.473,183.946L339.024,180.833L340.021,179.785L342.534,177.522L345.057,175.589L346.082,174.913L349.666,172.944L353.222,171.358L353.288,171.333L356.946,170.233L360.642,169.415L364.375,168.862L368.145,168.557L371.952,168.481L375.796,168.616L379.677,168.942L383.596,169.439L387.551,170.087L391.544,170.866L393.728,171.358L395.574,171.82L399.64,172.958L403.744,174.183L407.885,175.477L408.219,175.589L412.063,177.011L416.279,178.602L419.356,179.785L420.531,180.281L424.82,182.147L429.005,183.946L429.147,184.013L433.51,186.126L437.632,188.072L437.911,188.216L442.349,190.54L445.523,192.163L446.824,192.884L451.336,195.376L452.875,196.219L455.885,197.998L459.776,200.24L460.471,200.672L465.095,203.529L466.237,204.226L469.755,206.53L472.325,208.176L474.453,209.639L478.091,212.092L479.187,212.885L483.533,215.972L483.959,216.297L488.65,219.817L488.768,219.912L493.444,223.628L493.614,223.773L497.923,227.403L498.497,227.922L502.091,231.143L503.417,232.42L505.954,234.848L508.374,237.339L509.523,238.518L512.762,242.153L513.369,242.918L515.609,245.752L518.192,249.317L518.4,249.64L518.4,187.029L513.369,184.145L513.023,183.946L508.374,181.423L505.472,179.785L503.417,178.695L498.497,176.002L497.748,175.589L493.614,173.452L489.743,171.358L488.768,170.866L483.959,168.411L481.457,167.092L479.187,165.978L474.453,163.589L472.894,162.79L469.755,161.3L465.095,159.002L463.99,158.454L460.471,156.844L455.885,154.66L454.674,154.082L451.336,152.617L446.824,150.573L444.861,149.676L442.349,148.625L437.911,146.741L434.443,145.234L433.51,144.865L429.147,143.161L424.82,141.424L423.141,140.757L420.531,139.82L416.279,138.297L412.063,136.773L410.562,136.245L407.885,135.399L403.744,134.117L399.64,132.863L395.731,131.698L395.574,131.657L391.544,130.661L387.551,129.719L383.596,128.845L379.677,128.049L375.796,127.344L374.324,127.116L371.952,126.794L368.145,126.374L364.375,126.063L360.642,125.869L356.946,125.803L353.288,125.873L349.666,126.089L346.082,126.458L342.534,126.988L341.888,127.116L339.024,127.774L335.551,128.777L332.115,129.981L328.716,131.387L328.075,131.698L325.354,133.193L322.029,135.274L320.665,136.245L318.741,137.774L315.491,140.658L315.491,272.379L316.107,273.287L318.371,276.571L318.741,277.096L320.843,279.82L322.029,281.361L323.423,283.034L325.354,285.337L326.142,286.213L328.716,289.036L329.027,289.357L332.107,292.465L332.115,292.473Z" style="fill:rgb(159,202,225);fill-rule:nonzero;"/>
            <path d="M509.11,295.539L518.4,295.539L518.4,290.26L515.163,292.465L513.369,293.465L509.11,295.539Z" style="fill:rgb(159,202,225);fill-rule:nonzero;"/>
        </g>
        <g id="PathCollection_13">
            <path d="M318.741,292.698L321.445,295.539L335.425,295.539L332.115,292.473L332.107,292.465L329.027,289.357L328.716,289.036L326.142,286.213L325.354,285.337L323.423,283.034L322.029,281.361L320.843,279.82L318.741,277.096L318.371,276.571L316.107,273.287L315.491,272.379L315.491,288.94L315.848,289.357L318.537,292.465L318.741,292.698Z" style="fill:rgb(102,171,212);fill-rule:nonzero;"/>
            <path d="M513.369,184.145L518.4,187.029L518.4,165.358L513.639,162.79L513.369,162.656L508.374,160.157L505.16,158.454L503.417,157.602L498.497,155.121L496.5,154.082L493.614,152.702L488.768,150.264L487.615,149.676L483.959,147.968L479.187,145.597L478.46,145.234L474.453,143.41L469.755,141.13L468.989,140.757L465.095,139.036L460.471,136.871L459.148,136.245L455.885,134.85L451.336,132.821L448.877,131.698L446.824,130.853L442.349,128.981L438.101,127.116L437.911,127.042L433.51,125.343L429.147,123.584L426.486,122.499L424.82,121.893L420.531,120.343L416.279,118.763L413.804,117.847L412.063,117.276L407.885,115.931L403.744,114.587L399.64,113.256L399.327,113.16L395.574,112.146L391.544,111.08L387.551,110.054L383.596,109.078L380.816,108.437L379.677,108.209L375.796,107.504L371.952,106.87L368.145,106.315L364.375,105.85L360.642,105.484L356.946,105.226L353.288,105.085L349.666,105.07L346.082,105.187L342.534,105.443L339.024,105.846L335.551,106.4L332.115,107.11L328.716,107.978L327.227,108.437L325.354,109.106L322.029,110.502L318.741,112.081L316.772,113.16L315.491,113.953L315.491,140.658L318.741,137.774L320.665,136.245L322.029,135.274L325.354,133.193L328.075,131.698L328.716,131.387L332.115,129.981L335.551,128.777L339.024,127.774L341.888,127.116L342.534,126.988L346.082,126.458L349.666,126.089L353.288,125.873L356.946,125.803L360.642,125.869L364.375,126.063L368.145,126.374L371.952,126.794L374.324,127.116L375.796,127.344L379.677,128.049L383.596,128.845L387.551,129.719L391.544,130.661L395.574,131.657L395.731,131.698L399.64,132.863L403.744,134.117L407.885,135.399L410.562,136.245L412.063,136.773L416.279,138.297L420.531,139.82L423.141,140.757L424.82,141.424L429.147,143.161L433.51,144.865L434.443,145.234L437.911,146.741L442.349,148.625L444.861,149.676L446.824,150.573L451.336,152.617L454.674,154.082L455.885,154.66L460.471,156.844L463.99,158.454L465.095,159.002L469.755,161.3L472.894,162.79L474.453,163.589L479.187,165.978L481.457,167.092L483.959,168.411L488.768,170.866L489.743,171.358L493.614,173.452L497.748,175.589L498.497,176.002L503.417,178.695L505.472,179.785L508.374,181.423L513.023,183.946L513.369,184.145Z" style="fill:rgb(102,171,212);fill-rule:nonzero;"/>
        </g>
        <g id="PathCollection_14">
            <path d="M315.491,295.539L321.445,295.539L318.741,292.698L318.537,292.465L315.848,289.357L315.491,288.94L315.491,295.539Z" style="fill:rgb(70,149,200);fill-rule:nonzero;"/>
            <path d="M518.4,165.358L518.4,140.818L518.285,140.757L513.369,138.375L509.342,136.245L508.374,135.779L503.417,133.358L500.236,131.698L498.497,130.875L493.614,128.488L490.945,127.116L488.768,126.104L483.959,123.776L481.435,122.499L479.187,121.474L474.453,119.229L471.67,117.847L469.755,116.991L465.095,114.852L461.614,113.16L460.471,112.662L455.885,110.649L451.336,108.498L451.206,108.437L446.824,106.619L442.349,104.64L440.216,103.68L315.491,103.68L315.491,113.953L316.772,113.16L318.741,112.081L322.029,110.502L325.354,109.106L327.227,108.437L328.716,107.978L332.115,107.11L335.551,106.4L339.024,105.846L342.534,105.443L346.082,105.187L349.666,105.07L353.288,105.085L356.946,105.226L360.642,105.484L364.375,105.85L368.145,106.315L371.952,106.87L375.796,107.504L379.677,108.209L380.816,108.437L383.596,109.078L387.551,110.054L391.544,111.08L395.574,112.146L399.327,113.16L399.64,113.256L403.744,114.587L407.885,115.931L412.063,117.276L413.804,117.847L416.279,118.763L420.531,120.343L424.82,121.893L426.486,122.499L429.147,123.584L433.51,125.343L437.911,127.042L438.101,127.116L442.349,128.981L446.824,130.853L448.877,131.698L451.336,132.821L455.885,134.85L459.148,136.245L460.471,136.871L465.095,139.036L468.989,140.757L469.755,141.13L474.453,143.41L478.46,145.234L479.187,145.597L483.959,147.968L487.615,149.676L488.768,150.264L493.614,152.702L496.5,154.082L498.497,155.121L503.417,157.602L505.16,158.454L508.374,160.157L513.369,162.656L513.639,162.79L518.4,165.358Z" style="fill:rgb(70,149,200);fill-rule:nonzero;"/>
        </g>
        <g id="PathCollection_15">
            <path d="M518.4,140.818L518.4,125.025L513.8,122.499L513.369,122.281L508.374,119.766L504.837,117.847L503.417,117.14L498.497,114.642L495.729,113.16L493.614,112.126L488.768,109.669L486.435,108.437L483.959,107.249L479.187,104.858L476.918,103.68L440.216,103.68L442.349,104.64L446.824,106.619L451.206,108.437L451.336,108.498L455.885,110.649L460.471,112.662L461.614,113.16L465.095,114.852L469.755,116.991L471.67,117.847L474.453,119.229L479.187,121.474L481.435,122.499L483.959,123.776L488.768,126.104L490.945,127.116L493.614,128.488L498.497,130.875L500.236,131.698L503.417,133.358L508.374,135.779L509.342,136.245L513.369,138.375L518.285,140.757L518.4,140.818Z" style="fill:rgb(44,124,186);fill-rule:nonzero;"/>
        </g>
        <g id="PathCollection_16">
            <path d="M518.4,125.025L518.4,109.171L517.099,108.437L513.369,106.455L508.427,103.68L476.918,103.68L479.187,104.858L483.959,107.249L486.435,108.437L488.768,109.669L493.614,112.126L495.729,113.16L498.497,114.642L503.417,117.14L504.837,117.847L508.374,119.766L513.369,122.281L513.8,122.499L518.4,125.025Z" style="fill:rgb(25,102,173);fill-rule:nonzero;"/>
        </g>
        <g id="PathCollection_17">
            <path d="M518.4,109.171L518.4,103.68L508.427,103.68L513.369,106.455L517.099,108.437L518.4,109.171Z" style="fill:rgb(8,81,156);fill-rule:nonzero;"/>
        </g>
        <g id="matplotlib.axis_3">
            <g id="xtick_3">
                <g transform="matrix(1,0,0,1,394.675,295.539)">
                    <g id="line2d_7">
                        <g>
                            <path id="me7402a3beb" d="M0,0L0,3.5" style="fill:none;fill-rule:nonzero;stroke:black;stroke-width:0.8px;"/>
                        </g>
                    </g>
                </g>
                <g transform="matrix(0.15,0,0,-0.15,384.25,313.276)">
                    <g id="text_12">
                        <g>
                            <path id="ArialMT-48" d="M4.156,35.297C4.156,43.766 5.026,50.578 6.766,55.734C8.505,60.901 11.089,64.88 14.516,67.672C17.953,70.474 22.276,71.875 27.484,71.875C31.328,71.875 34.698,71.099 37.594,69.547C40.49,68.005 42.88,65.776 44.766,62.859C46.661,59.953 48.146,56.406 49.219,52.219C50.292,48.042 50.828,42.401 50.828,35.297C50.828,26.901 49.964,20.125 48.234,14.969C46.516,9.813 43.938,5.823 40.5,3C37.073,0.188 32.734,-1.219 27.484,-1.219C20.589,-1.219 15.172,1.255 11.234,6.203C6.516,12.161 4.156,21.859 4.156,35.297ZM13.188,35.297C13.188,23.547 14.563,15.724 17.313,11.828C20.063,7.943 23.453,6 27.484,6C31.526,6 34.922,7.953 37.672,11.859C40.422,15.766 41.797,23.578 41.797,35.297C41.797,47.089 40.422,54.917 37.672,58.781C34.922,62.656 31.495,64.594 27.391,64.594C23.359,64.594 20.135,62.885 17.719,59.469C14.698,55.115 13.188,47.057 13.188,35.297Z" style="fill-rule:nonzero;"/>
                            <g id="ArialMT-46" transform="matrix(1,0,0,1,55.6152,0)">
                                <rect x="9.078" y="0" width="10.016" height="10.016" style="fill-rule:nonzero;"/>
                            </g>
                            <g id="ArialMT-481" serif:id="ArialMT-48" transform="matrix(1,0,0,1,83.3984,0)">
                                <path d="M4.156,35.297C4.156,43.766 5.026,50.578 6.766,55.734C8.505,60.901 11.089,64.88 14.516,67.672C17.953,70.474 22.276,71.875 27.484,71.875C31.328,71.875 34.698,71.099 37.594,69.547C40.49,68.005 42.88,65.776 44.766,62.859C46.661,59.953 48.146,56.406 49.219,52.219C50.292,48.042 50.828,42.401 50.828,35.297C50.828,26.901 49.964,20.125 48.234,14.969C46.516,9.813 43.938,5.823 40.5,3C37.073,0.188 32.734,-1.219 27.484,-1.219C20.589,-1.219 15.172,1.255 11.234,6.203C6.516,12.161 4.156,21.859 4.156,35.297ZM13.188,35.297C13.188,23.547 14.563,15.724 17.313,11.828C20.063,7.943 23.453,6 27.484,6C31.526,6 34.922,7.953 37.672,11.859C40.422,15.766 41.797,23.578 41.797,35.297C41.797,47.089 40.422,54.917 37.672,58.781C34.922,62.656 31.495,64.594 27.391,64.594C23.359,64.594 20.135,62.885 17.719,59.469C14.698,55.115 13.188,47.057 13.188,35.297Z" style="fill-rule:nonzero;"/>
                            </g>
                        </g>
                    </g>
                </g>
            </g>
            <g id="xtick_4">
                <g transform="matrix(1,0,0,1,482.657,295.539)">
                    <g id="line2d_8">
                        <g>
                            <path id="me7402a3beb1" serif:id="me7402a3beb" d="M0,0L0,3.5" style="fill:none;fill-rule:nonzero;stroke:black;stroke-width:0.8px;"/>
                        </g>
                    </g>
                </g>
                <g transform="matrix(0.15,0,0,-0.15,472.232,313.276)">
                    <g id="text_13">
                        <g>
                            <path id="ArialMT-482" serif:id="ArialMT-48" d="M4.156,35.297C4.156,43.766 5.026,50.578 6.766,55.734C8.505,60.901 11.089,64.88 14.516,67.672C17.953,70.474 22.276,71.875 27.484,71.875C31.328,71.875 34.698,71.099 37.594,69.547C40.49,68.005 42.88,65.776 44.766,62.859C46.661,59.953 48.146,56.406 49.219,52.219C50.292,48.042 50.828,42.401 50.828,35.297C50.828,26.901 49.964,20.125 48.234,14.969C46.516,9.813 43.938,5.823 40.5,3C37.073,0.188 32.734,-1.219 27.484,-1.219C20.589,-1.219 15.172,1.255 11.234,6.203C6.516,12.161 4.156,21.859 4.156,35.297ZM13.188,35.297C13.188,23.547 14.563,15.724 17.313,11.828C20.063,7.943 23.453,6 27.484,6C31.526,6 34.922,7.953 37.672,11.859C40.422,15.766 41.797,23.578 41.797,35.297C41.797,47.089 40.422,54.917 37.672,58.781C34.922,62.656 31.495,64.594 27.391,64.594C23.359,64.594 20.135,62.885 17.719,59.469C14.698,55.115 13.188,47.057 13.188,35.297Z" style="fill-rule:nonzero;"/>
                            <g id="ArialMT-461" serif:id="ArialMT-46" transform="matrix(1,0,0,1,55.6152,0)">
                                <rect x="9.078" y="0" width="10.016" height="10.016" style="fill-rule:nonzero;"/>
                            </g>
                            <g id="ArialMT-50" transform="matrix(1,0,0,1,83.3984,0)">
                                <path d="M50.344,8.453L50.344,0L3.031,0C2.969,2.115 3.307,4.151 4.047,6.109C5.255,9.328 7.182,12.5 9.828,15.625C12.484,18.75 16.323,22.365 21.344,26.469C29.125,32.844 34.38,37.896 37.109,41.625C39.849,45.354 41.219,48.88 41.219,52.203C41.219,55.682 39.969,58.615 37.469,61C34.979,63.396 31.734,64.594 27.734,64.594C23.505,64.594 20.12,63.323 17.578,60.781C15.036,58.25 13.75,54.74 13.719,50.25L4.688,51.172C5.302,57.911 7.625,63.047 11.656,66.578C15.698,70.109 21.125,71.875 27.938,71.875C34.802,71.875 40.234,69.969 44.234,66.156C48.245,62.354 50.25,57.635 50.25,52C50.25,49.135 49.661,46.318 48.484,43.547C47.318,40.786 45.375,37.875 42.656,34.813C39.938,31.75 35.422,27.552 29.109,22.219C23.828,17.792 20.438,14.786 18.938,13.203C17.448,11.63 16.214,10.047 15.234,8.453L50.344,8.453Z" style="fill-rule:nonzero;"/>
                            </g>
                        </g>
                    </g>
                </g>
            </g>
            <g transform="matrix(0.15,0,0,-0.15,404.57,330.994)">
                <g id="text_14">
                    <g>
                        <g id="DejaVuSerif-Italic-69" transform="matrix(1,0,0,1,0,0.09375)">
                            <path d="M-1.516,0L-0.531,5.172L8.734,5.172L20.906,67.672L11.625,67.672L12.641,72.906L71.344,72.906L68.219,56.688L62.203,56.688L64.156,66.891L30.672,66.891L25.922,42.484L49.813,42.484L51.563,51.609L57.563,51.609L52.875,27.391L46.875,27.391L48.641,36.531L24.75,36.531L18.844,6L53.125,6L55.078,16.219L61.078,16.219L57.953,0L-1.516,0Z" style="fill-rule:nonzero;"/>
                        </g>
                        <g id="DejaVuSerif-49" transform="matrix(0.7,0,0,0.7,72.998,-15.4781)">
                            <path d="M14.203,0L14.203,5.172L26.906,5.172L26.906,65.828L12.203,56.297L12.203,62.703L29.984,74.219L36.719,74.219L36.719,5.172L49.422,5.172L49.422,0L14.203,0Z" style="fill-rule:nonzero;"/>
                        </g>
                        <g id="DejaVuSerif-491" serif:id="DejaVuSerif-49" transform="matrix(0.7,0,0,0.7,117.534,-15.4781)">
                            <path d="M14.203,0L14.203,5.172L26.906,5.172L26.906,65.828L12.203,56.297L12.203,62.703L29.984,74.219L36.719,74.219L36.719,5.172L49.422,5.172L49.422,0L14.203,0Z" style="fill-rule:nonzero;"/>
                        </g>
                    </g>
                </g>
            </g>
        </g>
        <g id="matplotlib.axis_4">
            <g id="ytick_5">
                <g transform="matrix(1,0,0,1,315.491,262.262)">
                    <g id="line2d_9">
                        <g>
                            <path id="m489c51ab10" d="M0,0L-3.5,0" style="fill:none;fill-rule:nonzero;stroke:black;stroke-width:0.8px;"/>
                        </g>
                    </g>
                </g>
                <g transform="matrix(0.15,0,0,-0.15,278.88,267.631)">
                    <g id="text_15">
                        <g>
                            <rect id="ArialMT-8722" x="5.563" y="31.203" width="47.266" height="8.203" style="fill-rule:nonzero;"/>
                            <g id="ArialMT-483" serif:id="ArialMT-48" transform="matrix(1,0,0,1,58.3984,0)">
                                <path d="M4.156,35.297C4.156,43.766 5.026,50.578 6.766,55.734C8.505,60.901 11.089,64.88 14.516,67.672C17.953,70.474 22.276,71.875 27.484,71.875C31.328,71.875 34.698,71.099 37.594,69.547C40.49,68.005 42.88,65.776 44.766,62.859C46.661,59.953 48.146,56.406 49.219,52.219C50.292,48.042 50.828,42.401 50.828,35.297C50.828,26.901 49.964,20.125 48.234,14.969C46.516,9.813 43.938,5.823 40.5,3C37.073,0.188 32.734,-1.219 27.484,-1.219C20.589,-1.219 15.172,1.255 11.234,6.203C6.516,12.161 4.156,21.859 4.156,35.297ZM13.188,35.297C13.188,23.547 14.563,15.724 17.313,11.828C20.063,7.943 23.453,6 27.484,6C31.526,6 34.922,7.953 37.672,11.859C40.422,15.766 41.797,23.578 41.797,35.297C41.797,47.089 40.422,54.917 37.672,58.781C34.922,62.656 31.495,64.594 27.391,64.594C23.359,64.594 20.135,62.885 17.719,59.469C14.698,55.115 13.188,47.057 13.188,35.297Z" style="fill-rule:nonzero;"/>
                            </g>
                            <g id="ArialMT-462" serif:id="ArialMT-46" transform="matrix(1,0,0,1,114.014,0)">
                                <rect x="9.078" y="0" width="10.016" height="10.016" style="fill-rule:nonzero;"/>
                            </g>
                            <g id="ArialMT-49" transform="matrix(1,0,0,1,141.797,0)">
                                <path d="M37.25,0L28.469,0L28.469,56C26.354,53.99 23.578,51.974 20.141,49.953C16.703,47.932 13.62,46.417 10.891,45.406L10.891,53.906C15.807,56.219 20.104,59.016 23.781,62.297C27.458,65.589 30.063,68.781 31.594,71.875L37.25,71.875L37.25,0Z" style="fill-rule:nonzero;"/>
                            </g>
                        </g>
                    </g>
                </g>
            </g>
            <g id="ytick_6">
                <g transform="matrix(1,0,0,1,315.491,220.667)">
                    <g id="line2d_10">
                        <g>
                            <path id="m489c51ab101" serif:id="m489c51ab10" d="M0,0L-3.5,0" style="fill:none;fill-rule:nonzero;stroke:black;stroke-width:0.8px;"/>
                        </g>
                    </g>
                </g>
                <g transform="matrix(0.15,0,0,-0.15,287.641,226.035)">
                    <g id="text_16">
                        <g>
                            <path id="ArialMT-484" serif:id="ArialMT-48" d="M4.156,35.297C4.156,43.766 5.026,50.578 6.766,55.734C8.505,60.901 11.089,64.88 14.516,67.672C17.953,70.474 22.276,71.875 27.484,71.875C31.328,71.875 34.698,71.099 37.594,69.547C40.49,68.005 42.88,65.776 44.766,62.859C46.661,59.953 48.146,56.406 49.219,52.219C50.292,48.042 50.828,42.401 50.828,35.297C50.828,26.901 49.964,20.125 48.234,14.969C46.516,9.813 43.938,5.823 40.5,3C37.073,0.188 32.734,-1.219 27.484,-1.219C20.589,-1.219 15.172,1.255 11.234,6.203C6.516,12.161 4.156,21.859 4.156,35.297ZM13.188,35.297C13.188,23.547 14.563,15.724 17.313,11.828C20.063,7.943 23.453,6 27.484,6C31.526,6 34.922,7.953 37.672,11.859C40.422,15.766 41.797,23.578 41.797,35.297C41.797,47.089 40.422,54.917 37.672,58.781C34.922,62.656 31.495,64.594 27.391,64.594C23.359,64.594 20.135,62.885 17.719,59.469C14.698,55.115 13.188,47.057 13.188,35.297Z" style="fill-rule:nonzero;"/>
                            <g id="ArialMT-463" serif:id="ArialMT-46" transform="matrix(1,0,0,1,55.6152,0)">
                                <rect x="9.078" y="0" width="10.016" height="10.016" style="fill-rule:nonzero;"/>
                            </g>
                            <g id="ArialMT-485" serif:id="ArialMT-48" transform="matrix(1,0,0,1,83.3984,0)">
                                <path d="M4.156,35.297C4.156,43.766 5.026,50.578 6.766,55.734C8.505,60.901 11.089,64.88 14.516,67.672C17.953,70.474 22.276,71.875 27.484,71.875C31.328,71.875 34.698,71.099 37.594,69.547C40.49,68.005 42.88,65.776 44.766,62.859C46.661,59.953 48.146,56.406 49.219,52.219C50.292,48.042 50.828,42.401 50.828,35.297C50.828,26.901 49.964,20.125 48.234,14.969C46.516,9.813 43.938,5.823 40.5,3C37.073,0.188 32.734,-1.219 27.484,-1.219C20.589,-1.219 15.172,1.255 11.234,6.203C6.516,12.161 4.156,21.859 4.156,35.297ZM13.188,35.297C13.188,23.547 14.563,15.724 17.313,11.828C20.063,7.943 23.453,6 27.484,6C31.526,6 34.922,7.953 37.672,11.859C40.422,15.766 41.797,23.578 41.797,35.297C41.797,47.089 40.422,54.917 37.672,58.781C34.922,62.656 31.495,64.594 27.391,64.594C23.359,64.594 20.135,62.885 17.719,59.469C14.698,55.115 13.188,47.057 13.188,35.297Z" style="fill-rule:nonzero;"/>
                            </g>
                        </g>
                    </g>
                </g>
            </g>
            <g id="ytick_7">
                <g transform="matrix(1,0,0,1,315.491,179.072)">
                    <g id="line2d_11">
                        <g>
                            <path id="m489c51ab102" serif:id="m489c51ab10" d="M0,0L-3.5,0" style="fill:none;fill-rule:nonzero;stroke:black;stroke-width:0.8px;"/>
                        </g>
                    </g>
                </g>
                <g transform="matrix(0.15,0,0,-0.15,287.641,184.44)">
                    <g id="text_17">
                        <g>
                            <path id="ArialMT-486" serif:id="ArialMT-48" d="M4.156,35.297C4.156,43.766 5.026,50.578 6.766,55.734C8.505,60.901 11.089,64.88 14.516,67.672C17.953,70.474 22.276,71.875 27.484,71.875C31.328,71.875 34.698,71.099 37.594,69.547C40.49,68.005 42.88,65.776 44.766,62.859C46.661,59.953 48.146,56.406 49.219,52.219C50.292,48.042 50.828,42.401 50.828,35.297C50.828,26.901 49.964,20.125 48.234,14.969C46.516,9.813 43.938,5.823 40.5,3C37.073,0.188 32.734,-1.219 27.484,-1.219C20.589,-1.219 15.172,1.255 11.234,6.203C6.516,12.161 4.156,21.859 4.156,35.297ZM13.188,35.297C13.188,23.547 14.563,15.724 17.313,11.828C20.063,7.943 23.453,6 27.484,6C31.526,6 34.922,7.953 37.672,11.859C40.422,15.766 41.797,23.578 41.797,35.297C41.797,47.089 40.422,54.917 37.672,58.781C34.922,62.656 31.495,64.594 27.391,64.594C23.359,64.594 20.135,62.885 17.719,59.469C14.698,55.115 13.188,47.057 13.188,35.297Z" style="fill-rule:nonzero;"/>
                            <g id="ArialMT-464" serif:id="ArialMT-46" transform="matrix(1,0,0,1,55.6152,0)">
                                <rect x="9.078" y="0" width="10.016" height="10.016" style="fill-rule:nonzero;"/>
                            </g>
                            <g id="ArialMT-491" serif:id="ArialMT-49" transform="matrix(1,0,0,1,83.3984,0)">
                                <path d="M37.25,0L28.469,0L28.469,56C26.354,53.99 23.578,51.974 20.141,49.953C16.703,47.932 13.62,46.417 10.891,45.406L10.891,53.906C15.807,56.219 20.104,59.016 23.781,62.297C27.458,65.589 30.063,68.781 31.594,71.875L37.25,71.875L37.25,0Z" style="fill-rule:nonzero;"/>
                            </g>
                        </g>
                    </g>
                </g>
            </g>
            <g id="ytick_8">
                <g transform="matrix(1,0,0,1,315.491,137.476)">
                    <g id="line2d_12">
                        <g>
                            <path id="m489c51ab103" serif:id="m489c51ab10" d="M0,0L-3.5,0" style="fill:none;fill-rule:nonzero;stroke:black;stroke-width:0.8px;"/>
                        </g>
                    </g>
                </g>
                <g transform="matrix(0.15,0,0,-0.15,287.641,142.845)">
                    <g id="text_18">
                        <g>
                            <path id="ArialMT-487" serif:id="ArialMT-48" d="M4.156,35.297C4.156,43.766 5.026,50.578 6.766,55.734C8.505,60.901 11.089,64.88 14.516,67.672C17.953,70.474 22.276,71.875 27.484,71.875C31.328,71.875 34.698,71.099 37.594,69.547C40.49,68.005 42.88,65.776 44.766,62.859C46.661,59.953 48.146,56.406 49.219,52.219C50.292,48.042 50.828,42.401 50.828,35.297C50.828,26.901 49.964,20.125 48.234,14.969C46.516,9.813 43.938,5.823 40.5,3C37.073,0.188 32.734,-1.219 27.484,-1.219C20.589,-1.219 15.172,1.255 11.234,6.203C6.516,12.161 4.156,21.859 4.156,35.297ZM13.188,35.297C13.188,23.547 14.563,15.724 17.313,11.828C20.063,7.943 23.453,6 27.484,6C31.526,6 34.922,7.953 37.672,11.859C40.422,15.766 41.797,23.578 41.797,35.297C41.797,47.089 40.422,54.917 37.672,58.781C34.922,62.656 31.495,64.594 27.391,64.594C23.359,64.594 20.135,62.885 17.719,59.469C14.698,55.115 13.188,47.057 13.188,35.297Z" style="fill-rule:nonzero;"/>
                            <g id="ArialMT-465" serif:id="ArialMT-46" transform="matrix(1,0,0,1,55.6152,0)">
                                <rect x="9.078" y="0" width="10.016" height="10.016" style="fill-rule:nonzero;"/>
                            </g>
                            <g id="ArialMT-501" serif:id="ArialMT-50" transform="matrix(1,0,0,1,83.3984,0)">
                                <path d="M50.344,8.453L50.344,0L3.031,0C2.969,2.115 3.307,4.151 4.047,6.109C5.255,9.328 7.182,12.5 9.828,15.625C12.484,18.75 16.323,22.365 21.344,26.469C29.125,32.844 34.38,37.896 37.109,41.625C39.849,45.354 41.219,48.88 41.219,52.203C41.219,55.682 39.969,58.615 37.469,61C34.979,63.396 31.734,64.594 27.734,64.594C23.505,64.594 20.12,63.323 17.578,60.781C15.036,58.25 13.75,54.74 13.719,50.25L4.688,51.172C5.302,57.911 7.625,63.047 11.656,66.578C15.698,70.109 21.125,71.875 27.938,71.875C34.802,71.875 40.234,69.969 44.234,66.156C48.245,62.354 50.25,57.635 50.25,52C50.25,49.135 49.661,46.318 48.484,43.547C47.318,40.786 45.375,37.875 42.656,34.813C39.938,31.75 35.422,27.552 29.109,22.219C23.828,17.792 20.438,14.786 18.938,13.203C17.448,11.63 16.214,10.047 15.234,8.453L50.344,8.453Z" style="fill-rule:nonzero;"/>
                            </g>
                        </g>
                    </g>
                </g>
            </g>
            <g transform="matrix(-5.74285e-17,-0.15,-0.15,5.74285e-17,271.899,211.984)">
                <g id="text_19">
                    <g>
                        <g id="DejaVuSerif-Italic-691" serif:id="DejaVuSerif-Italic-69" transform="matrix(1,0,0,1,0,0.09375)">
                            <path d="M-1.516,0L-0.531,5.172L8.734,5.172L20.906,67.672L11.625,67.672L12.641,72.906L71.344,72.906L68.219,56.688L62.203,56.688L64.156,66.891L30.672,66.891L25.922,42.484L49.813,42.484L51.563,51.609L57.563,51.609L52.875,27.391L46.875,27.391L48.641,36.531L24.75,36.531L18.844,6L53.125,6L55.078,16.219L61.078,16.219L57.953,0L-1.516,0Z" style="fill-rule:nonzero;"/>
                        </g>
                        <g id="DejaVuSerif-50" transform="matrix(0.7,0,0,0.7,72.998,-15.4781)">
                            <path d="M12.797,55.516L7.328,55.516L7.328,68.5C10.807,70.365 14.313,71.781 17.844,72.75C21.375,73.729 24.833,74.219 28.219,74.219C35.802,74.219 41.792,72.38 46.188,68.703C50.583,65.026 52.781,60.031 52.781,53.719C52.781,46.583 47.802,38.052 37.844,28.125C37.063,27.375 36.474,26.807 36.078,26.422L17.672,8.016L48.094,8.016L48.094,17L53.813,17L53.813,0L6.781,0L6.781,5.328L28.906,27.391C33.792,32.276 37.276,36.76 39.359,40.844C41.443,44.927 42.484,49.219 42.484,53.719C42.484,58.625 41.203,62.464 38.641,65.234C36.089,68.005 32.568,69.391 28.078,69.391C23.422,69.391 19.823,68.234 17.281,65.922C14.75,63.609 13.255,60.141 12.797,55.516Z" style="fill-rule:nonzero;"/>
                        </g>
                        <g id="DejaVuSerif-501" serif:id="DejaVuSerif-50" transform="matrix(0.7,0,0,0.7,117.534,-15.4781)">
                            <path d="M12.797,55.516L7.328,55.516L7.328,68.5C10.807,70.365 14.313,71.781 17.844,72.75C21.375,73.729 24.833,74.219 28.219,74.219C35.802,74.219 41.792,72.38 46.188,68.703C50.583,65.026 52.781,60.031 52.781,53.719C52.781,46.583 47.802,38.052 37.844,28.125C37.063,27.375 36.474,26.807 36.078,26.422L17.672,8.016L48.094,8.016L48.094,17L53.813,17L53.813,0L6.781,0L6.781,5.328L28.906,27.391C33.792,32.276 37.276,36.76 39.359,40.844C41.443,44.927 42.484,49.219 42.484,53.719C42.484,58.625 41.203,62.464 38.641,65.234C36.089,68.005 32.568,69.391 28.078,69.391C23.422,69.391 19.823,68.234 17.281,65.922C14.75,63.609 13.255,60.141 12.797,55.516Z" style="fill-rule:nonzero;"/>
                        </g>
                    </g>
                </g>
            </g>
        </g>
    </g>
</svg>
