<?xml version="1.0" encoding="UTF-8" standalone="no"?>
<!DOCTYPE svg PUBLIC "-//W3C//DTD SVG 1.1//EN" "http://www.w3.org/Graphics/SVG/1.1/DTD/svg11.dtd">
<svg width="100%" height="100%" viewBox="0 0 260 232" version="1.1" xmlns="http://www.w3.org/2000/svg" xmlns:xlink="http://www.w3.org/1999/xlink" xml:space="preserve" xmlns:serif="http://www.serif.com/" style="fill-rule:evenodd;clip-rule:evenodd;stroke-linejoin:round;stroke-miterlimit:2;">
    <g id="axes_1" transform="matrix(1,0,0,1,-17.4578,-101.618)">
        <g id="patch_2">
            <rect x="72" y="103.68" width="202.909" height="191.859" style="fill:white;fill-opacity:0.06;"/>
        </g>
        <g id="PathCollection_1">
            <path d="M153.685,295.539L270.451,295.539L274.909,292.736L274.909,247.837L273.189,245.752L270.005,242.153L269.878,242.023L266.452,238.518L264.883,237.008L262.653,234.848L259.926,232.366L258.594,231.143L255.006,228.052L254.261,227.403L250.123,224.024L249.643,223.628L245.277,220.246L244.732,219.817L240.468,216.682L239.519,215.972L235.696,213.301L234,212.092L230.962,210.073L228.168,208.176L226.264,206.972L222.021,204.226L221.604,203.975L216.98,201.188L215.435,200.24L212.394,198.513L208.461,196.219L207.845,195.887L203.333,193.469L200.939,192.163L198.858,191.118L194.42,188.874L192.83,188.072L190.02,186.773L185.656,184.744L183.921,183.946L181.329,182.859L177.04,181.078L173.898,179.785L172.788,179.37L168.573,177.862L164.394,176.395L161.983,175.589L160.253,175.068L156.15,173.918L152.083,172.855L148.053,171.897L145.441,171.358L144.06,171.103L140.105,170.509L136.187,170.06L132.305,169.774L128.461,169.67L124.654,169.765L120.884,170.077L117.151,170.624L113.747,171.358L113.455,171.432L109.797,172.662L106.175,174.213L103.56,175.589L102.591,176.183L99.043,178.783L97.881,179.785L95.533,182.147L93.994,183.946L92.06,186.605L91.137,188.072L88.983,192.163L88.624,193L87.432,196.219L86.266,200.24L85.419,204.226L85.225,205.637L84.926,208.176L84.706,212.092L84.716,215.972L84.935,219.817L85.225,222.494L85.366,223.628L86.048,227.403L86.905,231.143L87.911,234.848L88.624,237.135L89.114,238.518L90.559,242.153L92.06,245.683L92.093,245.752L93.967,249.317L95.533,252.191L95.934,252.847L98.194,256.341L99.043,257.609L100.68,259.801L102.591,262.301L103.375,263.225L106.175,266.452L106.331,266.614L109.635,269.968L109.797,270.128L113.284,273.287L113.455,273.439L117.151,276.442L117.325,276.571L120.884,279.151L121.884,279.82L124.654,281.629L126.96,283.034L128.461,283.921L132.305,286.066L132.584,286.213L136.187,288.029L138.924,289.357L140.105,289.905L144.06,291.645L146.017,292.465L153.685,295.539Z" style="fill:none;fill-rule:nonzero;stroke:black;stroke-width:1px;"/>
        </g>
        <g transform="matrix(0.15,0,0,-0.15,161.08,330.994)">
            <g id="matplotlib.axis_1">
                <g>
                    <g id="text_3">
                        <g>
                            <g id="DejaVuSerif-Italic-69" transform="matrix(1,0,0,1,0,0.09375)">
                                <path d="M-1.516,0L-0.531,5.172L8.734,5.172L20.906,67.672L11.625,67.672L12.641,72.906L71.344,72.906L68.219,56.688L62.203,56.688L64.156,66.891L30.672,66.891L25.922,42.484L49.813,42.484L51.563,51.609L57.563,51.609L52.875,27.391L46.875,27.391L48.641,36.531L24.75,36.531L18.844,6L53.125,6L55.078,16.219L61.078,16.219L57.953,0L-1.516,0Z" style="fill-rule:nonzero;"/>
                            </g>
                            <g id="DejaVuSerif-49" transform="matrix(0.7,0,0,0.7,72.998,-15.4781)">
                                <path d="M14.203,0L14.203,5.172L26.906,5.172L26.906,65.828L12.203,56.297L12.203,62.703L29.984,74.219L36.719,74.219L36.719,5.172L49.422,5.172L49.422,0L14.203,0Z" style="fill-rule:nonzero;"/>
                            </g>
                            <g id="DejaVuSerif-491" serif:id="DejaVuSerif-49" transform="matrix(0.7,0,0,0.7,117.534,-15.4781)">
                                <path d="M14.203,0L14.203,5.172L26.906,5.172L26.906,65.828L12.203,56.297L12.203,62.703L29.984,74.219L36.719,74.219L36.719,5.172L49.422,5.172L49.422,0L14.203,0Z" style="fill-rule:nonzero;"/>
                            </g>
                        </g>
                    </g>
                </g>
            </g>
        </g>
        <g transform="matrix(-5.74285e-17,-0.15,-0.15,5.74285e-17,28.4078,211.984)">
            <g id="matplotlib.axis_2">
                <g>
                    <g id="text_8">
                        <g>
                            <g id="DejaVuSerif-Italic-691" serif:id="DejaVuSerif-Italic-69" transform="matrix(1,0,0,1,0,0.09375)">
                                <path d="M-1.516,0L-0.531,5.172L8.734,5.172L20.906,67.672L11.625,67.672L12.641,72.906L71.344,72.906L68.219,56.688L62.203,56.688L64.156,66.891L30.672,66.891L25.922,42.484L49.813,42.484L51.563,51.609L57.563,51.609L52.875,27.391L46.875,27.391L48.641,36.531L24.75,36.531L18.844,6L53.125,6L55.078,16.219L61.078,16.219L57.953,0L-1.516,0Z" style="fill-rule:nonzero;"/>
                            </g>
                            <g id="DejaVuSerif-50" transform="matrix(0.7,0,0,0.7,72.998,-15.4781)">
                                <path d="M12.797,55.516L7.328,55.516L7.328,68.5C10.807,70.365 14.313,71.781 17.844,72.75C21.375,73.729 24.833,74.219 28.219,74.219C35.802,74.219 41.792,72.38 46.188,68.703C50.583,65.026 52.781,60.031 52.781,53.719C52.781,46.583 47.802,38.052 37.844,28.125C37.063,27.375 36.474,26.807 36.078,26.422L17.672,8.016L48.094,8.016L48.094,17L53.813,17L53.813,0L6.781,0L6.781,5.328L28.906,27.391C33.792,32.276 37.276,36.76 39.359,40.844C41.443,44.927 42.484,49.219 42.484,53.719C42.484,58.625 41.203,62.464 38.641,65.234C36.089,68.005 32.568,69.391 28.078,69.391C23.422,69.391 19.823,68.234 17.281,65.922C14.75,63.609 13.255,60.141 12.797,55.516Z" style="fill-rule:nonzero;"/>
                            </g>
                            <g id="DejaVuSerif-501" serif:id="DejaVuSerif-50" transform="matrix(0.7,0,0,0.7,117.534,-15.4781)">
                                <path d="M12.797,55.516L7.328,55.516L7.328,68.5C10.807,70.365 14.313,71.781 17.844,72.75C21.375,73.729 24.833,74.219 28.219,74.219C35.802,74.219 41.792,72.38 46.188,68.703C50.583,65.026 52.781,60.031 52.781,53.719C52.781,46.583 47.802,38.052 37.844,28.125C37.063,27.375 36.474,26.807 36.078,26.422L17.672,8.016L48.094,8.016L48.094,17L53.813,17L53.813,0L6.781,0L6.781,5.328L28.906,27.391C33.792,32.276 37.276,36.76 39.359,40.844C41.443,44.927 42.484,49.219 42.484,53.719C42.484,58.625 41.203,62.464 38.641,65.234C36.089,68.005 32.568,69.391 28.078,69.391C23.422,69.391 19.823,68.234 17.281,65.922C14.75,63.609 13.255,60.141 12.797,55.516Z" style="fill-rule:nonzero;"/>
                            </g>
                        </g>
                    </g>
                </g>
            </g>
        </g>
    </g>
</svg>
