<?xml version="1.0" encoding="UTF-8" standalone="no"?>
<!DOCTYPE svg PUBLIC "-//W3C//DTD SVG 1.1//EN" "http://www.w3.org/Graphics/SVG/1.1/DTD/svg11.dtd">
<svg width="100%" height="100%" viewBox="0 0 720 720" version="1.1" xmlns="http://www.w3.org/2000/svg" xmlns:xlink="http://www.w3.org/1999/xlink" xml:space="preserve" xmlns:serif="http://www.serif.com/" style="fill-rule:evenodd;clip-rule:evenodd;">
    <g id="figure_1">
        <g id="axes_1">
            <g id="PatchCollection_1">
                <path d="M137.417,591.171L160.115,591.963L159.985,572.561L137.417,571.76L137.417,591.171Z" style="fill:rgb(8,70,139);fill-rule:nonzero;"/>
                <path d="M137.417,571.76L159.985,572.561L159.949,553.114L137.417,552.309L137.417,571.76Z" style="fill:rgb(77,153,202);fill-rule:nonzero;"/>
                <path d="M137.417,552.309L159.949,553.114L159.927,533.653L137.417,532.847L137.417,552.309Z" style="fill:rgb(114,178,216);fill-rule:nonzero;"/>
                <path d="M137.417,532.847L159.927,533.653L159.915,514.185L137.417,513.378L137.417,532.847Z" style="fill:rgb(141,193,221);fill-rule:nonzero;"/>
                <path d="M137.417,513.378L159.915,514.185L159.907,494.714L137.417,493.905L137.417,513.378Z" style="fill:rgb(157,202,225);fill-rule:nonzero;"/>
                <path d="M137.417,493.905L159.907,494.714L159.902,475.241L137.417,474.431L137.417,493.905Z" style="fill:rgb(165,205,227);fill-rule:nonzero;"/>
                <path d="M137.417,474.431L159.902,475.241L159.899,455.767L137.417,454.956L137.417,474.431Z" style="fill:rgb(170,207,229);fill-rule:nonzero;"/>
                <path d="M137.417,454.956L159.899,455.767L159.897,436.294L137.417,435.482L137.417,454.956Z" style="fill:rgb(173,208,230);fill-rule:nonzero;"/>
                <path d="M137.417,435.482L159.897,436.294L159.896,416.822L137.417,416.009L137.417,435.482Z" style="fill:rgb(175,209,231);fill-rule:nonzero;"/>
                <path d="M137.417,416.009L159.896,416.822L159.894,397.351L137.417,396.537L137.417,416.009Z" style="fill:rgb(178,210,232);fill-rule:nonzero;"/>
                <path d="M137.417,396.537L159.894,397.351L159.892,377.882L137.417,377.066L137.417,396.537Z" style="fill:rgb(180,211,233);fill-rule:nonzero;"/>
                <path d="M137.417,377.066L159.892,377.882L159.89,358.414L137.417,357.597L137.417,377.066Z" style="fill:rgb(184,213,234);fill-rule:nonzero;"/>
                <path d="M137.417,357.597L159.89,358.414L159.885,338.946L137.417,338.128L137.417,357.597Z" style="fill:rgb(188,215,235);fill-rule:nonzero;"/>
                <path d="M137.417,338.128L159.885,338.946L159.879,319.479L137.417,318.66L137.417,338.128Z" style="fill:rgb(195,218,238);fill-rule:nonzero;"/>
                <path d="M137.417,318.66L159.879,319.479L159.868,300.01L137.417,299.191L137.417,318.66Z" style="fill:rgb(203,222,241);fill-rule:nonzero;"/>
                <path d="M137.417,299.191L159.868,300.01L159.853,280.539L137.417,279.719L137.417,299.191Z" style="fill:rgb(212,228,244);fill-rule:nonzero;"/>
                <path d="M137.417,279.719L159.853,280.539L159.827,261.061L137.417,260.24L137.417,279.719Z" style="fill:rgb(227,238,249);fill-rule:nonzero;"/>
                <path d="M137.417,260.24L159.827,261.061L159.787,241.571L137.417,240.75L137.417,260.24Z" style="fill:rgb(247,251,255);fill-rule:nonzero;"/>
                <path d="M137.417,240.75L159.787,241.571L159.677,222.063L137.417,221.223L137.417,240.75Z" style="fill:rgb(247,251,255);fill-rule:nonzero;"/>
                <path d="M160.115,591.963L182.749,592.744L182.561,573.339L159.985,572.561L160.115,591.963Z" style="fill:rgb(28,106,176);fill-rule:nonzero;"/>
                <path d="M159.985,572.561L182.561,573.339L182.481,553.901L159.949,553.114L159.985,572.561Z" style="fill:rgb(74,152,201);fill-rule:nonzero;"/>
                <path d="M159.949,553.114L182.481,553.901L182.439,534.445L159.927,533.653L159.949,553.114Z" style="fill:rgb(116,179,216);fill-rule:nonzero;"/>
                <path d="M159.927,533.653L182.439,534.445L182.413,514.98L159.915,514.185L159.927,533.653Z" style="fill:rgb(140,192,221);fill-rule:nonzero;"/>
                <path d="M159.915,514.185L182.413,514.98L182.398,495.511L159.907,494.714L159.915,514.185Z" style="fill:rgb(156,201,225);fill-rule:nonzero;"/>
                <path d="M159.907,494.714L182.398,495.511L182.388,476.039L159.902,475.241L159.907,494.714Z" style="fill:rgb(164,204,227);fill-rule:nonzero;"/>
                <path d="M159.902,475.241L182.388,476.039L182.382,456.567L159.899,455.767L159.902,475.241Z" style="fill:rgb(169,207,229);fill-rule:nonzero;"/>
                <path d="M159.899,455.767L182.382,456.567L182.378,437.095L159.897,436.294L159.899,455.767Z" style="fill:rgb(173,208,230);fill-rule:nonzero;"/>
                <path d="M159.897,436.294L182.378,437.095L182.375,417.623L159.896,416.822L159.897,436.294Z" style="fill:rgb(175,209,231);fill-rule:nonzero;"/>
                <path d="M159.896,416.822L182.375,417.623L182.372,398.153L159.894,397.351L159.896,416.822Z" style="fill:rgb(178,210,232);fill-rule:nonzero;"/>
                <path d="M159.894,397.351L182.372,398.153L182.369,378.683L159.892,377.882L159.894,397.351Z" style="fill:rgb(179,211,232);fill-rule:nonzero;"/>
                <path d="M159.892,377.882L182.369,378.683L182.363,359.215L159.89,358.414L159.892,377.882Z" style="fill:rgb(183,212,234);fill-rule:nonzero;"/>
                <path d="M159.89,358.414L182.363,359.215L182.355,339.747L159.885,338.946L159.89,358.414Z" style="fill:rgb(188,215,235);fill-rule:nonzero;"/>
                <path d="M159.885,338.946L182.355,339.747L182.342,320.279L159.879,319.479L159.885,338.946Z" style="fill:rgb(194,217,238);fill-rule:nonzero;"/>
                <path d="M159.879,319.479L182.342,320.279L182.321,300.809L159.868,300.01L159.879,319.479Z" style="fill:rgb(202,221,240);fill-rule:nonzero;"/>
                <path d="M159.868,300.01L182.321,300.809L182.29,281.336L159.853,280.539L159.868,300.01Z" style="fill:rgb(211,228,243);fill-rule:nonzero;"/>
                <path d="M159.853,280.539L182.29,281.336L182.242,261.858L159.827,261.061L159.853,280.539Z" style="fill:rgb(225,237,248);fill-rule:nonzero;"/>
                <path d="M159.827,261.061L182.242,261.858L182.162,242.371L159.787,241.571L159.827,261.061Z" style="fill:rgb(247,251,255);fill-rule:nonzero;"/>
                <path d="M159.787,241.571L182.162,242.371L181.999,222.878L159.677,222.063L159.787,241.571Z" style="fill:rgb(247,251,255);fill-rule:nonzero;"/>
                <path d="M182.749,592.744L205.345,593.521L205.129,574.112L182.561,573.339L182.749,592.744Z" style="fill:rgb(53,133,191);fill-rule:nonzero;"/>
                <path d="M182.561,573.339L205.129,574.112L205.014,554.678L182.481,553.901L182.561,573.339Z" style="fill:rgb(82,157,204);fill-rule:nonzero;"/>
                <path d="M182.481,553.901L205.014,554.678L204.951,535.226L182.439,534.445L182.481,553.901Z" style="fill:rgb(116,179,216);fill-rule:nonzero;"/>
                <path d="M182.439,534.445L204.951,535.226L204.913,515.764L182.413,514.98L182.439,534.445Z" style="fill:rgb(141,193,221);fill-rule:nonzero;"/>
                <path d="M182.413,514.98L204.913,515.764L204.889,496.297L182.398,495.511L182.413,514.98Z" style="fill:rgb(156,201,225);fill-rule:nonzero;"/>
                <path d="M182.398,495.511L204.889,496.297L204.875,476.826L182.388,476.039L182.398,495.511Z" style="fill:rgb(164,204,227);fill-rule:nonzero;"/>
                <path d="M182.388,476.039L204.875,476.826L204.865,457.355L182.382,456.567L182.388,476.039Z" style="fill:rgb(169,207,229);fill-rule:nonzero;"/>
                <path d="M182.382,456.567L204.865,457.355L204.859,437.883L182.378,437.095L182.382,456.567Z" style="fill:rgb(173,208,230);fill-rule:nonzero;"/>
                <path d="M182.378,437.095L204.859,437.883L204.855,418.412L182.375,417.623L182.378,437.095Z" style="fill:rgb(175,209,231);fill-rule:nonzero;"/>
                <path d="M182.375,417.623L204.855,418.412L204.851,398.941L182.372,398.153L182.375,417.623Z" style="fill:rgb(176,210,231);fill-rule:nonzero;"/>
                <path d="M182.372,398.153L204.851,398.941L204.845,379.471L182.369,378.683L182.372,398.153Z" style="fill:rgb(179,211,232);fill-rule:nonzero;"/>
                <path d="M182.369,378.683L204.845,379.471L204.837,360.002L182.363,359.215L182.369,378.683Z" style="fill:rgb(183,212,234);fill-rule:nonzero;"/>
                <path d="M182.363,359.215L204.837,360.002L204.825,340.532L182.355,339.747L182.363,359.215Z" style="fill:rgb(186,214,235);fill-rule:nonzero;"/>
                <path d="M182.355,339.747L204.825,340.532L204.806,321.063L182.342,320.279L182.355,339.747Z" style="fill:rgb(193,217,237);fill-rule:nonzero;"/>
                <path d="M182.342,320.279L204.806,321.063L204.776,301.592L182.321,300.809L182.342,320.279Z" style="fill:rgb(201,221,240);fill-rule:nonzero;"/>
                <path d="M182.321,300.809L204.776,301.592L204.731,282.12L182.29,281.336L182.321,300.809Z" style="fill:rgb(210,227,243);fill-rule:nonzero;"/>
                <path d="M182.29,281.336L204.731,282.12L204.662,262.643L182.242,261.858L182.29,281.336Z" style="fill:rgb(223,235,247);fill-rule:nonzero;"/>
                <path d="M182.242,261.858L204.662,262.643L204.551,243.161L182.162,242.371L182.242,261.858Z" style="fill:rgb(242,248,253);fill-rule:nonzero;"/>
                <path d="M182.162,242.371L204.551,243.161L204.358,223.679L181.999,222.878L182.162,242.371Z" style="fill:rgb(247,251,255);fill-rule:nonzero;"/>
                <path d="M205.345,593.521L227.915,594.296L227.685,574.881L205.129,574.112L205.345,593.521Z" style="fill:rgb(77,153,202);fill-rule:nonzero;"/>
                <path d="M205.129,574.112L227.685,574.881L227.545,555.448L205.014,554.678L205.129,574.112Z" style="fill:rgb(95,166,209);fill-rule:nonzero;"/>
                <path d="M205.014,554.678L227.545,555.448L227.462,535.999L204.951,535.226L205.014,554.678Z" style="fill:rgb(122,182,217);fill-rule:nonzero;"/>
                <path d="M204.951,535.226L227.462,535.999L227.412,516.539L204.913,515.764L204.951,535.226Z" style="fill:rgb(143,194,222);fill-rule:nonzero;"/>
                <path d="M204.913,515.764L227.412,516.539L227.381,497.073L204.889,496.297L204.913,515.764Z" style="fill:rgb(157,202,225);fill-rule:nonzero;"/>
                <path d="M204.889,496.297L227.381,497.073L227.361,477.604L204.875,476.826L204.889,496.297Z" style="fill:rgb(164,204,227);fill-rule:nonzero;"/>
                <path d="M204.875,476.826L227.361,477.604L227.349,458.133L204.865,457.355L204.875,476.826Z" style="fill:rgb(169,207,229);fill-rule:nonzero;"/>
                <path d="M204.865,457.355L227.349,458.133L227.341,438.662L204.859,437.883L204.865,457.355Z" style="fill:rgb(173,208,230);fill-rule:nonzero;"/>
                <path d="M204.859,437.883L227.341,438.662L227.335,419.19L204.855,418.412L204.859,437.883Z" style="fill:rgb(174,209,231);fill-rule:nonzero;"/>
                <path d="M204.855,418.412L227.335,419.19L227.329,399.719L204.851,398.941L204.855,418.412Z" style="fill:rgb(176,210,231);fill-rule:nonzero;"/>
                <path d="M204.851,398.941L227.329,399.719L227.322,380.248L204.845,379.471L204.851,398.941Z" style="fill:rgb(179,211,232);fill-rule:nonzero;"/>
                <path d="M204.845,379.471L227.322,380.248L227.311,360.777L204.837,360.002L204.845,379.471Z" style="fill:rgb(181,212,233);fill-rule:nonzero;"/>
                <path d="M204.837,360.002L227.311,360.777L227.296,341.307L204.825,340.532L204.837,360.002Z" style="fill:rgb(185,214,234);fill-rule:nonzero;"/>
                <path d="M204.825,340.532L227.296,341.307L227.271,321.836L204.806,321.063L204.825,340.532Z" style="fill:rgb(191,216,237);fill-rule:nonzero;"/>
                <path d="M204.806,321.063L227.271,321.836L227.234,302.365L204.776,301.592L204.806,321.063Z" style="fill:rgb(199,220,239);fill-rule:nonzero;"/>
                <path d="M204.776,301.592L227.234,302.365L227.176,282.893L204.731,282.12L204.776,301.592Z" style="fill:rgb(208,225,242);fill-rule:nonzero;"/>
                <path d="M204.731,282.12L227.176,282.893L227.089,263.419L204.662,262.643L204.731,282.12Z" style="fill:rgb(219,233,246);fill-rule:nonzero;"/>
                <path d="M204.662,262.643L227.089,263.419L226.955,243.943L204.551,243.161L204.662,262.643Z" style="fill:rgb(235,243,251);fill-rule:nonzero;"/>
                <path d="M204.551,243.161L226.955,243.943L226.744,224.469L204.358,223.679L204.551,243.161Z" style="fill:rgb(247,251,255);fill-rule:nonzero;"/>
                <path d="M227.915,594.296L250.466,595.067L250.227,575.648L227.685,574.881L227.915,594.296Z" style="fill:rgb(97,167,210);fill-rule:nonzero;"/>
                <path d="M227.685,574.881L250.227,575.648L250.07,556.214L227.545,555.448L227.685,574.881Z" style="fill:rgb(109,175,215);fill-rule:nonzero;"/>
                <path d="M227.545,555.448L250.07,556.214L249.972,536.765L227.462,535.999L227.545,555.448Z" style="fill:rgb(130,187,219);fill-rule:nonzero;"/>
                <path d="M227.462,535.999L249.972,536.765L249.91,517.307L227.412,516.539L227.462,535.999Z" style="fill:rgb(148,196,223);fill-rule:nonzero;"/>
                <path d="M227.412,516.539L249.91,517.307L249.872,497.842L227.381,497.073L227.412,516.539Z" style="fill:rgb(159,202,225);fill-rule:nonzero;"/>
                <path d="M227.381,497.073L249.872,497.842L249.848,478.373L227.361,477.604L227.381,497.073Z" style="fill:rgb(165,205,227);fill-rule:nonzero;"/>
                <path d="M227.361,477.604L249.848,478.373L249.832,458.903L227.349,458.133L227.361,477.604Z" style="fill:rgb(169,207,229);fill-rule:nonzero;"/>
                <path d="M227.349,458.133L249.832,458.903L249.822,439.431L227.341,438.662L227.349,458.133Z" style="fill:rgb(173,208,230);fill-rule:nonzero;"/>
                <path d="M227.341,438.662L249.822,439.431L249.815,419.959L227.335,419.19L227.341,438.662Z" style="fill:rgb(174,209,231);fill-rule:nonzero;"/>
                <path d="M227.335,419.19L249.815,419.959L249.807,400.487L227.329,399.719L227.335,419.19Z" style="fill:rgb(176,210,231);fill-rule:nonzero;"/>
                <path d="M227.329,399.719L249.807,400.487L249.799,381.015L227.322,380.248L227.329,399.719Z" style="fill:rgb(179,211,232);fill-rule:nonzero;"/>
                <path d="M227.322,380.248L249.799,381.015L249.786,361.543L227.311,360.777L227.322,380.248Z" style="fill:rgb(181,212,233);fill-rule:nonzero;"/>
                <path d="M227.311,360.777L249.786,361.543L249.767,342.072L227.296,341.307L227.311,360.777Z" style="fill:rgb(185,214,234);fill-rule:nonzero;"/>
                <path d="M227.296,341.307L249.767,342.072L249.738,322.601L227.271,321.836L227.296,341.307Z" style="fill:rgb(190,216,236);fill-rule:nonzero;"/>
                <path d="M227.271,321.836L249.738,322.601L249.694,303.13L227.234,302.365L227.271,321.836Z" style="fill:rgb(198,219,239);fill-rule:nonzero;"/>
                <path d="M227.234,302.365L249.694,303.13L249.626,283.659L227.176,282.893L227.234,302.365Z" style="fill:rgb(205,224,241);fill-rule:nonzero;"/>
                <path d="M227.176,282.893L249.626,283.659L249.525,264.188L227.089,263.419L227.176,282.893Z" style="fill:rgb(215,230,245);fill-rule:nonzero;"/>
                <path d="M227.089,263.419L249.525,264.188L249.374,244.717L226.955,243.943L227.089,263.419Z" style="fill:rgb(228,239,249);fill-rule:nonzero;"/>
                <path d="M226.955,243.943L249.374,244.717L249.149,225.251L226.744,224.469L226.955,243.943Z" style="fill:rgb(241,247,253);fill-rule:nonzero;"/>
                <path d="M250.466,595.067L273.001,595.836L272.757,576.412L250.227,575.648L250.466,595.067Z" style="fill:rgb(119,181,217);fill-rule:nonzero;"/>
                <path d="M250.227,575.648L272.757,576.412L272.588,556.976L250.07,556.214L250.227,575.648Z" style="fill:rgb(127,185,218);fill-rule:nonzero;"/>
                <path d="M250.07,556.214L272.588,556.976L272.477,537.527L249.972,536.765L250.07,556.214Z" style="fill:rgb(140,192,221);fill-rule:nonzero;"/>
                <path d="M249.972,536.765L272.477,537.527L272.407,518.068L249.91,517.307L249.972,536.765Z" style="fill:rgb(153,199,224);fill-rule:nonzero;"/>
                <path d="M249.91,517.307L272.407,518.068L272.362,498.604L249.872,497.842L249.91,517.307Z" style="fill:rgb(161,203,226);fill-rule:nonzero;"/>
                <path d="M249.872,497.842L272.362,498.604L272.334,479.136L249.848,478.373L249.872,497.842Z" style="fill:rgb(166,206,228);fill-rule:nonzero;"/>
                <path d="M249.848,478.373L272.334,479.136L272.316,459.665L249.832,458.903L249.848,478.373Z" style="fill:rgb(170,207,229);fill-rule:nonzero;"/>
                <path d="M249.832,458.903L272.316,459.665L272.303,440.193L249.822,439.431L249.832,458.903Z" style="fill:rgb(173,208,230);fill-rule:nonzero;"/>
                <path d="M249.822,439.431L272.303,440.193L272.294,420.721L249.815,419.959L249.822,439.431Z" style="fill:rgb(175,209,231);fill-rule:nonzero;"/>
                <path d="M249.815,419.959L272.294,420.721L272.286,401.248L249.807,400.487L249.815,419.959Z" style="fill:rgb(176,210,231);fill-rule:nonzero;"/>
                <path d="M249.807,400.487L272.286,401.248L272.276,381.775L249.799,381.015L249.807,400.487Z" style="fill:rgb(178,210,232);fill-rule:nonzero;"/>
                <path d="M249.799,381.015L272.276,381.775L272.262,362.303L249.786,361.543L249.799,381.015Z" style="fill:rgb(180,211,233);fill-rule:nonzero;"/>
                <path d="M249.786,361.543L272.262,362.303L272.24,342.831L249.767,342.072L249.786,361.543Z" style="fill:rgb(184,213,234);fill-rule:nonzero;"/>
                <path d="M249.767,342.072L272.24,342.831L272.208,323.36L249.738,322.601L249.767,342.072Z" style="fill:rgb(188,215,235);fill-rule:nonzero;"/>
                <path d="M249.738,322.601L272.208,323.36L272.158,303.89L249.694,303.13L249.738,322.601Z" style="fill:rgb(195,218,238);fill-rule:nonzero;"/>
                <path d="M249.694,303.13L272.158,303.89L272.082,284.42L249.626,283.659L249.694,303.13Z" style="fill:rgb(202,222,240);fill-rule:nonzero;"/>
                <path d="M249.626,283.659L272.082,284.42L271.97,264.952L249.525,264.188L249.626,283.659Z" style="fill:rgb(210,227,243);fill-rule:nonzero;"/>
                <path d="M249.525,264.188L271.97,264.952L271.806,245.486L249.374,244.717L249.525,264.188Z" style="fill:rgb(220,234,246);fill-rule:nonzero;"/>
                <path d="M249.374,244.717L271.806,245.486L271.572,226.026L249.149,225.251L249.374,244.717Z" style="fill:rgb(230,240,249);fill-rule:nonzero;"/>
                <path d="M273.001,595.836L295.522,596.603L295.274,577.174L272.757,576.412L273.001,595.836Z" style="fill:rgb(140,192,221);fill-rule:nonzero;"/>
                <path d="M272.757,576.412L295.274,577.174L295.097,557.734L272.588,556.976L272.757,576.412Z" style="fill:rgb(143,194,222);fill-rule:nonzero;"/>
                <path d="M272.588,556.976L295.097,557.734L294.978,538.284L272.477,537.527L272.588,556.976Z" style="fill:rgb(151,198,223);fill-rule:nonzero;"/>
                <path d="M272.477,537.527L294.978,538.284L294.901,518.825L272.407,518.068L272.477,537.527Z" style="fill:rgb(159,202,225);fill-rule:nonzero;"/>
                <path d="M272.407,518.068L294.901,518.825L294.851,499.361L272.362,498.604L272.407,518.068Z" style="fill:rgb(165,205,227);fill-rule:nonzero;"/>
                <path d="M272.362,498.604L294.851,499.361L294.819,479.892L272.334,479.136L272.362,498.604Z" style="fill:rgb(169,207,229);fill-rule:nonzero;"/>
                <path d="M272.334,479.136L294.819,479.892L294.798,460.422L272.316,459.665L272.334,479.136Z" style="fill:rgb(171,208,230);fill-rule:nonzero;"/>
                <path d="M272.316,459.665L294.798,460.422L294.784,440.95L272.303,440.193L272.316,459.665Z" style="fill:rgb(174,209,231);fill-rule:nonzero;"/>
                <path d="M272.303,440.193L294.784,440.95L294.774,421.477L272.294,420.721L272.303,440.193Z" style="fill:rgb(175,209,231);fill-rule:nonzero;"/>
                <path d="M272.294,420.721L294.774,421.477L294.764,402.004L272.286,401.248L272.294,420.721Z" style="fill:rgb(176,210,231);fill-rule:nonzero;"/>
                <path d="M272.286,401.248L294.764,402.004L294.753,382.531L272.276,381.775L272.286,401.248Z" style="fill:rgb(178,210,232);fill-rule:nonzero;"/>
                <path d="M272.276,381.775L294.753,382.531L294.738,363.058L272.262,362.303L272.276,381.775Z" style="fill:rgb(180,211,233);fill-rule:nonzero;"/>
                <path d="M272.262,362.303L294.738,363.058L294.715,343.586L272.24,342.831L272.262,362.303Z" style="fill:rgb(183,212,234);fill-rule:nonzero;"/>
                <path d="M272.24,342.831L294.715,343.586L294.679,324.115L272.208,323.36L272.24,342.831Z" style="fill:rgb(185,214,234);fill-rule:nonzero;"/>
                <path d="M272.208,323.36L294.679,324.115L294.625,304.645L272.158,303.89L272.208,323.36Z" style="fill:rgb(191,216,237);fill-rule:nonzero;"/>
                <path d="M272.158,303.89L294.625,304.645L294.544,285.177L272.082,284.42L272.158,303.89Z" style="fill:rgb(199,219,239);fill-rule:nonzero;"/>
                <path d="M272.082,284.42L294.544,285.177L294.424,265.712L271.97,264.952L272.082,284.42Z" style="fill:rgb(205,224,241);fill-rule:nonzero;"/>
                <path d="M271.97,264.952L294.424,265.712L294.251,246.251L271.806,245.486L271.97,264.952Z" style="fill:rgb(213,229,244);fill-rule:nonzero;"/>
                <path d="M271.806,245.486L294.251,246.251L294.011,226.797L271.572,226.026L271.806,245.486Z" style="fill:rgb(220,234,246);fill-rule:nonzero;"/>
                <path d="M295.522,596.603L318.029,597.367L317.779,577.933L295.274,577.174L295.522,596.603Z" style="fill:rgb(160,203,226);fill-rule:nonzero;"/>
                <path d="M295.274,577.174L317.779,577.933L317.598,558.49L295.097,557.734L295.274,577.174Z" style="fill:rgb(160,203,226);fill-rule:nonzero;"/>
                <path d="M295.097,557.734L317.598,558.49L317.474,539.038L294.978,538.284L295.097,557.734Z" style="fill:rgb(161,203,226);fill-rule:nonzero;"/>
                <path d="M294.978,538.284L317.474,539.038L317.391,519.579L294.901,518.825L294.978,538.284Z" style="fill:rgb(165,205,227);fill-rule:nonzero;"/>
                <path d="M294.901,518.825L317.391,519.579L317.337,500.114L294.851,499.361L294.901,518.825Z" style="fill:rgb(168,206,228);fill-rule:nonzero;"/>
                <path d="M294.851,499.361L317.337,500.114L317.302,480.645L294.819,479.892L294.851,499.361Z" style="fill:rgb(170,207,229);fill-rule:nonzero;"/>
                <path d="M294.819,479.892L317.302,480.645L317.28,461.174L294.798,460.422L294.819,479.892Z" style="fill:rgb(173,208,230);fill-rule:nonzero;"/>
                <path d="M294.798,460.422L317.28,461.174L317.265,441.702L294.784,440.95L294.798,460.422Z" style="fill:rgb(174,209,231);fill-rule:nonzero;"/>
                <path d="M294.784,440.95L317.265,441.702L317.253,422.229L294.774,421.477L294.784,440.95Z" style="fill:rgb(175,209,231);fill-rule:nonzero;"/>
                <path d="M294.774,421.477L317.253,422.229L317.243,402.756L294.764,402.004L294.774,421.477Z" style="fill:rgb(176,210,231);fill-rule:nonzero;"/>
                <path d="M294.764,402.004L317.243,402.756L317.231,383.282L294.753,382.531L294.764,402.004Z" style="fill:rgb(178,210,232);fill-rule:nonzero;"/>
                <path d="M294.753,382.531L317.231,383.282L317.215,363.809L294.738,363.058L294.753,382.531Z" style="fill:rgb(179,211,232);fill-rule:nonzero;"/>
                <path d="M294.738,363.058L317.215,363.809L317.191,344.337L294.715,343.586L294.738,363.058Z" style="fill:rgb(180,211,233);fill-rule:nonzero;"/>
                <path d="M294.715,343.586L317.191,344.337L317.154,324.866L294.679,324.115L294.715,343.586Z" style="fill:rgb(183,212,234);fill-rule:nonzero;"/>
                <path d="M294.679,324.115L317.154,324.866L317.097,305.397L294.625,304.645L294.679,324.115Z" style="fill:rgb(188,215,235);fill-rule:nonzero;"/>
                <path d="M294.625,304.645L317.097,305.397L317.012,285.931L294.544,285.177L294.625,304.645Z" style="fill:rgb(193,217,237);fill-rule:nonzero;"/>
                <path d="M294.544,285.177L317.012,285.931L316.887,266.469L294.424,265.712L294.544,285.177Z" style="fill:rgb(200,220,240);fill-rule:nonzero;"/>
                <path d="M294.424,265.712L316.887,266.469L316.709,247.013L294.251,246.251L294.424,265.712Z" style="fill:rgb(205,224,241);fill-rule:nonzero;"/>
                <path d="M294.251,246.251L316.709,247.013L316.464,227.564L294.011,226.797L294.251,246.251Z" style="fill:rgb(211,228,243);fill-rule:nonzero;"/>
                <path d="M318.029,597.367L340.523,598.13L340.273,578.692L317.779,577.933L318.029,597.367Z" style="fill:rgb(175,209,231);fill-rule:nonzero;"/>
                <path d="M317.779,577.933L340.273,578.692L340.091,559.245L317.598,558.49L317.779,577.933Z" style="fill:rgb(173,208,230);fill-rule:nonzero;"/>
                <path d="M317.598,558.49L340.091,559.245L339.963,539.79L317.474,539.038L317.598,558.49Z" style="fill:rgb(171,208,230);fill-rule:nonzero;"/>
                <path d="M317.474,539.038L339.963,539.79L339.878,520.33L317.391,519.579L317.474,539.038Z" style="fill:rgb(171,208,230);fill-rule:nonzero;"/>
                <path d="M317.391,519.579L339.878,520.33L339.821,500.864L317.337,500.114L317.391,519.579Z" style="fill:rgb(173,208,230);fill-rule:nonzero;"/>
                <path d="M317.337,500.114L339.821,500.864L339.785,481.395L317.302,480.645L317.337,500.114Z" style="fill:rgb(174,209,231);fill-rule:nonzero;"/>
                <path d="M317.302,480.645L339.785,481.395L339.761,461.924L317.28,461.174L317.302,480.645Z" style="fill:rgb(174,209,231);fill-rule:nonzero;"/>
                <path d="M317.28,461.174L339.761,461.924L339.745,442.452L317.265,441.702L317.28,461.174Z" style="fill:rgb(175,209,231);fill-rule:nonzero;"/>
                <path d="M317.265,441.702L339.745,442.452L339.733,422.979L317.253,422.229L317.265,441.702Z" style="fill:rgb(175,209,231);fill-rule:nonzero;"/>
                <path d="M317.253,422.229L339.733,422.979L339.722,403.505L317.243,402.756L317.253,422.229Z" style="fill:rgb(176,210,231);fill-rule:nonzero;"/>
                <path d="M317.243,402.756L339.722,403.505L339.71,384.032L317.231,383.282L317.243,402.756Z" style="fill:rgb(176,210,231);fill-rule:nonzero;"/>
                <path d="M317.231,383.282L339.71,384.032L339.693,364.559L317.215,363.809L317.231,383.282Z" style="fill:rgb(178,210,232);fill-rule:nonzero;"/>
                <path d="M317.215,363.809L339.693,364.559L339.669,345.087L317.191,344.337L317.215,363.809Z" style="fill:rgb(179,211,232);fill-rule:nonzero;"/>
                <path d="M317.191,344.337L339.669,345.087L339.631,325.617L317.154,324.866L317.191,344.337Z" style="fill:rgb(180,211,233);fill-rule:nonzero;"/>
                <path d="M317.154,324.866L339.631,325.617L339.574,306.149L317.097,305.397L317.154,324.866Z" style="fill:rgb(183,212,234);fill-rule:nonzero;"/>
                <path d="M317.097,305.397L339.574,306.149L339.487,286.684L317.012,285.931L317.097,305.397Z" style="fill:rgb(186,214,235);fill-rule:nonzero;"/>
                <path d="M317.012,285.931L339.487,286.684L339.359,267.225L316.887,266.469L317.012,285.931Z" style="fill:rgb(191,216,237);fill-rule:nonzero;"/>
                <path d="M316.887,266.469L339.359,267.225L339.178,247.773L316.709,247.013L316.887,266.469Z" style="fill:rgb(199,219,239);fill-rule:nonzero;"/>
                <path d="M316.709,247.013L339.178,247.773L338.931,228.329L316.464,227.564L316.709,247.013Z" style="fill:rgb(202,222,240);fill-rule:nonzero;"/>
                <path d="M340.523,598.13L363.004,598.893L362.755,579.45L340.273,578.692L340.523,598.13Z" style="fill:rgb(189,215,236);fill-rule:nonzero;"/>
                <path d="M340.273,578.692L362.755,579.45L362.574,559.999L340.091,559.245L340.273,578.692Z" style="fill:rgb(184,213,234);fill-rule:nonzero;"/>
                <path d="M340.091,559.245L362.574,559.999L362.447,540.542L339.963,539.79L340.091,559.245Z" style="fill:rgb(180,211,233);fill-rule:nonzero;"/>
                <path d="M339.963,539.79L362.447,540.542L362.36,521.08L339.878,520.33L339.963,539.79Z" style="fill:rgb(178,210,232);fill-rule:nonzero;"/>
                <path d="M339.878,520.33L362.36,521.08L362.303,501.613L339.821,500.864L339.878,520.33Z" style="fill:rgb(176,210,231);fill-rule:nonzero;"/>
                <path d="M339.821,500.864L362.303,501.613L362.265,482.144L339.785,481.395L339.821,500.864Z" style="fill:rgb(176,210,231);fill-rule:nonzero;"/>
                <path d="M339.785,481.395L362.265,482.144L362.241,462.673L339.761,461.924L339.785,481.395Z" style="fill:rgb(176,210,231);fill-rule:nonzero;"/>
                <path d="M339.761,461.924L362.241,462.673L362.224,443.201L339.745,442.452L339.761,461.924Z" style="fill:rgb(176,210,231);fill-rule:nonzero;"/>
                <path d="M339.745,442.452L362.224,443.201L362.212,423.728L339.733,422.979L339.745,442.452Z" style="fill:rgb(176,210,231);fill-rule:nonzero;"/>
                <path d="M339.733,422.979L362.212,423.728L362.201,404.255L339.722,403.505L339.733,422.979Z" style="fill:rgb(176,210,231);fill-rule:nonzero;"/>
                <path d="M339.722,403.505L362.201,404.255L362.189,384.781L339.71,384.032L339.722,403.505Z" style="fill:rgb(176,210,231);fill-rule:nonzero;"/>
                <path d="M339.71,384.032L362.189,384.781L362.172,365.309L339.693,364.559L339.71,384.032Z" style="fill:rgb(176,210,231);fill-rule:nonzero;"/>
                <path d="M339.693,364.559L362.172,365.309L362.148,345.837L339.669,345.087L339.693,364.559Z" style="fill:rgb(176,210,231);fill-rule:nonzero;"/>
                <path d="M339.669,345.087L362.148,345.837L362.111,326.367L339.631,325.617L339.669,345.087Z" style="fill:rgb(178,210,232);fill-rule:nonzero;"/>
                <path d="M339.631,325.617L362.111,326.367L362.054,306.9L339.574,306.149L339.631,325.617Z" style="fill:rgb(179,211,232);fill-rule:nonzero;"/>
                <path d="M339.574,306.149L362.054,306.9L361.967,287.437L339.487,286.684L339.574,306.149Z" style="fill:rgb(180,211,233);fill-rule:nonzero;"/>
                <path d="M339.487,286.684L361.967,287.437L361.84,267.981L339.359,267.225L339.487,286.684Z" style="fill:rgb(183,212,234);fill-rule:nonzero;"/>
                <path d="M339.359,267.225L361.84,267.981L361.659,248.533L339.178,247.773L339.359,267.225Z" style="fill:rgb(186,214,235);fill-rule:nonzero;"/>
                <path d="M339.178,247.773L361.659,248.533L361.411,229.094L338.931,228.329L339.178,247.773Z" style="fill:rgb(190,216,236);fill-rule:nonzero;"/>
                <path d="M363.004,598.893L385.472,599.657L385.226,580.209L362.755,579.45L363.004,598.893Z" style="fill:rgb(202,221,240);fill-rule:nonzero;"/>
                <path d="M362.755,579.45L385.226,580.209L385.048,560.754L362.574,559.999L362.755,579.45Z" style="fill:rgb(196,218,238);fill-rule:nonzero;"/>
                <path d="M362.574,559.999L385.048,560.754L384.924,541.294L362.447,540.542L362.574,559.999Z" style="fill:rgb(189,215,236);fill-rule:nonzero;"/>
                <path d="M362.447,540.542L384.924,541.294L384.839,521.83L362.36,521.08L362.447,540.542Z" style="fill:rgb(184,213,234);fill-rule:nonzero;"/>
                <path d="M362.36,521.08L384.839,521.83L384.782,502.362L362.303,501.613L362.36,521.08Z" style="fill:rgb(181,212,233);fill-rule:nonzero;"/>
                <path d="M362.303,501.613L384.782,502.362L384.744,482.893L362.265,482.144L362.303,501.613Z" style="fill:rgb(179,211,232);fill-rule:nonzero;"/>
                <path d="M362.265,482.144L384.744,482.893L384.72,463.422L362.241,462.673L362.265,482.144Z" style="fill:rgb(178,210,232);fill-rule:nonzero;"/>
                <path d="M362.241,462.673L384.72,463.422L384.703,443.95L362.224,443.201L362.241,462.673Z" style="fill:rgb(176,210,231);fill-rule:nonzero;"/>
                <path d="M362.224,443.201L384.703,443.95L384.691,424.477L362.212,423.728L362.224,443.201Z" style="fill:rgb(176,210,231);fill-rule:nonzero;"/>
                <path d="M362.212,423.728L384.691,424.477L384.68,405.004L362.201,404.255L362.212,423.728Z" style="fill:rgb(176,210,231);fill-rule:nonzero;"/>
                <path d="M362.201,404.255L384.68,405.004L384.669,385.532L362.189,384.781L362.201,404.255Z" style="fill:rgb(175,209,231);fill-rule:nonzero;"/>
                <path d="M362.189,384.781L384.669,385.532L384.653,366.059L362.172,365.309L362.189,384.781Z" style="fill:rgb(175,209,231);fill-rule:nonzero;"/>
                <path d="M362.172,365.309L384.653,366.059L384.629,346.588L362.148,345.837L362.172,365.309Z" style="fill:rgb(175,209,231);fill-rule:nonzero;"/>
                <path d="M362.148,345.837L384.629,346.588L384.594,327.119L362.111,326.367L362.148,345.837Z" style="fill:rgb(175,209,231);fill-rule:nonzero;"/>
                <path d="M362.111,326.367L384.594,327.119L384.539,307.653L362.054,306.9L362.111,326.367Z" style="fill:rgb(174,209,231);fill-rule:nonzero;"/>
                <path d="M362.054,306.9L384.539,307.653L384.455,288.192L361.967,287.437L362.054,306.9Z" style="fill:rgb(174,209,231);fill-rule:nonzero;"/>
                <path d="M361.967,287.437L384.455,288.192L384.331,268.738L361.84,267.981L361.967,287.437Z" style="fill:rgb(174,209,231);fill-rule:nonzero;"/>
                <path d="M361.84,267.981L384.331,268.738L384.152,249.293L361.659,248.533L361.84,267.981Z" style="fill:rgb(174,209,231);fill-rule:nonzero;"/>
                <path d="M361.659,248.533L384.152,249.293L383.904,229.859L361.411,229.094L361.659,248.533Z" style="fill:rgb(176,210,231);fill-rule:nonzero;"/>
                <path d="M385.472,599.657L407.926,600.423L407.686,580.97L385.226,580.209L385.472,599.657Z" style="fill:rgb(210,227,243);fill-rule:nonzero;"/>
                <path d="M385.226,580.209L407.686,580.97L407.514,561.51L385.048,560.754L385.226,580.209Z" style="fill:rgb(205,223,241);fill-rule:nonzero;"/>
                <path d="M385.048,560.754L407.514,561.51L407.394,542.047L384.924,541.294L385.048,560.754Z" style="fill:rgb(199,219,239);fill-rule:nonzero;"/>
                <path d="M384.924,541.294L407.394,542.047L407.312,522.581L384.839,521.83L384.924,541.294Z" style="fill:rgb(190,216,236);fill-rule:nonzero;"/>
                <path d="M384.839,521.83L407.312,522.581L407.258,503.112L384.782,502.362L384.839,521.83Z" style="fill:rgb(185,214,234);fill-rule:nonzero;"/>
                <path d="M384.782,502.362L407.258,503.112L407.222,483.643L384.744,482.893L384.782,502.362Z" style="fill:rgb(181,212,233);fill-rule:nonzero;"/>
                <path d="M384.744,482.893L407.222,483.643L407.198,464.172L384.72,463.422L384.744,482.893Z" style="fill:rgb(179,211,232);fill-rule:nonzero;"/>
                <path d="M384.72,463.422L407.198,464.172L407.182,444.7L384.703,443.95L384.72,463.422Z" style="fill:rgb(178,210,232);fill-rule:nonzero;"/>
                <path d="M384.703,443.95L407.182,444.7L407.17,425.228L384.691,424.477L384.703,443.95Z" style="fill:rgb(176,210,231);fill-rule:nonzero;"/>
                <path d="M384.691,424.477L407.17,425.228L407.16,405.756L384.68,405.004L384.691,424.477Z" style="fill:rgb(175,209,231);fill-rule:nonzero;"/>
                <path d="M384.68,405.004L407.16,405.756L407.149,386.284L384.669,385.532L384.68,405.004Z" style="fill:rgb(175,209,231);fill-rule:nonzero;"/>
                <path d="M384.669,385.532L407.149,386.284L407.134,366.812L384.653,366.059L384.669,385.532Z" style="fill:rgb(174,209,231);fill-rule:nonzero;"/>
                <path d="M384.653,366.059L407.134,366.812L407.113,347.342L384.629,346.588L384.653,366.059Z" style="fill:rgb(173,208,230);fill-rule:nonzero;"/>
                <path d="M384.629,346.588L407.113,347.342L407.079,327.873L384.594,327.119L384.629,346.588Z" style="fill:rgb(171,208,230);fill-rule:nonzero;"/>
                <path d="M384.594,327.119L407.079,327.873L407.027,308.408L384.539,307.653L384.594,327.119Z" style="fill:rgb(170,207,229);fill-rule:nonzero;"/>
                <path d="M384.539,307.653L407.027,308.408L406.948,288.948L384.455,288.192L384.539,307.653Z" style="fill:rgb(168,206,228);fill-rule:nonzero;"/>
                <path d="M384.455,288.192L406.948,288.948L406.83,269.496L384.331,268.738L384.455,288.192Z" style="fill:rgb(164,204,227);fill-rule:nonzero;"/>
                <path d="M384.331,268.738L406.83,269.496L406.657,250.055L384.152,249.293L384.331,268.738Z" style="fill:rgb(161,203,226);fill-rule:nonzero;"/>
                <path d="M384.152,249.293L406.657,250.055L406.41,230.625L383.904,229.859L384.152,249.293Z" style="fill:rgb(160,203,226);fill-rule:nonzero;"/>
                <path d="M407.926,600.423L430.366,601.192L430.133,581.733L407.686,580.97L407.926,600.423Z" style="fill:rgb(219,233,246);fill-rule:nonzero;"/>
                <path d="M407.686,580.97L430.133,581.733L429.97,562.269L407.514,561.51L407.686,580.97Z" style="fill:rgb(211,228,243);fill-rule:nonzero;"/>
                <path d="M407.514,561.51L429.97,562.269L429.858,542.802L407.394,542.047L407.514,561.51Z" style="fill:rgb(204,223,241);fill-rule:nonzero;"/>
                <path d="M407.394,542.047L429.858,542.802L429.782,523.334L407.312,522.581L407.394,542.047Z" style="fill:rgb(196,218,238);fill-rule:nonzero;"/>
                <path d="M407.312,522.581L429.782,523.334L429.731,503.865L407.258,503.112L407.312,522.581Z" style="fill:rgb(190,216,236);fill-rule:nonzero;"/>
                <path d="M407.258,503.112L429.731,503.865L429.697,484.395L407.222,483.643L407.258,503.112Z" style="fill:rgb(184,213,234);fill-rule:nonzero;"/>
                <path d="M407.222,483.643L429.697,484.395L429.675,464.924L407.198,464.172L407.222,483.643Z" style="fill:rgb(180,211,233);fill-rule:nonzero;"/>
                <path d="M407.198,464.172L429.675,464.924L429.661,445.453L407.182,444.7L407.198,464.172Z" style="fill:rgb(179,211,232);fill-rule:nonzero;"/>
                <path d="M407.182,444.7L429.661,445.453L429.65,425.982L407.17,425.228L407.182,444.7Z" style="fill:rgb(176,210,231);fill-rule:nonzero;"/>
                <path d="M407.17,425.228L429.65,425.982L429.641,406.511L407.16,405.756L407.17,425.228Z" style="fill:rgb(175,209,231);fill-rule:nonzero;"/>
                <path d="M407.16,405.756L429.641,406.511L429.631,387.039L407.149,386.284L407.16,405.756Z" style="fill:rgb(174,209,231);fill-rule:nonzero;"/>
                <path d="M407.149,386.284L429.631,387.039L429.617,367.568L407.134,366.812L407.149,386.284Z" style="fill:rgb(173,208,230);fill-rule:nonzero;"/>
                <path d="M407.134,366.812L429.617,367.568L429.598,348.099L407.113,347.342L407.134,366.812Z" style="fill:rgb(171,208,230);fill-rule:nonzero;"/>
                <path d="M407.113,347.342L429.598,348.099L429.567,328.631L407.079,327.873L407.113,347.342Z" style="fill:rgb(169,207,229);fill-rule:nonzero;"/>
                <path d="M407.079,327.873L429.567,328.631L429.52,309.167L407.027,308.408L407.079,327.873Z" style="fill:rgb(165,205,227);fill-rule:nonzero;"/>
                <path d="M407.027,308.408L429.52,309.167L429.447,289.709L406.948,288.948L407.027,308.408Z" style="fill:rgb(161,203,226);fill-rule:nonzero;"/>
                <path d="M406.948,288.948L429.447,289.709L429.337,270.258L406.83,269.496L406.948,288.948Z" style="fill:rgb(154,200,224);fill-rule:nonzero;"/>
                <path d="M406.83,269.496L429.337,270.258L429.173,250.82L406.657,250.055L406.83,269.496Z" style="fill:rgb(145,195,222);fill-rule:nonzero;"/>
                <path d="M406.657,250.055L429.173,250.82L428.93,231.395L406.41,230.625L406.657,250.055Z" style="fill:rgb(141,193,221);fill-rule:nonzero;"/>
                <path d="M430.366,601.192L452.792,601.966L452.567,582.5L430.133,581.733L430.366,601.192Z" style="fill:rgb(229,239,249);fill-rule:nonzero;"/>
                <path d="M430.133,581.733L452.567,582.5L452.417,563.031L429.97,562.269L430.133,581.733Z" style="fill:rgb(219,233,246);fill-rule:nonzero;"/>
                <path d="M429.97,562.269L452.417,563.031L452.315,543.561L429.858,542.802L429.97,562.269Z" style="fill:rgb(209,226,243);fill-rule:nonzero;"/>
                <path d="M429.858,542.802L452.315,543.561L452.247,524.091L429.782,523.334L429.858,542.802Z" style="fill:rgb(201,221,240);fill-rule:nonzero;"/>
                <path d="M429.782,523.334L452.247,524.091L452.201,504.621L429.731,503.865L429.782,523.334Z" style="fill:rgb(194,217,238);fill-rule:nonzero;"/>
                <path d="M429.731,503.865L452.201,504.621L452.172,485.151L429.697,484.395L429.731,503.865Z" style="fill:rgb(186,214,235);fill-rule:nonzero;"/>
                <path d="M429.697,484.395L452.172,485.151L452.152,465.681L429.675,464.924L429.697,484.395Z" style="fill:rgb(183,212,234);fill-rule:nonzero;"/>
                <path d="M429.675,464.924L452.152,465.681L452.139,446.211L429.661,445.453L429.675,464.924Z" style="fill:rgb(179,211,232);fill-rule:nonzero;"/>
                <path d="M429.661,445.453L452.139,446.211L452.13,426.74L429.65,425.982L429.661,445.453Z" style="fill:rgb(176,210,231);fill-rule:nonzero;"/>
                <path d="M429.65,425.982L452.13,426.74L452.122,407.27L429.641,406.511L429.65,425.982Z" style="fill:rgb(175,209,231);fill-rule:nonzero;"/>
                <path d="M429.641,406.511L452.122,407.27L452.113,387.799L429.631,387.039L429.641,406.511Z" style="fill:rgb(174,209,231);fill-rule:nonzero;"/>
                <path d="M429.631,387.039L452.113,387.799L452.102,368.329L429.617,367.568L429.631,387.039Z" style="fill:rgb(171,208,230);fill-rule:nonzero;"/>
                <path d="M429.617,367.568L452.102,368.329L452.084,348.861L429.598,348.099L429.617,367.568Z" style="fill:rgb(169,207,229);fill-rule:nonzero;"/>
                <path d="M429.598,348.099L452.084,348.861L452.058,329.394L429.567,328.631L429.598,348.099Z" style="fill:rgb(166,206,228);fill-rule:nonzero;"/>
                <path d="M429.567,328.631L452.058,329.394L452.017,309.931L429.52,309.167L429.567,328.631Z" style="fill:rgb(161,203,226);fill-rule:nonzero;"/>
                <path d="M429.52,309.167L452.017,309.931L451.952,290.474L429.447,289.709L429.52,309.167Z" style="fill:rgb(153,199,224);fill-rule:nonzero;"/>
                <path d="M429.447,289.709L451.952,290.474L451.854,271.026L429.337,270.258L429.447,289.709Z" style="fill:rgb(141,193,221);fill-rule:nonzero;"/>
                <path d="M429.337,270.258L451.854,271.026L451.702,251.591L429.173,250.82L429.337,270.258Z" style="fill:rgb(127,185,218);fill-rule:nonzero;"/>
                <path d="M429.173,250.82L451.702,251.591L451.465,232.17L428.93,231.395L429.173,250.82Z" style="fill:rgb(119,181,217);fill-rule:nonzero;"/>
                <path d="M452.792,601.966L475.199,602.745L474.988,583.273L452.567,582.5L452.792,601.966Z" style="fill:rgb(239,246,252);fill-rule:nonzero;"/>
                <path d="M452.567,582.5L474.988,583.273L474.854,563.798L452.417,563.031L452.567,582.5Z" style="fill:rgb(227,238,248);fill-rule:nonzero;"/>
                <path d="M452.417,563.031L474.854,563.798L474.767,544.325L452.315,543.561L452.417,563.031Z" style="fill:rgb(214,229,244);fill-rule:nonzero;"/>
                <path d="M452.315,543.561L474.767,544.325L474.708,524.853L452.247,524.091L452.315,543.561Z" style="fill:rgb(205,223,241);fill-rule:nonzero;"/>
                <path d="M452.247,524.091L474.708,524.853L474.67,505.383L452.201,504.621L452.247,524.091Z" style="fill:rgb(196,218,238);fill-rule:nonzero;"/>
                <path d="M452.201,504.621L474.67,505.383L474.645,485.913L452.172,485.151L452.201,504.621Z" style="fill:rgb(189,215,236);fill-rule:nonzero;"/>
                <path d="M452.172,485.151L474.645,485.913L474.629,466.444L452.152,465.681L452.172,485.151Z" style="fill:rgb(183,212,234);fill-rule:nonzero;"/>
                <path d="M452.152,465.681L474.629,466.444L474.618,446.975L452.139,446.211L452.152,465.681Z" style="fill:rgb(179,211,232);fill-rule:nonzero;"/>
                <path d="M452.139,446.211L474.618,446.975L474.61,427.505L452.13,426.74L452.139,446.211Z" style="fill:rgb(176,210,231);fill-rule:nonzero;"/>
                <path d="M452.13,426.74L474.61,427.505L474.603,408.035L452.122,407.27L452.13,426.74Z" style="fill:rgb(175,209,231);fill-rule:nonzero;"/>
                <path d="M452.122,407.27L474.603,408.035L474.597,388.566L452.113,387.799L452.122,407.27Z" style="fill:rgb(173,208,230);fill-rule:nonzero;"/>
                <path d="M452.113,387.799L474.597,388.566L474.587,369.096L452.102,368.329L452.113,387.799Z" style="fill:rgb(170,207,229);fill-rule:nonzero;"/>
                <path d="M452.102,368.329L474.587,369.096L474.573,349.628L452.084,348.861L452.102,368.329Z" style="fill:rgb(168,206,228);fill-rule:nonzero;"/>
                <path d="M452.084,348.861L474.573,349.628L474.551,330.162L452.058,329.394L452.084,348.861Z" style="fill:rgb(163,204,227);fill-rule:nonzero;"/>
                <path d="M452.058,329.394L474.551,330.162L474.517,310.699L452.017,309.931L452.058,329.394Z" style="fill:rgb(156,201,225);fill-rule:nonzero;"/>
                <path d="M452.017,309.931L474.517,310.699L474.464,291.243L451.952,290.474L452.017,309.931Z" style="fill:rgb(145,195,222);fill-rule:nonzero;"/>
                <path d="M451.952,290.474L474.464,291.243L474.381,271.797L451.854,271.026L451.952,290.474Z" style="fill:rgb(127,185,218);fill-rule:nonzero;"/>
                <path d="M451.854,271.026L474.381,271.797L474.246,252.365L451.702,251.591L451.854,271.026Z" style="fill:rgb(106,174,214);fill-rule:nonzero;"/>
                <path d="M451.702,251.591L474.246,252.365L474.018,232.951L451.465,232.17L451.702,251.591Z" style="fill:rgb(96,167,210);fill-rule:nonzero;"/>
                <path d="M475.199,602.745L497.588,603.533L497.395,584.052L474.988,583.273L475.199,602.745Z" style="fill:rgb(247,251,255);fill-rule:nonzero;"/>
                <path d="M474.988,583.273L497.395,584.052L497.283,564.571L474.854,563.798L474.988,583.273Z" style="fill:rgb(234,243,251);fill-rule:nonzero;"/>
                <path d="M474.854,563.798L497.283,564.571L497.213,545.094L474.767,544.325L474.854,563.798Z" style="fill:rgb(218,232,246);fill-rule:nonzero;"/>
                <path d="M474.767,544.325L497.213,545.094L497.166,525.622L474.708,524.853L474.767,544.325Z" style="fill:rgb(207,225,242);fill-rule:nonzero;"/>
                <path d="M474.708,524.853L497.166,525.622L497.136,506.152L474.67,505.383L474.708,524.853Z" style="fill:rgb(199,219,239);fill-rule:nonzero;"/>
                <path d="M474.67,505.383L497.136,506.152L497.117,486.683L474.645,485.913L474.67,505.383Z" style="fill:rgb(190,216,236);fill-rule:nonzero;"/>
                <path d="M474.645,485.913L497.117,486.683L497.105,467.215L474.629,466.444L474.645,485.913Z" style="fill:rgb(184,213,234);fill-rule:nonzero;"/>
                <path d="M474.629,466.444L497.105,467.215L497.096,447.747L474.618,446.975L474.629,466.444Z" style="fill:rgb(180,211,233);fill-rule:nonzero;"/>
                <path d="M474.618,446.975L497.096,447.747L497.09,428.279L474.61,427.505L474.618,446.975Z" style="fill:rgb(176,210,231);fill-rule:nonzero;"/>
                <path d="M474.61,427.505L497.09,428.279L497.085,408.81L474.603,408.035L474.61,427.505Z" style="fill:rgb(174,209,231);fill-rule:nonzero;"/>
                <path d="M474.603,408.035L497.085,408.81L497.08,389.341L474.597,388.566L474.603,408.035Z" style="fill:rgb(173,208,230);fill-rule:nonzero;"/>
                <path d="M474.597,388.566L497.08,389.341L497.073,369.871L474.587,369.096L474.597,388.566Z" style="fill:rgb(169,207,229);fill-rule:nonzero;"/>
                <path d="M474.587,369.096L497.073,369.871L497.063,350.402L474.573,349.628L474.587,369.096Z" style="fill:rgb(166,206,228);fill-rule:nonzero;"/>
                <path d="M474.573,349.628L497.063,350.402L497.046,330.935L474.551,330.162L474.573,349.628Z" style="fill:rgb(161,203,226);fill-rule:nonzero;"/>
                <path d="M474.551,330.162L497.046,330.935L497.021,311.472L474.517,310.699L474.551,330.162Z" style="fill:rgb(153,199,224);fill-rule:nonzero;"/>
                <path d="M474.517,310.699L497.021,311.472L496.98,292.014L474.464,291.243L474.517,310.699Z" style="fill:rgb(138,191,221);fill-rule:nonzero;"/>
                <path d="M474.464,291.243L496.98,292.014L496.916,272.568L474.381,271.797L474.464,291.243Z" style="fill:rgb(116,179,216);fill-rule:nonzero;"/>
                <path d="M474.381,271.797L496.916,272.568L496.805,253.14L474.246,252.365L474.381,271.797Z" style="fill:rgb(91,163,208);fill-rule:nonzero;"/>
                <path d="M474.246,252.365L496.805,253.14L496.591,233.731L474.018,232.951L474.246,252.365Z" style="fill:rgb(72,150,200);fill-rule:nonzero;"/>
                <path d="M497.588,603.533L519.95,604.333L519.785,584.838L497.395,584.052L497.588,603.533Z" style="fill:rgb(247,251,255);fill-rule:nonzero;"/>
                <path d="M497.395,584.052L519.785,584.838L519.704,565.35L497.283,564.571L497.395,584.052Z" style="fill:rgb(242,247,253);fill-rule:nonzero;"/>
                <path d="M497.283,564.571L519.704,565.35L519.655,545.872L497.213,545.094L497.283,564.571Z" style="fill:rgb(222,235,247);fill-rule:nonzero;"/>
                <path d="M497.213,545.094L519.655,545.872L519.623,526.401L497.166,525.622L497.213,545.094Z" style="fill:rgb(209,226,243);fill-rule:nonzero;"/>
                <path d="M497.166,525.622L519.623,526.401L519.602,506.933L497.136,506.152L497.166,525.622Z" style="fill:rgb(200,220,240);fill-rule:nonzero;"/>
                <path d="M497.136,506.152L519.602,506.933L519.589,487.467L497.117,486.683L497.136,506.152Z" style="fill:rgb(191,216,237);fill-rule:nonzero;"/>
                <path d="M497.117,486.683L519.589,487.467L519.58,468.001L497.105,467.215L497.117,486.683Z" style="fill:rgb(185,214,234);fill-rule:nonzero;"/>
                <path d="M497.105,467.215L519.58,468.001L519.574,448.533L497.096,447.747L497.105,467.215Z" style="fill:rgb(180,211,233);fill-rule:nonzero;"/>
                <path d="M497.096,447.747L519.574,448.533L519.57,429.065L497.09,428.279L497.096,447.747Z" style="fill:rgb(178,210,232);fill-rule:nonzero;"/>
                <path d="M497.09,428.279L519.57,429.065L519.567,409.596L497.085,408.81L497.09,428.279Z" style="fill:rgb(174,209,231);fill-rule:nonzero;"/>
                <path d="M497.085,408.81L519.567,409.596L519.564,390.125L497.08,389.341L497.085,408.81Z" style="fill:rgb(173,208,230);fill-rule:nonzero;"/>
                <path d="M497.08,389.341L519.564,390.125L519.559,370.654L497.073,369.871L497.08,389.341Z" style="fill:rgb(169,207,229);fill-rule:nonzero;"/>
                <path d="M497.073,369.871L519.559,370.654L519.553,351.183L497.063,350.402L497.073,369.871Z" style="fill:rgb(165,205,227);fill-rule:nonzero;"/>
                <path d="M497.063,350.402L519.553,351.183L519.542,331.714L497.046,330.935L497.063,350.402Z" style="fill:rgb(160,203,226);fill-rule:nonzero;"/>
                <path d="M497.046,330.935L519.542,331.714L519.525,312.247L497.021,311.472L497.046,330.935Z" style="fill:rgb(149,197,223);fill-rule:nonzero;"/>
                <path d="M497.021,311.472L519.525,312.247L519.499,292.787L496.98,292.014L497.021,311.472Z" style="fill:rgb(133,188,220);fill-rule:nonzero;"/>
                <path d="M496.98,292.014L519.499,292.787L519.457,273.338L496.916,272.568L496.98,292.014Z" style="fill:rgb(106,174,214);fill-rule:nonzero;"/>
                <path d="M496.916,272.568L519.457,273.338L519.379,253.91L496.805,253.14L496.916,272.568Z" style="fill:rgb(75,152,202);fill-rule:nonzero;"/>
                <path d="M496.805,253.14L519.379,253.91L519.193,234.514L496.591,233.731L496.805,253.14Z" style="fill:rgb(48,128,189);fill-rule:nonzero;"/>
                <path d="M519.95,604.333L542.271,605.153L542.158,585.644L519.785,584.838L519.95,604.333Z" style="fill:rgb(247,251,255);fill-rule:nonzero;"/>
                <path d="M519.785,584.838L542.158,585.644L542.118,566.153L519.704,565.35L519.785,584.838Z" style="fill:rgb(247,251,255);fill-rule:nonzero;"/>
                <path d="M519.704,565.35L542.118,566.153L542.093,546.674L519.655,545.872L519.704,565.35Z" style="fill:rgb(226,237,248);fill-rule:nonzero;"/>
                <path d="M519.655,545.872L542.093,546.674L542.077,527.202L519.623,526.401L519.655,545.872Z" style="fill:rgb(211,227,243);fill-rule:nonzero;"/>
                <path d="M519.623,526.401L542.077,527.202L542.067,507.733L519.602,506.933L519.623,526.401Z" style="fill:rgb(201,221,240);fill-rule:nonzero;"/>
                <path d="M519.602,506.933L542.067,507.733L542.06,488.266L519.589,487.467L519.602,506.933Z" style="fill:rgb(193,217,237);fill-rule:nonzero;"/>
                <path d="M519.589,487.467L542.06,488.266L542.055,468.799L519.58,468.001L519.589,487.467Z" style="fill:rgb(185,214,234);fill-rule:nonzero;"/>
                <path d="M519.58,468.001L542.055,468.799L542.052,449.331L519.574,448.533L519.58,468.001Z" style="fill:rgb(180,211,233);fill-rule:nonzero;"/>
                <path d="M519.574,448.533L542.052,449.331L542.05,429.862L519.57,429.065L519.574,448.533Z" style="fill:rgb(178,210,232);fill-rule:nonzero;"/>
                <path d="M519.57,429.065L542.05,429.862L542.049,410.393L519.567,409.596L519.57,429.065Z" style="fill:rgb(175,209,231);fill-rule:nonzero;"/>
                <path d="M519.567,409.596L542.049,410.393L542.047,390.921L519.564,390.125L519.567,409.596Z" style="fill:rgb(173,208,230);fill-rule:nonzero;"/>
                <path d="M519.564,390.125L542.047,390.921L542.045,371.449L519.559,370.654L519.564,390.125Z" style="fill:rgb(170,207,229);fill-rule:nonzero;"/>
                <path d="M519.559,370.654L542.045,371.449L542.041,351.977L519.553,351.183L519.559,370.654Z" style="fill:rgb(166,206,228);fill-rule:nonzero;"/>
                <path d="M519.553,351.183L542.041,351.977L542.036,332.505L519.542,331.714L519.553,351.183Z" style="fill:rgb(160,203,226);fill-rule:nonzero;"/>
                <path d="M519.542,331.714L542.036,332.505L542.028,313.035L519.525,312.247L519.542,331.714Z" style="fill:rgb(151,198,223);fill-rule:nonzero;"/>
                <path d="M519.525,312.247L542.028,313.035L542.016,293.569L519.499,292.787L519.525,312.247Z" style="fill:rgb(133,188,220);fill-rule:nonzero;"/>
                <path d="M519.499,292.787L542.016,293.569L541.996,274.11L519.457,273.338L519.499,292.787Z" style="fill:rgb(106,174,214);fill-rule:nonzero;"/>
                <path d="M519.457,273.338L541.996,274.11L541.962,254.666L519.379,253.91L519.457,273.338Z" style="fill:rgb(66,146,198);fill-rule:nonzero;"/>
                <path d="M519.379,253.91L541.962,254.666L541.835,235.269L519.193,234.514L519.379,253.91Z" style="fill:rgb(22,99,170);fill-rule:nonzero;"/>
                <path d="M542.271,605.153L564.531,605.962L564.531,586.442L542.158,585.644L542.271,605.153Z" style="fill:rgb(247,251,255);fill-rule:nonzero;"/>
                <path d="M542.158,585.644L564.531,586.442L564.531,566.952L542.118,566.153L542.158,585.644Z" style="fill:rgb(247,251,255);fill-rule:nonzero;"/>
                <path d="M542.118,566.153L564.531,566.952L564.531,547.475L542.093,546.674L542.118,566.153Z" style="fill:rgb(225,237,248);fill-rule:nonzero;"/>
                <path d="M542.093,546.674L564.531,547.475L564.531,528.003L542.077,527.202L542.093,546.674Z" style="fill:rgb(210,227,243);fill-rule:nonzero;"/>
                <path d="M542.077,527.202L564.531,528.003L564.531,508.534L542.067,507.733L542.077,527.202Z" style="fill:rgb(201,221,240);fill-rule:nonzero;"/>
                <path d="M542.067,507.733L564.531,508.534L564.531,489.065L542.06,488.266L542.067,507.733Z" style="fill:rgb(191,216,237);fill-rule:nonzero;"/>
                <path d="M542.06,488.266L564.531,489.065L564.531,469.596L542.055,468.799L542.06,488.266Z" style="fill:rgb(184,213,234);fill-rule:nonzero;"/>
                <path d="M542.055,468.799L564.531,469.596L564.531,450.127L542.052,449.331L542.055,468.799Z" style="fill:rgb(179,211,232);fill-rule:nonzero;"/>
                <path d="M542.052,449.331L564.531,450.127L564.531,430.657L542.05,429.862L542.052,449.331Z" style="fill:rgb(175,209,231);fill-rule:nonzero;"/>
                <path d="M542.05,429.862L564.531,430.657L564.531,411.186L542.049,410.393L542.05,429.862Z" style="fill:rgb(173,208,230);fill-rule:nonzero;"/>
                <path d="M542.049,410.393L564.531,411.186L564.531,391.714L542.047,390.921L542.049,410.393Z" style="fill:rgb(170,207,229);fill-rule:nonzero;"/>
                <path d="M542.047,390.921L564.531,391.714L564.531,372.241L542.045,371.449L542.047,390.921Z" style="fill:rgb(168,206,228);fill-rule:nonzero;"/>
                <path d="M542.045,371.449L564.531,372.241L564.531,352.769L542.041,351.977L542.045,371.449Z" style="fill:rgb(164,204,227);fill-rule:nonzero;"/>
                <path d="M542.041,351.977L564.531,352.769L564.531,333.297L542.036,332.505L542.041,351.977Z" style="fill:rgb(159,202,225);fill-rule:nonzero;"/>
                <path d="M542.036,332.505L564.531,333.297L564.531,313.829L542.028,313.035L542.036,332.505Z" style="fill:rgb(149,197,223);fill-rule:nonzero;"/>
                <path d="M542.028,313.035L564.531,313.829L564.531,294.365L542.016,293.569L542.028,313.035Z" style="fill:rgb(133,188,220);fill-rule:nonzero;"/>
                <path d="M542.016,293.569L564.531,294.365L564.531,274.909L541.996,274.11L542.016,293.569Z" style="fill:rgb(108,174,214);fill-rule:nonzero;"/>
                <path d="M541.996,274.11L564.531,274.909L564.531,255.463L541.962,254.666L541.996,274.11Z" style="fill:rgb(74,152,201);fill-rule:nonzero;"/>
                <path d="M541.962,254.666L564.531,255.463L564.531,236.051L541.835,235.269L541.962,254.666Z" style="fill:rgb(8,70,139);fill-rule:nonzero;"/>
            </g>
        </g>
        <g id="axes_2">
            <g id="patch_3">
                <path d="M631.26,525.6L631.26,190.8L648,190.8L648,525.6L631.26,525.6Z" style="fill:white;fill-rule:nonzero;stroke:white;stroke-width:0.01px;"/>
            </g>
            <g id="QuadMesh_1">
                <path d="M631.26,525.6L648,525.6L648,458.64L631.26,458.64L631.26,525.6" style="fill:rgb(231,240,250);fill-rule:nonzero;"/>
                <path d="M631.26,458.64L648,458.64L648,391.68L631.26,391.68L631.26,458.64" style="fill:rgb(198,219,239);fill-rule:nonzero;"/>
                <path d="M631.26,391.68L648,391.68L648,324.72L631.26,324.72L631.26,391.68" style="fill:rgb(141,193,221);fill-rule:nonzero;"/>
                <path d="M631.26,324.72L648,324.72L648,257.76L631.26,257.76L631.26,324.72" style="fill:rgb(79,155,203);fill-rule:nonzero;"/>
                <path d="M631.26,257.76L648,257.76L648,190.8L631.26,190.8L631.26,257.76" style="fill:rgb(32,112,180);fill-rule:nonzero;"/>
            </g>
            <g id="matplotlib.axis_4">
                <g id="ytick_1">
                    <g transform="matrix(1,0,0,1,648,525.6)">
                        <g id="line2d_1">
                            <g>
                                <path id="m5a2eef9756" d="M0,0L3.5,0" style="fill:none;fill-rule:nonzero;stroke:black;stroke-width:0.8px;"/>
                            </g>
                        </g>
                    </g>
                    <g transform="matrix(0.25,0,0,-0.25,655,535.098)">
                        <g id="text_1">
                            <g>
                                <path id="DejaVuSans-49" d="M12.406,8.297L28.516,8.297L28.516,63.922L10.984,60.406L10.984,69.391L28.422,72.906L38.281,72.906L38.281,8.297L54.391,8.297L54.391,0L12.406,0L12.406,8.297Z" style="fill:white;fill-rule:nonzero;"/>
                                <g id="DejaVuSans-56" transform="matrix(1,0,0,1,63.623,0)">
                                    <path d="M31.781,34.625C27.094,34.625 23.406,33.37 20.719,30.859C18.042,28.349 16.703,24.901 16.703,20.516C16.703,16.12 18.042,12.667 20.719,10.156C23.406,7.646 27.094,6.391 31.781,6.391C36.469,6.391 40.161,7.651 42.859,10.172C45.568,12.703 46.922,16.151 46.922,20.516C46.922,24.901 45.578,28.349 42.891,30.859C40.214,33.37 36.51,34.625 31.781,34.625ZM21.922,38.813C17.693,39.854 14.396,41.823 12.031,44.719C9.677,47.625 8.5,51.161 8.5,55.328C8.5,61.151 10.573,65.755 14.719,69.141C18.875,72.526 24.563,74.219 31.781,74.219C39.042,74.219 44.74,72.526 48.875,69.141C53.01,65.755 55.078,61.151 55.078,55.328C55.078,51.161 53.896,47.625 51.531,44.719C49.177,41.823 45.901,39.854 41.703,38.813C46.453,37.708 50.151,35.542 52.797,32.313C55.453,29.094 56.781,25.161 56.781,20.516C56.781,13.443 54.625,8.016 50.313,4.234C46,0.464 39.823,-1.422 31.781,-1.422C23.75,-1.422 17.573,0.464 13.25,4.234C8.938,8.016 6.781,13.443 6.781,20.516C6.781,25.161 8.115,29.094 10.781,32.313C13.458,35.542 17.172,37.708 21.922,38.813ZM18.313,54.391C18.313,50.62 19.49,47.677 21.844,45.563C24.208,43.448 27.521,42.391 31.781,42.391C36.021,42.391 39.333,43.448 41.719,45.563C44.115,47.677 45.313,50.62 45.313,54.391C45.313,58.172 44.115,61.12 41.719,63.234C39.333,65.349 36.021,66.406 31.781,66.406C27.521,66.406 24.208,65.349 21.844,63.234C19.49,61.12 18.313,58.172 18.313,54.391Z" style="fill:white;fill-rule:nonzero;"/>
                                </g>
                            </g>
                        </g>
                    </g>
                </g>
                <g id="ytick_2">
                    <g transform="matrix(1,0,0,1,648,458.64)">
                        <g id="line2d_2">
                            <g>
                                <path id="m5a2eef97561" serif:id="m5a2eef9756" d="M0,0L3.5,0" style="fill:none;fill-rule:nonzero;stroke:black;stroke-width:0.8px;"/>
                            </g>
                        </g>
                    </g>
                    <g transform="matrix(0.25,0,0,-0.25,655,468.138)">
                        <g id="text_2">
                            <g>
                                <path id="DejaVuSans-491" serif:id="DejaVuSans-49" d="M12.406,8.297L28.516,8.297L28.516,63.922L10.984,60.406L10.984,69.391L28.422,72.906L38.281,72.906L38.281,8.297L54.391,8.297L54.391,0L12.406,0L12.406,8.297Z" style="fill:white;fill-rule:nonzero;"/>
                                <g id="DejaVuSans-57" transform="matrix(1,0,0,1,63.623,0)">
                                    <path d="M10.984,1.516L10.984,10.5C13.464,9.323 15.969,8.427 18.5,7.813C21.042,7.198 23.536,6.891 25.984,6.891C32.495,6.891 37.464,9.078 40.891,13.453C44.328,17.828 46.292,24.479 46.781,33.406C44.896,30.604 42.5,28.453 39.594,26.953C36.698,25.453 33.495,24.703 29.984,24.703C22.693,24.703 16.922,26.906 12.672,31.313C8.422,35.729 6.297,41.766 6.297,49.422C6.297,56.901 8.51,62.901 12.938,67.422C17.365,71.953 23.255,74.219 30.609,74.219C39.047,74.219 45.484,70.984 49.922,64.516C54.37,58.057 56.594,48.677 56.594,36.375C56.594,24.885 53.865,15.714 48.406,8.859C42.958,2.005 35.63,-1.422 26.422,-1.422C23.943,-1.422 21.432,-1.177 18.891,-0.688C16.359,-0.198 13.724,0.536 10.984,1.516ZM30.609,32.422C35.036,32.422 38.542,33.932 41.125,36.953C43.719,39.984 45.016,44.141 45.016,49.422C45.016,54.661 43.719,58.802 41.125,61.844C38.542,64.885 35.036,66.406 30.609,66.406C26.182,66.406 22.677,64.885 20.094,61.844C17.51,58.802 16.219,54.661 16.219,49.422C16.219,44.141 17.51,39.984 20.094,36.953C22.677,33.932 26.182,32.422 30.609,32.422Z" style="fill:white;fill-rule:nonzero;"/>
                                </g>
                            </g>
                        </g>
                    </g>
                </g>
                <g id="ytick_3">
                    <g transform="matrix(1,0,0,1,648,391.68)">
                        <g id="line2d_3">
                            <g>
                                <path id="m5a2eef97562" serif:id="m5a2eef9756" d="M0,0L3.5,0" style="fill:none;fill-rule:nonzero;stroke:black;stroke-width:0.8px;"/>
                            </g>
                        </g>
                    </g>
                    <g transform="matrix(0.25,0,0,-0.25,655,401.178)">
                        <g id="text_3">
                            <g>
                                <path id="DejaVuSans-50" d="M19.188,8.297L53.609,8.297L53.609,0L7.328,0L7.328,8.297C11.068,12.172 16.167,17.37 22.625,23.891C29.094,30.422 33.156,34.635 34.813,36.531C37.969,40.073 40.172,43.073 41.422,45.531C42.682,47.99 43.313,50.406 43.313,52.781C43.313,56.656 41.953,59.813 39.234,62.25C36.516,64.698 32.974,65.922 28.609,65.922C25.516,65.922 22.25,65.385 18.813,64.313C15.385,63.24 11.719,61.609 7.813,59.422L7.813,69.391C11.781,70.984 15.49,72.188 18.938,73C22.396,73.813 25.557,74.219 28.422,74.219C35.974,74.219 41.995,72.328 46.484,68.547C50.974,64.776 53.219,59.734 53.219,53.422C53.219,50.422 52.656,47.578 51.531,44.891C50.417,42.214 48.375,39.052 45.406,35.406C44.594,34.458 42.005,31.729 37.641,27.219C33.286,22.708 27.135,16.401 19.188,8.297Z" style="fill:white;fill-rule:nonzero;"/>
                                <g id="DejaVuSans-48" transform="matrix(1,0,0,1,63.623,0)">
                                    <path d="M31.781,66.406C26.708,66.406 22.891,63.906 20.328,58.906C17.776,53.917 16.5,46.406 16.5,36.375C16.5,26.385 17.776,18.891 20.328,13.891C22.891,8.891 26.708,6.391 31.781,6.391C36.896,6.391 40.729,8.891 43.281,13.891C45.844,18.891 47.125,26.385 47.125,36.375C47.125,46.406 45.844,53.917 43.281,58.906C40.729,63.906 36.896,66.406 31.781,66.406ZM31.781,74.219C39.958,74.219 46.203,70.984 50.516,64.516C54.828,58.057 56.984,48.677 56.984,36.375C56.984,24.104 54.828,14.734 50.516,8.266C46.203,1.807 39.958,-1.422 31.781,-1.422C23.615,-1.422 17.375,1.807 13.063,8.266C8.75,14.734 6.594,24.104 6.594,36.375C6.594,48.677 8.75,58.057 13.063,64.516C17.375,70.984 23.615,74.219 31.781,74.219Z" style="fill:white;fill-rule:nonzero;"/>
                                </g>
                            </g>
                        </g>
                    </g>
                </g>
                <g id="ytick_4">
                    <g transform="matrix(1,0,0,1,648,324.72)">
                        <g id="line2d_4">
                            <g>
                                <path id="m5a2eef97563" serif:id="m5a2eef9756" d="M0,0L3.5,0" style="fill:none;fill-rule:nonzero;stroke:black;stroke-width:0.8px;"/>
                            </g>
                        </g>
                    </g>
                    <g transform="matrix(0.25,0,0,-0.25,655,334.218)">
                        <g id="text_4">
                            <g>
                                <path id="DejaVuSans-501" serif:id="DejaVuSans-50" d="M19.188,8.297L53.609,8.297L53.609,0L7.328,0L7.328,8.297C11.068,12.172 16.167,17.37 22.625,23.891C29.094,30.422 33.156,34.635 34.813,36.531C37.969,40.073 40.172,43.073 41.422,45.531C42.682,47.99 43.313,50.406 43.313,52.781C43.313,56.656 41.953,59.813 39.234,62.25C36.516,64.698 32.974,65.922 28.609,65.922C25.516,65.922 22.25,65.385 18.813,64.313C15.385,63.24 11.719,61.609 7.813,59.422L7.813,69.391C11.781,70.984 15.49,72.188 18.938,73C22.396,73.813 25.557,74.219 28.422,74.219C35.974,74.219 41.995,72.328 46.484,68.547C50.974,64.776 53.219,59.734 53.219,53.422C53.219,50.422 52.656,47.578 51.531,44.891C50.417,42.214 48.375,39.052 45.406,35.406C44.594,34.458 42.005,31.729 37.641,27.219C33.286,22.708 27.135,16.401 19.188,8.297Z" style="fill:white;fill-rule:nonzero;"/>
                                <g id="DejaVuSans-492" serif:id="DejaVuSans-49" transform="matrix(1,0,0,1,63.623,0)">
                                    <path d="M12.406,8.297L28.516,8.297L28.516,63.922L10.984,60.406L10.984,69.391L28.422,72.906L38.281,72.906L38.281,8.297L54.391,8.297L54.391,0L12.406,0L12.406,8.297Z" style="fill:white;fill-rule:nonzero;"/>
                                </g>
                            </g>
                        </g>
                    </g>
                </g>
                <g id="ytick_5">
                    <g transform="matrix(1,0,0,1,648,257.76)">
                        <g id="line2d_5">
                            <g>
                                <path id="m5a2eef97564" serif:id="m5a2eef9756" d="M0,0L3.5,0" style="fill:none;fill-rule:nonzero;stroke:black;stroke-width:0.8px;"/>
                            </g>
                        </g>
                    </g>
                    <g transform="matrix(0.25,0,0,-0.25,655,267.258)">
                        <g id="text_5">
                            <g>
                                <path id="DejaVuSans-502" serif:id="DejaVuSans-50" d="M19.188,8.297L53.609,8.297L53.609,0L7.328,0L7.328,8.297C11.068,12.172 16.167,17.37 22.625,23.891C29.094,30.422 33.156,34.635 34.813,36.531C37.969,40.073 40.172,43.073 41.422,45.531C42.682,47.99 43.313,50.406 43.313,52.781C43.313,56.656 41.953,59.813 39.234,62.25C36.516,64.698 32.974,65.922 28.609,65.922C25.516,65.922 22.25,65.385 18.813,64.313C15.385,63.24 11.719,61.609 7.813,59.422L7.813,69.391C11.781,70.984 15.49,72.188 18.938,73C22.396,73.813 25.557,74.219 28.422,74.219C35.974,74.219 41.995,72.328 46.484,68.547C50.974,64.776 53.219,59.734 53.219,53.422C53.219,50.422 52.656,47.578 51.531,44.891C50.417,42.214 48.375,39.052 45.406,35.406C44.594,34.458 42.005,31.729 37.641,27.219C33.286,22.708 27.135,16.401 19.188,8.297Z" style="fill:white;fill-rule:nonzero;"/>
                                <g id="DejaVuSans-503" serif:id="DejaVuSans-50" transform="matrix(1,0,0,1,63.623,0)">
                                    <path d="M19.188,8.297L53.609,8.297L53.609,0L7.328,0L7.328,8.297C11.068,12.172 16.167,17.37 22.625,23.891C29.094,30.422 33.156,34.635 34.813,36.531C37.969,40.073 40.172,43.073 41.422,45.531C42.682,47.99 43.313,50.406 43.313,52.781C43.313,56.656 41.953,59.813 39.234,62.25C36.516,64.698 32.974,65.922 28.609,65.922C25.516,65.922 22.25,65.385 18.813,64.313C15.385,63.24 11.719,61.609 7.813,59.422L7.813,69.391C11.781,70.984 15.49,72.188 18.938,73C22.396,73.813 25.557,74.219 28.422,74.219C35.974,74.219 41.995,72.328 46.484,68.547C50.974,64.776 53.219,59.734 53.219,53.422C53.219,50.422 52.656,47.578 51.531,44.891C50.417,42.214 48.375,39.052 45.406,35.406C44.594,34.458 42.005,31.729 37.641,27.219C33.286,22.708 27.135,16.401 19.188,8.297Z" style="fill:white;fill-rule:nonzero;"/>
                                </g>
                            </g>
                        </g>
                    </g>
                </g>
                <g id="ytick_6">
                    <g transform="matrix(1,0,0,1,648,190.8)">
                        <g id="line2d_6">
                            <g>
                                <path id="m5a2eef97565" serif:id="m5a2eef9756" d="M0,0L3.5,0" style="fill:none;fill-rule:nonzero;stroke:black;stroke-width:0.8px;"/>
                            </g>
                        </g>
                    </g>
                    <g transform="matrix(0.25,0,0,-0.25,655,200.298)">
                        <g id="text_6">
                            <g>
                                <path id="DejaVuSans-504" serif:id="DejaVuSans-50" d="M19.188,8.297L53.609,8.297L53.609,0L7.328,0L7.328,8.297C11.068,12.172 16.167,17.37 22.625,23.891C29.094,30.422 33.156,34.635 34.813,36.531C37.969,40.073 40.172,43.073 41.422,45.531C42.682,47.99 43.313,50.406 43.313,52.781C43.313,56.656 41.953,59.813 39.234,62.25C36.516,64.698 32.974,65.922 28.609,65.922C25.516,65.922 22.25,65.385 18.813,64.313C15.385,63.24 11.719,61.609 7.813,59.422L7.813,69.391C11.781,70.984 15.49,72.188 18.938,73C22.396,73.813 25.557,74.219 28.422,74.219C35.974,74.219 41.995,72.328 46.484,68.547C50.974,64.776 53.219,59.734 53.219,53.422C53.219,50.422 52.656,47.578 51.531,44.891C50.417,42.214 48.375,39.052 45.406,35.406C44.594,34.458 42.005,31.729 37.641,27.219C33.286,22.708 27.135,16.401 19.188,8.297Z" style="fill:white;fill-rule:nonzero;"/>
                                <g id="DejaVuSans-51" transform="matrix(1,0,0,1,63.623,0)">
                                    <path d="M40.578,39.313C45.297,38.302 48.979,36.198 51.625,33C54.281,29.813 55.609,25.875 55.609,21.188C55.609,14 53.135,8.432 48.188,4.484C43.24,0.547 36.208,-1.422 27.094,-1.422C24.042,-1.422 20.896,-1.12 17.656,-0.516C14.417,0.089 11.073,0.995 7.625,2.203L7.625,11.719C10.354,10.125 13.344,8.922 16.594,8.109C19.854,7.297 23.26,6.891 26.813,6.891C32.99,6.891 37.698,8.109 40.938,10.547C44.177,12.984 45.797,16.531 45.797,21.188C45.797,25.49 44.292,28.849 41.281,31.266C38.271,33.693 34.083,34.906 28.719,34.906L20.219,34.906L20.219,43.016L29.109,43.016C33.953,43.016 37.661,43.984 40.234,45.922C42.807,47.859 44.094,50.651 44.094,54.297C44.094,58.036 42.766,60.906 40.109,62.906C37.464,64.917 33.667,65.922 28.719,65.922C26.01,65.922 23.109,65.625 20.016,65.031C16.922,64.448 13.521,63.542 9.813,62.313L9.813,71.094C13.563,72.135 17.073,72.917 20.344,73.438C23.615,73.958 26.698,74.219 29.594,74.219C37.083,74.219 43.005,72.516 47.359,69.109C51.724,65.714 53.906,61.12 53.906,55.328C53.906,51.286 52.75,47.875 50.438,45.094C48.125,42.313 44.839,40.385 40.578,39.313Z" style="fill:white;fill-rule:nonzero;"/>
                                </g>
                            </g>
                        </g>
                    </g>
                </g>
                <g transform="matrix(-9.57142e-17,-0.25,-0.25,9.57142e-17,709.809,408.2)">
                    <g id="text_7">
                        <g>
                            <g id="DejaVuSans-Oblique-963" transform="matrix(1,0,0,1,0,0.015625)">
                                <path d="M34.672,47.563C29.724,47.563 25.573,45.771 22.219,42.188C18.667,38.448 16.307,33.484 15.141,27.297C13.839,20.755 14.229,15.594 16.313,11.813C18.365,8.073 21.813,6.203 26.656,6.203C31.448,6.203 35.599,8.089 39.109,11.859C42.661,15.641 45.073,20.786 46.344,27.297C47.479,33.255 47.036,38.219 45.016,42.188C43.13,45.771 39.682,47.563 34.672,47.563ZM36.078,54.734L65.922,54.688L64.156,45.703L54.109,45.703C56.641,40.63 57.224,34.495 55.859,27.297C54.099,18.349 50.5,11.333 45.063,6.25C39.594,1.135 32.953,-1.422 25.141,-1.422C17.297,-1.422 11.651,1.135 8.203,6.25C4.755,11.333 3.911,18.349 5.672,27.297C7.391,36.276 10.969,43.307 16.406,48.391C20.927,52.62 27.484,54.734 36.078,54.734Z" style="fill:white;fill-rule:nonzero;"/>
                            </g>
                            <g id="DejaVuSans-493" serif:id="DejaVuSans-49" transform="matrix(0.7,0,0,0.7,63.3789,-16.3906)">
                                <path d="M12.406,8.297L28.516,8.297L28.516,63.922L10.984,60.406L10.984,69.391L28.422,72.906L38.281,72.906L38.281,8.297L54.391,8.297L54.391,0L12.406,0L12.406,8.297Z" style="fill:white;fill-rule:nonzero;"/>
                            </g>
                            <g id="DejaVuSans-91" transform="matrix(1,0,0,1,142.437,0.015625)">
                                <path d="M8.594,75.984L29.297,75.984L29.297,69L17.578,69L17.578,-6.203L29.297,-6.203L29.297,-13.188L8.594,-13.188L8.594,75.984Z" style="fill:white;fill-rule:nonzero;"/>
                            </g>
                            <g id="DejaVuSans-107" transform="matrix(1,0,0,1,181.45,0.015625)">
                                <path d="M9.078,75.984L18.109,75.984L18.109,31.109L44.922,54.688L56.391,54.688L27.391,29.109L57.625,0L45.906,0L18.109,26.703L18.109,0L9.078,0L9.078,75.984Z" style="fill:white;fill-rule:nonzero;"/>
                            </g>
                            <g id="DejaVuSans-80" transform="matrix(1,0,0,1,239.36,0.015625)">
                                <path d="M19.672,64.797L19.672,37.406L32.078,37.406C36.672,37.406 40.219,38.594 42.719,40.969C45.229,43.344 46.484,46.729 46.484,51.125C46.484,55.49 45.229,58.859 42.719,61.234C40.219,63.609 36.672,64.797 32.078,64.797L19.672,64.797ZM9.813,72.906L32.078,72.906C40.255,72.906 46.432,71.057 50.609,67.359C54.797,63.661 56.891,58.25 56.891,51.125C56.891,43.927 54.797,38.49 50.609,34.813C46.432,31.135 40.255,29.297 32.078,29.297L19.672,29.297L19.672,0L9.813,0L9.813,72.906Z" style="fill:white;fill-rule:nonzero;"/>
                            </g>
                            <g id="DejaVuSans-97" transform="matrix(1,0,0,1,299.663,0.015625)">
                                <path d="M34.281,27.484C27.021,27.484 21.99,26.656 19.188,25C16.385,23.344 14.984,20.51 14.984,16.5C14.984,13.313 16.036,10.781 18.141,8.906C20.245,7.042 23.099,6.109 26.703,6.109C31.693,6.109 35.693,7.875 38.703,11.406C41.714,14.938 43.219,19.63 43.219,25.484L43.219,27.484L34.281,27.484ZM52.203,31.203L52.203,0L43.219,0L43.219,8.297C41.167,4.984 38.609,2.536 35.547,0.953C32.484,-0.63 28.74,-1.422 24.313,-1.422C18.719,-1.422 14.266,0.151 10.953,3.297C7.651,6.443 6,10.651 6,15.922C6,22.068 8.057,26.703 12.172,29.828C16.297,32.953 22.443,34.516 30.609,34.516L43.219,34.516L43.219,35.406C43.219,39.542 41.859,42.74 39.141,45C36.422,47.26 32.604,48.391 27.688,48.391C24.563,48.391 21.516,48.016 18.547,47.266C15.589,46.516 12.745,45.391 10.016,43.891L10.016,52.203C13.297,53.474 16.484,54.422 19.578,55.047C22.672,55.682 25.682,56 28.609,56C36.526,56 42.438,53.948 46.344,49.844C50.25,45.75 52.203,39.536 52.203,31.203Z" style="fill:white;fill-rule:nonzero;"/>
                            </g>
                            <g id="DejaVuSans-93" transform="matrix(1,0,0,1,360.942,0.015625)">
                                <path d="M30.422,75.984L30.422,-13.188L9.719,-13.188L9.719,-6.203L21.391,-6.203L21.391,69L9.719,69L9.719,75.984L30.422,75.984Z" style="fill:white;fill-rule:nonzero;"/>
                            </g>
                        </g>
                    </g>
                </g>
            </g>
            <g id="patch_4">
                <path d="M631.26,525.6L631.26,190.8L648,190.8L648,525.6L631.26,525.6Z" style="fill:none;fill-rule:nonzero;"/>
            </g>
        </g>
    </g>
</svg>
