<?xml version="1.0" encoding="UTF-8" standalone="no"?>
<!DOCTYPE svg PUBLIC "-//W3C//DTD SVG 1.1//EN" "http://www.w3.org/Graphics/SVG/1.1/DTD/svg11.dtd">
<svg width="100%" height="100%" viewBox="0 0 400 247" version="1.1" xmlns="http://www.w3.org/2000/svg" xmlns:xlink="http://www.w3.org/1999/xlink" xml:space="preserve" xmlns:serif="http://www.serif.com/" style="fill-rule:evenodd;clip-rule:evenodd;stroke-miterlimit:10;">
    <g id="CANN" transform="matrix(1,0,0,1,50.2837,-2.9966)">
        <g transform="matrix(1,0,0,1,29.262,126.255)">
            <path d="M12.756,-8.504L-12.756,-8.504C-17.453,-8.504 -21.26,-4.697 -21.26,0C-21.26,4.697 -17.453,8.504 -12.756,8.504L12.756,8.504C17.453,8.504 21.26,4.697 21.26,0C21.26,-4.697 17.453,-8.504 12.756,-8.504Z" style="fill:none;fill-rule:nonzero;stroke:black;stroke-width:0.4px;"/>
        </g>
        <g transform="matrix(1,0,0,1,29.262,29.8758)">
            <path d="M72.683,39.485L47.171,39.485C42.474,39.485 38.667,43.292 38.667,47.989L38.667,48.39C38.667,53.087 42.474,56.894 47.171,56.894L72.683,56.894C77.38,56.894 81.187,53.087 81.187,48.39L81.187,47.989C81.187,43.292 77.38,39.485 72.683,39.485Z" style="fill:none;fill-rule:nonzero;stroke:black;stroke-width:0.4px;"/>
        </g>
        <g transform="matrix(1,0,0,1,29.262,222.634)">
            <path d="M72.683,-56.894L47.171,-56.894C42.474,-56.894 38.667,-53.087 38.667,-48.39L38.667,-47.989C38.667,-43.292 42.474,-39.485 47.171,-39.485L72.683,-39.485C77.38,-39.485 81.187,-43.292 81.187,-47.989L81.187,-48.39C81.187,-53.087 77.38,-56.894 72.683,-56.894Z" style="fill:none;fill-rule:nonzero;stroke:black;stroke-width:0.4px;"/>
        </g>
        <g transform="matrix(1,0,0,1,29.262,-15.4791)">
            <path d="M132.61,60.732L107.098,60.732C102.401,60.732 98.593,64.539 98.593,69.236L98.593,72.498C98.593,77.195 102.401,81.002 107.098,81.002L132.61,81.002C137.306,81.002 141.114,77.195 141.114,72.498L141.114,69.236C141.114,64.539 137.306,60.732 132.61,60.732Z" style="fill:none;fill-rule:nonzero;stroke:black;stroke-width:0.4px;"/>
        </g>
        <g transform="matrix(1,0,0,1,29.262,75.2307)">
            <path d="M132.61,15.377L107.098,15.377C102.401,15.377 98.593,19.184 98.593,23.881L98.593,27.143C98.593,31.84 102.401,35.647 107.098,35.647L132.61,35.647C137.306,35.647 141.114,31.84 141.114,27.143L141.114,23.881C141.114,19.184 137.306,15.377 132.61,15.377Z" style="fill:none;fill-rule:nonzero;stroke:black;stroke-width:0.4px;"/>
        </g>
        <g transform="matrix(1,0,0,1,29.262,177.279)">
            <path d="M132.61,-35.647L107.098,-35.647C102.401,-35.647 98.593,-31.84 98.593,-27.143L98.593,-23.881C98.593,-19.184 102.401,-15.377 107.098,-15.377L132.61,-15.377C137.306,-15.377 141.114,-19.184 141.114,-23.881L141.114,-27.143C141.114,-31.84 137.306,-35.647 132.61,-35.647Z" style="fill:none;fill-rule:nonzero;stroke:black;stroke-width:0.4px;"/>
        </g>
        <g transform="matrix(1,0,0,1,29.262,267.989)">
            <path d="M132.61,-81.002L107.098,-81.002C102.401,-81.002 98.593,-77.195 98.593,-72.498L98.593,-69.236C98.593,-64.539 102.401,-60.732 107.098,-60.732L132.61,-60.732C137.306,-60.732 141.114,-64.539 141.114,-69.236L141.114,-72.498C141.114,-77.195 137.306,-81.002 132.61,-81.002Z" style="fill:none;fill-rule:nonzero;stroke:black;stroke-width:0.4px;"/>
        </g>
        <g transform="matrix(1,0,0,1,29.262,-38.1565)">
            <path d="M192.536,72.9L167.024,72.9C162.328,72.9 158.52,76.708 158.52,81.404L158.52,83.007C158.52,87.704 162.328,91.511 167.024,91.511L192.536,91.511C197.233,91.511 201.04,87.704 201.04,83.007L201.04,81.404C201.04,76.708 197.233,72.9 192.536,72.9Z" style="fill:none;fill-rule:nonzero;stroke:black;stroke-width:0.4px;"/>
        </g>
        <g transform="matrix(1,0,0,1,29.262,7.19839)">
            <path d="M192.536,50.223L167.024,50.223C162.328,50.223 158.52,54.03 158.52,58.727L158.52,60.33C158.52,65.026 162.328,68.834 167.024,68.834L192.536,68.834C197.233,68.834 201.04,65.026 201.04,60.33L201.04,58.727C201.04,54.03 197.233,50.223 192.536,50.223Z" style="fill:none;fill-rule:nonzero;stroke:black;stroke-width:0.4px;"/>
        </g>
        <g transform="matrix(1,0,0,1,29.262,52.5533)">
            <path d="M192.536,27.545L167.024,27.545C162.328,27.545 158.52,31.353 158.52,36.049L158.52,37.652C158.52,42.349 162.328,46.156 167.024,46.156L192.536,46.156C197.233,46.156 201.04,42.349 201.04,37.652L201.04,36.049C201.04,31.353 197.233,27.545 192.536,27.545Z" style="fill:none;fill-rule:nonzero;stroke:black;stroke-width:0.4px;"/>
        </g>
        <g transform="matrix(1,0,0,1,29.262,97.9082)">
            <path d="M192.536,4.868L167.024,4.868C162.328,4.868 158.52,8.675 158.52,13.372L158.52,14.975C158.52,19.671 162.328,23.479 167.024,23.479L192.536,23.479C197.233,23.479 201.04,19.671 201.04,14.975L201.04,13.372C201.04,8.675 197.233,4.868 192.536,4.868Z" style="fill:none;fill-rule:nonzero;stroke:black;stroke-width:0.4px;"/>
        </g>
        <g transform="matrix(1,0,0,1,29.262,154.602)">
            <path d="M192.536,-23.479L167.024,-23.479C162.328,-23.479 158.52,-19.671 158.52,-14.975L158.52,-13.372C158.52,-8.675 162.328,-4.868 167.024,-4.868L192.536,-4.868C197.233,-4.868 201.04,-8.675 201.04,-13.372L201.04,-14.975C201.04,-19.671 197.233,-23.479 192.536,-23.479Z" style="fill:none;fill-rule:nonzero;stroke:black;stroke-width:0.4px;"/>
        </g>
        <g transform="matrix(1,0,0,1,29.262,199.957)">
            <path d="M192.536,-46.156L167.024,-46.156C162.328,-46.156 158.52,-42.349 158.52,-37.652L158.52,-36.049C158.52,-31.353 162.328,-27.545 167.024,-27.545L192.536,-27.545C197.233,-27.545 201.04,-31.353 201.04,-36.049L201.04,-37.652C201.04,-42.349 197.233,-46.156 192.536,-46.156Z" style="fill:none;fill-rule:nonzero;stroke:black;stroke-width:0.4px;"/>
        </g>
        <g transform="matrix(1,0,0,1,29.262,245.312)">
            <path d="M192.536,-68.834L167.024,-68.834C162.328,-68.834 158.52,-65.026 158.52,-60.33L158.52,-58.727C158.52,-54.03 162.328,-50.223 167.024,-50.223L192.536,-50.223C197.233,-50.223 201.04,-54.03 201.04,-58.727L201.04,-60.33C201.04,-65.026 197.233,-68.834 192.536,-68.834Z" style="fill:none;fill-rule:nonzero;stroke:black;stroke-width:0.4px;"/>
        </g>
        <g transform="matrix(1,0,0,1,29.262,290.666)">
            <path d="M192.536,-91.511L167.024,-91.511C162.328,-91.511 158.52,-87.704 158.52,-83.007L158.52,-81.404C158.52,-76.708 162.328,-72.9 167.024,-72.9L192.536,-72.9C197.233,-72.9 201.04,-76.708 201.04,-81.404L201.04,-83.007C201.04,-87.704 197.233,-91.511 192.536,-91.511Z" style="fill:none;fill-rule:nonzero;stroke:black;stroke-width:0.4px;"/>
        </g>
        <g transform="matrix(1,0,0,1,29.262,120.586)">
            <path d="M252.463,-6.536L226.951,-6.536C222.254,-6.536 218.447,-2.729 218.447,1.968L218.447,3.702C218.447,8.399 222.254,12.206 226.951,12.206L252.463,12.206C257.16,12.206 260.967,8.399 260.967,3.702L260.967,1.968C260.967,-2.729 257.16,-6.536 252.463,-6.536Z" style="fill:none;fill-rule:nonzero;stroke:black;stroke-width:0.4px;"/>
        </g>
        <g transform="matrix(1,0,0,1,29.262,192.752)">
            <path d="M252.463,-42.554L226.951,-42.554C222.254,-42.554 218.447,-38.747 218.447,-34.05L218.447,-32.447C218.447,-27.75 222.254,-23.943 226.951,-23.943L252.463,-23.943C257.16,-23.943 260.967,-27.75 260.967,-32.447L260.967,-34.05C260.967,-38.747 257.16,-42.554 252.463,-42.554Z" style="fill:none;fill-rule:nonzero;stroke:black;stroke-width:0.4px;"/>
        </g>
        <g transform="matrix(0.332821,-0.94299,-0.94299,-0.332821,69.9814,139)">
            <path d="M5.608,22.404L53.125,22.404" style="fill:none;fill-rule:nonzero;stroke:black;stroke-width:0.4px;"/>
        </g>
        <g transform="matrix(0.3328,-0.94295,0.94295,0.3328,66.5358,81.4473)">
            <path d="M3.587,0C2.524,-0.199 0.797,-0.797 -0.399,-1.494L-0.399,1.494C0.797,0.797 2.524,0.199 3.587,0" style="fill-rule:nonzero;"/>
        </g>
        <g transform="matrix(0.332821,0.94299,0.94299,-0.332821,69.9814,113.51)">
            <path d="M5.608,-22.404L53.125,-22.404" style="fill:none;fill-rule:nonzero;stroke:black;stroke-width:0.4px;"/>
        </g>
        <g transform="matrix(0.3328,0.94295,-0.94295,0.3328,66.5358,171.063)">
            <path d="M3.587,0C2.524,-0.199 0.797,-0.797 -0.399,-1.494L-0.399,1.494C0.797,0.797 2.524,0.199 3.587,0" style="fill-rule:nonzero;"/>
        </g>
        <g transform="matrix(0.599999,-0.800001,-0.800001,-0.599999,111.263,174.069)">
            <path d="M76.434,58.094L101.194,58.094" style="fill:none;fill-rule:nonzero;stroke:black;stroke-width:0.4px;"/>
        </g>
        <g transform="matrix(0.59999,-0.79997,0.79997,0.59999,125.504,58.2571)">
            <path d="M3.587,0C2.524,-0.199 0.797,-0.797 -0.399,-1.494L-0.399,1.494C0.797,0.797 2.524,0.199 3.587,0" style="fill-rule:nonzero;"/>
        </g>
        <g transform="matrix(0.599999,0.800001,0.800001,-0.599999,34.1594,39.8893)">
            <path d="M76.434,38.285L101.194,38.285" style="fill:none;fill-rule:nonzero;stroke:black;stroke-width:0.4px;"/>
        </g>
        <g transform="matrix(0.59999,0.79997,-0.79997,0.59999,125.504,97.8737)">
            <path d="M3.587,0C2.524,-0.199 0.797,-0.797 -0.399,-1.494L-0.399,1.494C0.797,0.797 2.524,0.199 3.587,0" style="fill-rule:nonzero;"/>
        </g>
        <g transform="matrix(0.599999,-0.800001,-0.800001,-0.599999,34.1594,212.621)">
            <path d="M76.434,-38.285L101.194,-38.285" style="fill:none;fill-rule:nonzero;stroke:black;stroke-width:0.4px;"/>
        </g>
        <g transform="matrix(0.59999,-0.79997,0.79997,0.59999,125.504,154.636)">
            <path d="M3.587,0C2.524,-0.199 0.797,-0.797 -0.399,-1.494L-0.399,1.494C0.797,0.797 2.524,0.199 3.587,0" style="fill-rule:nonzero;"/>
        </g>
        <g transform="matrix(0.599999,0.800001,0.800001,-0.599999,111.263,78.4411)">
            <path d="M76.434,-58.094L101.194,-58.094" style="fill:none;fill-rule:nonzero;stroke:black;stroke-width:0.4px;"/>
        </g>
        <g transform="matrix(0.59999,0.79997,-0.79997,0.59999,125.504,194.253)">
            <path d="M3.587,0C2.524,-0.199 0.797,-0.797 -0.399,-1.494L-0.399,1.494C0.797,0.797 2.524,0.199 3.587,0" style="fill-rule:nonzero;"/>
        </g>
        <g transform="matrix(0.832048,-0.554703,-0.554703,-0.832048,96.0767,195.844)">
            <path d="M139.898,75.542L156.752,75.542" style="fill:none;fill-rule:nonzero;stroke:black;stroke-width:0.4px;"/>
        </g>
        <g transform="matrix(0.83202,-0.55466,0.55466,0.83202,184.599,46.0385)">
            <path d="M3.587,0C2.524,-0.199 0.797,-0.797 -0.399,-1.494L-0.399,1.494C0.797,0.797 2.524,0.199 3.587,0" style="fill-rule:nonzero;"/>
        </g>
        <g transform="matrix(0.832049,0.554703,0.554703,-0.832049,17.4563,32.8617)">
            <path d="M139.898,66.192L156.752,66.192" style="fill:none;fill-rule:nonzero;stroke:black;stroke-width:0.4px;"/>
        </g>
        <g transform="matrix(0.83202,0.55466,-0.55466,0.83202,184.599,64.7374)">
            <path d="M3.587,0C2.524,-0.199 0.797,-0.797 -0.399,-1.494L-0.399,1.494C0.797,0.797 2.524,0.199 3.587,0" style="fill-rule:nonzero;"/>
        </g>
        <g transform="matrix(0.832049,-0.554703,-0.554703,-0.832049,70.9181,203.461)">
            <path d="M139.898,30.187L156.752,30.187" style="fill:none;fill-rule:nonzero;stroke:black;stroke-width:0.4px;"/>
        </g>
        <g transform="matrix(0.83202,-0.55466,0.55466,0.83202,184.599,91.3935)">
            <path d="M3.587,0C2.524,-0.199 0.797,-0.797 -0.399,-1.494L-0.399,1.494C0.797,0.797 2.524,0.199 3.587,0" style="fill-rule:nonzero;"/>
        </g>
        <g transform="matrix(0.832049,0.554703,0.554703,-0.832049,42.6148,40.4791)">
            <path d="M139.898,20.837L156.752,20.837" style="fill:none;fill-rule:nonzero;stroke:black;stroke-width:0.4px;"/>
        </g>
        <g transform="matrix(0.83202,0.55466,-0.55466,0.83202,184.599,110.092)">
            <path d="M3.587,0C2.524,-0.199 0.797,-0.797 -0.399,-1.494L-0.399,1.494C0.797,0.797 2.524,0.199 3.587,0" style="fill-rule:nonzero;"/>
        </g>
        <g transform="matrix(0.832049,-0.554703,-0.554703,-0.832049,42.6148,212.031)">
            <path d="M139.898,-20.837L156.752,-20.837" style="fill:none;fill-rule:nonzero;stroke:black;stroke-width:0.4px;"/>
        </g>
        <g transform="matrix(0.83202,-0.55466,0.55466,0.83202,184.599,142.418)">
            <path d="M3.587,0C2.524,-0.199 0.797,-0.797 -0.399,-1.494L-0.399,1.494C0.797,0.797 2.524,0.199 3.587,0" style="fill-rule:nonzero;"/>
        </g>
        <g transform="matrix(0.832049,0.554703,0.554703,-0.832049,70.9181,49.0487)">
            <path d="M139.898,-30.187L156.752,-30.187" style="fill:none;fill-rule:nonzero;stroke:black;stroke-width:0.4px;"/>
        </g>
        <g transform="matrix(0.83202,0.55466,-0.55466,0.83202,184.599,161.117)">
            <path d="M3.587,0C2.524,-0.199 0.797,-0.797 -0.399,-1.494L-0.399,1.494C0.797,0.797 2.524,0.199 3.587,0" style="fill-rule:nonzero;"/>
        </g>
        <g transform="matrix(0.832049,-0.554703,-0.554703,-0.832049,17.4563,219.648)">
            <path d="M139.898,-66.192L156.752,-66.192" style="fill:none;fill-rule:nonzero;stroke:black;stroke-width:0.4px;"/>
        </g>
        <g transform="matrix(0.83202,-0.55466,0.55466,0.83202,184.599,187.773)">
            <path d="M3.587,0C2.524,-0.199 0.797,-0.797 -0.399,-1.494L-0.399,1.494C0.797,0.797 2.524,0.199 3.587,0" style="fill-rule:nonzero;"/>
        </g>
        <g transform="matrix(0.832048,0.554703,0.554703,-0.832048,96.0767,56.666)">
            <path d="M139.898,-75.542L156.752,-75.542" style="fill:none;fill-rule:nonzero;stroke:black;stroke-width:0.4px;"/>
        </g>
        <g transform="matrix(0.83202,0.55466,-0.55466,0.83202,184.599,206.471)">
            <path d="M3.587,0C2.524,-0.199 0.797,-0.797 -0.399,-1.494L-0.399,1.494C0.797,0.797 2.524,0.199 3.587,0" style="fill-rule:nonzero;"/>
        </g>
        <g transform="matrix(0.209529,0.977802,0.977802,-0.209529,151.47,-113.463)">
            <path d="M170.575,44.274L248.161,44.274" style="fill:none;fill-rule:nonzero;stroke:black;stroke-width:0.4px;"/>
        </g>
        <g transform="matrix(0.20952,0.97778,-0.97778,0.20952,246.758,119.913)">
            <path d="M3.587,0C2.524,-0.199 0.797,-0.797 -0.399,-1.494L-0.399,1.494C0.797,0.797 2.524,0.199 3.587,0" style="fill-rule:nonzero;"/>
        </g>
        <g transform="matrix(0.287347,0.957826,0.957826,-0.287347,146.858,-97.5952)">
            <path d="M181.427,32.899L237.03,32.899" style="fill:none;fill-rule:nonzero;stroke:black;stroke-width:0.4px;"/>
        </g>
        <g transform="matrix(0.28734,0.95778,-0.95778,0.28734,246.479,119.985)">
            <path d="M3.587,0C2.524,-0.199 0.797,-0.797 -0.399,-1.494L-0.399,1.494C0.797,0.797 2.524,0.199 3.587,0" style="fill-rule:nonzero;"/>
        </g>
        <g transform="matrix(0.447215,0.894427,0.894427,-0.447215,125.58,-72.4836)">
            <path d="M191.719,21.447L226.164,21.447" style="fill:none;fill-rule:nonzero;stroke:black;stroke-width:0.4px;"/>
        </g>
        <g transform="matrix(0.44717,0.89436,-0.89436,0.44717,245.906,120.213)">
            <path d="M3.587,0C2.524,-0.199 0.797,-0.797 -0.399,-1.494L-0.399,1.494C0.797,0.797 2.524,0.199 3.587,0" style="fill-rule:nonzero;"/>
        </g>
        <g transform="matrix(0.832048,0.554703,0.554703,-0.832048,58.9693,9.14177)">
            <path d="M199.824,9.499L216.679,9.499" style="fill:none;fill-rule:nonzero;stroke:black;stroke-width:0.4px;"/>
        </g>
        <g transform="matrix(0.83202,0.55466,-0.55466,0.83202,244.526,121.431)">
            <path d="M3.587,0C2.524,-0.199 0.797,-0.797 -0.399,-1.494L-0.399,1.494C0.797,0.797 2.524,0.199 3.587,0" style="fill-rule:nonzero;"/>
        </g>
        <g transform="matrix(0.707107,-0.707107,-0.707107,-0.707107,85.4176,275.701)">
            <path d="M198.242,-6.937L218.709,-6.937" style="fill:none;fill-rule:nonzero;stroke:black;stroke-width:0.4px;"/>
        </g>
        <g transform="matrix(0.70709,-0.7071,0.7071,0.70709,244.974,125.956)">
            <path d="M3.587,0C2.524,-0.199 0.797,-0.797 -0.399,-1.494L-0.399,1.494C0.797,0.797 2.524,0.199 3.587,0" style="fill-rule:nonzero;"/>
        </g>
        <g transform="matrix(0.39392,-0.919145,-0.919145,-0.39392,138.808,329.698)">
            <path d="M189.242,-18.656L228.833,-18.656" style="fill:none;fill-rule:nonzero;stroke:black;stroke-width:0.4px;"/>
        </g>
        <g transform="matrix(0.39389,-0.91911,0.91911,0.39389,246.097,126.717)">
            <path d="M3.587,0C2.524,-0.199 0.797,-0.797 -0.399,-1.494L-0.399,1.494C0.797,0.797 2.524,0.199 3.587,0" style="fill-rule:nonzero;"/>
        </g>
        <g transform="matrix(0.263118,-0.964764,-0.964764,-0.263118,154.454,350.316)">
            <path d="M178.745,-30.077L239.799,-30.077" style="fill:none;fill-rule:nonzero;stroke:black;stroke-width:0.4px;"/>
        </g>
        <g transform="matrix(0.26309,-0.96472,0.96472,0.26309,246.566,126.88)">
            <path d="M3.587,0C2.524,-0.199 0.797,-0.797 -0.399,-1.494L-0.399,1.494C0.797,0.797 2.524,0.199 3.587,0" style="fill-rule:nonzero;"/>
        </g>
        <g transform="matrix(0.196116,-0.980581,-0.980581,-0.196116,156.95,364.897)">
            <path d="M167.823,-41.444L250.961,-41.444" style="fill:none;fill-rule:nonzero;stroke:black;stroke-width:0.4px;"/>
        </g>
        <g transform="matrix(0.1961,-0.98053,0.98053,0.1961,246.806,126.937)">
            <path d="M3.587,0C2.524,-0.199 0.797,-0.797 -0.399,-1.494L-0.399,1.494C0.797,0.797 2.524,0.199 3.587,0" style="fill-rule:nonzero;"/>
        </g>
        <g transform="matrix(0,1,1,0,282.416,-100.006)">
            <path d="M232.996,-13.446L246.418,-13.446" style="fill:none;fill-rule:nonzero;stroke:black;stroke-width:0.4px;"/>
        </g>
        <g transform="matrix(0,1,-1,0,268.969,146.412)">
            <path d="M3.587,0C2.524,-0.199 0.797,-0.797 -0.399,-1.494L-0.399,1.494C0.797,0.797 2.524,0.199 3.587,0" style="fill-rule:nonzero;"/>
        </g>
        <g transform="matrix(11.9552,0,0,11.9552,25.51,130.356)">
            <path d="M0.09,-0L0.09,-0.723L0.545,-0.723L0.545,-0.624L0.241,-0.624L0.241,-0.404L0.491,-0.404L0.491,-0.304L0.241,-0.304L0.241,-0L0.09,-0Z" style="fill-rule:nonzero;"/>
        </g>
        <g>
            <g transform="matrix(24.7871,0,0,24.7871,86.077,195.93)">
                <rect x="0.098" y="-0.121" width="0.121" height="0.121" style="fill-rule:nonzero;"/>
            </g>
            <g transform="matrix(24.7871,0,0,24.7871,86.077,199.915)">
                <rect x="0.098" y="-0.121" width="0.121" height="0.121" style="fill-rule:nonzero;"/>
            </g>
            <g transform="matrix(24.7871,0,0,24.7871,86.077,203.9)">
                <rect x="0.098" y="-0.121" width="0.121" height="0.121" style="fill-rule:nonzero;"/>
            </g>
        </g>
        <g>
            <g transform="matrix(11.9552,0,0,11.9552,139.37,59.273)">
                <path d="M0.289,0.078L0.289,0.145C0.219,0.097 0.163,0.032 0.122,-0.051C0.081,-0.133 0.06,-0.22 0.06,-0.313C0.06,-0.406 0.081,-0.494 0.122,-0.576C0.163,-0.658 0.219,-0.723 0.289,-0.771L0.289,-0.705C0.241,-0.653 0.207,-0.597 0.187,-0.537C0.166,-0.477 0.156,-0.402 0.156,-0.313C0.156,-0.224 0.166,-0.15 0.187,-0.09C0.207,-0.03 0.241,0.026 0.289,0.078Z" style="fill-rule:nonzero;"/>
            </g>
            <g transform="matrix(11.9552,0,0,11.9552,143.355,59.273)">
                <path d="M0.281,-0.09C0.222,-0.09 0.172,-0.112 0.13,-0.154C0.087,-0.197 0.066,-0.248 0.066,-0.307C0.066,-0.367 0.088,-0.418 0.13,-0.46C0.172,-0.503 0.223,-0.524 0.283,-0.524C0.343,-0.524 0.394,-0.503 0.437,-0.46C0.479,-0.418 0.5,-0.367 0.5,-0.308C0.5,-0.247 0.479,-0.195 0.436,-0.153C0.394,-0.111 0.342,-0.09 0.281,-0.09ZM0.281,-0.126C0.332,-0.126 0.375,-0.144 0.411,-0.179C0.446,-0.214 0.464,-0.257 0.464,-0.308C0.464,-0.357 0.446,-0.399 0.411,-0.435C0.376,-0.47 0.333,-0.488 0.283,-0.488C0.233,-0.488 0.191,-0.47 0.156,-0.435C0.12,-0.399 0.103,-0.357 0.103,-0.307C0.103,-0.258 0.12,-0.216 0.155,-0.18C0.19,-0.144 0.232,-0.126 0.281,-0.126Z" style="fill-rule:nonzero;"/>
            </g>
            <g transform="matrix(11.9552,0,0,11.9552,150.365,59.273)">
                <path d="M0.036,0.078L0.036,0.145C0.106,0.097 0.162,0.032 0.203,-0.051C0.245,-0.133 0.265,-0.22 0.265,-0.313C0.265,-0.406 0.245,-0.494 0.203,-0.576C0.162,-0.658 0.106,-0.723 0.036,-0.771L0.036,-0.705C0.084,-0.653 0.118,-0.597 0.138,-0.537C0.159,-0.477 0.169,-0.402 0.169,-0.313C0.169,-0.224 0.159,-0.15 0.138,-0.09C0.118,-0.03 0.084,0.026 0.036,0.078Z" style="fill-rule:nonzero;"/>
            </g>
            <g transform="matrix(8.9664,0,0,8.9664,154.35,54.934)">
                <path d="M0.277,-0.076L0.277,-0.661C0.25,-0.639 0.223,-0.62 0.198,-0.605C0.172,-0.59 0.137,-0.574 0.092,-0.558L0.092,-0.64C0.163,-0.67 0.225,-0.71 0.277,-0.758L0.368,-0.758L0.368,-0.076L0.55,-0.076L0.55,-0L0.092,-0L0.092,-0.076L0.277,-0.076Z" style="fill-rule:nonzero;"/>
            </g>
            <g transform="matrix(11.9552,0,0,11.9552,139.37,104.628)">
                <path d="M0.289,0.078L0.289,0.145C0.219,0.097 0.163,0.032 0.122,-0.051C0.081,-0.133 0.06,-0.22 0.06,-0.313C0.06,-0.406 0.081,-0.494 0.122,-0.576C0.163,-0.658 0.219,-0.723 0.289,-0.771L0.289,-0.705C0.241,-0.653 0.207,-0.597 0.187,-0.537C0.166,-0.477 0.156,-0.402 0.156,-0.313C0.156,-0.224 0.166,-0.15 0.187,-0.09C0.207,-0.03 0.241,0.026 0.289,0.078Z" style="fill-rule:nonzero;"/>
            </g>
            <g transform="matrix(11.9552,0,0,11.9552,143.355,104.628)">
                <path d="M0.281,-0.09C0.222,-0.09 0.172,-0.112 0.13,-0.154C0.087,-0.197 0.066,-0.248 0.066,-0.307C0.066,-0.367 0.088,-0.418 0.13,-0.46C0.172,-0.503 0.223,-0.524 0.283,-0.524C0.343,-0.524 0.394,-0.503 0.437,-0.46C0.479,-0.418 0.5,-0.367 0.5,-0.308C0.5,-0.247 0.479,-0.195 0.436,-0.153C0.394,-0.111 0.342,-0.09 0.281,-0.09ZM0.281,-0.126C0.332,-0.126 0.375,-0.144 0.411,-0.179C0.446,-0.214 0.464,-0.257 0.464,-0.308C0.464,-0.357 0.446,-0.399 0.411,-0.435C0.376,-0.47 0.333,-0.488 0.283,-0.488C0.233,-0.488 0.191,-0.47 0.156,-0.435C0.12,-0.399 0.103,-0.357 0.103,-0.307C0.103,-0.258 0.12,-0.216 0.155,-0.18C0.19,-0.144 0.232,-0.126 0.281,-0.126Z" style="fill-rule:nonzero;"/>
            </g>
            <g transform="matrix(11.9552,0,0,11.9552,150.365,104.628)">
                <path d="M0.036,0.078L0.036,0.145C0.106,0.097 0.162,0.032 0.203,-0.051C0.245,-0.133 0.265,-0.22 0.265,-0.313C0.265,-0.406 0.245,-0.494 0.203,-0.576C0.162,-0.658 0.106,-0.723 0.036,-0.771L0.036,-0.705C0.084,-0.653 0.118,-0.597 0.138,-0.537C0.159,-0.477 0.169,-0.402 0.169,-0.313C0.169,-0.224 0.159,-0.15 0.138,-0.09C0.118,-0.03 0.084,0.026 0.036,0.078Z" style="fill-rule:nonzero;"/>
            </g>
            <g transform="matrix(8.9664,0,0,8.9664,154.35,100.288)">
                <path d="M0.531,-0L0.073,-0L0.073,-0.083C0.073,-0.105 0.077,-0.128 0.086,-0.153C0.095,-0.177 0.111,-0.205 0.136,-0.235C0.161,-0.266 0.187,-0.295 0.215,-0.324L0.267,-0.376C0.277,-0.387 0.3,-0.412 0.335,-0.451C0.37,-0.49 0.393,-0.52 0.405,-0.541C0.416,-0.562 0.421,-0.582 0.421,-0.603C0.421,-0.635 0.408,-0.66 0.382,-0.678C0.356,-0.696 0.327,-0.705 0.294,-0.705C0.276,-0.705 0.255,-0.702 0.232,-0.698C0.209,-0.694 0.189,-0.689 0.172,-0.683C0.155,-0.678 0.127,-0.666 0.088,-0.648L0.088,-0.729C0.129,-0.749 0.17,-0.762 0.211,-0.769C0.252,-0.777 0.286,-0.78 0.313,-0.78C0.352,-0.78 0.389,-0.774 0.422,-0.761C0.455,-0.748 0.479,-0.728 0.495,-0.701C0.511,-0.674 0.52,-0.645 0.52,-0.615C0.52,-0.581 0.509,-0.546 0.489,-0.51C0.468,-0.474 0.429,-0.428 0.372,-0.372L0.316,-0.316L0.269,-0.271C0.239,-0.241 0.215,-0.212 0.197,-0.184C0.179,-0.156 0.169,-0.122 0.167,-0.083L0.531,-0.083L0.531,-0Z" style="fill-rule:nonzero;"/>
            </g>
            <g transform="matrix(11.9552,0,0,11.9552,139.37,155.653)">
                <path d="M0.289,0.078L0.289,0.145C0.219,0.097 0.163,0.032 0.122,-0.051C0.081,-0.133 0.06,-0.22 0.06,-0.313C0.06,-0.406 0.081,-0.494 0.122,-0.576C0.163,-0.658 0.219,-0.723 0.289,-0.771L0.289,-0.705C0.241,-0.653 0.207,-0.597 0.187,-0.537C0.166,-0.477 0.156,-0.402 0.156,-0.313C0.156,-0.224 0.166,-0.15 0.187,-0.09C0.207,-0.03 0.241,0.026 0.289,0.078Z" style="fill-rule:nonzero;"/>
            </g>
            <g transform="matrix(11.9552,0,0,11.9552,143.355,155.653)">
                <path d="M0.281,-0.09C0.222,-0.09 0.172,-0.112 0.13,-0.154C0.087,-0.197 0.066,-0.248 0.066,-0.307C0.066,-0.367 0.088,-0.418 0.13,-0.46C0.172,-0.503 0.223,-0.524 0.283,-0.524C0.343,-0.524 0.394,-0.503 0.437,-0.46C0.479,-0.418 0.5,-0.367 0.5,-0.308C0.5,-0.247 0.479,-0.195 0.436,-0.153C0.394,-0.111 0.342,-0.09 0.281,-0.09ZM0.281,-0.126C0.332,-0.126 0.375,-0.144 0.411,-0.179C0.446,-0.214 0.464,-0.257 0.464,-0.308C0.464,-0.357 0.446,-0.399 0.411,-0.435C0.376,-0.47 0.333,-0.488 0.283,-0.488C0.233,-0.488 0.191,-0.47 0.156,-0.435C0.12,-0.399 0.103,-0.357 0.103,-0.307C0.103,-0.258 0.12,-0.216 0.155,-0.18C0.19,-0.144 0.232,-0.126 0.281,-0.126Z" style="fill-rule:nonzero;"/>
            </g>
            <g transform="matrix(11.9552,0,0,11.9552,150.365,155.653)">
                <path d="M0.036,0.078L0.036,0.145C0.106,0.097 0.162,0.032 0.203,-0.051C0.245,-0.133 0.265,-0.22 0.265,-0.313C0.265,-0.406 0.245,-0.494 0.203,-0.576C0.162,-0.658 0.106,-0.723 0.036,-0.771L0.036,-0.705C0.084,-0.653 0.118,-0.597 0.138,-0.537C0.159,-0.477 0.169,-0.402 0.169,-0.313C0.169,-0.224 0.159,-0.15 0.138,-0.09C0.118,-0.03 0.084,0.026 0.036,0.078Z" style="fill-rule:nonzero;"/>
            </g>
            <g transform="matrix(8.9664,0,0,8.9664,154.35,151.314)">
                <path d="M0.277,-0.076L0.277,-0.661C0.25,-0.639 0.223,-0.62 0.198,-0.605C0.172,-0.59 0.137,-0.574 0.092,-0.558L0.092,-0.64C0.163,-0.67 0.225,-0.71 0.277,-0.758L0.368,-0.758L0.368,-0.076L0.55,-0.076L0.55,-0L0.092,-0L0.092,-0.076L0.277,-0.076Z" style="fill-rule:nonzero;"/>
            </g>
            <g transform="matrix(11.9552,0,0,11.9552,139.37,201.009)">
                <path d="M0.289,0.078L0.289,0.145C0.219,0.097 0.163,0.032 0.122,-0.051C0.081,-0.133 0.06,-0.22 0.06,-0.313C0.06,-0.406 0.081,-0.494 0.122,-0.576C0.163,-0.658 0.219,-0.723 0.289,-0.771L0.289,-0.705C0.241,-0.653 0.207,-0.597 0.187,-0.537C0.166,-0.477 0.156,-0.402 0.156,-0.313C0.156,-0.224 0.166,-0.15 0.187,-0.09C0.207,-0.03 0.241,0.026 0.289,0.078Z" style="fill-rule:nonzero;"/>
            </g>
            <g transform="matrix(11.9552,0,0,11.9552,143.355,201.009)">
                <path d="M0.281,-0.09C0.222,-0.09 0.172,-0.112 0.13,-0.154C0.087,-0.197 0.066,-0.248 0.066,-0.307C0.066,-0.367 0.088,-0.418 0.13,-0.46C0.172,-0.503 0.223,-0.524 0.283,-0.524C0.343,-0.524 0.394,-0.503 0.437,-0.46C0.479,-0.418 0.5,-0.367 0.5,-0.308C0.5,-0.247 0.479,-0.195 0.436,-0.153C0.394,-0.111 0.342,-0.09 0.281,-0.09ZM0.281,-0.126C0.332,-0.126 0.375,-0.144 0.411,-0.179C0.446,-0.214 0.464,-0.257 0.464,-0.308C0.464,-0.357 0.446,-0.399 0.411,-0.435C0.376,-0.47 0.333,-0.488 0.283,-0.488C0.233,-0.488 0.191,-0.47 0.156,-0.435C0.12,-0.399 0.103,-0.357 0.103,-0.307C0.103,-0.258 0.12,-0.216 0.155,-0.18C0.19,-0.144 0.232,-0.126 0.281,-0.126Z" style="fill-rule:nonzero;"/>
            </g>
            <g transform="matrix(11.9552,0,0,11.9552,150.365,201.009)">
                <path d="M0.036,0.078L0.036,0.145C0.106,0.097 0.162,0.032 0.203,-0.051C0.245,-0.133 0.265,-0.22 0.265,-0.313C0.265,-0.406 0.245,-0.494 0.203,-0.576C0.162,-0.658 0.106,-0.723 0.036,-0.771L0.036,-0.705C0.084,-0.653 0.118,-0.597 0.138,-0.537C0.159,-0.477 0.169,-0.402 0.169,-0.313C0.169,-0.224 0.159,-0.15 0.138,-0.09C0.118,-0.03 0.084,0.026 0.036,0.078Z" style="fill-rule:nonzero;"/>
            </g>
            <g transform="matrix(8.9664,0,0,8.9664,154.35,196.669)">
                <path d="M0.531,-0L0.073,-0L0.073,-0.083C0.073,-0.105 0.077,-0.128 0.086,-0.153C0.095,-0.177 0.111,-0.205 0.136,-0.235C0.161,-0.266 0.187,-0.295 0.215,-0.324L0.267,-0.376C0.277,-0.387 0.3,-0.412 0.335,-0.451C0.37,-0.49 0.393,-0.52 0.405,-0.541C0.416,-0.562 0.421,-0.582 0.421,-0.603C0.421,-0.635 0.408,-0.66 0.382,-0.678C0.356,-0.696 0.327,-0.705 0.294,-0.705C0.276,-0.705 0.255,-0.702 0.232,-0.698C0.209,-0.694 0.189,-0.689 0.172,-0.683C0.155,-0.678 0.127,-0.666 0.088,-0.648L0.088,-0.729C0.129,-0.749 0.17,-0.762 0.211,-0.769C0.252,-0.777 0.286,-0.78 0.313,-0.78C0.352,-0.78 0.389,-0.774 0.422,-0.761C0.455,-0.748 0.479,-0.728 0.495,-0.701C0.511,-0.674 0.52,-0.645 0.52,-0.615C0.52,-0.581 0.509,-0.546 0.489,-0.51C0.468,-0.474 0.429,-0.428 0.372,-0.372L0.316,-0.316L0.269,-0.271C0.239,-0.241 0.215,-0.212 0.197,-0.184C0.179,-0.156 0.169,-0.122 0.167,-0.083L0.531,-0.083L0.531,-0Z" style="fill-rule:nonzero;"/>
            </g>
            <g transform="matrix(24.7871,0,0,24.7871,146.003,220.041)">
                <rect x="0.098" y="-0.121" width="0.121" height="0.121" style="fill-rule:nonzero;"/>
            </g>
            <g transform="matrix(24.7871,0,0,24.7871,146.003,224.026)">
                <rect x="0.098" y="-0.121" width="0.121" height="0.121" style="fill-rule:nonzero;"/>
            </g>
            <g transform="matrix(24.7871,0,0,24.7871,146.003,228.011)">
                <rect x="0.098" y="-0.121" width="0.121" height="0.121" style="fill-rule:nonzero;"/>
            </g>
        </g>
        <g>
            <g transform="matrix(11.9552,0,0,11.9552,201.849,47.105)">
                <path d="M0.289,0.078L0.289,0.145C0.219,0.097 0.163,0.032 0.122,-0.051C0.081,-0.133 0.06,-0.22 0.06,-0.313C0.06,-0.406 0.081,-0.494 0.122,-0.576C0.163,-0.658 0.219,-0.723 0.289,-0.771L0.289,-0.705C0.241,-0.653 0.207,-0.597 0.187,-0.537C0.166,-0.477 0.156,-0.402 0.156,-0.313C0.156,-0.224 0.166,-0.15 0.187,-0.09C0.207,-0.03 0.241,0.026 0.289,0.078Z" style="fill-rule:nonzero;"/>
            </g>
            <g transform="matrix(11.9552,0,0,11.9552,205.538,47.105)">
                <path d="M0.281,-0.09C0.222,-0.09 0.172,-0.112 0.13,-0.154C0.087,-0.197 0.066,-0.248 0.066,-0.307C0.066,-0.367 0.088,-0.418 0.13,-0.46C0.172,-0.503 0.223,-0.524 0.283,-0.524C0.343,-0.524 0.394,-0.503 0.437,-0.46C0.479,-0.418 0.5,-0.367 0.5,-0.308C0.5,-0.247 0.479,-0.195 0.436,-0.153C0.394,-0.111 0.342,-0.09 0.281,-0.09ZM0.281,-0.126C0.332,-0.126 0.375,-0.144 0.411,-0.179C0.446,-0.214 0.464,-0.257 0.464,-0.308C0.464,-0.357 0.446,-0.399 0.411,-0.435C0.376,-0.47 0.333,-0.488 0.283,-0.488C0.233,-0.488 0.191,-0.47 0.156,-0.435C0.12,-0.399 0.103,-0.357 0.103,-0.307C0.103,-0.258 0.12,-0.216 0.155,-0.18C0.19,-0.144 0.232,-0.126 0.281,-0.126Z" style="fill-rule:nonzero;"/>
            </g>
            <g transform="matrix(11.9552,0,0,11.9552,212.25,47.105)">
                <path d="M0.036,0.078L0.036,0.145C0.106,0.097 0.162,0.032 0.203,-0.051C0.245,-0.133 0.265,-0.22 0.265,-0.313C0.265,-0.406 0.245,-0.494 0.203,-0.576C0.162,-0.658 0.106,-0.723 0.036,-0.771L0.036,-0.705C0.084,-0.653 0.118,-0.597 0.138,-0.537C0.159,-0.477 0.169,-0.402 0.169,-0.313C0.169,-0.224 0.159,-0.15 0.138,-0.09C0.118,-0.03 0.084,0.026 0.036,0.078Z" style="fill-rule:nonzero;"/>
            </g>
            <g transform="matrix(11.9552,0,0,11.9552,192.309,69.7802)">
                <path d="M0.485,-0.017C0.42,0.002 0.365,0.012 0.319,0.012C0.241,0.012 0.177,-0.014 0.128,-0.066C0.079,-0.118 0.054,-0.185 0.054,-0.268C0.054,-0.348 0.076,-0.414 0.119,-0.465C0.163,-0.517 0.218,-0.542 0.286,-0.542C0.35,-0.542 0.4,-0.52 0.435,-0.474C0.47,-0.429 0.487,-0.364 0.487,-0.28L0.487,-0.25L0.152,-0.25C0.166,-0.124 0.228,-0.061 0.337,-0.061C0.377,-0.061 0.427,-0.072 0.485,-0.093L0.485,-0.017ZM0.157,-0.322L0.391,-0.322C0.391,-0.421 0.354,-0.47 0.28,-0.47C0.206,-0.47 0.165,-0.421 0.157,-0.322Z" style="fill-rule:nonzero;"/>
            </g>
            <g transform="matrix(11.9552,0,0,11.9552,198.283,69.7802)">
                <path d="M0.043,-0L0.245,-0.274L0.049,-0.53L0.163,-0.53L0.318,-0.326L0.458,-0.53L0.552,-0.53L0.368,-0.261L0.568,-0L0.454,-0L0.294,-0.21L0.14,-0L0.043,-0Z" style="fill-rule:nonzero;"/>
            </g>
            <g transform="matrix(11.9552,0,0,11.9552,204.928,69.7802)">
                <path d="M0.096,0.193L0.096,-0.53L0.192,-0.53L0.192,-0.431C0.232,-0.505 0.291,-0.542 0.37,-0.542C0.433,-0.542 0.484,-0.519 0.52,-0.472C0.557,-0.426 0.575,-0.362 0.575,-0.281C0.575,-0.193 0.554,-0.122 0.513,-0.069C0.471,-0.015 0.417,0.012 0.349,0.012C0.286,0.012 0.234,-0.012 0.192,-0.06L0.192,0.193L0.096,0.193ZM0.192,-0.126C0.242,-0.082 0.289,-0.06 0.334,-0.06C0.426,-0.06 0.473,-0.131 0.473,-0.271C0.473,-0.396 0.432,-0.458 0.35,-0.458C0.296,-0.458 0.243,-0.429 0.192,-0.371L0.192,-0.126Z" style="fill-rule:nonzero;"/>
            </g>
            <g transform="matrix(11.9552,0,0,11.9552,211.766,69.7802)">
                <path d="M0.289,0.078L0.289,0.145C0.219,0.097 0.163,0.032 0.122,-0.051C0.081,-0.133 0.06,-0.22 0.06,-0.313C0.06,-0.406 0.081,-0.494 0.122,-0.576C0.163,-0.658 0.219,-0.723 0.289,-0.771L0.289,-0.705C0.241,-0.653 0.207,-0.597 0.187,-0.537C0.166,-0.477 0.156,-0.402 0.156,-0.313C0.156,-0.224 0.166,-0.15 0.187,-0.09C0.207,-0.03 0.241,0.026 0.289,0.078Z" style="fill-rule:nonzero;"/>
            </g>
            <g transform="matrix(11.9552,0,0,11.9552,214.967,69.7802)">
                <path d="M0.281,-0.09C0.222,-0.09 0.172,-0.112 0.13,-0.154C0.087,-0.197 0.066,-0.248 0.066,-0.307C0.066,-0.367 0.088,-0.418 0.13,-0.46C0.172,-0.503 0.223,-0.524 0.283,-0.524C0.343,-0.524 0.394,-0.503 0.437,-0.46C0.479,-0.418 0.5,-0.367 0.5,-0.308C0.5,-0.247 0.479,-0.195 0.436,-0.153C0.394,-0.111 0.342,-0.09 0.281,-0.09ZM0.281,-0.126C0.332,-0.126 0.375,-0.144 0.411,-0.179C0.446,-0.214 0.464,-0.257 0.464,-0.308C0.464,-0.357 0.446,-0.399 0.411,-0.435C0.376,-0.47 0.333,-0.488 0.283,-0.488C0.233,-0.488 0.191,-0.47 0.156,-0.435C0.12,-0.399 0.103,-0.357 0.103,-0.307C0.103,-0.258 0.12,-0.216 0.155,-0.18C0.19,-0.144 0.232,-0.126 0.281,-0.126Z" style="fill-rule:nonzero;"/>
            </g>
            <g transform="matrix(11.9552,0,0,11.9552,221.192,69.7802)">
                <path d="M0.036,0.078L0.036,0.145C0.106,0.097 0.162,0.032 0.203,-0.051C0.245,-0.133 0.265,-0.22 0.265,-0.313C0.265,-0.406 0.245,-0.494 0.203,-0.576C0.162,-0.658 0.106,-0.723 0.036,-0.771L0.036,-0.705C0.084,-0.653 0.118,-0.597 0.138,-0.537C0.159,-0.477 0.169,-0.402 0.169,-0.313C0.169,-0.224 0.159,-0.15 0.138,-0.09C0.118,-0.03 0.084,0.026 0.036,0.078Z" style="fill-rule:nonzero;"/>
            </g>
            <g transform="matrix(11.9552,0,0,11.9552,201.849,92.4554)">
                <path d="M0.289,0.078L0.289,0.145C0.219,0.097 0.163,0.032 0.122,-0.051C0.081,-0.133 0.06,-0.22 0.06,-0.313C0.06,-0.406 0.081,-0.494 0.122,-0.576C0.163,-0.658 0.219,-0.723 0.289,-0.771L0.289,-0.705C0.241,-0.653 0.207,-0.597 0.187,-0.537C0.166,-0.477 0.156,-0.402 0.156,-0.313C0.156,-0.224 0.166,-0.15 0.187,-0.09C0.207,-0.03 0.241,0.026 0.289,0.078Z" style="fill-rule:nonzero;"/>
            </g>
            <g transform="matrix(11.9552,0,0,11.9552,205.538,92.4554)">
                <path d="M0.281,-0.09C0.222,-0.09 0.172,-0.112 0.13,-0.154C0.087,-0.197 0.066,-0.248 0.066,-0.307C0.066,-0.367 0.088,-0.418 0.13,-0.46C0.172,-0.503 0.223,-0.524 0.283,-0.524C0.343,-0.524 0.394,-0.503 0.437,-0.46C0.479,-0.418 0.5,-0.367 0.5,-0.308C0.5,-0.247 0.479,-0.195 0.436,-0.153C0.394,-0.111 0.342,-0.09 0.281,-0.09ZM0.281,-0.126C0.332,-0.126 0.375,-0.144 0.411,-0.179C0.446,-0.214 0.464,-0.257 0.464,-0.308C0.464,-0.357 0.446,-0.399 0.411,-0.435C0.376,-0.47 0.333,-0.488 0.283,-0.488C0.233,-0.488 0.191,-0.47 0.156,-0.435C0.12,-0.399 0.103,-0.357 0.103,-0.307C0.103,-0.258 0.12,-0.216 0.155,-0.18C0.19,-0.144 0.232,-0.126 0.281,-0.126Z" style="fill-rule:nonzero;"/>
            </g>
            <g transform="matrix(11.9552,0,0,11.9552,212.25,92.4554)">
                <path d="M0.036,0.078L0.036,0.145C0.106,0.097 0.162,0.032 0.203,-0.051C0.245,-0.133 0.265,-0.22 0.265,-0.313C0.265,-0.406 0.245,-0.494 0.203,-0.576C0.162,-0.658 0.106,-0.723 0.036,-0.771L0.036,-0.705C0.084,-0.653 0.118,-0.597 0.138,-0.537C0.159,-0.477 0.169,-0.402 0.169,-0.313C0.169,-0.224 0.159,-0.15 0.138,-0.09C0.118,-0.03 0.084,0.026 0.036,0.078Z" style="fill-rule:nonzero;"/>
            </g>
            <g transform="matrix(11.9552,0,0,11.9552,192.309,115.131)">
                <path d="M0.485,-0.017C0.42,0.002 0.365,0.012 0.319,0.012C0.241,0.012 0.177,-0.014 0.128,-0.066C0.079,-0.118 0.054,-0.185 0.054,-0.268C0.054,-0.348 0.076,-0.414 0.119,-0.465C0.163,-0.517 0.218,-0.542 0.286,-0.542C0.35,-0.542 0.4,-0.52 0.435,-0.474C0.47,-0.429 0.487,-0.364 0.487,-0.28L0.487,-0.25L0.152,-0.25C0.166,-0.124 0.228,-0.061 0.337,-0.061C0.377,-0.061 0.427,-0.072 0.485,-0.093L0.485,-0.017ZM0.157,-0.322L0.391,-0.322C0.391,-0.421 0.354,-0.47 0.28,-0.47C0.206,-0.47 0.165,-0.421 0.157,-0.322Z" style="fill-rule:nonzero;"/>
            </g>
            <g transform="matrix(11.9552,0,0,11.9552,198.283,115.131)">
                <path d="M0.043,-0L0.245,-0.274L0.049,-0.53L0.163,-0.53L0.318,-0.326L0.458,-0.53L0.552,-0.53L0.368,-0.261L0.568,-0L0.454,-0L0.294,-0.21L0.14,-0L0.043,-0Z" style="fill-rule:nonzero;"/>
            </g>
            <g transform="matrix(11.9552,0,0,11.9552,204.928,115.131)">
                <path d="M0.096,0.193L0.096,-0.53L0.192,-0.53L0.192,-0.431C0.232,-0.505 0.291,-0.542 0.37,-0.542C0.433,-0.542 0.484,-0.519 0.52,-0.472C0.557,-0.426 0.575,-0.362 0.575,-0.281C0.575,-0.193 0.554,-0.122 0.513,-0.069C0.471,-0.015 0.417,0.012 0.349,0.012C0.286,0.012 0.234,-0.012 0.192,-0.06L0.192,0.193L0.096,0.193ZM0.192,-0.126C0.242,-0.082 0.289,-0.06 0.334,-0.06C0.426,-0.06 0.473,-0.131 0.473,-0.271C0.473,-0.396 0.432,-0.458 0.35,-0.458C0.296,-0.458 0.243,-0.429 0.192,-0.371L0.192,-0.126Z" style="fill-rule:nonzero;"/>
            </g>
            <g transform="matrix(11.9552,0,0,11.9552,211.766,115.131)">
                <path d="M0.289,0.078L0.289,0.145C0.219,0.097 0.163,0.032 0.122,-0.051C0.081,-0.133 0.06,-0.22 0.06,-0.313C0.06,-0.406 0.081,-0.494 0.122,-0.576C0.163,-0.658 0.219,-0.723 0.289,-0.771L0.289,-0.705C0.241,-0.653 0.207,-0.597 0.187,-0.537C0.166,-0.477 0.156,-0.402 0.156,-0.313C0.156,-0.224 0.166,-0.15 0.187,-0.09C0.207,-0.03 0.241,0.026 0.289,0.078Z" style="fill-rule:nonzero;"/>
            </g>
            <g transform="matrix(11.9552,0,0,11.9552,214.967,115.131)">
                <path d="M0.281,-0.09C0.222,-0.09 0.172,-0.112 0.13,-0.154C0.087,-0.197 0.066,-0.248 0.066,-0.307C0.066,-0.367 0.088,-0.418 0.13,-0.46C0.172,-0.503 0.223,-0.524 0.283,-0.524C0.343,-0.524 0.394,-0.503 0.437,-0.46C0.479,-0.418 0.5,-0.367 0.5,-0.308C0.5,-0.247 0.479,-0.195 0.436,-0.153C0.394,-0.111 0.342,-0.09 0.281,-0.09ZM0.281,-0.126C0.332,-0.126 0.375,-0.144 0.411,-0.179C0.446,-0.214 0.464,-0.257 0.464,-0.308C0.464,-0.357 0.446,-0.399 0.411,-0.435C0.376,-0.47 0.333,-0.488 0.283,-0.488C0.233,-0.488 0.191,-0.47 0.156,-0.435C0.12,-0.399 0.103,-0.357 0.103,-0.307C0.103,-0.258 0.12,-0.216 0.155,-0.18C0.19,-0.144 0.232,-0.126 0.281,-0.126Z" style="fill-rule:nonzero;"/>
            </g>
            <g transform="matrix(11.9552,0,0,11.9552,221.192,115.131)">
                <path d="M0.036,0.078L0.036,0.145C0.106,0.097 0.162,0.032 0.203,-0.051C0.245,-0.133 0.265,-0.22 0.265,-0.313C0.265,-0.406 0.245,-0.494 0.203,-0.576C0.162,-0.658 0.106,-0.723 0.036,-0.771L0.036,-0.705C0.084,-0.653 0.118,-0.597 0.138,-0.537C0.159,-0.477 0.169,-0.402 0.169,-0.313C0.169,-0.224 0.159,-0.15 0.138,-0.09C0.118,-0.03 0.084,0.026 0.036,0.078Z" style="fill-rule:nonzero;"/>
            </g>
            <g transform="matrix(11.9552,0,0,11.9552,201.849,143.476)">
                <path d="M0.289,0.078L0.289,0.145C0.219,0.097 0.163,0.032 0.122,-0.051C0.081,-0.133 0.06,-0.22 0.06,-0.313C0.06,-0.406 0.081,-0.494 0.122,-0.576C0.163,-0.658 0.219,-0.723 0.289,-0.771L0.289,-0.705C0.241,-0.653 0.207,-0.597 0.187,-0.537C0.166,-0.477 0.156,-0.402 0.156,-0.313C0.156,-0.224 0.166,-0.15 0.187,-0.09C0.207,-0.03 0.241,0.026 0.289,0.078Z" style="fill-rule:nonzero;"/>
            </g>
            <g transform="matrix(11.9552,0,0,11.9552,205.538,143.476)">
                <path d="M0.281,-0.09C0.222,-0.09 0.172,-0.112 0.13,-0.154C0.087,-0.197 0.066,-0.248 0.066,-0.307C0.066,-0.367 0.088,-0.418 0.13,-0.46C0.172,-0.503 0.223,-0.524 0.283,-0.524C0.343,-0.524 0.394,-0.503 0.437,-0.46C0.479,-0.418 0.5,-0.367 0.5,-0.308C0.5,-0.247 0.479,-0.195 0.436,-0.153C0.394,-0.111 0.342,-0.09 0.281,-0.09ZM0.281,-0.126C0.332,-0.126 0.375,-0.144 0.411,-0.179C0.446,-0.214 0.464,-0.257 0.464,-0.308C0.464,-0.357 0.446,-0.399 0.411,-0.435C0.376,-0.47 0.333,-0.488 0.283,-0.488C0.233,-0.488 0.191,-0.47 0.156,-0.435C0.12,-0.399 0.103,-0.357 0.103,-0.307C0.103,-0.258 0.12,-0.216 0.155,-0.18C0.19,-0.144 0.232,-0.126 0.281,-0.126Z" style="fill-rule:nonzero;"/>
            </g>
            <g transform="matrix(11.9552,0,0,11.9552,212.25,143.476)">
                <path d="M0.036,0.078L0.036,0.145C0.106,0.097 0.162,0.032 0.203,-0.051C0.245,-0.133 0.265,-0.22 0.265,-0.313C0.265,-0.406 0.245,-0.494 0.203,-0.576C0.162,-0.658 0.106,-0.723 0.036,-0.771L0.036,-0.705C0.084,-0.653 0.118,-0.597 0.138,-0.537C0.159,-0.477 0.169,-0.402 0.169,-0.313C0.169,-0.224 0.159,-0.15 0.138,-0.09C0.118,-0.03 0.084,0.026 0.036,0.078Z" style="fill-rule:nonzero;"/>
            </g>
            <g transform="matrix(11.9552,0,0,11.9552,192.309,166.151)">
                <path d="M0.485,-0.017C0.42,0.002 0.365,0.012 0.319,0.012C0.241,0.012 0.177,-0.014 0.128,-0.066C0.079,-0.118 0.054,-0.185 0.054,-0.268C0.054,-0.348 0.076,-0.414 0.119,-0.465C0.163,-0.517 0.218,-0.542 0.286,-0.542C0.35,-0.542 0.4,-0.52 0.435,-0.474C0.47,-0.429 0.487,-0.364 0.487,-0.28L0.487,-0.25L0.152,-0.25C0.166,-0.124 0.228,-0.061 0.337,-0.061C0.377,-0.061 0.427,-0.072 0.485,-0.093L0.485,-0.017ZM0.157,-0.322L0.391,-0.322C0.391,-0.421 0.354,-0.47 0.28,-0.47C0.206,-0.47 0.165,-0.421 0.157,-0.322Z" style="fill-rule:nonzero;"/>
            </g>
            <g transform="matrix(11.9552,0,0,11.9552,198.283,166.151)">
                <path d="M0.043,-0L0.245,-0.274L0.049,-0.53L0.163,-0.53L0.318,-0.326L0.458,-0.53L0.552,-0.53L0.368,-0.261L0.568,-0L0.454,-0L0.294,-0.21L0.14,-0L0.043,-0Z" style="fill-rule:nonzero;"/>
            </g>
            <g transform="matrix(11.9552,0,0,11.9552,204.928,166.151)">
                <path d="M0.096,0.193L0.096,-0.53L0.192,-0.53L0.192,-0.431C0.232,-0.505 0.291,-0.542 0.37,-0.542C0.433,-0.542 0.484,-0.519 0.52,-0.472C0.557,-0.426 0.575,-0.362 0.575,-0.281C0.575,-0.193 0.554,-0.122 0.513,-0.069C0.471,-0.015 0.417,0.012 0.349,0.012C0.286,0.012 0.234,-0.012 0.192,-0.06L0.192,0.193L0.096,0.193ZM0.192,-0.126C0.242,-0.082 0.289,-0.06 0.334,-0.06C0.426,-0.06 0.473,-0.131 0.473,-0.271C0.473,-0.396 0.432,-0.458 0.35,-0.458C0.296,-0.458 0.243,-0.429 0.192,-0.371L0.192,-0.126Z" style="fill-rule:nonzero;"/>
            </g>
            <g transform="matrix(11.9552,0,0,11.9552,211.766,166.151)">
                <path d="M0.289,0.078L0.289,0.145C0.219,0.097 0.163,0.032 0.122,-0.051C0.081,-0.133 0.06,-0.22 0.06,-0.313C0.06,-0.406 0.081,-0.494 0.122,-0.576C0.163,-0.658 0.219,-0.723 0.289,-0.771L0.289,-0.705C0.241,-0.653 0.207,-0.597 0.187,-0.537C0.166,-0.477 0.156,-0.402 0.156,-0.313C0.156,-0.224 0.166,-0.15 0.187,-0.09C0.207,-0.03 0.241,0.026 0.289,0.078Z" style="fill-rule:nonzero;"/>
            </g>
            <g transform="matrix(11.9552,0,0,11.9552,214.967,166.151)">
                <path d="M0.281,-0.09C0.222,-0.09 0.172,-0.112 0.13,-0.154C0.087,-0.197 0.066,-0.248 0.066,-0.307C0.066,-0.367 0.088,-0.418 0.13,-0.46C0.172,-0.503 0.223,-0.524 0.283,-0.524C0.343,-0.524 0.394,-0.503 0.437,-0.46C0.479,-0.418 0.5,-0.367 0.5,-0.308C0.5,-0.247 0.479,-0.195 0.436,-0.153C0.394,-0.111 0.342,-0.09 0.281,-0.09ZM0.281,-0.126C0.332,-0.126 0.375,-0.144 0.411,-0.179C0.446,-0.214 0.464,-0.257 0.464,-0.308C0.464,-0.357 0.446,-0.399 0.411,-0.435C0.376,-0.47 0.333,-0.488 0.283,-0.488C0.233,-0.488 0.191,-0.47 0.156,-0.435C0.12,-0.399 0.103,-0.357 0.103,-0.307C0.103,-0.258 0.12,-0.216 0.155,-0.18C0.19,-0.144 0.232,-0.126 0.281,-0.126Z" style="fill-rule:nonzero;"/>
            </g>
            <g transform="matrix(11.9552,0,0,11.9552,221.192,166.151)">
                <path d="M0.036,0.078L0.036,0.145C0.106,0.097 0.162,0.032 0.203,-0.051C0.245,-0.133 0.265,-0.22 0.265,-0.313C0.265,-0.406 0.245,-0.494 0.203,-0.576C0.162,-0.658 0.106,-0.723 0.036,-0.771L0.036,-0.705C0.084,-0.653 0.118,-0.597 0.138,-0.537C0.159,-0.477 0.169,-0.402 0.169,-0.313C0.169,-0.224 0.159,-0.15 0.138,-0.09C0.118,-0.03 0.084,0.026 0.036,0.078Z" style="fill-rule:nonzero;"/>
            </g>
            <g transform="matrix(11.9552,0,0,11.9552,201.849,188.826)">
                <path d="M0.289,0.078L0.289,0.145C0.219,0.097 0.163,0.032 0.122,-0.051C0.081,-0.133 0.06,-0.22 0.06,-0.313C0.06,-0.406 0.081,-0.494 0.122,-0.576C0.163,-0.658 0.219,-0.723 0.289,-0.771L0.289,-0.705C0.241,-0.653 0.207,-0.597 0.187,-0.537C0.166,-0.477 0.156,-0.402 0.156,-0.313C0.156,-0.224 0.166,-0.15 0.187,-0.09C0.207,-0.03 0.241,0.026 0.289,0.078Z" style="fill-rule:nonzero;"/>
            </g>
            <g transform="matrix(11.9552,0,0,11.9552,205.538,188.826)">
                <path d="M0.281,-0.09C0.222,-0.09 0.172,-0.112 0.13,-0.154C0.087,-0.197 0.066,-0.248 0.066,-0.307C0.066,-0.367 0.088,-0.418 0.13,-0.46C0.172,-0.503 0.223,-0.524 0.283,-0.524C0.343,-0.524 0.394,-0.503 0.437,-0.46C0.479,-0.418 0.5,-0.367 0.5,-0.308C0.5,-0.247 0.479,-0.195 0.436,-0.153C0.394,-0.111 0.342,-0.09 0.281,-0.09ZM0.281,-0.126C0.332,-0.126 0.375,-0.144 0.411,-0.179C0.446,-0.214 0.464,-0.257 0.464,-0.308C0.464,-0.357 0.446,-0.399 0.411,-0.435C0.376,-0.47 0.333,-0.488 0.283,-0.488C0.233,-0.488 0.191,-0.47 0.156,-0.435C0.12,-0.399 0.103,-0.357 0.103,-0.307C0.103,-0.258 0.12,-0.216 0.155,-0.18C0.19,-0.144 0.232,-0.126 0.281,-0.126Z" style="fill-rule:nonzero;"/>
            </g>
            <g transform="matrix(11.9552,0,0,11.9552,212.25,188.826)">
                <path d="M0.036,0.078L0.036,0.145C0.106,0.097 0.162,0.032 0.203,-0.051C0.245,-0.133 0.265,-0.22 0.265,-0.313C0.265,-0.406 0.245,-0.494 0.203,-0.576C0.162,-0.658 0.106,-0.723 0.036,-0.771L0.036,-0.705C0.084,-0.653 0.118,-0.597 0.138,-0.537C0.159,-0.477 0.169,-0.402 0.169,-0.313C0.169,-0.224 0.159,-0.15 0.138,-0.09C0.118,-0.03 0.084,0.026 0.036,0.078Z" style="fill-rule:nonzero;"/>
            </g>
            <g transform="matrix(11.9552,0,0,11.9552,192.309,211.501)">
                <path d="M0.485,-0.017C0.42,0.002 0.365,0.012 0.319,0.012C0.241,0.012 0.177,-0.014 0.128,-0.066C0.079,-0.118 0.054,-0.185 0.054,-0.268C0.054,-0.348 0.076,-0.414 0.119,-0.465C0.163,-0.517 0.218,-0.542 0.286,-0.542C0.35,-0.542 0.4,-0.52 0.435,-0.474C0.47,-0.429 0.487,-0.364 0.487,-0.28L0.487,-0.25L0.152,-0.25C0.166,-0.124 0.228,-0.061 0.337,-0.061C0.377,-0.061 0.427,-0.072 0.485,-0.093L0.485,-0.017ZM0.157,-0.322L0.391,-0.322C0.391,-0.421 0.354,-0.47 0.28,-0.47C0.206,-0.47 0.165,-0.421 0.157,-0.322Z" style="fill-rule:nonzero;"/>
            </g>
            <g transform="matrix(11.9552,0,0,11.9552,198.283,211.501)">
                <path d="M0.043,-0L0.245,-0.274L0.049,-0.53L0.163,-0.53L0.318,-0.326L0.458,-0.53L0.552,-0.53L0.368,-0.261L0.568,-0L0.454,-0L0.294,-0.21L0.14,-0L0.043,-0Z" style="fill-rule:nonzero;"/>
            </g>
            <g transform="matrix(11.9552,0,0,11.9552,204.928,211.501)">
                <path d="M0.096,0.193L0.096,-0.53L0.192,-0.53L0.192,-0.431C0.232,-0.505 0.291,-0.542 0.37,-0.542C0.433,-0.542 0.484,-0.519 0.52,-0.472C0.557,-0.426 0.575,-0.362 0.575,-0.281C0.575,-0.193 0.554,-0.122 0.513,-0.069C0.471,-0.015 0.417,0.012 0.349,0.012C0.286,0.012 0.234,-0.012 0.192,-0.06L0.192,0.193L0.096,0.193ZM0.192,-0.126C0.242,-0.082 0.289,-0.06 0.334,-0.06C0.426,-0.06 0.473,-0.131 0.473,-0.271C0.473,-0.396 0.432,-0.458 0.35,-0.458C0.296,-0.458 0.243,-0.429 0.192,-0.371L0.192,-0.126Z" style="fill-rule:nonzero;"/>
            </g>
            <g transform="matrix(11.9552,0,0,11.9552,211.766,211.501)">
                <path d="M0.289,0.078L0.289,0.145C0.219,0.097 0.163,0.032 0.122,-0.051C0.081,-0.133 0.06,-0.22 0.06,-0.313C0.06,-0.406 0.081,-0.494 0.122,-0.576C0.163,-0.658 0.219,-0.723 0.289,-0.771L0.289,-0.705C0.241,-0.653 0.207,-0.597 0.187,-0.537C0.166,-0.477 0.156,-0.402 0.156,-0.313C0.156,-0.224 0.166,-0.15 0.187,-0.09C0.207,-0.03 0.241,0.026 0.289,0.078Z" style="fill-rule:nonzero;"/>
            </g>
            <g transform="matrix(11.9552,0,0,11.9552,214.967,211.501)">
                <path d="M0.281,-0.09C0.222,-0.09 0.172,-0.112 0.13,-0.154C0.087,-0.197 0.066,-0.248 0.066,-0.307C0.066,-0.367 0.088,-0.418 0.13,-0.46C0.172,-0.503 0.223,-0.524 0.283,-0.524C0.343,-0.524 0.394,-0.503 0.437,-0.46C0.479,-0.418 0.5,-0.367 0.5,-0.308C0.5,-0.247 0.479,-0.195 0.436,-0.153C0.394,-0.111 0.342,-0.09 0.281,-0.09ZM0.281,-0.126C0.332,-0.126 0.375,-0.144 0.411,-0.179C0.446,-0.214 0.464,-0.257 0.464,-0.308C0.464,-0.357 0.446,-0.399 0.411,-0.435C0.376,-0.47 0.333,-0.488 0.283,-0.488C0.233,-0.488 0.191,-0.47 0.156,-0.435C0.12,-0.399 0.103,-0.357 0.103,-0.307C0.103,-0.258 0.12,-0.216 0.155,-0.18C0.19,-0.144 0.232,-0.126 0.281,-0.126Z" style="fill-rule:nonzero;"/>
            </g>
            <g transform="matrix(11.9552,0,0,11.9552,221.192,211.501)">
                <path d="M0.036,0.078L0.036,0.145C0.106,0.097 0.162,0.032 0.203,-0.051C0.245,-0.133 0.265,-0.22 0.265,-0.313C0.265,-0.406 0.245,-0.494 0.203,-0.576C0.162,-0.658 0.106,-0.723 0.036,-0.771L0.036,-0.705C0.084,-0.653 0.118,-0.597 0.138,-0.537C0.159,-0.477 0.169,-0.402 0.169,-0.313C0.169,-0.224 0.159,-0.15 0.138,-0.09C0.118,-0.03 0.084,0.026 0.036,0.078Z" style="fill-rule:nonzero;"/>
            </g>
            <g transform="matrix(24.7871,0,0,24.7871,205.929,230.533)">
                <rect x="0.098" y="-0.121" width="0.121" height="0.121" style="fill-rule:nonzero;"/>
            </g>
            <g transform="matrix(24.7871,0,0,24.7871,205.929,234.518)">
                <rect x="0.098" y="-0.121" width="0.121" height="0.121" style="fill-rule:nonzero;"/>
            </g>
            <g transform="matrix(24.7871,0,0,24.7871,205.929,238.503)">
                <rect x="0.098" y="-0.121" width="0.121" height="0.121" style="fill-rule:nonzero;"/>
            </g>
        </g>
        <g>
            <g transform="matrix(11.9552,0,0,11.9552,256.427,126.409)">
                <path d="M0.313,-0L0.313,-0.304C0.252,-0.309 0.205,-0.326 0.174,-0.354C0.143,-0.383 0.122,-0.429 0.112,-0.49L0.103,-0.552C0.096,-0.593 0.087,-0.619 0.076,-0.631C0.066,-0.642 0.045,-0.647 0.013,-0.647L0.006,-0.647L0.006,-0.723L0.014,-0.723C0.071,-0.723 0.111,-0.713 0.135,-0.693C0.158,-0.673 0.175,-0.635 0.185,-0.577L0.195,-0.521C0.205,-0.468 0.217,-0.431 0.233,-0.411C0.249,-0.391 0.273,-0.381 0.305,-0.381C0.306,-0.381 0.309,-0.381 0.313,-0.381L0.313,-0.723L0.41,-0.723L0.41,-0.381C0.413,-0.381 0.416,-0.381 0.418,-0.381C0.45,-0.381 0.474,-0.391 0.49,-0.411C0.505,-0.431 0.518,-0.468 0.527,-0.521L0.538,-0.577C0.548,-0.635 0.565,-0.673 0.588,-0.693C0.611,-0.713 0.652,-0.723 0.708,-0.723L0.717,-0.723L0.717,-0.647L0.71,-0.647C0.678,-0.647 0.656,-0.642 0.646,-0.631C0.635,-0.619 0.627,-0.593 0.62,-0.552L0.61,-0.49C0.601,-0.429 0.58,-0.383 0.549,-0.354C0.517,-0.326 0.471,-0.309 0.41,-0.304L0.41,-0L0.313,-0Z" style="fill-rule:nonzero;"/>
            </g>
            <g transform="matrix(11.9552,0,0,11.9552,264.99,126.409)">
                <path d="M0.289,0.078L0.289,0.145C0.219,0.097 0.163,0.032 0.122,-0.051C0.081,-0.133 0.06,-0.22 0.06,-0.313C0.06,-0.406 0.081,-0.494 0.122,-0.576C0.163,-0.658 0.219,-0.723 0.289,-0.771L0.289,-0.705C0.241,-0.653 0.207,-0.597 0.187,-0.537C0.166,-0.477 0.156,-0.402 0.156,-0.313C0.156,-0.224 0.166,-0.15 0.187,-0.09C0.207,-0.03 0.241,0.026 0.289,0.078Z" style="fill-rule:nonzero;"/>
            </g>
            <g transform="matrix(11.9552,0,0,11.9552,268.802,126.409)">
                <path d="M0.09,-0L0.09,-0.723L0.545,-0.723L0.545,-0.624L0.241,-0.624L0.241,-0.404L0.491,-0.404L0.491,-0.304L0.241,-0.304L0.241,-0L0.09,-0Z" style="fill-rule:nonzero;"/>
            </g>
            <g transform="matrix(11.9552,0,0,11.9552,275.59,126.409)">
                <path d="M0.036,0.078L0.036,0.145C0.106,0.097 0.162,0.032 0.203,-0.051C0.245,-0.133 0.265,-0.22 0.265,-0.313C0.265,-0.406 0.245,-0.494 0.203,-0.576C0.162,-0.658 0.106,-0.723 0.036,-0.771L0.036,-0.705C0.084,-0.653 0.118,-0.597 0.138,-0.537C0.159,-0.477 0.169,-0.402 0.169,-0.313C0.169,-0.224 0.159,-0.15 0.138,-0.09C0.118,-0.03 0.084,0.026 0.036,0.078Z" style="fill-rule:nonzero;"/>
            </g>
            <g transform="matrix(11.9552,0,0,11.9552,256.311,162.554)">
                <path d="M0.09,-0L0.09,-0.723L0.342,-0.723C0.43,-0.723 0.493,-0.708 0.531,-0.678C0.568,-0.649 0.587,-0.6 0.587,-0.531C0.587,-0.453 0.562,-0.392 0.511,-0.348C0.461,-0.305 0.391,-0.283 0.3,-0.283L0.238,-0.283L0.238,-0L0.09,-0ZM0.238,-0.382L0.267,-0.382C0.319,-0.382 0.359,-0.394 0.389,-0.418C0.419,-0.442 0.434,-0.475 0.434,-0.516C0.434,-0.588 0.388,-0.624 0.296,-0.624L0.238,-0.624L0.238,-0.382Z" style="fill-rule:nonzero;"/>
            </g>
            <g transform="matrix(11.9552,0,0,11.9552,265.802,162.554)">
                <path d="M0.289,0.078L0.289,0.145C0.219,0.097 0.163,0.032 0.122,-0.051C0.081,-0.133 0.06,-0.22 0.06,-0.313C0.06,-0.406 0.081,-0.494 0.122,-0.576C0.163,-0.658 0.219,-0.723 0.289,-0.771L0.289,-0.705C0.241,-0.653 0.207,-0.597 0.187,-0.537C0.166,-0.477 0.156,-0.402 0.156,-0.313C0.156,-0.224 0.166,-0.15 0.187,-0.09C0.207,-0.03 0.241,0.026 0.289,0.078Z" style="fill-rule:nonzero;"/>
            </g>
            <g transform="matrix(11.9552,0,0,11.9552,270.246,162.554)">
                <path d="M0.09,-0L0.09,-0.723L0.545,-0.723L0.545,-0.624L0.241,-0.624L0.241,-0.404L0.491,-0.404L0.491,-0.304L0.241,-0.304L0.241,-0L0.09,-0Z" style="fill-rule:nonzero;"/>
            </g>
            <g transform="matrix(11.9552,0,0,11.9552,277.666,162.554)">
                <path d="M0.036,0.078L0.036,0.145C0.106,0.097 0.162,0.032 0.203,-0.051C0.245,-0.133 0.265,-0.22 0.265,-0.313C0.265,-0.406 0.245,-0.494 0.203,-0.576C0.162,-0.658 0.106,-0.723 0.036,-0.771L0.036,-0.705C0.084,-0.653 0.118,-0.597 0.138,-0.537C0.159,-0.477 0.169,-0.402 0.169,-0.313C0.169,-0.224 0.159,-0.15 0.138,-0.09C0.118,-0.03 0.084,0.026 0.036,0.078Z" style="fill-rule:nonzero;"/>
            </g>
        </g>
        <g>
            <g transform="matrix(11.9552,0,0,11.9552,38.824,17.686)">
                <path d="M0.403,0.018C0.291,0.018 0.204,-0.015 0.143,-0.081C0.081,-0.147 0.051,-0.24 0.051,-0.361C0.051,-0.481 0.082,-0.575 0.144,-0.641C0.207,-0.708 0.294,-0.741 0.408,-0.741C0.472,-0.741 0.548,-0.73 0.635,-0.709L0.635,-0.613C0.536,-0.647 0.46,-0.664 0.406,-0.664C0.328,-0.664 0.267,-0.638 0.224,-0.584C0.181,-0.531 0.16,-0.457 0.16,-0.36C0.16,-0.268 0.183,-0.195 0.229,-0.142C0.274,-0.089 0.337,-0.062 0.417,-0.062C0.485,-0.062 0.558,-0.083 0.636,-0.125L0.636,-0.037C0.565,-0 0.487,0.018 0.403,0.018Z" style="fill-rule:nonzero;"/>
            </g>
            <g transform="matrix(11.9552,0,0,11.9552,46.607,17.686)">
                <path d="M0.304,0.012C0.228,0.012 0.167,-0.013 0.122,-0.063C0.077,-0.114 0.054,-0.181 0.054,-0.265C0.054,-0.35 0.077,-0.418 0.122,-0.468C0.168,-0.517 0.229,-0.542 0.307,-0.542C0.385,-0.542 0.447,-0.517 0.492,-0.468C0.537,-0.418 0.56,-0.351 0.56,-0.266C0.56,-0.18 0.537,-0.111 0.492,-0.062C0.446,-0.013 0.383,0.012 0.304,0.012ZM0.305,-0.06C0.407,-0.06 0.458,-0.129 0.458,-0.266C0.458,-0.402 0.408,-0.47 0.307,-0.47C0.207,-0.47 0.157,-0.402 0.157,-0.265C0.157,-0.128 0.206,-0.06 0.305,-0.06Z" style="fill-rule:nonzero;"/>
            </g>
            <g transform="matrix(11.9552,0,0,11.9552,53.4618,17.686)">
                <path d="M0.096,-0L0.096,-0.53L0.192,-0.53L0.192,-0.431C0.243,-0.505 0.305,-0.542 0.379,-0.542C0.425,-0.542 0.461,-0.527 0.489,-0.498C0.516,-0.469 0.53,-0.43 0.53,-0.381L0.53,-0L0.434,-0L0.434,-0.35C0.434,-0.389 0.428,-0.417 0.416,-0.434C0.405,-0.451 0.386,-0.459 0.359,-0.459C0.3,-0.459 0.244,-0.42 0.192,-0.343L0.192,-0L0.096,-0Z" style="fill-rule:nonzero;"/>
            </g>
            <g transform="matrix(11.9552,0,0,11.9552,60.3925,17.686)">
                <path d="M0.237,0.012C0.193,0.012 0.139,0.002 0.077,-0.019L0.077,-0.107C0.139,-0.076 0.194,-0.06 0.241,-0.06C0.268,-0.06 0.291,-0.068 0.31,-0.083C0.328,-0.097 0.337,-0.116 0.337,-0.139C0.337,-0.172 0.311,-0.199 0.26,-0.22L0.204,-0.244C0.121,-0.279 0.08,-0.328 0.08,-0.393C0.08,-0.439 0.096,-0.476 0.129,-0.502C0.161,-0.529 0.206,-0.542 0.263,-0.542C0.293,-0.542 0.329,-0.538 0.373,-0.53L0.393,-0.526L0.393,-0.446C0.339,-0.462 0.297,-0.47 0.265,-0.47C0.203,-0.47 0.172,-0.447 0.172,-0.402C0.172,-0.373 0.196,-0.349 0.243,-0.329L0.289,-0.31C0.341,-0.287 0.379,-0.264 0.4,-0.24C0.422,-0.215 0.433,-0.184 0.433,-0.147C0.433,-0.101 0.415,-0.063 0.378,-0.033C0.341,-0.003 0.294,0.012 0.237,0.012Z" style="fill-rule:nonzero;"/>
            </g>
            <g transform="matrix(11.9552,0,0,11.9552,65.9981,17.686)">
                <path d="M0.255,0.012C0.207,0.012 0.168,-0.002 0.141,-0.03C0.114,-0.058 0.1,-0.097 0.1,-0.146L0.1,-0.458L0.034,-0.458L0.034,-0.53L0.1,-0.53L0.1,-0.626L0.196,-0.636L0.196,-0.53L0.335,-0.53L0.335,-0.458L0.196,-0.458L0.196,-0.164C0.196,-0.095 0.226,-0.06 0.286,-0.06C0.299,-0.06 0.314,-0.062 0.333,-0.066L0.333,-0C0.303,0.008 0.277,0.012 0.255,0.012Z" style="fill-rule:nonzero;"/>
            </g>
            <g transform="matrix(11.9552,0,0,11.9552,69.9809,17.686)">
                <path d="M0.096,-0L0.096,-0.53L0.192,-0.53L0.192,-0L0.096,-0ZM0.096,-0.626L0.096,-0.723L0.192,-0.723L0.192,-0.626L0.096,-0.626Z" style="fill-rule:nonzero;"/>
            </g>
            <g transform="matrix(11.9552,0,0,11.9552,72.9479,17.686)">
                <path d="M0.255,0.012C0.207,0.012 0.168,-0.002 0.141,-0.03C0.114,-0.058 0.1,-0.097 0.1,-0.146L0.1,-0.458L0.034,-0.458L0.034,-0.53L0.1,-0.53L0.1,-0.626L0.196,-0.636L0.196,-0.53L0.335,-0.53L0.335,-0.458L0.196,-0.458L0.196,-0.164C0.196,-0.095 0.226,-0.06 0.286,-0.06C0.299,-0.06 0.314,-0.062 0.333,-0.066L0.333,-0C0.303,0.008 0.277,0.012 0.255,0.012Z" style="fill-rule:nonzero;"/>
            </g>
            <g transform="matrix(11.9552,0,0,11.9552,76.9307,17.686)">
                <path d="M0.428,-0L0.428,-0.1C0.377,-0.025 0.315,0.012 0.242,0.012C0.195,0.012 0.159,-0.002 0.131,-0.031C0.104,-0.061 0.09,-0.1 0.09,-0.149L0.09,-0.53L0.187,-0.53L0.187,-0.181C0.187,-0.141 0.192,-0.113 0.204,-0.096C0.215,-0.079 0.235,-0.071 0.262,-0.071C0.32,-0.071 0.376,-0.109 0.428,-0.187L0.428,-0.53L0.524,-0.53L0.524,-0L0.428,-0Z" style="fill-rule:nonzero;"/>
            </g>
            <g transform="matrix(11.9552,0,0,11.9552,83.8614,17.686)">
                <path d="M0.255,0.012C0.207,0.012 0.168,-0.002 0.141,-0.03C0.114,-0.058 0.1,-0.097 0.1,-0.146L0.1,-0.458L0.034,-0.458L0.034,-0.53L0.1,-0.53L0.1,-0.626L0.196,-0.636L0.196,-0.53L0.335,-0.53L0.335,-0.458L0.196,-0.458L0.196,-0.164C0.196,-0.095 0.226,-0.06 0.286,-0.06C0.299,-0.06 0.314,-0.062 0.333,-0.066L0.333,-0C0.303,0.008 0.277,0.012 0.255,0.012Z" style="fill-rule:nonzero;"/>
            </g>
            <g transform="matrix(11.9552,0,0,11.9552,87.8442,17.686)">
                <path d="M0.096,-0L0.096,-0.53L0.192,-0.53L0.192,-0L0.096,-0ZM0.096,-0.626L0.096,-0.723L0.192,-0.723L0.192,-0.626L0.096,-0.626Z" style="fill-rule:nonzero;"/>
            </g>
            <g transform="matrix(11.9552,0,0,11.9552,90.8112,17.686)">
                <path d="M0.206,-0L0.009,-0.53L0.105,-0.53L0.259,-0.118L0.422,-0.53L0.512,-0.53L0.302,-0L0.206,-0Z" style="fill-rule:nonzero;"/>
            </g>
            <g transform="matrix(11.9552,0,0,11.9552,96.5102,17.686)">
                <path d="M0.485,-0.017C0.42,0.002 0.365,0.012 0.319,0.012C0.241,0.012 0.177,-0.014 0.128,-0.066C0.079,-0.118 0.054,-0.185 0.054,-0.268C0.054,-0.348 0.076,-0.414 0.119,-0.465C0.163,-0.517 0.218,-0.542 0.286,-0.542C0.35,-0.542 0.4,-0.52 0.435,-0.474C0.47,-0.429 0.487,-0.364 0.487,-0.28L0.487,-0.25L0.152,-0.25C0.166,-0.124 0.228,-0.061 0.337,-0.061C0.377,-0.061 0.427,-0.072 0.485,-0.093L0.485,-0.017ZM0.157,-0.322L0.391,-0.322C0.391,-0.421 0.354,-0.47 0.28,-0.47C0.206,-0.47 0.165,-0.421 0.157,-0.322Z" style="fill-rule:nonzero;"/>
            </g>
            <g transform="matrix(11.9552,0,0,11.9552,106.293,17.686)">
                <path d="M0.459,-0.276L0.336,-0.588L0.213,-0.276L0.459,-0.276ZM0.568,-0L0.489,-0.2L0.183,-0.2L0.104,-0L0.008,-0L0.295,-0.723L0.396,-0.723L0.679,-0L0.568,-0Z" style="fill-rule:nonzero;"/>
            </g>
            <g transform="matrix(11.9552,0,0,11.9552,114.053,17.686)">
                <path d="M0.096,-0L0.096,-0.53L0.192,-0.53L0.192,-0.431C0.23,-0.505 0.286,-0.542 0.358,-0.542C0.368,-0.542 0.378,-0.541 0.389,-0.54L0.389,-0.45C0.373,-0.455 0.358,-0.458 0.345,-0.458C0.284,-0.458 0.233,-0.422 0.192,-0.35L0.192,-0L0.096,-0Z" style="fill-rule:nonzero;"/>
            </g>
            <g transform="matrix(11.9552,0,0,11.9552,118.456,17.686)">
                <path d="M0.255,0.012C0.207,0.012 0.168,-0.002 0.141,-0.03C0.114,-0.058 0.1,-0.097 0.1,-0.146L0.1,-0.458L0.034,-0.458L0.034,-0.53L0.1,-0.53L0.1,-0.626L0.196,-0.636L0.196,-0.53L0.335,-0.53L0.335,-0.458L0.196,-0.458L0.196,-0.164C0.196,-0.095 0.226,-0.06 0.286,-0.06C0.299,-0.06 0.314,-0.062 0.333,-0.066L0.333,-0C0.303,0.008 0.277,0.012 0.255,0.012Z" style="fill-rule:nonzero;"/>
            </g>
            <g transform="matrix(11.9552,0,0,11.9552,122.439,17.686)">
                <path d="M0.096,-0L0.096,-0.53L0.192,-0.53L0.192,-0L0.096,-0ZM0.096,-0.626L0.096,-0.723L0.192,-0.723L0.192,-0.626L0.096,-0.626Z" style="fill-rule:nonzero;"/>
            </g>
            <g transform="matrix(11.9552,0,0,11.9552,125.406,17.686)">
                <path d="M0.114,-0L0.114,-0.458L0.039,-0.458L0.039,-0.53L0.114,-0.53L0.114,-0.594C0.114,-0.72 0.172,-0.783 0.287,-0.783C0.319,-0.783 0.356,-0.778 0.397,-0.767L0.397,-0.691C0.354,-0.704 0.319,-0.711 0.293,-0.711C0.261,-0.711 0.24,-0.703 0.228,-0.688C0.217,-0.673 0.211,-0.645 0.211,-0.604L0.211,-0.53L0.548,-0.53L0.548,-0L0.452,-0L0.452,-0.458L0.211,-0.458L0.211,-0L0.114,-0ZM0.452,-0.626L0.452,-0.723L0.548,-0.723L0.548,-0.626L0.452,-0.626Z" style="fill-rule:nonzero;"/>
            </g>
            <g transform="matrix(11.9552,0,0,11.9552,132.623,17.686)">
                <path d="M0.303,0.012C0.232,0.012 0.172,-0.014 0.125,-0.067C0.078,-0.12 0.054,-0.187 0.054,-0.268C0.054,-0.354 0.078,-0.422 0.124,-0.47C0.171,-0.518 0.236,-0.542 0.32,-0.542C0.361,-0.542 0.407,-0.536 0.458,-0.525L0.458,-0.444C0.404,-0.46 0.36,-0.468 0.326,-0.468C0.277,-0.468 0.237,-0.45 0.207,-0.413C0.177,-0.376 0.163,-0.327 0.163,-0.265C0.163,-0.206 0.178,-0.157 0.208,-0.121C0.239,-0.084 0.279,-0.065 0.329,-0.065C0.373,-0.065 0.418,-0.077 0.464,-0.099L0.464,-0.016C0.402,0.003 0.348,0.012 0.303,0.012Z" style="fill-rule:nonzero;"/>
            </g>
            <g transform="matrix(11.9552,0,0,11.9552,138.257,17.686)">
                <path d="M0.096,-0L0.096,-0.53L0.192,-0.53L0.192,-0L0.096,-0ZM0.096,-0.626L0.096,-0.723L0.192,-0.723L0.192,-0.626L0.096,-0.626Z" style="fill-rule:nonzero;"/>
            </g>
            <g transform="matrix(11.9552,0,0,11.9552,141.224,17.686)">
                <path d="M0.37,-0.067C0.312,-0.014 0.257,0.012 0.203,0.012C0.159,0.012 0.123,-0.002 0.094,-0.029C0.065,-0.057 0.05,-0.091 0.05,-0.133C0.05,-0.191 0.075,-0.236 0.123,-0.267C0.172,-0.298 0.242,-0.313 0.333,-0.313L0.355,-0.313L0.355,-0.377C0.355,-0.439 0.324,-0.47 0.261,-0.47C0.21,-0.47 0.155,-0.454 0.096,-0.423L0.096,-0.502C0.161,-0.529 0.222,-0.542 0.278,-0.542C0.338,-0.542 0.381,-0.529 0.409,-0.502C0.438,-0.475 0.452,-0.434 0.452,-0.377L0.452,-0.137C0.452,-0.082 0.469,-0.055 0.502,-0.055C0.507,-0.055 0.513,-0.055 0.521,-0.057L0.528,-0.003C0.506,0.007 0.482,0.012 0.456,0.012C0.411,0.012 0.382,-0.014 0.37,-0.067ZM0.355,-0.12L0.355,-0.257L0.323,-0.258C0.271,-0.258 0.228,-0.248 0.195,-0.228C0.163,-0.208 0.146,-0.181 0.146,-0.149C0.146,-0.126 0.155,-0.106 0.171,-0.09C0.187,-0.074 0.207,-0.066 0.23,-0.066C0.271,-0.066 0.312,-0.084 0.355,-0.12Z" style="fill-rule:nonzero;"/>
            </g>
            <g transform="matrix(11.9552,0,0,11.9552,147.338,17.686)">
                <rect x="0.096" y="-0.771" width="0.096" height="0.771" style="fill-rule:nonzero;"/>
            </g>
            <g transform="matrix(11.9552,0,0,11.9552,155.321,17.686)">
                <path d="M0.093,-0L0.093,-0.723L0.194,-0.723L0.558,-0.165L0.558,-0.723L0.646,-0.723L0.646,-0L0.545,-0L0.181,-0.558L0.181,-0L0.093,-0Z" style="fill-rule:nonzero;"/>
            </g>
            <g transform="matrix(11.9552,0,0,11.9552,163.665,17.686)">
                <path d="M0.485,-0.017C0.42,0.002 0.365,0.012 0.319,0.012C0.241,0.012 0.177,-0.014 0.128,-0.066C0.079,-0.118 0.054,-0.185 0.054,-0.268C0.054,-0.348 0.076,-0.414 0.119,-0.465C0.163,-0.517 0.218,-0.542 0.286,-0.542C0.35,-0.542 0.4,-0.52 0.435,-0.474C0.47,-0.429 0.487,-0.364 0.487,-0.28L0.487,-0.25L0.152,-0.25C0.166,-0.124 0.228,-0.061 0.337,-0.061C0.377,-0.061 0.427,-0.072 0.485,-0.093L0.485,-0.017ZM0.157,-0.322L0.391,-0.322C0.391,-0.421 0.354,-0.47 0.28,-0.47C0.206,-0.47 0.165,-0.421 0.157,-0.322Z" style="fill-rule:nonzero;"/>
            </g>
            <g transform="matrix(11.9552,0,0,11.9552,169.836,17.686)">
                <path d="M0.428,-0L0.428,-0.1C0.377,-0.025 0.315,0.012 0.242,0.012C0.195,0.012 0.159,-0.002 0.131,-0.031C0.104,-0.061 0.09,-0.1 0.09,-0.149L0.09,-0.53L0.187,-0.53L0.187,-0.181C0.187,-0.141 0.192,-0.113 0.204,-0.096C0.215,-0.079 0.235,-0.071 0.262,-0.071C0.32,-0.071 0.376,-0.109 0.428,-0.187L0.428,-0.53L0.524,-0.53L0.524,-0L0.428,-0Z" style="fill-rule:nonzero;"/>
            </g>
            <g transform="matrix(11.9552,0,0,11.9552,176.767,17.686)">
                <path d="M0.096,-0L0.096,-0.53L0.192,-0.53L0.192,-0.431C0.23,-0.505 0.286,-0.542 0.358,-0.542C0.368,-0.542 0.378,-0.541 0.389,-0.54L0.389,-0.45C0.373,-0.455 0.358,-0.458 0.345,-0.458C0.284,-0.458 0.233,-0.422 0.192,-0.35L0.192,-0L0.096,-0Z" style="fill-rule:nonzero;"/>
            </g>
            <g transform="matrix(11.9552,0,0,11.9552,181.17,17.686)">
                <path d="M0.37,-0.067C0.312,-0.014 0.257,0.012 0.203,0.012C0.159,0.012 0.123,-0.002 0.094,-0.029C0.065,-0.057 0.05,-0.091 0.05,-0.133C0.05,-0.191 0.075,-0.236 0.123,-0.267C0.172,-0.298 0.242,-0.313 0.333,-0.313L0.355,-0.313L0.355,-0.377C0.355,-0.439 0.324,-0.47 0.261,-0.47C0.21,-0.47 0.155,-0.454 0.096,-0.423L0.096,-0.502C0.161,-0.529 0.222,-0.542 0.278,-0.542C0.338,-0.542 0.381,-0.529 0.409,-0.502C0.438,-0.475 0.452,-0.434 0.452,-0.377L0.452,-0.137C0.452,-0.082 0.469,-0.055 0.502,-0.055C0.507,-0.055 0.513,-0.055 0.521,-0.057L0.528,-0.003C0.506,0.007 0.482,0.012 0.456,0.012C0.411,0.012 0.382,-0.014 0.37,-0.067ZM0.355,-0.12L0.355,-0.257L0.323,-0.258C0.271,-0.258 0.228,-0.248 0.195,-0.228C0.163,-0.208 0.146,-0.181 0.146,-0.149C0.146,-0.126 0.155,-0.106 0.171,-0.09C0.187,-0.074 0.207,-0.066 0.23,-0.066C0.271,-0.066 0.312,-0.084 0.355,-0.12Z" style="fill-rule:nonzero;"/>
            </g>
            <g transform="matrix(11.9552,0,0,11.9552,187.284,17.686)">
                <rect x="0.096" y="-0.771" width="0.096" height="0.771" style="fill-rule:nonzero;"/>
            </g>
            <g transform="matrix(11.9552,0,0,11.9552,193.358,17.686)">
                <path d="M0.093,-0L0.093,-0.723L0.194,-0.723L0.558,-0.165L0.558,-0.723L0.646,-0.723L0.646,-0L0.545,-0L0.181,-0.558L0.181,-0L0.093,-0Z" style="fill-rule:nonzero;"/>
            </g>
            <g transform="matrix(11.9552,0,0,11.9552,201.701,17.686)">
                <path d="M0.485,-0.017C0.42,0.002 0.365,0.012 0.319,0.012C0.241,0.012 0.177,-0.014 0.128,-0.066C0.079,-0.118 0.054,-0.185 0.054,-0.268C0.054,-0.348 0.076,-0.414 0.119,-0.465C0.163,-0.517 0.218,-0.542 0.286,-0.542C0.35,-0.542 0.4,-0.52 0.435,-0.474C0.47,-0.429 0.487,-0.364 0.487,-0.28L0.487,-0.25L0.152,-0.25C0.166,-0.124 0.228,-0.061 0.337,-0.061C0.377,-0.061 0.427,-0.072 0.485,-0.093L0.485,-0.017ZM0.157,-0.322L0.391,-0.322C0.391,-0.421 0.354,-0.47 0.28,-0.47C0.206,-0.47 0.165,-0.421 0.157,-0.322Z" style="fill-rule:nonzero;"/>
            </g>
            <g transform="matrix(11.9552,0,0,11.9552,207.873,17.686)">
                <path d="M0.255,0.012C0.207,0.012 0.168,-0.002 0.141,-0.03C0.114,-0.058 0.1,-0.097 0.1,-0.146L0.1,-0.458L0.034,-0.458L0.034,-0.53L0.1,-0.53L0.1,-0.626L0.196,-0.636L0.196,-0.53L0.335,-0.53L0.335,-0.458L0.196,-0.458L0.196,-0.164C0.196,-0.095 0.226,-0.06 0.286,-0.06C0.299,-0.06 0.314,-0.062 0.333,-0.066L0.333,-0C0.303,0.008 0.277,0.012 0.255,0.012Z" style="fill-rule:nonzero;"/>
            </g>
            <g transform="matrix(11.9552,0,0,11.9552,211.856,17.686)">
                <path d="M0.158,-0L0.006,-0.53L0.1,-0.53L0.216,-0.12L0.342,-0.53L0.438,-0.53L0.548,-0.12L0.681,-0.53L0.764,-0.53L0.591,-0L0.494,-0L0.382,-0.411L0.255,-0L0.158,-0Z" style="fill-rule:nonzero;"/>
            </g>
            <g transform="matrix(11.9552,0,0,11.9552,220.579,17.686)">
                <path d="M0.304,0.012C0.228,0.012 0.167,-0.013 0.122,-0.063C0.077,-0.114 0.054,-0.181 0.054,-0.265C0.054,-0.35 0.077,-0.418 0.122,-0.468C0.168,-0.517 0.229,-0.542 0.307,-0.542C0.385,-0.542 0.447,-0.517 0.492,-0.468C0.537,-0.418 0.56,-0.351 0.56,-0.266C0.56,-0.18 0.537,-0.111 0.492,-0.062C0.446,-0.013 0.383,0.012 0.304,0.012ZM0.305,-0.06C0.407,-0.06 0.458,-0.129 0.458,-0.266C0.458,-0.402 0.408,-0.47 0.307,-0.47C0.207,-0.47 0.157,-0.402 0.157,-0.265C0.157,-0.128 0.206,-0.06 0.305,-0.06Z" style="fill-rule:nonzero;"/>
            </g>
            <g transform="matrix(11.9552,0,0,11.9552,227.433,17.686)">
                <path d="M0.096,-0L0.096,-0.53L0.192,-0.53L0.192,-0.431C0.23,-0.505 0.286,-0.542 0.358,-0.542C0.368,-0.542 0.378,-0.541 0.389,-0.54L0.389,-0.45C0.373,-0.455 0.358,-0.458 0.345,-0.458C0.284,-0.458 0.233,-0.422 0.192,-0.35L0.192,-0L0.096,-0Z" style="fill-rule:nonzero;"/>
            </g>
            <g transform="matrix(11.9552,0,0,11.9552,231.837,17.686)">
                <path d="M0.096,-0L0.096,-0.771L0.192,-0.771L0.192,-0.273L0.417,-0.53L0.521,-0.53L0.306,-0.283L0.565,-0L0.442,-0L0.192,-0.272L0.192,-0L0.096,-0Z" style="fill-rule:nonzero;"/>
            </g>
            <g transform="matrix(11.9552,0,0,11.9552,238.335,17.686)">
                <path d="M0.237,0.012C0.193,0.012 0.139,0.002 0.077,-0.019L0.077,-0.107C0.139,-0.076 0.194,-0.06 0.241,-0.06C0.268,-0.06 0.291,-0.068 0.31,-0.083C0.328,-0.097 0.337,-0.116 0.337,-0.139C0.337,-0.172 0.311,-0.199 0.26,-0.22L0.204,-0.244C0.121,-0.279 0.08,-0.328 0.08,-0.393C0.08,-0.439 0.096,-0.476 0.129,-0.502C0.161,-0.529 0.206,-0.542 0.263,-0.542C0.293,-0.542 0.329,-0.538 0.373,-0.53L0.393,-0.526L0.393,-0.446C0.339,-0.462 0.297,-0.47 0.265,-0.47C0.203,-0.47 0.172,-0.447 0.172,-0.402C0.172,-0.373 0.196,-0.349 0.243,-0.329L0.289,-0.31C0.341,-0.287 0.379,-0.264 0.4,-0.24C0.422,-0.215 0.433,-0.184 0.433,-0.147C0.433,-0.101 0.415,-0.063 0.378,-0.033C0.341,-0.003 0.294,0.012 0.237,0.012Z" style="fill-rule:nonzero;"/>
            </g>
        </g>
        <g transform="matrix(0.697867,0,0,0.92553,44.6221,35.6034)">
            <g transform="matrix(17.1952,0,0,12.9655,43.129,48.7216)">
                <rect x="0.093" y="-0.723" width="0.103" height="0.723" style="fill-rule:nonzero;"/>
            </g>
            <g transform="matrix(13.3664,0,0,10.0785,48.0827,54.4783)">
                <path d="M0.15,-0L0.15,-0.072L0.295,-0.072L0.295,-0.643L0.15,-0.606L0.15,-0.681L0.392,-0.741L0.392,-0.072L0.536,-0.072L0.536,-0L0.15,-0Z" style="fill-rule:nonzero;"/>
            </g>
            <g transform="matrix(17.1952,0,0,12.9655,61.9753,48.7216)">
                <rect x="0.072" y="-0.325" width="0.434" height="0.072" style="fill-rule:nonzero;"/>
            </g>
            <g transform="matrix(17.1952,0,0,12.9655,77.3653,48.7216)">
                <path d="M0.102,-0.005L0.102,-0.095C0.171,-0.068 0.225,-0.054 0.265,-0.054C0.311,-0.054 0.348,-0.068 0.377,-0.094C0.406,-0.121 0.42,-0.156 0.42,-0.199C0.42,-0.3 0.349,-0.351 0.207,-0.351L0.168,-0.351L0.168,-0.416L0.202,-0.417C0.336,-0.417 0.402,-0.464 0.402,-0.558C0.402,-0.632 0.358,-0.668 0.271,-0.668C0.222,-0.668 0.169,-0.655 0.111,-0.628L0.111,-0.712C0.168,-0.731 0.224,-0.741 0.277,-0.741C0.425,-0.741 0.499,-0.685 0.499,-0.573C0.499,-0.488 0.449,-0.428 0.348,-0.392C0.465,-0.365 0.523,-0.301 0.523,-0.2C0.523,-0.132 0.5,-0.079 0.456,-0.04C0.411,-0.001 0.349,0.018 0.271,0.018C0.226,0.018 0.17,0.01 0.102,-0.005Z" style="fill-rule:nonzero;"/>
            </g>
        </g>
        <g transform="matrix(0.68874,0,0,1.01262,44.4465,128.9)">
            <g transform="matrix(17.4231,0,0,11.8504,43.129,47.5753)">
                <rect x="0.093" y="-0.723" width="0.103" height="0.723" style="fill-rule:nonzero;"/>
            </g>
            <g transform="matrix(13.5436,0,0,9.21172,48.1483,52.8369)">
                <path d="M0.083,-0L0.083,-0.084C0.111,-0.15 0.168,-0.221 0.253,-0.298L0.308,-0.348C0.379,-0.412 0.415,-0.475 0.415,-0.539C0.415,-0.579 0.402,-0.611 0.378,-0.634C0.354,-0.657 0.321,-0.668 0.278,-0.668C0.228,-0.668 0.169,-0.649 0.101,-0.61L0.101,-0.695C0.165,-0.726 0.229,-0.741 0.292,-0.741C0.36,-0.741 0.414,-0.722 0.455,-0.686C0.496,-0.65 0.517,-0.601 0.517,-0.541C0.517,-0.498 0.506,-0.459 0.486,-0.426C0.465,-0.392 0.426,-0.352 0.37,-0.304L0.333,-0.272C0.256,-0.207 0.211,-0.144 0.199,-0.084L0.513,-0.084L0.513,-0L0.083,-0Z" style="fill-rule:nonzero;"/>
            </g>
            <g transform="matrix(17.4231,0,0,11.8504,62.225,47.5753)">
                <rect x="0.072" y="-0.325" width="0.434" height="0.072" style="fill-rule:nonzero;"/>
            </g>
            <g transform="matrix(17.4231,0,0,11.8504,77.819,47.5753)">
                <path d="M0.102,-0.005L0.102,-0.095C0.171,-0.068 0.225,-0.054 0.265,-0.054C0.311,-0.054 0.348,-0.068 0.377,-0.094C0.406,-0.121 0.42,-0.156 0.42,-0.199C0.42,-0.3 0.349,-0.351 0.207,-0.351L0.168,-0.351L0.168,-0.416L0.202,-0.417C0.336,-0.417 0.402,-0.464 0.402,-0.558C0.402,-0.632 0.358,-0.668 0.271,-0.668C0.222,-0.668 0.169,-0.655 0.111,-0.628L0.111,-0.712C0.168,-0.731 0.224,-0.741 0.277,-0.741C0.425,-0.741 0.499,-0.685 0.499,-0.573C0.499,-0.488 0.449,-0.428 0.348,-0.392C0.465,-0.365 0.523,-0.301 0.523,-0.2C0.523,-0.132 0.5,-0.079 0.456,-0.04C0.411,-0.001 0.349,0.018 0.271,0.018C0.226,0.018 0.17,0.01 0.102,-0.005Z" style="fill-rule:nonzero;"/>
            </g>
        </g>
    </g>
</svg>
