<?xml version="1.0" encoding="UTF-8" standalone="no"?>
<!DOCTYPE svg PUBLIC "-//W3C//DTD SVG 1.1//EN" "http://www.w3.org/Graphics/SVG/1.1/DTD/svg11.dtd">
<svg width="100%" height="100%" viewBox="0 0 464 368" version="1.1" xmlns="http://www.w3.org/2000/svg" xmlns:xlink="http://www.w3.org/1999/xlink" xml:space="preserve" xmlns:serif="http://www.serif.com/" style="fill-rule:evenodd;clip-rule:evenodd;stroke-miterlimit:10;">
    <g id="ALL-NODE-PLOTS" serif:id="ALL NODE PLOTS">
    </g>
    <g id="AL-ICNN-PLOTS" serif:id="AL ICNN PLOTS">
    </g>
    <g id="ALL-CANN-PLOTS" serif:id="ALL CANN PLOTS">
    </g>
    <g id="ALL-EXP-PLOTS" serif:id="ALL EXP PLOTS">
    </g>
    <g id="ALL-AXES" serif:id="ALL AXES">
        <g id="AXES-UT" serif:id="AXES UT">
            <g id="AXES-UT-UT" serif:id="AXES UT UT">
                <g transform="matrix(1,0,0,1,42.766,108.286)">
                    <path d="M0,2.126L0,-2.126M85.035,2.126L85.035,-2.126" style="fill:none;fill-rule:nonzero;stroke:rgb(128,128,128);stroke-width:0.2px;"/>
                </g>
                <g transform="matrix(1,0,0,1,42.766,23.2507)">
                    <path d="M-2.126,85.035L2.126,85.035M-2.126,0L2.126,0" style="fill:none;fill-rule:nonzero;stroke:rgb(128,128,128);stroke-width:0.2px;"/>
                </g>
                <g transform="matrix(1,0,0,1,42.766,108.286)">
                    <path d="M0,0L83.043,0" style="fill:none;fill-rule:nonzero;stroke:black;stroke-width:0.4px;"/>
                </g>
                <g transform="matrix(1,0,0,1,125.809,108.286)">
                    <path d="M1.993,0L-1.196,-1.594L0,0L-1.196,1.594" style="fill-rule:nonzero;"/>
                </g>
                <g transform="matrix(0,-1,-1,0,84.2874,66.7646)">
                    <path d="M-41.521,41.521L41.521,41.521" style="fill:none;fill-rule:nonzero;stroke:black;stroke-width:0.4px;"/>
                </g>
                <g transform="matrix(0,-1,1,0,42.766,25.2432)">
                    <path d="M1.993,0L-1.196,-1.594L0,0L-1.196,1.594" style="fill-rule:nonzero;"/>
                </g>
                <g transform="matrix(11.9552,0,0,11.9552,33.986,122.217)">
                    <path d="M0.15,-0L0.15,-0.072L0.295,-0.072L0.295,-0.643L0.15,-0.606L0.15,-0.681L0.392,-0.741L0.392,-0.072L0.536,-0.072L0.536,-0L0.15,-0Z" style="fill-rule:nonzero;"/>
                </g>
                <g transform="matrix(11.9552,0,0,11.9552,119.02,122.217)">
                    <path d="M0.23,-0.394C0.159,-0.443 0.124,-0.497 0.124,-0.557C0.124,-0.611 0.144,-0.656 0.184,-0.69C0.224,-0.724 0.276,-0.741 0.341,-0.741C0.4,-0.741 0.449,-0.727 0.486,-0.698C0.523,-0.669 0.541,-0.631 0.541,-0.585C0.541,-0.515 0.496,-0.451 0.406,-0.394C0.515,-0.34 0.57,-0.271 0.57,-0.187C0.57,-0.126 0.547,-0.077 0.501,-0.039C0.455,-0.001 0.396,0.018 0.324,0.018C0.253,0.018 0.196,0 0.152,-0.036C0.108,-0.072 0.086,-0.119 0.086,-0.178C0.086,-0.264 0.134,-0.336 0.23,-0.394ZM0.353,-0.424C0.42,-0.468 0.454,-0.517 0.454,-0.572C0.454,-0.601 0.442,-0.624 0.42,-0.642C0.397,-0.66 0.368,-0.668 0.331,-0.668C0.296,-0.668 0.267,-0.66 0.245,-0.642C0.222,-0.625 0.211,-0.602 0.211,-0.575C0.211,-0.548 0.221,-0.524 0.241,-0.502C0.261,-0.481 0.299,-0.455 0.353,-0.424ZM0.282,-0.354C0.243,-0.325 0.217,-0.298 0.203,-0.276C0.19,-0.254 0.183,-0.226 0.183,-0.193C0.183,-0.152 0.196,-0.118 0.223,-0.093C0.249,-0.067 0.285,-0.054 0.328,-0.054C0.37,-0.054 0.404,-0.065 0.431,-0.087C0.457,-0.109 0.471,-0.137 0.471,-0.172C0.471,-0.2 0.462,-0.224 0.446,-0.243C0.43,-0.262 0.398,-0.286 0.351,-0.314L0.282,-0.354Z" style="fill-rule:nonzero;"/>
                </g>
                <g transform="matrix(11.9552,0,0,11.9552,30.686,112.138)">
                    <path d="M0.313,0.018C0.239,0.018 0.179,-0.017 0.133,-0.087C0.087,-0.157 0.063,-0.249 0.063,-0.362C0.063,-0.476 0.087,-0.567 0.133,-0.637C0.179,-0.706 0.241,-0.741 0.316,-0.741C0.392,-0.741 0.453,-0.706 0.5,-0.637C0.546,-0.567 0.569,-0.476 0.569,-0.363C0.569,-0.247 0.546,-0.155 0.5,-0.086C0.453,-0.017 0.391,0.018 0.313,0.018ZM0.314,-0.054C0.416,-0.054 0.467,-0.158 0.467,-0.365C0.467,-0.567 0.417,-0.668 0.316,-0.668C0.216,-0.668 0.166,-0.566 0.166,-0.362C0.166,-0.157 0.215,-0.054 0.314,-0.054Z" style="fill-rule:nonzero;"/>
                </g>
                <g transform="matrix(11.9552,0,0,11.9552,30.686,27.104)">
                    <path d="M0.15,-0C0.16,-0.056 0.173,-0.105 0.191,-0.146C0.208,-0.187 0.239,-0.243 0.283,-0.315L0.48,-0.632L0.108,-0.632L0.108,-0.723L0.572,-0.723L0.572,-0.632C0.387,-0.359 0.283,-0.148 0.261,-0L0.15,-0Z" style="fill-rule:nonzero;"/>
                </g>
                <g>
                    <g transform="matrix(11.9552,0,0,11.9552,60.7,120.761)">
                        <path d="M0.237,0.012C0.193,0.012 0.139,0.002 0.077,-0.019L0.077,-0.107C0.139,-0.076 0.194,-0.06 0.241,-0.06C0.268,-0.06 0.291,-0.068 0.31,-0.083C0.328,-0.097 0.337,-0.116 0.337,-0.139C0.337,-0.172 0.311,-0.199 0.26,-0.22L0.204,-0.244C0.121,-0.279 0.08,-0.328 0.08,-0.393C0.08,-0.439 0.096,-0.476 0.129,-0.502C0.161,-0.529 0.206,-0.542 0.263,-0.542C0.293,-0.542 0.329,-0.538 0.373,-0.53L0.393,-0.526L0.393,-0.446C0.339,-0.462 0.297,-0.47 0.265,-0.47C0.203,-0.47 0.172,-0.447 0.172,-0.402C0.172,-0.373 0.196,-0.349 0.243,-0.329L0.289,-0.31C0.341,-0.287 0.379,-0.264 0.4,-0.24C0.422,-0.215 0.433,-0.184 0.433,-0.147C0.433,-0.101 0.415,-0.063 0.378,-0.033C0.341,-0.003 0.294,0.012 0.237,0.012Z" style="fill-rule:nonzero;"/>
                    </g>
                    <g transform="matrix(11.9552,0,0,11.9552,65.8029,120.761)">
                        <path d="M0.255,0.012C0.207,0.012 0.168,-0.002 0.141,-0.03C0.114,-0.058 0.1,-0.097 0.1,-0.146L0.1,-0.458L0.034,-0.458L0.034,-0.53L0.1,-0.53L0.1,-0.626L0.196,-0.636L0.196,-0.53L0.335,-0.53L0.335,-0.458L0.196,-0.458L0.196,-0.164C0.196,-0.095 0.226,-0.06 0.286,-0.06C0.299,-0.06 0.314,-0.062 0.333,-0.066L0.333,-0C0.303,0.008 0.277,0.012 0.255,0.012Z" style="fill-rule:nonzero;"/>
                    </g>
                    <g transform="matrix(11.9552,0,0,11.9552,69.2831,120.761)">
                        <path d="M0.096,-0L0.096,-0.53L0.192,-0.53L0.192,-0.431C0.23,-0.505 0.286,-0.542 0.358,-0.542C0.368,-0.542 0.378,-0.541 0.389,-0.54L0.389,-0.45C0.373,-0.455 0.358,-0.458 0.345,-0.458C0.284,-0.458 0.233,-0.422 0.192,-0.35L0.192,-0L0.096,-0Z" style="fill-rule:nonzero;"/>
                    </g>
                    <g transform="matrix(11.9552,0,0,11.9552,73.1835,120.761)">
                        <path d="M0.485,-0.017C0.42,0.002 0.365,0.012 0.319,0.012C0.241,0.012 0.177,-0.014 0.128,-0.066C0.079,-0.118 0.054,-0.185 0.054,-0.268C0.054,-0.348 0.076,-0.414 0.119,-0.465C0.163,-0.517 0.218,-0.542 0.286,-0.542C0.35,-0.542 0.4,-0.52 0.435,-0.474C0.47,-0.429 0.487,-0.364 0.487,-0.28L0.487,-0.25L0.152,-0.25C0.166,-0.124 0.228,-0.061 0.337,-0.061C0.377,-0.061 0.427,-0.072 0.485,-0.093L0.485,-0.017ZM0.157,-0.322L0.391,-0.322C0.391,-0.421 0.354,-0.47 0.28,-0.47C0.206,-0.47 0.165,-0.421 0.157,-0.322Z" style="fill-rule:nonzero;"/>
                    </g>
                    <g transform="matrix(11.9552,0,0,11.9552,78.8527,120.761)">
                        <path d="M0.255,0.012C0.207,0.012 0.168,-0.002 0.141,-0.03C0.114,-0.058 0.1,-0.097 0.1,-0.146L0.1,-0.458L0.034,-0.458L0.034,-0.53L0.1,-0.53L0.1,-0.626L0.196,-0.636L0.196,-0.53L0.335,-0.53L0.335,-0.458L0.196,-0.458L0.196,-0.164C0.196,-0.095 0.226,-0.06 0.286,-0.06C0.299,-0.06 0.314,-0.062 0.333,-0.066L0.333,-0C0.303,0.008 0.277,0.012 0.255,0.012Z" style="fill-rule:nonzero;"/>
                    </g>
                    <g transform="matrix(11.9552,0,0,11.9552,82.3328,120.761)">
                        <path d="M0.303,0.012C0.232,0.012 0.172,-0.014 0.125,-0.067C0.078,-0.12 0.054,-0.187 0.054,-0.268C0.054,-0.354 0.078,-0.422 0.124,-0.47C0.171,-0.518 0.236,-0.542 0.32,-0.542C0.361,-0.542 0.407,-0.536 0.458,-0.525L0.458,-0.444C0.404,-0.46 0.36,-0.468 0.326,-0.468C0.277,-0.468 0.237,-0.45 0.207,-0.413C0.177,-0.376 0.163,-0.327 0.163,-0.265C0.163,-0.206 0.178,-0.157 0.208,-0.121C0.239,-0.084 0.279,-0.065 0.329,-0.065C0.373,-0.065 0.418,-0.077 0.464,-0.099L0.464,-0.016C0.402,0.003 0.348,0.012 0.303,0.012Z" style="fill-rule:nonzero;"/>
                    </g>
                    <g transform="matrix(11.9552,0,0,11.9552,87.4649,120.761)">
                        <path d="M0.096,-0L0.096,-0.771L0.192,-0.771L0.192,-0.431C0.243,-0.505 0.305,-0.542 0.379,-0.542C0.425,-0.542 0.461,-0.527 0.489,-0.498C0.516,-0.469 0.53,-0.43 0.53,-0.381L0.53,-0L0.434,-0L0.434,-0.35C0.434,-0.389 0.428,-0.417 0.416,-0.434C0.405,-0.451 0.386,-0.459 0.359,-0.459C0.3,-0.459 0.244,-0.42 0.192,-0.343L0.192,-0L0.096,-0Z" style="fill-rule:nonzero;"/>
                    </g>
                    <g transform="matrix(11.9552,0,0,11.9552,99.4588,120.761)">
                        <path d="M0.096,0.145L0.096,-0.771L0.289,-0.771L0.289,-0.699L0.181,-0.699L0.181,0.072L0.289,0.072L0.289,0.145L0.096,0.145Z" style="fill-rule:nonzero;"/>
                    </g>
                    <g transform="matrix(11.9552,0,0,11.9552,102.355,120.761)">
                        <rect x="0.072" y="-0.325" width="0.434" height="0.072" style="fill-rule:nonzero;"/>
                    </g>
                    <g transform="matrix(11.9552,0,0,11.9552,108.281,120.761)">
                        <path d="M0.229,0.145L0.229,-0.771L0.036,-0.771L0.036,-0.699L0.145,-0.699L0.145,0.072L0.036,0.072L0.036,0.145L0.229,0.145Z" style="fill-rule:nonzero;"/>
                    </g>
                </g>
                <g transform="matrix(0,-1,1,0,0,0)">
                    <g transform="matrix(11.9552,0,0,11.9552,-94.886,36.336)">
                        <path d="M0.237,0.012C0.193,0.012 0.139,0.002 0.077,-0.019L0.077,-0.107C0.139,-0.076 0.194,-0.06 0.241,-0.06C0.268,-0.06 0.291,-0.068 0.31,-0.083C0.328,-0.097 0.337,-0.116 0.337,-0.139C0.337,-0.172 0.311,-0.199 0.26,-0.22L0.204,-0.244C0.121,-0.279 0.08,-0.328 0.08,-0.393C0.08,-0.439 0.096,-0.476 0.129,-0.502C0.161,-0.529 0.206,-0.542 0.263,-0.542C0.293,-0.542 0.329,-0.538 0.373,-0.53L0.393,-0.526L0.393,-0.446C0.339,-0.462 0.297,-0.47 0.265,-0.47C0.203,-0.47 0.172,-0.447 0.172,-0.402C0.172,-0.373 0.196,-0.349 0.243,-0.329L0.289,-0.31C0.341,-0.287 0.379,-0.264 0.4,-0.24C0.422,-0.215 0.433,-0.184 0.433,-0.147C0.433,-0.101 0.415,-0.063 0.378,-0.033C0.341,-0.003 0.294,0.012 0.237,0.012Z" style="fill-rule:nonzero;"/>
                    </g>
                    <g transform="matrix(11.9552,0,0,11.9552,-89.5224,36.336)">
                        <path d="M0.255,0.012C0.207,0.012 0.168,-0.002 0.141,-0.03C0.114,-0.058 0.1,-0.097 0.1,-0.146L0.1,-0.458L0.034,-0.458L0.034,-0.53L0.1,-0.53L0.1,-0.626L0.196,-0.636L0.196,-0.53L0.335,-0.53L0.335,-0.458L0.196,-0.458L0.196,-0.164C0.196,-0.095 0.226,-0.06 0.286,-0.06C0.299,-0.06 0.314,-0.062 0.333,-0.066L0.333,-0C0.303,0.008 0.277,0.012 0.255,0.012Z" style="fill-rule:nonzero;"/>
                    </g>
                    <g transform="matrix(11.9552,0,0,11.9552,-85.7817,36.336)">
                        <path d="M0.096,-0L0.096,-0.53L0.192,-0.53L0.192,-0.431C0.23,-0.505 0.286,-0.542 0.358,-0.542C0.368,-0.542 0.378,-0.541 0.389,-0.54L0.389,-0.45C0.373,-0.455 0.358,-0.458 0.345,-0.458C0.284,-0.458 0.233,-0.422 0.192,-0.35L0.192,-0L0.096,-0Z" style="fill-rule:nonzero;"/>
                    </g>
                    <g transform="matrix(11.9552,0,0,11.9552,-81.6207,36.336)">
                        <path d="M0.485,-0.017C0.42,0.002 0.365,0.012 0.319,0.012C0.241,0.012 0.177,-0.014 0.128,-0.066C0.079,-0.118 0.054,-0.185 0.054,-0.268C0.054,-0.348 0.076,-0.414 0.119,-0.465C0.163,-0.517 0.218,-0.542 0.286,-0.542C0.35,-0.542 0.4,-0.52 0.435,-0.474C0.47,-0.429 0.487,-0.364 0.487,-0.28L0.487,-0.25L0.152,-0.25C0.166,-0.124 0.228,-0.061 0.337,-0.061C0.377,-0.061 0.427,-0.072 0.485,-0.093L0.485,-0.017ZM0.157,-0.322L0.391,-0.322C0.391,-0.421 0.354,-0.47 0.28,-0.47C0.206,-0.47 0.165,-0.421 0.157,-0.322Z" style="fill-rule:nonzero;"/>
                    </g>
                    <g transform="matrix(11.9552,0,0,11.9552,-75.6909,36.336)">
                        <path d="M0.237,0.012C0.193,0.012 0.139,0.002 0.077,-0.019L0.077,-0.107C0.139,-0.076 0.194,-0.06 0.241,-0.06C0.268,-0.06 0.291,-0.068 0.31,-0.083C0.328,-0.097 0.337,-0.116 0.337,-0.139C0.337,-0.172 0.311,-0.199 0.26,-0.22L0.204,-0.244C0.121,-0.279 0.08,-0.328 0.08,-0.393C0.08,-0.439 0.096,-0.476 0.129,-0.502C0.161,-0.529 0.206,-0.542 0.263,-0.542C0.293,-0.542 0.329,-0.538 0.373,-0.53L0.393,-0.526L0.393,-0.446C0.339,-0.462 0.297,-0.47 0.265,-0.47C0.203,-0.47 0.172,-0.447 0.172,-0.402C0.172,-0.373 0.196,-0.349 0.243,-0.329L0.289,-0.31C0.341,-0.287 0.379,-0.264 0.4,-0.24C0.422,-0.215 0.433,-0.184 0.433,-0.147C0.433,-0.101 0.415,-0.063 0.378,-0.033C0.341,-0.003 0.294,0.012 0.237,0.012Z" style="fill-rule:nonzero;"/>
                    </g>
                    <g transform="matrix(11.9552,0,0,11.9552,-70.3273,36.336)">
                        <path d="M0.237,0.012C0.193,0.012 0.139,0.002 0.077,-0.019L0.077,-0.107C0.139,-0.076 0.194,-0.06 0.241,-0.06C0.268,-0.06 0.291,-0.068 0.31,-0.083C0.328,-0.097 0.337,-0.116 0.337,-0.139C0.337,-0.172 0.311,-0.199 0.26,-0.22L0.204,-0.244C0.121,-0.279 0.08,-0.328 0.08,-0.393C0.08,-0.439 0.096,-0.476 0.129,-0.502C0.161,-0.529 0.206,-0.542 0.263,-0.542C0.293,-0.542 0.329,-0.538 0.373,-0.53L0.393,-0.526L0.393,-0.446C0.339,-0.462 0.297,-0.47 0.265,-0.47C0.203,-0.47 0.172,-0.447 0.172,-0.402C0.172,-0.373 0.196,-0.349 0.243,-0.329L0.289,-0.31C0.341,-0.287 0.379,-0.264 0.4,-0.24C0.422,-0.215 0.433,-0.184 0.433,-0.147C0.433,-0.101 0.415,-0.063 0.378,-0.033C0.341,-0.003 0.294,0.012 0.237,0.012Z" style="fill-rule:nonzero;"/>
                    </g>
                    <g transform="matrix(11.9552,0,0,11.9552,-62.8293,36.336)">
                        <path d="M0.096,0.145L0.096,-0.771L0.289,-0.771L0.289,-0.699L0.181,-0.699L0.181,0.072L0.289,0.072L0.289,0.145L0.096,0.145Z" style="fill-rule:nonzero;"/>
                    </g>
                    <g transform="matrix(11.9552,0,0,11.9552,-59.6723,36.336)">
                        <path d="M0.096,-0L0.096,-0.771L0.192,-0.771L0.192,-0.273L0.417,-0.53L0.521,-0.53L0.306,-0.283L0.565,-0L0.442,-0L0.192,-0.272L0.192,-0L0.096,-0Z" style="fill-rule:nonzero;"/>
                    </g>
                    <g transform="matrix(11.9552,0,0,11.9552,-53.4157,36.336)">
                        <path d="M0.093,-0L0.093,-0.723L0.29,-0.723C0.377,-0.723 0.44,-0.708 0.478,-0.678C0.516,-0.649 0.535,-0.601 0.535,-0.533C0.535,-0.456 0.509,-0.396 0.457,-0.353C0.405,-0.309 0.333,-0.287 0.24,-0.287L0.195,-0.287L0.195,-0L0.093,-0ZM0.195,-0.365L0.236,-0.365C0.297,-0.365 0.344,-0.379 0.377,-0.407C0.411,-0.435 0.427,-0.474 0.427,-0.525C0.427,-0.569 0.414,-0.6 0.388,-0.618C0.362,-0.637 0.319,-0.646 0.258,-0.646L0.195,-0.646L0.195,-0.365Z" style="fill-rule:nonzero;"/>
                    </g>
                    <g transform="matrix(11.9552,0,0,11.9552,-47.5384,36.336)">
                        <path d="M0.37,-0.067C0.312,-0.014 0.257,0.012 0.203,0.012C0.159,0.012 0.123,-0.002 0.094,-0.029C0.065,-0.057 0.05,-0.091 0.05,-0.133C0.05,-0.191 0.075,-0.236 0.123,-0.267C0.172,-0.298 0.242,-0.313 0.333,-0.313L0.355,-0.313L0.355,-0.377C0.355,-0.439 0.324,-0.47 0.261,-0.47C0.21,-0.47 0.155,-0.454 0.096,-0.423L0.096,-0.502C0.161,-0.529 0.222,-0.542 0.278,-0.542C0.338,-0.542 0.381,-0.529 0.409,-0.502C0.438,-0.475 0.452,-0.434 0.452,-0.377L0.452,-0.137C0.452,-0.082 0.469,-0.055 0.502,-0.055C0.507,-0.055 0.513,-0.055 0.521,-0.057L0.528,-0.003C0.506,0.007 0.482,0.012 0.456,0.012C0.411,0.012 0.382,-0.014 0.37,-0.067ZM0.355,-0.12L0.355,-0.257L0.323,-0.258C0.271,-0.258 0.228,-0.248 0.195,-0.228C0.163,-0.208 0.146,-0.181 0.146,-0.149C0.146,-0.126 0.155,-0.106 0.171,-0.09C0.187,-0.074 0.207,-0.066 0.23,-0.066C0.271,-0.066 0.312,-0.084 0.355,-0.12Z" style="fill-rule:nonzero;"/>
                    </g>
                    <g transform="matrix(11.9552,0,0,11.9552,-41.667,36.336)">
                        <path d="M0.229,0.145L0.229,-0.771L0.036,-0.771L0.036,-0.699L0.145,-0.699L0.145,0.072L0.036,0.072L0.036,0.145L0.229,0.145Z" style="fill-rule:nonzero;"/>
                    </g>
                </g>
            </g>
        </g>
    </g>
    <g transform="matrix(0,-1,1,0,0,0)">
        <g transform="matrix(10.9091,0,0,10.9091,-110.208,11.477)">
            <path d="M0.087,-0.723L0.19,-0.723L0.19,-0.267C0.19,-0.194 0.203,-0.141 0.23,-0.108C0.257,-0.075 0.3,-0.059 0.358,-0.059C0.416,-0.059 0.456,-0.074 0.48,-0.105C0.504,-0.136 0.516,-0.189 0.516,-0.263L0.516,-0.723L0.606,-0.723L0.606,-0.265C0.606,-0.166 0.586,-0.094 0.545,-0.049C0.505,-0.004 0.44,0.018 0.352,0.018C0.261,0.018 0.195,-0.005 0.152,-0.052C0.109,-0.098 0.087,-0.17 0.087,-0.268L0.087,-0.723Z" style="fill-rule:nonzero;"/>
        </g>
        <g transform="matrix(10.9091,0,0,10.9091,-103.027,11.477)">
            <path d="M0.265,-0L0.265,-0.646L0.009,-0.646L0.009,-0.723L0.624,-0.723L0.624,-0.646L0.368,-0.646L0.368,-0L0.265,-0Z" style="fill-rule:nonzero;"/>
        </g>
        <g transform="matrix(10.9091,0,0,10.9091,-90.5155,11.477)">
            <path d="M0.255,0.012C0.207,0.012 0.168,-0.002 0.141,-0.03C0.114,-0.058 0.1,-0.097 0.1,-0.146L0.1,-0.458L0.034,-0.458L0.034,-0.53L0.1,-0.53L0.1,-0.626L0.196,-0.636L0.196,-0.53L0.335,-0.53L0.335,-0.458L0.196,-0.458L0.196,-0.164C0.196,-0.095 0.226,-0.06 0.286,-0.06C0.299,-0.06 0.314,-0.062 0.333,-0.066L0.333,-0C0.303,0.008 0.277,0.012 0.255,0.012Z" style="fill-rule:nonzero;"/>
        </g>
        <g transform="matrix(10.9091,0,0,10.9091,-86.8126,11.477)">
            <path d="M0.485,-0.017C0.42,0.002 0.365,0.012 0.319,0.012C0.241,0.012 0.177,-0.014 0.128,-0.066C0.079,-0.118 0.054,-0.185 0.054,-0.268C0.054,-0.348 0.076,-0.414 0.119,-0.465C0.163,-0.517 0.218,-0.542 0.286,-0.542C0.35,-0.542 0.4,-0.52 0.435,-0.474C0.47,-0.429 0.487,-0.364 0.487,-0.28L0.487,-0.25L0.152,-0.25C0.166,-0.124 0.228,-0.061 0.337,-0.061C0.377,-0.061 0.427,-0.072 0.485,-0.093L0.485,-0.017ZM0.157,-0.322L0.391,-0.322C0.391,-0.421 0.354,-0.47 0.28,-0.47C0.206,-0.47 0.165,-0.421 0.157,-0.322Z" style="fill-rule:nonzero;"/>
        </g>
        <g transform="matrix(10.9091,0,0,10.9091,-81.1122,11.477)">
            <path d="M0.237,0.012C0.193,0.012 0.139,0.002 0.077,-0.019L0.077,-0.107C0.139,-0.076 0.194,-0.06 0.241,-0.06C0.268,-0.06 0.291,-0.068 0.31,-0.083C0.328,-0.097 0.337,-0.116 0.337,-0.139C0.337,-0.172 0.311,-0.199 0.26,-0.22L0.204,-0.244C0.121,-0.279 0.08,-0.328 0.08,-0.393C0.08,-0.439 0.096,-0.476 0.129,-0.502C0.161,-0.529 0.206,-0.542 0.263,-0.542C0.293,-0.542 0.329,-0.538 0.373,-0.53L0.393,-0.526L0.393,-0.446C0.339,-0.462 0.297,-0.47 0.265,-0.47C0.203,-0.47 0.172,-0.447 0.172,-0.402C0.172,-0.373 0.196,-0.349 0.243,-0.329L0.289,-0.31C0.341,-0.287 0.379,-0.264 0.4,-0.24C0.422,-0.215 0.433,-0.184 0.433,-0.147C0.433,-0.101 0.415,-0.063 0.378,-0.033C0.341,-0.003 0.294,0.012 0.237,0.012Z" style="fill-rule:nonzero;"/>
        </g>
        <g transform="matrix(10.9091,0,0,10.9091,-75.9284,11.477)">
            <path d="M0.255,0.012C0.207,0.012 0.168,-0.002 0.141,-0.03C0.114,-0.058 0.1,-0.097 0.1,-0.146L0.1,-0.458L0.034,-0.458L0.034,-0.53L0.1,-0.53L0.1,-0.626L0.196,-0.636L0.196,-0.53L0.335,-0.53L0.335,-0.458L0.196,-0.458L0.196,-0.164C0.196,-0.095 0.226,-0.06 0.286,-0.06C0.299,-0.06 0.314,-0.062 0.333,-0.066L0.333,-0C0.303,0.008 0.277,0.012 0.255,0.012Z" style="fill-rule:nonzero;"/>
        </g>
        <g transform="matrix(10.9091,0,0,10.9091,-69.2362,11.477)">
            <path d="M0.096,0.193L0.096,-0.53L0.192,-0.53L0.192,-0.431C0.232,-0.505 0.291,-0.542 0.37,-0.542C0.433,-0.542 0.484,-0.519 0.52,-0.472C0.557,-0.426 0.575,-0.362 0.575,-0.281C0.575,-0.193 0.554,-0.122 0.513,-0.069C0.471,-0.015 0.417,0.012 0.349,0.012C0.286,0.012 0.234,-0.012 0.192,-0.06L0.192,0.193L0.096,0.193ZM0.192,-0.126C0.242,-0.082 0.289,-0.06 0.334,-0.06C0.426,-0.06 0.473,-0.131 0.473,-0.271C0.473,-0.396 0.432,-0.458 0.35,-0.458C0.296,-0.458 0.243,-0.429 0.192,-0.371L0.192,-0.126Z" style="fill-rule:nonzero;"/>
        </g>
        <g transform="matrix(10.9091,0,0,10.9091,-62.7474,11.477)">
            <path d="M0.096,-0L0.096,-0.53L0.192,-0.53L0.192,-0.431C0.23,-0.505 0.286,-0.542 0.358,-0.542C0.368,-0.542 0.378,-0.541 0.389,-0.54L0.389,-0.45C0.373,-0.455 0.358,-0.458 0.345,-0.458C0.284,-0.458 0.233,-0.422 0.192,-0.35L0.192,-0L0.096,-0Z" style="fill-rule:nonzero;"/>
        </g>
        <g transform="matrix(10.9091,0,0,10.9091,-58.661,11.477)">
            <path d="M0.485,-0.017C0.42,0.002 0.365,0.012 0.319,0.012C0.241,0.012 0.177,-0.014 0.128,-0.066C0.079,-0.118 0.054,-0.185 0.054,-0.268C0.054,-0.348 0.076,-0.414 0.119,-0.465C0.163,-0.517 0.218,-0.542 0.286,-0.542C0.35,-0.542 0.4,-0.52 0.435,-0.474C0.47,-0.429 0.487,-0.364 0.487,-0.28L0.487,-0.25L0.152,-0.25C0.166,-0.124 0.228,-0.061 0.337,-0.061C0.377,-0.061 0.427,-0.072 0.485,-0.093L0.485,-0.017ZM0.157,-0.322L0.391,-0.322C0.391,-0.421 0.354,-0.47 0.28,-0.47C0.206,-0.47 0.165,-0.421 0.157,-0.322Z" style="fill-rule:nonzero;"/>
        </g>
        <g transform="matrix(10.9091,0,0,10.9091,-52.9606,11.477)">
            <path d="M0.437,-0L0.437,-0.1C0.397,-0.025 0.339,0.012 0.26,0.012C0.196,0.012 0.146,-0.011 0.109,-0.058C0.073,-0.104 0.054,-0.168 0.054,-0.249C0.054,-0.337 0.075,-0.408 0.116,-0.461C0.158,-0.515 0.213,-0.542 0.28,-0.542C0.343,-0.542 0.395,-0.518 0.437,-0.47L0.437,-0.771L0.533,-0.771L0.533,-0L0.437,-0ZM0.437,-0.404C0.387,-0.448 0.34,-0.47 0.295,-0.47C0.203,-0.47 0.157,-0.399 0.157,-0.258C0.157,-0.134 0.198,-0.072 0.28,-0.072C0.333,-0.072 0.385,-0.101 0.437,-0.16L0.437,-0.404Z" style="fill-rule:nonzero;"/>
        </g>
        <g transform="matrix(10.9091,0,0,10.9091,-46.4718,11.477)">
            <path d="M0.096,-0L0.096,-0.53L0.192,-0.53L0.192,-0L0.096,-0ZM0.096,-0.626L0.096,-0.723L0.192,-0.723L0.192,-0.626L0.096,-0.626Z" style="fill-rule:nonzero;"/>
        </g>
        <g transform="matrix(10.9091,0,0,10.9091,-43.6957,11.477)">
            <path d="M0.303,0.012C0.232,0.012 0.172,-0.014 0.125,-0.067C0.078,-0.12 0.054,-0.187 0.054,-0.268C0.054,-0.354 0.078,-0.422 0.124,-0.47C0.171,-0.518 0.236,-0.542 0.32,-0.542C0.361,-0.542 0.407,-0.536 0.458,-0.525L0.458,-0.444C0.404,-0.46 0.36,-0.468 0.326,-0.468C0.277,-0.468 0.237,-0.45 0.207,-0.413C0.177,-0.376 0.163,-0.327 0.163,-0.265C0.163,-0.206 0.178,-0.157 0.208,-0.121C0.239,-0.084 0.279,-0.065 0.329,-0.065C0.373,-0.065 0.418,-0.077 0.464,-0.099L0.464,-0.016C0.402,0.003 0.348,0.012 0.303,0.012Z" style="fill-rule:nonzero;"/>
        </g>
        <g transform="matrix(10.9091,0,0,10.9091,-38.4853,11.477)">
            <path d="M0.255,0.012C0.207,0.012 0.168,-0.002 0.141,-0.03C0.114,-0.058 0.1,-0.097 0.1,-0.146L0.1,-0.458L0.034,-0.458L0.034,-0.53L0.1,-0.53L0.1,-0.626L0.196,-0.636L0.196,-0.53L0.335,-0.53L0.335,-0.458L0.196,-0.458L0.196,-0.164C0.196,-0.095 0.226,-0.06 0.286,-0.06C0.299,-0.06 0.314,-0.062 0.333,-0.066L0.333,-0C0.303,0.008 0.277,0.012 0.255,0.012Z" style="fill-rule:nonzero;"/>
        </g>
        <g transform="matrix(10.9091,0,0,10.9091,-34.7824,11.477)">
            <path d="M0.096,-0L0.096,-0.53L0.192,-0.53L0.192,-0L0.096,-0ZM0.096,-0.626L0.096,-0.723L0.192,-0.723L0.192,-0.626L0.096,-0.626Z" style="fill-rule:nonzero;"/>
        </g>
        <g transform="matrix(10.9091,0,0,10.9091,-32.0063,11.477)">
            <path d="M0.304,0.012C0.228,0.012 0.167,-0.013 0.122,-0.063C0.077,-0.114 0.054,-0.181 0.054,-0.265C0.054,-0.35 0.077,-0.418 0.122,-0.468C0.168,-0.517 0.229,-0.542 0.307,-0.542C0.385,-0.542 0.447,-0.517 0.492,-0.468C0.537,-0.418 0.56,-0.351 0.56,-0.266C0.56,-0.18 0.537,-0.111 0.492,-0.062C0.446,-0.013 0.383,0.012 0.304,0.012ZM0.305,-0.06C0.407,-0.06 0.458,-0.129 0.458,-0.266C0.458,-0.402 0.408,-0.47 0.307,-0.47C0.207,-0.47 0.157,-0.402 0.157,-0.265C0.157,-0.128 0.206,-0.06 0.305,-0.06Z" style="fill-rule:nonzero;"/>
        </g>
        <g transform="matrix(10.9091,0,0,10.9091,-25.6827,11.477)">
            <path d="M0.096,-0L0.096,-0.53L0.192,-0.53L0.192,-0.431C0.243,-0.505 0.305,-0.542 0.379,-0.542C0.425,-0.542 0.461,-0.527 0.489,-0.498C0.516,-0.469 0.53,-0.43 0.53,-0.381L0.53,-0L0.434,-0L0.434,-0.35C0.434,-0.389 0.428,-0.417 0.416,-0.434C0.405,-0.451 0.386,-0.459 0.359,-0.459C0.3,-0.459 0.244,-0.42 0.192,-0.343L0.192,-0L0.096,-0Z" style="fill-rule:nonzero;"/>
        </g>
    </g>
    <g id="anchors">
        <g transform="matrix(0.0874319,0,0,0.0874319,0,0)">
            <circle cx="5.719" cy="5.719" r="5.719"/>
        </g>
        <g transform="matrix(0.0874319,0,0,0.0874319,462.849,366.325)">
            <circle cx="5.719" cy="5.719" r="5.719"/>
        </g>
    </g>
</svg>
