<?xml version="1.0" encoding="UTF-8" standalone="no"?>
<!DOCTYPE svg PUBLIC "-//W3C//DTD SVG 1.1//EN" "http://www.w3.org/Graphics/SVG/1.1/DTD/svg11.dtd">
<svg width="100%" height="100%" viewBox="0 0 464 368" version="1.1" xmlns="http://www.w3.org/2000/svg" xmlns:xlink="http://www.w3.org/1999/xlink" xml:space="preserve" xmlns:serif="http://www.serif.com/" style="fill-rule:evenodd;clip-rule:evenodd;stroke-linejoin:round;stroke-miterlimit:2;">
    <g id="ALL-NODE-PLOTS" serif:id="ALL NODE PLOTS">
    </g>
    <g id="AL-ICNN-PLOTS" serif:id="AL ICNN PLOTS">
    </g>
    <g id="ALL-CANN-PLOTS" serif:id="ALL CANN PLOTS">
    </g>
    <g id="ALL-EXP-PLOTS" serif:id="ALL EXP PLOTS">
    </g>
    <g id="ALL-AXES" serif:id="ALL AXES">
    </g>
    <g>
        <g transform="matrix(10.9091,0,0,10.9091,56.631,11.36)">
            <path d="M0.087,-0.723L0.19,-0.723L0.19,-0.267C0.19,-0.194 0.203,-0.141 0.23,-0.108C0.257,-0.075 0.3,-0.059 0.358,-0.059C0.416,-0.059 0.456,-0.074 0.48,-0.105C0.504,-0.136 0.516,-0.189 0.516,-0.263L0.516,-0.723L0.606,-0.723L0.606,-0.265C0.606,-0.166 0.586,-0.094 0.545,-0.049C0.505,-0.004 0.44,0.018 0.352,0.018C0.261,0.018 0.195,-0.005 0.152,-0.052C0.109,-0.098 0.087,-0.17 0.087,-0.268L0.087,-0.723Z" style="fill-rule:nonzero;"/>
        </g>
        <g transform="matrix(10.9091,0,0,10.9091,64.1164,11.36)">
            <path d="M0.265,-0L0.265,-0.646L0.009,-0.646L0.009,-0.723L0.624,-0.723L0.624,-0.646L0.368,-0.646L0.368,-0L0.265,-0Z" style="fill-rule:nonzero;"/>
        </g>
        <g transform="matrix(10.9091,0,0,10.9091,76.3241,11.36)">
            <path d="M0.255,0.012C0.207,0.012 0.168,-0.002 0.141,-0.03C0.114,-0.058 0.1,-0.097 0.1,-0.146L0.1,-0.458L0.034,-0.458L0.034,-0.53L0.1,-0.53L0.1,-0.626L0.196,-0.636L0.196,-0.53L0.335,-0.53L0.335,-0.458L0.196,-0.458L0.196,-0.164C0.196,-0.095 0.226,-0.06 0.286,-0.06C0.299,-0.06 0.314,-0.062 0.333,-0.066L0.333,-0C0.303,0.008 0.277,0.012 0.255,0.012Z" style="fill-rule:nonzero;"/>
        </g>
        <g transform="matrix(10.9091,0,0,10.9091,80.3312,11.36)">
            <path d="M0.096,-0L0.096,-0.53L0.192,-0.53L0.192,-0.431C0.23,-0.505 0.286,-0.542 0.358,-0.542C0.368,-0.542 0.378,-0.541 0.389,-0.54L0.389,-0.45C0.373,-0.455 0.358,-0.458 0.345,-0.458C0.284,-0.458 0.233,-0.422 0.192,-0.35L0.192,-0L0.096,-0Z" style="fill-rule:nonzero;"/>
        </g>
        <g transform="matrix(10.9091,0,0,10.9091,84.7218,11.36)">
            <path d="M0.37,-0.067C0.312,-0.014 0.257,0.012 0.203,0.012C0.159,0.012 0.123,-0.002 0.094,-0.029C0.065,-0.057 0.05,-0.091 0.05,-0.133C0.05,-0.191 0.075,-0.236 0.123,-0.267C0.172,-0.298 0.242,-0.313 0.333,-0.313L0.355,-0.313L0.355,-0.377C0.355,-0.439 0.324,-0.47 0.261,-0.47C0.21,-0.47 0.155,-0.454 0.096,-0.423L0.096,-0.502C0.161,-0.529 0.222,-0.542 0.278,-0.542C0.338,-0.542 0.381,-0.529 0.409,-0.502C0.438,-0.475 0.452,-0.434 0.452,-0.377L0.452,-0.137C0.452,-0.082 0.469,-0.055 0.502,-0.055C0.507,-0.055 0.513,-0.055 0.521,-0.057L0.528,-0.003C0.506,0.007 0.482,0.012 0.456,0.012C0.411,0.012 0.382,-0.014 0.37,-0.067ZM0.355,-0.12L0.355,-0.257L0.323,-0.258C0.271,-0.258 0.228,-0.248 0.195,-0.228C0.163,-0.208 0.146,-0.181 0.146,-0.149C0.146,-0.126 0.155,-0.106 0.171,-0.09C0.187,-0.074 0.207,-0.066 0.23,-0.066C0.271,-0.066 0.312,-0.084 0.355,-0.12Z" style="fill-rule:nonzero;"/>
        </g>
        <g transform="matrix(10.9091,0,0,10.9091,90.6731,11.36)">
            <path d="M0.096,-0L0.096,-0.53L0.192,-0.53L0.192,-0L0.096,-0ZM0.096,-0.626L0.096,-0.723L0.192,-0.723L0.192,-0.626L0.096,-0.626Z" style="fill-rule:nonzero;"/>
        </g>
        <g transform="matrix(10.9091,0,0,10.9091,93.7533,11.36)">
            <path d="M0.096,-0L0.096,-0.53L0.192,-0.53L0.192,-0.431C0.243,-0.505 0.305,-0.542 0.379,-0.542C0.425,-0.542 0.461,-0.527 0.489,-0.498C0.516,-0.469 0.53,-0.43 0.53,-0.381L0.53,-0L0.434,-0L0.434,-0.35C0.434,-0.389 0.428,-0.417 0.416,-0.434C0.405,-0.451 0.386,-0.459 0.359,-0.459C0.3,-0.459 0.244,-0.42 0.192,-0.343L0.192,-0L0.096,-0Z" style="fill-rule:nonzero;"/>
        </g>
        <g transform="matrix(10.9091,0,0,10.9091,100.45,11.36)">
            <path d="M0.096,-0L0.096,-0.53L0.192,-0.53L0.192,-0L0.096,-0ZM0.096,-0.626L0.096,-0.723L0.192,-0.723L0.192,-0.626L0.096,-0.626Z" style="fill-rule:nonzero;"/>
        </g>
        <g transform="matrix(10.9091,0,0,10.9091,103.531,11.36)">
            <path d="M0.096,-0L0.096,-0.53L0.192,-0.53L0.192,-0.431C0.243,-0.505 0.305,-0.542 0.379,-0.542C0.425,-0.542 0.461,-0.527 0.489,-0.498C0.516,-0.469 0.53,-0.43 0.53,-0.381L0.53,-0L0.434,-0L0.434,-0.35C0.434,-0.389 0.428,-0.417 0.416,-0.434C0.405,-0.451 0.386,-0.459 0.359,-0.459C0.3,-0.459 0.244,-0.42 0.192,-0.343L0.192,-0L0.096,-0Z" style="fill-rule:nonzero;"/>
        </g>
        <g transform="matrix(10.9091,0,0,10.9091,110.228,11.36)">
            <path d="M0.098,0.176L0.109,0.093C0.165,0.119 0.22,0.132 0.274,0.132C0.382,0.132 0.437,0.075 0.437,-0.04L0.437,-0.124C0.401,-0.049 0.343,-0.012 0.262,-0.012C0.198,-0.012 0.148,-0.035 0.11,-0.082C0.073,-0.128 0.054,-0.19 0.054,-0.269C0.054,-0.349 0.076,-0.415 0.118,-0.466C0.161,-0.517 0.216,-0.542 0.284,-0.542C0.343,-0.542 0.394,-0.518 0.437,-0.47L0.437,-0.53L0.533,-0.53L0.533,-0.145C0.533,-0.062 0.529,-0 0.52,0.04C0.512,0.08 0.495,0.112 0.472,0.138C0.43,0.182 0.364,0.205 0.276,0.205C0.214,0.205 0.155,0.195 0.098,0.176ZM0.437,-0.184L0.437,-0.404C0.394,-0.448 0.348,-0.47 0.298,-0.47C0.254,-0.47 0.219,-0.452 0.194,-0.417C0.169,-0.381 0.157,-0.332 0.157,-0.271C0.157,-0.154 0.198,-0.096 0.279,-0.096C0.335,-0.096 0.387,-0.125 0.437,-0.184Z" style="fill-rule:nonzero;"/>
        </g>
    </g>
    <g id="anchors">
        <g transform="matrix(0.0874319,0,0,0.0874319,0,0)">
            <circle cx="5.719" cy="5.719" r="5.719"/>
        </g>
        <g transform="matrix(0.0874319,0,0,0.0874319,462.849,366.325)">
            <circle cx="5.719" cy="5.719" r="5.719"/>
        </g>
    </g>
</svg>
