<?xml version="1.0" encoding="UTF-8" standalone="no"?>
<!DOCTYPE svg PUBLIC "-//W3C//DTD SVG 1.1//EN" "http://www.w3.org/Graphics/SVG/1.1/DTD/svg11.dtd">
<svg width="100%" height="100%" viewBox="0 0 464 368" version="1.1" xmlns="http://www.w3.org/2000/svg" xmlns:xlink="http://www.w3.org/1999/xlink" xml:space="preserve" xmlns:serif="http://www.serif.com/" style="fill-rule:evenodd;clip-rule:evenodd;stroke-linejoin:round;stroke-miterlimit:2;">
    <g id="AL-ICNN-PLOTS" serif:id="AL ICNN PLOTS">
        <g id="ICNN-UT" serif:id="ICNN UT">
            <g>
                <g transform="matrix(1,0,0,1,42.766,31.4052)">
                    <path d="M0,77.279C0,77.279 0.16,77.303 0.307,77.135C0.347,77.089 0.562,76.843 0.825,76.543L0.225,76.019L-0.3,76.618C-0.3,76.618 0,77.279 0,77.279Z"/>
                </g>
                <g transform="matrix(1,0,0,1,42.766,31.4052)">
                    <path d="M2.115,75.14C2.279,75.016 2.516,74.836 2.751,74.659L2.27,74.023C2.035,74.201 1.798,74.38 1.634,74.504L2.115,75.14Z"/>
                </g>
                <g transform="matrix(1,0,0,1,42.766,31.4052)">
                    <path d="M4.369,73.604C4.647,73.45 4.922,73.298 5.066,73.218L4.679,72.521C4.536,72.601 4.261,72.753 3.982,72.907L4.369,73.604Z"/>
                </g>
                <g transform="matrix(1,0,0,1,42.766,31.4052)">
                    <path d="M6.832,72.43C6.956,72.383 7.264,72.267 7.578,72.149L7.296,71.403C6.983,71.521 6.675,71.638 6.551,71.684L6.832,72.43Z"/>
                </g>
                <g transform="matrix(1,0,0,1,42.766,31.4052)">
                    <path d="M9.991,71.284C10.032,71.277 10.101,71.263 10.19,71.234L9.95,70.474C9.883,70.495 9.833,70.511 9.833,70.511C9.833,70.511 9.951,71.29 9.951,71.29C9.951,71.29 9.815,70.517 9.815,70.517C9.815,70.517 9.494,70.626 9.186,70.73L9.442,71.485C9.749,71.381 10.07,71.272 10.07,71.272L9.991,71.284Z"/>
                </g>
                <g transform="matrix(1,0,0,1,42.766,31.4052)">
                    <path d="M12.087,70.64C12.31,70.573 12.6,70.485 12.849,70.41L12.618,69.647C12.369,69.722 12.079,69.81 11.856,69.878L12.087,70.64Z"/>
                </g>
                <g transform="matrix(1,0,0,1,42.766,31.4052)">
                    <path d="M15.035,69.758L15.52,69.616L15.295,68.851C15.052,68.923 14.821,68.991 14.821,68.991C14.821,68.991 14.927,69.774 14.927,69.774C14.927,69.774 14.81,68.994 14.81,68.994C14.81,68.994 14.682,69.032 14.53,69.077L14.757,69.841C14.909,69.796 15.037,69.758 15.037,69.758L15.035,69.758Z"/>
                </g>
                <g transform="matrix(1,0,0,1,42.766,31.4052)">
                    <path d="M17.432,69.053C17.717,68.968 18.018,68.88 18.197,68.827L17.971,68.063C17.792,68.115 17.492,68.204 17.206,68.288L17.432,69.053Z"/>
                </g>
                <g transform="matrix(1,0,0,1,42.766,31.4052)">
                    <path d="M20.109,68.256C20.257,68.211 20.566,68.117 20.871,68.024L20.64,67.262C20.335,67.354 20.025,67.448 19.877,67.493L20.109,68.256Z"/>
                </g>
                <g transform="matrix(1,0,0,1,42.766,31.4052)">
                    <path d="M22.778,67.438C23.055,67.352 23.331,67.267 23.331,67.267C23.331,67.267 23.22,67.282 23.22,67.282C23.22,67.282 23.348,67.261 23.542,67.2L23.3,66.44C23.19,66.475 23.101,66.503 23.101,66.503C23.101,66.503 23.22,67.282 23.22,67.282L23.094,66.505C23.094,66.505 22.819,66.591 22.542,66.677L22.778,67.438Z"/>
                </g>
                <g transform="matrix(1,0,0,1,42.766,31.4052)">
                    <path d="M25.442,66.591C25.676,66.515 25.963,66.421 26.2,66.344L25.952,65.586C25.716,65.664 25.429,65.757 25.195,65.834L25.442,66.591Z"/>
                </g>
                <g transform="matrix(1,0,0,1,42.766,31.4052)">
                    <path d="M28.317,65.636L28.851,65.452L28.59,64.699C28.327,64.79 28.072,64.878 28.072,64.878L28.196,65.656C28.196,65.656 28.066,64.88 28.066,64.88C28.066,64.88 27.964,64.915 27.839,64.957L28.093,65.712C28.218,65.67 28.32,65.636 28.32,65.636L28.317,65.636Z"/>
                </g>
                <g transform="matrix(1,0,0,1,42.766,31.4052)">
                    <path d="M30.734,64.791C31.015,64.69 31.309,64.585 31.485,64.522L31.216,63.772C31.04,63.835 30.747,63.94 30.466,64.04L30.734,64.791Z"/>
                </g>
                <g transform="matrix(1,0,0,1,42.766,31.4052)">
                    <path d="M33.362,63.829C33.479,63.784 33.789,63.665 34.106,63.543L33.821,62.799C33.504,62.921 33.193,63.04 33.077,63.085L33.362,63.829Z"/>
                </g>
                <g transform="matrix(1,0,0,1,42.766,31.4052)">
                    <path d="M36.586,62.559C36.621,62.551 36.663,62.537 36.712,62.517L36.407,61.781C36.366,61.798 36.336,61.81 36.336,61.81C36.336,61.81 36.488,62.577 36.488,62.577C36.488,62.577 36.332,61.812 36.332,61.812C36.332,61.812 35.991,61.947 35.672,62.075L35.967,62.815C36.286,62.688 36.627,62.552 36.627,62.552L36.586,62.559Z"/>
                </g>
                <g transform="matrix(1,0,0,1,42.766,31.4052)">
                    <path d="M38.556,61.748C38.751,61.663 39.03,61.543 39.288,61.431L38.971,60.7C38.713,60.811 38.434,60.932 38.24,61.016L38.556,61.748Z"/>
                </g>
                <g transform="matrix(1,0,0,1,42.766,31.4052)">
                    <path d="M41.621,60.387L41.845,60.281L41.502,59.561C41.387,59.616 41.295,59.66 41.295,59.66C41.295,59.66 41.464,60.419 41.464,60.419C41.464,60.419 41.293,59.661 41.293,59.661C41.293,59.661 41.043,59.774 40.785,59.891L41.114,60.617L41.621,60.387Z"/>
                </g>
                <g transform="matrix(1,0,0,1,42.766,31.4052)">
                    <path d="M43.648,59.412C43.853,59.308 44.12,59.174 44.359,59.053L44.001,58.342C43.762,58.462 43.495,58.596 43.289,58.7L43.648,59.412Z"/>
                </g>
                <g transform="matrix(1,0,0,1,42.766,31.4052)">
                    <path d="M46.246,57.162L45.758,57.422L46.133,58.125L46.639,57.855C46.653,57.847 46.73,57.804 46.843,57.74L46.449,57.047L46.246,57.162Z"/>
                </g>
                <g transform="matrix(1,0,0,1,42.766,31.4052)">
                    <path d="M48.581,56.742C48.767,56.629 49.022,56.475 49.262,56.329L48.849,55.648C48.609,55.793 48.354,55.948 48.167,56.061L48.581,56.742Z"/>
                </g>
                <g transform="matrix(1,0,0,1,42.766,31.4052)">
                    <path d="M50.957,55.259C51.285,55.047 51.579,54.856 51.626,54.825L51.192,54.157C51.145,54.187 50.851,54.378 50.523,54.591L50.957,55.259Z"/>
                </g>
                <g transform="matrix(1,0,0,1,42.766,31.4052)">
                    <path d="M52.841,53.009L52.816,53.026L52.861,53.089L53.074,53.731L52.882,53.12L53.265,53.67L53.074,53.731C53.074,53.731 53.158,53.744 53.271,53.678L53.272,53.68C53.289,53.668 53.301,53.659 53.301,53.659L53.3,53.66L53.922,53.196L53.445,52.557L52.841,53.009Z"/>
                </g>
                <g transform="matrix(1,0,0,1,42.766,31.4052)">
                    <path d="M55.514,51.975C55.713,51.815 55.938,51.634 56.135,51.475L55.636,50.854C55.439,51.012 55.214,51.194 55.015,51.354L55.514,51.975Z"/>
                </g>
                <g transform="matrix(1,0,0,1,42.766,31.4052)">
                    <path d="M57.668,50.181C57.938,49.948 58.18,49.739 58.271,49.66L57.75,49.057C57.658,49.136 57.417,49.345 57.147,49.578L57.668,50.181Z"/>
                </g>
                <g transform="matrix(1,0,0,1,42.766,31.4052)">
                    <path d="M59.431,47.494L59.199,47.71L59.742,48.294L59.994,48.058C60.019,48.034 60.148,47.904 60.324,47.728L59.759,47.165L59.431,47.494Z"/>
                </g>
                <g transform="matrix(1,0,0,1,42.766,31.4052)">
                    <path d="M61.738,46.302C61.845,46.186 62.05,45.963 62.278,45.716L61.692,45.176C61.464,45.423 61.259,45.646 61.152,45.762L61.738,46.302Z"/>
                </g>
                <g transform="matrix(1,0,0,1,42.766,31.4052)">
                    <path d="M63.625,44.227C63.771,44.055 63.956,43.837 64.141,43.619L63.534,43.103C63.348,43.321 63.164,43.539 63.018,43.711L63.625,44.227Z"/>
                </g>
                <g transform="matrix(1,0,0,1,42.766,31.4052)">
                    <path d="M65.419,42.069C65.569,41.878 65.741,41.656 65.909,41.44L65.28,40.951C65.112,41.166 64.94,41.388 64.791,41.579L65.419,42.069Z"/>
                </g>
                <g transform="matrix(1,0,0,1,42.766,31.4052)">
                    <path d="M67.116,39.833C67.259,39.633 67.42,39.405 67.578,39.183L66.928,38.722C66.77,38.944 66.609,39.172 66.466,39.372L67.116,39.833Z"/>
                </g>
                <g transform="matrix(1,0,0,1,42.766,31.4052)">
                    <path d="M68.714,37.525C68.843,37.323 68.993,37.089 69.145,36.854L68.474,36.424C68.323,36.659 68.172,36.893 68.043,37.094L68.714,37.525Z"/>
                </g>
                <g transform="matrix(1,0,0,1,42.766,31.4052)">
                    <path d="M70.213,35.15C70.321,34.963 70.46,34.721 70.611,34.459L69.92,34.062C69.77,34.323 69.63,34.566 69.523,34.752L70.213,35.15Z"/>
                </g>
                <g transform="matrix(1,0,0,1,42.766,31.4052)">
                    <path d="M70.968,32.241L70.914,32.335L71.079,32.43L71.318,32.83L71.089,32.436L71.546,32.698L71.318,32.83C71.318,32.83 71.466,32.845 71.59,32.724L71.605,32.732L71.677,32.605C71.699,32.562 71.817,32.33 71.982,32.008L71.273,31.645L70.968,32.241Z"/>
                </g>
                <g transform="matrix(1,0,0,1,42.766,31.4052)">
                    <path d="M72.89,30.234C73.043,29.934 73.174,29.678 73.252,29.525L72.543,29.162C72.464,29.315 72.334,29.571 72.18,29.871L72.89,30.234Z"/>
                </g>
                <g transform="matrix(1,0,0,1,42.766,31.4052)">
                    <path d="M74.088,27.694C74.197,27.45 74.309,27.202 74.415,26.967L73.688,26.64C73.583,26.875 73.471,27.123 73.361,27.367L74.088,27.694Z"/>
                </g>
                <g transform="matrix(1,0,0,1,42.766,31.4052)">
                    <path d="M75.216,25.122C75.298,24.915 75.398,24.659 75.508,24.381L74.766,24.089C74.657,24.367 74.556,24.623 74.474,24.83L75.216,25.122Z"/>
                </g>
                <g transform="matrix(1,0,0,1,42.766,31.4052)">
                    <path d="M76.238,22.527C76.354,22.234 76.455,21.976 76.53,21.785L75.789,21.493C75.714,21.684 75.612,21.942 75.497,22.235L76.238,22.527Z"/>
                </g>
                <g transform="matrix(1,0,0,1,42.766,31.4052)">
                    <path d="M77.196,19.888C77.279,19.647 77.366,19.391 77.454,19.134L76.7,18.877C76.612,19.134 76.525,19.389 76.442,19.631L77.196,19.888Z"/>
                </g>
                <g transform="matrix(1,0,0,1,42.766,31.4052)">
                    <path d="M77.572,16.322L77.344,16.991L78.098,17.249C78.224,16.88 78.327,16.579 78.327,16.579L78.312,16.589C78.33,16.556 78.345,16.519 78.358,16.476L77.593,16.253L77.572,16.322Z"/>
                </g>
                <g transform="matrix(1,0,0,1,42.766,31.4052)">
                    <path d="M78.916,14.564C78.989,14.315 79.064,14.057 79.14,13.799L78.375,13.575C78.299,13.834 78.224,14.092 78.151,14.34L78.916,14.564Z"/>
                </g>
                <g transform="matrix(1,0,0,1,42.766,31.4052)">
                    <path d="M79.699,11.886C79.793,11.565 79.87,11.299 79.922,11.121L79.157,10.897C79.105,11.076 79.028,11.342 78.934,11.662L79.699,11.886Z"/>
                </g>
                <g transform="matrix(1,0,0,1,42.766,31.4052)">
                    <path d="M80.27,9.108C80.307,8.863 80.348,8.599 80.391,8.32L79.603,8.199C79.56,8.477 79.52,8.742 79.482,8.986L80.27,9.108Z"/>
                </g>
                <g transform="matrix(1,0,0,1,42.766,31.4052)">
                    <path d="M80.694,6.351C80.734,6.09 80.775,5.827 80.816,5.563L80.028,5.442C79.987,5.705 79.947,5.969 79.907,6.229L80.694,6.351Z"/>
                </g>
                <g transform="matrix(1,0,0,1,42.766,31.4052)">
                    <path d="M81.119,3.594C81.161,3.323 81.201,3.059 81.24,2.806L80.453,2.685C80.414,2.938 80.373,3.202 80.331,3.472L81.119,3.594Z"/>
                </g>
                <g transform="matrix(1,0,0,1,42.766,31.4052)">
                    <path d="M81.544,0.837C81.611,0.4 81.662,0.069 81.662,0.069C81.662,0.069 81.269,0.399 81.269,0.399C81.269,0.399 80.874,-0.052 80.874,-0.052C80.874,-0.052 80.823,0.278 80.756,0.715L81.544,0.837Z"/>
                </g>
            </g>
            <g>
                <g transform="matrix(1,0,0,1,42.766,-2618.67)">
                    <path d="M0,2835.07C0,2835.07 0.304,2835.08 0.388,2834.76C0.402,2834.71 0.478,2834.42 0.589,2834L-0.181,2833.8C-0.292,2834.22 -0.383,2834.56 -0.383,2834.56L0,2835.07Z"/>
                </g>
                <g transform="matrix(1,0,0,1,42.766,-2618.67)">
                    <path d="M1.1,2832.07C1.168,2831.82 1.237,2831.55 1.304,2831.3L0.533,2831.1C0.466,2831.35 0.398,2831.61 0.329,2831.87L1.1,2832.07Z"/>
                </g>
                <g transform="matrix(1,0,0,1,42.766,-2618.67)">
                    <path d="M1.379,2829.26L1.616,2829.32L1.497,2829.41C1.497,2829.41 1.611,2829.42 1.718,2829.35L1.814,2829.38L2.015,2828.6L1.243,2828.4C1.169,2828.69 1.112,2828.91 1.112,2828.91L1.379,2829.26Z"/>
                </g>
                <g transform="matrix(1,0,0,1,42.766,-2618.67)">
                    <path d="M1.377,2829.26L1.111,2828.92C1.111,2828.92 1.082,2829.03 1.043,2829.17L1.377,2829.26L1.497,2829.41L1.379,2829.26L1.377,2829.26Z"/>
                </g>
                <g transform="matrix(1,0,0,1,42.766,-2618.67)">
                    <path d="M2.512,2826.67C2.578,2826.42 2.645,2826.16 2.711,2825.9L1.939,2825.7C1.873,2825.96 1.806,2826.22 1.74,2826.47L2.512,2826.67Z"/>
                </g>
                <g transform="matrix(1,0,0,1,42.766,-2618.67)">
                    <path d="M2.606,2823.11L2.436,2823.77L3.207,2823.97C3.302,2823.6 3.378,2823.31 3.378,2823.31L3.357,2823.33C3.377,2823.29 3.394,2823.24 3.406,2823.19L2.629,2823.01L2.606,2823.11Z"/>
                </g>
                <g transform="matrix(1,0,0,1,42.766,-2618.67)">
                    <path d="M3.849,2821.24C3.906,2820.99 3.965,2820.73 4.026,2820.47L3.249,2820.29C3.188,2820.56 3.128,2820.82 3.071,2821.07L3.849,2821.24Z"/>
                </g>
                <g transform="matrix(1,0,0,1,42.766,-2618.67)">
                    <path d="M4.468,2818.53C4.532,2818.24 4.592,2817.98 4.645,2817.75L3.868,2817.57C3.815,2817.8 3.755,2818.07 3.691,2818.35L4.468,2818.53Z"/>
                </g>
                <g transform="matrix(1,0,0,1,42.766,-2618.67)">
                    <path d="M5.056,2815.78C5.099,2815.55 5.149,2815.29 5.203,2815L4.42,2814.85C4.365,2815.14 4.316,2815.41 4.272,2815.64L5.056,2815.78Z"/>
                </g>
                <g transform="matrix(1,0,0,1,42.766,-2618.67)">
                    <path d="M5.571,2813.04C5.62,2812.78 5.669,2812.52 5.718,2812.26L4.934,2812.11C4.886,2812.37 4.836,2812.63 4.787,2812.89L5.571,2813.04Z"/>
                </g>
                <g transform="matrix(1,0,0,1,42.766,-2618.67)">
                    <path d="M6.085,2810.3C6.14,2810.01 6.19,2809.74 6.232,2809.52L5.449,2809.37C5.407,2809.59 5.357,2809.86 5.302,2810.15L6.085,2810.3Z"/>
                </g>
                <g transform="matrix(1,0,0,1,42.766,-2618.67)">
                    <path d="M6.556,2807.53C6.591,2807.3 6.63,2807.03 6.672,2806.75L5.883,2806.63C5.841,2806.92 5.802,2807.18 5.767,2807.42L6.556,2807.53Z"/>
                </g>
                <g transform="matrix(1,0,0,1,42.766,-2618.67)">
                    <path d="M6.961,2804.78C7,2804.51 7.038,2804.25 7.077,2803.99L6.289,2803.87C6.25,2804.14 6.211,2804.4 6.173,2804.66L6.961,2804.78Z"/>
                </g>
                <g transform="matrix(1,0,0,1,42.766,-2618.67)">
                    <path d="M7.367,2802.01C7.407,2801.74 7.446,2801.48 7.483,2801.23L6.694,2801.11C6.657,2801.36 6.618,2801.63 6.578,2801.9L7.367,2802.01Z"/>
                </g>
                <g transform="matrix(1,0,0,1,42.766,-2618.67)">
                    <path d="M7.089,2798.43L6.984,2799.14L7.773,2799.26C7.832,2798.85 7.877,2798.54 7.877,2798.54L7.869,2798.55C7.877,2798.52 7.884,2798.49 7.888,2798.45L7.096,2798.36L7.089,2798.43Z"/>
                </g>
                <g transform="matrix(1,0,0,1,42.766,-2618.67)">
                    <path d="M8.107,2796.47C8.135,2796.22 8.164,2795.96 8.195,2795.68L7.403,2795.59C7.372,2795.87 7.343,2796.14 7.315,2796.38L8.107,2796.47Z"/>
                </g>
                <g transform="matrix(1,0,0,1,42.766,-2618.67)">
                    <path d="M8.415,2793.7C8.444,2793.44 8.473,2793.17 8.502,2792.91L7.71,2792.82C7.681,2793.09 7.651,2793.35 7.623,2793.61L8.415,2793.7Z"/>
                </g>
                <g transform="matrix(1,0,0,1,42.766,-2618.67)">
                    <path d="M8.722,2790.93C8.751,2790.66 8.781,2790.39 8.81,2790.13L8.018,2790.05C7.989,2790.31 7.959,2790.57 7.93,2790.84L8.722,2790.93Z"/>
                </g>
                <g transform="matrix(1,0,0,1,42.766,-2618.67)">
                    <path d="M9.029,2788.15C9.06,2787.88 9.089,2787.61 9.117,2787.36L8.325,2787.27C8.297,2787.52 8.268,2787.79 8.237,2788.07L9.029,2788.15Z"/>
                </g>
                <g transform="matrix(1,0,0,1,42.766,-2618.67)">
                    <path d="M8.585,2784.93L8.544,2785.29L8.955,2785.34L8.981,2785.37L8.955,2785.34L9.007,2785.35L8.981,2785.37C8.981,2785.37 9.021,2785.37 9.076,2785.35L9.337,2785.38L9.379,2785C9.381,2784.97 9.393,2784.82 9.413,2784.58L8.619,2784.51L8.585,2784.93Z"/>
                </g>
                <g transform="matrix(1,0,0,1,42.766,-2618.67)">
                    <path d="M9.575,2782.59C9.595,2782.34 9.617,2782.07 9.639,2781.8L8.845,2781.73C8.822,2782.01 8.801,2782.28 8.78,2782.53L9.575,2782.59Z"/>
                </g>
                <g transform="matrix(1,0,0,1,42.766,-2618.67)">
                    <path d="M9.801,2779.81C9.822,2779.55 9.844,2779.28 9.865,2779.01L9.071,2778.95C9.049,2779.22 9.028,2779.49 9.006,2779.74L9.801,2779.81Z"/>
                </g>
                <g transform="matrix(1,0,0,1,42.766,-2618.67)">
                    <path d="M10.027,2777.03C10.048,2776.77 10.07,2776.5 10.092,2776.24L9.297,2776.17C9.276,2776.44 9.254,2776.7 9.233,2776.97L10.027,2777.03Z"/>
                </g>
                <g transform="matrix(1,0,0,1,42.766,-2618.67)">
                    <path d="M10.253,2774.25C10.275,2773.98 10.297,2773.72 10.318,2773.45L9.523,2773.39C9.502,2773.65 9.481,2773.92 9.459,2774.18L10.253,2774.25Z"/>
                </g>
                <g transform="matrix(1,0,0,1,42.766,-2618.67)">
                    <path d="M10.479,2771.47C10.502,2771.2 10.523,2770.93 10.544,2770.67L9.75,2770.61C9.729,2770.87 9.707,2771.13 9.685,2771.4L10.479,2771.47Z"/>
                </g>
                <g transform="matrix(1,0,0,1,42.766,-2618.67)">
                    <path d="M10.706,2768.69C10.729,2768.4 10.751,2768.13 10.77,2767.89L9.976,2767.83C9.957,2768.07 9.935,2768.33 9.911,2768.62L10.706,2768.69Z"/>
                </g>
                <g transform="matrix(1,0,0,1,42.766,-2618.67)">
                    <path d="M10.917,2765.9C10.93,2765.68 10.945,2765.41 10.963,2765.1L10.168,2765.06C10.15,2765.36 10.134,2765.63 10.121,2765.85L10.917,2765.9Z"/>
                </g>
                <g transform="matrix(1,0,0,1,42.766,-2618.67)">
                    <path d="M11.08,2763.11C11.095,2762.86 11.11,2762.59 11.126,2762.32L10.331,2762.27C10.315,2762.54 10.299,2762.81 10.284,2763.07L11.08,2763.11Z"/>
                </g>
                <g transform="matrix(1,0,0,1,42.766,-2618.67)">
                    <path d="M11.243,2760.33C11.258,2760.07 11.274,2759.8 11.289,2759.53L10.494,2759.49C10.478,2759.75 10.462,2760.02 10.447,2760.28L11.243,2760.33Z"/>
                </g>
                <g transform="matrix(1,0,0,1,42.766,-2618.67)">
                    <path d="M11.406,2757.54C11.421,2757.28 11.437,2757.01 11.452,2756.75L10.657,2756.7C10.641,2756.97 10.626,2757.23 10.61,2757.5L11.406,2757.54Z"/>
                </g>
                <g transform="matrix(1,0,0,1,42.766,-2618.67)">
                    <path d="M11.569,2754.76C11.585,2754.49 11.6,2754.22 11.615,2753.96L10.82,2753.92C10.805,2754.18 10.789,2754.44 10.773,2754.71L11.569,2754.76Z"/>
                </g>
                <g transform="matrix(1,0,0,1,42.766,-2618.67)">
                    <path d="M11.732,2751.97C11.749,2751.69 11.764,2751.42 11.778,2751.18L10.983,2751.13C10.969,2751.37 10.953,2751.64 10.936,2751.93L11.732,2751.97Z"/>
                </g>
            </g>
            <g>
                <g transform="matrix(1,0,0,1,42.766,-1628.35)">
                    <path d="M0,1952.47C0,1952.47 0.296,1952.48 0.385,1952.17C0.401,1952.12 0.483,1951.83 0.604,1951.41L-0.162,1951.19C-0.283,1951.61 -0.38,1951.95 -0.38,1951.95C-0.38,1951.95 0,1952.47 0,1952.47Z"/>
                </g>
                <g transform="matrix(1,0,0,1,42.766,-1628.35)">
                    <path d="M1.157,1949.5C1.231,1949.25 1.305,1948.99 1.379,1948.73L0.613,1948.51C0.54,1948.77 0.465,1949.02 0.392,1949.28L1.157,1949.5Z"/>
                </g>
                <g transform="matrix(1,0,0,1,42.766,-1628.35)">
                    <path d="M2.111,1946.2L2.154,1946.08L1.401,1945.82C1.374,1945.89 1.355,1945.95 1.355,1945.95C1.355,1945.95 1.731,1946.48 1.731,1946.48C1.731,1946.48 1.346,1945.98 1.346,1945.98C1.346,1945.98 1.267,1946.25 1.166,1946.6L1.932,1946.82L2.111,1946.2Z"/>
                </g>
                <g transform="matrix(1,0,0,1,42.766,-1628.35)">
                    <path d="M2.805,1944.19C2.891,1943.94 2.979,1943.69 3.066,1943.44L2.313,1943.18C2.226,1943.43 2.138,1943.68 2.052,1943.93L2.805,1944.19Z"/>
                </g>
                <g transform="matrix(1,0,0,1,42.766,-1628.35)">
                    <path d="M3.457,1941.47L3.468,1941.47L3.462,1941.47C3.462,1941.47 3.469,1941.48 3.481,1941.48L3.718,1941.56L3.836,1941.21L3.989,1940.82L3.246,1940.53C3.16,1940.76 3.093,1940.93 3.093,1940.93L3.457,1941.47Z"/>
                </g>
                <g transform="matrix(1,0,0,1,42.766,-1628.35)">
                    <path d="M3.462,1941.47L3.084,1940.95C3.084,1940.95 3.033,1941.1 2.964,1941.3L3.456,1941.47L3.462,1941.47Z"/>
                </g>
                <g transform="matrix(1,0,0,1,42.766,-1628.35)">
                    <path d="M4.714,1938.97C4.813,1938.72 4.911,1938.46 5.004,1938.23L4.262,1937.94C4.169,1938.17 4.071,1938.42 3.972,1938.68L4.714,1938.97Z"/>
                </g>
                <g transform="matrix(1,0,0,1,42.766,-1628.35)">
                    <path d="M5.737,1936.38C5.82,1936.19 5.927,1935.93 6.046,1935.65L5.311,1935.34C5.192,1935.62 5.085,1935.88 5.002,1936.08L5.737,1936.38Z"/>
                </g>
                <g transform="matrix(1,0,0,1,42.766,-1628.35)">
                    <path d="M6.818,1933.81C6.938,1933.53 7.045,1933.27 7.127,1933.08L6.392,1932.77C6.31,1932.96 6.203,1933.22 6.083,1933.5L6.818,1933.81Z"/>
                </g>
                <g transform="matrix(1,0,0,1,42.766,-1628.35)">
                    <path d="M7.914,1931.25C8.017,1931.02 8.125,1930.77 8.232,1930.52L7.501,1930.2C7.394,1930.45 7.286,1930.7 7.183,1930.93L7.914,1931.25Z"/>
                </g>
                <g transform="matrix(1,0,0,1,42.766,-1628.35)">
                    <path d="M9.026,1928.69C9.049,1928.64 9.173,1928.36 9.343,1927.96L8.612,1927.64C8.442,1928.04 8.318,1928.32 8.295,1928.38L9.026,1928.69Z"/>
                </g>
                <g transform="matrix(1,0,0,1,42.766,-1628.35)">
                    <path d="M10.137,1926.13C10.253,1925.87 10.362,1925.62 10.455,1925.4L9.724,1925.09C9.631,1925.3 9.522,1925.55 9.406,1925.82L10.137,1926.13Z"/>
                </g>
                <g transform="matrix(1,0,0,1,42.766,-1628.35)">
                    <path d="M11.24,1923.57C11.338,1923.34 11.444,1923.09 11.551,1922.84L10.818,1922.52C10.71,1922.78 10.604,1923.03 10.506,1923.26L11.24,1923.57Z"/>
                </g>
                <g transform="matrix(1,0,0,1,42.766,-1628.35)">
                    <path d="M12.483,1920.64L12.637,1920.26L11.899,1919.96C11.815,1920.16 11.751,1920.32 11.751,1920.32C11.751,1920.32 12.118,1920.88 12.118,1920.88C12.118,1920.88 11.75,1920.33 11.75,1920.33C11.75,1920.33 11.682,1920.49 11.596,1920.69L12.329,1921L12.483,1920.64Z"/>
                </g>
                <g transform="matrix(1,0,0,1,42.766,-1628.35)">
                    <path d="M13.387,1918.41C13.489,1918.16 13.591,1917.91 13.687,1917.67L12.948,1917.38C12.853,1917.61 12.751,1917.86 12.648,1918.11L13.387,1918.41Z"/>
                </g>
                <g transform="matrix(1,0,0,1,42.766,-1628.35)">
                    <path d="M14.429,1915.82C14.508,1915.61 14.607,1915.35 14.714,1915.07L13.97,1914.79C13.862,1915.07 13.764,1915.32 13.685,1915.53L14.429,1915.82Z"/>
                </g>
                <g transform="matrix(1,0,0,1,42.766,-1628.35)">
                    <path d="M15.427,1913.21C15.533,1912.94 15.631,1912.68 15.713,1912.47L14.968,1912.18C14.887,1912.4 14.789,1912.65 14.683,1912.93L15.427,1913.21Z"/>
                </g>
                <g transform="matrix(1,0,0,1,42.766,-1628.35)">
                    <path d="M16.401,1910.59C16.486,1910.35 16.577,1910.1 16.67,1909.84L15.92,1909.57C15.826,1909.83 15.735,1910.09 15.651,1910.32L16.401,1910.59Z"/>
                </g>
                <g transform="matrix(1,0,0,1,42.766,-1628.35)">
                    <path d="M17.342,1907.96C17.455,1907.65 17.549,1907.38 17.611,1907.21L16.86,1906.94C16.799,1907.12 16.705,1907.38 16.592,1907.69L17.342,1907.96Z"/>
                </g>
                <g transform="matrix(1,0,0,1,42.766,-1628.35)">
                    <path d="M18.246,1905.31C18.327,1905.07 18.412,1904.82 18.497,1904.56L17.741,1904.31C17.655,1904.57 17.57,1904.82 17.49,1905.06L18.246,1905.31Z"/>
                </g>
                <g transform="matrix(1,0,0,1,42.766,-1628.35)">
                    <path d="M19.125,1902.67C19.237,1902.33 19.326,1902.06 19.376,1901.91L18.619,1901.66C18.569,1901.81 18.48,1902.08 18.368,1902.42L19.125,1902.67Z"/>
                </g>
                <g transform="matrix(1,0,0,1,42.766,-1628.35)">
                    <path d="M19.964,1900C20.039,1899.75 20.118,1899.5 20.197,1899.24L19.435,1899C19.355,1899.26 19.277,1899.52 19.202,1899.76L19.964,1900Z"/>
                </g>
                <g transform="matrix(1,0,0,1,42.766,-1628.35)">
                    <path d="M20.78,1897.33C20.87,1897.03 20.95,1896.77 21.013,1896.57L20.25,1896.33C20.188,1896.54 20.108,1896.8 20.017,1897.1L20.78,1897.33Z"/>
                </g>
                <g transform="matrix(1,0,0,1,42.766,-1628.35)">
                    <path d="M21.564,1894.64C21.631,1894.4 21.704,1894.14 21.779,1893.88L21.012,1893.66C20.936,1893.93 20.864,1894.19 20.796,1894.43L21.564,1894.64Z"/>
                </g>
                <g transform="matrix(1,0,0,1,42.766,-1628.35)">
                    <path d="M22.317,1891.96C22.393,1891.68 22.465,1891.43 22.532,1891.19L21.764,1890.97C21.698,1891.21 21.625,1891.47 21.549,1891.74L22.317,1891.96Z"/>
                </g>
                <g transform="matrix(1,0,0,1,42.766,-1628.35)">
                    <path d="M23.057,1889.26C23.113,1889.04 23.18,1888.78 23.255,1888.49L22.483,1888.29C22.408,1888.58 22.341,1888.84 22.285,1889.06L23.057,1889.26Z"/>
                </g>
                <g transform="matrix(1,0,0,1,42.766,-1628.35)">
                    <path d="M23.749,1886.56C23.816,1886.3 23.882,1886.04 23.947,1885.78L23.175,1885.59C23.11,1885.84 23.044,1886.1 22.977,1886.36L23.749,1886.56Z"/>
                </g>
                <g transform="matrix(1,0,0,1,42.766,-1628.35)">
                    <path d="M24.611,1883.16C24.623,1883.13 24.632,1883.11 24.64,1883.07L23.864,1882.89C23.855,1882.93 23.848,1882.96 23.848,1882.96C23.848,1882.96 24.236,1883.45 24.236,1883.45C24.236,1883.45 23.848,1882.96 23.848,1882.96C23.848,1882.96 23.77,1883.26 23.669,1883.65L24.442,1883.85C24.542,1883.46 24.62,1883.15 24.62,1883.15L24.611,1883.16Z"/>
                </g>
                <g transform="matrix(1,0,0,1,42.766,-1628.35)">
                    <path d="M25.093,1881.13C25.151,1880.88 25.212,1880.62 25.274,1880.36L24.498,1880.17C24.436,1880.44 24.375,1880.7 24.317,1880.95L25.093,1881.13Z"/>
                </g>
                <g transform="matrix(1,0,0,1,42.766,-1628.35)">
                    <path d="M25.727,1878.42C25.79,1878.15 25.851,1877.89 25.909,1877.64L25.132,1877.46C25.075,1877.7 25.014,1877.97 24.951,1878.23L25.727,1878.42Z"/>
                </g>
                <g transform="matrix(1,0,0,1,42.766,-1628.35)">
                    <path d="M26.363,1875.69C26.381,1875.61 26.441,1875.32 26.528,1874.91L25.749,1874.75C25.661,1875.16 25.601,1875.44 25.583,1875.53L26.363,1875.69Z"/>
                </g>
                <g transform="matrix(1,0,0,1,42.766,-1628.35)">
                    <path d="M26.943,1872.96C26.996,1872.71 27.052,1872.45 27.108,1872.18L26.329,1872.02C26.272,1872.28 26.217,1872.54 26.163,1872.8L26.943,1872.96Z"/>
                </g>
                <g transform="matrix(1,0,0,1,42.766,-1628.35)">
                    <path d="M27.522,1870.23C27.58,1869.96 27.636,1869.7 27.688,1869.45L26.908,1869.29C26.856,1869.54 26.8,1869.8 26.743,1870.07L27.522,1870.23Z"/>
                </g>
            </g>
        </g>
    </g>
    <g id="ICNN-LEGEND" serif:id="ICNN LEGEND">
        <g>
            <g transform="matrix(1,0,0,1,230.346,358.377)">
                <path d="M5.579,0.399L6.376,0.399L6.376,-0.399L5.579,-0.399L5.579,0.399Z"/>
            </g>
            <g transform="matrix(1,0,0,1,230.346,358.377)">
                <path d="M0,0.399L0.797,0.399L0.797,-0.399L0.009,-0.399C-0.519,-0.399 0,0.399 0,0.399Z"/>
            </g>
            <g transform="matrix(1,0,0,1,230.346,358.377)">
                <path d="M8.369,-0.369C8.211,-0.286 8.281,-0.041 8.369,0.15L8.369,0.399L9.166,0.399L9.166,-0.399L8.369,-0.399L8.369,-0.369Z"/>
            </g>
            <g transform="matrix(1,0,0,1,230.346,358.377)">
                <path d="M11.158,0.399L11.955,0.399L11.955,-0.399L11.158,-0.399L11.158,0.399Z"/>
            </g>
            <g transform="matrix(1,0,0,1,230.346,358.377)">
                <path d="M13.948,0.399L14.745,0.399L14.745,-0.399L13.948,-0.399L13.948,0.399Z"/>
            </g>
            <g transform="matrix(1,0,0,1,230.346,358.377)">
                <path d="M16.737,0.399L17.008,0.399C17.008,0.399 17.535,-0.399 17.005,-0.399L16.737,-0.399L16.737,0.399Z"/>
            </g>
            <g transform="matrix(1,0,0,1,230.346,358.377)">
                <path d="M2.79,0.399L3.587,0.399L3.587,-0.399L2.79,-0.399L2.79,0.399Z"/>
            </g>
        </g>
        <g>
            <g transform="matrix(11.9552,0,0,11.9552,252.58,361.584)">
                <rect x="0.093" y="-0.723" width="0.103" height="0.723" style="fill-rule:nonzero;"/>
            </g>
            <g transform="matrix(11.9552,0,0,11.9552,256.326,361.584)">
                <path d="M0.403,0.018C0.291,0.018 0.204,-0.015 0.143,-0.081C0.081,-0.147 0.051,-0.24 0.051,-0.361C0.051,-0.481 0.082,-0.575 0.144,-0.641C0.207,-0.708 0.294,-0.741 0.408,-0.741C0.472,-0.741 0.548,-0.73 0.635,-0.709L0.635,-0.613C0.536,-0.647 0.46,-0.664 0.406,-0.664C0.328,-0.664 0.267,-0.638 0.224,-0.584C0.181,-0.531 0.16,-0.457 0.16,-0.36C0.16,-0.268 0.183,-0.195 0.229,-0.142C0.274,-0.089 0.337,-0.062 0.417,-0.062C0.485,-0.062 0.558,-0.083 0.636,-0.125L0.636,-0.037C0.565,-0 0.487,0.018 0.403,0.018Z" style="fill-rule:nonzero;"/>
            </g>
            <g transform="matrix(11.9552,0,0,11.9552,264.899,361.584)">
                <path d="M0.093,-0L0.093,-0.723L0.194,-0.723L0.558,-0.165L0.558,-0.723L0.646,-0.723L0.646,-0L0.545,-0L0.181,-0.558L0.181,-0L0.093,-0Z" style="fill-rule:nonzero;"/>
            </g>
            <g transform="matrix(11.9552,0,0,11.9552,274.032,361.584)">
                <path d="M0.093,-0L0.093,-0.723L0.194,-0.723L0.558,-0.165L0.558,-0.723L0.646,-0.723L0.646,-0L0.545,-0L0.181,-0.558L0.181,-0L0.093,-0Z" style="fill-rule:nonzero;"/>
            </g>
        </g>
    </g>
    <g id="anchors">
        <g transform="matrix(0.0874319,0,0,0.0874319,0,0)">
            <circle cx="5.719" cy="5.719" r="5.719"/>
        </g>
        <g transform="matrix(0.0874319,0,0,0.0874319,462.849,366.325)">
            <circle cx="5.719" cy="5.719" r="5.719"/>
        </g>
    </g>
</svg>
