<?xml version="1.0" encoding="UTF-8" standalone="no"?>
<!DOCTYPE svg PUBLIC "-//W3C//DTD SVG 1.1//EN" "http://www.w3.org/Graphics/SVG/1.1/DTD/svg11.dtd">
<svg width="100%" height="100%" viewBox="0 0 464 368" version="1.1" xmlns="http://www.w3.org/2000/svg" xmlns:xlink="http://www.w3.org/1999/xlink" xml:space="preserve" xmlns:serif="http://www.serif.com/" style="fill-rule:evenodd;clip-rule:evenodd;stroke-miterlimit:10;">
    <g id="ALL-NODE-PLOTS" serif:id="ALL NODE PLOTS">
        <g id="NODE-ET" serif:id="NODE ET">
            <g>
                <g transform="matrix(1,0,0,1,150.477,36.6072)">
                    <path d="M2.299,69.783L1.839,69.258C1.593,69.473 1.324,69.71 1.324,69.71C1.324,69.71 1.579,70.414 1.579,70.414L1.292,69.74L-0.166,71.261L0.121,71.935C0.121,71.935 -0.185,71.282 -0.185,71.282C-0.185,71.282 -0.3,71.417 -0.3,71.417C-0.3,71.417 0,72.077 0,72.077C0,72.077 0.164,72.1 0.306,71.934L0.417,71.804L1.855,70.304L2.365,69.857L2.326,69.813L2.647,69.478L2.299,69.783Z"/>
                </g>
                <g transform="matrix(1,0,0,1,150.477,36.6072)">
                    <path d="M5.206,67.658L7.17,66.425L6.746,65.75C6.043,66.191 4.769,66.991 4.769,66.991L4.981,67.727C4.981,67.727 4.737,67.013 4.737,67.013C4.737,67.013 4.49,67.196 4.218,67.398L4.692,68.038L5.206,67.658Z"/>
                </g>
                <g transform="matrix(1,0,0,1,150.477,36.6072)">
                    <path d="M9.756,64.976L10.996,64.298C10.996,64.298 12.393,63.607 12.393,63.607L12.04,62.893L10.628,63.591C10.621,63.595 10.048,63.908 9.373,64.277L9.756,64.976Z"/>
                </g>
                <g transform="matrix(1,0,0,1,150.477,36.6072)">
                    <path d="M15.072,62.302C16.045,61.848 17.709,61.072 17.781,61.038L17.444,60.316C17.372,60.349 15.708,61.126 14.735,61.579L15.072,62.302Z"/>
                </g>
                <g transform="matrix(1,0,0,1,150.477,36.6072)">
                    <path d="M20.503,59.82C21.408,59.416 22.396,58.973 23.231,58.6L22.906,57.872C22.071,58.246 21.082,58.688 20.178,59.093L20.503,59.82Z"/>
                </g>
                <g transform="matrix(1,0,0,1,150.477,36.6072)">
                    <path d="M25.96,57.379C26.636,57.076 27.667,56.614 28.687,56.157L28.361,55.43C27.342,55.886 26.31,56.349 25.634,56.652L25.96,57.379Z"/>
                </g>
                <g transform="matrix(1,0,0,1,150.477,36.6072)">
                    <path d="M31.658,53.953L31.089,54.208L31.415,54.935C31.737,54.791 31.984,54.68 31.984,54.68L33.507,53.96L31.998,54.674C31.998,54.674 32.996,54.202 34.13,53.665L33.789,52.945L31.658,53.953Z"/>
                </g>
                <g transform="matrix(1,0,0,1,150.477,36.6072)">
                    <path d="M36.99,51.43L36.49,51.666L36.831,52.387C37.116,52.252 37.337,52.147 37.337,52.147C37.337,52.147 37.851,51.862 37.851,51.862L37.367,52.132C37.367,52.132 38.256,51.636 39.482,50.951L39.093,50.255L36.99,51.43Z"/>
                </g>
                <g transform="matrix(1,0,0,1,150.477,36.6072)">
                    <path d="M42.091,49.493C43.016,48.976 43.936,48.463 44.7,48.035L44.312,47.34C43.547,47.767 42.628,48.28 41.702,48.797L42.091,49.493Z"/>
                </g>
                <g transform="matrix(1,0,0,1,150.477,36.6072)">
                    <path d="M47.294,46.455C47.865,46.024 48.747,45.358 49.68,44.654L49.2,44.018C48.267,44.722 47.385,45.388 46.814,45.818L47.294,46.455Z"/>
                </g>
                <g transform="matrix(1,0,0,1,150.477,36.6072)">
                    <path d="M53.313,40.914L51.586,42.218L52.066,42.854L53.812,41.536C53.826,41.525 53.841,41.512 53.856,41.497C53.896,41.459 54.109,41.252 54.425,40.946L53.87,40.374L53.313,40.914Z"/>
                </g>
                <g transform="matrix(1,0,0,1,150.477,36.6072)">
                    <path d="M57.897,36.469L56.015,38.293L56.57,38.865L58.452,37.041L58.718,36.732L58.109,36.218L57.897,36.469Z"/>
                </g>
                <g transform="matrix(1,0,0,1,150.477,36.6072)">
                    <path d="M60.647,34.449C61.302,33.674 62,32.848 62.576,32.167L61.967,31.652C61.391,32.334 60.693,33.16 60.038,33.935L60.647,34.449Z"/>
                </g>
                <g transform="matrix(1,0,0,1,150.477,36.6072)">
                    <path d="M64.466,29.817C65.001,29.087 65.764,28.045 66.232,27.406L65.589,26.935C65.121,27.574 64.358,28.616 63.823,29.347L64.466,29.817Z"/>
                </g>
                <g transform="matrix(1,0,0,1,150.477,36.6072)">
                    <path d="M68.543,22.592L67.271,24.484L67.932,24.929L69.222,23.01C69.247,22.97 69.382,22.751 69.585,22.42L68.906,22.003L68.543,22.592Z"/>
                </g>
                <g transform="matrix(1,0,0,1,150.477,36.6072)">
                    <path d="M71.151,19.874C71.884,18.681 72.578,17.553 72.716,17.328L72.037,16.911C71.899,17.135 71.205,18.264 70.472,19.457L71.151,19.874Z"/>
                </g>
                <g transform="matrix(1,0,0,1,150.477,36.6072)">
                    <path d="M74.201,14.718L74.937,13.424C74.938,13.42 75.306,12.743 75.655,12.098L74.954,11.718L74.24,13.037C74.24,13.037 73.508,14.325 73.508,14.325L74.201,14.718Z"/>
                </g>
                <g transform="matrix(1,0,0,1,150.477,36.6072)">
                    <path d="M77.06,9.454L77.615,8.394C77.617,8.391 78.024,7.583 78.424,6.788L77.713,6.429L76.906,8.029C76.906,8.029 76.354,9.084 76.354,9.084L77.06,9.454Z"/>
                </g>
                <g transform="matrix(1,0,0,1,150.477,36.6072)">
                    <path d="M79.755,4.105L80.536,2.496C80.537,2.494 80.787,1.961 81.049,1.405L80.328,1.066L79.817,2.152C79.817,2.152 79.038,3.757 79.038,3.757L79.755,4.105Z"/>
                </g>
            </g>
            <g>
                <g transform="matrix(1,0,0,1,150.482,146.485)">
                    <path d="M1.223,67.22L1.374,66.858L0.639,66.55C0.556,66.749 0.485,66.919 0.485,66.919C0.485,66.919 0.85,67.476 0.85,67.476L0.474,66.946L-0.376,69.386L0.376,69.648L1.223,67.22Z"/>
                </g>
                <g transform="matrix(1,0,0,1,150.482,146.485)">
                    <path d="M4.006,61.58L4.805,60.174L3.913,61.518L3.397,61.176L2.857,61.991C2.857,61.991 3.189,62.61 3.189,62.61L2.842,62.014L2.205,63.137L2.551,63.732C2.551,63.732 2.19,63.165 2.19,63.165C2.19,63.165 2.029,63.489 1.874,63.802L2.588,64.156L2.903,63.521L3.529,62.42L4.062,61.617L4.006,61.58Z"/>
                </g>
                <g transform="matrix(1,0,0,1,150.482,146.485)">
                    <path d="M7.092,57.804L7.83,57.121L7.289,56.536L6.533,57.236C6.533,57.236 6.803,57.927 6.803,57.927L6.499,57.271C6.499,57.271 5.848,58.039 5.233,58.765L5.841,59.28L7.092,57.804Z"/>
                </g>
                <g transform="matrix(1,0,0,1,150.482,146.485)">
                    <path d="M10.051,55.2C10.654,54.763 11.578,54.095 12.473,53.448L12.006,52.802C11.111,53.449 10.187,54.118 9.584,54.554L10.051,55.2Z"/>
                </g>
                <g transform="matrix(1,0,0,1,150.482,146.485)">
                    <path d="M15.103,51.546L17.405,50.133L16.988,49.453C15.783,50.193 14.673,50.875 14.673,50.875L14.882,51.613C14.882,51.613 14.646,50.893 14.646,50.893C14.646,50.893 14.554,50.959 14.428,51.051L14.895,51.697L15.103,51.546Z"/>
                </g>
                <g transform="matrix(1,0,0,1,150.482,146.485)">
                    <path d="M19.952,48.569L20.4,48.293C20.4,48.293 22.523,47.064 22.523,47.064L22.123,46.374C20.863,47.104 19.997,47.606 19.997,47.606L20.197,48.349C20.197,48.349 19.983,47.614 19.983,47.614C19.983,47.614 19.789,47.734 19.535,47.889L19.952,48.569Z"/>
                </g>
                <g transform="matrix(1,0,0,1,150.482,146.485)">
                    <path d="M25.109,45.566C25.963,45.072 26.851,44.558 27.696,44.068L27.296,43.379C26.452,43.868 25.564,44.382 24.71,44.877L25.109,45.566Z"/>
                </g>
                <g transform="matrix(1,0,0,1,150.482,146.485)">
                    <path d="M32.088,41.524L32.864,41.035L32.437,40.361L31.685,40.837C31.685,40.837 29.883,41.881 29.883,41.881L30.282,42.571C31.367,41.942 32.09,41.524 32.09,41.524L32.088,41.524Z"/>
                </g>
                <g transform="matrix(1,0,0,1,150.482,146.485)">
                    <path d="M35.389,39.436C36.181,38.936 37.049,38.386 37.915,37.838L37.489,37.165C36.623,37.713 35.755,38.262 34.963,38.763L35.389,39.436Z"/>
                </g>
                <g transform="matrix(1,0,0,1,150.482,146.485)">
                    <path d="M40.441,36.24C41.495,35.573 42.402,34.999 42.966,34.642L42.54,33.969C41.976,34.326 41.069,34.899 40.014,35.567L40.441,36.24Z"/>
                </g>
                <g transform="matrix(1,0,0,1,150.482,146.485)">
                    <path d="M45.404,32.854C46.102,32.318 46.935,31.677 47.774,31.033L47.288,30.401C46.45,31.045 45.616,31.686 44.918,32.223L45.404,32.854Z"/>
                </g>
                <g transform="matrix(1,0,0,1,150.482,146.485)">
                    <path d="M51.614,27.075L49.657,28.58L50.143,29.211L52.105,27.704L52.51,27.321L51.959,26.745L51.614,27.075Z"/>
                </g>
                <g transform="matrix(1,0,0,1,150.482,146.485)">
                    <path d="M54.67,25.254C55.38,24.575 56.145,23.843 56.829,23.188L56.278,22.612C55.594,23.267 54.829,23.999 54.119,24.679L54.67,25.254Z"/>
                </g>
                <g transform="matrix(1,0,0,1,150.482,146.485)">
                    <path d="M59.019,21.078C59.18,20.878 59.957,19.908 60.888,18.746L60.267,18.248C59.335,19.41 58.558,20.379 58.397,20.58L59.019,21.078Z"/>
                </g>
                <g transform="matrix(1,0,0,1,150.482,146.485)">
                    <path d="M62.758,16.414C63.622,15.337 64.365,14.41 64.627,14.082L64.005,13.584C63.743,13.911 63,14.838 62.136,15.916L62.758,16.414Z"/>
                </g>
                <g transform="matrix(1,0,0,1,150.482,146.485)">
                    <path d="M66.341,11.597C66.881,10.806 67.485,9.922 68.026,9.129L67.368,8.679C66.827,9.472 66.223,10.356 65.683,11.148L66.341,11.597Z"/>
                </g>
                <g transform="matrix(1,0,0,1,150.482,146.485)">
                    <path d="M69.717,6.642C69.926,6.303 70.573,5.254 71.286,4.098L70.608,3.68C69.895,4.835 69.247,5.885 69.039,6.223L69.717,6.642Z"/>
                </g>
                <g transform="matrix(1,0,0,1,150.482,146.485)">
                    <path d="M72.856,1.555C73.343,0.766 73.686,0.209 73.686,0.209L73.008,-0.209C73.008,-0.209 72.664,0.347 72.178,1.136L72.856,1.555Z"/>
                </g>
            </g>
            <g>
                <g transform="matrix(1,0,0,1,150.482,229.833)">
                    <path d="M0.376,94.019C0.376,94.019 0.903,92.533 1.375,91.202L0.624,90.935C0.151,92.267 -0.376,93.752 -0.376,93.752L0.376,94.019Z"/>
                </g>
                <g transform="matrix(1,0,0,1,150.482,229.833)">
                    <path d="M2.417,88.432C2.765,87.634 3.313,86.38 3.613,85.693L2.882,85.374C2.582,86.061 2.035,87.315 1.686,88.113L2.417,88.432Z"/>
                </g>
                <g transform="matrix(1,0,0,1,150.482,229.833)">
                    <path d="M4.947,83.05L5.541,81.907C5.541,81.907 6.405,80.471 6.405,80.471L5.722,80.06L4.846,81.518L4.24,82.682L4.947,83.05Z"/>
                </g>
                <g transform="matrix(1,0,0,1,150.482,229.833)">
                    <path d="M7.995,77.967L8.98,76.516C8.98,76.516 9.71,75.543 9.71,75.543L9.072,75.065L8.331,76.053C8.326,76.06 7.806,76.827 7.336,77.519L7.995,77.967Z"/>
                </g>
                <g transform="matrix(1,0,0,1,150.482,229.833)">
                    <path d="M11.536,73.198L12.423,72.109C12.423,72.109 13.455,70.925 13.455,70.925L12.855,70.401L11.813,71.595C11.809,71.6 11.359,72.153 10.918,72.694L11.536,73.198Z"/>
                </g>
                <g transform="matrix(1,0,0,1,150.482,229.833)">
                    <path d="M15.452,68.716L15.868,68.265C15.868,68.265 17.511,66.563 17.511,66.563L16.938,66.009C16.587,66.373 15.294,67.712 15.294,67.712L15.581,68.388C15.581,68.388 15.282,67.725 15.282,67.725C15.282,67.725 15.085,67.939 14.866,68.176L15.452,68.716Z"/>
                </g>
                <g transform="matrix(1,0,0,1,150.482,229.833)">
                    <path d="M21.051,63.081L21.774,62.399L21.227,61.819L20.501,62.505C20.501,62.505 20.774,63.193 20.774,63.193L20.497,62.508C20.497,62.508 19.562,63.412 19.067,63.892L19.621,64.464L21.051,63.081Z"/>
                </g>
                <g transform="matrix(1,0,0,1,150.482,229.833)">
                    <path d="M23.957,60.364C24.232,60.111 24.5,59.863 24.5,59.863C24.5,59.863 24.236,59.963 24.236,59.963L24.504,59.859C24.504,59.859 25.837,58.65 26.164,58.353L25.628,57.763C25.301,58.059 23.969,59.269 23.969,59.269L24.236,59.963C24.236,59.963 23.959,59.278 23.959,59.278C23.959,59.278 23.691,59.525 23.417,59.779L23.957,60.364Z"/>
                </g>
                <g transform="matrix(1,0,0,1,150.482,229.833)">
                    <path d="M28.389,56.365L29.693,55.211C29.693,55.211 30.629,54.39 30.629,54.39L30.104,53.79L29.166,54.613C29.166,54.613 28.373,55.315 27.861,55.768L28.389,56.365Z"/>
                </g>
                <g transform="matrix(1,0,0,1,150.482,229.833)">
                    <path d="M34.884,50.688L35.138,50.469L34.617,49.866C34.479,49.985 34.366,50.082 34.366,50.082C34.366,50.082 34.623,50.785 34.623,50.785L34.362,50.085L32.631,51.585L32.892,52.284C32.892,52.284 32.627,51.588 32.627,51.588C32.627,51.588 32.504,51.695 32.357,51.824L32.88,52.425C33.028,52.296 33.151,52.189 33.151,52.189C33.151,52.189 32.892,52.284 32.892,52.284L33.153,52.187L34.884,50.688Z"/>
                </g>
                <g transform="matrix(1,0,0,1,150.482,229.833)">
                    <path d="M37.401,48.518L39.667,46.569L39.147,45.965L36.881,47.914L37.401,48.518Z"/>
                </g>
                <g transform="matrix(1,0,0,1,150.482,229.833)">
                    <path d="M43.019,42.634L41.413,44.016L41.933,44.62C42.331,44.278 43.539,43.238 43.539,43.238L43.538,43.238L44.198,42.669L43.677,42.066L43.019,42.634Z"/>
                </g>
                <g transform="matrix(1,0,0,1,150.482,229.833)">
                    <path d="M46.46,40.714C46.731,40.479 46.995,40.25 46.995,40.25L46.742,40.341L47.003,40.244C47.003,40.244 48.533,38.913 48.716,38.753L48.193,38.152C48.01,38.312 46.48,39.642 46.48,39.642L46.742,40.341C46.742,40.341 46.474,39.648 46.474,39.648C46.474,39.648 46.21,39.876 45.938,40.112L46.46,40.714Z"/>
                </g>
                <g transform="matrix(1,0,0,1,150.482,229.833)">
                    <path d="M50.966,36.781L52.199,35.695C52.2,35.694 52.732,35.221 53.206,34.8L52.676,34.204L51.671,35.098C51.671,35.098 50.439,36.184 50.439,36.184L50.966,36.781Z"/>
                </g>
                <g transform="matrix(1,0,0,1,150.482,229.833)">
                    <path d="M57.396,31.026L57.65,30.793L57.111,30.206C56.974,30.332 56.862,30.435 56.862,30.435C56.862,30.435 57.129,31.13 57.129,31.13L56.861,30.436L55.129,32.008L55.397,32.702C55.397,32.702 55.129,32.009 55.129,32.009C55.129,32.009 55.027,32.1 54.902,32.212L55.434,32.805C55.56,32.693 55.661,32.602 55.661,32.602C55.661,32.602 55.397,32.702 55.397,32.702L55.665,32.598L57.396,31.026Z"/>
                </g>
                <g transform="matrix(1,0,0,1,150.482,229.833)">
                    <path d="M59.847,28.762L60.864,27.813C60.865,27.812 61.521,27.189 62.025,26.71L61.477,26.132L60.318,27.232C60.318,27.232 59.303,28.179 59.303,28.179L59.847,28.762Z"/>
                </g>
                <g transform="matrix(1,0,0,1,150.482,229.833)">
                    <path d="M64.124,24.576L64.182,24.636C64.265,24.556 64.329,24.494 64.329,24.494L64.124,24.576Z"/>
                </g>
                <g transform="matrix(1,0,0,1,150.482,229.833)">
                    <path d="M63.775,23.921L63.628,24.063L63.981,24.427L64.053,24.605L63.981,24.428L64.124,24.576L64.053,24.605L64.333,24.49L66.07,22.776C66.088,22.758 66.18,22.665 66.314,22.53L65.748,21.968L65.504,22.215L63.775,23.921Z"/>
                </g>
                <g transform="matrix(1,0,0,1,150.482,229.833)">
                    <path d="M68.414,20.396L69.535,19.237C69.537,19.235 70.025,18.717 70.482,18.231L69.902,17.684L68.958,18.686C68.958,18.687 67.841,19.842 67.841,19.842L68.414,20.396Z"/>
                </g>
                <g transform="matrix(1,0,0,1,150.482,229.833)">
                    <path d="M72.516,16.033C72.764,15.762 72.997,15.507 72.997,15.507C72.997,15.507 72.709,15.63 72.709,15.63L73.007,15.496C73.007,15.496 74.043,14.329 74.512,13.8L73.916,13.271C73.446,13.8 72.411,14.967 72.411,14.967L72.709,15.63C72.709,15.63 72.409,14.969 72.409,14.969C72.409,14.969 72.176,15.224 71.928,15.495L72.516,16.033Z"/>
                </g>
                <g transform="matrix(1,0,0,1,150.482,229.833)">
                    <path d="M76.467,11.531C76.328,11.693 76.171,11.662 76.171,11.662C76.171,11.662 75.554,11.372 75.863,11.012L76.467,11.531Z"/>
                </g>
            </g>
        </g>
    </g>
    <g id="AL-ICNN-PLOTS" serif:id="AL ICNN PLOTS">
        <g id="ICNN-ET" serif:id="ICNN ET">
            <g>
                <g transform="matrix(1,0,0,1,150.477,51.5695)">
                    <path d="M0,57.115C0,57.115 0.151,57.138 0.297,56.982C0.34,56.937 0.565,56.697 0.836,56.409L0.256,55.863L-0.29,56.443C-0.29,56.443 0,57.115 0,57.115Z"/>
                </g>
                <g transform="matrix(1,0,0,1,150.477,51.5695)">
                    <path d="M2.198,55.014C2.365,54.871 2.586,54.68 2.802,54.494L2.281,53.89C2.065,54.076 1.845,54.267 1.678,54.411L2.198,55.014Z"/>
                </g>
                <g transform="matrix(1,0,0,1,150.477,51.5695)">
                    <path d="M4.334,53.272C4.568,53.1 4.807,52.924 4.976,52.8L4.505,52.157C4.335,52.282 4.096,52.457 3.862,52.629L4.334,53.272Z"/>
                </g>
                <g transform="matrix(1,0,0,1,150.477,51.5695)">
                    <path d="M6.844,51.567L7.284,51.306L6.878,50.62C6.65,50.756 6.437,50.882 6.437,50.882C6.437,50.882 6.634,51.626 6.634,51.626C6.634,51.626 6.414,50.896 6.414,50.896C6.414,50.896 6.311,50.963 6.184,51.045L6.619,51.713L6.844,51.567Z"/>
                </g>
                <g transform="matrix(1,0,0,1,150.477,51.5695)">
                    <path d="M8.997,50.314C9.221,50.191 9.48,50.048 9.696,49.929L9.311,49.231C9.096,49.35 8.836,49.492 8.613,49.615L8.997,50.314Z"/>
                </g>
                <g transform="matrix(1,0,0,1,150.477,51.5695)">
                    <path d="M11.789,48.827L12.153,48.646L11.798,47.932C11.607,48.027 11.437,48.112 11.437,48.112C11.437,48.112 11.61,48.869 11.61,48.869C11.61,48.869 11.422,48.12 11.422,48.12C11.422,48.12 11.263,48.202 11.082,48.296L11.449,49.004L11.789,48.827Z"/>
                </g>
                <g transform="matrix(1,0,0,1,150.477,51.5695)">
                    <path d="M13.936,47.767C14.164,47.658 14.432,47.529 14.654,47.422L14.309,46.704C14.087,46.81 13.819,46.939 13.591,47.049L13.936,47.767Z"/>
                </g>
                <g transform="matrix(1,0,0,1,150.477,51.5695)">
                    <path d="M16.75,46.437L17.174,46.243L16.843,45.518C16.625,45.618 16.425,45.709 16.425,45.709C16.425,45.709 16.586,46.473 16.586,46.473C16.586,46.473 16.413,45.715 16.413,45.715C16.413,45.715 16.277,45.779 16.116,45.854L16.453,46.576L16.75,46.437Z"/>
                </g>
                <g transform="matrix(1,0,0,1,150.477,51.5695)">
                    <path d="M18.986,45.421C19.228,45.312 19.502,45.189 19.713,45.095L19.387,44.367C19.176,44.462 18.902,44.585 18.66,44.694L18.986,45.421Z"/>
                </g>
                <g transform="matrix(1,0,0,1,150.477,51.5695)">
                    <path d="M21.719,44.205L22.261,43.969L21.942,43.239C21.673,43.356 21.409,43.472 21.409,43.472L21.561,44.238C21.561,44.238 21.398,43.476 21.398,43.476C21.398,43.476 21.315,43.513 21.21,43.559L21.533,44.288L21.719,44.205Z"/>
                </g>
                <g transform="matrix(1,0,0,1,150.477,51.5695)">
                    <path d="M24.087,43.174C24.351,43.06 24.631,42.939 24.818,42.858L24.502,42.126C24.314,42.207 24.034,42.329 23.77,42.443L24.087,43.174Z"/>
                </g>
                <g transform="matrix(1,0,0,1,150.477,51.5695)">
                    <path d="M26.431,41.567L26.644,42.061L26.537,42.083C26.537,42.083 26.578,42.088 26.646,42.067L26.648,42.071L27.38,41.757L27.066,41.024L26.38,41.318L26.431,41.567Z"/>
                </g>
                <g transform="matrix(1,0,0,1,150.477,51.5695)">
                    <path d="M26.43,41.563L26.379,41.318C26.379,41.318 26.36,41.327 26.333,41.338L26.43,41.563L26.537,42.083L26.431,41.567L26.43,41.563Z"/>
                </g>
                <g transform="matrix(1,0,0,1,150.477,51.5695)">
                    <path d="M29.211,40.973C29.516,40.843 29.815,40.715 29.944,40.66L29.631,39.927C29.502,39.982 29.202,40.11 28.898,40.24L29.211,40.973Z"/>
                </g>
                <g transform="matrix(1,0,0,1,150.477,51.5695)">
                    <path d="M31.777,39.874C31.928,39.809 32.219,39.683 32.508,39.558L32.193,38.826C31.903,38.951 31.612,39.077 31.461,39.142L31.777,39.874Z"/>
                </g>
                <g transform="matrix(1,0,0,1,150.477,51.5695)">
                    <path d="M34.937,38.491C34.974,38.481 35.019,38.465 35.07,38.442L34.746,37.714C34.701,37.734 34.668,37.749 34.668,37.749C34.668,37.749 34.83,38.512 34.83,38.512C34.83,38.512 34.661,37.752 34.661,37.752C34.661,37.752 34.331,37.896 34.019,38.033L34.338,38.763C34.651,38.627 34.98,38.482 34.98,38.482L34.937,38.491Z"/>
                </g>
                <g transform="matrix(1,0,0,1,150.477,51.5695)">
                    <path d="M36.893,37.627C37.083,37.54 37.359,37.414 37.618,37.296L37.286,36.571C37.028,36.689 36.751,36.816 36.561,36.903L36.893,37.627Z"/>
                </g>
                <g transform="matrix(1,0,0,1,150.477,51.5695)">
                    <path d="M39.832,36.219C39.883,36.207 40.001,36.175 40.152,36.099L39.797,35.386C39.703,35.432 39.63,35.469 39.63,35.469C39.63,35.469 39.805,36.225 39.805,36.225C39.805,36.225 39.627,35.47 39.627,35.47C39.627,35.47 39.358,35.598 39.085,35.728L39.427,36.448C39.7,36.318 39.969,36.19 39.969,36.19L39.832,36.219Z"/>
                </g>
                <g transform="matrix(1,0,0,1,150.477,51.5695)">
                    <path d="M41.94,35.201C42.135,35.099 42.401,34.959 42.646,34.831L42.275,34.125C42.03,34.254 41.765,34.393 41.57,34.496L41.94,35.201Z"/>
                </g>
                <g transform="matrix(1,0,0,1,150.477,51.5695)">
                    <path d="M44.58,32.863L44.016,33.177L44.404,33.873C44.686,33.716 44.967,33.56 44.967,33.56L44.879,33.581C44.937,33.563 45.016,33.531 45.108,33.477L44.702,32.791L44.58,32.863Z"/>
                </g>
                <g transform="matrix(1,0,0,1,150.477,51.5695)">
                    <path d="M46.829,32.453C46.993,32.35 47.25,32.189 47.504,32.029L47.081,31.354C46.827,31.513 46.57,31.674 46.405,31.778L46.829,32.453Z"/>
                </g>
                <g transform="matrix(1,0,0,1,150.477,51.5695)">
                    <path d="M49.186,30.943C49.448,30.77 49.704,30.6 49.851,30.503L49.41,29.839C49.263,29.936 49.007,30.106 48.746,30.279L49.186,30.943Z"/>
                </g>
                <g transform="matrix(1,0,0,1,150.477,51.5695)">
                    <path d="M51.368,29.179L51.463,29.315L51.415,29.33C51.415,29.33 51.437,29.333 51.472,29.328L51.495,29.362C51.578,29.304 51.642,29.26 51.642,29.26L51.64,29.26L52.148,28.89L51.679,28.246C51.428,28.429 51.187,28.605 51.187,28.605L51.368,29.179Z"/>
                </g>
                <g transform="matrix(1,0,0,1,150.477,51.5695)">
                    <path d="M51.415,29.33L51.186,28.606C51.186,28.606 51.122,28.65 51.04,28.708L51.367,29.178L51.415,29.33Z"/>
                </g>
                <g transform="matrix(1,0,0,1,150.477,51.5695)">
                    <path d="M53.759,27.704C53.954,27.556 54.185,27.381 54.394,27.223L53.912,26.588C53.704,26.746 53.472,26.921 53.277,27.069L53.759,27.704Z"/>
                </g>
                <g transform="matrix(1,0,0,1,150.477,51.5695)">
                    <path d="M55.974,25.998C56.254,25.777 56.509,25.578 56.601,25.505L56.108,24.879C56.016,24.951 55.762,25.15 55.482,25.371L55.974,25.998Z"/>
                </g>
                <g transform="matrix(1,0,0,1,150.477,51.5695)">
                    <path d="M57.989,24.044L58.111,24.194L58.05,24.216C58.05,24.216 58.079,24.22 58.125,24.211L58.153,24.246C58.236,24.179 58.299,24.128 58.299,24.128L58.298,24.128L58.771,23.733L58.259,23.122C58.022,23.32 57.8,23.507 57.8,23.507L57.989,24.044Z"/>
                </g>
                <g transform="matrix(1,0,0,1,150.477,51.5695)">
                    <path d="M57.988,24.042L57.797,23.509C57.797,23.509 57.733,23.561 57.651,23.627L57.988,24.042L58.05,24.216L57.989,24.044L57.988,24.042Z"/>
                </g>
                <g transform="matrix(1,0,0,1,150.477,51.5695)">
                    <path d="M60.299,22.446C60.473,22.296 60.692,22.107 60.903,21.925L60.382,21.322C60.172,21.503 59.952,21.692 59.779,21.842L60.299,22.446Z"/>
                </g>
                <g transform="matrix(1,0,0,1,150.477,51.5695)">
                    <path d="M62.406,20.609C62.619,20.42 62.836,20.227 63.002,20.08L62.473,19.484C62.307,19.631 62.09,19.824 61.877,20.013L62.406,20.609Z"/>
                </g>
                <g transform="matrix(1,0,0,1,150.477,51.5695)">
                    <path d="M64.946,18.311L65.072,18.193L64.526,17.612C64.461,17.674 64.412,17.72 64.412,17.72C64.412,17.72 64.684,18.41 64.684,18.41C64.684,18.41 64.409,17.722 64.409,17.722C64.409,17.722 64.183,17.929 63.944,18.148L64.481,18.736L64.946,18.311Z"/>
                </g>
                <g transform="matrix(1,0,0,1,150.477,51.5695)">
                    <path d="M66.198,16.481L66.489,16.791L66.342,16.849C66.342,16.849 66.415,16.861 66.51,16.813L66.523,16.827L67.101,16.27L66.547,15.697C66.303,15.934 66.071,16.158 66.071,16.158L66.198,16.481Z"/>
                </g>
                <g transform="matrix(1,0,0,1,150.477,51.5695)">
                    <path d="M66.194,16.478L66.068,16.161C66.068,16.161 66.03,16.198 65.977,16.247L66.194,16.478L66.342,16.849L66.198,16.481L66.194,16.478Z"/>
                </g>
                <g transform="matrix(1,0,0,1,150.477,51.5695)">
                    <path d="M68.533,14.875C68.685,14.722 68.89,14.518 69.096,14.312L68.533,13.748C68.327,13.954 68.122,14.159 67.969,14.311L68.533,14.875Z"/>
                </g>
                <g transform="matrix(1,0,0,1,150.477,51.5695)">
                    <path d="M70.502,12.89C70.68,12.706 70.878,12.502 71.057,12.318L70.485,11.763C70.307,11.947 70.109,12.151 69.93,12.335L70.502,12.89Z"/>
                </g>
                <g transform="matrix(1,0,0,1,150.477,51.5695)">
                    <path d="M72.435,10.871C72.632,10.662 72.829,10.453 72.981,10.291L72.401,9.745C72.248,9.907 72.051,10.116 71.855,10.325L72.435,10.871Z"/>
                </g>
                <g transform="matrix(1,0,0,1,150.477,51.5695)">
                    <path d="M74.333,8.818C74.566,8.563 74.772,8.336 74.87,8.229L74.281,7.692C74.183,7.799 73.977,8.026 73.744,8.281L74.333,8.818Z"/>
                </g>
                <g transform="matrix(1,0,0,1,150.477,51.5695)">
                    <path d="M76.587,6.287L76.724,6.128L76.118,5.61C76.046,5.693 75.992,5.757 75.992,5.757C75.992,5.757 76.294,6.416 76.294,6.416L75.99,5.759C75.99,5.759 75.803,5.97 75.597,6.205L76.194,6.732L76.587,6.287Z"/>
                </g>
                <g transform="matrix(1,0,0,1,150.477,51.5695)">
                    <path d="M78.252,4.34L78.535,3.998L77.921,3.49C77.773,3.669 77.649,3.819 77.649,3.819C77.649,3.819 77.952,4.476 77.952,4.476C77.952,4.476 77.647,3.821 77.647,3.821C77.647,3.821 77.541,3.945 77.413,4.095L78.018,4.613L78.252,4.34Z"/>
                </g>
                <g transform="matrix(1,0,0,1,150.477,51.5695)">
                    <path d="M79.482,2.195L79.741,2.41L79.611,2.471C79.611,2.471 79.684,2.482 79.776,2.438L79.805,2.463L80.309,1.837L79.687,1.339C79.485,1.591 79.305,1.817 79.305,1.817L79.482,2.195Z"/>
                </g>
                <g transform="matrix(1,0,0,1,150.477,51.5695)">
                    <path d="M79.479,2.193L79.303,1.82C79.303,1.82 79.255,1.878 79.191,1.955L79.479,2.193L79.611,2.471L79.482,2.195L79.479,2.193Z"/>
                </g>
                <g transform="matrix(1,0,0,1,150.477,51.5695)">
                    <path d="M80.999,-0.163L81.539,0.269L81.269,0.399L80.999,-0.163L80.932,-0.216C80.947,-0.235 80.958,-0.249 80.958,-0.249L80.999,-0.163Z"/>
                </g>
                <g transform="matrix(1,0,0,1,150.477,51.5695)">
                    <path d="M81.539,0.269L81.58,0.249C81.58,0.249 81.57,0.263 81.555,0.282L81.539,0.269Z"/>
                </g>
            </g>
            <g>
                <g transform="matrix(1,0,0,1,150.482,146.452)">
                    <path d="M0,69.948C0,69.948 0.272,69.966 0.377,69.678C0.397,69.625 0.502,69.338 0.649,68.939L-0.099,68.664C-0.246,69.063 -0.371,69.404 -0.371,69.404C-0.371,69.404 0,69.948 0,69.948Z"/>
                </g>
                <g transform="matrix(1,0,0,1,150.482,146.452)">
                    <path d="M1.336,67.069C1.436,66.797 1.53,66.541 1.611,66.321L0.863,66.046C0.782,66.266 0.688,66.522 0.588,66.794L1.336,67.069Z"/>
                </g>
                <g transform="matrix(1,0,0,1,150.482,146.452)">
                    <path d="M2.406,64.545C2.522,64.312 2.644,64.066 2.761,63.831L2.048,63.476C1.931,63.711 1.808,63.957 1.693,64.189L2.406,64.545Z"/>
                </g>
                <g transform="matrix(1,0,0,1,150.482,146.452)">
                    <path d="M3.693,62.123C3.823,61.921 3.975,61.685 4.125,61.453L3.455,61.021C3.306,61.253 3.154,61.489 3.023,61.691L3.693,62.123Z"/>
                </g>
                <g transform="matrix(1,0,0,1,150.482,146.452)">
                    <path d="M5.239,59.853C5.395,59.659 5.572,59.437 5.737,59.231L5.114,58.733C4.95,58.939 4.772,59.161 4.617,59.356L5.239,59.853Z"/>
                </g>
                <g transform="matrix(1,0,0,1,150.482,146.452)">
                    <path d="M7.03,57.763C7.234,57.549 7.438,57.336 7.58,57.187L7.003,56.637C6.861,56.786 6.657,56.999 6.453,57.213L7.03,57.763Z"/>
                </g>
                <g transform="matrix(1,0,0,1,150.482,146.452)">
                    <path d="M9.241,55.648L9.609,55.349L9.106,54.731C8.912,54.889 8.734,55.033 8.734,55.033C8.734,55.033 8.981,55.745 8.981,55.745C8.981,55.745 8.71,55.054 8.71,55.054C8.71,55.054 8.607,55.148 8.483,55.261L9.019,55.85L9.241,55.648Z"/>
                </g>
                <g transform="matrix(1,0,0,1,150.482,146.452)">
                    <path d="M11.156,54.12C11.358,53.97 11.596,53.792 11.795,53.644L11.319,53.005C11.12,53.153 10.881,53.33 10.68,53.481L11.156,54.12Z"/>
                </g>
                <g transform="matrix(1,0,0,1,150.482,146.452)">
                    <path d="M13.695,52.302L14.063,52.06L13.625,51.395C13.432,51.521 13.257,51.636 13.257,51.636C13.257,51.636 13.472,52.371 13.472,52.371C13.472,52.371 13.241,51.648 13.241,51.648C13.241,51.648 13.109,51.739 12.956,51.846L13.41,52.5L13.695,52.302Z"/>
                </g>
                <g transform="matrix(1,0,0,1,150.482,146.452)">
                    <path d="M15.727,50.979C15.956,50.835 16.212,50.673 16.401,50.554L15.976,49.88C15.787,49.999 15.531,50.161 15.302,50.305L15.727,50.979Z"/>
                </g>
                <g transform="matrix(1,0,0,1,150.482,146.452)">
                    <path d="M17.858,49.128L18.081,49.492L17.962,49.526C17.962,49.526 18.012,49.533 18.089,49.505L18.094,49.514L18.774,49.107L18.367,48.423C18.077,48.595 17.767,48.78 17.767,48.78L17.858,49.128Z"/>
                </g>
                <g transform="matrix(1,0,0,1,150.482,146.452)">
                    <path d="M17.843,49.103L17.754,48.787C17.754,48.787 17.722,48.807 17.678,48.834L17.843,49.103L17.962,49.526L17.858,49.128L17.843,49.103Z"/>
                </g>
                <g transform="matrix(1,0,0,1,150.482,146.452)">
                    <path d="M21.155,47.706L21.174,47.696L20.776,47.005C20.765,47.012 20.758,47.016 20.758,47.016C20.758,47.016 20.956,47.76 20.956,47.76C20.956,47.76 20.755,47.017 20.755,47.017L20.086,47.408L20.488,48.097L21.157,47.706L21.155,47.706Z"/>
                </g>
                <g transform="matrix(1,0,0,1,150.482,146.452)">
                    <path d="M22.9,46.705C23.089,46.598 23.355,46.447 23.593,46.312L23.199,45.619C22.961,45.754 22.695,45.905 22.506,46.012L22.9,46.705Z"/>
                </g>
                <g transform="matrix(1,0,0,1,150.482,146.452)">
                    <path d="M25.638,45.158L26.021,44.943L25.632,44.248C25.436,44.357 25.257,44.457 25.257,44.457C25.257,44.457 25.447,45.206 25.447,45.206L25.247,44.463C25.247,44.463 25.102,44.545 24.936,44.638L25.327,45.333L25.638,45.158Z"/>
                </g>
                <g transform="matrix(1,0,0,1,150.482,146.452)">
                    <path d="M27.76,43.972C28.012,43.832 28.283,43.68 28.456,43.584L28.068,42.888C27.896,42.984 27.624,43.135 27.372,43.276L27.76,43.972Z"/>
                </g>
                <g transform="matrix(1,0,0,1,150.482,146.452)">
                    <path d="M30.197,42.615C30.323,42.545 30.609,42.385 30.893,42.227L30.505,41.531C30.221,41.689 29.934,41.849 29.809,41.919L30.197,42.615Z"/>
                </g>
                <g transform="matrix(1,0,0,1,150.482,146.452)">
                    <path d="M33.119,40.977L33.328,40.858L32.934,40.166C32.825,40.228 32.736,40.279 32.736,40.279C32.736,40.279 32.931,41.025 32.931,41.025C32.931,41.025 32.729,40.282 32.729,40.282C32.729,40.282 32.487,40.419 32.242,40.557L32.632,41.251L33.119,40.977Z"/>
                </g>
                <g transform="matrix(1,0,0,1,150.482,146.452)">
                    <path d="M35.06,39.867C35.278,39.741 35.54,39.589 35.75,39.468L35.35,38.778C35.141,38.9 34.879,39.051 34.661,39.178L35.06,39.867Z"/>
                </g>
                <g transform="matrix(1,0,0,1,150.482,146.452)">
                    <path d="M37.399,38.335L37.446,38.415L37.422,38.422C37.422,38.422 37.432,38.423 37.45,38.422L37.471,38.457C37.556,38.407 37.623,38.368 37.623,38.368L37.621,38.368L38.157,38.045L37.746,37.363C37.486,37.519 37.223,37.678 37.223,37.678L37.399,38.335Z"/>
                </g>
                <g transform="matrix(1,0,0,1,150.482,146.452)">
                    <path d="M37.397,38.333L37.218,37.681C37.218,37.681 37.151,37.72 37.066,37.771L37.397,38.333L37.422,38.422L37.399,38.335L37.397,38.333Z"/>
                </g>
                <g transform="matrix(1,0,0,1,150.482,146.452)">
                    <path d="M39.863,37.006C40.134,36.838 40.407,36.669 40.541,36.587L40.121,35.909C39.988,35.992 39.714,36.161 39.444,36.328L39.863,37.006Z"/>
                </g>
                <g transform="matrix(1,0,0,1,150.482,146.452)">
                    <path d="M42.23,35.507C42.368,35.416 42.632,35.24 42.894,35.066L42.454,34.402C42.192,34.576 41.927,34.751 41.79,34.843L42.23,35.507Z"/>
                </g>
                <g transform="matrix(1,0,0,1,150.482,146.452)">
                    <path d="M45.092,33.553C45.128,33.536 45.168,33.512 45.211,33.482L44.742,32.837C44.702,32.866 44.673,32.887 44.673,32.887C44.673,32.887 44.906,33.609 44.906,33.609C44.906,33.609 44.671,32.888 44.671,32.888C44.671,32.888 44.376,33.093 44.095,33.287L44.549,33.942C44.83,33.748 45.125,33.543 45.125,33.543L45.092,33.553Z"/>
                </g>
                <g transform="matrix(1,0,0,1,150.482,146.452)">
                    <path d="M46.827,32.301C46.986,32.179 47.228,31.994 47.46,31.816L46.976,31.183C46.744,31.361 46.502,31.546 46.343,31.667L46.827,32.301Z"/>
                </g>
                <g transform="matrix(1,0,0,1,150.482,146.452)">
                    <path d="M49.147,29.462L49.149,29.467L49.416,29.78C49.42,29.974 49.397,30.169 49.397,30.169L49.149,29.467L49.145,29.462L49.147,29.462L49.147,29.461L48.533,29.956L49.033,30.576L49.647,30.081L49.646,30.081L49.662,30.069L49.416,29.78C49.41,29.53 49.357,29.283 49.147,29.462Z"/>
                </g>
                <g transform="matrix(1,0,0,1,150.482,146.452)">
                    <path d="M51.185,28.768C51.262,28.699 51.508,28.477 51.778,28.235L51.244,27.642C50.975,27.885 50.729,28.106 50.652,28.176L51.185,28.768Z"/>
                </g>
                <g transform="matrix(1,0,0,1,150.482,146.452)">
                    <path d="M53.251,26.878C53.447,26.691 53.659,26.49 53.829,26.329L53.28,25.751C53.11,25.913 52.898,26.114 52.702,26.3L53.251,26.878Z"/>
                </g>
                <g transform="matrix(1,0,0,1,150.482,146.452)">
                    <path d="M55.097,23.948L54.688,24.357L55.252,24.92L55.675,24.497C55.685,24.486 55.738,24.43 55.819,24.345L55.241,23.796L55.097,23.948Z"/>
                </g>
                <g transform="matrix(1,0,0,1,150.482,146.452)">
                    <path d="M57.197,22.893C57.264,22.82 57.483,22.578 57.732,22.303L57.142,21.768C56.892,22.043 56.673,22.285 56.607,22.358L57.197,22.893Z"/>
                </g>
                <g transform="matrix(1,0,0,1,150.482,146.452)">
                    <path d="M59.066,20.811C59.225,20.627 59.413,20.411 59.588,20.208L58.986,19.687C58.81,19.889 58.623,20.106 58.464,20.289L59.066,20.811Z"/>
                </g>
                <g transform="matrix(1,0,0,1,150.482,146.452)">
                    <path d="M60.88,18.68C61.06,18.464 61.243,18.243 61.389,18.067L60.775,17.558C60.63,17.734 60.446,17.955 60.267,18.172L60.88,18.68Z"/>
                </g>
                <g transform="matrix(1,0,0,1,150.482,146.452)">
                    <path d="M62.641,16.507C62.861,16.231 63.054,15.988 63.137,15.883L62.513,15.387C62.43,15.492 62.237,15.735 62.017,16.011L62.641,16.507Z"/>
                </g>
                <g transform="matrix(1,0,0,1,150.482,146.452)">
                    <path d="M64.678,13.865L64.836,13.65L64.193,13.18C64.11,13.292 64.046,13.38 64.046,13.38C64.046,13.38 64.366,14.017 64.366,14.017C64.366,14.017 64.045,13.382 64.045,13.382C64.045,13.382 63.891,13.583 63.718,13.81L64.352,14.293L64.678,13.865Z"/>
                </g>
                <g transform="matrix(1,0,0,1,150.482,146.452)">
                    <path d="M65.829,11.908L65.896,11.957L65.862,11.973C65.862,11.973 65.884,11.976 65.917,11.973L66.013,12.043L66.192,11.799C66.213,11.769 66.326,11.609 66.481,11.388L65.829,10.93C65.674,11.15 65.54,11.34 65.54,11.34L65.829,11.908Z"/>
                </g>
                <g transform="matrix(1,0,0,1,150.482,146.452)">
                    <path d="M65.862,11.973L65.539,11.342C65.539,11.342 65.464,11.444 65.37,11.572L65.829,11.908L65.862,11.973Z"/>
                </g>
                <g transform="matrix(1,0,0,1,150.482,146.452)">
                    <path d="M67.135,9.412L67.585,9.729L67.359,9.845C67.359,9.845 67.492,9.863 67.617,9.751L67.627,9.758L68.079,9.093L67.419,8.647C67.218,8.943 67.034,9.216 67.034,9.216L67.135,9.412Z"/>
                </g>
                <g transform="matrix(1,0,0,1,150.482,146.452)">
                    <path d="M67.133,9.411L67.033,9.218C67.033,9.218 67.009,9.253 66.975,9.3L67.133,9.411L67.359,9.845L67.135,9.412L67.133,9.411Z"/>
                </g>
                <g transform="matrix(1,0,0,1,150.482,146.452)">
                    <path d="M69.198,7.435C69.236,7.376 69.413,7.104 69.632,6.766L68.963,6.333C68.744,6.67 68.568,6.943 68.529,7.002L69.198,7.435Z"/>
                </g>
                <g transform="matrix(1,0,0,1,150.482,146.452)">
                    <path d="M70.719,5.087C70.781,4.987 70.944,4.725 71.139,4.41L70.463,3.99C70.267,4.304 70.104,4.566 70.042,4.666L70.719,5.087Z"/>
                </g>
                <g transform="matrix(1,0,0,1,150.482,146.452)">
                    <path d="M72.195,2.712C72.219,2.672 72.387,2.389 72.603,2.027L71.918,1.619C71.703,1.981 71.534,2.264 71.51,2.304L72.195,2.712Z"/>
                </g>
                <g transform="matrix(1,0,0,1,150.482,146.452)">
                    <path d="M73.133,0.023L73.56,0.278L73.347,0.399L73.133,0.023L72.938,-0.093C72.976,-0.156 73.004,-0.203 73.004,-0.203L73.133,0.023Z"/>
                </g>
                <g transform="matrix(1,0,0,1,150.482,146.452)">
                    <path d="M73.56,0.278L73.689,0.205C73.689,0.205 73.661,0.252 73.623,0.315L73.56,0.278Z"/>
                </g>
            </g>
            <g>
                <g transform="matrix(1,0,0,1,150.482,232.314)">
                    <path d="M0,91.802C0,91.802 0.277,91.819 0.379,91.526C0.398,91.474 0.497,91.19 0.639,90.783L-0.113,90.52C-0.255,90.927 -0.373,91.263 -0.373,91.263C-0.373,91.263 0,91.802 0,91.802Z"/>
                </g>
                <g transform="matrix(1,0,0,1,150.482,232.314)">
                    <path d="M1.297,88.902C1.386,88.645 1.475,88.391 1.56,88.149L0.807,87.886C0.723,88.128 0.634,88.382 0.544,88.639L1.297,88.902Z"/>
                </g>
                <g transform="matrix(1,0,0,1,150.482,232.314)">
                    <path d="M2.229,86.303C2.308,86.118 2.418,85.863 2.544,85.571L1.812,85.256C1.686,85.548 1.576,85.803 1.497,85.988L2.229,86.303Z"/>
                </g>
                <g transform="matrix(1,0,0,1,150.482,232.314)">
                    <path d="M3.331,83.741C3.452,83.46 3.562,83.206 3.646,83.008L2.914,82.693C2.829,82.891 2.72,83.145 2.599,83.426L3.331,83.741Z"/>
                </g>
                <g transform="matrix(1,0,0,1,150.482,232.314)">
                    <path d="M4.516,81.246C4.636,81.012 4.76,80.77 4.879,80.537L4.17,80.174C4.051,80.406 3.927,80.649 3.807,80.883L4.516,81.246Z"/>
                </g>
                <g transform="matrix(1,0,0,1,150.482,232.314)">
                    <path d="M5.805,78.801C5.92,78.608 6.061,78.368 6.211,78.116L5.526,77.709C5.376,77.962 5.234,78.201 5.119,78.394L5.805,78.801Z"/>
                </g>
                <g transform="matrix(1,0,0,1,150.482,232.314)">
                    <path d="M6.693,76.084L7.191,76.38L6.925,76.531C6.925,76.531 7.086,76.552 7.221,76.398L7.228,76.402L7.262,76.345L7.656,75.756L6.994,75.312C6.785,75.624 6.599,75.903 6.599,75.903L6.693,76.084Z"/>
                </g>
                <g transform="matrix(1,0,0,1,150.482,232.314)">
                    <path d="M6.658,76.064L6.582,75.93C6.582,75.93 6.565,75.957 6.543,75.995L6.658,76.064L6.925,76.531L6.693,76.084L6.658,76.064Z"/>
                </g>
                <g transform="matrix(1,0,0,1,150.482,232.314)">
                    <path d="M8.982,73.778L9.213,73.465L8.573,72.99C8.444,73.165 8.338,73.307 8.338,73.307C8.338,73.307 8.656,73.946 8.656,73.946C8.656,73.946 8.322,73.33 8.322,73.33C8.322,73.33 8.224,73.476 8.103,73.657L8.765,74.101L8.982,73.778Z"/>
                </g>
                <g transform="matrix(1,0,0,1,150.482,232.314)">
                    <path d="M10.702,71.455L10.873,71.243L10.253,70.743C10.155,70.864 10.079,70.959 10.079,70.959C10.079,70.959 10.387,71.61 10.387,71.61C10.387,71.61 10.063,70.979 10.063,70.979C10.063,70.979 9.924,71.167 9.759,71.389L10.4,71.864L10.702,71.455Z"/>
                </g>
                <g transform="matrix(1,0,0,1,150.482,232.314)">
                    <path d="M12.424,69.317L12.622,69.087L12.019,68.567C11.907,68.696 11.819,68.799 11.819,68.799C11.819,68.799 12.118,69.46 12.118,69.46C12.118,69.46 11.804,68.816 11.804,68.816C11.804,68.816 11.666,68.988 11.502,69.191L12.123,69.691L12.424,69.317Z"/>
                </g>
                <g transform="matrix(1,0,0,1,150.482,232.314)">
                    <path d="M14.147,67.319L14.446,66.992L13.858,66.455C13.696,66.632 13.559,66.782 13.559,66.782C13.559,66.782 13.849,67.453 13.849,67.453C13.849,67.453 13.545,66.798 13.545,66.798C13.545,66.798 13.445,66.914 13.32,67.058L13.924,67.579L14.147,67.319Z"/>
                </g>
                <g transform="matrix(1,0,0,1,150.482,232.314)">
                    <path d="M15.428,65.19L15.749,65.483L15.581,65.558C15.581,65.558 15.669,65.572 15.776,65.508L15.79,65.521L16.333,64.95L15.757,64.399C15.519,64.647 15.298,64.877 15.298,64.877L15.428,65.19Z"/>
                </g>
                <g transform="matrix(1,0,0,1,150.482,232.314)">
                    <path d="M15.411,65.174L15.285,64.891C15.285,64.891 15.25,64.93 15.202,64.983L15.411,65.174L15.581,65.558L15.428,65.19L15.411,65.174Z"/>
                </g>
                <g transform="matrix(1,0,0,1,150.482,232.314)">
                    <path d="M17.707,63.518C17.83,63.394 18.041,63.183 18.269,62.953L17.705,62.391C17.476,62.621 17.265,62.832 17.142,62.956L17.707,63.518Z"/>
                </g>
                <g transform="matrix(1,0,0,1,150.482,232.314)">
                    <path d="M19.676,61.551C19.842,61.39 20.047,61.19 20.247,60.995L19.692,60.424C19.491,60.619 19.286,60.818 19.12,60.98L19.676,61.551Z"/>
                </g>
                <g transform="matrix(1,0,0,1,150.482,232.314)">
                    <path d="M21.68,59.618C21.87,59.438 22.077,59.243 22.259,59.07L21.711,58.492C21.529,58.664 21.322,58.859 21.132,59.039L21.68,59.618Z"/>
                </g>
                <g transform="matrix(1,0,0,1,150.482,232.314)">
                    <path d="M23.712,57.714C23.933,57.51 24.147,57.312 24.297,57.173L23.756,56.588C23.606,56.727 23.391,56.925 23.171,57.129L23.712,57.714Z"/>
                </g>
                <g transform="matrix(1,0,0,1,150.482,232.314)">
                    <path d="M26.229,55.415L26.356,55.301L25.825,54.707C25.756,54.769 25.703,54.816 25.703,54.816C25.703,54.816 25.968,55.512 25.968,55.512C25.968,55.512 25.694,54.824 25.694,54.824C25.694,54.824 25.471,55.026 25.232,55.244L25.768,55.834L26.229,55.415Z"/>
                </g>
                <g transform="matrix(1,0,0,1,150.482,232.314)">
                    <path d="M27.604,53.707L27.8,53.927L27.699,53.965C27.699,53.965 27.748,53.973 27.82,53.949L27.842,53.973L28.437,53.447L27.91,52.849C27.668,53.063 27.441,53.263 27.441,53.263L27.604,53.707Z"/>
                </g>
                <g transform="matrix(1,0,0,1,150.482,232.314)">
                    <path d="M27.596,53.698L27.432,53.271C27.432,53.271 27.38,53.317 27.311,53.379L27.596,53.698L27.699,53.965L27.604,53.707L27.596,53.698Z"/>
                </g>
                <g transform="matrix(1,0,0,1,150.482,232.314)">
                    <path d="M29.931,52.132C30.09,51.993 30.31,51.802 30.532,51.608L30.008,51.007C29.786,51.201 29.566,51.393 29.407,51.531L29.931,52.132Z"/>
                </g>
                <g transform="matrix(1,0,0,1,150.482,232.314)">
                    <path d="M32.035,50.303C32.232,50.133 32.449,49.946 32.638,49.782L32.117,49.179C31.928,49.343 31.711,49.529 31.514,49.7L32.035,50.303Z"/>
                </g>
                <g transform="matrix(1,0,0,1,150.482,232.314)">
                    <path d="M34.149,48.485C34.39,48.278 34.618,48.083 34.754,47.967L34.236,47.361C34.1,47.478 33.872,47.673 33.63,47.88L34.149,48.485Z"/>
                </g>
                <g transform="matrix(1,0,0,1,150.482,232.314)">
                    <path d="M36.608,46.389L36.877,46.161L36.363,45.553C36.219,45.674 36.1,45.775 36.1,45.775C36.1,45.775 36.355,46.48 36.355,46.48C36.355,46.48 36.092,45.781 36.092,45.781C36.092,45.781 35.935,45.915 35.754,46.069L36.27,46.676L36.608,46.389Z"/>
                </g>
                <g transform="matrix(1,0,0,1,150.482,232.314)">
                    <path d="M38.398,44.875C38.503,44.787 38.742,44.586 39.008,44.362L38.495,43.752C38.229,43.976 37.989,44.178 37.885,44.266L38.398,44.875Z"/>
                </g>
                <g transform="matrix(1,0,0,1,150.482,232.314)">
                    <path d="M40.532,43.08C40.72,42.924 40.939,42.739 41.143,42.568L40.631,41.958C40.427,42.128 40.207,42.313 40.02,42.47L40.532,43.08Z"/>
                </g>
                <g transform="matrix(1,0,0,1,150.482,232.314)">
                    <path d="M42.671,41.29C42.895,41.102 43.118,40.915 43.282,40.778L42.771,40.167C42.607,40.304 42.383,40.491 42.159,40.678L42.671,41.29Z"/>
                </g>
                <g transform="matrix(1,0,0,1,150.482,232.314)">
                    <path d="M45.259,39.128L45.423,38.992L44.913,38.379C44.825,38.453 44.757,38.509 44.757,38.509C44.757,38.509 45.01,39.215 45.01,39.215C45.01,39.215 44.749,38.516 44.749,38.516C44.749,38.516 44.534,38.695 44.301,38.89L44.811,39.502L45.259,39.128Z"/>
                </g>
                <g transform="matrix(1,0,0,1,150.482,232.314)">
                    <path d="M46.555,37.237L46.941,37.701L46.742,37.773C46.742,37.773 46.834,37.788 46.951,37.713L46.954,37.716L47.566,37.206L47.056,36.593C46.773,36.829 46.494,37.062 46.494,37.062L46.555,37.237Z"/>
                </g>
                <g transform="matrix(1,0,0,1,150.482,232.314)">
                    <path d="M46.541,37.22L46.486,37.068C46.486,37.068 46.468,37.083 46.444,37.104L46.541,37.22L46.742,37.773L46.555,37.237L46.541,37.22Z"/>
                </g>
                <g transform="matrix(1,0,0,1,150.482,232.314)">
                    <path d="M49.097,35.93C49.276,35.781 49.497,35.596 49.709,35.419L49.199,34.807C48.987,34.984 48.765,35.169 48.587,35.318L49.097,35.93Z"/>
                </g>
                <g transform="matrix(1,0,0,1,150.482,232.314)">
                    <path d="M51.239,34.142C51.453,33.963 51.675,33.777 51.85,33.631L51.339,33.019C51.164,33.166 50.942,33.351 50.728,33.53L51.239,34.142Z"/>
                </g>
                <g transform="matrix(1,0,0,1,150.482,232.314)">
                    <path d="M53.889,31.909C53.921,31.891 53.955,31.867 53.989,31.838L53.476,31.228C53.438,31.26 53.41,31.284 53.41,31.284C53.41,31.284 53.666,31.987 53.666,31.987C53.666,31.987 53.403,31.29 53.403,31.29C53.403,31.29 53.138,31.512 52.866,31.74L53.378,32.351C53.651,32.122 53.915,31.9 53.915,31.9L53.889,31.909Z"/>
                </g>
                <g transform="matrix(1,0,0,1,150.482,232.314)">
                    <path d="M55.328,30.334L55.47,30.502L55.397,30.528C55.397,30.528 55.432,30.534 55.486,30.521L55.513,30.553C55.592,30.487 55.653,30.436 55.653,30.436L55.652,30.436L56.122,30.037L55.606,29.43C55.367,29.632 55.145,29.821 55.145,29.821L55.328,30.334Z"/>
                </g>
                <g transform="matrix(1,0,0,1,150.482,232.314)">
                    <path d="M55.324,30.33L55.139,29.826C55.139,29.826 55.078,29.877 54.999,29.944L55.324,30.33L55.397,30.528L55.328,30.334L55.324,30.33Z"/>
                </g>
                <g transform="matrix(1,0,0,1,150.482,232.314)">
                    <path d="M57.642,28.746C57.804,28.607 58.025,28.417 58.247,28.227L57.728,27.622C57.507,27.812 57.286,28.001 57.123,28.14L57.642,28.746Z"/>
                </g>
                <g transform="matrix(1,0,0,1,150.482,232.314)">
                    <path d="M59.759,26.926C59.958,26.754 60.174,26.566 60.361,26.404L59.839,25.802C59.652,25.964 59.436,26.151 59.237,26.324L59.759,26.926Z"/>
                </g>
                <g transform="matrix(1,0,0,1,150.482,232.314)">
                    <path d="M61.863,25.09C62.104,24.879 62.329,24.681 62.462,24.564L61.936,23.966C61.803,24.082 61.577,24.28 61.337,24.492L61.863,25.09Z"/>
                </g>
                <g transform="matrix(1,0,0,1,150.482,232.314)">
                    <path d="M64.314,22.91L64.546,22.699L64.009,22.11C63.886,22.222 63.787,22.312 63.787,22.312C63.787,22.312 64.053,23.007 64.053,23.007L63.783,22.316C63.783,22.316 63.613,22.468 63.419,22.641L63.951,23.235L64.314,22.91Z"/>
                </g>
                <g transform="matrix(1,0,0,1,150.482,232.314)">
                    <path d="M65.571,20.866L66.005,21.342L65.784,21.428C65.784,21.428 65.89,21.445 66.016,21.353L66.018,21.356L66.604,20.809L66.06,20.227C65.786,20.482 65.519,20.731 65.519,20.731L65.571,20.866Z"/>
                </g>
                <g transform="matrix(1,0,0,1,150.482,232.314)">
                    <path d="M65.563,20.857L65.515,20.735C65.515,20.735 65.501,20.748 65.481,20.767L65.563,20.857L65.784,21.428L65.571,20.866L65.563,20.857Z"/>
                </g>
                <g transform="matrix(1,0,0,1,150.482,232.314)">
                    <path d="M68.06,19.441C68.218,19.291 68.426,19.091 68.636,18.89L68.084,18.315C67.874,18.516 67.666,18.716 67.509,18.866L68.06,19.441Z"/>
                </g>
                <g transform="matrix(1,0,0,1,150.482,232.314)">
                    <path d="M70.07,17.498C70.25,17.32 70.451,17.121 70.637,16.938L70.076,16.371C69.891,16.554 69.689,16.753 69.509,16.931L70.07,17.498Z"/>
                </g>
                <g transform="matrix(1,0,0,1,150.482,232.314)">
                    <path d="M72.045,15.52C72.239,15.322 72.438,15.119 72.603,14.95L72.034,14.393C71.869,14.561 71.67,14.765 71.476,14.962L72.045,15.52Z"/>
                </g>
                <g transform="matrix(1,0,0,1,150.482,232.314)">
                    <path d="M73.985,13.505C74.194,13.285 74.393,13.074 74.533,12.926L73.954,12.379C73.814,12.526 73.615,12.737 73.406,12.957L73.985,13.505Z"/>
                </g>
                <g transform="matrix(1,0,0,1,150.482,232.314)">
                    <path d="M75.885,11.454C76.128,11.189 76.337,10.96 76.423,10.865L75.835,10.328C75.748,10.422 75.539,10.651 75.297,10.916L75.885,11.454Z"/>
                </g>
                <g transform="matrix(1,0,0,1,150.482,232.314)">
                    <path d="M77.746,9.366C77.98,9.101 78.196,8.856 78.196,8.856L77.903,8.984C77.903,8.984 77.598,8.329 77.598,8.329C77.598,8.329 77.382,8.574 77.148,8.839L77.746,9.366Z"/>
                </g>
            </g>
        </g>
    </g>
    <g id="ALL-CANN-PLOTS" serif:id="ALL CANN PLOTS">
        <g id="CANN-ET" serif:id="CANN ET">
            <g id="CANN-ET-UT" serif:id="CANN ET UT" transform="matrix(1,0,0,1,150.477,62.3425)">
                <path d="M0,45.943L1.659,44.199L3.317,42.785L4.976,41.581L6.634,40.514L8.293,39.543L9.951,38.64L11.61,37.785L13.268,36.968L14.927,36.177L16.586,35.408L18.244,34.655L19.903,33.914L21.561,33.182L23.22,32.457L24.878,31.737L26.537,31.019L28.196,30.304L29.854,29.588L31.513,28.872L33.171,28.153L34.83,27.431L36.488,26.704L38.147,25.971L39.805,25.232L41.464,24.484L43.123,23.727L44.781,22.959L46.44,22.179L48.098,21.386L49.757,20.579L51.415,19.755L53.074,18.913L54.732,18.052L56.391,17.17L58.05,16.265L59.708,15.336L61.367,14.38L63.025,13.395L64.684,12.379L66.342,11.331L68.001,10.247L69.66,9.126L71.318,7.964L72.977,6.76L74.635,5.51L76.294,4.213L77.952,2.864L79.611,1.46L81.269,0" style="fill:none;fill-rule:nonzero;stroke:black;stroke-width:0.8px;"/>
            </g>
            <g id="CANN-ET-ET" serif:id="CANN ET ET" transform="matrix(1,0,0,1,150.482,146.142)">
                <path d="M0,69.86L1.497,65.83L2.994,62.858L4.491,60.563L5.987,58.711L7.484,57.157L8.981,55.807L10.478,54.599L11.975,53.492L13.472,52.458L14.969,51.475L16.466,50.531L17.962,49.614L19.459,48.717L20.956,47.834L22.453,46.96L23.95,46.091L25.447,45.224L26.944,44.356L28.441,43.486L29.937,42.609L31.434,41.726L32.931,40.832L34.428,39.926L35.925,39.006L37.422,38.07L38.919,37.114L40.416,36.136L41.912,35.134L43.409,34.103L44.906,33.042L46.403,31.946L47.9,30.81L49.397,29.633L50.894,28.407L52.391,27.13L53.887,25.795L55.384,24.397L56.881,22.93L58.378,21.388L59.875,19.763L61.372,18.048L62.869,16.234L64.366,14.315L65.862,12.279L67.359,10.118L68.856,7.821L70.353,5.377L71.85,2.774L73.347,0" style="fill:none;fill-rule:nonzero;stroke:black;stroke-width:0.8px;"/>
            </g>
            <g id="CANN-ET-PS" serif:id="CANN ET PS" transform="matrix(1,0,0,1,150.482,236.317)">
                <path d="M0,87.401L1.063,84.265L2.764,80.039L4.252,76.933L7.016,72.153L9.567,68.496L18.284,58.672L29.764,48.13L42.307,37.45L53.15,28.32L63.355,19.584L72.071,11.887L79.087,5.459" style="fill:none;fill-rule:nonzero;stroke:black;stroke-width:0.8px;"/>
            </g>
        </g>
    </g>
    <g id="ALL-EXP-PLOTS" serif:id="ALL EXP PLOTS">
        <g id="EXP-ET" serif:id="EXP ET">
            <g id="EXP-ET-PS" serif:id="EXP ET PS">
                <g transform="matrix(0,-1,-1,0,150.482,323.718)">
                    <circle cx="0" cy="0" r="1.594" style="fill:white;stroke:black;stroke-width:0.4px;"/>
                </g>
                <g transform="matrix(0,-1,-1,0,154.202,322.124)">
                    <ellipse cx="1.063" cy="2.657" rx="1.594" ry="1.594" style="fill:white;stroke:black;stroke-width:0.4px;"/>
                </g>
                <g transform="matrix(0,-1,-1,0,159.964,319.764)">
                    <ellipse cx="2.764" cy="6.718" rx="1.594" ry="1.594" style="fill:white;stroke:black;stroke-width:0.4px;"/>
                </g>
                <g transform="matrix(0,-1,-1,0,164.854,317.85)">
                    <ellipse cx="4.252" cy="10.12" rx="1.594" ry="1.594" style="fill:white;stroke:black;stroke-width:0.4px;"/>
                </g>
                <g transform="matrix(0,-1,-1,0,171.529,316.702)">
                    <ellipse cx="7.016" cy="14.032" rx="1.594" ry="1.594" style="fill:white;stroke:black;stroke-width:0.4px;"/>
                </g>
                <g transform="matrix(0,-1,-1,0,177.78,315.554)">
                    <ellipse cx="9.567" cy="17.731" rx="1.594" ry="1.594" style="fill:white;stroke:black;stroke-width:0.4px;"/>
                </g>
                <g transform="matrix(0,-1,-1,0,194.022,316.745)">
                    <ellipse cx="18.284" cy="25.257" rx="1.594" ry="1.594" style="fill:white;stroke:black;stroke-width:0.4px;"/>
                </g>
                <g transform="matrix(0,-1,-1,0,212.859,320.869)">
                    <ellipse cx="29.764" cy="32.613" rx="1.594" ry="1.594" style="fill:white;stroke:black;stroke-width:0.4px;"/>
                </g>
                <g transform="matrix(0,-1,-1,0,232.971,325.844)">
                    <ellipse cx="42.307" cy="40.181" rx="1.594" ry="1.594" style="fill:white;stroke:black;stroke-width:0.4px;"/>
                </g>
                <g transform="matrix(0,-1,-1,0,251.679,328.82)">
                    <ellipse cx="53.15" cy="48.048" rx="1.594" ry="1.594" style="fill:white;stroke:black;stroke-width:0.4px;"/>
                </g>
                <g transform="matrix(0,-1,-1,0,269.113,331.797)">
                    <circle cx="63.355" cy="55.276" r="1.594" style="fill:white;stroke:black;stroke-width:0.4px;"/>
                </g>
                <g transform="matrix(0,-1,-1,0,285.483,332.86)">
                    <ellipse cx="72.071" cy="62.929" rx="1.594" ry="1.594" style="fill:white;stroke:black;stroke-width:0.4px;"/>
                </g>
                <g transform="matrix(0,-1,-1,0,299.302,333.072)">
                    <ellipse cx="79.087" cy="69.733" rx="1.594" ry="1.594" style="fill:white;stroke:black;stroke-width:0.4px;"/>
                </g>
                <g transform="matrix(0,-1,-1,0,312.696,331.159)">
                    <ellipse cx="84.827" cy="77.386" rx="1.594" ry="1.594" style="fill:white;stroke:black;stroke-width:0.4px;"/>
                </g>
            </g>
            <g id="EXP-ET-ET" serif:id="EXP ET ET">
                <g transform="matrix(0,-1,-1,0,150.482,216.002)">
                    <circle cx="0" cy="0" r="1.594" style="fill:white;stroke:black;stroke-width:0.4px;"/>
                </g>
                <g transform="matrix(0,-1,-1,0,154.003,214.182)">
                    <ellipse cx="0.85" cy="2.67" rx="1.594" ry="1.594" style="fill:white;stroke:black;stroke-width:0.4px;"/>
                </g>
                <g transform="matrix(0,-1,-1,0,156.718,213.167)">
                    <ellipse cx="1.701" cy="4.536" rx="1.594" ry="1.594" style="fill:white;stroke:black;stroke-width:0.4px;"/>
                </g>
                <g transform="matrix(0,-1,-1,0,159.836,211.75)">
                    <circle cx="2.551" cy="6.803" r="1.594" style="fill:white;stroke:black;stroke-width:0.4px;"/>
                </g>
                <g transform="matrix(0,-1,-1,0,161.041,211.821)">
                    <circle cx="3.189" cy="7.37" r="1.594" style="fill:white;stroke:black;stroke-width:0.4px;"/>
                </g>
                <g transform="matrix(0,-1,-1,0,164.329,211.084)">
                    <ellipse cx="4.465" cy="9.383" rx="1.594" ry="1.594" style="fill:white;stroke:black;stroke-width:0.4px;"/>
                </g>
                <g transform="matrix(0,-1,-1,0,169.73,210.361)">
                    <circle cx="6.803" cy="12.444" r="1.594" style="fill:white;stroke:black;stroke-width:0.4px;"/>
                </g>
                <g transform="matrix(0,-1,-1,0,174.194,210.573)">
                    <ellipse cx="9.142" cy="14.57" rx="1.594" ry="1.594" style="fill:white;stroke:black;stroke-width:0.4px;"/>
                </g>
                <g transform="matrix(0,-1,-1,0,183.988,212.26)">
                    <ellipse cx="14.882" cy="18.624" rx="1.594" ry="1.594" style="fill:white;stroke:black;stroke-width:0.4px;"/>
                </g>
                <g transform="matrix(0,-1,-1,0,192.591,214.287)">
                    <ellipse cx="20.197" cy="21.912" rx="1.594" ry="1.594" style="fill:white;stroke:black;stroke-width:0.4px;"/>
                </g>
                <g transform="matrix(0,-1,-1,0,209.812,220.452)">
                    <circle cx="31.89" cy="27.44" r="1.594" style="fill:white;stroke:black;stroke-width:0.4px;"/>
                </g>
                <g transform="matrix(0,-1,-1,0,229.57,223.655)">
                    <ellipse cx="43.37" cy="35.717" rx="1.594" ry="1.594" style="fill:white;stroke:black;stroke-width:0.4px;"/>
                </g>
                <g transform="matrix(0,-1,-1,0,244.027,226.206)">
                    <ellipse cx="51.874" cy="41.67" rx="1.594" ry="1.594" style="fill:white;stroke:black;stroke-width:0.4px;"/>
                </g>
                <g transform="matrix(0,-1,-1,0,258.2,225.639)">
                    <circle cx="58.678" cy="49.041" r="1.594" style="fill:white;stroke:black;stroke-width:0.4px;"/>
                </g>
                <g transform="matrix(0,-1,-1,0,270.744,224.576)">
                    <circle cx="64.418" cy="55.844" r="1.594" style="fill:white;stroke:black;stroke-width:0.4px;"/>
                </g>
                <g transform="matrix(0,-1,-1,0,283.004,222.095)">
                    <circle cx="69.307" cy="63.214" r="1.594" style="fill:white;stroke:black;stroke-width:0.4px;"/>
                </g>
                <g transform="matrix(0,-1,-1,0,293.279,219.898)">
                    <ellipse cx="73.347" cy="69.45" rx="1.594" ry="1.594" style="fill:white;stroke:black;stroke-width:0.4px;"/>
                </g>
            </g>
            <g id="EXP-ET-UT" serif:id="EXP ET UT">
                <g transform="matrix(0,-1,-1,0,150.477,108.286)">
                    <circle cx="0" cy="0" r="1.594" style="fill:white;stroke:black;stroke-width:0.4px;"/>
                </g>
                <g transform="matrix(0,-1,-1,0,150.634,108.372)">
                    <circle cx="0.121" cy="0.036" r="1.594" style="fill:white;stroke:black;stroke-width:0.4px;"/>
                </g>
                <g transform="matrix(0,-1,-1,0,153.708,108.213)">
                    <ellipse cx="1.579" cy="1.652" rx="1.594" ry="1.594" style="fill:white;stroke:black;stroke-width:0.4px;"/>
                </g>
                <g transform="matrix(0,-1,-1,0,156.126,108.225)">
                    <circle cx="2.794" cy="2.855" r="1.594" style="fill:white;stroke:black;stroke-width:0.4px;"/>
                </g>
                <g transform="matrix(0,-1,-1,0,159.515,109.209)">
                    <circle cx="4.981" cy="4.057" r="1.594" style="fill:white;stroke:black;stroke-width:0.4px;"/>
                </g>
                <g transform="matrix(0,-1,-1,0,163.147,110.436)">
                    <ellipse cx="7.41" cy="5.26" rx="1.594" ry="1.594" style="fill:white;stroke:black;stroke-width:0.4px;"/>
                </g>
                <g transform="matrix(0,-1,-1,0,167.593,112.793)">
                    <circle cx="10.812" cy="6.305" r="1.594" style="fill:white;stroke:black;stroke-width:0.4px;"/>
                </g>
                <g transform="matrix(0,-1,-1,0,171.906,115.283)">
                    <circle cx="14.213" cy="7.216" r="1.594" style="fill:white;stroke:black;stroke-width:0.4px;"/>
                </g>
                <g transform="matrix(0,-1,-1,0,176.352,117.64)">
                    <ellipse cx="17.614" cy="8.261" rx="1.594" ry="1.594" style="fill:white;stroke:black;stroke-width:0.4px;"/>
                </g>
                <g transform="matrix(0,-1,-1,0,186.022,122.791)">
                    <ellipse cx="25.025" cy="10.52" rx="1.594" ry="1.594" style="fill:white;stroke:black;stroke-width:0.4px;"/>
                </g>
                <g transform="matrix(0,-1,-1,0,195.181,127.237)">
                    <circle cx="31.827" cy="12.877" r="1.594" style="fill:white;stroke:black;stroke-width:0.4px;"/>
                </g>
                <g transform="matrix(0,-1,-1,0,202.713,130.395)">
                    <ellipse cx="37.173" cy="15.063" rx="1.594" ry="1.594" style="fill:white;stroke:black;stroke-width:0.4px;"/>
                </g>
                <g transform="matrix(0,-1,-1,0,216.319,135.254)">
                    <ellipse cx="46.405" cy="19.437" rx="1.594" ry="1.594" style="fill:white;stroke:black;stroke-width:0.4px;"/>
                </g>
                <g transform="matrix(0,-1,-1,0,227.738,138.17)">
                    <circle cx="53.572" cy="23.688" r="1.594" style="fill:white;stroke:black;stroke-width:0.4px;"/>
                </g>
                <g transform="matrix(0,-1,-1,0,236.606,138.534)">
                    <ellipse cx="58.188" cy="27.94" rx="1.594" ry="1.594" style="fill:white;stroke:black;stroke-width:0.4px;"/>
                </g>
                <g transform="matrix(0,-1,-1,0,246.567,139.263)">
                    <ellipse cx="63.534" cy="32.556" rx="1.594" ry="1.594" style="fill:white;stroke:black;stroke-width:0.4px;"/>
                </g>
                <g transform="matrix(0,-1,-1,0,253.613,137.805)">
                    <circle cx="66.328" cy="36.808" r="1.594" style="fill:white;stroke:black;stroke-width:0.4px;"/>
                </g>
                <g transform="matrix(0,-1,-1,0,260.658,135.862)">
                    <ellipse cx="68.879" cy="41.303" rx="1.594" ry="1.594" style="fill:white;stroke:black;stroke-width:0.4px;"/>
                </g>
                <g transform="matrix(0,-1,-1,0,268.798,134.768)">
                    <ellipse cx="72.401" cy="45.919" rx="1.594" ry="1.594" style="fill:white;stroke:black;stroke-width:0.4px;"/>
                </g>
                <g transform="matrix(0,-1,-1,0,275.6,132.339)">
                    <ellipse cx="74.588" cy="50.535" rx="1.594" ry="1.594" style="fill:white;stroke:black;stroke-width:0.4px;"/>
                </g>
                <g transform="matrix(0,-1,-1,0,280.945,129.666)">
                    <ellipse cx="75.924" cy="54.544" rx="1.594" ry="1.594" style="fill:white;stroke:black;stroke-width:0.4px;"/>
                </g>
                <g transform="matrix(0,-1,-1,0,286.776,126.508)">
                    <circle cx="77.261" cy="59.039" r="1.594" style="fill:white;stroke:black;stroke-width:0.4px;"/>
                </g>
                <g transform="matrix(0,-1,-1,0,292.972,123.471)">
                    <ellipse cx="78.84" cy="63.655" rx="1.594" ry="1.594" style="fill:white;stroke:black;stroke-width:0.4px;"/>
                </g>
                <g transform="matrix(0,-1,-1,0,298.681,120.434)">
                    <ellipse cx="80.176" cy="68.028" rx="1.594" ry="1.594" style="fill:white;stroke:black;stroke-width:0.4px;"/>
                </g>
                <g transform="matrix(0,-1,-1,0,308.643,112.659)">
                    <circle cx="81.269" cy="76.896" r="1.594" style="fill:white;stroke:black;stroke-width:0.4px;"/>
                </g>
            </g>
        </g>
    </g>
    <g id="ALL-AXES" serif:id="ALL AXES">
    </g>
    <g id="anchors">
        <g transform="matrix(0.0874319,0,0,0.0874319,0,0)">
            <circle cx="5.719" cy="5.719" r="5.719"/>
        </g>
        <g transform="matrix(0.0874319,0,0,0.0874319,462.849,366.325)">
            <circle cx="5.719" cy="5.719" r="5.719"/>
        </g>
    </g>
</svg>
