<?xml version="1.0" encoding="UTF-8" standalone="no"?>
<!DOCTYPE svg PUBLIC "-//W3C//DTD SVG 1.1//EN" "http://www.w3.org/Graphics/SVG/1.1/DTD/svg11.dtd">
<svg width="100%" height="100%" viewBox="0 0 260 232" version="1.1" xmlns="http://www.w3.org/2000/svg" xmlns:xlink="http://www.w3.org/1999/xlink" xml:space="preserve" xmlns:serif="http://www.serif.com/" style="fill-rule:evenodd;clip-rule:evenodd;stroke-linejoin:round;stroke-miterlimit:2;">
    <g id="axes_2" transform="matrix(1,0,0,1,-260.949,-101.618)">
        <g id="patch_7">
            <rect x="315.491" y="103.68" width="202.909" height="191.859" style="fill:white;fill-opacity:0.06;"/>
        </g>
        <g id="PathCollection_12">
            <path d="M335.425,295.539L518.192,295.539L518.192,249.317L518.4,187.029L513.369,184.145L513.023,183.946L508.374,181.423L505.472,179.785L503.417,178.695L498.497,176.002L497.748,175.589L493.614,173.452L489.743,171.358L488.768,170.866L483.959,168.411L481.457,167.092L479.187,165.978L474.453,163.589L472.894,162.79L469.755,161.3L465.095,159.002L463.99,158.454L460.471,156.844L455.885,154.66L454.674,154.082L451.336,152.617L446.824,150.573L444.861,149.676L442.349,148.625L437.911,146.741L434.443,145.234L433.51,144.865L429.147,143.161L424.82,141.424L423.141,140.757L420.531,139.82L416.279,138.297L412.063,136.773L410.562,136.245L407.885,135.399L403.744,134.117L399.64,132.863L395.731,131.698L395.574,131.657L391.544,130.661L387.551,129.719L383.596,128.845L379.677,128.049L375.796,127.344L374.324,127.116L371.952,126.794L368.145,126.374L364.375,126.063L360.642,125.869L356.946,125.803L353.288,125.873L349.666,126.089L346.082,126.458L342.534,126.988L341.888,127.116L339.024,127.774L335.551,128.777L332.115,129.981L328.716,131.387L328.075,131.698L325.354,133.193L322.029,135.274L320.665,136.245L318.741,137.774L315.491,140.658L315.491,272.379L316.107,273.287L318.371,276.571L318.741,277.096L320.843,279.82L322.029,281.361L323.423,283.034L325.354,285.337L326.142,286.213L328.716,289.036L329.027,289.357L335.425,295.539Z" style="fill:none;fill-rule:nonzero;stroke:black;stroke-width:1px;"/>
        </g>
        <g transform="matrix(0.15,0,0,-0.15,404.57,330.994)">
            <g id="matplotlib.axis_3">
                <g>
                    <g id="text_14">
                        <g>
                            <g id="DejaVuSerif-Italic-69" transform="matrix(1,0,0,1,0,0.09375)">
                                <path d="M-1.516,0L-0.531,5.172L8.734,5.172L20.906,67.672L11.625,67.672L12.641,72.906L71.344,72.906L68.219,56.688L62.203,56.688L64.156,66.891L30.672,66.891L25.922,42.484L49.813,42.484L51.563,51.609L57.563,51.609L52.875,27.391L46.875,27.391L48.641,36.531L24.75,36.531L18.844,6L53.125,6L55.078,16.219L61.078,16.219L57.953,0L-1.516,0Z" style="fill-rule:nonzero;"/>
                            </g>
                            <g id="DejaVuSerif-49" transform="matrix(0.7,0,0,0.7,72.998,-15.4781)">
                                <path d="M14.203,0L14.203,5.172L26.906,5.172L26.906,65.828L12.203,56.297L12.203,62.703L29.984,74.219L36.719,74.219L36.719,5.172L49.422,5.172L49.422,0L14.203,0Z" style="fill-rule:nonzero;"/>
                            </g>
                            <g id="DejaVuSerif-491" serif:id="DejaVuSerif-49" transform="matrix(0.7,0,0,0.7,117.534,-15.4781)">
                                <path d="M14.203,0L14.203,5.172L26.906,5.172L26.906,65.828L12.203,56.297L12.203,62.703L29.984,74.219L36.719,74.219L36.719,5.172L49.422,5.172L49.422,0L14.203,0Z" style="fill-rule:nonzero;"/>
                            </g>
                        </g>
                    </g>
                </g>
            </g>
        </g>
        <g transform="matrix(-5.74285e-17,-0.15,-0.15,5.74285e-17,271.899,211.984)">
            <g id="matplotlib.axis_4">
                <g>
                    <g id="text_19">
                        <g>
                            <g id="DejaVuSerif-Italic-691" serif:id="DejaVuSerif-Italic-69" transform="matrix(1,0,0,1,0,0.09375)">
                                <path d="M-1.516,0L-0.531,5.172L8.734,5.172L20.906,67.672L11.625,67.672L12.641,72.906L71.344,72.906L68.219,56.688L62.203,56.688L64.156,66.891L30.672,66.891L25.922,42.484L49.813,42.484L51.563,51.609L57.563,51.609L52.875,27.391L46.875,27.391L48.641,36.531L24.75,36.531L18.844,6L53.125,6L55.078,16.219L61.078,16.219L57.953,0L-1.516,0Z" style="fill-rule:nonzero;"/>
                            </g>
                            <g id="DejaVuSerif-50" transform="matrix(0.7,0,0,0.7,72.998,-15.4781)">
                                <path d="M12.797,55.516L7.328,55.516L7.328,68.5C10.807,70.365 14.313,71.781 17.844,72.75C21.375,73.729 24.833,74.219 28.219,74.219C35.802,74.219 41.792,72.38 46.188,68.703C50.583,65.026 52.781,60.031 52.781,53.719C52.781,46.583 47.802,38.052 37.844,28.125C37.063,27.375 36.474,26.807 36.078,26.422L17.672,8.016L48.094,8.016L48.094,17L53.813,17L53.813,0L6.781,0L6.781,5.328L28.906,27.391C33.792,32.276 37.276,36.76 39.359,40.844C41.443,44.927 42.484,49.219 42.484,53.719C42.484,58.625 41.203,62.464 38.641,65.234C36.089,68.005 32.568,69.391 28.078,69.391C23.422,69.391 19.823,68.234 17.281,65.922C14.75,63.609 13.255,60.141 12.797,55.516Z" style="fill-rule:nonzero;"/>
                            </g>
                            <g id="DejaVuSerif-501" serif:id="DejaVuSerif-50" transform="matrix(0.7,0,0,0.7,117.534,-15.4781)">
                                <path d="M12.797,55.516L7.328,55.516L7.328,68.5C10.807,70.365 14.313,71.781 17.844,72.75C21.375,73.729 24.833,74.219 28.219,74.219C35.802,74.219 41.792,72.38 46.188,68.703C50.583,65.026 52.781,60.031 52.781,53.719C52.781,46.583 47.802,38.052 37.844,28.125C37.063,27.375 36.474,26.807 36.078,26.422L17.672,8.016L48.094,8.016L48.094,17L53.813,17L53.813,0L6.781,0L6.781,5.328L28.906,27.391C33.792,32.276 37.276,36.76 39.359,40.844C41.443,44.927 42.484,49.219 42.484,53.719C42.484,58.625 41.203,62.464 38.641,65.234C36.089,68.005 32.568,69.391 28.078,69.391C23.422,69.391 19.823,68.234 17.281,65.922C14.75,63.609 13.255,60.141 12.797,55.516Z" style="fill-rule:nonzero;"/>
                            </g>
                        </g>
                    </g>
                </g>
            </g>
        </g>
    </g>
</svg>
