<?xml version="1.0" encoding="UTF-8" standalone="no"?>
<!DOCTYPE svg PUBLIC "-//W3C//DTD SVG 1.1//EN" "http://www.w3.org/Graphics/SVG/1.1/DTD/svg11.dtd">
<svg width="100%" height="100%" viewBox="0 0 260 232" version="1.1" xmlns="http://www.w3.org/2000/svg" xmlns:xlink="http://www.w3.org/1999/xlink" xml:space="preserve" xmlns:serif="http://www.serif.com/" style="fill-rule:evenodd;clip-rule:evenodd;stroke-linejoin:round;stroke-miterlimit:2;">
    <g id="axes_1" transform="matrix(1,0,0,1,-17.4578,-101.618)">
        <g id="patch_2">
            <rect x="72" y="103.68" width="202.909" height="191.859" style="fill:white;"/>
        </g>
        <g id="PathCollection_1">
            <path d="M148.053,293.28L152.083,294.809L154.12,295.539L270.451,295.539L274.909,292.736L274.909,247.837L273.189,245.752L270.005,242.153L269.878,242.023L266.452,238.518L264.883,237.008L262.653,234.848L259.926,232.366L258.594,231.143L255.006,228.052L254.261,227.403L250.123,224.024L249.643,223.628L245.277,220.246L244.732,219.817L240.468,216.682L239.519,215.972L235.696,213.301L234,212.092L230.962,210.073L228.168,208.176L226.264,206.972L222.021,204.226L221.604,203.975L216.98,201.188L215.435,200.24L212.394,198.513L208.461,196.219L207.845,195.887L203.333,193.469L200.939,192.163L198.858,191.118L194.42,188.874L192.83,188.072L190.02,186.773L185.656,184.744L183.921,183.946L181.329,182.859L177.04,181.078L173.898,179.785L172.788,179.37L168.573,177.862L164.394,176.395L161.983,175.589L160.253,175.068L156.15,173.918L152.083,172.855L148.053,171.897L145.441,171.358L144.06,171.103L140.105,170.509L136.187,170.06L132.305,169.774L128.461,169.67L124.654,169.765L120.884,170.077L117.151,170.624L113.747,171.358L113.455,171.432L109.797,172.662L106.175,174.213L103.56,175.589L102.591,176.183L99.043,178.783L97.881,179.785L95.533,182.147L93.994,183.946L92.06,186.605L91.137,188.072L88.983,192.163L88.624,193L87.432,196.219L86.266,200.24L85.419,204.226L85.225,205.637L84.926,208.176L84.706,212.092L84.716,215.972L84.935,219.817L85.225,222.494L85.366,223.628L86.048,227.403L86.905,231.143L87.911,234.848L88.624,237.135L89.114,238.518L90.559,242.153L92.06,245.683L92.093,245.752L93.967,249.317L95.533,252.191L95.934,252.847L98.194,256.341L99.043,257.609L100.68,259.801L102.591,262.301L103.375,263.225L106.175,266.452L106.331,266.614L109.635,269.968L109.797,270.128L113.284,273.287L113.455,273.439L117.151,276.442L117.325,276.571L120.884,279.151L121.884,279.82L124.654,281.629L126.96,283.034L128.461,283.921L132.305,286.066L132.584,286.213L136.187,288.029L138.924,289.357L140.105,289.905L144.06,291.645L146.017,292.465L148.053,293.28ZM155.199,249.317L152.083,248.099L148.053,246.251L147.126,245.752L144.06,243.959L141.283,242.153L140.105,241.316L136.539,238.518L136.187,238.215L132.625,234.848L132.305,234.515L129.346,231.143L128.461,230.029L126.553,227.403L124.654,224.184L124.378,223.628L123.31,219.817L123.155,215.972L124.064,212.092L124.654,211.008L126.658,208.176L128.461,206.644L132.305,204.345L132.619,204.226L136.187,203.287L140.105,202.803L144.06,202.781L148.053,203.148L152.083,203.83L153.749,204.226L156.15,204.928L160.253,206.375L164.394,207.972L164.867,208.176L168.573,210.141L172.213,212.092L172.788,212.48L177.04,215.429L177.816,215.972L181.329,219.099L182.146,219.817L185.342,223.628L185.656,224.249L187.258,227.403L188.398,231.143L189.016,234.848L188.983,238.518L188.108,242.153L186.118,245.752L185.656,246.265L181.83,249.317L181.329,249.587L177.04,251.117L172.788,251.849L168.573,251.955L164.394,251.564L160.253,250.774L156.15,249.658L155.199,249.317Z" style="fill:rgb(220,233,246);fill-rule:nonzero;"/>
        </g>
        <g id="PathCollection_2">
            <path d="M88.624,295.373L88.788,295.539L154.12,295.539L152.083,294.809L148.053,293.28L146.017,292.465L144.06,291.645L140.105,289.905L138.924,289.357L136.187,288.029L132.584,286.213L132.305,286.066L128.461,283.921L126.96,283.034L124.654,281.629L121.884,279.82L120.884,279.151L117.325,276.571L117.151,276.442L113.455,273.439L113.284,273.287L109.797,270.128L109.635,269.968L106.331,266.614L106.175,266.452L103.375,263.225L102.591,262.301L100.68,259.801L99.043,257.609L98.194,256.341L95.934,252.847L95.533,252.191L93.967,249.317L92.093,245.752L92.06,245.683L90.559,242.153L89.114,238.518L88.624,237.135L87.911,234.848L86.905,231.143L86.048,227.403L85.366,223.628L85.225,222.494L84.935,219.817L84.716,215.972L84.706,212.092L84.926,208.176L85.225,205.637L85.419,204.226L86.266,200.24L87.432,196.219L88.624,193L88.983,192.163L91.137,188.072L92.06,186.605L93.994,183.946L95.533,182.147L97.881,179.785L99.043,178.783L102.591,176.183L103.56,175.589L106.175,174.213L109.797,172.662L113.455,171.432L113.747,171.358L117.151,170.624L120.884,170.077L124.654,169.765L128.461,169.67L132.305,169.774L136.187,170.06L140.105,170.509L144.06,171.103L145.441,171.358L148.053,171.897L152.083,172.855L156.15,173.918L160.253,175.068L161.983,175.589L164.394,176.395L168.573,177.862L172.788,179.37L173.898,179.785L177.04,181.078L181.329,182.859L183.921,183.946L185.656,184.744L190.02,186.773L192.83,188.072L194.42,188.874L198.858,191.118L200.939,192.163L203.333,193.469L207.845,195.887L208.461,196.219L212.394,198.513L215.435,200.24L216.98,201.188L221.604,203.975L222.021,204.226L226.264,206.972L228.168,208.176L230.962,210.073L234,212.092L235.696,213.301L239.519,215.972L240.468,216.682L244.732,219.817L245.277,220.246L249.643,223.628L250.123,224.024L254.261,227.403L255.006,228.052L258.594,231.143L259.926,232.366L262.653,234.848L264.883,237.008L266.452,238.518L269.878,242.023L270.005,242.153L273.189,245.752L274.909,247.837L274.909,188.948L273.424,188.072L269.878,186.093L266.168,183.946L264.883,183.245L259.926,180.486L258.688,179.785L255.006,177.827L250.971,175.589L250.123,175.148L245.277,172.61L242.959,171.358L240.468,170.103L235.696,167.619L234.691,167.092L230.962,165.276L226.264,162.875L226.097,162.79L221.604,160.685L217.092,158.454L216.98,158.403L212.394,156.341L207.845,154.187L207.622,154.082L203.333,152.248L198.858,150.252L197.56,149.676L194.42,148.404L190.02,146.587L186.796,145.234L185.656,144.8L181.329,143.177L177.04,141.531L174.998,140.757L172.788,140.002L168.573,138.58L164.394,137.167L161.617,136.245L160.253,135.841L156.15,134.673L152.083,133.542L148.053,132.459L145.055,131.698L144.06,131.475L140.105,130.663L136.187,129.924L132.305,129.27L128.461,128.714L124.654,128.268L120.884,127.942L117.151,127.749L113.455,127.699L109.797,127.803L106.175,128.069L102.591,128.506L99.043,129.12L95.533,129.918L92.06,130.901L89.734,131.698L88.624,132.133L85.225,133.705L81.863,135.493L80.63,136.245L78.538,137.678L75.251,140.209L74.621,140.757L72,143.288L72,274.018L73.661,276.571L75.251,279.057L75.788,279.82L78.092,283.034L78.538,283.645L80.582,286.213L81.863,287.825L83.176,289.357L85.225,291.731L85.903,292.465L88.624,295.373Z" style="fill:rgb(159,202,225);fill-rule:nonzero;"/>
            <path d="M274.909,295.539L274.909,292.736L270.451,295.539L274.909,295.539Z" style="fill:rgb(159,202,225);fill-rule:nonzero;"/>
        </g>
        <g id="PathCollection_3">
            <path d="M74.979,295.539L88.788,295.539L88.624,295.373L85.903,292.465L85.225,291.731L83.176,289.357L81.863,287.825L80.582,286.213L78.538,283.645L78.092,283.034L75.788,279.82L75.251,279.057L73.661,276.571L72,274.018L72,291.932L72.436,292.465L74.979,295.539Z" style="fill:rgb(102,171,212);fill-rule:nonzero;"/>
            <path d="M274.909,188.948L274.909,167.911L273.431,167.092L269.878,165.253L265.372,162.79L264.883,162.542L259.926,160.012L257.017,158.454L255.006,157.457L250.123,154.956L248.453,154.082L245.277,152.549L240.468,150.106L239.624,149.676L235.696,147.836L230.962,145.478L230.471,145.234L226.264,143.327L221.604,141.079L220.934,140.757L216.98,139.029L212.394,136.915L210.953,136.245L207.845,134.941L203.333,132.981L200.46,131.698L198.858,131.056L194.42,129.267L190.02,127.408L189.318,127.116L185.656,125.756L181.329,124.102L177.257,122.499L177.04,122.423L172.788,120.983L168.573,119.521L164.394,118.049L163.8,117.847L160.253,116.787L156.15,115.566L152.083,114.362L148.053,113.189L147.945,113.16L144.06,112.239L140.105,111.337L136.187,110.49L132.305,109.71L128.461,109.008L124.904,108.437L124.654,108.403L120.884,107.976L117.151,107.644L113.455,107.415L109.797,107.299L106.175,107.305L102.591,107.44L99.043,107.711L95.533,108.123L93.575,108.437L92.06,108.724L88.624,109.558L85.225,110.566L81.863,111.747L78.538,113.097L78.405,113.16L75.251,114.864L72,116.823L72,143.288L74.621,140.757L75.251,140.209L78.538,137.678L80.63,136.245L81.863,135.493L85.225,133.705L88.624,132.133L89.734,131.698L92.06,130.901L95.533,129.918L99.043,129.12L102.591,128.506L106.175,128.069L109.797,127.803L113.455,127.699L117.151,127.749L120.884,127.942L124.654,128.268L128.461,128.714L132.305,129.27L136.187,129.924L140.105,130.663L144.06,131.475L145.055,131.698L148.053,132.459L152.083,133.542L156.15,134.673L160.253,135.841L161.617,136.245L164.394,137.167L168.573,138.58L172.788,140.002L174.998,140.757L177.04,141.531L181.329,143.177L185.656,144.8L186.796,145.234L190.02,146.587L194.42,148.404L197.56,149.676L198.858,150.252L203.333,152.248L207.622,154.082L207.845,154.187L212.394,156.341L216.98,158.403L217.092,158.454L221.604,160.685L226.097,162.79L226.264,162.875L230.962,165.276L234.691,167.092L235.696,167.619L240.468,170.103L242.959,171.358L245.277,172.61L250.123,175.148L250.971,175.589L255.006,177.827L258.688,179.785L259.926,180.486L264.883,183.245L266.168,183.946L269.878,186.093L273.424,188.072L274.909,188.948Z" style="fill:rgb(102,171,212);fill-rule:nonzero;"/>
        </g>
        <g id="PathCollection_4">
            <path d="M72.436,292.465L72,291.932L72,295.539L74.979,295.539L72.436,292.465Z" style="fill:rgb(70,149,200);fill-rule:nonzero;"/>
            <path d="M274.909,167.911L274.909,143.117L270.514,140.757L269.878,140.446L264.883,137.98L261.599,136.245L259.926,135.445L255.006,133.012L252.471,131.698L250.123,130.601L245.277,128.23L243.083,127.116L240.468,125.925L235.696,123.644L233.391,122.499L230.962,121.424L226.264,119.255L223.355,117.847L221.604,117.096L216.98,115.063L212.937,113.16L212.394,112.935L207.845,111.056L203.333,109.05L201.964,108.437L198.858,107.22L194.42,105.407L190.416,103.68L72,103.68L72,116.823L75.251,114.864L78.405,113.16L78.538,113.097L81.863,111.747L85.225,110.566L88.624,109.558L92.06,108.724L93.575,108.437L95.533,108.123L99.043,107.711L102.591,107.44L106.175,107.305L109.797,107.299L113.455,107.415L117.151,107.644L120.884,107.976L124.654,108.403L124.904,108.437L128.461,109.008L132.305,109.71L136.187,110.49L140.105,111.337L144.06,112.239L147.945,113.16L148.053,113.189L152.083,114.362L156.15,115.566L160.253,116.787L163.8,117.847L164.394,118.049L168.573,119.521L172.788,120.983L177.04,122.423L177.257,122.499L181.329,124.102L185.656,125.756L189.318,127.116L190.02,127.408L194.42,129.267L198.858,131.056L200.46,131.698L203.333,132.981L207.845,134.941L210.953,136.245L212.394,136.915L216.98,139.029L220.934,140.757L221.604,141.079L226.264,143.327L230.471,145.234L230.962,145.478L235.696,147.836L239.624,149.676L240.468,150.106L245.277,152.549L248.453,154.082L250.123,154.956L255.006,157.457L257.017,158.454L259.926,160.012L264.883,162.542L265.372,162.79L269.878,165.253L273.431,167.092L274.909,167.911Z" style="fill:rgb(70,149,200);fill-rule:nonzero;"/>
        </g>
        <g id="PathCollection_5">
            <path d="M274.909,143.117L274.909,126.662L269.878,124.18L266.714,122.499L264.883,121.631L259.926,119.18L257.376,117.847L255.006,116.748L250.123,114.357L247.792,113.16L245.277,112.02L240.468,109.718L237.925,108.437L235.696,107.453L230.962,105.265L227.745,103.68L190.416,103.68L194.42,105.407L198.858,107.22L201.964,108.437L203.333,109.05L207.845,111.056L212.394,112.935L212.937,113.16L216.98,115.063L221.604,117.096L223.355,117.847L226.264,119.255L230.962,121.424L233.391,122.499L235.696,123.644L240.468,125.925L243.083,127.116L245.277,128.23L250.123,130.601L252.471,131.698L255.006,133.012L259.926,135.445L261.599,136.245L264.883,137.98L269.878,140.446L270.514,140.757L274.909,143.117Z" style="fill:rgb(44,124,186);fill-rule:nonzero;"/>
        </g>
        <g id="PathCollection_6">
            <path d="M269.878,124.18L274.909,126.662L274.909,112.155L269.878,109.614L267.669,108.437L264.883,107.136L259.926,104.638L258.101,103.68L227.745,103.68L230.962,105.265L235.696,107.453L237.925,108.437L240.468,109.718L245.277,112.02L247.792,113.16L250.123,114.357L255.006,116.748L257.376,117.847L259.926,119.18L264.883,121.631L266.714,122.499L269.878,124.18Z" style="fill:rgb(25,102,173);fill-rule:nonzero;"/>
        </g>
        <g id="PathCollection_7">
            <path d="M269.878,109.614L274.909,112.155L274.909,103.68L258.101,103.68L259.926,104.638L264.883,107.136L267.669,108.437L269.878,109.614Z" style="fill:rgb(8,81,156);fill-rule:nonzero;"/>
        </g>
        <g transform="matrix(0.15,0,0,-0.15,161.08,330.994)">
            <g id="matplotlib.axis_1">
                <g>
                    <g id="text_3">
                        <g>
                            <g id="DejaVuSerif-Italic-69" transform="matrix(1,0,0,1,0,0.09375)">
                                <path d="M-1.516,0L-0.531,5.172L8.734,5.172L20.906,67.672L11.625,67.672L12.641,72.906L71.344,72.906L68.219,56.688L62.203,56.688L64.156,66.891L30.672,66.891L25.922,42.484L49.813,42.484L51.563,51.609L57.563,51.609L52.875,27.391L46.875,27.391L48.641,36.531L24.75,36.531L18.844,6L53.125,6L55.078,16.219L61.078,16.219L57.953,0L-1.516,0Z" style="fill-rule:nonzero;"/>
                            </g>
                            <g id="DejaVuSerif-49" transform="matrix(0.7,0,0,0.7,72.998,-15.4781)">
                                <path d="M14.203,0L14.203,5.172L26.906,5.172L26.906,65.828L12.203,56.297L12.203,62.703L29.984,74.219L36.719,74.219L36.719,5.172L49.422,5.172L49.422,0L14.203,0Z" style="fill-rule:nonzero;"/>
                            </g>
                            <g id="DejaVuSerif-491" serif:id="DejaVuSerif-49" transform="matrix(0.7,0,0,0.7,117.534,-15.4781)">
                                <path d="M14.203,0L14.203,5.172L26.906,5.172L26.906,65.828L12.203,56.297L12.203,62.703L29.984,74.219L36.719,74.219L36.719,5.172L49.422,5.172L49.422,0L14.203,0Z" style="fill-rule:nonzero;"/>
                            </g>
                        </g>
                    </g>
                </g>
            </g>
        </g>
        <g transform="matrix(-5.74285e-17,-0.15,-0.15,5.74285e-17,28.4078,211.984)">
            <g id="matplotlib.axis_2">
                <g>
                    <g id="text_8">
                        <g>
                            <g id="DejaVuSerif-Italic-691" serif:id="DejaVuSerif-Italic-69" transform="matrix(1,0,0,1,0,0.09375)">
                                <path d="M-1.516,0L-0.531,5.172L8.734,5.172L20.906,67.672L11.625,67.672L12.641,72.906L71.344,72.906L68.219,56.688L62.203,56.688L64.156,66.891L30.672,66.891L25.922,42.484L49.813,42.484L51.563,51.609L57.563,51.609L52.875,27.391L46.875,27.391L48.641,36.531L24.75,36.531L18.844,6L53.125,6L55.078,16.219L61.078,16.219L57.953,0L-1.516,0Z" style="fill-rule:nonzero;"/>
                            </g>
                            <g id="DejaVuSerif-50" transform="matrix(0.7,0,0,0.7,72.998,-15.4781)">
                                <path d="M12.797,55.516L7.328,55.516L7.328,68.5C10.807,70.365 14.313,71.781 17.844,72.75C21.375,73.729 24.833,74.219 28.219,74.219C35.802,74.219 41.792,72.38 46.188,68.703C50.583,65.026 52.781,60.031 52.781,53.719C52.781,46.583 47.802,38.052 37.844,28.125C37.063,27.375 36.474,26.807 36.078,26.422L17.672,8.016L48.094,8.016L48.094,17L53.813,17L53.813,0L6.781,0L6.781,5.328L28.906,27.391C33.792,32.276 37.276,36.76 39.359,40.844C41.443,44.927 42.484,49.219 42.484,53.719C42.484,58.625 41.203,62.464 38.641,65.234C36.089,68.005 32.568,69.391 28.078,69.391C23.422,69.391 19.823,68.234 17.281,65.922C14.75,63.609 13.255,60.141 12.797,55.516Z" style="fill-rule:nonzero;"/>
                            </g>
                            <g id="DejaVuSerif-501" serif:id="DejaVuSerif-50" transform="matrix(0.7,0,0,0.7,117.534,-15.4781)">
                                <path d="M12.797,55.516L7.328,55.516L7.328,68.5C10.807,70.365 14.313,71.781 17.844,72.75C21.375,73.729 24.833,74.219 28.219,74.219C35.802,74.219 41.792,72.38 46.188,68.703C50.583,65.026 52.781,60.031 52.781,53.719C52.781,46.583 47.802,38.052 37.844,28.125C37.063,27.375 36.474,26.807 36.078,26.422L17.672,8.016L48.094,8.016L48.094,17L53.813,17L53.813,0L6.781,0L6.781,5.328L28.906,27.391C33.792,32.276 37.276,36.76 39.359,40.844C41.443,44.927 42.484,49.219 42.484,53.719C42.484,58.625 41.203,62.464 38.641,65.234C36.089,68.005 32.568,69.391 28.078,69.391C23.422,69.391 19.823,68.234 17.281,65.922C14.75,63.609 13.255,60.141 12.797,55.516Z" style="fill-rule:nonzero;"/>
                            </g>
                        </g>
                    </g>
                </g>
            </g>
        </g>
    </g>
</svg>
