<?xml version="1.0" encoding="UTF-8" standalone="no"?>
<!DOCTYPE svg PUBLIC "-//W3C//DTD SVG 1.1//EN" "http://www.w3.org/Graphics/SVG/1.1/DTD/svg11.dtd">
<svg width="100%" height="100%" viewBox="0 0 260 232" version="1.1" xmlns="http://www.w3.org/2000/svg" xmlns:xlink="http://www.w3.org/1999/xlink" xml:space="preserve" xmlns:serif="http://www.serif.com/" style="fill-rule:evenodd;clip-rule:evenodd;stroke-linejoin:round;stroke-miterlimit:2;">
    <g id="axes_2" transform="matrix(1,0,0,1,-260.949,-101.618)">
        <g id="PathCollection_11">
        </g>
        <g transform="matrix(0.15,0,0,-0.15,404.57,330.994)">
            <g id="matplotlib.axis_3">
                <g>
                    <g id="text_14">
                        <g>
                            <g id="DejaVuSerif-Italic-69" transform="matrix(1,0,0,1,0,0.09375)">
                                <path d="M-1.516,0L-0.531,5.172L8.734,5.172L20.906,67.672L11.625,67.672L12.641,72.906L71.344,72.906L68.219,56.688L62.203,56.688L64.156,66.891L30.672,66.891L25.922,42.484L49.813,42.484L51.563,51.609L57.563,51.609L52.875,27.391L46.875,27.391L48.641,36.531L24.75,36.531L18.844,6L53.125,6L55.078,16.219L61.078,16.219L57.953,0L-1.516,0Z" style="fill-rule:nonzero;"/>
                            </g>
                            <g id="DejaVuSerif-49" transform="matrix(0.7,0,0,0.7,72.998,-15.4781)">
                                <path d="M14.203,0L14.203,5.172L26.906,5.172L26.906,65.828L12.203,56.297L12.203,62.703L29.984,74.219L36.719,74.219L36.719,5.172L49.422,5.172L49.422,0L14.203,0Z" style="fill-rule:nonzero;"/>
                            </g>
                            <g id="DejaVuSerif-491" serif:id="DejaVuSerif-49" transform="matrix(0.7,0,0,0.7,117.534,-15.4781)">
                                <path d="M14.203,0L14.203,5.172L26.906,5.172L26.906,65.828L12.203,56.297L12.203,62.703L29.984,74.219L36.719,74.219L36.719,5.172L49.422,5.172L49.422,0L14.203,0Z" style="fill-rule:nonzero;"/>
                            </g>
                        </g>
                    </g>
                </g>
            </g>
        </g>
        <g transform="matrix(-5.74285e-17,-0.15,-0.15,5.74285e-17,271.899,211.984)">
            <g id="matplotlib.axis_4">
                <g>
                    <g id="text_19">
                        <g>
                            <g id="DejaVuSerif-Italic-691" serif:id="DejaVuSerif-Italic-69" transform="matrix(1,0,0,1,0,0.09375)">
                                <path d="M-1.516,0L-0.531,5.172L8.734,5.172L20.906,67.672L11.625,67.672L12.641,72.906L71.344,72.906L68.219,56.688L62.203,56.688L64.156,66.891L30.672,66.891L25.922,42.484L49.813,42.484L51.563,51.609L57.563,51.609L52.875,27.391L46.875,27.391L48.641,36.531L24.75,36.531L18.844,6L53.125,6L55.078,16.219L61.078,16.219L57.953,0L-1.516,0Z" style="fill-rule:nonzero;"/>
                            </g>
                            <g id="DejaVuSerif-50" transform="matrix(0.7,0,0,0.7,72.998,-15.4781)">
                                <path d="M12.797,55.516L7.328,55.516L7.328,68.5C10.807,70.365 14.313,71.781 17.844,72.75C21.375,73.729 24.833,74.219 28.219,74.219C35.802,74.219 41.792,72.38 46.188,68.703C50.583,65.026 52.781,60.031 52.781,53.719C52.781,46.583 47.802,38.052 37.844,28.125C37.063,27.375 36.474,26.807 36.078,26.422L17.672,8.016L48.094,8.016L48.094,17L53.813,17L53.813,0L6.781,0L6.781,5.328L28.906,27.391C33.792,32.276 37.276,36.76 39.359,40.844C41.443,44.927 42.484,49.219 42.484,53.719C42.484,58.625 41.203,62.464 38.641,65.234C36.089,68.005 32.568,69.391 28.078,69.391C23.422,69.391 19.823,68.234 17.281,65.922C14.75,63.609 13.255,60.141 12.797,55.516Z" style="fill-rule:nonzero;"/>
                            </g>
                            <g id="DejaVuSerif-501" serif:id="DejaVuSerif-50" transform="matrix(0.7,0,0,0.7,117.534,-15.4781)">
                                <path d="M12.797,55.516L7.328,55.516L7.328,68.5C10.807,70.365 14.313,71.781 17.844,72.75C21.375,73.729 24.833,74.219 28.219,74.219C35.802,74.219 41.792,72.38 46.188,68.703C50.583,65.026 52.781,60.031 52.781,53.719C52.781,46.583 47.802,38.052 37.844,28.125C37.063,27.375 36.474,26.807 36.078,26.422L17.672,8.016L48.094,8.016L48.094,17L53.813,17L53.813,0L6.781,0L6.781,5.328L28.906,27.391C33.792,32.276 37.276,36.76 39.359,40.844C41.443,44.927 42.484,49.219 42.484,53.719C42.484,58.625 41.203,62.464 38.641,65.234C36.089,68.005 32.568,69.391 28.078,69.391C23.422,69.391 19.823,68.234 17.281,65.922C14.75,63.609 13.255,60.141 12.797,55.516Z" style="fill-rule:nonzero;"/>
                            </g>
                        </g>
                    </g>
                </g>
            </g>
        </g>
    </g>
    <g transform="matrix(1,0,0,1,-260.949,-101.618)">
        <path d="M395.574,293.804L399.64,295.171L400.83,295.539L509.11,295.539L513.369,293.465L515.163,292.465L518.4,290.26L518.4,249.64L518.192,249.317L515.609,245.752L513.369,242.918L512.762,242.153L509.523,238.518L508.374,237.339L505.954,234.848L503.417,232.42L502.091,231.143L498.497,227.922L497.923,227.403L493.614,223.773L493.444,223.628L488.768,219.912L488.65,219.817L483.959,216.297L483.533,215.972L479.187,212.885L478.091,212.092L474.453,209.639L472.325,208.176L469.755,206.53L466.237,204.226L465.095,203.529L460.471,200.672L459.776,200.24L455.885,197.998L452.875,196.219L451.336,195.376L446.824,192.884L445.523,192.163L442.349,190.54L437.911,188.216L437.632,188.072L433.51,186.126L429.147,184.013L429.005,183.946L424.82,182.147L420.531,180.281L419.356,179.785L416.279,178.602L412.063,177.011L408.219,175.589L407.885,175.477L403.744,174.183L399.64,172.958L395.574,171.82L393.728,171.358L391.544,170.866L387.551,170.087L383.596,169.439L379.677,168.942L375.796,168.616L371.952,168.481L368.145,168.557L364.375,168.862L360.642,169.415L356.946,170.233L353.288,171.333L353.222,171.358L349.666,172.944L346.082,174.913L345.057,175.589L342.534,177.522L340.021,179.785L339.024,180.833L336.473,183.946L335.551,185.27L333.861,188.072L332.115,191.527L331.836,192.163L330.396,196.219L329.282,200.24L328.716,203.066L328.516,204.226L328.089,208.176L327.91,212.092L327.963,215.972L328.233,219.817L328.702,223.628L328.716,223.708L329.453,227.403L330.39,231.143L331.485,234.848L332.115,236.697L332.815,238.518L334.38,242.153L335.551,244.663L336.121,245.752L338.127,249.317L339.024,250.837L340.321,252.847L342.534,256.177L342.653,256.341L345.297,259.801L346.082,260.793L348.159,263.225L349.666,264.932L351.264,266.614L353.288,268.671L354.656,269.968L356.946,272.059L358.381,273.287L360.642,275.144L362.486,276.571L364.375,277.97L367.012,279.82L368.145,280.577L371.952,283.001L372.009,283.034L375.796,285.154L377.767,286.213L379.677,287.18L383.596,289.077L384.216,289.357L387.551,290.763L391.544,292.395L391.732,292.465L395.574,293.804ZM398.884,249.317L395.574,248.102L391.544,246.348L390.384,245.752L387.551,244.159L384.369,242.153L383.596,241.617L379.677,238.585L379.6,238.518L375.796,234.921L375.725,234.848L372.519,231.143L371.952,230.403L369.94,227.403L368.145,224.186L367.877,223.628L366.754,219.817L366.53,215.972L367.358,212.092L368.145,210.57L369.759,208.176L371.952,206.237L375.195,204.226L375.796,203.969L379.677,202.922L383.596,202.438L387.551,202.435L391.544,202.831L395.574,203.551L398.33,204.226L399.64,204.618L403.744,206.123L407.885,207.775L408.79,208.176L412.063,209.946L415.984,212.092L416.279,212.294L420.531,215.316L421.45,215.972L424.82,219.028L425.697,219.817L428.82,223.628L429.147,224.215L430.889,227.403L432.287,231.143L433.004,234.848L433.01,238.518L432.079,242.153L429.881,245.752L429.147,246.476L425.107,249.317L424.82,249.455L420.531,250.836L416.279,251.517L412.063,251.638L407.885,251.304L403.744,250.594L399.64,249.57L398.884,249.317Z" style="fill:none;fill-rule:nonzero;stroke:black;stroke-width:1px;"/>
    </g>
</svg>
