<?xml version="1.0" encoding="UTF-8" standalone="no"?>
<!DOCTYPE svg PUBLIC "-//W3C//DTD SVG 1.1//EN" "http://www.w3.org/Graphics/SVG/1.1/DTD/svg11.dtd">
<svg width="100%" height="100%" viewBox="0 0 260 232" version="1.1" xmlns="http://www.w3.org/2000/svg" xmlns:xlink="http://www.w3.org/1999/xlink" xml:space="preserve" xmlns:serif="http://www.serif.com/" style="fill-rule:evenodd;clip-rule:evenodd;">
    <g id="axes_4" transform="matrix(1,0,0,1,-260.949,-331.849)">
        <g id="patch_17">
            <rect x="315.491" y="333.911" width="202.909" height="191.859" style="fill:white;fill-rule:nonzero;"/>
        </g>
        <g id="PathCollection_31">
            <path d="M416.279,510.285L420.531,510.823L424.82,511.244L429.147,511.536L433.51,511.685L437.911,511.681L442.349,511.514L446.824,511.175L451.336,510.657L455.202,510.051L455.885,509.916L460.471,508.777L465.095,507.372L466.681,506.802L469.755,505.418L473.378,503.518L474.453,502.802L477.842,500.199L479.187,498.846L480.917,496.845L483.025,493.455L483.959,491.157L484.354,490.031L484.998,486.572L485.134,483.077L484.828,479.548L484.144,475.983L483.959,475.344L483.035,472.383L481.611,468.748L479.959,465.078L479.187,463.57L477.994,461.373L475.791,457.633L474.453,455.491L473.378,453.858L470.741,450.048L469.755,448.684L467.881,446.203L465.095,442.549L464.914,442.322L461.658,438.407L460.471,436.997L458.259,434.456L455.885,431.75L454.727,430.47L451.336,426.755L451.05,426.45L447.167,422.394L446.824,422.041L443.118,418.303L442.349,417.537L438.926,414.177L437.911,413.195L434.582,410.016L433.51,409.01L430.074,405.82L429.147,404.975L425.391,401.589L424.82,401.085L420.531,397.334L420.518,397.322L416.279,393.807L415.323,393.021L412.063,390.423L409.863,388.685L407.885,387.173L404.11,384.313L403.744,384.046L399.64,381.185L397.766,379.906L395.574,378.475L391.544,375.918L390.777,375.465L387.551,373.654L383.596,371.529L382.483,370.988L379.677,369.705L375.796,368.107L371.952,366.726L371.056,366.476L368.145,365.722L364.375,365.047L360.642,364.732L356.946,364.837L353.288,365.426L349.933,366.476L349.666,366.573L346.082,368.55L342.927,370.988L342.534,371.337L339.024,375.424L338.996,375.465L336.39,379.906L335.551,381.571L334.447,384.313L332.966,388.685L332.115,391.751L331.833,393.021L331.083,397.322L330.544,401.589L330.207,405.82L330.06,410.016L330.093,414.177L330.291,418.303L330.642,422.394L331.129,426.45L331.735,430.47L332.115,432.541L332.526,434.456L333.516,438.407L334.59,442.322L335.551,445.56L335.771,446.203L337.238,450.048L338.732,453.858L339.024,454.539L340.523,457.633L342.364,461.373L342.534,461.693L344.548,465.078L346.082,467.616L346.838,468.748L349.362,472.383L349.666,472.795L352.222,475.983L353.288,477.264L355.333,479.548L356.946,481.267L358.757,483.077L360.642,484.859L362.556,486.572L364.375,488.097L366.79,490.031L368.145,491.038L371.516,493.455L371.952,493.743L375.796,496.13L376.994,496.845L379.677,498.294L383.258,500.199L383.596,500.36L387.551,502.099L390.836,503.518L391.544,503.788L395.574,505.19L399.64,506.558L400.453,506.802L403.744,507.66L407.885,508.647L412.063,509.547L414.791,510.051L416.279,510.285ZM402.007,479.548L399.64,478.946L395.574,477.538L391.729,475.983L391.544,475.895L387.551,473.633L385.518,472.383L383.596,471.04L380.59,468.748L379.677,467.968L376.621,465.078L375.796,464.215L373.372,461.373L371.952,459.556L370.63,457.633L368.238,453.858L368.145,453.684L366.491,450.048L364.945,446.203L364.375,444.365L363.847,442.322L363.186,438.407L362.906,434.456L363.099,430.47L363.864,426.45L364.375,424.968L365.679,422.394L368.145,419.226L369.321,418.303L371.952,416.81L375.796,415.803L379.677,415.721L383.596,416.342L387.551,417.478L389.651,418.303L391.544,419.126L395.574,421.242L397.492,422.394L399.64,423.793L403.405,426.45L403.744,426.708L407.885,430.152L408.242,430.47L412.063,434.081L412.438,434.456L416.157,438.407L416.279,438.546L419.337,442.322L420.531,443.886L422.17,446.203L424.714,450.048L424.82,450.24L426.65,453.858L428.274,457.633L429.147,460.469L429.397,461.373L429.846,465.078L429.607,468.748L429.147,470.289L428.315,472.383L425.456,475.983L424.82,476.483L420.531,478.857L418.484,479.548L416.279,480.058L412.063,480.482L407.885,480.406L403.744,479.915L402.007,479.548Z" style="fill:rgb(220,233,246);fill-rule:nonzero;"/>
        </g>
        <g id="PathCollection_32">
            <path d="M383.596,523.955L387.551,525.49L388.312,525.769L518.4,525.769L518.4,444.756L516.297,442.322L513.369,438.903L512.931,438.407L509.38,434.456L508.374,433.338L505.725,430.47L503.417,427.947L502.01,426.45L498.497,422.683L498.22,422.394L494.258,418.303L493.614,417.637L490.188,414.177L488.768,412.732L486.042,410.016L483.959,407.932L481.817,405.82L479.187,403.222L477.514,401.589L474.453,398.597L473.135,397.322L469.755,394.058L468.673,393.021L465.095,389.601L464.13,388.685L460.471,385.225L459.503,384.313L455.885,380.929L454.788,379.906L451.336,376.712L449.987,375.465L446.824,372.57L445.096,370.988L442.349,368.503L440.114,366.476L437.911,364.508L435.038,361.929L433.51,360.581L429.87,357.347L429.147,356.717L424.82,352.936L424.582,352.73L420.531,349.308L419.087,348.078L416.279,345.746L413.47,343.39L412.063,342.245L407.885,338.816L407.701,338.668L403.744,335.601L401.586,333.911L315.491,333.911L315.491,456.936L315.779,457.633L317.407,461.373L318.741,464.512L319.016,465.078L320.882,468.748L322.029,471.032L322.791,472.383L324.855,475.983L325.354,476.83L327.128,479.548L328.716,481.993L329.488,483.077L332.006,486.572L332.115,486.715L334.826,490.031L335.551,490.903L337.825,493.455L339.024,494.765L341.042,496.845L342.534,498.325L344.516,500.199L346.082,501.61L348.281,503.518L349.666,504.652L352.366,506.802L353.288,507.488L356.795,510.051L356.946,510.153L360.642,512.534L361.789,513.265L364.375,514.766L367.249,516.444L368.145,516.915L371.952,518.866L373.381,519.587L375.796,520.672L379.677,522.435L380.281,522.696L383.596,523.955ZM414.791,510.051L412.063,509.547L407.885,508.647L403.744,507.66L400.453,506.802L399.64,506.558L395.574,505.19L391.544,503.788L390.836,503.518L387.551,502.099L383.596,500.36L383.258,500.199L379.677,498.294L376.994,496.845L375.796,496.13L371.952,493.743L371.516,493.455L368.145,491.038L366.79,490.031L364.375,488.097L362.556,486.572L360.642,484.859L358.757,483.077L356.946,481.267L355.333,479.548L353.288,477.264L352.222,475.983L349.666,472.795L349.362,472.383L346.838,468.748L346.082,467.616L344.548,465.078L342.534,461.693L342.364,461.373L340.523,457.633L339.024,454.539L338.732,453.858L337.238,450.048L335.771,446.203L335.551,445.56L334.59,442.322L333.516,438.407L332.526,434.456L332.115,432.541L331.735,430.47L331.129,426.45L330.642,422.394L330.291,418.303L330.093,414.177L330.06,410.016L330.207,405.82L330.544,401.589L331.083,397.322L331.833,393.021L332.115,391.751L332.966,388.685L334.447,384.313L335.551,381.571L336.39,379.906L338.996,375.465L339.024,375.424L342.534,371.337L342.927,370.988L346.082,368.55L349.666,366.573L349.933,366.476L353.288,365.426L356.946,364.837L360.642,364.732L364.375,365.047L368.145,365.722L371.056,366.476L371.952,366.726L375.796,368.107L379.677,369.705L382.483,370.988L383.596,371.529L387.551,373.654L390.777,375.465L391.544,375.918L395.574,378.475L397.766,379.906L399.64,381.185L403.744,384.046L404.11,384.313L407.885,387.173L409.863,388.685L412.063,390.423L415.323,393.021L416.279,393.807L420.518,397.322L420.531,397.334L424.82,401.085L425.391,401.589L429.147,404.975L430.074,405.82L433.51,409.01L434.582,410.016L437.911,413.195L438.926,414.177L442.349,417.537L443.118,418.303L446.824,422.041L447.167,422.394L451.05,426.45L451.336,426.755L454.727,430.47L455.885,431.75L458.259,434.456L460.471,436.997L461.658,438.407L464.914,442.322L465.095,442.549L467.881,446.203L469.755,448.684L470.741,450.048L473.378,453.858L474.453,455.491L475.791,457.633L477.994,461.373L479.187,463.57L479.959,465.078L481.611,468.748L483.035,472.383L483.959,475.344L484.144,475.983L484.828,479.548L485.134,483.077L484.998,486.572L484.354,490.031L483.959,491.157L483.025,493.455L480.917,496.845L479.187,498.846L477.842,500.199L474.453,502.802L473.378,503.518L469.755,505.418L466.681,506.802L465.095,507.372L460.471,508.777L455.885,509.916L455.202,510.051L451.336,510.657L446.824,511.175L442.349,511.514L437.911,511.681L433.51,511.685L429.147,511.536L424.82,511.244L420.531,510.823L416.279,510.285L414.791,510.051Z" style="fill:rgb(159,202,225);fill-rule:nonzero;"/>
        </g>
        <g id="PathCollection_33">
            <path d="M360.642,522.888L364.375,524.85L366.081,525.769L388.312,525.769L387.551,525.49L383.596,523.955L380.281,522.696L379.677,522.435L375.796,520.672L373.381,519.587L371.952,518.866L368.145,516.915L367.249,516.444L364.375,514.766L361.789,513.265L360.642,512.534L356.946,510.153L356.795,510.051L353.288,507.488L352.366,506.802L349.666,504.652L348.281,503.518L346.082,501.61L344.516,500.199L342.534,498.325L341.042,496.845L339.024,494.765L337.825,493.455L335.551,490.903L334.826,490.031L332.115,486.715L332.006,486.572L329.488,483.077L328.716,481.993L327.128,479.548L325.354,476.83L324.855,475.983L322.791,472.383L322.029,471.032L320.882,468.748L319.016,465.078L318.741,464.512L317.407,461.373L315.779,457.633L315.491,456.936L315.491,477.935L316.463,479.548L318.539,483.077L318.741,483.412L320.912,486.572L322.029,488.25L323.35,490.031L325.354,492.773L325.901,493.455L328.638,496.845L328.716,496.937L331.673,500.199L332.115,500.678L334.896,503.518L335.551,504.166L338.339,506.802L339.024,507.421L342.028,510.051L342.534,510.468L345.984,513.265L346.082,513.338L349.666,515.926L350.388,516.444L353.288,518.338L355.172,519.587L356.946,520.644L360.288,522.696L360.642,522.888Z" style="fill:rgb(102,171,212);fill-rule:nonzero;"/>
            <path d="M518.4,444.756L518.4,417.463L515.081,414.177L513.369,412.45L510.891,410.016L508.374,407.513L506.648,405.82L503.417,402.616L502.364,401.589L498.497,397.779L498.026,397.322L493.629,393.021L493.614,393.006L489.114,388.685L488.768,388.35L484.542,384.313L483.959,383.754L479.913,379.906L479.187,379.215L475.226,375.465L474.453,374.733L470.486,370.988L469.755,370.301L465.692,366.476L465.095,365.917L460.845,361.929L460.471,361.582L455.943,357.347L455.885,357.293L451.336,353.104L450.932,352.73L446.824,348.982L445.842,348.078L442.349,344.916L440.683,343.39L437.911,340.904L435.455,338.668L433.51,336.94L430.158,333.911L401.586,333.911L403.744,335.601L407.701,338.668L407.885,338.816L412.063,342.245L413.47,343.39L416.279,345.746L419.087,348.078L420.531,349.308L424.582,352.73L424.82,352.936L429.147,356.717L429.87,357.347L433.51,360.581L435.038,361.929L437.911,364.508L440.114,366.476L442.349,368.503L445.096,370.988L446.824,372.57L449.987,375.465L451.336,376.712L454.788,379.906L455.885,380.929L459.503,384.313L460.471,385.225L464.13,388.685L465.095,389.601L468.673,393.021L469.755,394.058L473.135,397.322L474.453,398.597L477.514,401.589L479.187,403.222L481.817,405.82L483.959,407.932L486.042,410.016L488.768,412.732L490.188,414.177L493.614,417.637L494.258,418.303L498.22,422.394L498.497,422.683L502.01,426.45L503.417,427.947L505.725,430.47L508.374,433.338L509.38,434.456L512.931,438.407L513.369,438.903L516.297,442.322L518.4,444.756Z" style="fill:rgb(102,171,212);fill-rule:nonzero;"/>
        </g>
        <g id="PathCollection_34">
            <path d="M346.082,523.943L348.694,525.769L366.081,525.769L364.375,524.85L360.642,522.888L360.288,522.696L356.946,520.644L355.172,519.587L353.288,518.338L350.388,516.444L349.666,515.926L346.082,513.338L345.984,513.265L342.534,510.468L342.028,510.051L339.024,507.421L338.339,506.802L335.551,504.166L334.896,503.518L332.115,500.678L331.673,500.199L328.716,496.937L328.638,496.845L325.901,493.455L325.354,492.773L323.35,490.031L322.029,488.25L320.912,486.572L318.741,483.412L318.539,483.077L316.463,479.548L315.491,477.935L315.491,494.374L317.422,496.845L318.741,498.65L320.035,500.199L322.029,502.687L322.771,503.518L325.354,506.456L325.684,506.802L328.716,509.946L328.823,510.051L332.115,513.163L332.226,513.265L335.551,516.131L335.917,516.444L339.024,518.886L339.902,519.587L342.534,521.473L344.172,522.696L346.082,523.943Z" style="fill:rgb(70,149,200);fill-rule:nonzero;"/>
            <path d="M518.4,417.463L518.4,389.236L517.818,388.685L513.369,384.384L513.294,384.313L508.636,379.906L508.374,379.655L503.93,375.465L503.417,374.974L499.19,370.988L498.497,370.328L494.42,366.476L493.614,365.711L489.618,361.929L488.768,361.125L484.781,357.347L483.959,356.571L479.908,352.73L479.187,352.052L474.998,348.078L474.453,347.567L470.051,343.39L469.755,343.114L465.095,338.701L465.059,338.668L460.471,334.425L459.927,333.911L430.158,333.911L433.51,336.94L435.455,338.668L437.911,340.904L440.683,343.39L442.349,344.916L445.842,348.078L446.824,348.982L450.932,352.73L451.336,353.104L455.885,357.293L455.943,357.347L460.471,361.582L460.845,361.929L465.095,365.917L465.692,366.476L469.755,370.301L470.486,370.988L474.453,374.733L475.226,375.465L479.187,379.215L479.913,379.906L483.959,383.754L484.542,384.313L488.768,388.35L489.114,388.685L493.614,393.006L493.629,393.021L498.026,397.322L498.497,397.779L502.364,401.589L503.417,402.616L506.648,405.82L508.374,407.513L510.891,410.016L513.369,412.45L515.081,414.177L518.4,417.463Z" style="fill:rgb(70,149,200);fill-rule:nonzero;"/>
        </g>
        <g id="PathCollection_35">
            <path d="M339.024,524.364L340.899,525.769L348.694,525.769L346.082,523.943L344.172,522.696L342.534,521.473L339.902,519.587L339.024,518.886L335.917,516.444L335.551,516.131L332.226,513.265L332.115,513.163L328.823,510.051L328.716,509.946L325.684,506.802L325.354,506.456L322.771,503.518L322.029,502.687L320.035,500.199L318.741,498.65L317.422,496.845L315.491,494.374L315.491,501.745L316.977,503.518L318.741,505.683L319.745,506.802L322.029,509.375L322.677,510.051L325.354,512.814L325.815,513.265L328.716,516.008L329.192,516.444L332.115,518.975L332.83,519.587L335.551,521.747L336.734,522.696L339.024,524.364Z" style="fill:rgb(44,124,186);fill-rule:nonzero;"/>
            <path d="M518.4,389.236L518.4,374.251L514.936,370.988L513.369,369.492L510.161,366.476L508.374,364.778L505.351,361.929L503.417,360.096L500.504,357.347L498.497,355.448L495.623,352.73L493.614,350.832L490.707,348.078L488.768,346.249L485.757,343.39L483.959,341.697L480.775,338.668L479.187,337.175L475.759,333.911L459.927,333.911L460.471,334.425L465.059,338.668L465.095,338.701L469.755,343.114L470.051,343.39L474.453,347.567L474.998,348.078L479.187,352.052L479.908,352.73L483.959,356.571L484.781,357.347L488.768,361.125L489.618,361.929L493.614,365.711L494.42,366.476L498.497,370.328L499.19,370.988L503.417,374.974L503.93,375.465L508.374,379.655L508.636,379.906L513.294,384.313L513.369,384.384L517.818,388.685L518.4,389.236Z" style="fill:rgb(44,124,186);fill-rule:nonzero;"/>
        </g>
        <g id="PathCollection_36">
            <path d="M332.115,524.399L333.837,525.769L340.899,525.769L339.024,524.364L336.734,522.696L335.551,521.747L332.83,519.587L332.115,518.975L329.192,516.444L328.716,516.008L325.815,513.265L325.354,512.814L322.677,510.051L322.029,509.375L319.745,506.802L318.741,505.683L316.977,503.518L315.491,501.745L315.491,508.422L316.941,510.051L318.741,512.051L319.9,513.265L322.029,515.447L323.048,516.444L325.354,518.624L326.408,519.587L328.716,521.601L330,522.696L332.115,524.399Z" style="fill:rgb(25,102,173);fill-rule:nonzero;"/>
            <path d="M518.4,374.251L518.4,360.9L514.602,357.347L513.369,356.186L509.699,352.73L508.374,351.48L504.77,348.078L503.417,346.796L499.822,343.39L498.497,342.134L494.851,338.668L493.614,337.493L489.86,333.911L475.759,333.911L479.187,337.175L480.775,338.668L483.959,341.697L485.757,343.39L488.768,346.249L490.707,348.078L493.614,350.832L495.623,352.73L498.497,355.448L500.504,357.347L503.417,360.096L505.351,361.929L508.374,364.778L510.161,366.476L513.369,369.492L514.936,370.988L518.4,374.251Z" style="fill:rgb(25,102,173);fill-rule:nonzero;"/>
        </g>
        <g id="PathCollection_37">
            <path d="M325.354,525.521L325.645,525.769L333.837,525.769L332.115,524.399L330,522.696L328.716,521.601L326.408,519.587L325.354,518.624L323.048,516.444L322.029,515.447L319.9,513.265L318.741,512.051L316.941,510.051L315.491,508.422L315.491,516.168L315.753,516.444L318.741,519.495L318.836,519.587L322.029,522.607L322.127,522.696L325.354,525.521Z" style="fill:rgb(8,81,156);fill-rule:nonzero;"/>
            <path d="M518.4,360.9L518.4,346.751L514.835,343.39L513.369,342.01L509.833,338.668L508.374,337.282L504.834,333.911L489.86,333.911L493.614,337.493L494.851,338.668L498.497,342.134L499.822,343.39L503.417,346.796L504.77,348.078L508.374,351.48L509.699,352.73L513.369,356.186L514.602,357.347L518.4,360.9Z" style="fill:rgb(8,81,156);fill-rule:nonzero;"/>
        </g>
        <g id="PathCollection_38">
            <path d="M318.741,524.617L320.004,525.769L325.645,525.769L325.354,525.521L322.127,522.696L322.029,522.607L318.836,519.587L318.741,519.495L315.753,516.444L315.491,516.168L315.491,521.502L316.71,522.696L318.741,524.617Z" style="fill:rgb(8,64,130);fill-rule:nonzero;"/>
            <path d="M518.4,346.751L518.4,338.034L514.092,333.911L504.834,333.911L508.374,337.282L509.833,338.668L513.369,342.01L514.835,343.39L518.4,346.751Z" style="fill:rgb(8,64,130);fill-rule:nonzero;"/>
        </g>
        <g id="PathCollection_39">
            <path d="M315.491,525.769L320.004,525.769L318.741,524.617L316.71,522.696L315.491,521.502L315.491,525.769Z" style="fill:rgb(8,52,113);fill-rule:nonzero;"/>
            <path d="M518.4,338.034L518.4,333.921L518.389,333.911L514.092,333.911L518.4,338.034Z" style="fill:rgb(8,52,113);fill-rule:nonzero;"/>
        </g>
        <g id="PathCollection_40">
            <path d="M518.4,333.921L518.4,333.911L518.389,333.911L518.4,333.921Z" style="fill:rgb(8,48,107);fill-rule:nonzero;"/>
        </g>
        <g id="matplotlib.axis_7">
            <g id="xtick_7">
                <g transform="matrix(1,0,0,1,394.675,525.769)">
                    <g id="line2d_19">
                        <g>
                            <path id="me7402a3beb" d="M0,0L0,3.5" style="fill:none;fill-rule:nonzero;stroke:black;stroke-width:0.8px;"/>
                        </g>
                    </g>
                </g>
                <g transform="matrix(0.15,0,0,-0.15,384.25,543.506)">
                    <g id="text_34">
                        <g>
                            <path id="ArialMT-48" d="M4.156,35.297C4.156,43.766 5.026,50.578 6.766,55.734C8.505,60.901 11.089,64.88 14.516,67.672C17.953,70.474 22.276,71.875 27.484,71.875C31.328,71.875 34.698,71.099 37.594,69.547C40.49,68.005 42.88,65.776 44.766,62.859C46.661,59.953 48.146,56.406 49.219,52.219C50.292,48.042 50.828,42.401 50.828,35.297C50.828,26.901 49.964,20.125 48.234,14.969C46.516,9.813 43.938,5.823 40.5,3C37.073,0.188 32.734,-1.219 27.484,-1.219C20.589,-1.219 15.172,1.255 11.234,6.203C6.516,12.161 4.156,21.859 4.156,35.297ZM13.188,35.297C13.188,23.547 14.563,15.724 17.313,11.828C20.063,7.943 23.453,6 27.484,6C31.526,6 34.922,7.953 37.672,11.859C40.422,15.766 41.797,23.578 41.797,35.297C41.797,47.089 40.422,54.917 37.672,58.781C34.922,62.656 31.495,64.594 27.391,64.594C23.359,64.594 20.135,62.885 17.719,59.469C14.698,55.115 13.188,47.057 13.188,35.297Z" style="fill-rule:nonzero;"/>
                            <g id="ArialMT-46" transform="matrix(1,0,0,1,55.6152,0)">
                                <rect x="9.078" y="0" width="10.016" height="10.016" style="fill-rule:nonzero;"/>
                            </g>
                            <g id="ArialMT-481" serif:id="ArialMT-48" transform="matrix(1,0,0,1,83.3984,0)">
                                <path d="M4.156,35.297C4.156,43.766 5.026,50.578 6.766,55.734C8.505,60.901 11.089,64.88 14.516,67.672C17.953,70.474 22.276,71.875 27.484,71.875C31.328,71.875 34.698,71.099 37.594,69.547C40.49,68.005 42.88,65.776 44.766,62.859C46.661,59.953 48.146,56.406 49.219,52.219C50.292,48.042 50.828,42.401 50.828,35.297C50.828,26.901 49.964,20.125 48.234,14.969C46.516,9.813 43.938,5.823 40.5,3C37.073,0.188 32.734,-1.219 27.484,-1.219C20.589,-1.219 15.172,1.255 11.234,6.203C6.516,12.161 4.156,21.859 4.156,35.297ZM13.188,35.297C13.188,23.547 14.563,15.724 17.313,11.828C20.063,7.943 23.453,6 27.484,6C31.526,6 34.922,7.953 37.672,11.859C40.422,15.766 41.797,23.578 41.797,35.297C41.797,47.089 40.422,54.917 37.672,58.781C34.922,62.656 31.495,64.594 27.391,64.594C23.359,64.594 20.135,62.885 17.719,59.469C14.698,55.115 13.188,47.057 13.188,35.297Z" style="fill-rule:nonzero;"/>
                            </g>
                        </g>
                    </g>
                </g>
            </g>
            <g id="xtick_8">
                <g transform="matrix(1,0,0,1,482.657,525.769)">
                    <g id="line2d_20">
                        <g>
                            <path id="me7402a3beb1" serif:id="me7402a3beb" d="M0,0L0,3.5" style="fill:none;fill-rule:nonzero;stroke:black;stroke-width:0.8px;"/>
                        </g>
                    </g>
                </g>
                <g transform="matrix(0.15,0,0,-0.15,472.232,543.506)">
                    <g id="text_35">
                        <g>
                            <path id="ArialMT-482" serif:id="ArialMT-48" d="M4.156,35.297C4.156,43.766 5.026,50.578 6.766,55.734C8.505,60.901 11.089,64.88 14.516,67.672C17.953,70.474 22.276,71.875 27.484,71.875C31.328,71.875 34.698,71.099 37.594,69.547C40.49,68.005 42.88,65.776 44.766,62.859C46.661,59.953 48.146,56.406 49.219,52.219C50.292,48.042 50.828,42.401 50.828,35.297C50.828,26.901 49.964,20.125 48.234,14.969C46.516,9.813 43.938,5.823 40.5,3C37.073,0.188 32.734,-1.219 27.484,-1.219C20.589,-1.219 15.172,1.255 11.234,6.203C6.516,12.161 4.156,21.859 4.156,35.297ZM13.188,35.297C13.188,23.547 14.563,15.724 17.313,11.828C20.063,7.943 23.453,6 27.484,6C31.526,6 34.922,7.953 37.672,11.859C40.422,15.766 41.797,23.578 41.797,35.297C41.797,47.089 40.422,54.917 37.672,58.781C34.922,62.656 31.495,64.594 27.391,64.594C23.359,64.594 20.135,62.885 17.719,59.469C14.698,55.115 13.188,47.057 13.188,35.297Z" style="fill-rule:nonzero;"/>
                            <g id="ArialMT-461" serif:id="ArialMT-46" transform="matrix(1,0,0,1,55.6152,0)">
                                <rect x="9.078" y="0" width="10.016" height="10.016" style="fill-rule:nonzero;"/>
                            </g>
                            <g id="ArialMT-50" transform="matrix(1,0,0,1,83.3984,0)">
                                <path d="M50.344,8.453L50.344,0L3.031,0C2.969,2.115 3.307,4.151 4.047,6.109C5.255,9.328 7.182,12.5 9.828,15.625C12.484,18.75 16.323,22.365 21.344,26.469C29.125,32.844 34.38,37.896 37.109,41.625C39.849,45.354 41.219,48.88 41.219,52.203C41.219,55.682 39.969,58.615 37.469,61C34.979,63.396 31.734,64.594 27.734,64.594C23.505,64.594 20.12,63.323 17.578,60.781C15.036,58.25 13.75,54.74 13.719,50.25L4.688,51.172C5.302,57.911 7.625,63.047 11.656,66.578C15.698,70.109 21.125,71.875 27.938,71.875C34.802,71.875 40.234,69.969 44.234,66.156C48.245,62.354 50.25,57.635 50.25,52C50.25,49.135 49.661,46.318 48.484,43.547C47.318,40.786 45.375,37.875 42.656,34.813C39.938,31.75 35.422,27.552 29.109,22.219C23.828,17.792 20.438,14.786 18.938,13.203C17.448,11.63 16.214,10.047 15.234,8.453L50.344,8.453Z" style="fill-rule:nonzero;"/>
                            </g>
                        </g>
                    </g>
                </g>
            </g>
            <g transform="matrix(0.15,0,0,-0.15,404.57,561.224)">
                <g id="text_36">
                    <g>
                        <g id="DejaVuSerif-Italic-69" transform="matrix(1,0,0,1,0,0.09375)">
                            <path d="M-1.516,0L-0.531,5.172L8.734,5.172L20.906,67.672L11.625,67.672L12.641,72.906L71.344,72.906L68.219,56.688L62.203,56.688L64.156,66.891L30.672,66.891L25.922,42.484L49.813,42.484L51.563,51.609L57.563,51.609L52.875,27.391L46.875,27.391L48.641,36.531L24.75,36.531L18.844,6L53.125,6L55.078,16.219L61.078,16.219L57.953,0L-1.516,0Z" style="fill-rule:nonzero;"/>
                        </g>
                        <g id="DejaVuSerif-49" transform="matrix(0.7,0,0,0.7,72.998,-15.4781)">
                            <path d="M14.203,0L14.203,5.172L26.906,5.172L26.906,65.828L12.203,56.297L12.203,62.703L29.984,74.219L36.719,74.219L36.719,5.172L49.422,5.172L49.422,0L14.203,0Z" style="fill-rule:nonzero;"/>
                        </g>
                        <g id="DejaVuSerif-491" serif:id="DejaVuSerif-49" transform="matrix(0.7,0,0,0.7,117.534,-15.4781)">
                            <path d="M14.203,0L14.203,5.172L26.906,5.172L26.906,65.828L12.203,56.297L12.203,62.703L29.984,74.219L36.719,74.219L36.719,5.172L49.422,5.172L49.422,0L14.203,0Z" style="fill-rule:nonzero;"/>
                        </g>
                    </g>
                </g>
            </g>
        </g>
        <g id="matplotlib.axis_8">
            <g id="ytick_13">
                <g transform="matrix(1,0,0,1,315.491,492.493)">
                    <g id="line2d_21">
                        <g>
                            <path id="m489c51ab10" d="M0,0L-3.5,0" style="fill:none;fill-rule:nonzero;stroke:black;stroke-width:0.8px;"/>
                        </g>
                    </g>
                </g>
                <g transform="matrix(0.15,0,0,-0.15,278.88,497.861)">
                    <g id="text_37">
                        <g>
                            <rect id="ArialMT-8722" x="5.563" y="31.203" width="47.266" height="8.203" style="fill-rule:nonzero;"/>
                            <g id="ArialMT-483" serif:id="ArialMT-48" transform="matrix(1,0,0,1,58.3984,0)">
                                <path d="M4.156,35.297C4.156,43.766 5.026,50.578 6.766,55.734C8.505,60.901 11.089,64.88 14.516,67.672C17.953,70.474 22.276,71.875 27.484,71.875C31.328,71.875 34.698,71.099 37.594,69.547C40.49,68.005 42.88,65.776 44.766,62.859C46.661,59.953 48.146,56.406 49.219,52.219C50.292,48.042 50.828,42.401 50.828,35.297C50.828,26.901 49.964,20.125 48.234,14.969C46.516,9.813 43.938,5.823 40.5,3C37.073,0.188 32.734,-1.219 27.484,-1.219C20.589,-1.219 15.172,1.255 11.234,6.203C6.516,12.161 4.156,21.859 4.156,35.297ZM13.188,35.297C13.188,23.547 14.563,15.724 17.313,11.828C20.063,7.943 23.453,6 27.484,6C31.526,6 34.922,7.953 37.672,11.859C40.422,15.766 41.797,23.578 41.797,35.297C41.797,47.089 40.422,54.917 37.672,58.781C34.922,62.656 31.495,64.594 27.391,64.594C23.359,64.594 20.135,62.885 17.719,59.469C14.698,55.115 13.188,47.057 13.188,35.297Z" style="fill-rule:nonzero;"/>
                            </g>
                            <g id="ArialMT-462" serif:id="ArialMT-46" transform="matrix(1,0,0,1,114.014,0)">
                                <rect x="9.078" y="0" width="10.016" height="10.016" style="fill-rule:nonzero;"/>
                            </g>
                            <g id="ArialMT-49" transform="matrix(1,0,0,1,141.797,0)">
                                <path d="M37.25,0L28.469,0L28.469,56C26.354,53.99 23.578,51.974 20.141,49.953C16.703,47.932 13.62,46.417 10.891,45.406L10.891,53.906C15.807,56.219 20.104,59.016 23.781,62.297C27.458,65.589 30.063,68.781 31.594,71.875L37.25,71.875L37.25,0Z" style="fill-rule:nonzero;"/>
                            </g>
                        </g>
                    </g>
                </g>
            </g>
            <g id="ytick_14">
                <g transform="matrix(1,0,0,1,315.491,450.898)">
                    <g id="line2d_22">
                        <g>
                            <path id="m489c51ab101" serif:id="m489c51ab10" d="M0,0L-3.5,0" style="fill:none;fill-rule:nonzero;stroke:black;stroke-width:0.8px;"/>
                        </g>
                    </g>
                </g>
                <g transform="matrix(0.15,0,0,-0.15,287.641,456.266)">
                    <g id="text_38">
                        <g>
                            <path id="ArialMT-484" serif:id="ArialMT-48" d="M4.156,35.297C4.156,43.766 5.026,50.578 6.766,55.734C8.505,60.901 11.089,64.88 14.516,67.672C17.953,70.474 22.276,71.875 27.484,71.875C31.328,71.875 34.698,71.099 37.594,69.547C40.49,68.005 42.88,65.776 44.766,62.859C46.661,59.953 48.146,56.406 49.219,52.219C50.292,48.042 50.828,42.401 50.828,35.297C50.828,26.901 49.964,20.125 48.234,14.969C46.516,9.813 43.938,5.823 40.5,3C37.073,0.188 32.734,-1.219 27.484,-1.219C20.589,-1.219 15.172,1.255 11.234,6.203C6.516,12.161 4.156,21.859 4.156,35.297ZM13.188,35.297C13.188,23.547 14.563,15.724 17.313,11.828C20.063,7.943 23.453,6 27.484,6C31.526,6 34.922,7.953 37.672,11.859C40.422,15.766 41.797,23.578 41.797,35.297C41.797,47.089 40.422,54.917 37.672,58.781C34.922,62.656 31.495,64.594 27.391,64.594C23.359,64.594 20.135,62.885 17.719,59.469C14.698,55.115 13.188,47.057 13.188,35.297Z" style="fill-rule:nonzero;"/>
                            <g id="ArialMT-463" serif:id="ArialMT-46" transform="matrix(1,0,0,1,55.6152,0)">
                                <rect x="9.078" y="0" width="10.016" height="10.016" style="fill-rule:nonzero;"/>
                            </g>
                            <g id="ArialMT-485" serif:id="ArialMT-48" transform="matrix(1,0,0,1,83.3984,0)">
                                <path d="M4.156,35.297C4.156,43.766 5.026,50.578 6.766,55.734C8.505,60.901 11.089,64.88 14.516,67.672C17.953,70.474 22.276,71.875 27.484,71.875C31.328,71.875 34.698,71.099 37.594,69.547C40.49,68.005 42.88,65.776 44.766,62.859C46.661,59.953 48.146,56.406 49.219,52.219C50.292,48.042 50.828,42.401 50.828,35.297C50.828,26.901 49.964,20.125 48.234,14.969C46.516,9.813 43.938,5.823 40.5,3C37.073,0.188 32.734,-1.219 27.484,-1.219C20.589,-1.219 15.172,1.255 11.234,6.203C6.516,12.161 4.156,21.859 4.156,35.297ZM13.188,35.297C13.188,23.547 14.563,15.724 17.313,11.828C20.063,7.943 23.453,6 27.484,6C31.526,6 34.922,7.953 37.672,11.859C40.422,15.766 41.797,23.578 41.797,35.297C41.797,47.089 40.422,54.917 37.672,58.781C34.922,62.656 31.495,64.594 27.391,64.594C23.359,64.594 20.135,62.885 17.719,59.469C14.698,55.115 13.188,47.057 13.188,35.297Z" style="fill-rule:nonzero;"/>
                            </g>
                        </g>
                    </g>
                </g>
            </g>
            <g id="ytick_15">
                <g transform="matrix(1,0,0,1,315.491,409.302)">
                    <g id="line2d_23">
                        <g>
                            <path id="m489c51ab102" serif:id="m489c51ab10" d="M0,0L-3.5,0" style="fill:none;fill-rule:nonzero;stroke:black;stroke-width:0.8px;"/>
                        </g>
                    </g>
                </g>
                <g transform="matrix(0.15,0,0,-0.15,287.641,414.671)">
                    <g id="text_39">
                        <g>
                            <path id="ArialMT-486" serif:id="ArialMT-48" d="M4.156,35.297C4.156,43.766 5.026,50.578 6.766,55.734C8.505,60.901 11.089,64.88 14.516,67.672C17.953,70.474 22.276,71.875 27.484,71.875C31.328,71.875 34.698,71.099 37.594,69.547C40.49,68.005 42.88,65.776 44.766,62.859C46.661,59.953 48.146,56.406 49.219,52.219C50.292,48.042 50.828,42.401 50.828,35.297C50.828,26.901 49.964,20.125 48.234,14.969C46.516,9.813 43.938,5.823 40.5,3C37.073,0.188 32.734,-1.219 27.484,-1.219C20.589,-1.219 15.172,1.255 11.234,6.203C6.516,12.161 4.156,21.859 4.156,35.297ZM13.188,35.297C13.188,23.547 14.563,15.724 17.313,11.828C20.063,7.943 23.453,6 27.484,6C31.526,6 34.922,7.953 37.672,11.859C40.422,15.766 41.797,23.578 41.797,35.297C41.797,47.089 40.422,54.917 37.672,58.781C34.922,62.656 31.495,64.594 27.391,64.594C23.359,64.594 20.135,62.885 17.719,59.469C14.698,55.115 13.188,47.057 13.188,35.297Z" style="fill-rule:nonzero;"/>
                            <g id="ArialMT-464" serif:id="ArialMT-46" transform="matrix(1,0,0,1,55.6152,0)">
                                <rect x="9.078" y="0" width="10.016" height="10.016" style="fill-rule:nonzero;"/>
                            </g>
                            <g id="ArialMT-491" serif:id="ArialMT-49" transform="matrix(1,0,0,1,83.3984,0)">
                                <path d="M37.25,0L28.469,0L28.469,56C26.354,53.99 23.578,51.974 20.141,49.953C16.703,47.932 13.62,46.417 10.891,45.406L10.891,53.906C15.807,56.219 20.104,59.016 23.781,62.297C27.458,65.589 30.063,68.781 31.594,71.875L37.25,71.875L37.25,0Z" style="fill-rule:nonzero;"/>
                            </g>
                        </g>
                    </g>
                </g>
            </g>
            <g id="ytick_16">
                <g transform="matrix(1,0,0,1,315.491,367.707)">
                    <g id="line2d_24">
                        <g>
                            <path id="m489c51ab103" serif:id="m489c51ab10" d="M0,0L-3.5,0" style="fill:none;fill-rule:nonzero;stroke:black;stroke-width:0.8px;"/>
                        </g>
                    </g>
                </g>
                <g transform="matrix(0.15,0,0,-0.15,287.641,373.075)">
                    <g id="text_40">
                        <g>
                            <path id="ArialMT-487" serif:id="ArialMT-48" d="M4.156,35.297C4.156,43.766 5.026,50.578 6.766,55.734C8.505,60.901 11.089,64.88 14.516,67.672C17.953,70.474 22.276,71.875 27.484,71.875C31.328,71.875 34.698,71.099 37.594,69.547C40.49,68.005 42.88,65.776 44.766,62.859C46.661,59.953 48.146,56.406 49.219,52.219C50.292,48.042 50.828,42.401 50.828,35.297C50.828,26.901 49.964,20.125 48.234,14.969C46.516,9.813 43.938,5.823 40.5,3C37.073,0.188 32.734,-1.219 27.484,-1.219C20.589,-1.219 15.172,1.255 11.234,6.203C6.516,12.161 4.156,21.859 4.156,35.297ZM13.188,35.297C13.188,23.547 14.563,15.724 17.313,11.828C20.063,7.943 23.453,6 27.484,6C31.526,6 34.922,7.953 37.672,11.859C40.422,15.766 41.797,23.578 41.797,35.297C41.797,47.089 40.422,54.917 37.672,58.781C34.922,62.656 31.495,64.594 27.391,64.594C23.359,64.594 20.135,62.885 17.719,59.469C14.698,55.115 13.188,47.057 13.188,35.297Z" style="fill-rule:nonzero;"/>
                            <g id="ArialMT-465" serif:id="ArialMT-46" transform="matrix(1,0,0,1,55.6152,0)">
                                <rect x="9.078" y="0" width="10.016" height="10.016" style="fill-rule:nonzero;"/>
                            </g>
                            <g id="ArialMT-501" serif:id="ArialMT-50" transform="matrix(1,0,0,1,83.3984,0)">
                                <path d="M50.344,8.453L50.344,0L3.031,0C2.969,2.115 3.307,4.151 4.047,6.109C5.255,9.328 7.182,12.5 9.828,15.625C12.484,18.75 16.323,22.365 21.344,26.469C29.125,32.844 34.38,37.896 37.109,41.625C39.849,45.354 41.219,48.88 41.219,52.203C41.219,55.682 39.969,58.615 37.469,61C34.979,63.396 31.734,64.594 27.734,64.594C23.505,64.594 20.12,63.323 17.578,60.781C15.036,58.25 13.75,54.74 13.719,50.25L4.688,51.172C5.302,57.911 7.625,63.047 11.656,66.578C15.698,70.109 21.125,71.875 27.938,71.875C34.802,71.875 40.234,69.969 44.234,66.156C48.245,62.354 50.25,57.635 50.25,52C50.25,49.135 49.661,46.318 48.484,43.547C47.318,40.786 45.375,37.875 42.656,34.813C39.938,31.75 35.422,27.552 29.109,22.219C23.828,17.792 20.438,14.786 18.938,13.203C17.448,11.63 16.214,10.047 15.234,8.453L50.344,8.453Z" style="fill-rule:nonzero;"/>
                            </g>
                        </g>
                    </g>
                </g>
            </g>
            <g transform="matrix(-5.74285e-17,-0.15,-0.15,5.74285e-17,271.899,442.215)">
                <g id="text_41">
                    <g>
                        <g id="DejaVuSerif-Italic-691" serif:id="DejaVuSerif-Italic-69" transform="matrix(1,0,0,1,0,0.09375)">
                            <path d="M-1.516,0L-0.531,5.172L8.734,5.172L20.906,67.672L11.625,67.672L12.641,72.906L71.344,72.906L68.219,56.688L62.203,56.688L64.156,66.891L30.672,66.891L25.922,42.484L49.813,42.484L51.563,51.609L57.563,51.609L52.875,27.391L46.875,27.391L48.641,36.531L24.75,36.531L18.844,6L53.125,6L55.078,16.219L61.078,16.219L57.953,0L-1.516,0Z" style="fill-rule:nonzero;"/>
                        </g>
                        <g id="DejaVuSerif-50" transform="matrix(0.7,0,0,0.7,72.998,-15.4781)">
                            <path d="M12.797,55.516L7.328,55.516L7.328,68.5C10.807,70.365 14.313,71.781 17.844,72.75C21.375,73.729 24.833,74.219 28.219,74.219C35.802,74.219 41.792,72.38 46.188,68.703C50.583,65.026 52.781,60.031 52.781,53.719C52.781,46.583 47.802,38.052 37.844,28.125C37.063,27.375 36.474,26.807 36.078,26.422L17.672,8.016L48.094,8.016L48.094,17L53.813,17L53.813,0L6.781,0L6.781,5.328L28.906,27.391C33.792,32.276 37.276,36.76 39.359,40.844C41.443,44.927 42.484,49.219 42.484,53.719C42.484,58.625 41.203,62.464 38.641,65.234C36.089,68.005 32.568,69.391 28.078,69.391C23.422,69.391 19.823,68.234 17.281,65.922C14.75,63.609 13.255,60.141 12.797,55.516Z" style="fill-rule:nonzero;"/>
                        </g>
                        <g id="DejaVuSerif-501" serif:id="DejaVuSerif-50" transform="matrix(0.7,0,0,0.7,117.534,-15.4781)">
                            <path d="M12.797,55.516L7.328,55.516L7.328,68.5C10.807,70.365 14.313,71.781 17.844,72.75C21.375,73.729 24.833,74.219 28.219,74.219C35.802,74.219 41.792,72.38 46.188,68.703C50.583,65.026 52.781,60.031 52.781,53.719C52.781,46.583 47.802,38.052 37.844,28.125C37.063,27.375 36.474,26.807 36.078,26.422L17.672,8.016L48.094,8.016L48.094,17L53.813,17L53.813,0L6.781,0L6.781,5.328L28.906,27.391C33.792,32.276 37.276,36.76 39.359,40.844C41.443,44.927 42.484,49.219 42.484,53.719C42.484,58.625 41.203,62.464 38.641,65.234C36.089,68.005 32.568,69.391 28.078,69.391C23.422,69.391 19.823,68.234 17.281,65.922C14.75,63.609 13.255,60.141 12.797,55.516Z" style="fill-rule:nonzero;"/>
                        </g>
                    </g>
                </g>
            </g>
        </g>
    </g>
</svg>
