<?xml version="1.0" encoding="UTF-8" standalone="no"?>
<!DOCTYPE svg PUBLIC "-//W3C//DTD SVG 1.1//EN" "http://www.w3.org/Graphics/SVG/1.1/DTD/svg11.dtd">
<svg width="100%" height="100%" viewBox="0 0 576 432" version="1.1" xmlns="http://www.w3.org/2000/svg" xmlns:xlink="http://www.w3.org/1999/xlink" xml:space="preserve" xmlns:serif="http://www.serif.com/" style="fill-rule:evenodd;clip-rule:evenodd;stroke-linecap:square;">
    <g id="figure_1">
        <g id="axes_1">
            <g id="line2d_13">
                <path d="M92.291,76.409L129.183,103.32L166.076,131.36L202.969,140.234L239.861,168.176L276.754,202.31L313.646,214.122L350.539,234.735L387.431,269.041L424.324,294.228L461.217,342.497" style="fill:none;fill-rule:nonzero;stroke:white;stroke-opacity:0.2;stroke-width:0.45px;"/>
            </g>
            <g id="line2d_14">
                <path d="M92.291,76.409L129.183,115.069L166.076,145.482L202.969,147.541L239.861,169.965L276.754,186.872L313.646,251.643L350.539,226.225L387.431,251.047L424.324,305.131" style="fill:none;fill-rule:nonzero;stroke:white;stroke-opacity:0.2;stroke-width:0.45px;"/>
            </g>
            <g id="line2d_15">
                <path d="M92.291,76.409L129.183,120.962L166.076,121.265L202.969,126.663L239.861,177.4L276.754,195.278L313.646,228.64L350.539,270.885L387.431,313.297" style="fill:none;fill-rule:nonzero;stroke:white;stroke-opacity:0.2;stroke-width:0.45px;"/>
            </g>
            <g id="line2d_16">
                <path d="M92.291,76.409L129.183,93.353L166.076,100.599L202.969,131.75L239.861,136.764L276.754,171.199L313.646,190.871L350.539,210.36L387.431,248.274L424.324,288.132L461.217,328.548" style="fill:none;fill-rule:nonzero;stroke:white;stroke-opacity:0.2;stroke-width:0.45px;"/>
            </g>
            <g id="line2d_17">
                <path d="M92.291,76.409L129.183,76.796L166.076,108.737L202.969,153.534L239.861,163.079L276.754,215.683L313.646,268.721" style="fill:none;fill-rule:nonzero;stroke:white;stroke-opacity:0.2;stroke-width:0.45px;"/>
            </g>
            <g id="line2d_18">
                <path d="M92.291,76.409L129.183,79.555L166.076,107.666L202.969,128.299L239.861,99.034L276.754,150.345L313.646,180.471L350.539,211.112L387.431,222.309L424.324,255.643L461.217,296.142L498.109,342.197" style="fill:none;fill-rule:nonzero;stroke:white;stroke-opacity:0.2;stroke-width:0.45px;"/>
            </g>
            <g id="line2d_19">
                <path d="M92.291,76.409L129.183,66.665L166.076,104.787L202.969,138.371L239.861,152.863L276.754,183.195L313.646,212.793L350.539,260.341L387.431,310.593" style="fill:none;fill-rule:nonzero;stroke:white;stroke-opacity:0.2;stroke-width:0.45px;"/>
            </g>
            <g id="line2d_20">
                <path d="M92.291,76.409L129.183,92.471L166.076,142.577L202.969,146.576L239.861,169.729L276.754,193.492L313.646,226.384L350.539,258.639L387.431,312.768L424.324,363.175" style="fill:none;fill-rule:nonzero;stroke:white;stroke-opacity:0.2;stroke-width:0.45px;"/>
            </g>
            <g id="line2d_21">
                <path d="M92.291,76.409L129.183,117.853L166.076,164.68L202.969,219.04L239.861,275.373" style="fill:none;fill-rule:nonzero;stroke:white;stroke-opacity:0.2;stroke-width:0.45px;"/>
            </g>
            <g id="line2d_22">
                <path d="M92.291,76.409L129.183,113.118L166.076,151.011L202.969,198.616L239.861,250.237" style="fill:none;fill-rule:nonzero;stroke:white;stroke-opacity:0.2;stroke-width:0.45px;"/>
            </g>
            <g id="line2d_23">
                <path d="M92.291,76.409L129.183,115.625L166.076,160.847L202.969,211.524L239.861,260.352" style="fill:none;fill-rule:nonzero;stroke:white;stroke-opacity:0.2;stroke-width:0.45px;"/>
            </g>
            <g id="line2d_24">
                <path d="M92.291,76.409L129.183,112.39L166.076,160.915L202.969,205.453L239.861,250.717" style="fill:none;fill-rule:nonzero;stroke:white;stroke-opacity:0.2;stroke-width:0.45px;"/>
            </g>
            <g id="line2d_25">
                <path d="M92.291,76.409L129.183,120.114L166.076,164.277L202.969,211.222L239.861,257.847" style="fill:none;fill-rule:nonzero;stroke:white;stroke-opacity:0.2;stroke-width:0.45px;"/>
            </g>
            <g id="line2d_26">
                <path d="M92.291,76.409L129.183,100.337L166.076,137.264L202.969,182.495L239.861,228.472" style="fill:none;fill-rule:nonzero;stroke:white;stroke-opacity:0.2;stroke-width:0.45px;"/>
            </g>
            <g id="line2d_27">
                <path d="M92.291,76.409L129.183,109.869L166.076,155.306L202.969,200.972L239.861,245.987" style="fill:none;fill-rule:nonzero;stroke:white;stroke-opacity:0.2;stroke-width:0.45px;"/>
            </g>
            <g id="line2d_28">
                <path d="M92.291,76.409L129.183,100.334L166.076,142.201L202.969,186.9L239.861,231.482" style="fill:none;fill-rule:nonzero;stroke:white;stroke-opacity:0.2;stroke-width:0.45px;"/>
            </g>
            <g id="line2d_29">
                <path d="M92.291,76.409L129.183,95.987L166.076,134.481L202.969,177.323L239.861,220.275" style="fill:none;fill-rule:nonzero;stroke:white;stroke-opacity:0.2;stroke-width:0.45px;"/>
            </g>
            <g id="line2d_30">
                <path d="M92.291,76.409L129.183,124.853L166.076,163.356L202.969,201.931L239.861,241.878L276.754,281.748L313.646,321.795" style="fill:none;fill-rule:nonzero;stroke:white;stroke-opacity:0.2;stroke-width:0.45px;"/>
            </g>
            <g id="line2d_31">
                <path d="M92.291,76.409L129.183,84.657L166.076,88.026L202.969,105.903L239.861,113.428L276.754,151.791L313.646,177.958L350.539,230.418L387.431,286.238" style="fill:none;fill-rule:nonzero;stroke:white;stroke-opacity:0.2;stroke-width:0.45px;"/>
            </g>
            <g id="line2d_32">
                <path d="M92.291,76.409L129.183,122.383L166.076,133.194L202.969,151.586L239.861,164.512L276.754,204.602L313.646,247.97L350.539,274.372L387.431,325.924" style="fill:none;fill-rule:nonzero;stroke:white;stroke-opacity:0.2;stroke-width:0.45px;"/>
            </g>
            <g id="line2d_33">
                <path d="M92.291,76.409L129.183,121.973L166.076,155.822L202.969,178.834L239.861,225.287L276.754,276.769" style="fill:none;fill-rule:nonzero;stroke:white;stroke-opacity:0.2;stroke-width:0.45px;"/>
            </g>
            <g id="line2d_34">
                <path d="M92.291,76.409L129.183,132.583L166.076,145.23L202.969,186.116L239.861,202.673L276.754,259.231L313.646,316.321" style="fill:none;fill-rule:nonzero;stroke:white;stroke-opacity:0.2;stroke-width:0.45px;"/>
            </g>
            <g id="line2d_35">
                <path d="M92.291,76.409L129.183,131.269L166.076,157.087L202.969,168.713L239.861,217.322L276.754,279.185L313.646,336.039" style="fill:none;fill-rule:nonzero;stroke:white;stroke-opacity:0.2;stroke-width:0.45px;"/>
            </g>
            <g id="line2d_36">
                <path d="M92.291,76.409L129.183,138.052L166.076,140.165L202.969,150.76L239.861,163.732L276.754,196.787L313.646,256.522L350.539,313.559" style="fill:none;fill-rule:nonzero;stroke:white;stroke-opacity:0.2;stroke-width:0.45px;"/>
            </g>
            <g id="line2d_37">
                <path d="M92.291,76.409L129.183,146.967L166.076,152.042L202.969,158.388L239.861,181.713L276.754,231.806L313.646,284.049" style="fill:none;fill-rule:nonzero;stroke:white;stroke-opacity:0.2;stroke-width:0.45px;"/>
            </g>
            <g id="line2d_38">
                <path d="M92.291,76.409L129.183,129.997L166.076,164.909L202.969,174.749L239.861,203.352L276.754,256.795L313.646,311.886" style="fill:none;fill-rule:nonzero;stroke:white;stroke-opacity:0.2;stroke-width:0.45px;"/>
            </g>
            <g id="line2d_39">
                <path d="M92.291,76.409L129.183,146.232L166.076,148.126L202.969,186.295L239.861,238.673L276.754,298.035" style="fill:none;fill-rule:nonzero;stroke:white;stroke-opacity:0.2;stroke-width:0.45px;"/>
            </g>
            <g id="line2d_40">
                <path d="M92.291,76.409L129.183,128.877L166.076,156.383L202.969,211.451L239.861,266.191L276.754,311.097" style="fill:none;fill-rule:nonzero;stroke:white;stroke-opacity:0.2;stroke-width:0.45px;"/>
            </g>
            <g id="line2d_41">
                <path d="M92.291,76.409L129.183,134.515L166.076,181.118L202.969,214.524L239.861,278.277" style="fill:none;fill-rule:nonzero;stroke:white;stroke-opacity:0.2;stroke-width:0.45px;"/>
            </g>
            <g id="line2d_42">
                <path d="M92.291,76.409L129.183,134.346L166.076,171.386L202.969,224.492L239.861,279.817" style="fill:none;fill-rule:nonzero;stroke:white;stroke-opacity:0.2;stroke-width:0.45px;"/>
            </g>
            <g id="line2d_43">
                <path d="M92.291,76.409L129.183,134.571L166.076,172.284L202.969,227.72L239.861,283.126" style="fill:none;fill-rule:nonzero;stroke:white;stroke-opacity:0.2;stroke-width:0.45px;"/>
            </g>
            <g id="line2d_44">
                <path d="M92.291,76.409L129.183,120.805L166.076,156.655L202.969,186.896L239.861,251.189L276.754,306.406" style="fill:none;fill-rule:nonzero;stroke:white;stroke-opacity:0.2;stroke-width:0.45px;"/>
            </g>
            <g id="line2d_45">
                <path d="M92.291,76.409L129.183,139.929L166.076,137.828L202.969,158.65L239.861,201.662L276.754,259.594L313.646,315.552" style="fill:none;fill-rule:nonzero;stroke:white;stroke-opacity:0.2;stroke-width:0.45px;"/>
            </g>
            <g id="line2d_46">
                <path d="M92.291,76.409L129.183,141.377L166.076,145.621L202.969,178.412L239.861,235.441L276.754,282.493" style="fill:none;fill-rule:nonzero;stroke:white;stroke-opacity:0.2;stroke-width:0.45px;"/>
            </g>
            <g id="line2d_47">
                <path d="M92.291,76.409L129.183,132.096L166.076,156.812L202.969,168.028L239.861,216.082L276.754,269.45L313.646,323.189" style="fill:none;fill-rule:nonzero;stroke:white;stroke-opacity:0.2;stroke-width:0.45px;"/>
            </g>
            <g id="line2d_48">
                <path d="M92.291,76.409L129.183,133.057L166.076,171.844L202.969,229.917L239.861,284.865" style="fill:none;fill-rule:nonzero;stroke:white;stroke-opacity:0.2;stroke-width:0.45px;"/>
            </g>
            <g id="line2d_49">
                <path d="M92.291,76.409L129.183,132.775L166.076,142.765L202.969,195.323L239.861,257.675L276.754,309.764" style="fill:none;fill-rule:nonzero;stroke:white;stroke-opacity:0.2;stroke-width:0.45px;"/>
            </g>
            <g id="line2d_50">
                <path d="M92.291,76.409L129.183,149.37L166.076,150.458L202.969,179.028L239.861,208.16L276.754,268.871L313.646,326.907" style="fill:none;fill-rule:nonzero;stroke:white;stroke-opacity:0.2;stroke-width:0.45px;"/>
            </g>
            <g id="line2d_51">
                <path d="M92.291,76.409L129.183,121.449L166.076,155.736L202.969,211.387L239.861,263.641L276.754,316.562" style="fill:none;fill-rule:nonzero;stroke:white;stroke-opacity:0.2;stroke-width:0.45px;"/>
            </g>
            <g id="line2d_52">
                <path d="M92.291,76.409L129.183,133.848L166.076,165.206L202.969,219.843L239.861,276.486" style="fill:none;fill-rule:nonzero;stroke:white;stroke-opacity:0.2;stroke-width:0.45px;"/>
            </g>
            <g id="line2d_53">
                <path d="M92.291,76.409L129.183,137.604L166.076,163.743L202.969,220.943L239.861,277.786" style="fill:none;fill-rule:nonzero;stroke:white;stroke-opacity:0.2;stroke-width:0.45px;"/>
            </g>
            <g id="line2d_54">
                <path d="M92.291,76.409L129.183,130.882L166.076,165.957L202.969,222.309L239.861,272.633" style="fill:none;fill-rule:nonzero;stroke:white;stroke-opacity:0.2;stroke-width:0.45px;"/>
            </g>
            <g id="line2d_55">
                <path d="M92.291,76.409L129.183,138.858L166.076,142.2L202.969,172.211L239.861,227.079L276.754,276.858" style="fill:none;fill-rule:nonzero;stroke:white;stroke-opacity:0.2;stroke-width:0.45px;"/>
            </g>
            <g id="line2d_56">
                <path d="M92.291,76.409L129.183,141.983L166.076,148.562L202.969,194.951L239.861,252.403L276.754,300.324" style="fill:none;fill-rule:nonzero;stroke:white;stroke-opacity:0.2;stroke-width:0.45px;"/>
            </g>
            <g id="line2d_57">
                <path d="M92.291,76.409L129.183,140.156L166.076,156.541L202.969,220.685L239.861,270.38" style="fill:none;fill-rule:nonzero;stroke:white;stroke-opacity:0.2;stroke-width:0.45px;"/>
            </g>
            <g id="line2d_58">
                <path d="M92.291,76.409L129.183,129.015L166.076,167.736L202.969,217.578L239.861,265.262" style="fill:none;fill-rule:nonzero;stroke:white;stroke-opacity:0.2;stroke-width:0.45px;"/>
            </g>
            <g id="line2d_59">
                <path d="M92.291,76.409L129.183,131.908L166.076,134.52L202.969,188.788L239.861,246.446L276.754,297.411" style="fill:none;fill-rule:nonzero;stroke:white;stroke-opacity:0.2;stroke-width:0.45px;"/>
            </g>
            <g id="line2d_60">
                <path d="M92.291,76.409L129.183,135.722L166.076,159.728L202.969,204.183L239.861,262.401" style="fill:none;fill-rule:nonzero;stroke:white;stroke-opacity:0.2;stroke-width:0.45px;"/>
            </g>
            <g id="line2d_61">
                <path d="M92.291,76.409L129.183,147.09L166.076,171.515L202.969,231.433L239.861,283.119" style="fill:none;fill-rule:nonzero;stroke:white;stroke-opacity:0.2;stroke-width:0.45px;"/>
            </g>
            <g id="line2d_62">
                <path d="M92.291,76.409L129.183,98.614L166.076,156.708L202.969,207.652L239.861,268.388" style="fill:none;fill-rule:nonzero;stroke:white;stroke-opacity:0.2;stroke-width:0.45px;"/>
            </g>
            <g id="line2d_63">
                <path d="M92.291,76.409L129.183,137.056L166.076,159.713L202.969,207.702L239.861,266.663" style="fill:none;fill-rule:nonzero;stroke:white;stroke-opacity:0.2;stroke-width:0.45px;"/>
            </g>
            <g id="line2d_64">
                <path d="M92.291,76.409L129.183,138.239L166.076,153.934L202.969,199.31L239.861,252.625L276.754,310.494" style="fill:none;fill-rule:nonzero;stroke:white;stroke-opacity:0.2;stroke-width:0.45px;"/>
            </g>
            <g id="line2d_65">
                <path d="M92.291,76.409L129.183,134.3L166.076,170.992L202.969,225.418L239.861,276.029" style="fill:none;fill-rule:nonzero;stroke:white;stroke-opacity:0.2;stroke-width:0.45px;"/>
            </g>
            <g id="line2d_66">
                <path d="M92.291,76.409L129.183,140.512L166.076,168.538L202.969,230.922L239.861,277.386" style="fill:none;fill-rule:nonzero;stroke:white;stroke-opacity:0.2;stroke-width:0.45px;"/>
            </g>
            <g id="line2d_67">
                <path d="M92.291,76.409L129.183,126.937L166.076,149.91L202.969,194.829L239.861,250.955" style="fill:none;fill-rule:nonzero;stroke:white;stroke-opacity:0.2;stroke-width:0.45px;"/>
            </g>
            <g id="line2d_68">
                <path d="M92.291,76.409L129.183,140.249L166.076,156.061L202.969,205.371L239.861,266.177" style="fill:none;fill-rule:nonzero;stroke:white;stroke-opacity:0.2;stroke-width:0.45px;"/>
            </g>
            <g id="line2d_69">
                <path d="M92.291,76.409L129.183,128.452L166.076,160.545L202.969,218.694L239.861,261.944" style="fill:none;fill-rule:nonzero;stroke:white;stroke-opacity:0.2;stroke-width:0.45px;"/>
            </g>
            <g id="line2d_70">
                <path d="M92.291,76.409L129.183,130.638L166.076,163.627L202.969,214.936L239.861,270.62" style="fill:none;fill-rule:nonzero;stroke:white;stroke-opacity:0.2;stroke-width:0.45px;"/>
            </g>
            <g id="line2d_71">
                <path d="M92.291,76.409L129.183,137.342L166.076,169.85L202.969,236.102L239.861,279.009" style="fill:none;fill-rule:nonzero;stroke:white;stroke-opacity:0.2;stroke-width:0.45px;"/>
            </g>
            <g id="line2d_72">
                <path d="M92.291,76.409L129.183,141.409L166.076,169.287L202.969,218.922L239.861,269.318" style="fill:none;fill-rule:nonzero;stroke:white;stroke-opacity:0.2;stroke-width:0.45px;"/>
            </g>
            <g id="line2d_73">
                <path d="M92.291,76.409L129.183,135.935L166.076,165.99L202.969,226.073L239.861,272.987" style="fill:none;fill-rule:nonzero;stroke:white;stroke-opacity:0.2;stroke-width:0.45px;"/>
            </g>
            <g id="line2d_74">
                <path d="M92.291,76.409L129.183,135.955L166.076,155.372L202.969,205.007L239.861,262.686" style="fill:none;fill-rule:nonzero;stroke:white;stroke-opacity:0.2;stroke-width:0.45px;"/>
            </g>
            <g id="line2d_75">
                <path d="M92.291,76.409L129.183,143.713L166.076,177.59L202.969,233.728L239.861,281.339" style="fill:none;fill-rule:nonzero;stroke:white;stroke-opacity:0.2;stroke-width:0.45px;"/>
            </g>
            <g id="line2d_76">
                <path d="M92.291,76.409L129.183,135.262L166.076,169.148L202.969,221.481L239.861,273.256" style="fill:none;fill-rule:nonzero;stroke:white;stroke-opacity:0.2;stroke-width:0.45px;"/>
            </g>
            <g id="line2d_77">
                <path d="M92.291,76.409L129.183,133.293L166.076,150.426L202.969,186.699L239.861,248.456" style="fill:none;fill-rule:nonzero;stroke:white;stroke-opacity:0.2;stroke-width:0.45px;"/>
            </g>
            <g id="line2d_78">
                <path d="M92.291,76.409L129.183,144.047L166.076,173.9L202.969,231.657L239.861,279.386" style="fill:none;fill-rule:nonzero;stroke:white;stroke-opacity:0.2;stroke-width:0.45px;"/>
            </g>
            <g id="line2d_79">
                <path d="M92.291,76.409L129.183,132.922L166.076,166.829L202.969,218.187L239.861,264.416" style="fill:none;fill-rule:nonzero;stroke:white;stroke-opacity:0.2;stroke-width:0.45px;"/>
            </g>
            <g id="line2d_80">
                <path d="M92.291,76.409L129.183,136.992L166.076,173.381L202.969,229.355L239.861,284.888" style="fill:none;fill-rule:nonzero;stroke:white;stroke-opacity:0.2;stroke-width:0.45px;"/>
            </g>
            <g id="line2d_81">
                <path d="M92.291,76.409L129.183,147.199L166.076,158.733L202.969,196.8L239.861,249.95" style="fill:none;fill-rule:nonzero;stroke:white;stroke-opacity:0.2;stroke-width:0.45px;"/>
            </g>
            <g id="line2d_82">
                <path d="M92.291,76.409L129.183,138.082L166.076,172.423L202.969,220.974L239.861,268.776" style="fill:none;fill-rule:nonzero;stroke:white;stroke-opacity:0.2;stroke-width:0.45px;"/>
            </g>
            <g id="line2d_83">
                <path d="M92.291,76.409L129.183,103.019L166.076,162.132L202.969,202.719L239.861,252.449" style="fill:none;fill-rule:nonzero;stroke:white;stroke-opacity:0.2;stroke-width:0.45px;"/>
            </g>
            <g id="line2d_84">
                <path d="M92.291,76.409L129.183,144.455L166.076,160.47L202.969,194.09L239.861,249.328" style="fill:none;fill-rule:nonzero;stroke:white;stroke-opacity:0.2;stroke-width:0.45px;"/>
            </g>
            <g id="line2d_85">
                <path d="M92.291,76.409L129.183,135.238L166.076,174.188L202.969,221.829L239.861,267.334" style="fill:none;fill-rule:nonzero;stroke:white;stroke-opacity:0.2;stroke-width:0.45px;"/>
            </g>
            <g id="line2d_86">
                <path d="M92.291,76.409L129.183,133.799L166.076,146.673L202.969,186.517L239.861,238.19L276.754,282.664" style="fill:none;fill-rule:nonzero;stroke:white;stroke-opacity:0.2;stroke-width:0.45px;"/>
            </g>
            <g id="line2d_87">
                <path d="M92.291,76.409L129.183,133.421L166.076,149.476L202.969,201.86L239.861,255.519" style="fill:none;fill-rule:nonzero;stroke:white;stroke-opacity:0.2;stroke-width:0.45px;"/>
            </g>
            <g id="line2d_88">
                <path d="M92.291,76.409L129.183,119.331L166.076,166.446L202.969,222.558L239.861,260.738" style="fill:none;fill-rule:nonzero;stroke:white;stroke-opacity:0.2;stroke-width:0.45px;"/>
            </g>
            <g id="line2d_89">
                <path d="M92.291,76.409L129.183,133.352L166.076,163.647L202.969,216.696L239.861,272.168" style="fill:none;fill-rule:nonzero;stroke:white;stroke-opacity:0.2;stroke-width:0.45px;"/>
            </g>
            <g id="line2d_90">
                <path d="M92.291,76.409L129.183,123.422L166.076,169.946L202.969,222.618L239.861,273.187" style="fill:none;fill-rule:nonzero;stroke:white;stroke-opacity:0.2;stroke-width:0.45px;"/>
            </g>
            <g id="line2d_91">
                <path d="M92.291,76.409L129.183,132.612L166.076,159.387L202.969,207.049L239.861,260.73" style="fill:none;fill-rule:nonzero;stroke:white;stroke-opacity:0.2;stroke-width:0.45px;"/>
            </g>
            <g id="line2d_92">
                <path d="M92.291,76.409L129.183,140.992L166.076,174.613L202.969,236.432L239.861,287.447" style="fill:none;fill-rule:nonzero;stroke:white;stroke-opacity:0.2;stroke-width:0.45px;"/>
            </g>
            <g id="line2d_93">
                <path d="M92.291,76.409L129.183,138.302L166.076,152.623L202.969,192.376L239.861,243.903" style="fill:none;fill-rule:nonzero;stroke:white;stroke-opacity:0.2;stroke-width:0.45px;"/>
            </g>
            <g id="line2d_94">
                <path d="M92.291,76.409L129.183,138.117L166.076,165.627L202.969,221.906L239.861,266.946" style="fill:none;fill-rule:nonzero;stroke:white;stroke-opacity:0.2;stroke-width:0.45px;"/>
            </g>
            <g id="line2d_95">
                <path d="M92.291,76.409L129.183,136.202L166.076,151.725L202.969,207.963L239.861,256.936" style="fill:none;fill-rule:nonzero;stroke:white;stroke-opacity:0.2;stroke-width:0.45px;"/>
            </g>
            <g id="line2d_96">
                <path d="M92.291,76.409L129.183,132.406L166.076,169.354L202.969,225.6L239.861,265.905" style="fill:none;fill-rule:nonzero;stroke:white;stroke-opacity:0.2;stroke-width:0.45px;"/>
            </g>
            <g id="line2d_97">
                <path d="M92.291,76.409L129.183,124.808L166.076,169.453L202.969,211.461L239.861,257.125" style="fill:none;fill-rule:nonzero;stroke:white;stroke-opacity:0.2;stroke-width:0.45px;"/>
            </g>
            <g id="line2d_98">
                <path d="M92.291,76.409L129.183,136.155L166.076,166.558L202.969,223.247L239.861,267.227" style="fill:none;fill-rule:nonzero;stroke:white;stroke-opacity:0.2;stroke-width:0.45px;"/>
            </g>
            <g id="line2d_99">
                <path d="M92.291,76.409L129.183,141.957L166.076,157.452L202.969,207.706L239.861,251.721" style="fill:none;fill-rule:nonzero;stroke:white;stroke-opacity:0.2;stroke-width:0.45px;"/>
            </g>
            <g id="line2d_100">
                <path d="M92.291,76.409L129.183,144.416L166.076,167.612L202.969,216.075L239.861,272.439" style="fill:none;fill-rule:nonzero;stroke:white;stroke-opacity:0.2;stroke-width:0.45px;"/>
            </g>
            <g id="line2d_101">
                <path d="M92.291,76.409L129.183,139.664L166.076,171.018L202.969,231.831L239.861,283.45" style="fill:none;fill-rule:nonzero;stroke:white;stroke-opacity:0.2;stroke-width:0.45px;"/>
            </g>
            <g id="line2d_102">
                <path d="M92.291,76.409L129.183,141.96L166.076,165.975L202.969,210.559L239.861,260.752" style="fill:none;fill-rule:nonzero;stroke:white;stroke-opacity:0.2;stroke-width:0.45px;"/>
            </g>
            <g id="line2d_103">
                <path d="M92.291,76.409L129.183,144.663L166.076,173.198L202.969,239.981" style="fill:none;fill-rule:nonzero;stroke:white;stroke-opacity:0.2;stroke-width:0.45px;"/>
            </g>
            <g id="line2d_104">
                <path d="M92.291,76.409L129.183,105.797L166.076,150.938L202.969,190.43L239.861,228.328L276.754,266.713" style="fill:none;fill-rule:nonzero;stroke:white;stroke-opacity:0.2;stroke-width:0.45px;"/>
            </g>
            <g id="line2d_105">
                <path d="M92.291,76.409L129.183,114.953L166.076,145.148L202.969,195.925L239.861,255.43" style="fill:none;fill-rule:nonzero;stroke:white;stroke-opacity:0.2;stroke-width:0.45px;"/>
            </g>
            <g id="line2d_106">
                <path d="M92.291,76.409L129.183,133.812L166.076,173.861L202.969,225.653" style="fill:none;fill-rule:nonzero;stroke:white;stroke-opacity:0.2;stroke-width:0.45px;"/>
            </g>
            <g id="line2d_107">
                <path d="M92.291,76.409L129.183,133.86L166.076,179.077L202.969,230.042L239.861,272.973" style="fill:none;fill-rule:nonzero;stroke:white;stroke-opacity:0.2;stroke-width:0.45px;"/>
            </g>
            <g id="line2d_108">
                <path d="M92.291,76.409L129.183,122.45L166.076,165.211L202.969,223.804" style="fill:none;fill-rule:nonzero;stroke:white;stroke-opacity:0.2;stroke-width:0.45px;"/>
            </g>
            <g id="line2d_109">
                <path d="M92.291,76.409L129.183,135.853L166.076,170.192L202.969,225.225L239.861,268.542" style="fill:none;fill-rule:nonzero;stroke:white;stroke-opacity:0.2;stroke-width:0.45px;"/>
            </g>
            <g id="line2d_110">
                <path d="M92.291,76.409L129.183,138.091L166.076,162.512L202.969,210.301L239.861,265.303" style="fill:none;fill-rule:nonzero;stroke:white;stroke-opacity:0.2;stroke-width:0.45px;"/>
            </g>
            <g id="line2d_111">
                <path d="M92.291,76.409L129.183,145.526L166.076,177.953L202.969,226.632L239.861,289.54" style="fill:none;fill-rule:nonzero;stroke:white;stroke-opacity:0.2;stroke-width:0.45px;"/>
            </g>
            <g id="line2d_112">
                <path d="M92.291,76.409L129.183,141.981L166.076,176.915L202.969,239.061" style="fill:none;fill-rule:nonzero;stroke:white;stroke-opacity:0.2;stroke-width:0.45px;"/>
            </g>
            <g id="line2d_113">
                <path d="M92.291,76.409L129.183,133.342L166.076,170.769L202.969,235.533" style="fill:none;fill-rule:nonzero;stroke:white;stroke-opacity:0.2;stroke-width:0.45px;"/>
            </g>
            <g id="line2d_114">
                <path d="M92.291,76.409L129.183,127.873L166.076,179.865L202.969,229.281" style="fill:none;fill-rule:nonzero;stroke:white;stroke-opacity:0.2;stroke-width:0.45px;"/>
            </g>
            <g id="line2d_115">
                <path d="M92.291,76.409L129.183,135.118L166.076,184.369L202.969,228.435" style="fill:none;fill-rule:nonzero;stroke:white;stroke-opacity:0.2;stroke-width:0.45px;"/>
            </g>
            <g id="line2d_116">
                <path d="M92.291,76.409L129.183,142.499L166.076,176.793L202.969,224.071L239.861,272.461" style="fill:none;fill-rule:nonzero;stroke:white;stroke-opacity:0.2;stroke-width:0.45px;"/>
            </g>
            <g id="line2d_117">
                <path d="M92.291,76.409L129.183,135.308L166.076,161.46L202.969,213.545L239.861,256.008" style="fill:none;fill-rule:nonzero;stroke:white;stroke-opacity:0.2;stroke-width:0.45px;"/>
            </g>
            <g id="line2d_118">
                <path d="M92.291,76.409L129.183,143.349L166.076,175.975L202.969,223.732L239.861,278.956" style="fill:none;fill-rule:nonzero;stroke:white;stroke-opacity:0.2;stroke-width:0.45px;"/>
            </g>
            <g id="line2d_119">
                <path d="M92.291,76.409L129.183,142.745L166.076,168.802L202.969,220.508L239.861,278.059" style="fill:none;fill-rule:nonzero;stroke:white;stroke-opacity:0.2;stroke-width:0.45px;"/>
            </g>
            <g id="line2d_120">
                <path d="M92.291,76.409L129.183,133.289L166.076,176.183L202.969,222.535" style="fill:none;fill-rule:nonzero;stroke:white;stroke-opacity:0.2;stroke-width:0.45px;"/>
            </g>
            <g id="line2d_121">
                <path d="M92.291,76.409L129.183,131.565L166.076,171.52L202.969,228.56" style="fill:none;fill-rule:nonzero;stroke:white;stroke-opacity:0.2;stroke-width:0.45px;"/>
            </g>
            <g id="line2d_122">
                <path d="M92.291,76.409L129.183,139.064L166.076,181.894L202.969,234.658" style="fill:none;fill-rule:nonzero;stroke:white;stroke-opacity:0.2;stroke-width:0.45px;"/>
            </g>
            <g id="line2d_123">
                <path d="M92.291,76.409L129.183,137.321L166.076,166.183L202.969,214.266" style="fill:none;fill-rule:nonzero;stroke:white;stroke-opacity:0.2;stroke-width:0.45px;"/>
            </g>
            <g id="line2d_124">
                <path d="M92.291,76.409L129.183,149.795L166.076,174.023L202.969,222.858L239.861,285.723" style="fill:none;fill-rule:nonzero;stroke:white;stroke-opacity:0.2;stroke-width:0.45px;"/>
            </g>
            <g id="line2d_125">
                <path d="M92.291,76.409L129.183,132.748L166.076,177.259L202.969,228.718" style="fill:none;fill-rule:nonzero;stroke:white;stroke-opacity:0.2;stroke-width:0.45px;"/>
            </g>
            <g id="line2d_126">
                <path d="M92.291,76.409L129.183,148.491L166.076,192.252L202.969,235.574" style="fill:none;fill-rule:nonzero;stroke:white;stroke-opacity:0.2;stroke-width:0.45px;"/>
            </g>
            <g id="line2d_127">
                <path d="M92.291,76.409L129.183,127.879L166.076,158.426L202.969,212.384" style="fill:none;fill-rule:nonzero;stroke:white;stroke-opacity:0.2;stroke-width:0.45px;"/>
            </g>
            <g id="line2d_128">
                <path d="M92.291,76.409L129.183,128.887L166.076,140.314L202.969,191.967L239.861,248.933" style="fill:none;fill-rule:nonzero;stroke:white;stroke-opacity:0.2;stroke-width:0.45px;"/>
            </g>
            <g id="line2d_129">
                <path d="M92.291,76.409L129.183,133.507L166.076,174.448L202.969,217.969" style="fill:none;fill-rule:nonzero;stroke:white;stroke-opacity:0.2;stroke-width:0.45px;"/>
            </g>
            <g id="line2d_130">
                <path d="M92.291,76.409L129.183,131.489L166.076,172.958L202.969,229.427" style="fill:none;fill-rule:nonzero;stroke:white;stroke-opacity:0.2;stroke-width:0.45px;"/>
            </g>
            <g id="line2d_131">
                <path d="M92.291,76.409L129.183,117.638L166.076,124.856L202.969,171.531L239.861,206.795L276.754,268.06" style="fill:none;fill-rule:nonzero;stroke:white;stroke-opacity:0.2;stroke-width:0.45px;"/>
            </g>
            <g id="line2d_1013">
                <path d="M92.291,76.409L461.217,281.111" style="fill:none;fill-rule:nonzero;stroke:white;stroke-width:0.45px;stroke-linecap:butt;stroke-dasharray:1.66,0.72;"/>
            </g>
            <g id="patch_3">
                <path d="M72,378L72,51.84" style="fill:none;fill-rule:nonzero;stroke:white;stroke-width:0.45px;"/>
            </g>
            <g id="patch_4">
                <path d="M72,378L518.4,378" style="fill:none;fill-rule:nonzero;stroke:white;stroke-width:0.45px;"/>
            </g>
            <g id="matplotlib.axis_1">
                <g id="xtick_1">
                    <g transform="matrix(1,0,0,1,92.2909,378)">
                        <g id="line2d_1">
                            <g>
                                <path id="mc4ca7fbf1d" d="M0,0L0,3.5" style="fill:none;fill-rule:nonzero;"/>
                            </g>
                        </g>
                    </g>
                    <g transform="matrix(0.0025,0,0,-0.0025,87.2009,397.158)">
                        <g id="text_1">
                            <g>
                                <path id="DejaVuSans-30" d="M2034,4250C1709.33,4250 1465,4090 1301,3770C1137.67,3450.67 1056,2970 1056,2328C1056,1688.67 1137.67,1209 1301,889C1465,569 1709.33,409 2034,409C2361.33,409 2606.67,569 2770,889C2934,1209 3016,1688.67 3016,2328C3016,2970 2934,3450.67 2770,3770C2606.67,4090 2361.33,4250 2034,4250ZM2034,4750C2557.33,4750 2957,4543 3233,4129C3509,3715.67 3647,3115.33 3647,2328C3647,1542.67 3509,943 3233,529C2957,115.667 2557.33,-91 2034,-91C1511.33,-91 1112,115.667 836,529C560,943 422,1542.67 422,2328C422,3115.33 560,3715.67 836,4129C1112,4543 1511.33,4750 2034,4750Z" style="fill:white;fill-rule:nonzero;"/>
                            </g>
                        </g>
                    </g>
                </g>
                <g id="xtick_2">
                    <g transform="matrix(1,0,0,1,166.076,378)">
                        <g id="line2d_2">
                            <g>
                                <path id="mc4ca7fbf1d1" serif:id="mc4ca7fbf1d" d="M0,0L0,3.5" style="fill:none;fill-rule:nonzero;"/>
                            </g>
                        </g>
                    </g>
                    <g transform="matrix(0.0025,0,0,-0.0025,160.986,397.158)">
                        <g id="text_2">
                            <g>
                                <path id="DejaVuSans-32" d="M1228,531L3431,531L3431,0L469,0L469,531C708.333,779 1034.67,1111.67 1448,1529C1862,1947 2122,2216.67 2228,2338C2430,2564.67 2571,2756.67 2651,2914C2731.67,3071.33 2772,3226 2772,3378C2772,3626 2685,3828 2511,3984C2337,4140.67 2110.33,4219 1831,4219C1633,4219 1424,4184.67 1204,4116C984.667,4047.33 750,3943 500,3803L500,4441C754,4543 991.333,4620 1212,4672C1433.33,4724 1635.67,4750 1819,4750C2302.33,4750 2687.67,4629 2975,4387C3262.33,4145.67 3406,3823 3406,3419C3406,3227 3370,3045 3298,2873C3226.67,2701.67 3096,2499.33 2906,2266C2854,2205.33 2688.33,2030.67 2409,1742C2130.33,1453.33 1736.67,1049.67 1228,531Z" style="fill:white;fill-rule:nonzero;"/>
                            </g>
                        </g>
                    </g>
                </g>
                <g id="xtick_3">
                    <g transform="matrix(1,0,0,1,239.861,378)">
                        <g id="line2d_3">
                            <g>
                                <path id="mc4ca7fbf1d2" serif:id="mc4ca7fbf1d" d="M0,0L0,3.5" style="fill:none;fill-rule:nonzero;"/>
                            </g>
                        </g>
                    </g>
                    <g transform="matrix(0.0025,0,0,-0.0025,234.771,397.158)">
                        <g id="text_3">
                            <g>
                                <path id="DejaVuSans-34" d="M2419,4116L825,1625L2419,1625L2419,4116ZM2253,4666L3047,4666L3047,1625L3713,1625L3713,1100L3047,1100L3047,0L2419,0L2419,1100L313,1100L313,1709L2253,4666Z" style="fill:white;fill-rule:nonzero;"/>
                            </g>
                        </g>
                    </g>
                </g>
                <g id="xtick_4">
                    <g transform="matrix(1,0,0,1,313.646,378)">
                        <g id="line2d_4">
                            <g>
                                <path id="mc4ca7fbf1d3" serif:id="mc4ca7fbf1d" d="M0,0L0,3.5" style="fill:none;fill-rule:nonzero;"/>
                            </g>
                        </g>
                    </g>
                    <g transform="matrix(0.0025,0,0,-0.0025,308.556,397.158)">
                        <g id="text_4">
                            <g>
                                <path id="DejaVuSans-36" d="M2113,2584C1829.67,2584 1605,2487 1439,2293C1273.67,2099.67 1191,1834.33 1191,1497C1191,1161.67 1273.67,896.333 1439,701C1605,506.333 1829.67,409 2113,409C2396.33,409 2620.67,506.333 2786,701C2951.33,896.333 3034,1161.67 3034,1497C3034,1834.33 2951.33,2099.67 2786,2293C2620.67,2487 2396.33,2584 2113,2584ZM3366,4563L3366,3988C3207.33,4062.67 3047.33,4119.67 2886,4159C2724.67,4199 2564.67,4219 2406,4219C1989.33,4219 1671,4078.33 1451,3797C1231.67,3515.67 1106.33,3090.67 1075,2522C1197.67,2703.33 1351.67,2842.33 1537,2939C1723,3035.67 1927.33,3084 2150,3084C2618.67,3084 2989,2941.67 3261,2657C3533,2373 3669,1986.33 3669,1497C3669,1017.67 3527.33,633 3244,343C2960.67,53.667 2583.67,-91 2113,-91C1573,-91 1160.33,115.667 875,529C589.667,943 447,1542.67 447,2328C447,3065.33 622,3653.33 972,4092C1322,4530.67 1791.67,4750 2381,4750C2539.67,4750 2699.67,4734.33 2861,4703C3022.33,4671.67 3190.67,4625 3366,4563Z" style="fill:white;fill-rule:nonzero;"/>
                            </g>
                        </g>
                    </g>
                </g>
                <g id="xtick_5">
                    <g transform="matrix(1,0,0,1,387.431,378)">
                        <g id="line2d_5">
                            <g>
                                <path id="mc4ca7fbf1d4" serif:id="mc4ca7fbf1d" d="M0,0L0,3.5" style="fill:none;fill-rule:nonzero;"/>
                            </g>
                        </g>
                    </g>
                    <g transform="matrix(0.0025,0,0,-0.0025,382.341,397.158)">
                        <g id="text_5">
                            <g>
                                <path id="DejaVuSans-38" d="M2034,2216C1734,2216 1498,2135.67 1326,1975C1154.67,1814.33 1069,1593.67 1069,1313C1069,1031.67 1154.67,810.667 1326,650C1498,489.333 1734,409 2034,409C2334,409 2570.33,489.667 2743,651C2916.33,813 3003,1033.67 3003,1313C3003,1593.67 2917,1814.33 2745,1975C2573.67,2135.67 2336.67,2216 2034,2216ZM1403,2484C1132.33,2550.67 921.333,2676.67 770,2862C619.333,3048 544,3274.33 544,3541C544,3913.67 676.667,4208.33 942,4425C1208,4641.67 1572,4750 2034,4750C2498.67,4750 2863.33,4641.67 3128,4425C3392.67,4208.33 3525,3913.67 3525,3541C3525,3274.33 3449.33,3048 3298,2862C3147.33,2676.67 2937.67,2550.67 2669,2484C2973,2413.33 3209.67,2274.67 3379,2068C3549,1862 3634,1610.33 3634,1313C3634,860.333 3496,513 3220,271C2944,29.667 2548.67,-91 2034,-91C1520,-91 1124.67,29.667 848,271C572,513 434,860.333 434,1313C434,1610.33 519.333,1862 690,2068C861.333,2274.67 1099,2413.33 1403,2484ZM1172,3481C1172,3239.67 1247.33,3051.33 1398,2916C1549.33,2780.67 1761.33,2713 2034,2713C2305.33,2713 2517.33,2780.67 2670,2916C2823.33,3051.33 2900,3239.67 2900,3481C2900,3723 2823.33,3911.67 2670,4047C2517.33,4182.33 2305.33,4250 2034,4250C1761.33,4250 1549.33,4182.33 1398,4047C1247.33,3911.67 1172,3723 1172,3481Z" style="fill:white;fill-rule:nonzero;"/>
                            </g>
                        </g>
                    </g>
                </g>
                <g id="xtick_6">
                    <g transform="matrix(1,0,0,1,461.217,378)">
                        <g id="line2d_6">
                            <g>
                                <path id="mc4ca7fbf1d5" serif:id="mc4ca7fbf1d" d="M0,0L0,3.5" style="fill:none;fill-rule:nonzero;"/>
                            </g>
                        </g>
                    </g>
                    <g transform="matrix(0.16,0,0,-0.16,451.037,397.158)">
                        <g id="text_6">
                            <g>
                                <g id="DejaVuSans-31" transform="matrix(0.015625,0,0,0.015625,0,0)">
                                    <path d="M794,531L1825,531L1825,4091L703,3866L703,4441L1819,4666L2450,4666L2450,531L3481,531L3481,0L794,0L794,531Z" style="fill:white;fill-rule:nonzero;"/>
                                </g>
                                <g id="DejaVuSans-301" serif:id="DejaVuSans-30" transform="matrix(0.015625,0,0,0.015625,50.9941,0)">
                                    <path d="M2034,4250C1709.33,4250 1465,4090 1301,3770C1137.67,3450.67 1056,2970 1056,2328C1056,1688.67 1137.67,1209 1301,889C1465,569 1709.33,409 2034,409C2361.33,409 2606.67,569 2770,889C2934,1209 3016,1688.67 3016,2328C3016,2970 2934,3450.67 2770,3770C2606.67,4090 2361.33,4250 2034,4250ZM2034,4750C2557.33,4750 2957,4543 3233,4129C3509,3715.67 3647,3115.33 3647,2328C3647,1542.67 3509,943 3233,529C2957,115.667 2557.33,-91 2034,-91C1511.33,-91 1112,115.667 836,529C560,943 422,1542.67 422,2328C422,3115.33 560,3715.67 836,4129C1112,4543 1511.33,4750 2034,4750Z" style="fill:white;fill-rule:nonzero;"/>
                                </g>
                            </g>
                        </g>
                    </g>
                </g>
                <g transform="matrix(0.16,0,0,-0.16,257.099,416.642)">
                    <g id="text_7">
                        <g>
                            <g id="DejaVuSans-49" transform="matrix(0.015625,0,0,0.015625,-112.5,0)">
                                <rect x="628" y="0" width="631" height="4666" style="fill:white;fill-rule:nonzero;"/>
                            </g>
                            <g id="DejaVuSans-74" transform="matrix(0.015625,0,0,0.015625,125.461,0)">
                                <path d="M1172,4494L1172,3500L2356,3500L2356,3053L1172,3053L1172,1153C1172,867.667 1211,684.333 1289,603C1367,521.667 1526,481 1766,481L2356,481L2356,0L1766,0C1322,0 1015.67,82.667 847,248C678.333,414 594,715.667 594,1153L594,3053L172,3053L172,3500L594,3500L594,4494L1172,4494Z" style="fill:white;fill-rule:nonzero;"/>
                            </g>
                            <g id="DejaVuSans-65" transform="matrix(0.015625,0,0,0.015625,-48.9265,0)">
                                <path d="M3597,1894L3597,1613L953,1613C978.333,1217 1097.67,915.333 1311,708C1524.33,500.667 1821.67,397 2203,397C2423.67,397 2637.67,424 2845,478C3052.33,532 3258.33,613.333 3463,722L3463,178C3256.33,90.667 3044.67,24 2828,-22C2611.33,-68 2391.67,-91 2169,-91C1610.33,-91 1168,71.333 842,396C516,721.333 353,1161.33 353,1716C353,2288.67 507.667,2743 817,3079C1126.33,3415.67 1543.67,3584 2069,3584C2539.67,3584 2912,3432.33 3186,3129C3460,2826.33 3597,2414.67 3597,1894ZM3022,2063C3018,2377 2930,2627.67 2758,2815C2586,3003 2358.33,3097 2075,3097C1754.33,3097 1497.67,3006.33 1305,2825C1112.33,2643.67 1001.33,2388.33 972,2059L3022,2063Z" style="fill:white;fill-rule:nonzero;"/>
                            </g>
                            <g id="DejaVuSans-72" transform="matrix(0.015625,0,0,0.015625,14.5348,0)">
                                <path d="M2631,2963C2566.33,3000.33 2496,3027.67 2420,3045C2344,3063 2260.33,3072 2169,3072C1843.67,3072 1594,2966.33 1420,2755C1246,2543.67 1159,2240 1159,1844L1159,0L581,0L581,3500L1159,3500L1159,2956C1280.33,3168.67 1437.67,3326.33 1631,3429C1825,3532.33 2060.67,3584 2338,3584C2377.33,3584 2421,3581.33 2469,3576C2517,3571.33 2570,3563.67 2628,3553L2631,2963Z" style="fill:white;fill-rule:nonzero;"/>
                            </g>
                            <g id="DejaVuSans-61" transform="matrix(0.015625,0,0,0.015625,58.9272,0)">
                                <path d="M2194,1759C1729.33,1759 1407.33,1706 1228,1600C1048.67,1494 959,1312.67 959,1056C959,852 1026.33,690 1161,570C1295.67,450.667 1478.33,391 1709,391C2028.33,391 2284.33,504 2477,730C2669.67,956 2766,1256.33 2766,1631L2766,1759L2194,1759ZM3341,1997L3341,0L2766,0L2766,531C2634.67,319 2471,162.333 2275,61C2079,-40.333 1839.33,-91 1556,-91C1198,-91 913,9.667 701,211C489.667,412.333 384,681.667 384,1019C384,1412.33 515.667,1709 779,1909C1043,2109 1436.33,2209 1959,2209L2766,2209L2766,2266C2766,2530.67 2679,2735.33 2505,2880C2331,3024.67 2086.67,3097 1772,3097C1572,3097 1377,3073 1187,3025C997.667,2977 815.667,2905 641,2809L641,3341C851,3422.33 1055,3483 1253,3523C1451,3563.67 1643.67,3584 1831,3584C2337.67,3584 2716,3452.67 2966,3190C3216,2928 3341,2530.33 3341,1997Z" style="fill:white;fill-rule:nonzero;"/>
                            </g>
                            <g id="DejaVuSans-741" serif:id="DejaVuSans-74" transform="matrix(0.015625,0,0,0.015625,-83.8654,0)">
                                <path d="M1172,4494L1172,3500L2356,3500L2356,3053L1172,3053L1172,1153C1172,867.667 1211,684.333 1289,603C1367,521.667 1526,481 1766,481L2356,481L2356,0L1766,0C1322,0 1015.67,82.667 847,248C678.333,414 594,715.667 594,1153L594,3053L172,3053L172,3500L594,3500L594,4494L1172,4494Z" style="fill:white;fill-rule:nonzero;"/>
                            </g>
                            <g id="DejaVuSans-69" transform="matrix(0.015625,0,0,0.015625,172.997,0)">
                                <path d="M603,3500L1178,3500L1178,0L603,0L603,3500ZM603,4863L1178,4863L1178,4134L603,4134L603,4863Z" style="fill:white;fill-rule:nonzero;"/>
                            </g>
                            <g id="DejaVuSans-6f" transform="matrix(0.015625,0,0,0.015625,204.681,0)">
                                <path d="M1959,3097C1651,3097 1407.33,2976.67 1228,2736C1048.67,2495.33 959,2165.67 959,1747C959,1328.33 1048,998.667 1226,758C1404.67,517.333 1649,397 1959,397C2265.67,397 2508.33,517.667 2687,759C2866.33,1001 2956,1330.33 2956,1747C2956,2161.67 2866.33,2490.33 2687,2733C2508.33,2975.67 2265.67,3097 1959,3097ZM1959,3584C2459,3584 2851.67,3421.33 3137,3096C3423,2771.33 3566,2321.67 3566,1747C3566,1174.33 3423,724.667 3137,398C2851.67,72 2459,-91 1959,-91C1457,-91 1063.67,72 779,398C495,724.667 353,1174.33 353,1747C353,2321.67 495,2771.33 779,3096C1063.67,3421.33 1457,3584 1959,3584Z" style="fill:white;fill-rule:nonzero;"/>
                            </g>
                            <g id="DejaVuSans-6e" transform="matrix(0.015625,0,0,0.015625,268.137,0)">
                                <path d="M3513,2113L3513,0L2938,0L2938,2094C2938,2425.33 2873.33,2673 2744,2837C2614.67,3001.67 2421,3084 2163,3084C1852.33,3084 1607.33,2985 1428,2787C1248.67,2589.67 1159,2320 1159,1978L1159,0L581,0L581,3500L1159,3500L1159,2956C1297,3166.67 1459,3324 1645,3428C1831.67,3532 2047,3584 2291,3584C2693,3584 2997,3459.67 3203,3211C3409.67,2962.33 3513,2596.33 3513,2113Z" style="fill:white;fill-rule:nonzero;"/>
                            </g>
                            <g id="DejaVuSans-73" transform="matrix(0.015625,0,0,0.015625,337.878,0)">
                                <path d="M2834,3397L2834,2853C2672,2936.33 2503.33,2998.67 2328,3040C2153.33,3082 1972,3103 1784,3103C1498.67,3103 1284.67,3059.33 1142,2972C999.333,2884.67 928,2753.33 928,2578C928,2444.67 979,2340 1081,2264C1183,2188 1388.33,2115.67 1697,2047L1894,2003C2302,1915.67 2592,1792.33 2764,1633C2936,1473.67 3022,1251.33 3022,966C3022,640.667 2893.33,383 2636,193C2378.67,3.667 2025,-91 1575,-91C1387.67,-91 1192.33,-72.667 989,-36C785.667,0.667 571.667,55.333 347,128L347,722C559.667,611.333 769,528.333 975,473C1181,418.333 1385.33,391 1588,391C1858.67,391 2066.67,437.333 2212,530C2358,622.667 2431,753.333 2431,922C2431,1078 2378.33,1197.67 2273,1281C2168.33,1364.33 1937.67,1444.67 1581,1522L1381,1569C1025,1643.67 767.667,1758.67 609,1914C451,2069.33 372,2282.33 372,2553C372,2882.33 488.667,3136.33 722,3315C955.333,3494.33 1286.67,3584 1716,3584C1928,3584 2127.67,3568.33 2315,3537C2503,3506.33 2676,3459.67 2834,3397Z" style="fill:white;fill-rule:nonzero;"/>
                            </g>
                        </g>
                    </g>
                </g>
            </g>
            <g id="matplotlib.axis_2">
                <g id="ytick_1">
                    <g transform="matrix(1,0,0,1,72,332.286)">
                        <g id="line2d_7">
                            <g>
                                <path id="m1cd15a9fc0" d="M0,0L-3.5,0" style="fill:none;fill-rule:nonzero;"/>
                            </g>
                        </g>
                    </g>
                    <g transform="matrix(0.16,0,0,-0.16,31.2325,338.365)">
                        <g id="text_8">
                            <g>
                                <g id="DejaVuSans-2212" transform="matrix(0.015625,0,0,0.015625,0,0)">
                                    <rect x="678" y="1741" width="4006" height="531" style="fill:white;fill-rule:nonzero;"/>
                                </g>
                                <g id="DejaVuSans-321" serif:id="DejaVuSans-32" transform="matrix(0.015625,0,0,0.015625,70.0592,0)">
                                    <path d="M1228,531L3431,531L3431,0L469,0L469,531C708.333,779 1034.67,1111.67 1448,1529C1862,1947 2122,2216.67 2228,2338C2430,2564.67 2571,2756.67 2651,2914C2731.67,3071.33 2772,3226 2772,3378C2772,3626 2685,3828 2511,3984C2337,4140.67 2110.33,4219 1831,4219C1633,4219 1424,4184.67 1204,4116C984.667,4047.33 750,3943 500,3803L500,4441C754,4543 991.333,4620 1212,4672C1433.33,4724 1635.67,4750 1819,4750C2302.33,4750 2687.67,4629 2975,4387C3262.33,4145.67 3406,3823 3406,3419C3406,3227 3370,3045 3298,2873C3226.67,2701.67 3096,2499.33 2906,2266C2854,2205.33 2688.33,2030.67 2409,1742C2130.33,1453.33 1736.67,1049.67 1228,531Z" style="fill:white;fill-rule:nonzero;"/>
                                </g>
                                <g id="DejaVuSans-35" transform="matrix(0.015625,0,0,0.015625,133.553,0)">
                                    <path d="M691,4666L3169,4666L3169,4134L1269,4134L1269,2991C1360.33,3022.33 1451.67,3045.67 1543,3061C1635,3076.33 1727,3084 1819,3084C2339.67,3084 2752,2941.33 3056,2656C3360.67,2370.67 3513,1984.33 3513,1497C3513,995 3356.67,604.667 3044,326C2731.33,48 2290.67,-91 1722,-91C1526,-91 1326.33,-74.333 1123,-41C920.333,-7.667 710.667,42.333 494,109L494,744C681.333,642 875,566 1075,516C1275,466 1486.33,441 1709,441C2069.67,441 2355,535.667 2565,725C2775.67,914.333 2881,1171.67 2881,1497C2881,1821.67 2775.67,2078.67 2565,2268C2355,2458 2069.67,2553 1709,2553C1540.33,2553 1372,2534.33 1204,2497C1036.67,2459.67 865.667,2401.33 691,2322L691,4666Z" style="fill:white;fill-rule:nonzero;"/>
                                </g>
                            </g>
                        </g>
                    </g>
                </g>
                <g id="ytick_2">
                    <g transform="matrix(1,0,0,1,72,281.111)">
                        <g id="line2d_8">
                            <g>
                                <path id="m1cd15a9fc01" serif:id="m1cd15a9fc0" d="M0,0L-3.5,0" style="fill:none;fill-rule:nonzero;"/>
                            </g>
                        </g>
                    </g>
                    <g transform="matrix(0.16,0,0,-0.16,31.2325,287.189)">
                        <g id="text_9">
                            <g>
                                <g id="DejaVuSans-22121" serif:id="DejaVuSans-2212" transform="matrix(0.015625,0,0,0.015625,0,0)">
                                    <rect x="678" y="1741" width="4006" height="531" style="fill:white;fill-rule:nonzero;"/>
                                </g>
                                <g id="DejaVuSans-322" serif:id="DejaVuSans-32" transform="matrix(0.015625,0,0,0.015625,70.0592,0)">
                                    <path d="M1228,531L3431,531L3431,0L469,0L469,531C708.333,779 1034.67,1111.67 1448,1529C1862,1947 2122,2216.67 2228,2338C2430,2564.67 2571,2756.67 2651,2914C2731.67,3071.33 2772,3226 2772,3378C2772,3626 2685,3828 2511,3984C2337,4140.67 2110.33,4219 1831,4219C1633,4219 1424,4184.67 1204,4116C984.667,4047.33 750,3943 500,3803L500,4441C754,4543 991.333,4620 1212,4672C1433.33,4724 1635.67,4750 1819,4750C2302.33,4750 2687.67,4629 2975,4387C3262.33,4145.67 3406,3823 3406,3419C3406,3227 3370,3045 3298,2873C3226.67,2701.67 3096,2499.33 2906,2266C2854,2205.33 2688.33,2030.67 2409,1742C2130.33,1453.33 1736.67,1049.67 1228,531Z" style="fill:white;fill-rule:nonzero;"/>
                                </g>
                                <g id="DejaVuSans-302" serif:id="DejaVuSans-30" transform="matrix(0.015625,0,0,0.015625,127.303,0)">
                                    <path d="M2034,4250C1709.33,4250 1465,4090 1301,3770C1137.67,3450.67 1056,2970 1056,2328C1056,1688.67 1137.67,1209 1301,889C1465,569 1709.33,409 2034,409C2361.33,409 2606.67,569 2770,889C2934,1209 3016,1688.67 3016,2328C3016,2970 2934,3450.67 2770,3770C2606.67,4090 2361.33,4250 2034,4250ZM2034,4750C2557.33,4750 2957,4543 3233,4129C3509,3715.67 3647,3115.33 3647,2328C3647,1542.67 3509,943 3233,529C2957,115.667 2557.33,-91 2034,-91C1511.33,-91 1112,115.667 836,529C560,943 422,1542.67 422,2328C422,3115.33 560,3715.67 836,4129C1112,4543 1511.33,4750 2034,4750Z" style="fill:white;fill-rule:nonzero;"/>
                                </g>
                            </g>
                        </g>
                    </g>
                </g>
                <g id="ytick_3">
                    <g transform="matrix(1,0,0,1,72,229.935)">
                        <g id="line2d_9">
                            <g>
                                <path id="m1cd15a9fc02" serif:id="m1cd15a9fc0" d="M0,0L-3.5,0" style="fill:none;fill-rule:nonzero;"/>
                            </g>
                        </g>
                    </g>
                    <g transform="matrix(0.16,0,0,-0.16,31.2325,236.014)">
                        <g id="text_10">
                            <g>
                                <g id="DejaVuSans-22122" serif:id="DejaVuSans-2212" transform="matrix(0.015625,0,0,0.015625,0,0)">
                                    <rect x="678" y="1741" width="4006" height="531" style="fill:white;fill-rule:nonzero;"/>
                                </g>
                                <g id="DejaVuSans-311" serif:id="DejaVuSans-31" transform="matrix(0.015625,0,0,0.015625,70.0592,0)">
                                    <path d="M794,531L1825,531L1825,4091L703,3866L703,4441L1819,4666L2450,4666L2450,531L3481,531L3481,0L794,0L794,531Z" style="fill:white;fill-rule:nonzero;"/>
                                </g>
                                <g id="DejaVuSans-351" serif:id="DejaVuSans-35" transform="matrix(0.015625,0,0,0.015625,127.303,0)">
                                    <path d="M691,4666L3169,4666L3169,4134L1269,4134L1269,2991C1360.33,3022.33 1451.67,3045.67 1543,3061C1635,3076.33 1727,3084 1819,3084C2339.67,3084 2752,2941.33 3056,2656C3360.67,2370.67 3513,1984.33 3513,1497C3513,995 3356.67,604.667 3044,326C2731.33,48 2290.67,-91 1722,-91C1526,-91 1326.33,-74.333 1123,-41C920.333,-7.667 710.667,42.333 494,109L494,744C681.333,642 875,566 1075,516C1275,466 1486.33,441 1709,441C2069.67,441 2355,535.667 2565,725C2775.67,914.333 2881,1171.67 2881,1497C2881,1821.67 2775.67,2078.67 2565,2268C2355,2458 2069.67,2553 1709,2553C1540.33,2553 1372,2534.33 1204,2497C1036.67,2459.67 865.667,2401.33 691,2322L691,4666Z" style="fill:white;fill-rule:nonzero;"/>
                                </g>
                            </g>
                        </g>
                    </g>
                </g>
                <g id="ytick_4">
                    <g transform="matrix(1,0,0,1,72,178.76)">
                        <g id="line2d_10">
                            <g>
                                <path id="m1cd15a9fc03" serif:id="m1cd15a9fc0" d="M0,0L-3.5,0" style="fill:none;fill-rule:nonzero;"/>
                            </g>
                        </g>
                    </g>
                    <g transform="matrix(0.16,0,0,-0.16,31.2325,184.839)">
                        <g id="text_11">
                            <g>
                                <g id="DejaVuSans-22123" serif:id="DejaVuSans-2212" transform="matrix(0.015625,0,0,0.015625,0,0)">
                                    <rect x="678" y="1741" width="4006" height="531" style="fill:white;fill-rule:nonzero;"/>
                                </g>
                                <g id="DejaVuSans-312" serif:id="DejaVuSans-31" transform="matrix(0.015625,0,0,0.015625,63.8092,-6.25)">
                                    <path d="M794,531L1825,531L1825,4091L703,3866L703,4441L1819,4666L2450,4666L2450,531L3481,531L3481,0L794,0L794,531Z" style="fill:white;fill-rule:nonzero;"/>
                                </g>
                                <g id="DejaVuSans-303" serif:id="DejaVuSans-30" transform="matrix(0.015625,0,0,0.015625,127.303,-6.25)">
                                    <path d="M2034,4250C1709.33,4250 1465,4090 1301,3770C1137.67,3450.67 1056,2970 1056,2328C1056,1688.67 1137.67,1209 1301,889C1465,569 1709.33,409 2034,409C2361.33,409 2606.67,569 2770,889C2934,1209 3016,1688.67 3016,2328C3016,2970 2934,3450.67 2770,3770C2606.67,4090 2361.33,4250 2034,4250ZM2034,4750C2557.33,4750 2957,4543 3233,4129C3509,3715.67 3647,3115.33 3647,2328C3647,1542.67 3509,943 3233,529C2957,115.667 2557.33,-91 2034,-91C1511.33,-91 1112,115.667 836,529C560,943 422,1542.67 422,2328C422,3115.33 560,3715.67 836,4129C1112,4543 1511.33,4750 2034,4750Z" style="fill:white;fill-rule:nonzero;"/>
                                </g>
                            </g>
                        </g>
                    </g>
                </g>
                <g id="ytick_5">
                    <g transform="matrix(1,0,0,1,72,127.585)">
                        <g id="line2d_11">
                            <g>
                                <path id="m1cd15a9fc04" serif:id="m1cd15a9fc0" d="M0,0L-3.5,0" style="fill:none;fill-rule:nonzero;"/>
                            </g>
                        </g>
                    </g>
                    <g transform="matrix(0.16,0,0,-0.16,41.4125,133.663)">
                        <g id="text_12">
                            <g>
                                <g id="DejaVuSans-22124" serif:id="DejaVuSans-2212" transform="matrix(0.015625,0,0,0.015625,0,0)">
                                    <rect x="678" y="1741" width="4006" height="531" style="fill:white;fill-rule:nonzero;"/>
                                </g>
                                <g id="DejaVuSans-352" serif:id="DejaVuSans-35" transform="matrix(0.015625,0,0,0.015625,82.5592,0)">
                                    <path d="M691,4666L3169,4666L3169,4134L1269,4134L1269,2991C1360.33,3022.33 1451.67,3045.67 1543,3061C1635,3076.33 1727,3084 1819,3084C2339.67,3084 2752,2941.33 3056,2656C3360.67,2370.67 3513,1984.33 3513,1497C3513,995 3356.67,604.667 3044,326C2731.33,48 2290.67,-91 1722,-91C1526,-91 1326.33,-74.333 1123,-41C920.333,-7.667 710.667,42.333 494,109L494,744C681.333,642 875,566 1075,516C1275,466 1486.33,441 1709,441C2069.67,441 2355,535.667 2565,725C2775.67,914.333 2881,1171.67 2881,1497C2881,1821.67 2775.67,2078.67 2565,2268C2355,2458 2069.67,2553 1709,2553C1540.33,2553 1372,2534.33 1204,2497C1036.67,2459.67 865.667,2401.33 691,2322L691,4666Z" style="fill:white;fill-rule:nonzero;"/>
                                </g>
                            </g>
                        </g>
                    </g>
                </g>
                <g id="ytick_6">
                    <g transform="matrix(1,0,0,1,72,76.4093)">
                        <g id="line2d_12">
                            <g>
                                <path id="m1cd15a9fc05" serif:id="m1cd15a9fc0" d="M0,0L-3.5,0" style="fill:none;fill-rule:nonzero;"/>
                            </g>
                        </g>
                    </g>
                    <g transform="matrix(0.0025,0,0,-0.0025,54.82,82.4881)">
                        <g id="text_13">
                            <g>
                                <path id="DejaVuSans-304" serif:id="DejaVuSans-30" d="M2034,4250C1709.33,4250 1465,4090 1301,3770C1137.67,3450.67 1056,2970 1056,2328C1056,1688.67 1137.67,1209 1301,889C1465,569 1709.33,409 2034,409C2361.33,409 2606.67,569 2770,889C2934,1209 3016,1688.67 3016,2328C3016,2970 2934,3450.67 2770,3770C2606.67,4090 2361.33,4250 2034,4250ZM2034,4750C2557.33,4750 2957,4543 3233,4129C3509,3715.67 3647,3115.33 3647,2328C3647,1542.67 3509,943 3233,529C2957,115.667 2557.33,-91 2034,-91C1511.33,-91 1112,115.667 836,529C560,943 422,1542.67 422,2328C422,3115.33 560,3715.67 836,4129C1112,4543 1511.33,4750 2034,4750Z" style="fill:white;fill-rule:nonzero;"/>
                            </g>
                        </g>
                    </g>
                </g>
                <g transform="matrix(-6.12571e-17,-0.16,-0.16,6.12571e-17,23.8725,270.36)">
                    <g id="text_14">
                        <g>
                            <g id="DejaVuSans-Oblique-6c" transform="matrix(0.015625,0,0,0.015625,0,0.015625)">
                                <path d="M1172,4863L1747,4863L800,0L225,0L1172,4863Z" style="fill:white;fill-rule:nonzero;"/>
                            </g>
                            <g id="DejaVuSans-Oblique-6f" transform="matrix(0.015625,0,0,0.015625,27.7832,0.015625)">
                                <path d="M1625,-91C1214.33,-91 889.667,35.667 651,289C413,542.333 294,887.667 294,1325C294,1579 335,1837.67 417,2101C499.667,2365 606.667,2586.67 738,2766C944,3044.67 1174,3250.67 1428,3384C1682,3517.33 1969.67,3584 2291,3584C2689,3584 3010.33,3460 3255,3212C3499.67,2964.67 3622,2641 3622,2241C3622,1963.67 3581.33,1687.33 3500,1412C3418.67,1137.33 3312.33,909.333 3181,728C2977,448.667 2748,242.333 2494,109C2240,-24.333 1950.33,-91 1625,-91ZM891,1344C891,1027.33 957,790.333 1089,633C1221.67,475.667 1422.33,397 1691,397C2076.33,397 2395.33,565 2648,901C2901.33,1237.67 3028,1664.33 3028,2181C3028,2483 2960.33,2711 2825,2865C2689.67,3019.67 2490.67,3097 2228,3097C2011.33,3097 1818.67,3046.33 1650,2945C1481.33,2844.33 1330.33,2690.67 1197,2484C1099,2330 1023.33,2154 970,1956C917.333,1758 891,1554 891,1344Z" style="fill:white;fill-rule:nonzero;"/>
                            </g>
                            <g id="DejaVuSans-Oblique-67" transform="matrix(0.015625,0,0,0.015625,88.9648,0.015625)">
                                <path d="M3816,3500L3219,434C3104.33,-159.333 2885,-601.667 2561,-893C2237,-1185 1801,-1331 1253,-1331C1051,-1331 863.333,-1316 690,-1286C517.333,-1256 356,-1209.67 206,-1147L313,-588C454.333,-679.333 604,-746.667 762,-790C920.667,-834 1089.67,-856 1269,-856C1633.67,-856 1933,-756.333 2167,-557C2401.67,-358.333 2556.33,-72.667 2631,300L2681,563C2521,379.667 2334.67,240 2122,144C1909.33,48 1680,0 1434,0C1080,0 801.333,117 598,351C395.333,585.667 294,908.333 294,1319C294,1641.67 355.333,1957.67 478,2267C601.333,2576.33 774.333,2851 997,3091C1145,3249 1317.33,3370.67 1514,3456C1710.67,3541.33 1916.33,3584 2131,3584C2366.33,3584 2571.33,3529.33 2746,3420C2921.33,3310.67 3052,3156 3138,2956L3238,3500L3816,3500ZM2950,2216C2950,2499.33 2883.33,2718 2750,2872C2616.67,3026 2427,3103 2181,3103C2029,3103 1884.33,3072.67 1747,3012C1609.67,2952 1492,2867.67 1394,2759C1235.33,2580.33 1111.67,2369.67 1023,2127C935,1884.33 891,1633.67 891,1375C891,1087.67 958,866.667 1092,712C1226.67,558 1420,481 1672,481C2036.67,481 2340.67,646 2584,976C2828,1306.67 2950,1720 2950,2216Z" style="fill:white;fill-rule:nonzero;"/>
                            </g>
                            <g id="DejaVuSans-28" transform="matrix(0.015625,0,0,0.015625,152.441,0.015625)">
                                <path d="M1984,4856C1705.33,4377.33 1498,3903.33 1362,3434C1226.67,2965.33 1159,2490.33 1159,2009C1159,1528.33 1227.33,1052 1364,580C1500.67,108 1707.33,-366.667 1984,-844L1484,-844C1172,-354 938.333,127.333 783,600C627.667,1072.67 550,1542.33 550,2009C550,2473.67 627,2941.33 781,3412C935.667,3883.33 1170,4364.67 1484,4856L1984,4856Z" style="fill:white;fill-rule:nonzero;"/>
                            </g>
                            <g id="DejaVuSans-721" serif:id="DejaVuSans-72" transform="matrix(0.015625,0,0,0.015625,223.242,0.015625)">
                                <path d="M2631,2963C2566.33,3000.33 2496,3027.67 2420,3045C2344,3063 2260.33,3072 2169,3072C1843.67,3072 1594,2966.33 1420,2755C1246,2543.67 1159,2240 1159,1844L1159,0L581,0L581,3500L1159,3500L1159,2956C1280.33,3168.67 1437.67,3326.33 1631,3429C1825,3532.33 2060.67,3584 2338,3584C2377.33,3584 2421,3581.33 2469,3576C2517,3571.33 2570,3563.67 2628,3553L2631,2963Z" style="fill:white;fill-rule:nonzero;"/>
                            </g>
                            <g id="DejaVuSans-651" serif:id="DejaVuSans-65" transform="matrix(0.015625,0,0,0.015625,264.355,0.015625)">
                                <path d="M3597,1894L3597,1613L953,1613C978.333,1217 1097.67,915.333 1311,708C1524.33,500.667 1821.67,397 2203,397C2423.67,397 2637.67,424 2845,478C3052.33,532 3258.33,613.333 3463,722L3463,178C3256.33,90.667 3044.67,24 2828,-22C2611.33,-68 2391.67,-91 2169,-91C1610.33,-91 1168,71.333 842,396C516,721.333 353,1161.33 353,1716C353,2288.67 507.667,2743 817,3079C1126.33,3415.67 1543.67,3584 2069,3584C2539.67,3584 2912,3432.33 3186,3129C3460,2826.33 3597,2414.67 3597,1894ZM3022,2063C3018,2377 2930,2627.67 2758,2815C2586,3003 2358.33,3097 2075,3097C1754.33,3097 1497.67,3006.33 1305,2825C1112.33,2643.67 1001.33,2388.33 972,2059L3022,2063Z" style="fill:white;fill-rule:nonzero;"/>
                            </g>
                            <g id="DejaVuSans-731" serif:id="DejaVuSans-73" transform="matrix(0.015625,0,0,0.015625,325.879,0.015625)">
                                <path d="M2834,3397L2834,2853C2672,2936.33 2503.33,2998.67 2328,3040C2153.33,3082 1972,3103 1784,3103C1498.67,3103 1284.67,3059.33 1142,2972C999.333,2884.67 928,2753.33 928,2578C928,2444.67 979,2340 1081,2264C1183,2188 1388.33,2115.67 1697,2047L1894,2003C2302,1915.67 2592,1792.33 2764,1633C2936,1473.67 3022,1251.33 3022,966C3022,640.667 2893.33,383 2636,193C2378.67,3.667 2025,-91 1575,-91C1387.67,-91 1192.33,-72.667 989,-36C785.667,0.667 571.667,55.333 347,128L347,722C559.667,611.333 769,528.333 975,473C1181,418.333 1385.33,391 1588,391C1858.67,391 2066.67,437.333 2212,530C2358,622.667 2431,753.333 2431,922C2431,1078 2378.33,1197.67 2273,1281C2168.33,1364.33 1937.67,1444.67 1581,1522L1381,1569C1025,1643.67 767.667,1758.67 609,1914C451,2069.33 372,2282.33 372,2553C372,2882.33 488.667,3136.33 722,3315C955.333,3494.33 1286.67,3584 1716,3584C1928,3584 2127.67,3568.33 2315,3537C2503,3506.33 2676,3459.67 2834,3397Z" style="fill:white;fill-rule:nonzero;"/>
                            </g>
                            <g id="DejaVuSans-691" serif:id="DejaVuSans-69" transform="matrix(0.015625,0,0,0.015625,377.979,0.015625)">
                                <path d="M603,3500L1178,3500L1178,0L603,0L603,3500ZM603,4863L1178,4863L1178,4134L603,4134L603,4863Z" style="fill:white;fill-rule:nonzero;"/>
                            </g>
                            <g id="DejaVuSans-64" transform="matrix(0.015625,0,0,0.015625,405.762,0.015625)">
                                <path d="M2906,2969L2906,4863L3481,4863L3481,0L2906,0L2906,525C2785.33,317 2632.67,162.333 2448,61C2264,-40.333 2042.67,-91 1784,-91C1361.33,-91 1017,77.667 751,415C485.667,753 353,1197 353,1747C353,2297 485.667,2740.67 751,3078C1017,3415.33 1361.33,3584 1784,3584C2042.67,3584 2264,3533.33 2448,3432C2632.67,3331.33 2785.33,3177 2906,2969ZM947,1747C947,1324.33 1034,992.667 1208,752C1382,511.333 1621,391 1925,391C2229,391 2468.33,511.333 2643,752C2818.33,992.667 2906,1324.33 2906,1747C2906,2169.67 2818.33,2501.33 2643,2742C2468.33,2982.67 2229,3103 1925,3103C1621,3103 1382,2982.67 1208,2742C1034,2501.33 947,2169.67 947,1747Z" style="fill:white;fill-rule:nonzero;"/>
                            </g>
                            <g id="DejaVuSans-75" transform="matrix(0.015625,0,0,0.015625,469.238,0.015625)">
                                <path d="M544,1381L544,3500L1119,3500L1119,1403C1119,1071.67 1183.33,823 1312,657C1441.33,491.667 1635.33,409 1894,409C2204,409 2449,508 2629,706C2809.67,904 2900,1174 2900,1516L2900,3500L3475,3500L3475,0L2900,0L2900,538C2760.67,325.333 2598.67,167.333 2414,64C2230,-39.333 2016,-91 1772,-91C1370,-91 1064.67,34 856,284C648,534 544,899.667 544,1381Z" style="fill:white;fill-rule:nonzero;"/>
                            </g>
                            <g id="DejaVuSans-611" serif:id="DejaVuSans-61" transform="matrix(0.015625,0,0,0.015625,532.617,0.015625)">
                                <path d="M2194,1759C1729.33,1759 1407.33,1706 1228,1600C1048.67,1494 959,1312.67 959,1056C959,852 1026.33,690 1161,570C1295.67,450.667 1478.33,391 1709,391C2028.33,391 2284.33,504 2477,730C2669.67,956 2766,1256.33 2766,1631L2766,1759L2194,1759ZM3341,1997L3341,0L2766,0L2766,531C2634.67,319 2471,162.333 2275,61C2079,-40.333 1839.33,-91 1556,-91C1198,-91 913,9.667 701,211C489.667,412.333 384,681.667 384,1019C384,1412.33 515.667,1709 779,1909C1043,2109 1436.33,2209 1959,2209L2766,2209L2766,2266C2766,2530.67 2679,2735.33 2505,2880C2331,3024.67 2086.67,3097 1772,3097C1572,3097 1377,3073 1187,3025C997.667,2977 815.667,2905 641,2809L641,3341C851,3422.33 1055,3483 1253,3523C1451,3563.67 1643.67,3584 1831,3584C2337.67,3584 2716,3452.67 2966,3190C3216,2928 3341,2530.33 3341,1997Z" style="fill:white;fill-rule:nonzero;"/>
                            </g>
                            <g id="DejaVuSans-6c" transform="matrix(0.015625,0,0,0.015625,593.896,0.015625)">
                                <rect x="603" y="0" width="575" height="4863" style="fill:white;fill-rule:nonzero;"/>
                            </g>
                            <g id="DejaVuSans-29" transform="matrix(0.015625,0,0,0.015625,653.467,0.015625)">
                                <path d="M513,4856L1013,4856C1325,4364.67 1558.67,3883.33 1714,3412C1869.33,2941.33 1947,2473.67 1947,2009C1947,1542.33 1869.33,1072.67 1714,600C1558.67,127.333 1325,-354 1013,-844L513,-844C789.667,-366.667 996.333,108 1133,580C1269.67,1052 1338,1528.33 1338,2009C1338,2490.33 1269.67,2965.33 1133,3434C996.333,3903.33 789.667,4377.33 513,4856Z" style="fill:white;fill-rule:nonzero;"/>
                            </g>
                        </g>
                    </g>
                </g>
            </g>
        </g>
    </g>
</svg>
