<?xml version="1.0" encoding="UTF-8" standalone="no"?>
<!DOCTYPE svg PUBLIC "-//W3C//DTD SVG 1.1//EN" "http://www.w3.org/Graphics/SVG/1.1/DTD/svg11.dtd">
<svg width="100%" height="100%" viewBox="0 0 260 232" version="1.1" xmlns="http://www.w3.org/2000/svg" xmlns:xlink="http://www.w3.org/1999/xlink" xml:space="preserve" xmlns:serif="http://www.serif.com/" style="fill-rule:evenodd;clip-rule:evenodd;">
    <g id="axes_3" transform="matrix(1,0,0,1,-17.4578,-331.849)">
        <g id="patch_12">
            <rect x="72" y="333.911" width="202.909" height="191.859" style="fill:white;fill-rule:nonzero;"/>
        </g>
        <g id="PathCollection_21">
            <path d="M134.279,525.769L147.828,525.769L147.801,522.696L147.765,519.587L147.72,516.444L147.663,513.265L147.593,510.051L147.505,506.802L147.398,503.518L147.265,500.199L147.1,496.845L146.894,493.455L146.634,490.031L146.304,486.572L145.875,483.077L145.308,479.548L144.533,475.983L144.06,474.279L143.402,472.383L141.591,468.748L140.105,466.753L138.124,465.078L136.187,463.89L132.305,462.599L128.461,462.04L124.654,461.876L120.884,461.945L117.151,462.164L113.455,462.485L109.797,462.878L106.175,463.326L102.591,463.817L99.898,464.186L99.043,465.078L94.529,465.078L92.06,465.446L88.624,465.988L85.225,466.547L81.863,467.121L79.675,467.493L78.538,468.748L73.042,468.748L72,468.919L72,481.148L75.251,481.096L78.538,481.1L81.863,481.17L85.225,481.318L88.624,481.561L92.06,481.922L95.533,482.429L98.842,483.077L99.043,483.116L102.591,483.966L106.175,485.113L109.621,486.572L109.797,486.65L113.455,488.603L115.552,490.031L117.151,491.231L119.605,493.455L120.884,494.775L122.624,496.845L124.654,499.699L124.975,500.199L126.9,503.518L128.456,506.802L128.461,506.814L129.822,510.051L130.968,513.265L131.935,516.444L132.305,517.794L132.806,519.587L133.593,522.696L134.279,525.769Z" style="fill:rgb(220,233,246);fill-rule:nonzero;"/>
            <path d="M168.573,438.808L172.788,439.648L177.04,439.923L181.329,439.87L185.656,439.605L190.02,439.192L194.052,438.735L194.42,438.407L196.209,438.407L198.858,438.084L203.333,437.46L207.845,436.781L210.081,436.465L212.394,434.456L221.396,434.456L221.604,434.425L226.264,433.653L230.962,432.839L233.391,432.411L235.696,430.47L243.327,430.47L245.277,430.145L250.123,429.291L251.974,428.947L255.006,426.45L264.504,426.45L264.883,426.386L269.878,425.51L271.416,425.21L274.909,422.394L274.909,416.729L269.878,417.338L264.883,417.892L260.8,418.303L259.926,418.417L255.006,418.982L250.123,419.472L245.277,419.887L240.468,420.227L235.696,420.485L230.962,420.654L226.264,420.723L221.604,420.675L216.98,420.487L212.394,420.126L207.845,419.55L203.333,418.698L201.758,418.303L198.858,417.564L194.42,416.006L190.674,414.177L190.02,413.833L185.656,410.918L184.586,410.016L181.329,406.852L180.448,405.82L177.387,401.589L177.04,401.029L174.972,397.322L173.069,393.021L172.788,392.298L171.447,388.685L170.1,384.313L168.99,379.906L168.573,378.011L167.999,375.465L167.11,370.988L166.348,366.476L165.693,361.929L165.128,357.347L164.64,352.73L164.394,350.111L164.178,348.078L163.723,343.39L163.318,338.668L162.958,333.911L156.15,333.911L156.15,401.589L155.079,402.703L155.319,405.82L155.602,410.016L155.967,414.177L156.15,415.877L156.441,418.303L157.088,422.394L158.013,426.45L159.403,430.47L160.253,432.235L161.811,434.456L164.394,436.884L167.495,438.407L168.573,438.808Z" style="fill:rgb(220,233,246);fill-rule:nonzero;"/>
        </g>
        <g id="PathCollection_22">
            <path d="M102.591,524.688L103.494,525.769L134.279,525.769L133.593,522.696L132.806,519.587L132.305,517.794L131.935,516.444L130.968,513.265L129.822,510.051L128.461,506.814L128.456,506.802L126.9,503.518L124.975,500.199L124.654,499.699L122.624,496.845L120.884,494.775L119.605,493.455L117.151,491.231L115.552,490.031L113.455,488.603L109.797,486.65L109.621,486.572L106.175,485.113L102.591,483.966L99.043,483.116L98.842,483.077L95.533,482.429L92.06,481.922L88.624,481.561L85.225,481.318L81.863,481.17L78.538,481.1L75.251,481.096L72,481.148L72,505.617L75.251,506.682L75.582,506.802L78.538,507.836L81.863,509.235L83.545,510.051L85.225,510.863L88.624,512.784L89.382,513.265L92.06,515.014L93.965,516.444L95.533,517.681L97.699,519.587L99.043,520.86L100.83,522.696L102.591,524.688Z" style="fill:rgb(159,202,225);fill-rule:nonzero;"/>
            <path d="M203.333,418.698L207.845,419.55L212.394,420.126L216.98,420.487L221.604,420.675L226.264,420.723L230.962,420.654L235.696,420.485L240.468,420.227L245.277,419.887L250.123,419.472L255.006,418.982L259.926,418.417L260.8,418.303L264.883,417.892L269.878,417.338L274.909,416.729L274.909,401.121L269.878,401.098L264.883,400.991L259.926,400.787L255.006,400.468L250.123,400.014L245.277,399.398L240.468,398.585L235.696,397.531L234.898,397.322L230.962,396.368L226.264,394.902L221.637,393.021L221.604,393.008L216.98,390.894L213.229,388.685L212.394,388.181L207.845,384.933L207.096,384.313L203.333,380.958L202.301,379.906L198.858,375.996L198.433,375.465L195.174,370.988L194.42,369.806L192.381,366.476L190.07,361.929L190.02,361.822L187.903,357.347L186.117,352.73L185.656,351.403L184.439,348.078L182.951,343.39L181.699,338.668L181.329,337.129L180.468,333.911L162.958,333.911L163.318,338.668L163.723,343.39L164.178,348.078L164.394,350.111L164.64,352.73L165.128,357.347L165.693,361.929L166.348,366.476L167.11,370.988L167.999,375.465L168.573,378.011L168.99,379.906L170.1,384.313L171.447,388.685L172.788,392.298L173.069,393.021L174.972,397.322L177.04,401.029L177.387,401.589L180.448,405.82L181.329,406.852L184.586,410.016L185.656,410.918L190.02,413.833L190.674,414.177L194.42,416.006L198.858,417.564L201.758,418.303L203.333,418.698Z" style="fill:rgb(159,202,225);fill-rule:nonzero;"/>
        </g>
        <g id="PathCollection_23">
            <path d="M78.538,523.291L81.863,525.478L82.267,525.769L103.494,525.769L102.591,524.688L100.83,522.696L99.043,520.86L97.699,519.587L95.533,517.681L93.965,516.444L92.06,515.014L89.382,513.265L88.624,512.784L85.225,510.863L83.545,510.051L81.863,509.235L78.538,507.836L75.582,506.802L75.251,506.682L72,505.617L72,519.762L75.251,521.38L77.516,522.696L78.538,523.291Z" style="fill:rgb(102,171,212);fill-rule:nonzero;"/>
            <path d="M235.696,397.531L240.468,398.585L245.277,399.398L250.123,400.014L255.006,400.468L259.926,400.787L264.883,400.991L269.878,401.098L274.909,401.121L274.909,392.243L269.878,391.861L264.883,391.345L259.926,390.67L255.006,389.803L250.123,388.703L250.049,388.685L245.277,387.584L240.468,386.156L235.696,384.335L235.644,384.313L230.962,382.403L226.275,379.906L226.264,379.901L221.604,377.135L219.283,375.465L216.98,373.748L213.797,370.988L212.394,369.689L209.292,366.476L207.845,364.825L205.493,361.929L203.333,358.904L202.267,357.347L199.463,352.73L198.858,351.615L196.93,348.078L194.791,343.39L194.42,342.496L192.75,338.668L190.996,333.911L180.468,333.911L181.329,337.129L181.699,338.668L182.951,343.39L184.439,348.078L185.656,351.403L186.117,352.73L187.903,357.347L190.02,361.822L190.07,361.929L192.381,366.476L194.42,369.806L195.174,370.988L198.433,375.465L198.858,375.996L202.301,379.906L203.333,380.958L207.096,384.313L207.845,384.933L212.394,388.181L213.229,388.685L216.98,390.894L221.604,393.008L221.637,393.021L226.264,394.902L230.962,396.368L234.898,397.322L235.696,397.531Z" style="fill:rgb(102,171,212);fill-rule:nonzero;"/>
        </g>
        <g id="PathCollection_24">
            <path d="M72,525.769L82.267,525.769L81.863,525.478L78.538,523.291L77.516,522.696L75.251,521.38L72,519.762L72,525.769Z" style="fill:rgb(70,149,200);fill-rule:nonzero;"/>
            <path d="M250.123,388.703L255.006,389.803L259.926,390.67L264.883,391.345L269.878,391.861L274.909,392.243L274.909,379.367L269.878,378.467L264.883,377.331L259.926,375.906L258.587,375.465L255.006,374.413L250.123,372.633L246.466,370.988L245.277,370.488L240.468,368.139L237.663,366.476L235.696,365.334L230.962,362.023L230.839,361.929L226.264,358.323L225.179,357.347L221.604,353.938L220.452,352.73L216.98,348.749L216.43,348.078L212.902,343.39L212.394,342.643L209.73,338.668L207.845,335.356L207.008,333.911L190.996,333.911L192.75,338.668L194.42,342.496L194.791,343.39L196.93,348.078L198.858,351.615L199.463,352.73L202.267,357.347L203.333,358.904L205.493,361.929L207.845,364.825L209.292,366.476L212.394,369.689L213.797,370.988L216.98,373.748L219.283,375.465L221.604,377.135L226.264,379.901L226.275,379.906L230.962,382.403L235.644,384.313L235.696,384.335L240.468,386.156L245.277,387.584L250.049,388.685L250.123,388.703Z" style="fill:rgb(70,149,200);fill-rule:nonzero;"/>
        </g>
        <g id="PathCollection_25">
            <path d="M259.926,375.906L264.883,377.331L269.878,378.467L274.909,379.367L274.909,369.281L269.878,367.839L265.994,366.476L264.883,366.135L259.926,364.378L255.006,362.129L254.608,361.929L250.123,359.815L245.974,357.347L245.277,356.947L240.468,353.809L239.032,352.73L235.696,350.192L233.266,348.078L230.962,345.987L228.368,343.39L226.264,341.124L224.125,338.668L221.604,335.457L220.428,333.911L207.008,333.911L207.845,335.356L209.73,338.668L212.394,342.643L212.902,343.39L216.43,348.078L216.98,348.749L220.452,352.73L221.604,353.938L225.179,357.347L226.264,358.323L230.839,361.929L230.962,362.023L235.696,365.334L237.663,366.476L240.468,368.139L245.277,370.488L246.466,370.988L250.123,372.633L255.006,374.413L258.587,375.465L259.926,375.906Z" style="fill:rgb(44,124,186);fill-rule:nonzero;"/>
        </g>
        <g id="PathCollection_26">
            <path d="M269.878,367.839L274.909,369.281L274.909,358.891L271.056,357.347L269.878,356.932L264.883,354.912L260.625,352.73L259.926,352.399L255.006,349.771L252.37,348.078L250.123,346.68L245.676,343.39L245.277,343.096L240.468,339.124L239.967,338.668L235.696,334.595L235.036,333.911L220.428,333.911L221.604,335.457L224.125,338.668L226.264,341.124L228.368,343.39L230.962,345.987L233.266,348.078L235.696,350.192L239.032,352.73L240.468,353.809L245.277,356.947L245.974,357.347L250.123,359.815L254.608,361.929L255.006,362.129L259.926,364.378L264.883,366.135L265.994,366.476L269.878,367.839Z" style="fill:rgb(25,102,173);fill-rule:nonzero;"/>
        </g>
        <g id="PathCollection_27">
            <path d="M274.909,358.891L274.909,348.267L274.516,348.078L269.878,346.074L265.07,343.39L264.883,343.294L259.926,340.473L257.296,338.668L255.006,337.14L250.873,333.911L235.036,333.911L235.696,334.595L239.967,338.668L240.468,339.124L245.277,343.096L245.676,343.39L250.123,346.68L252.37,348.078L255.006,349.771L259.926,352.399L260.625,352.73L264.883,354.912L269.878,356.932L271.056,357.347L274.909,358.891Z" style="fill:rgb(8,81,156);fill-rule:nonzero;"/>
        </g>
        <g id="PathCollection_28">
            <path d="M274.909,348.267L274.909,342.203L269.878,339.546L268.414,338.668L264.883,336.686L260.827,333.911L250.873,333.911L255.006,337.14L257.296,338.668L259.926,340.473L264.883,343.294L265.07,343.39L269.878,346.074L274.516,348.078L274.909,348.267Z" style="fill:rgb(8,64,130);fill-rule:nonzero;"/>
        </g>
        <g id="PathCollection_29">
            <path d="M269.878,339.546L274.909,342.203L274.909,337.779L269.878,334.965L268.233,333.911L260.827,333.911L264.883,336.686L268.414,338.668L269.878,339.546Z" style="fill:rgb(8,52,113);fill-rule:nonzero;"/>
        </g>
        <g id="PathCollection_30">
            <path d="M269.878,334.965L274.909,337.779L274.909,333.911L268.233,333.911L269.878,334.965Z" style="fill:rgb(8,48,107);fill-rule:nonzero;"/>
        </g>
        <g id="matplotlib.axis_5">
            <g id="xtick_5">
                <g transform="matrix(1,0,0,1,151.184,525.769)">
                    <g id="line2d_13">
                        <g>
                            <path id="me7402a3beb" d="M0,0L0,3.5" style="fill:none;fill-rule:nonzero;stroke:black;stroke-width:0.8px;"/>
                        </g>
                    </g>
                </g>
                <g transform="matrix(0.15,0,0,-0.15,140.759,543.506)">
                    <g id="text_23">
                        <g>
                            <path id="ArialMT-48" d="M4.156,35.297C4.156,43.766 5.026,50.578 6.766,55.734C8.505,60.901 11.089,64.88 14.516,67.672C17.953,70.474 22.276,71.875 27.484,71.875C31.328,71.875 34.698,71.099 37.594,69.547C40.49,68.005 42.88,65.776 44.766,62.859C46.661,59.953 48.146,56.406 49.219,52.219C50.292,48.042 50.828,42.401 50.828,35.297C50.828,26.901 49.964,20.125 48.234,14.969C46.516,9.813 43.938,5.823 40.5,3C37.073,0.188 32.734,-1.219 27.484,-1.219C20.589,-1.219 15.172,1.255 11.234,6.203C6.516,12.161 4.156,21.859 4.156,35.297ZM13.188,35.297C13.188,23.547 14.563,15.724 17.313,11.828C20.063,7.943 23.453,6 27.484,6C31.526,6 34.922,7.953 37.672,11.859C40.422,15.766 41.797,23.578 41.797,35.297C41.797,47.089 40.422,54.917 37.672,58.781C34.922,62.656 31.495,64.594 27.391,64.594C23.359,64.594 20.135,62.885 17.719,59.469C14.698,55.115 13.188,47.057 13.188,35.297Z" style="fill-rule:nonzero;"/>
                            <g id="ArialMT-46" transform="matrix(1,0,0,1,55.6152,0)">
                                <rect x="9.078" y="0" width="10.016" height="10.016" style="fill-rule:nonzero;"/>
                            </g>
                            <g id="ArialMT-481" serif:id="ArialMT-48" transform="matrix(1,0,0,1,83.3984,0)">
                                <path d="M4.156,35.297C4.156,43.766 5.026,50.578 6.766,55.734C8.505,60.901 11.089,64.88 14.516,67.672C17.953,70.474 22.276,71.875 27.484,71.875C31.328,71.875 34.698,71.099 37.594,69.547C40.49,68.005 42.88,65.776 44.766,62.859C46.661,59.953 48.146,56.406 49.219,52.219C50.292,48.042 50.828,42.401 50.828,35.297C50.828,26.901 49.964,20.125 48.234,14.969C46.516,9.813 43.938,5.823 40.5,3C37.073,0.188 32.734,-1.219 27.484,-1.219C20.589,-1.219 15.172,1.255 11.234,6.203C6.516,12.161 4.156,21.859 4.156,35.297ZM13.188,35.297C13.188,23.547 14.563,15.724 17.313,11.828C20.063,7.943 23.453,6 27.484,6C31.526,6 34.922,7.953 37.672,11.859C40.422,15.766 41.797,23.578 41.797,35.297C41.797,47.089 40.422,54.917 37.672,58.781C34.922,62.656 31.495,64.594 27.391,64.594C23.359,64.594 20.135,62.885 17.719,59.469C14.698,55.115 13.188,47.057 13.188,35.297Z" style="fill-rule:nonzero;"/>
                            </g>
                        </g>
                    </g>
                </g>
            </g>
            <g id="xtick_6">
                <g transform="matrix(1,0,0,1,239.166,525.769)">
                    <g id="line2d_14">
                        <g>
                            <path id="me7402a3beb1" serif:id="me7402a3beb" d="M0,0L0,3.5" style="fill:none;fill-rule:nonzero;stroke:black;stroke-width:0.8px;"/>
                        </g>
                    </g>
                </g>
                <g transform="matrix(0.15,0,0,-0.15,228.741,543.506)">
                    <g id="text_24">
                        <g>
                            <path id="ArialMT-482" serif:id="ArialMT-48" d="M4.156,35.297C4.156,43.766 5.026,50.578 6.766,55.734C8.505,60.901 11.089,64.88 14.516,67.672C17.953,70.474 22.276,71.875 27.484,71.875C31.328,71.875 34.698,71.099 37.594,69.547C40.49,68.005 42.88,65.776 44.766,62.859C46.661,59.953 48.146,56.406 49.219,52.219C50.292,48.042 50.828,42.401 50.828,35.297C50.828,26.901 49.964,20.125 48.234,14.969C46.516,9.813 43.938,5.823 40.5,3C37.073,0.188 32.734,-1.219 27.484,-1.219C20.589,-1.219 15.172,1.255 11.234,6.203C6.516,12.161 4.156,21.859 4.156,35.297ZM13.188,35.297C13.188,23.547 14.563,15.724 17.313,11.828C20.063,7.943 23.453,6 27.484,6C31.526,6 34.922,7.953 37.672,11.859C40.422,15.766 41.797,23.578 41.797,35.297C41.797,47.089 40.422,54.917 37.672,58.781C34.922,62.656 31.495,64.594 27.391,64.594C23.359,64.594 20.135,62.885 17.719,59.469C14.698,55.115 13.188,47.057 13.188,35.297Z" style="fill-rule:nonzero;"/>
                            <g id="ArialMT-461" serif:id="ArialMT-46" transform="matrix(1,0,0,1,55.6152,0)">
                                <rect x="9.078" y="0" width="10.016" height="10.016" style="fill-rule:nonzero;"/>
                            </g>
                            <g id="ArialMT-50" transform="matrix(1,0,0,1,83.3984,0)">
                                <path d="M50.344,8.453L50.344,0L3.031,0C2.969,2.115 3.307,4.151 4.047,6.109C5.255,9.328 7.182,12.5 9.828,15.625C12.484,18.75 16.323,22.365 21.344,26.469C29.125,32.844 34.38,37.896 37.109,41.625C39.849,45.354 41.219,48.88 41.219,52.203C41.219,55.682 39.969,58.615 37.469,61C34.979,63.396 31.734,64.594 27.734,64.594C23.505,64.594 20.12,63.323 17.578,60.781C15.036,58.25 13.75,54.74 13.719,50.25L4.688,51.172C5.302,57.911 7.625,63.047 11.656,66.578C15.698,70.109 21.125,71.875 27.938,71.875C34.802,71.875 40.234,69.969 44.234,66.156C48.245,62.354 50.25,57.635 50.25,52C50.25,49.135 49.661,46.318 48.484,43.547C47.318,40.786 45.375,37.875 42.656,34.813C39.938,31.75 35.422,27.552 29.109,22.219C23.828,17.792 20.438,14.786 18.938,13.203C17.448,11.63 16.214,10.047 15.234,8.453L50.344,8.453Z" style="fill-rule:nonzero;"/>
                            </g>
                        </g>
                    </g>
                </g>
            </g>
            <g transform="matrix(0.15,0,0,-0.15,161.08,561.224)">
                <g id="text_25">
                    <g>
                        <g id="DejaVuSerif-Italic-69" transform="matrix(1,0,0,1,0,0.09375)">
                            <path d="M-1.516,0L-0.531,5.172L8.734,5.172L20.906,67.672L11.625,67.672L12.641,72.906L71.344,72.906L68.219,56.688L62.203,56.688L64.156,66.891L30.672,66.891L25.922,42.484L49.813,42.484L51.563,51.609L57.563,51.609L52.875,27.391L46.875,27.391L48.641,36.531L24.75,36.531L18.844,6L53.125,6L55.078,16.219L61.078,16.219L57.953,0L-1.516,0Z" style="fill-rule:nonzero;"/>
                        </g>
                        <g id="DejaVuSerif-49" transform="matrix(0.7,0,0,0.7,72.998,-15.4781)">
                            <path d="M14.203,0L14.203,5.172L26.906,5.172L26.906,65.828L12.203,56.297L12.203,62.703L29.984,74.219L36.719,74.219L36.719,5.172L49.422,5.172L49.422,0L14.203,0Z" style="fill-rule:nonzero;"/>
                        </g>
                        <g id="DejaVuSerif-491" serif:id="DejaVuSerif-49" transform="matrix(0.7,0,0,0.7,117.534,-15.4781)">
                            <path d="M14.203,0L14.203,5.172L26.906,5.172L26.906,65.828L12.203,56.297L12.203,62.703L29.984,74.219L36.719,74.219L36.719,5.172L49.422,5.172L49.422,0L14.203,0Z" style="fill-rule:nonzero;"/>
                        </g>
                    </g>
                </g>
            </g>
        </g>
        <g id="matplotlib.axis_6">
            <g id="ytick_9">
                <g transform="matrix(1,0,0,1,72,492.493)">
                    <g id="line2d_15">
                        <g>
                            <path id="m489c51ab10" d="M0,0L-3.5,0" style="fill:none;fill-rule:nonzero;stroke:black;stroke-width:0.8px;"/>
                        </g>
                    </g>
                </g>
                <g transform="matrix(0.15,0,0,-0.15,35.3891,497.861)">
                    <g id="text_26">
                        <g>
                            <rect id="ArialMT-8722" x="5.563" y="31.203" width="47.266" height="8.203" style="fill-rule:nonzero;"/>
                            <g id="ArialMT-483" serif:id="ArialMT-48" transform="matrix(1,0,0,1,58.3984,0)">
                                <path d="M4.156,35.297C4.156,43.766 5.026,50.578 6.766,55.734C8.505,60.901 11.089,64.88 14.516,67.672C17.953,70.474 22.276,71.875 27.484,71.875C31.328,71.875 34.698,71.099 37.594,69.547C40.49,68.005 42.88,65.776 44.766,62.859C46.661,59.953 48.146,56.406 49.219,52.219C50.292,48.042 50.828,42.401 50.828,35.297C50.828,26.901 49.964,20.125 48.234,14.969C46.516,9.813 43.938,5.823 40.5,3C37.073,0.188 32.734,-1.219 27.484,-1.219C20.589,-1.219 15.172,1.255 11.234,6.203C6.516,12.161 4.156,21.859 4.156,35.297ZM13.188,35.297C13.188,23.547 14.563,15.724 17.313,11.828C20.063,7.943 23.453,6 27.484,6C31.526,6 34.922,7.953 37.672,11.859C40.422,15.766 41.797,23.578 41.797,35.297C41.797,47.089 40.422,54.917 37.672,58.781C34.922,62.656 31.495,64.594 27.391,64.594C23.359,64.594 20.135,62.885 17.719,59.469C14.698,55.115 13.188,47.057 13.188,35.297Z" style="fill-rule:nonzero;"/>
                            </g>
                            <g id="ArialMT-462" serif:id="ArialMT-46" transform="matrix(1,0,0,1,114.014,0)">
                                <rect x="9.078" y="0" width="10.016" height="10.016" style="fill-rule:nonzero;"/>
                            </g>
                            <g id="ArialMT-49" transform="matrix(1,0,0,1,141.797,0)">
                                <path d="M37.25,0L28.469,0L28.469,56C26.354,53.99 23.578,51.974 20.141,49.953C16.703,47.932 13.62,46.417 10.891,45.406L10.891,53.906C15.807,56.219 20.104,59.016 23.781,62.297C27.458,65.589 30.063,68.781 31.594,71.875L37.25,71.875L37.25,0Z" style="fill-rule:nonzero;"/>
                            </g>
                        </g>
                    </g>
                </g>
            </g>
            <g id="ytick_10">
                <g transform="matrix(1,0,0,1,72,450.898)">
                    <g id="line2d_16">
                        <g>
                            <path id="m489c51ab101" serif:id="m489c51ab10" d="M0,0L-3.5,0" style="fill:none;fill-rule:nonzero;stroke:black;stroke-width:0.8px;"/>
                        </g>
                    </g>
                </g>
                <g transform="matrix(0.15,0,0,-0.15,44.15,456.266)">
                    <g id="text_27">
                        <g>
                            <path id="ArialMT-484" serif:id="ArialMT-48" d="M4.156,35.297C4.156,43.766 5.026,50.578 6.766,55.734C8.505,60.901 11.089,64.88 14.516,67.672C17.953,70.474 22.276,71.875 27.484,71.875C31.328,71.875 34.698,71.099 37.594,69.547C40.49,68.005 42.88,65.776 44.766,62.859C46.661,59.953 48.146,56.406 49.219,52.219C50.292,48.042 50.828,42.401 50.828,35.297C50.828,26.901 49.964,20.125 48.234,14.969C46.516,9.813 43.938,5.823 40.5,3C37.073,0.188 32.734,-1.219 27.484,-1.219C20.589,-1.219 15.172,1.255 11.234,6.203C6.516,12.161 4.156,21.859 4.156,35.297ZM13.188,35.297C13.188,23.547 14.563,15.724 17.313,11.828C20.063,7.943 23.453,6 27.484,6C31.526,6 34.922,7.953 37.672,11.859C40.422,15.766 41.797,23.578 41.797,35.297C41.797,47.089 40.422,54.917 37.672,58.781C34.922,62.656 31.495,64.594 27.391,64.594C23.359,64.594 20.135,62.885 17.719,59.469C14.698,55.115 13.188,47.057 13.188,35.297Z" style="fill-rule:nonzero;"/>
                            <g id="ArialMT-463" serif:id="ArialMT-46" transform="matrix(1,0,0,1,55.6152,0)">
                                <rect x="9.078" y="0" width="10.016" height="10.016" style="fill-rule:nonzero;"/>
                            </g>
                            <g id="ArialMT-485" serif:id="ArialMT-48" transform="matrix(1,0,0,1,83.3984,0)">
                                <path d="M4.156,35.297C4.156,43.766 5.026,50.578 6.766,55.734C8.505,60.901 11.089,64.88 14.516,67.672C17.953,70.474 22.276,71.875 27.484,71.875C31.328,71.875 34.698,71.099 37.594,69.547C40.49,68.005 42.88,65.776 44.766,62.859C46.661,59.953 48.146,56.406 49.219,52.219C50.292,48.042 50.828,42.401 50.828,35.297C50.828,26.901 49.964,20.125 48.234,14.969C46.516,9.813 43.938,5.823 40.5,3C37.073,0.188 32.734,-1.219 27.484,-1.219C20.589,-1.219 15.172,1.255 11.234,6.203C6.516,12.161 4.156,21.859 4.156,35.297ZM13.188,35.297C13.188,23.547 14.563,15.724 17.313,11.828C20.063,7.943 23.453,6 27.484,6C31.526,6 34.922,7.953 37.672,11.859C40.422,15.766 41.797,23.578 41.797,35.297C41.797,47.089 40.422,54.917 37.672,58.781C34.922,62.656 31.495,64.594 27.391,64.594C23.359,64.594 20.135,62.885 17.719,59.469C14.698,55.115 13.188,47.057 13.188,35.297Z" style="fill-rule:nonzero;"/>
                            </g>
                        </g>
                    </g>
                </g>
            </g>
            <g id="ytick_11">
                <g transform="matrix(1,0,0,1,72,409.302)">
                    <g id="line2d_17">
                        <g>
                            <path id="m489c51ab102" serif:id="m489c51ab10" d="M0,0L-3.5,0" style="fill:none;fill-rule:nonzero;stroke:black;stroke-width:0.8px;"/>
                        </g>
                    </g>
                </g>
                <g transform="matrix(0.15,0,0,-0.15,44.15,414.671)">
                    <g id="text_28">
                        <g>
                            <path id="ArialMT-486" serif:id="ArialMT-48" d="M4.156,35.297C4.156,43.766 5.026,50.578 6.766,55.734C8.505,60.901 11.089,64.88 14.516,67.672C17.953,70.474 22.276,71.875 27.484,71.875C31.328,71.875 34.698,71.099 37.594,69.547C40.49,68.005 42.88,65.776 44.766,62.859C46.661,59.953 48.146,56.406 49.219,52.219C50.292,48.042 50.828,42.401 50.828,35.297C50.828,26.901 49.964,20.125 48.234,14.969C46.516,9.813 43.938,5.823 40.5,3C37.073,0.188 32.734,-1.219 27.484,-1.219C20.589,-1.219 15.172,1.255 11.234,6.203C6.516,12.161 4.156,21.859 4.156,35.297ZM13.188,35.297C13.188,23.547 14.563,15.724 17.313,11.828C20.063,7.943 23.453,6 27.484,6C31.526,6 34.922,7.953 37.672,11.859C40.422,15.766 41.797,23.578 41.797,35.297C41.797,47.089 40.422,54.917 37.672,58.781C34.922,62.656 31.495,64.594 27.391,64.594C23.359,64.594 20.135,62.885 17.719,59.469C14.698,55.115 13.188,47.057 13.188,35.297Z" style="fill-rule:nonzero;"/>
                            <g id="ArialMT-464" serif:id="ArialMT-46" transform="matrix(1,0,0,1,55.6152,0)">
                                <rect x="9.078" y="0" width="10.016" height="10.016" style="fill-rule:nonzero;"/>
                            </g>
                            <g id="ArialMT-491" serif:id="ArialMT-49" transform="matrix(1,0,0,1,83.3984,0)">
                                <path d="M37.25,0L28.469,0L28.469,56C26.354,53.99 23.578,51.974 20.141,49.953C16.703,47.932 13.62,46.417 10.891,45.406L10.891,53.906C15.807,56.219 20.104,59.016 23.781,62.297C27.458,65.589 30.063,68.781 31.594,71.875L37.25,71.875L37.25,0Z" style="fill-rule:nonzero;"/>
                            </g>
                        </g>
                    </g>
                </g>
            </g>
            <g id="ytick_12">
                <g transform="matrix(1,0,0,1,72,367.707)">
                    <g id="line2d_18">
                        <g>
                            <path id="m489c51ab103" serif:id="m489c51ab10" d="M0,0L-3.5,0" style="fill:none;fill-rule:nonzero;stroke:black;stroke-width:0.8px;"/>
                        </g>
                    </g>
                </g>
                <g transform="matrix(0.15,0,0,-0.15,44.15,373.075)">
                    <g id="text_29">
                        <g>
                            <path id="ArialMT-487" serif:id="ArialMT-48" d="M4.156,35.297C4.156,43.766 5.026,50.578 6.766,55.734C8.505,60.901 11.089,64.88 14.516,67.672C17.953,70.474 22.276,71.875 27.484,71.875C31.328,71.875 34.698,71.099 37.594,69.547C40.49,68.005 42.88,65.776 44.766,62.859C46.661,59.953 48.146,56.406 49.219,52.219C50.292,48.042 50.828,42.401 50.828,35.297C50.828,26.901 49.964,20.125 48.234,14.969C46.516,9.813 43.938,5.823 40.5,3C37.073,0.188 32.734,-1.219 27.484,-1.219C20.589,-1.219 15.172,1.255 11.234,6.203C6.516,12.161 4.156,21.859 4.156,35.297ZM13.188,35.297C13.188,23.547 14.563,15.724 17.313,11.828C20.063,7.943 23.453,6 27.484,6C31.526,6 34.922,7.953 37.672,11.859C40.422,15.766 41.797,23.578 41.797,35.297C41.797,47.089 40.422,54.917 37.672,58.781C34.922,62.656 31.495,64.594 27.391,64.594C23.359,64.594 20.135,62.885 17.719,59.469C14.698,55.115 13.188,47.057 13.188,35.297Z" style="fill-rule:nonzero;"/>
                            <g id="ArialMT-465" serif:id="ArialMT-46" transform="matrix(1,0,0,1,55.6152,0)">
                                <rect x="9.078" y="0" width="10.016" height="10.016" style="fill-rule:nonzero;"/>
                            </g>
                            <g id="ArialMT-501" serif:id="ArialMT-50" transform="matrix(1,0,0,1,83.3984,0)">
                                <path d="M50.344,8.453L50.344,0L3.031,0C2.969,2.115 3.307,4.151 4.047,6.109C5.255,9.328 7.182,12.5 9.828,15.625C12.484,18.75 16.323,22.365 21.344,26.469C29.125,32.844 34.38,37.896 37.109,41.625C39.849,45.354 41.219,48.88 41.219,52.203C41.219,55.682 39.969,58.615 37.469,61C34.979,63.396 31.734,64.594 27.734,64.594C23.505,64.594 20.12,63.323 17.578,60.781C15.036,58.25 13.75,54.74 13.719,50.25L4.688,51.172C5.302,57.911 7.625,63.047 11.656,66.578C15.698,70.109 21.125,71.875 27.938,71.875C34.802,71.875 40.234,69.969 44.234,66.156C48.245,62.354 50.25,57.635 50.25,52C50.25,49.135 49.661,46.318 48.484,43.547C47.318,40.786 45.375,37.875 42.656,34.813C39.938,31.75 35.422,27.552 29.109,22.219C23.828,17.792 20.438,14.786 18.938,13.203C17.448,11.63 16.214,10.047 15.234,8.453L50.344,8.453Z" style="fill-rule:nonzero;"/>
                            </g>
                        </g>
                    </g>
                </g>
            </g>
            <g transform="matrix(-5.74285e-17,-0.15,-0.15,5.74285e-17,28.4078,442.215)">
                <g id="text_30">
                    <g>
                        <g id="DejaVuSerif-Italic-691" serif:id="DejaVuSerif-Italic-69" transform="matrix(1,0,0,1,0,0.09375)">
                            <path d="M-1.516,0L-0.531,5.172L8.734,5.172L20.906,67.672L11.625,67.672L12.641,72.906L71.344,72.906L68.219,56.688L62.203,56.688L64.156,66.891L30.672,66.891L25.922,42.484L49.813,42.484L51.563,51.609L57.563,51.609L52.875,27.391L46.875,27.391L48.641,36.531L24.75,36.531L18.844,6L53.125,6L55.078,16.219L61.078,16.219L57.953,0L-1.516,0Z" style="fill-rule:nonzero;"/>
                        </g>
                        <g id="DejaVuSerif-50" transform="matrix(0.7,0,0,0.7,72.998,-15.4781)">
                            <path d="M12.797,55.516L7.328,55.516L7.328,68.5C10.807,70.365 14.313,71.781 17.844,72.75C21.375,73.729 24.833,74.219 28.219,74.219C35.802,74.219 41.792,72.38 46.188,68.703C50.583,65.026 52.781,60.031 52.781,53.719C52.781,46.583 47.802,38.052 37.844,28.125C37.063,27.375 36.474,26.807 36.078,26.422L17.672,8.016L48.094,8.016L48.094,17L53.813,17L53.813,0L6.781,0L6.781,5.328L28.906,27.391C33.792,32.276 37.276,36.76 39.359,40.844C41.443,44.927 42.484,49.219 42.484,53.719C42.484,58.625 41.203,62.464 38.641,65.234C36.089,68.005 32.568,69.391 28.078,69.391C23.422,69.391 19.823,68.234 17.281,65.922C14.75,63.609 13.255,60.141 12.797,55.516Z" style="fill-rule:nonzero;"/>
                        </g>
                        <g id="DejaVuSerif-501" serif:id="DejaVuSerif-50" transform="matrix(0.7,0,0,0.7,117.534,-15.4781)">
                            <path d="M12.797,55.516L7.328,55.516L7.328,68.5C10.807,70.365 14.313,71.781 17.844,72.75C21.375,73.729 24.833,74.219 28.219,74.219C35.802,74.219 41.792,72.38 46.188,68.703C50.583,65.026 52.781,60.031 52.781,53.719C52.781,46.583 47.802,38.052 37.844,28.125C37.063,27.375 36.474,26.807 36.078,26.422L17.672,8.016L48.094,8.016L48.094,17L53.813,17L53.813,0L6.781,0L6.781,5.328L28.906,27.391C33.792,32.276 37.276,36.76 39.359,40.844C41.443,44.927 42.484,49.219 42.484,53.719C42.484,58.625 41.203,62.464 38.641,65.234C36.089,68.005 32.568,69.391 28.078,69.391C23.422,69.391 19.823,68.234 17.281,65.922C14.75,63.609 13.255,60.141 12.797,55.516Z" style="fill-rule:nonzero;"/>
                        </g>
                    </g>
                </g>
            </g>
        </g>
    </g>
</svg>
