<?xml version="1.0" encoding="UTF-8" standalone="no"?>
<!DOCTYPE svg PUBLIC "-//W3C//DTD SVG 1.1//EN" "http://www.w3.org/Graphics/SVG/1.1/DTD/svg11.dtd">
<svg width="100%" height="100%" viewBox="0 0 260 232" version="1.1" xmlns="http://www.w3.org/2000/svg" xmlns:xlink="http://www.w3.org/1999/xlink" xml:space="preserve" xmlns:serif="http://www.serif.com/" style="fill-rule:evenodd;clip-rule:evenodd;stroke-linejoin:round;stroke-miterlimit:2;">
    <g id="axes_2" transform="matrix(1,0,0,1,-260.949,-101.618)">
        <g id="patch_7">
            <rect x="315.491" y="103.68" width="202.909" height="191.859" style="fill:white;fill-opacity:0.06;"/>
        </g>
        <g transform="matrix(0.15,0,0,-0.15,404.57,330.994)">
            <g id="matplotlib.axis_3">
                <g>
                    <g id="text_14">
                        <g>
                            <g id="DejaVuSerif-Italic-69" transform="matrix(1,0,0,1,0,0.09375)">
                                <path d="M-1.516,0L-0.531,5.172L8.734,5.172L20.906,67.672L11.625,67.672L12.641,72.906L71.344,72.906L68.219,56.688L62.203,56.688L64.156,66.891L30.672,66.891L25.922,42.484L49.813,42.484L51.563,51.609L57.563,51.609L52.875,27.391L46.875,27.391L48.641,36.531L24.75,36.531L18.844,6L53.125,6L55.078,16.219L61.078,16.219L57.953,0L-1.516,0Z" style="fill-rule:nonzero;"/>
                            </g>
                            <g id="DejaVuSerif-49" transform="matrix(0.7,0,0,0.7,72.998,-15.4781)">
                                <path d="M14.203,0L14.203,5.172L26.906,5.172L26.906,65.828L12.203,56.297L12.203,62.703L29.984,74.219L36.719,74.219L36.719,5.172L49.422,5.172L49.422,0L14.203,0Z" style="fill-rule:nonzero;"/>
                            </g>
                            <g id="DejaVuSerif-491" serif:id="DejaVuSerif-49" transform="matrix(0.7,0,0,0.7,117.534,-15.4781)">
                                <path d="M14.203,0L14.203,5.172L26.906,5.172L26.906,65.828L12.203,56.297L12.203,62.703L29.984,74.219L36.719,74.219L36.719,5.172L49.422,5.172L49.422,0L14.203,0Z" style="fill-rule:nonzero;"/>
                            </g>
                        </g>
                    </g>
                </g>
            </g>
        </g>
        <g transform="matrix(-5.74285e-17,-0.15,-0.15,5.74285e-17,271.899,211.984)">
            <g id="matplotlib.axis_4">
                <g>
                    <g id="text_19">
                        <g>
                            <g id="DejaVuSerif-Italic-691" serif:id="DejaVuSerif-Italic-69" transform="matrix(1,0,0,1,0,0.09375)">
                                <path d="M-1.516,0L-0.531,5.172L8.734,5.172L20.906,67.672L11.625,67.672L12.641,72.906L71.344,72.906L68.219,56.688L62.203,56.688L64.156,66.891L30.672,66.891L25.922,42.484L49.813,42.484L51.563,51.609L57.563,51.609L52.875,27.391L46.875,27.391L48.641,36.531L24.75,36.531L18.844,6L53.125,6L55.078,16.219L61.078,16.219L57.953,0L-1.516,0Z" style="fill-rule:nonzero;"/>
                            </g>
                            <g id="DejaVuSerif-50" transform="matrix(0.7,0,0,0.7,72.998,-15.4781)">
                                <path d="M12.797,55.516L7.328,55.516L7.328,68.5C10.807,70.365 14.313,71.781 17.844,72.75C21.375,73.729 24.833,74.219 28.219,74.219C35.802,74.219 41.792,72.38 46.188,68.703C50.583,65.026 52.781,60.031 52.781,53.719C52.781,46.583 47.802,38.052 37.844,28.125C37.063,27.375 36.474,26.807 36.078,26.422L17.672,8.016L48.094,8.016L48.094,17L53.813,17L53.813,0L6.781,0L6.781,5.328L28.906,27.391C33.792,32.276 37.276,36.76 39.359,40.844C41.443,44.927 42.484,49.219 42.484,53.719C42.484,58.625 41.203,62.464 38.641,65.234C36.089,68.005 32.568,69.391 28.078,69.391C23.422,69.391 19.823,68.234 17.281,65.922C14.75,63.609 13.255,60.141 12.797,55.516Z" style="fill-rule:nonzero;"/>
                            </g>
                            <g id="DejaVuSerif-501" serif:id="DejaVuSerif-50" transform="matrix(0.7,0,0,0.7,117.534,-15.4781)">
                                <path d="M12.797,55.516L7.328,55.516L7.328,68.5C10.807,70.365 14.313,71.781 17.844,72.75C21.375,73.729 24.833,74.219 28.219,74.219C35.802,74.219 41.792,72.38 46.188,68.703C50.583,65.026 52.781,60.031 52.781,53.719C52.781,46.583 47.802,38.052 37.844,28.125C37.063,27.375 36.474,26.807 36.078,26.422L17.672,8.016L48.094,8.016L48.094,17L53.813,17L53.813,0L6.781,0L6.781,5.328L28.906,27.391C33.792,32.276 37.276,36.76 39.359,40.844C41.443,44.927 42.484,49.219 42.484,53.719C42.484,58.625 41.203,62.464 38.641,65.234C36.089,68.005 32.568,69.391 28.078,69.391C23.422,69.391 19.823,68.234 17.281,65.922C14.75,63.609 13.255,60.141 12.797,55.516Z" style="fill-rule:nonzero;"/>
                            </g>
                        </g>
                    </g>
                </g>
            </g>
        </g>
    </g>
    <g transform="matrix(1,0,0,1,-260.949,-101.618)">
        <path d="M398.884,249.317L399.64,249.57L403.744,250.594L407.885,251.304L412.063,251.638L416.279,251.517L420.531,250.836L424.82,249.455L425.107,249.317L429.147,246.476L429.881,245.752L432.079,242.153L433.01,238.518L433.004,234.848L432.287,231.143L430.889,227.403L429.147,224.215L428.82,223.628L425.697,219.817L424.82,219.028L421.45,215.972L420.531,215.316L416.279,212.294L415.984,212.092L412.063,209.946L408.79,208.176L407.885,207.775L403.744,206.123L399.64,204.618L398.33,204.226L395.574,203.551L391.544,202.831L387.551,202.435L383.596,202.438L379.677,202.922L375.796,203.969L375.195,204.226L371.952,206.237L369.759,208.176L368.145,210.57L367.358,212.092L366.53,215.972L366.754,219.817L367.877,223.628L368.145,224.186L369.94,227.403L371.952,230.403L372.519,231.143L375.725,234.848L375.796,234.921L379.6,238.518L379.677,238.585L383.596,241.617L384.369,242.153L387.551,244.159L390.384,245.752L391.544,246.348L395.574,248.102L398.884,249.317Z" style="fill:none;fill-rule:nonzero;stroke:black;stroke-width:1px;"/>
    </g>
</svg>
