<?xml version="1.0" encoding="UTF-8" standalone="no"?>
<!DOCTYPE svg PUBLIC "-//W3C//DTD SVG 1.1//EN" "http://www.w3.org/Graphics/SVG/1.1/DTD/svg11.dtd">
<svg width="100%" height="100%" viewBox="0 0 387 250" version="1.1" xmlns="http://www.w3.org/2000/svg" xmlns:xlink="http://www.w3.org/1999/xlink" xml:space="preserve" xmlns:serif="http://www.serif.com/" style="fill-rule:evenodd;clip-rule:evenodd;stroke-linecap:round;stroke-linejoin:round;stroke-miterlimit:1.5;">
    <g id="Legend-GOH" serif:id="Legend GOH" transform="matrix(1,0,0,1,-93,0)">
        <g>
            <g transform="matrix(1,0,0,-1,236.784,207.039)">
                <path d="M8.504,0.199L5.978,0.199L5.978,-0.199L8.966,-0.199L8.966,0.199L8.504,0.199Z" style="fill:white;"/>
            </g>
            <g transform="matrix(1,0,0,-1,236.784,207.039)">
                <path d="M-0,-0.199L2.989,-0.199L2.989,0.199L0,0.199L-0,-0.199Z" style="fill:white;"/>
            </g>
            <g transform="matrix(1,0,0,-1,236.784,207.039)">
                <path d="M11.955,-0.199L14.944,-0.199L14.944,0.199L11.955,0.199L11.955,-0.199Z" style="fill:white;"/>
            </g>
        </g>
        <g transform="matrix(1,0,0,1,258.819,210.644)">
            <g>
                <g transform="matrix(11.9552,0,0,11.9552,0,0)">
                    <path d="M0.384,0.018C0.284,0.018 0.203,-0.017 0.142,-0.086C0.081,-0.156 0.051,-0.248 0.051,-0.362C0.051,-0.477 0.081,-0.569 0.143,-0.637C0.204,-0.706 0.286,-0.741 0.389,-0.741C0.491,-0.741 0.573,-0.706 0.634,-0.638C0.696,-0.569 0.727,-0.477 0.727,-0.363C0.727,-0.246 0.696,-0.153 0.634,-0.085C0.573,-0.016 0.489,0.018 0.384,0.018ZM0.386,-0.059C0.46,-0.059 0.517,-0.085 0.557,-0.138C0.597,-0.192 0.618,-0.267 0.618,-0.364C0.618,-0.458 0.597,-0.531 0.557,-0.584C0.516,-0.638 0.46,-0.664 0.389,-0.664C0.317,-0.664 0.261,-0.637 0.22,-0.584C0.18,-0.531 0.16,-0.457 0.16,-0.362C0.16,-0.268 0.18,-0.194 0.22,-0.14C0.26,-0.086 0.315,-0.059 0.386,-0.059Z" style="fill:white;fill-rule:nonzero;"/>
                </g>
                <g transform="matrix(11.9552,0,0,11.9552,9.28746,0)">
                    <path d="M0.114,-0L0.114,-0.458L0.039,-0.458L0.039,-0.53L0.114,-0.53L0.114,-0.594C0.114,-0.72 0.172,-0.783 0.287,-0.783C0.319,-0.783 0.356,-0.778 0.397,-0.767L0.397,-0.691C0.354,-0.704 0.319,-0.711 0.293,-0.711C0.261,-0.711 0.24,-0.703 0.228,-0.688C0.217,-0.673 0.211,-0.645 0.211,-0.604L0.211,-0.53L0.452,-0.53L0.452,-0.594C0.452,-0.72 0.509,-0.783 0.625,-0.783C0.657,-0.783 0.693,-0.778 0.734,-0.767L0.734,-0.691C0.691,-0.704 0.656,-0.711 0.63,-0.711C0.599,-0.711 0.577,-0.703 0.565,-0.688C0.554,-0.673 0.548,-0.645 0.548,-0.604L0.548,-0.53L0.681,-0.53L0.681,-0.458L0.548,-0.458L0.548,-0L0.452,-0L0.452,-0.458L0.211,-0.458L0.211,-0L0.114,-0ZM0.343,-0.53" style="fill:white;fill-rule:nonzero;"/>
                </g>
                <g transform="matrix(11.9552,0,0,11.9552,17.711,0)">
                    <rect x="0.072" y="-0.325" width="0.434" height="0.072" style="fill:white;fill-rule:nonzero;"/>
                </g>
                <g transform="matrix(11.9552,0,0,11.9552,24.6284,0)">
                    <path d="M0.043,-0L0.245,-0.274L0.049,-0.53L0.163,-0.53L0.318,-0.326L0.458,-0.53L0.552,-0.53L0.368,-0.261L0.568,-0L0.454,-0L0.294,-0.21L0.14,-0L0.043,-0Z" style="fill:white;fill-rule:nonzero;"/>
                </g>
                <g transform="matrix(11.9552,0,0,11.9552,31.9603,0)">
                    <path d="M0.289,0.078L0.289,0.145C0.219,0.097 0.163,0.032 0.122,-0.051C0.081,-0.133 0.06,-0.22 0.06,-0.313C0.06,-0.406 0.081,-0.494 0.122,-0.576C0.163,-0.658 0.219,-0.723 0.289,-0.771L0.289,-0.705C0.241,-0.653 0.207,-0.597 0.187,-0.537C0.166,-0.477 0.156,-0.402 0.156,-0.313C0.156,-0.224 0.166,-0.15 0.187,-0.09C0.207,-0.03 0.241,0.026 0.289,0.078Z" style="fill:white;fill-rule:nonzero;"/>
                </g>
                <g transform="matrix(11.9552,0,0,11.9552,35.8481,0)">
                    <path d="M0.636,-0.02C0.549,0.006 0.472,0.018 0.407,0.018C0.292,0.018 0.204,-0.015 0.143,-0.08C0.081,-0.146 0.051,-0.239 0.051,-0.361C0.051,-0.481 0.082,-0.574 0.144,-0.641C0.206,-0.707 0.293,-0.741 0.406,-0.741C0.479,-0.741 0.556,-0.73 0.635,-0.708L0.635,-0.613C0.536,-0.647 0.459,-0.664 0.406,-0.664C0.328,-0.664 0.267,-0.638 0.224,-0.584C0.181,-0.531 0.16,-0.457 0.16,-0.36C0.16,-0.265 0.183,-0.191 0.229,-0.138C0.275,-0.085 0.34,-0.059 0.423,-0.059C0.458,-0.059 0.494,-0.065 0.534,-0.077L0.534,-0.312L0.636,-0.312L0.636,-0.02Z" style="fill:white;fill-rule:nonzero;"/>
                </g>
                <g transform="matrix(11.9552,0,0,11.9552,44.4876,0)">
                    <path d="M0.384,0.018C0.284,0.018 0.203,-0.017 0.142,-0.086C0.081,-0.156 0.051,-0.248 0.051,-0.362C0.051,-0.477 0.081,-0.569 0.143,-0.637C0.204,-0.706 0.286,-0.741 0.389,-0.741C0.491,-0.741 0.573,-0.706 0.634,-0.638C0.696,-0.569 0.727,-0.477 0.727,-0.363C0.727,-0.246 0.696,-0.153 0.634,-0.085C0.573,-0.016 0.489,0.018 0.384,0.018ZM0.386,-0.059C0.46,-0.059 0.517,-0.085 0.557,-0.138C0.597,-0.192 0.618,-0.267 0.618,-0.364C0.618,-0.458 0.597,-0.531 0.557,-0.584C0.516,-0.638 0.46,-0.664 0.389,-0.664C0.317,-0.664 0.261,-0.637 0.22,-0.584C0.18,-0.531 0.16,-0.457 0.16,-0.362C0.16,-0.268 0.18,-0.194 0.22,-0.14C0.26,-0.086 0.315,-0.059 0.386,-0.059Z" style="fill:white;fill-rule:nonzero;"/>
                </g>
                <g transform="matrix(11.9552,0,0,11.9552,53.775,0)">
                    <path d="M0.093,-0L0.093,-0.723L0.196,-0.723L0.196,-0.418L0.54,-0.418L0.54,-0.723L0.642,-0.723L0.642,-0L0.54,-0L0.54,-0.341L0.196,-0.341L0.196,-0L0.093,-0Z" style="fill:white;fill-rule:nonzero;"/>
                </g>
                <g transform="matrix(11.9552,0,0,11.9552,62.5605,0)">
                    <path d="M0.036,0.078L0.036,0.145C0.106,0.097 0.162,0.032 0.203,-0.051C0.245,-0.133 0.265,-0.22 0.265,-0.313C0.265,-0.406 0.245,-0.494 0.203,-0.576C0.162,-0.658 0.106,-0.723 0.036,-0.771L0.036,-0.705C0.084,-0.653 0.118,-0.597 0.138,-0.537C0.159,-0.477 0.169,-0.402 0.169,-0.313C0.169,-0.224 0.159,-0.15 0.138,-0.09C0.118,-0.03 0.084,0.026 0.036,0.078Z" style="fill:white;fill-rule:nonzero;"/>
                </g>
            </g>
        </g>
        <g>
            <g transform="matrix(1,0,0,-1,236.784,221.746)">
                <path d="M11.955,-0.199L14.944,-0.199L14.944,0.199L11.955,0.199L11.955,-0.199Z" style="fill:rgb(187,55,84);"/>
            </g>
            <g transform="matrix(1,0,0,-1,236.784,221.746)">
                <path d="M0,-0.199L2.989,-0.199L2.989,0.199L-0,0.199L0,-0.199Z" style="fill:rgb(187,55,84);"/>
            </g>
            <g transform="matrix(1,0,0,-1,236.784,221.746)">
                <path d="M8.504,0.199L5.978,0.199L5.978,-0.199L8.966,-0.199L8.966,0.199L8.504,0.199Z" style="fill:rgb(187,55,84);"/>
            </g>
        </g>
        <g transform="matrix(1,0,0,1,258.819,225.351)">
            <g>
                <g transform="matrix(11.9552,0,0,11.9552,0,0)">
                    <path d="M0.384,0.018C0.284,0.018 0.203,-0.017 0.142,-0.086C0.081,-0.156 0.051,-0.248 0.051,-0.362C0.051,-0.477 0.081,-0.569 0.143,-0.637C0.204,-0.706 0.286,-0.741 0.389,-0.741C0.491,-0.741 0.573,-0.706 0.634,-0.638C0.696,-0.569 0.727,-0.477 0.727,-0.363C0.727,-0.246 0.696,-0.153 0.634,-0.085C0.573,-0.016 0.489,0.018 0.384,0.018ZM0.386,-0.059C0.46,-0.059 0.517,-0.085 0.557,-0.138C0.597,-0.192 0.618,-0.267 0.618,-0.364C0.618,-0.458 0.597,-0.531 0.557,-0.584C0.516,-0.638 0.46,-0.664 0.389,-0.664C0.317,-0.664 0.261,-0.637 0.22,-0.584C0.18,-0.531 0.16,-0.457 0.16,-0.362C0.16,-0.268 0.18,-0.194 0.22,-0.14C0.26,-0.086 0.315,-0.059 0.386,-0.059Z" style="fill:white;fill-rule:nonzero;"/>
                </g>
                <g transform="matrix(11.9552,0,0,11.9552,9.28746,0)">
                    <path d="M0.114,-0L0.114,-0.458L0.039,-0.458L0.039,-0.53L0.114,-0.53L0.114,-0.594C0.114,-0.72 0.172,-0.783 0.287,-0.783C0.319,-0.783 0.356,-0.778 0.397,-0.767L0.397,-0.691C0.354,-0.704 0.319,-0.711 0.293,-0.711C0.261,-0.711 0.24,-0.703 0.228,-0.688C0.217,-0.673 0.211,-0.645 0.211,-0.604L0.211,-0.53L0.452,-0.53L0.452,-0.594C0.452,-0.72 0.509,-0.783 0.625,-0.783C0.657,-0.783 0.693,-0.778 0.734,-0.767L0.734,-0.691C0.691,-0.704 0.656,-0.711 0.63,-0.711C0.599,-0.711 0.577,-0.703 0.565,-0.688C0.554,-0.673 0.548,-0.645 0.548,-0.604L0.548,-0.53L0.681,-0.53L0.681,-0.458L0.548,-0.458L0.548,-0L0.452,-0L0.452,-0.458L0.211,-0.458L0.211,-0L0.114,-0ZM0.343,-0.53" style="fill:white;fill-rule:nonzero;"/>
                </g>
                <g transform="matrix(11.9552,0,0,11.9552,17.711,0)">
                    <rect x="0.072" y="-0.325" width="0.434" height="0.072" style="fill:white;fill-rule:nonzero;"/>
                </g>
                <g transform="matrix(11.9552,0,0,11.9552,24.6284,0)">
                    <path d="M0.127,0.193L0.213,-0L0.008,-0.53L0.112,-0.53L0.264,-0.131L0.426,-0.53L0.517,-0.53L0.227,0.193L0.127,0.193Z" style="fill:white;fill-rule:nonzero;"/>
                </g>
                <g transform="matrix(11.9552,0,0,11.9552,30.8745,0)">
                    <path d="M0.289,0.078L0.289,0.145C0.219,0.097 0.163,0.032 0.122,-0.051C0.081,-0.133 0.06,-0.22 0.06,-0.313C0.06,-0.406 0.081,-0.494 0.122,-0.576C0.163,-0.658 0.219,-0.723 0.289,-0.771L0.289,-0.705C0.241,-0.653 0.207,-0.597 0.187,-0.537C0.166,-0.477 0.156,-0.402 0.156,-0.313C0.156,-0.224 0.166,-0.15 0.187,-0.09C0.207,-0.03 0.241,0.026 0.289,0.078Z" style="fill:white;fill-rule:nonzero;"/>
                </g>
                <g transform="matrix(11.9552,0,0,11.9552,34.7623,0)">
                    <path d="M0.636,-0.02C0.549,0.006 0.472,0.018 0.407,0.018C0.292,0.018 0.204,-0.015 0.143,-0.08C0.081,-0.146 0.051,-0.239 0.051,-0.361C0.051,-0.481 0.082,-0.574 0.144,-0.641C0.206,-0.707 0.293,-0.741 0.406,-0.741C0.479,-0.741 0.556,-0.73 0.635,-0.708L0.635,-0.613C0.536,-0.647 0.459,-0.664 0.406,-0.664C0.328,-0.664 0.267,-0.638 0.224,-0.584C0.181,-0.531 0.16,-0.457 0.16,-0.36C0.16,-0.265 0.183,-0.191 0.229,-0.138C0.275,-0.085 0.34,-0.059 0.423,-0.059C0.458,-0.059 0.494,-0.065 0.534,-0.077L0.534,-0.312L0.636,-0.312L0.636,-0.02Z" style="fill:white;fill-rule:nonzero;"/>
                </g>
                <g transform="matrix(11.9552,0,0,11.9552,43.4018,0)">
                    <path d="M0.384,0.018C0.284,0.018 0.203,-0.017 0.142,-0.086C0.081,-0.156 0.051,-0.248 0.051,-0.362C0.051,-0.477 0.081,-0.569 0.143,-0.637C0.204,-0.706 0.286,-0.741 0.389,-0.741C0.491,-0.741 0.573,-0.706 0.634,-0.638C0.696,-0.569 0.727,-0.477 0.727,-0.363C0.727,-0.246 0.696,-0.153 0.634,-0.085C0.573,-0.016 0.489,0.018 0.384,0.018ZM0.386,-0.059C0.46,-0.059 0.517,-0.085 0.557,-0.138C0.597,-0.192 0.618,-0.267 0.618,-0.364C0.618,-0.458 0.597,-0.531 0.557,-0.584C0.516,-0.638 0.46,-0.664 0.389,-0.664C0.317,-0.664 0.261,-0.637 0.22,-0.584C0.18,-0.531 0.16,-0.457 0.16,-0.362C0.16,-0.268 0.18,-0.194 0.22,-0.14C0.26,-0.086 0.315,-0.059 0.386,-0.059Z" style="fill:white;fill-rule:nonzero;"/>
                </g>
                <g transform="matrix(11.9552,0,0,11.9552,52.6893,0)">
                    <path d="M0.093,-0L0.093,-0.723L0.196,-0.723L0.196,-0.418L0.54,-0.418L0.54,-0.723L0.642,-0.723L0.642,-0L0.54,-0L0.54,-0.341L0.196,-0.341L0.196,-0L0.093,-0Z" style="fill:white;fill-rule:nonzero;"/>
                </g>
                <g transform="matrix(11.9552,0,0,11.9552,61.4747,0)">
                    <path d="M0.036,0.078L0.036,0.145C0.106,0.097 0.162,0.032 0.203,-0.051C0.245,-0.133 0.265,-0.22 0.265,-0.313C0.265,-0.406 0.245,-0.494 0.203,-0.576C0.162,-0.658 0.106,-0.723 0.036,-0.771L0.036,-0.705C0.084,-0.653 0.118,-0.597 0.138,-0.537C0.159,-0.477 0.169,-0.402 0.169,-0.313C0.169,-0.224 0.159,-0.15 0.138,-0.09C0.118,-0.03 0.084,0.026 0.036,0.078Z" style="fill:white;fill-rule:nonzero;"/>
                </g>
            </g>
        </g>
    </g>
    <g id="sgm_yy-GOH" serif:id="sgm_yy GOH">
        <g>
            <g transform="matrix(1.96367,0,0,-1.76418,242.65,151.877)">
                <path d="M4.624,1.348L5.297,1.365C5.297,1.365 6.12,1.389 6.12,1.389C6.12,1.389 6.943,1.416 6.943,1.416C6.943,1.416 7.231,1.426 7.466,1.435L7.453,1.856L6.931,1.837C6.931,1.837 6.109,1.81 6.109,1.81C6.109,1.81 5.288,1.787 5.288,1.787C5.288,1.787 4.615,1.77 4.615,1.77L4.624,1.348Z" style="fill:white;"/>
            </g>
            <g transform="matrix(1.96367,0,0,-1.76418,242.65,151.877)">
                <path d="M10.307,1.561L10.833,1.589C10.834,1.589 11.656,1.637 11.656,1.637C11.657,1.637 12.48,1.689 12.48,1.689C12.48,1.689 12.908,1.718 13.147,1.735L13.123,2.155L12.457,2.11C12.457,2.11 11.636,2.058 11.636,2.058C11.636,2.058 10.814,2.01 10.814,2.01C10.814,2.01 10.289,1.982 10.289,1.982L10.307,1.561Z" style="fill:white;"/>
            </g>
            <g transform="matrix(1.96367,0,0,-1.76418,242.65,151.877)">
                <path d="M16.414,2.425L15.953,2.384L15.984,1.963L16.531,2.013L17.307,2.09C17.308,2.09 18.131,2.179 18.131,2.179C18.131,2.179 18.605,2.231 18.816,2.254L18.779,2.674L18.094,2.598C18.094,2.598 17.272,2.51 17.272,2.51L16.414,2.425Z" style="fill:white;"/>
            </g>
            <g transform="matrix(1.96367,0,0,-1.76418,242.65,151.877)">
                <path d="M16.531,2.013L16.447,2.005L16.531,2.013Z" style="fill:white;"/>
            </g>
            <g transform="matrix(1.96367,0,0,-1.76418,242.65,151.877)">
                <path d="M21.644,2.627L22.249,2.717C22.25,2.718 23.111,2.855 23.111,2.855C23.111,2.855 23.898,2.988 23.898,2.988C23.899,2.988 24.252,3.054 24.46,3.094L24.397,3.509L23.838,3.404C23.838,3.404 23.055,3.272 23.055,3.272C23.055,3.272 22.197,3.135 22.197,3.135C22.197,3.135 21.594,3.045 21.594,3.045L21.644,2.627Z" style="fill:white;"/>
            </g>
            <g transform="matrix(1.96367,0,0,-1.76418,242.65,151.877)">
                <path d="M29.575,4.712L28.869,4.508C28.869,4.508 28.05,4.299 28.05,4.299L27.184,4.089L27.2,4.003L27.232,3.674L27.204,3.977L27.259,3.675L27.495,3.733L27.272,3.678L28.133,3.888C28.134,3.888 28.958,4.099 28.958,4.099C28.961,4.099 29.671,4.304 29.671,4.304L29.67,4.304L30.034,4.412L29.936,4.819L29.575,4.712Z" style="fill:white;"/>
            </g>
            <g transform="matrix(1.96367,0,0,-1.76418,242.65,151.877)">
                <path d="M32.765,5.332L33.274,5.525C33.276,5.526 34.14,5.874 34.14,5.874C34.143,5.876 34.892,6.219 34.892,6.219C34.894,6.22 35.179,6.357 35.427,6.477L35.277,6.864L34.745,6.608C34.745,6.608 34.003,6.267 34.003,6.267C34.003,6.267 33.149,5.923 33.149,5.923C33.149,5.923 32.642,5.731 32.642,5.731L32.765,5.332Z" style="fill:white;"/>
            </g>
            <g transform="matrix(1.96367,0,0,-1.76418,242.65,151.877)">
                <path d="M40.197,9.451L40.397,9.616L40.171,9.954L39.978,9.795C39.978,9.795 39.237,9.217 39.237,9.217C39.237,9.217 38.385,8.638 38.385,8.638C38.385,8.638 37.799,8.264 37.799,8.264L37.987,7.898L38.578,8.275C38.58,8.277 39.445,8.864 39.445,8.864L40.197,9.451L40.197,9.451Z" style="fill:white;"/>
            </g>
            <g transform="matrix(1.96367,0,0,-1.76418,242.65,151.877)">
                <path d="M42.723,12.318L42.352,11.945L42.606,11.632L42.981,12.01C42.981,12.01 43.558,12.664 43.558,12.664L42.99,12.019L43.926,13.082C43.928,13.084 44.339,13.583 44.605,13.905L44.326,14.19L43.651,13.372L42.723,12.318Z" style="fill:white;"/>
            </g>
            <g transform="matrix(1.96367,0,0,-1.76418,242.65,151.877)">
                <path d="M46.212,16.91L46.053,16.67L46.358,16.42C46.445,16.552 46.518,16.663 46.518,16.663C46.518,16.663 47.254,17.92 47.254,17.92L46.526,16.675L47.501,18.343L47.896,19.105L47.568,19.316L47.178,18.563L46.212,16.91Z" style="fill:white;"/>
            </g>
            <g transform="matrix(1.96367,0,0,-1.76418,242.65,151.877)">
                <path d="M50.006,24.665L49.075,22.438C49.075,22.438 49.001,22.278 48.913,22.089L49.25,21.895C49.338,22.085 49.412,22.245 49.412,22.245L49.246,22.135L49.417,22.257L50.352,24.493L50.454,24.782L50.102,24.937L50.006,24.665Z" style="fill:white;"/>
            </g>
            <g transform="matrix(1.96367,0,0,-1.76418,242.65,151.877)">
                <path d="M51.47,27.741L52.078,29.611C52.079,29.614 52.225,30.118 52.404,30.735L52.044,30.865L51.72,29.747C51.72,29.747 51.114,27.885 51.114,27.885L51.47,27.741Z" style="fill:white;"/>
            </g>
            <g transform="matrix(1.96367,0,0,-1.76418,242.65,151.877)">
                <path d="M53.25,33.763C53.505,34.784 53.927,36.476 54.011,36.81L53.646,36.923C53.562,36.589 53.14,34.897 52.885,33.876L53.25,33.763Z" style="fill:white;"/>
            </g>
            <g transform="matrix(1.96367,0,0,-1.76418,242.65,151.877)">
                <path d="M54.68,39.89L54.962,41.188C54.962,41.19 55.123,42.007 55.313,42.978L54.943,43.068L54.593,41.282C54.593,41.282 54.312,39.989 54.312,39.989L54.68,39.89Z" style="fill:white;"/>
            </g>
            <g transform="matrix(1.96367,0,0,-1.76418,242.65,151.877)">
                <path d="M55.631,46.137L55.867,46.08L55.749,45.975L55.631,46.137L55.549,46.157C55.558,46.2 55.564,46.23 55.564,46.23L55.631,46.137Z" style="fill:white;"/>
            </g>
            <g transform="matrix(1.96367,0,0,-1.76418,242.65,151.877)">
                <path d="M55.867,46.08L55.934,46.14C55.934,46.14 55.928,46.11 55.919,46.067L55.867,46.08Z" style="fill:white;"/>
            </g>
        </g>
        <g>
            <g transform="matrix(1.96367,0,0,-1.76418,242.65,151.877)">
                <path d="M4.624,1.348L5.373,1.371C5.373,1.371 5.747,1.385 5.747,1.385C5.748,1.385 6.159,1.402 6.159,1.402L6.946,1.439C6.947,1.439 7.283,1.459 7.283,1.459L7.273,1.459C7.273,1.459 7.368,1.464 7.469,1.47L7.448,1.891C7.362,1.886 7.265,1.88 7.265,1.88C7.265,1.88 7.273,1.459 7.273,1.459L7.263,1.88L6.928,1.86L6.145,1.823C6.145,1.823 5.734,1.806 5.734,1.806C5.734,1.806 5.361,1.792 5.361,1.792L4.615,1.77L4.624,1.348Z" style="fill:rgb(187,55,84);"/>
            </g>
            <g transform="matrix(1.96367,0,0,-1.76418,242.65,151.877)">
                <path d="M10.31,1.709L10.645,1.747L10.47,1.726L10.882,1.774L11.669,1.873L12.42,1.985C12.42,1.985 12.869,2.056 12.869,2.056L12.842,2.054C12.842,2.054 13.007,2.08 13.138,2.102L13.082,2.518C12.975,2.5 12.818,2.474 12.818,2.474C12.818,2.474 12.842,2.054 12.842,2.054L12.816,2.474L12.368,2.403L11.623,2.291L10.841,2.193C10.841,2.193 10.431,2.146 10.431,2.146L10.45,1.725C10.45,1.725 10.429,2.146 10.429,2.146C10.429,2.146 10.349,2.137 10.273,2.129L10.31,1.709Z" style="fill:rgb(187,55,84);"/>
            </g>
            <g transform="matrix(1.96367,0,0,-1.76418,242.65,151.877)">
                <path d="M18.463,3.944L17.607,3.637C17.607,3.637 17.2,3.5 17.2,3.5C17.2,3.5 16.753,3.365 16.753,3.365C16.752,3.365 16.42,3.26 16.42,3.26C16.42,3.26 16.05,3.162 16.05,3.162L16.094,2.746L16.049,3.162C16.049,3.162 15.948,3.136 15.857,3.113L15.941,2.702C16.033,2.725 16.133,2.751 16.133,2.751L16.515,2.851L16.855,2.959C16.855,2.959 17.305,3.095 17.305,3.095C17.307,3.096 17.72,3.235 17.72,3.235L18.581,3.544L18.523,3.533C18.523,3.533 18.597,3.55 18.69,3.586L18.565,3.984L18.463,3.944Z" style="fill:rgb(187,55,84);"/>
            </g>
            <g transform="matrix(1.96367,0,0,-1.76418,242.65,151.877)">
                <path d="M16.515,2.851L16.137,2.752L16.786,2.923L16.515,2.851Z" style="fill:rgb(187,55,84);"/>
            </g>
            <g transform="matrix(1.96367,0,0,-1.76418,242.65,151.877)">
                <path d="M21.27,5.323L21.139,5.25L21.308,4.873C21.377,4.911 21.446,4.949 21.446,4.949C21.446,4.949 21.612,5.065 21.612,5.065L21.465,4.961L21.8,5.198C21.8,5.198 22.249,5.503 22.249,5.503C22.251,5.504 22.705,5.83 22.705,5.83L23.123,6.177L23.576,6.565C23.585,6.573 23.631,6.614 23.69,6.667L23.455,6.997L23.34,6.896C23.34,6.896 22.894,6.512 22.894,6.512C22.894,6.512 22.489,6.176 22.489,6.176C22.489,6.176 22.048,5.86 22.048,5.86C22.048,5.86 21.6,5.556 21.6,5.556L21.27,5.323Z" style="fill:rgb(187,55,84);"/>
            </g>
            <g transform="matrix(1.96367,0,0,-1.76418,242.65,151.877)">
                <path d="M25.696,8.968L26.111,9.565C26.112,9.566 26.529,10.177 26.529,10.177L26.871,10.819C26.871,10.819 27.294,11.606 27.294,11.606L26.969,11.823L26.546,11.034C26.545,11.034 26.215,10.413 26.215,10.413C26.215,10.413 25.811,9.822 25.811,9.822C25.811,9.822 25.396,9.226 25.396,9.226L25.696,8.968Z" style="fill:rgb(187,55,84);"/>
            </g>
            <g transform="matrix(1.96367,0,0,-1.76418,242.65,151.877)">
                <path d="M28.328,14.914L28.216,14.633L28.563,14.463C28.621,14.61 28.674,14.744 28.674,14.744C28.674,14.744 28.502,14.622 28.502,14.622L28.677,14.751L29.088,15.843L28.739,16.006L28.328,14.914Z" style="fill:rgb(187,55,84);"/>
            </g>
        </g>
    </g>
    <g id="sgm_xx-GOH" serif:id="sgm_xx GOH">
        <g>
            <g transform="matrix(1.96774,0,0,-1.77149,67.9738,152.052)">
                <path d="M4.621,1.571L5.294,1.577C5.294,1.577 6.117,1.586 6.117,1.586C6.117,1.586 6.94,1.598 6.94,1.598C6.94,1.598 7.231,1.603 7.466,1.608L7.46,2.029L6.934,2.019C6.934,2.019 6.112,2.007 6.112,2.007C6.112,2.007 5.291,1.998 5.291,1.998C5.291,1.998 4.618,1.992 4.618,1.992L4.621,1.571Z" style="fill:white;"/>
            </g>
            <g transform="matrix(1.96774,0,0,-1.77149,67.9738,152.052)">
                <path d="M10.312,1.685L10.831,1.704C10.831,1.704 11.654,1.738 11.654,1.738C11.654,1.738 12.477,1.777 12.477,1.777C12.477,1.777 12.921,1.801 13.156,1.814L13.138,2.234L12.46,2.198C12.46,2.198 11.638,2.159 11.638,2.159C11.638,2.159 10.817,2.125 10.817,2.125C10.817,2.125 10.3,2.106 10.3,2.106L10.312,1.685Z" style="fill:white;"/>
            </g>
            <g transform="matrix(1.96774,0,0,-1.77149,67.9738,152.052)">
                <path d="M16.416,2.456L15.973,2.422L15.999,2.002L16.494,2.04L17.305,2.11C17.306,2.11 18.128,2.19 18.128,2.19C18.128,2.19 18.836,2.258 18.836,2.258L18.804,2.677L18.096,2.61C18.095,2.61 17.274,2.529 17.274,2.529L16.416,2.456Z" style="fill:white;"/>
            </g>
            <g transform="matrix(1.96774,0,0,-1.77149,67.9738,152.052)">
                <path d="M21.67,2.604L22.248,2.685C22.249,2.685 23.109,2.815 23.109,2.815C23.11,2.815 23.897,2.939 23.897,2.939C23.899,2.94 24.292,3.013 24.493,3.05L24.43,3.466L23.839,3.356C23.839,3.356 23.057,3.232 23.057,3.232C23.057,3.232 22.199,3.102 22.199,3.102C22.199,3.102 21.623,3.022 21.623,3.022L21.67,2.604Z" style="fill:white;"/>
            </g>
            <g transform="matrix(1.96774,0,0,-1.77149,67.9738,152.052)">
                <path d="M29.575,4.636L28.869,4.429C28.869,4.429 28.051,4.228 28.051,4.228C28.051,4.228 27.219,4.029 27.219,4.029L27.299,3.617L28.132,3.816C28.132,3.816 28.958,4.02 28.958,4.02C28.962,4.021 29.672,4.229 29.672,4.229L29.671,4.229L30.074,4.347L29.977,4.754L29.575,4.636Z" style="fill:white;"/>
            </g>
            <g transform="matrix(1.96774,0,0,-1.77149,67.9738,152.052)">
                <path d="M33.149,5.841L32.685,5.666L32.808,5.267L33.273,5.443L34.14,5.785L34.893,6.138C34.894,6.139 35.213,6.293 35.471,6.417L35.32,6.804L34.744,6.526C34.744,6.526 34.003,6.178 34.003,6.178L33.149,5.841Z" style="fill:white;"/>
            </g>
            <g transform="matrix(1.96774,0,0,-1.77149,67.9738,152.052)">
                <path d="M40.199,9.399L40.426,9.589L40.198,9.925L39.977,9.741C39.977,9.741 39.236,9.145 39.236,9.145C39.236,9.145 38.385,8.572 38.385,8.572C38.385,8.572 37.836,8.217 37.836,8.217L38.027,7.853L38.578,8.21C38.58,8.211 39.446,8.794 39.446,8.794L40.2,9.4L40.199,9.399Z" style="fill:white;"/>
            </g>
            <g transform="matrix(1.96774,0,0,-1.77149,67.9738,152.052)">
                <path d="M42.722,12.295L42.367,11.934L42.623,11.623L42.982,11.988L43.927,13.08C43.928,13.081 44.345,13.585 44.61,13.906L44.331,14.191L43.651,13.368L42.722,12.295Z" style="fill:white;"/>
            </g>
            <g transform="matrix(1.96774,0,0,-1.77149,67.9738,152.052)">
                <path d="M46.211,16.955L46.036,16.686L46.342,16.439C46.437,16.584 46.519,16.709 46.519,16.709C46.519,16.709 47.233,17.952 47.233,17.952L46.527,16.723L47.502,18.419L47.865,19.133L47.535,19.34L47.177,18.636L46.211,16.955Z" style="fill:white;"/>
            </g>
            <g transform="matrix(1.96774,0,0,-1.77149,67.9738,152.052)">
                <path d="M50.005,24.818L49.075,22.575L48.867,22.119L49.205,21.929L49.415,22.388C49.415,22.388 49.246,22.272 49.246,22.272L49.418,22.395L50.352,24.649L50.409,24.814L50.055,24.964L50.005,24.818Z" style="fill:white;"/>
            </g>
            <g transform="matrix(1.96774,0,0,-1.77149,67.9738,152.052)">
                <path d="M51.403,27.778L52.079,29.896C52.08,29.899 52.187,30.273 52.329,30.772L51.968,30.899L51.719,30.03C51.719,30.03 51.046,27.919 51.046,27.919L51.403,27.778Z" style="fill:white;"/>
            </g>
            <g transform="matrix(1.96774,0,0,-1.77149,67.9738,152.052)">
                <path d="M53.173,33.797C53.364,34.578 53.737,36.099 53.919,36.845L53.553,36.956C53.371,36.209 52.998,34.689 52.807,33.908L53.173,33.797Z" style="fill:white;"/>
            </g>
            <g transform="matrix(1.96774,0,0,-1.77149,67.9738,152.052)">
                <path d="M54.586,39.923L54.962,41.702C54.962,41.704 55.071,42.263 55.216,43.007L54.845,43.096L54.592,41.794C54.592,41.794 54.216,40.02 54.216,40.02L54.586,39.923Z" style="fill:white;"/>
            </g>
            <g transform="matrix(1.96774,0,0,-1.77149,67.9738,152.052)">
                <path d="M55.816,46.095L55.934,46.703C55.934,46.703 55.749,46.537 55.749,46.537C55.749,46.537 55.564,46.792 55.564,46.792L55.445,46.184L55.816,46.095Z" style="fill:white;"/>
            </g>
        </g>
        <g>
            <g transform="matrix(1.96774,0,0,-1.77149,67.9738,152.052)">
                <path d="M4.623,1.571L5.371,1.586C5.372,1.586 5.746,1.597 5.746,1.597C5.746,1.597 6.158,1.611 6.158,1.611L6.946,1.643C6.947,1.643 7.283,1.663 7.283,1.663L7.273,1.663C7.273,1.663 7.37,1.669 7.472,1.675L7.451,2.096C7.364,2.09 7.265,2.084 7.265,2.084C7.265,2.084 7.273,1.663 7.273,1.663L7.263,2.084L6.928,2.064L6.146,2.031C6.146,2.031 5.736,2.018 5.736,2.018C5.736,2.018 5.363,2.007 5.363,2.007L4.616,1.992L4.623,1.571Z" style="fill:rgb(187,55,84);"/>
            </g>
            <g transform="matrix(1.96774,0,0,-1.77149,67.9738,152.052)">
                <path d="M10.317,1.96L10.646,2.009L10.476,1.983L10.889,2.046L11.679,2.183L12.432,2.349C12.433,2.349 12.881,2.454 12.881,2.454L12.842,2.45C12.842,2.45 12.999,2.484 13.133,2.518L13.049,2.929C12.945,2.902 12.804,2.866 12.804,2.866C12.804,2.866 12.842,2.45 12.842,2.45L12.803,2.866L12.356,2.761L11.613,2.598L10.833,2.463C10.833,2.463 10.424,2.4 10.424,2.4L10.45,1.981C10.45,1.981 10.424,2.4 10.424,2.4C10.424,2.4 10.345,2.388 10.269,2.377L10.317,1.96Z" style="fill:rgb(187,55,84);"/>
            </g>
            <g transform="matrix(1.96774,0,0,-1.77149,67.9738,152.052)">
                <path d="M16.025,3.965L15.74,3.845L15.875,3.451L16.161,3.572L16.544,3.74L16.886,3.927C16.886,3.927 17.337,4.159 17.337,4.159L17.755,4.405L18.172,4.668C18.199,4.685 18.338,4.772 18.454,4.844L18.268,5.211L17.982,5.032C17.982,5.032 18.075,4.638 18.075,4.638L17.981,5.032L17.572,4.774C17.572,4.774 17.168,4.537 17.168,4.537C17.168,4.537 16.722,4.307 16.722,4.307C16.72,4.306 16.391,4.125 16.391,4.125L16.025,3.965Z" style="fill:rgb(187,55,84);"/>
            </g>
            <g transform="matrix(1.96774,0,0,-1.77149,67.9738,152.052)">
                <path d="M16.544,3.74L16.163,3.573L17.134,3.997L16.544,3.74Z" style="fill:rgb(187,55,84);"/>
            </g>
            <g transform="matrix(1.96774,0,0,-1.77149,67.9738,152.052)">
                <path d="M20.77,6.758L21.082,7.094C21.082,7.094 21.501,7.513 21.501,7.513L21.844,7.975C21.844,7.975 22.293,8.542 22.293,8.542C22.294,8.545 22.599,8.952 22.706,9.095L22.414,9.364L22.004,8.816C22.004,8.816 21.556,8.249 21.556,8.249C21.554,8.246 21.226,7.806 21.226,7.806C21.226,7.806 20.823,7.402 20.823,7.402C20.821,7.399 20.627,7.192 20.506,7.061L20.77,6.758Z" style="fill:rgb(187,55,84);"/>
            </g>
            <g transform="matrix(1.96774,0,0,-1.77149,67.9738,152.052)">
                <path d="M24.279,11.777L24.372,11.981C24.372,11.981 24.822,12.913 24.822,12.913C24.824,12.917 25.274,13.968 25.274,13.968C25.276,13.972 25.41,14.327 25.525,14.631L25.176,14.794L24.928,14.14C24.928,14.14 24.483,13.103 24.483,13.103C24.483,13.103 24.037,12.179 24.037,12.179L24.204,11.868C24.204,11.868 24.034,12.172 24.034,12.172C24.034,12.172 23.989,12.073 23.941,11.968L24.279,11.777Z" style="fill:rgb(187,55,84);"/>
            </g>
            <g transform="matrix(1.96774,0,0,-1.77149,67.9738,152.052)">
                <path d="M26.975,20.539L26.527,18.89C26.527,18.89 26.287,17.991 26.212,17.711L26.576,17.591L26.89,18.769L27.34,20.428C27.344,20.441 27.361,20.514 27.388,20.623L27.022,20.733L26.975,20.539Z" style="fill:rgb(187,55,84);"/>
            </g>
            <g transform="matrix(1.96774,0,0,-1.77149,67.9738,152.052)">
                <path d="M27.869,24.393L27.735,23.785L28.103,23.685L28.238,24.295C28.238,24.295 28.054,24.135 28.054,24.135L28.239,24.3L28.688,26.569C28.691,26.583 28.705,26.659 28.727,26.774L28.356,26.861C28.334,26.745 28.317,26.655 28.317,26.655C28.317,26.655 28.502,26.399 28.502,26.399L28.317,26.655L27.869,24.393Z" style="fill:rgb(187,55,84);"/>
            </g>
        </g>
    </g>
    <g id="Anchors">
        <g transform="matrix(0.124477,0,0,0.124477,338.764,-0.673978)">
            <circle cx="382.91" cy="9.431" r="4.017" style="stroke:black;stroke-width:8.03px;"/>
        </g>
        <g transform="matrix(0.114771,0,0,0.114771,0,205.756)">
            <circle cx="4.357" cy="381.145" r="4.357" style="stroke:black;stroke-width:8.71px;"/>
        </g>
    </g>
</svg>
