<?xml version="1.0" encoding="UTF-8" standalone="no"?>
<!DOCTYPE svg PUBLIC "-//W3C//DTD SVG 1.1//EN" "http://www.w3.org/Graphics/SVG/1.1/DTD/svg11.dtd">
<svg width="100%" height="100%" viewBox="0 0 387 250" version="1.1" xmlns="http://www.w3.org/2000/svg" xmlns:xlink="http://www.w3.org/1999/xlink" xml:space="preserve" xmlns:serif="http://www.serif.com/" style="fill-rule:evenodd;clip-rule:evenodd;stroke-miterlimit:10;">
    <g id="Legend-NN" serif:id="Legend NN" transform="matrix(1,0,0,1,92,0)">
        <g transform="matrix(1,0,0,-1,144.013,207.039)">
            <path d="M0,0L17.008,0" style="fill:white;fill-rule:nonzero;stroke:white;stroke-width:0.8px;"/>
        </g>
        <g transform="matrix(1,0,0,1,166.247,210.644)">
            <g>
                <g transform="matrix(11.9552,0,0,11.9552,0,0)">
                    <path d="M0.384,0.018C0.284,0.018 0.203,-0.017 0.142,-0.086C0.081,-0.156 0.051,-0.248 0.051,-0.362C0.051,-0.477 0.081,-0.569 0.143,-0.637C0.204,-0.706 0.286,-0.741 0.389,-0.741C0.491,-0.741 0.573,-0.706 0.634,-0.638C0.696,-0.569 0.727,-0.477 0.727,-0.363C0.727,-0.246 0.696,-0.153 0.634,-0.085C0.573,-0.016 0.489,0.018 0.384,0.018ZM0.386,-0.059C0.46,-0.059 0.517,-0.085 0.557,-0.138C0.597,-0.192 0.618,-0.267 0.618,-0.364C0.618,-0.458 0.597,-0.531 0.557,-0.584C0.516,-0.638 0.46,-0.664 0.389,-0.664C0.317,-0.664 0.261,-0.637 0.22,-0.584C0.18,-0.531 0.16,-0.457 0.16,-0.362C0.16,-0.268 0.18,-0.194 0.22,-0.14C0.26,-0.086 0.315,-0.059 0.386,-0.059Z" style="fill:white;fill-rule:nonzero;"/>
                </g>
                <g transform="matrix(11.9552,0,0,11.9552,9.28746,0)">
                    <path d="M0.114,-0L0.114,-0.458L0.039,-0.458L0.039,-0.53L0.114,-0.53L0.114,-0.594C0.114,-0.72 0.172,-0.783 0.287,-0.783C0.319,-0.783 0.356,-0.778 0.397,-0.767L0.397,-0.691C0.354,-0.704 0.319,-0.711 0.293,-0.711C0.261,-0.711 0.24,-0.703 0.228,-0.688C0.217,-0.673 0.211,-0.645 0.211,-0.604L0.211,-0.53L0.452,-0.53L0.452,-0.594C0.452,-0.72 0.509,-0.783 0.625,-0.783C0.657,-0.783 0.693,-0.778 0.734,-0.767L0.734,-0.691C0.691,-0.704 0.656,-0.711 0.63,-0.711C0.599,-0.711 0.577,-0.703 0.565,-0.688C0.554,-0.673 0.548,-0.645 0.548,-0.604L0.548,-0.53L0.681,-0.53L0.681,-0.458L0.548,-0.458L0.548,-0L0.452,-0L0.452,-0.458L0.211,-0.458L0.211,-0L0.114,-0ZM0.343,-0.53" style="fill:white;fill-rule:nonzero;"/>
                </g>
                <g transform="matrix(11.9552,0,0,11.9552,17.711,0)">
                    <rect x="0.072" y="-0.325" width="0.434" height="0.072" style="fill:white;fill-rule:nonzero;"/>
                </g>
                <g transform="matrix(11.9552,0,0,11.9552,24.6284,0)">
                    <path d="M0.043,-0L0.245,-0.274L0.049,-0.53L0.163,-0.53L0.318,-0.326L0.458,-0.53L0.552,-0.53L0.368,-0.261L0.568,-0L0.454,-0L0.294,-0.21L0.14,-0L0.043,-0Z" style="fill:white;fill-rule:nonzero;"/>
                </g>
                <g transform="matrix(11.9552,0,0,11.9552,31.9603,0)">
                    <path d="M0.289,0.078L0.289,0.145C0.219,0.097 0.163,0.032 0.122,-0.051C0.081,-0.133 0.06,-0.22 0.06,-0.313C0.06,-0.406 0.081,-0.494 0.122,-0.576C0.163,-0.658 0.219,-0.723 0.289,-0.771L0.289,-0.705C0.241,-0.653 0.207,-0.597 0.187,-0.537C0.166,-0.477 0.156,-0.402 0.156,-0.313C0.156,-0.224 0.166,-0.15 0.187,-0.09C0.207,-0.03 0.241,0.026 0.289,0.078Z" style="fill:white;fill-rule:nonzero;"/>
                </g>
                <g transform="matrix(11.9552,0,0,11.9552,35.8481,0)">
                    <path d="M0.093,-0L0.093,-0.723L0.333,-0.723C0.405,-0.723 0.463,-0.715 0.507,-0.699C0.551,-0.683 0.589,-0.656 0.622,-0.618C0.673,-0.557 0.698,-0.477 0.698,-0.378C0.698,-0.258 0.667,-0.165 0.603,-0.099C0.54,-0.033 0.45,-0 0.335,-0L0.093,-0ZM0.196,-0.077L0.327,-0.077C0.421,-0.077 0.487,-0.102 0.526,-0.152C0.568,-0.206 0.589,-0.278 0.589,-0.369C0.589,-0.454 0.569,-0.52 0.527,-0.569C0.502,-0.598 0.472,-0.619 0.438,-0.63C0.403,-0.641 0.35,-0.646 0.28,-0.646L0.196,-0.646L0.196,-0.077Z" style="fill:white;fill-rule:nonzero;"/>
                </g>
                <g transform="matrix(11.9552,0,0,11.9552,44.8028,0)">
                    <path d="M0.093,-0L0.093,-0.723L0.194,-0.723L0.558,-0.165L0.558,-0.723L0.646,-0.723L0.646,-0L0.545,-0L0.181,-0.558L0.181,-0L0.093,-0Z" style="fill:white;fill-rule:nonzero;"/>
                </g>
                <g transform="matrix(11.9552,0,0,11.9552,53.635,0)">
                    <path d="M0.093,-0L0.093,-0.723L0.194,-0.723L0.558,-0.165L0.558,-0.723L0.646,-0.723L0.646,-0L0.545,-0L0.181,-0.558L0.181,-0L0.093,-0Z" style="fill:white;fill-rule:nonzero;"/>
                </g>
                <g transform="matrix(11.9552,0,0,11.9552,62.4671,0)">
                    <path d="M0.036,0.078L0.036,0.145C0.106,0.097 0.162,0.032 0.203,-0.051C0.245,-0.133 0.265,-0.22 0.265,-0.313C0.265,-0.406 0.245,-0.494 0.203,-0.576C0.162,-0.658 0.106,-0.723 0.036,-0.771L0.036,-0.705C0.084,-0.653 0.118,-0.597 0.138,-0.537C0.159,-0.477 0.169,-0.402 0.169,-0.313C0.169,-0.224 0.159,-0.15 0.138,-0.09C0.118,-0.03 0.084,0.026 0.036,0.078Z" style="fill:white;fill-rule:nonzero;"/>
                </g>
            </g>
        </g>
        <g transform="matrix(1,0,0,-1,144.013,221.746)">
            <path d="M0,0L17.008,0" style="fill:none;fill-rule:nonzero;stroke:rgb(187,55,84);stroke-width:0.8px;"/>
        </g>
        <g transform="matrix(1,0,0,1,166.247,225.351)">
            <g>
                <g transform="matrix(11.9552,0,0,11.9552,0,0)">
                    <path d="M0.384,0.018C0.284,0.018 0.203,-0.017 0.142,-0.086C0.081,-0.156 0.051,-0.248 0.051,-0.362C0.051,-0.477 0.081,-0.569 0.143,-0.637C0.204,-0.706 0.286,-0.741 0.389,-0.741C0.491,-0.741 0.573,-0.706 0.634,-0.638C0.696,-0.569 0.727,-0.477 0.727,-0.363C0.727,-0.246 0.696,-0.153 0.634,-0.085C0.573,-0.016 0.489,0.018 0.384,0.018ZM0.386,-0.059C0.46,-0.059 0.517,-0.085 0.557,-0.138C0.597,-0.192 0.618,-0.267 0.618,-0.364C0.618,-0.458 0.597,-0.531 0.557,-0.584C0.516,-0.638 0.46,-0.664 0.389,-0.664C0.317,-0.664 0.261,-0.637 0.22,-0.584C0.18,-0.531 0.16,-0.457 0.16,-0.362C0.16,-0.268 0.18,-0.194 0.22,-0.14C0.26,-0.086 0.315,-0.059 0.386,-0.059Z" style="fill:white;fill-rule:nonzero;"/>
                </g>
                <g transform="matrix(11.9552,0,0,11.9552,9.28746,0)">
                    <path d="M0.114,-0L0.114,-0.458L0.039,-0.458L0.039,-0.53L0.114,-0.53L0.114,-0.594C0.114,-0.72 0.172,-0.783 0.287,-0.783C0.319,-0.783 0.356,-0.778 0.397,-0.767L0.397,-0.691C0.354,-0.704 0.319,-0.711 0.293,-0.711C0.261,-0.711 0.24,-0.703 0.228,-0.688C0.217,-0.673 0.211,-0.645 0.211,-0.604L0.211,-0.53L0.452,-0.53L0.452,-0.594C0.452,-0.72 0.509,-0.783 0.625,-0.783C0.657,-0.783 0.693,-0.778 0.734,-0.767L0.734,-0.691C0.691,-0.704 0.656,-0.711 0.63,-0.711C0.599,-0.711 0.577,-0.703 0.565,-0.688C0.554,-0.673 0.548,-0.645 0.548,-0.604L0.548,-0.53L0.681,-0.53L0.681,-0.458L0.548,-0.458L0.548,-0L0.452,-0L0.452,-0.458L0.211,-0.458L0.211,-0L0.114,-0ZM0.343,-0.53" style="fill:white;fill-rule:nonzero;"/>
                </g>
                <g transform="matrix(11.9552,0,0,11.9552,17.711,0)">
                    <rect x="0.072" y="-0.325" width="0.434" height="0.072" style="fill:white;fill-rule:nonzero;"/>
                </g>
                <g transform="matrix(11.9552,0,0,11.9552,24.6284,0)">
                    <path d="M0.127,0.193L0.213,-0L0.008,-0.53L0.112,-0.53L0.264,-0.131L0.426,-0.53L0.517,-0.53L0.227,0.193L0.127,0.193Z" style="fill:white;fill-rule:nonzero;"/>
                </g>
                <g transform="matrix(11.9552,0,0,11.9552,30.8745,0)">
                    <path d="M0.289,0.078L0.289,0.145C0.219,0.097 0.163,0.032 0.122,-0.051C0.081,-0.133 0.06,-0.22 0.06,-0.313C0.06,-0.406 0.081,-0.494 0.122,-0.576C0.163,-0.658 0.219,-0.723 0.289,-0.771L0.289,-0.705C0.241,-0.653 0.207,-0.597 0.187,-0.537C0.166,-0.477 0.156,-0.402 0.156,-0.313C0.156,-0.224 0.166,-0.15 0.187,-0.09C0.207,-0.03 0.241,0.026 0.289,0.078Z" style="fill:white;fill-rule:nonzero;"/>
                </g>
                <g transform="matrix(11.9552,0,0,11.9552,34.7623,0)">
                    <path d="M0.093,-0L0.093,-0.723L0.333,-0.723C0.405,-0.723 0.463,-0.715 0.507,-0.699C0.551,-0.683 0.589,-0.656 0.622,-0.618C0.673,-0.557 0.698,-0.477 0.698,-0.378C0.698,-0.258 0.667,-0.165 0.603,-0.099C0.54,-0.033 0.45,-0 0.335,-0L0.093,-0ZM0.196,-0.077L0.327,-0.077C0.421,-0.077 0.487,-0.102 0.526,-0.152C0.568,-0.206 0.589,-0.278 0.589,-0.369C0.589,-0.454 0.569,-0.52 0.527,-0.569C0.502,-0.598 0.472,-0.619 0.438,-0.63C0.403,-0.641 0.35,-0.646 0.28,-0.646L0.196,-0.646L0.196,-0.077Z" style="fill:white;fill-rule:nonzero;"/>
                </g>
                <g transform="matrix(11.9552,0,0,11.9552,43.717,0)">
                    <path d="M0.093,-0L0.093,-0.723L0.194,-0.723L0.558,-0.165L0.558,-0.723L0.646,-0.723L0.646,-0L0.545,-0L0.181,-0.558L0.181,-0L0.093,-0Z" style="fill:white;fill-rule:nonzero;"/>
                </g>
                <g transform="matrix(11.9552,0,0,11.9552,52.5492,0)">
                    <path d="M0.093,-0L0.093,-0.723L0.194,-0.723L0.558,-0.165L0.558,-0.723L0.646,-0.723L0.646,-0L0.545,-0L0.181,-0.558L0.181,-0L0.093,-0Z" style="fill:white;fill-rule:nonzero;"/>
                </g>
                <g transform="matrix(11.9552,0,0,11.9552,61.3813,0)">
                    <path d="M0.036,0.078L0.036,0.145C0.106,0.097 0.162,0.032 0.203,-0.051C0.245,-0.133 0.265,-0.22 0.265,-0.313C0.265,-0.406 0.245,-0.494 0.203,-0.576C0.162,-0.658 0.106,-0.723 0.036,-0.771L0.036,-0.705C0.084,-0.653 0.118,-0.597 0.138,-0.537C0.159,-0.477 0.169,-0.402 0.169,-0.313C0.169,-0.224 0.159,-0.15 0.138,-0.09C0.118,-0.03 0.084,0.026 0.036,0.078Z" style="fill:white;fill-rule:nonzero;"/>
                </g>
            </g>
        </g>
    </g>
    <g id="Anchors">
        <g transform="matrix(0.124477,0,0,0.124477,338.764,-0.673978)">
            <circle cx="382.91" cy="9.431" r="4.017" style="stroke:black;stroke-width:8.03px;stroke-linecap:round;stroke-linejoin:round;stroke-miterlimit:1.5;"/>
        </g>
        <g transform="matrix(0.114771,0,0,0.114771,0,205.756)">
            <circle cx="4.357" cy="381.145" r="4.357" style="stroke:black;stroke-width:8.71px;stroke-linecap:round;stroke-linejoin:round;stroke-miterlimit:1.5;"/>
        </g>
    </g>
</svg>
