<?xml version="1.0" encoding="UTF-8" standalone="no"?>
<!DOCTYPE svg PUBLIC "-//W3C//DTD SVG 1.1//EN" "http://www.w3.org/Graphics/SVG/1.1/DTD/svg11.dtd">
<svg width="100%" height="100%" viewBox="0 0 464 368" version="1.1" xmlns="http://www.w3.org/2000/svg" xmlns:xlink="http://www.w3.org/1999/xlink" xml:space="preserve" xmlns:serif="http://www.serif.com/" style="fill-rule:evenodd;clip-rule:evenodd;stroke-miterlimit:10;">
    <g id="ALL-NODE-PLOTS" serif:id="ALL NODE PLOTS">
    </g>
    <g id="AL-ICNN-PLOTS" serif:id="AL ICNN PLOTS">
    </g>
    <g id="ALL-CANN-PLOTS" serif:id="ALL CANN PLOTS">
        <g id="CANN-UT" serif:id="CANN UT">
            <g id="CANN-UT-UT" serif:id="CANN UT UT" transform="matrix(1,0,0,1,42.766,31.92)">
                <path d="M0,76.366L1.659,74.657L3.317,73.406L4.976,72.426L6.634,71.614L8.293,70.913L9.951,70.286L11.61,69.71L13.268,69.17L14.927,68.655L16.586,68.157L18.244,67.669L19.903,67.187L21.561,66.707L23.22,66.224L24.878,65.736L26.537,65.238L28.196,64.728L29.854,64.202L31.513,63.658L33.171,63.091L34.83,62.497L36.488,61.874L38.147,61.216L39.805,60.52L41.464,59.781L43.123,58.995L44.781,58.155L46.44,57.257L48.098,56.295L49.757,55.263L51.415,54.154L53.074,52.961L54.732,51.678L56.391,50.297L58.05,48.809L59.708,47.205L61.367,45.476L63.025,43.612L64.684,41.6L66.342,39.426L68.001,37.073L69.66,34.518L71.318,31.727L72.977,28.647L74.635,25.187L76.294,21.177L77.952,16.276L79.611,9.761L81.269,0" style="fill:none;fill-rule:nonzero;stroke:black;stroke-width:0.8px;"/>
            </g>
            <g id="CANN-UT-ET" serif:id="CANN UT ET" transform="matrix(1,0,0,1,42.766,-2618.67)">
                <path d="M0,2834.67L1.497,2830.23L2.994,2826.46L4.491,2823.04L5.987,2819.79L7.484,2816.57L8.981,2813.27L10.478,2809.81L11.975,2806.1L13.472,2802.07L14.969,2797.62L16.466,2792.61L17.962,2786.88L19.459,2780.19L20.956,2772.19L22.453,2762.34L23.95,2749.79" style="fill:none;fill-rule:nonzero;stroke:black;stroke-width:0.8px;"/>
            </g>
            <g id="CANN-UT-PS" serif:id="CANN UT PS" transform="matrix(1,0,0,1,42.766,192.033)">
                <path d="M0,131.685L1.731,126.618L3.462,122.499L5.193,119.036L6.925,116.038L8.656,113.375L10.387,110.959L12.118,108.726L13.849,106.632L15.581,104.642L17.312,102.732L19.043,100.881L20.774,99.074L22.505,97.3L24.236,95.548L25.968,93.81L27.699,92.08L29.43,90.35L31.161,88.616L32.892,86.872L34.623,85.113L36.355,83.336L38.086,81.535L39.817,79.706L41.548,77.844L43.279,75.946L45.01,74.006L46.742,72.019L48.473,69.979L50.204,67.882L51.935,65.722L53.666,63.492L55.397,61.184L57.129,58.793L58.86,56.311L60.591,53.727L62.322,51.035" style="fill:none;fill-rule:nonzero;stroke:black;stroke-width:0.8px;"/>
            </g>
        </g>
    </g>
    <g id="ALL-EXP-PLOTS" serif:id="ALL EXP PLOTS">
    </g>
    <g id="ALL-AXES" serif:id="ALL AXES">
        <g id="AXES-UT" serif:id="AXES UT">
        </g>
    </g>
    <g id="CANN-LEGEND" serif:id="CANN LEGEND">
        <g transform="matrix(1,0,0,1,168.106,358.377)">
            <path d="M0,0L17.008,0" style="fill:none;fill-rule:nonzero;stroke:black;stroke-width:0.8px;"/>
        </g>
        <g>
            <g transform="matrix(11.9552,0,0,11.9552,190.34,361.584)">
                <path d="M0.403,0.018C0.291,0.018 0.204,-0.015 0.143,-0.081C0.081,-0.147 0.051,-0.24 0.051,-0.361C0.051,-0.481 0.082,-0.575 0.144,-0.641C0.207,-0.708 0.294,-0.741 0.408,-0.741C0.472,-0.741 0.548,-0.73 0.635,-0.709L0.635,-0.613C0.536,-0.647 0.46,-0.664 0.406,-0.664C0.328,-0.664 0.267,-0.638 0.224,-0.584C0.181,-0.531 0.16,-0.457 0.16,-0.36C0.16,-0.268 0.183,-0.195 0.229,-0.142C0.274,-0.089 0.337,-0.062 0.417,-0.062C0.485,-0.062 0.558,-0.083 0.636,-0.125L0.636,-0.037C0.565,-0 0.487,0.018 0.403,0.018Z" style="fill-rule:nonzero;"/>
            </g>
            <g transform="matrix(11.9552,0,0,11.9552,198.829,361.584)">
                <path d="M0.459,-0.276L0.336,-0.588L0.213,-0.276L0.459,-0.276ZM0.568,-0L0.489,-0.2L0.183,-0.2L0.104,-0L0.008,-0L0.295,-0.723L0.396,-0.723L0.679,-0L0.568,-0Z" style="fill-rule:nonzero;"/>
            </g>
            <g transform="matrix(11.9552,0,0,11.9552,207.295,361.584)">
                <path d="M0.093,-0L0.093,-0.723L0.194,-0.723L0.558,-0.165L0.558,-0.723L0.646,-0.723L0.646,-0L0.545,-0L0.181,-0.558L0.181,-0L0.093,-0Z" style="fill-rule:nonzero;"/>
            </g>
            <g transform="matrix(11.9552,0,0,11.9552,216.345,361.584)">
                <path d="M0.093,-0L0.093,-0.723L0.194,-0.723L0.558,-0.165L0.558,-0.723L0.646,-0.723L0.646,-0L0.545,-0L0.181,-0.558L0.181,-0L0.093,-0Z" style="fill-rule:nonzero;"/>
            </g>
        </g>
    </g>
    <g id="anchors">
        <g transform="matrix(0.0874319,0,0,0.0874319,0,0)">
            <circle cx="5.719" cy="5.719" r="5.719"/>
        </g>
        <g transform="matrix(0.0874319,0,0,0.0874319,462.849,366.325)">
            <circle cx="5.719" cy="5.719" r="5.719"/>
        </g>
    </g>
</svg>
