<?xml version="1.0" encoding="UTF-8" standalone="no"?>
<!DOCTYPE svg PUBLIC "-//W3C//DTD SVG 1.1//EN" "http://www.w3.org/Graphics/SVG/1.1/DTD/svg11.dtd">
<svg width="100%" height="100%" viewBox="0 0 464 368" version="1.1" xmlns="http://www.w3.org/2000/svg" xmlns:xlink="http://www.w3.org/1999/xlink" xml:space="preserve" xmlns:serif="http://www.serif.com/" style="fill-rule:evenodd;clip-rule:evenodd;stroke-miterlimit:10;">
    <g id="ALL-NODE-PLOTS" serif:id="ALL NODE PLOTS">
    </g>
    <g id="AL-ICNN-PLOTS" serif:id="AL ICNN PLOTS">
    </g>
    <g id="ALL-CANN-PLOTS" serif:id="ALL CANN PLOTS">
    </g>
    <g id="ALL-EXP-PLOTS" serif:id="ALL EXP PLOTS">
    </g>
    <g id="ALL-AXES" serif:id="ALL AXES">
        <g id="AXES-UT" serif:id="AXES UT">
            <g id="AXES-UT-ET" serif:id="AXES UT ET">
                <g transform="matrix(1,0,0,1,42.766,216.002)">
                    <path d="M0,2.122L0,-2.122M85.04,2.122L85.04,-2.122" style="fill:none;fill-rule:nonzero;stroke:rgb(128,128,128);stroke-width:0.2px;"/>
                </g>
                <g transform="matrix(1,0,0,1,42.766,130.962)">
                    <path d="M-2.126,85.04L2.126,85.04M-2.126,0L2.126,0" style="fill:none;fill-rule:nonzero;stroke:rgb(128,128,128);stroke-width:0.2px;"/>
                </g>
                <g transform="matrix(1,0,0,1,42.766,216.002)">
                    <path d="M0,0L83.047,0" style="fill:none;fill-rule:nonzero;stroke:black;stroke-width:0.4px;"/>
                </g>
                <g transform="matrix(1,0,0,1,125.813,216.002)">
                    <path d="M1.993,0L-1.196,-1.594L0,0L-1.196,1.594" style="fill-rule:nonzero;"/>
                </g>
                <g transform="matrix(0,-1,-1,0,84.2897,174.478)">
                    <path d="M-41.524,41.524L41.524,41.524" style="fill:none;fill-rule:nonzero;stroke:black;stroke-width:0.4px;"/>
                </g>
                <g transform="matrix(0,-1,1,0,42.766,132.955)">
                    <path d="M1.993,0L-1.196,-1.594L0,0L-1.196,1.594" style="fill-rule:nonzero;"/>
                </g>
                <g transform="matrix(11.9552,0,0,11.9552,33.986,229.93)">
                    <path d="M0.15,-0L0.15,-0.072L0.295,-0.072L0.295,-0.643L0.15,-0.606L0.15,-0.681L0.392,-0.741L0.392,-0.072L0.536,-0.072L0.536,-0L0.15,-0Z" style="fill-rule:nonzero;"/>
                </g>
                <g transform="matrix(11.9552,0,0,11.9552,119.025,229.93)">
                    <path d="M0.122,0.003L0.122,-0.083C0.169,-0.064 0.215,-0.054 0.258,-0.054C0.306,-0.054 0.343,-0.068 0.37,-0.096C0.398,-0.124 0.411,-0.163 0.411,-0.212C0.411,-0.32 0.336,-0.375 0.187,-0.375C0.17,-0.375 0.152,-0.373 0.134,-0.371L0.134,-0.723L0.5,-0.723L0.5,-0.639L0.218,-0.639L0.218,-0.448C0.311,-0.448 0.383,-0.427 0.436,-0.384C0.488,-0.342 0.514,-0.283 0.514,-0.207C0.514,-0.137 0.49,-0.082 0.443,-0.042C0.395,-0.002 0.33,0.018 0.246,0.018C0.209,0.018 0.168,0.013 0.122,0.003Z" style="fill-rule:nonzero;"/>
                </g>
                <g transform="matrix(11.9552,0,0,11.9552,30.686,219.854)">
                    <path d="M0.313,0.018C0.239,0.018 0.179,-0.017 0.133,-0.087C0.087,-0.157 0.063,-0.249 0.063,-0.362C0.063,-0.476 0.087,-0.567 0.133,-0.637C0.179,-0.706 0.241,-0.741 0.316,-0.741C0.392,-0.741 0.453,-0.706 0.5,-0.637C0.546,-0.567 0.569,-0.476 0.569,-0.363C0.569,-0.247 0.546,-0.155 0.5,-0.086C0.453,-0.017 0.391,0.018 0.313,0.018ZM0.314,-0.054C0.416,-0.054 0.467,-0.158 0.467,-0.365C0.467,-0.567 0.417,-0.668 0.316,-0.668C0.216,-0.668 0.166,-0.566 0.166,-0.362C0.166,-0.157 0.215,-0.054 0.314,-0.054Z" style="fill-rule:nonzero;"/>
                </g>
                <g transform="matrix(11.9552,0,0,11.9552,30.686,134.815)">
                    <path d="M0.102,-0.005L0.102,-0.095C0.171,-0.068 0.225,-0.054 0.265,-0.054C0.311,-0.054 0.348,-0.068 0.377,-0.094C0.406,-0.121 0.42,-0.156 0.42,-0.199C0.42,-0.3 0.349,-0.351 0.207,-0.351L0.168,-0.351L0.168,-0.416L0.202,-0.417C0.336,-0.417 0.402,-0.464 0.402,-0.558C0.402,-0.632 0.358,-0.668 0.271,-0.668C0.222,-0.668 0.169,-0.655 0.111,-0.628L0.111,-0.712C0.168,-0.731 0.224,-0.741 0.277,-0.741C0.425,-0.741 0.499,-0.685 0.499,-0.573C0.499,-0.488 0.449,-0.428 0.348,-0.392C0.465,-0.365 0.523,-0.301 0.523,-0.2C0.523,-0.132 0.5,-0.079 0.456,-0.04C0.411,-0.001 0.349,0.018 0.271,0.018C0.226,0.018 0.17,0.01 0.102,-0.005Z" style="fill-rule:nonzero;"/>
                </g>
                <g>
                    <g transform="matrix(11.9552,0,0,11.9552,60.703,228.477)">
                        <path d="M0.237,0.012C0.193,0.012 0.139,0.002 0.077,-0.019L0.077,-0.107C0.139,-0.076 0.194,-0.06 0.241,-0.06C0.268,-0.06 0.291,-0.068 0.31,-0.083C0.328,-0.097 0.337,-0.116 0.337,-0.139C0.337,-0.172 0.311,-0.199 0.26,-0.22L0.204,-0.244C0.121,-0.279 0.08,-0.328 0.08,-0.393C0.08,-0.439 0.096,-0.476 0.129,-0.502C0.161,-0.529 0.206,-0.542 0.263,-0.542C0.293,-0.542 0.329,-0.538 0.373,-0.53L0.393,-0.526L0.393,-0.446C0.339,-0.462 0.297,-0.47 0.265,-0.47C0.203,-0.47 0.172,-0.447 0.172,-0.402C0.172,-0.373 0.196,-0.349 0.243,-0.329L0.289,-0.31C0.341,-0.287 0.379,-0.264 0.4,-0.24C0.422,-0.215 0.433,-0.184 0.433,-0.147C0.433,-0.101 0.415,-0.063 0.378,-0.033C0.341,-0.003 0.294,0.012 0.237,0.012Z" style="fill-rule:nonzero;"/>
                    </g>
                    <g transform="matrix(11.9552,0,0,11.9552,65.8059,228.477)">
                        <path d="M0.255,0.012C0.207,0.012 0.168,-0.002 0.141,-0.03C0.114,-0.058 0.1,-0.097 0.1,-0.146L0.1,-0.458L0.034,-0.458L0.034,-0.53L0.1,-0.53L0.1,-0.626L0.196,-0.636L0.196,-0.53L0.335,-0.53L0.335,-0.458L0.196,-0.458L0.196,-0.164C0.196,-0.095 0.226,-0.06 0.286,-0.06C0.299,-0.06 0.314,-0.062 0.333,-0.066L0.333,-0C0.303,0.008 0.277,0.012 0.255,0.012Z" style="fill-rule:nonzero;"/>
                    </g>
                    <g transform="matrix(11.9552,0,0,11.9552,69.2861,228.477)">
                        <path d="M0.096,-0L0.096,-0.53L0.192,-0.53L0.192,-0.431C0.23,-0.505 0.286,-0.542 0.358,-0.542C0.368,-0.542 0.378,-0.541 0.389,-0.54L0.389,-0.45C0.373,-0.455 0.358,-0.458 0.345,-0.458C0.284,-0.458 0.233,-0.422 0.192,-0.35L0.192,-0L0.096,-0Z" style="fill-rule:nonzero;"/>
                    </g>
                    <g transform="matrix(11.9552,0,0,11.9552,73.1865,228.477)">
                        <path d="M0.485,-0.017C0.42,0.002 0.365,0.012 0.319,0.012C0.241,0.012 0.177,-0.014 0.128,-0.066C0.079,-0.118 0.054,-0.185 0.054,-0.268C0.054,-0.348 0.076,-0.414 0.119,-0.465C0.163,-0.517 0.218,-0.542 0.286,-0.542C0.35,-0.542 0.4,-0.52 0.435,-0.474C0.47,-0.429 0.487,-0.364 0.487,-0.28L0.487,-0.25L0.152,-0.25C0.166,-0.124 0.228,-0.061 0.337,-0.061C0.377,-0.061 0.427,-0.072 0.485,-0.093L0.485,-0.017ZM0.157,-0.322L0.391,-0.322C0.391,-0.421 0.354,-0.47 0.28,-0.47C0.206,-0.47 0.165,-0.421 0.157,-0.322Z" style="fill-rule:nonzero;"/>
                    </g>
                    <g transform="matrix(11.9552,0,0,11.9552,78.8557,228.477)">
                        <path d="M0.255,0.012C0.207,0.012 0.168,-0.002 0.141,-0.03C0.114,-0.058 0.1,-0.097 0.1,-0.146L0.1,-0.458L0.034,-0.458L0.034,-0.53L0.1,-0.53L0.1,-0.626L0.196,-0.636L0.196,-0.53L0.335,-0.53L0.335,-0.458L0.196,-0.458L0.196,-0.164C0.196,-0.095 0.226,-0.06 0.286,-0.06C0.299,-0.06 0.314,-0.062 0.333,-0.066L0.333,-0C0.303,0.008 0.277,0.012 0.255,0.012Z" style="fill-rule:nonzero;"/>
                    </g>
                    <g transform="matrix(11.9552,0,0,11.9552,82.3358,228.477)">
                        <path d="M0.303,0.012C0.232,0.012 0.172,-0.014 0.125,-0.067C0.078,-0.12 0.054,-0.187 0.054,-0.268C0.054,-0.354 0.078,-0.422 0.124,-0.47C0.171,-0.518 0.236,-0.542 0.32,-0.542C0.361,-0.542 0.407,-0.536 0.458,-0.525L0.458,-0.444C0.404,-0.46 0.36,-0.468 0.326,-0.468C0.277,-0.468 0.237,-0.45 0.207,-0.413C0.177,-0.376 0.163,-0.327 0.163,-0.265C0.163,-0.206 0.178,-0.157 0.208,-0.121C0.239,-0.084 0.279,-0.065 0.329,-0.065C0.373,-0.065 0.418,-0.077 0.464,-0.099L0.464,-0.016C0.402,0.003 0.348,0.012 0.303,0.012Z" style="fill-rule:nonzero;"/>
                    </g>
                    <g transform="matrix(11.9552,0,0,11.9552,87.4679,228.477)">
                        <path d="M0.096,-0L0.096,-0.771L0.192,-0.771L0.192,-0.431C0.243,-0.505 0.305,-0.542 0.379,-0.542C0.425,-0.542 0.461,-0.527 0.489,-0.498C0.516,-0.469 0.53,-0.43 0.53,-0.381L0.53,-0L0.434,-0L0.434,-0.35C0.434,-0.389 0.428,-0.417 0.416,-0.434C0.405,-0.451 0.386,-0.459 0.359,-0.459C0.3,-0.459 0.244,-0.42 0.192,-0.343L0.192,-0L0.096,-0Z" style="fill-rule:nonzero;"/>
                    </g>
                    <g transform="matrix(11.9552,0,0,11.9552,99.4618,228.477)">
                        <path d="M0.096,0.145L0.096,-0.771L0.289,-0.771L0.289,-0.699L0.181,-0.699L0.181,0.072L0.289,0.072L0.289,0.145L0.096,0.145Z" style="fill-rule:nonzero;"/>
                    </g>
                    <g transform="matrix(11.9552,0,0,11.9552,102.358,228.477)">
                        <rect x="0.072" y="-0.325" width="0.434" height="0.072" style="fill-rule:nonzero;"/>
                    </g>
                    <g transform="matrix(11.9552,0,0,11.9552,108.284,228.477)">
                        <path d="M0.229,0.145L0.229,-0.771L0.036,-0.771L0.036,-0.699L0.145,-0.699L0.145,0.072L0.036,0.072L0.036,0.145L0.229,0.145Z" style="fill-rule:nonzero;"/>
                    </g>
                </g>
                <g transform="matrix(0,-1,1,0,0,0)">
                    <g transform="matrix(11.9552,0,0,11.9552,-202.6,36.335)">
                        <path d="M0.237,0.012C0.193,0.012 0.139,0.002 0.077,-0.019L0.077,-0.107C0.139,-0.076 0.194,-0.06 0.241,-0.06C0.268,-0.06 0.291,-0.068 0.31,-0.083C0.328,-0.097 0.337,-0.116 0.337,-0.139C0.337,-0.172 0.311,-0.199 0.26,-0.22L0.204,-0.244C0.121,-0.279 0.08,-0.328 0.08,-0.393C0.08,-0.439 0.096,-0.476 0.129,-0.502C0.161,-0.529 0.206,-0.542 0.263,-0.542C0.293,-0.542 0.329,-0.538 0.373,-0.53L0.393,-0.526L0.393,-0.446C0.339,-0.462 0.297,-0.47 0.265,-0.47C0.203,-0.47 0.172,-0.447 0.172,-0.402C0.172,-0.373 0.196,-0.349 0.243,-0.329L0.289,-0.31C0.341,-0.287 0.379,-0.264 0.4,-0.24C0.422,-0.215 0.433,-0.184 0.433,-0.147C0.433,-0.101 0.415,-0.063 0.378,-0.033C0.341,-0.003 0.294,0.012 0.237,0.012Z" style="fill-rule:nonzero;"/>
                    </g>
                    <g transform="matrix(11.9552,0,0,11.9552,-197.236,36.335)">
                        <path d="M0.255,0.012C0.207,0.012 0.168,-0.002 0.141,-0.03C0.114,-0.058 0.1,-0.097 0.1,-0.146L0.1,-0.458L0.034,-0.458L0.034,-0.53L0.1,-0.53L0.1,-0.626L0.196,-0.636L0.196,-0.53L0.335,-0.53L0.335,-0.458L0.196,-0.458L0.196,-0.164C0.196,-0.095 0.226,-0.06 0.286,-0.06C0.299,-0.06 0.314,-0.062 0.333,-0.066L0.333,-0C0.303,0.008 0.277,0.012 0.255,0.012Z" style="fill-rule:nonzero;"/>
                    </g>
                    <g transform="matrix(11.9552,0,0,11.9552,-193.496,36.335)">
                        <path d="M0.096,-0L0.096,-0.53L0.192,-0.53L0.192,-0.431C0.23,-0.505 0.286,-0.542 0.358,-0.542C0.368,-0.542 0.378,-0.541 0.389,-0.54L0.389,-0.45C0.373,-0.455 0.358,-0.458 0.345,-0.458C0.284,-0.458 0.233,-0.422 0.192,-0.35L0.192,-0L0.096,-0Z" style="fill-rule:nonzero;"/>
                    </g>
                    <g transform="matrix(11.9552,0,0,11.9552,-189.335,36.335)">
                        <path d="M0.485,-0.017C0.42,0.002 0.365,0.012 0.319,0.012C0.241,0.012 0.177,-0.014 0.128,-0.066C0.079,-0.118 0.054,-0.185 0.054,-0.268C0.054,-0.348 0.076,-0.414 0.119,-0.465C0.163,-0.517 0.218,-0.542 0.286,-0.542C0.35,-0.542 0.4,-0.52 0.435,-0.474C0.47,-0.429 0.487,-0.364 0.487,-0.28L0.487,-0.25L0.152,-0.25C0.166,-0.124 0.228,-0.061 0.337,-0.061C0.377,-0.061 0.427,-0.072 0.485,-0.093L0.485,-0.017ZM0.157,-0.322L0.391,-0.322C0.391,-0.421 0.354,-0.47 0.28,-0.47C0.206,-0.47 0.165,-0.421 0.157,-0.322Z" style="fill-rule:nonzero;"/>
                    </g>
                    <g transform="matrix(11.9552,0,0,11.9552,-183.405,36.335)">
                        <path d="M0.237,0.012C0.193,0.012 0.139,0.002 0.077,-0.019L0.077,-0.107C0.139,-0.076 0.194,-0.06 0.241,-0.06C0.268,-0.06 0.291,-0.068 0.31,-0.083C0.328,-0.097 0.337,-0.116 0.337,-0.139C0.337,-0.172 0.311,-0.199 0.26,-0.22L0.204,-0.244C0.121,-0.279 0.08,-0.328 0.08,-0.393C0.08,-0.439 0.096,-0.476 0.129,-0.502C0.161,-0.529 0.206,-0.542 0.263,-0.542C0.293,-0.542 0.329,-0.538 0.373,-0.53L0.393,-0.526L0.393,-0.446C0.339,-0.462 0.297,-0.47 0.265,-0.47C0.203,-0.47 0.172,-0.447 0.172,-0.402C0.172,-0.373 0.196,-0.349 0.243,-0.329L0.289,-0.31C0.341,-0.287 0.379,-0.264 0.4,-0.24C0.422,-0.215 0.433,-0.184 0.433,-0.147C0.433,-0.101 0.415,-0.063 0.378,-0.033C0.341,-0.003 0.294,0.012 0.237,0.012Z" style="fill-rule:nonzero;"/>
                    </g>
                    <g transform="matrix(11.9552,0,0,11.9552,-178.041,36.335)">
                        <path d="M0.237,0.012C0.193,0.012 0.139,0.002 0.077,-0.019L0.077,-0.107C0.139,-0.076 0.194,-0.06 0.241,-0.06C0.268,-0.06 0.291,-0.068 0.31,-0.083C0.328,-0.097 0.337,-0.116 0.337,-0.139C0.337,-0.172 0.311,-0.199 0.26,-0.22L0.204,-0.244C0.121,-0.279 0.08,-0.328 0.08,-0.393C0.08,-0.439 0.096,-0.476 0.129,-0.502C0.161,-0.529 0.206,-0.542 0.263,-0.542C0.293,-0.542 0.329,-0.538 0.373,-0.53L0.393,-0.526L0.393,-0.446C0.339,-0.462 0.297,-0.47 0.265,-0.47C0.203,-0.47 0.172,-0.447 0.172,-0.402C0.172,-0.373 0.196,-0.349 0.243,-0.329L0.289,-0.31C0.341,-0.287 0.379,-0.264 0.4,-0.24C0.422,-0.215 0.433,-0.184 0.433,-0.147C0.433,-0.101 0.415,-0.063 0.378,-0.033C0.341,-0.003 0.294,0.012 0.237,0.012Z" style="fill-rule:nonzero;"/>
                    </g>
                    <g transform="matrix(11.9552,0,0,11.9552,-170.543,36.335)">
                        <path d="M0.096,0.145L0.096,-0.771L0.289,-0.771L0.289,-0.699L0.181,-0.699L0.181,0.072L0.289,0.072L0.289,0.145L0.096,0.145Z" style="fill-rule:nonzero;"/>
                    </g>
                    <g transform="matrix(11.9552,0,0,11.9552,-167.386,36.335)">
                        <path d="M0.096,-0L0.096,-0.771L0.192,-0.771L0.192,-0.273L0.417,-0.53L0.521,-0.53L0.306,-0.283L0.565,-0L0.442,-0L0.192,-0.272L0.192,-0L0.096,-0Z" style="fill-rule:nonzero;"/>
                    </g>
                    <g transform="matrix(11.9552,0,0,11.9552,-161.13,36.335)">
                        <path d="M0.093,-0L0.093,-0.723L0.29,-0.723C0.377,-0.723 0.44,-0.708 0.478,-0.678C0.516,-0.649 0.535,-0.601 0.535,-0.533C0.535,-0.456 0.509,-0.396 0.457,-0.353C0.405,-0.309 0.333,-0.287 0.24,-0.287L0.195,-0.287L0.195,-0L0.093,-0ZM0.195,-0.365L0.236,-0.365C0.297,-0.365 0.344,-0.379 0.377,-0.407C0.411,-0.435 0.427,-0.474 0.427,-0.525C0.427,-0.569 0.414,-0.6 0.388,-0.618C0.362,-0.637 0.319,-0.646 0.258,-0.646L0.195,-0.646L0.195,-0.365Z" style="fill-rule:nonzero;"/>
                    </g>
                    <g transform="matrix(11.9552,0,0,11.9552,-155.252,36.335)">
                        <path d="M0.37,-0.067C0.312,-0.014 0.257,0.012 0.203,0.012C0.159,0.012 0.123,-0.002 0.094,-0.029C0.065,-0.057 0.05,-0.091 0.05,-0.133C0.05,-0.191 0.075,-0.236 0.123,-0.267C0.172,-0.298 0.242,-0.313 0.333,-0.313L0.355,-0.313L0.355,-0.377C0.355,-0.439 0.324,-0.47 0.261,-0.47C0.21,-0.47 0.155,-0.454 0.096,-0.423L0.096,-0.502C0.161,-0.529 0.222,-0.542 0.278,-0.542C0.338,-0.542 0.381,-0.529 0.409,-0.502C0.438,-0.475 0.452,-0.434 0.452,-0.377L0.452,-0.137C0.452,-0.082 0.469,-0.055 0.502,-0.055C0.507,-0.055 0.513,-0.055 0.521,-0.057L0.528,-0.003C0.506,0.007 0.482,0.012 0.456,0.012C0.411,0.012 0.382,-0.014 0.37,-0.067ZM0.355,-0.12L0.355,-0.257L0.323,-0.258C0.271,-0.258 0.228,-0.248 0.195,-0.228C0.163,-0.208 0.146,-0.181 0.146,-0.149C0.146,-0.126 0.155,-0.106 0.171,-0.09C0.187,-0.074 0.207,-0.066 0.23,-0.066C0.271,-0.066 0.312,-0.084 0.355,-0.12Z" style="fill-rule:nonzero;"/>
                    </g>
                    <g transform="matrix(11.9552,0,0,11.9552,-149.381,36.335)">
                        <path d="M0.229,0.145L0.229,-0.771L0.036,-0.771L0.036,-0.699L0.145,-0.699L0.145,0.072L0.036,0.072L0.036,0.145L0.229,0.145Z" style="fill-rule:nonzero;"/>
                    </g>
                </g>
            </g>
        </g>
    </g>
    <g transform="matrix(0,-1,1,0,0,0)">
        <g transform="matrix(10.9091,0,0,10.9091,-217.543,11.477)">
            <path d="M0.093,-0L0.093,-0.723L0.497,-0.723L0.497,-0.646L0.196,-0.646L0.196,-0.414L0.448,-0.414L0.448,-0.338L0.196,-0.338L0.196,-0.077L0.518,-0.077L0.518,-0L0.093,-0Z" style="fill-rule:nonzero;"/>
        </g>
        <g transform="matrix(10.9091,0,0,10.9091,-211.948,11.477)">
            <path d="M0.265,-0L0.265,-0.646L0.009,-0.646L0.009,-0.723L0.624,-0.723L0.624,-0.646L0.368,-0.646L0.368,-0L0.265,-0Z" style="fill-rule:nonzero;"/>
        </g>
        <g transform="matrix(10.9091,0,0,10.9091,-198.608,11.477)">
            <path d="M0.255,0.012C0.207,0.012 0.168,-0.002 0.141,-0.03C0.114,-0.058 0.1,-0.097 0.1,-0.146L0.1,-0.458L0.034,-0.458L0.034,-0.53L0.1,-0.53L0.1,-0.626L0.196,-0.636L0.196,-0.53L0.335,-0.53L0.335,-0.458L0.196,-0.458L0.196,-0.164C0.196,-0.095 0.226,-0.06 0.286,-0.06C0.299,-0.06 0.314,-0.062 0.333,-0.066L0.333,-0C0.303,0.008 0.277,0.012 0.255,0.012Z" style="fill-rule:nonzero;"/>
        </g>
        <g transform="matrix(10.9091,0,0,10.9091,-194.845,11.477)">
            <path d="M0.485,-0.017C0.42,0.002 0.365,0.012 0.319,0.012C0.241,0.012 0.177,-0.014 0.128,-0.066C0.079,-0.118 0.054,-0.185 0.054,-0.268C0.054,-0.348 0.076,-0.414 0.119,-0.465C0.163,-0.517 0.218,-0.542 0.286,-0.542C0.35,-0.542 0.4,-0.52 0.435,-0.474C0.47,-0.429 0.487,-0.364 0.487,-0.28L0.487,-0.25L0.152,-0.25C0.166,-0.124 0.228,-0.061 0.337,-0.061C0.377,-0.061 0.427,-0.072 0.485,-0.093L0.485,-0.017ZM0.157,-0.322L0.391,-0.322C0.391,-0.421 0.354,-0.47 0.28,-0.47C0.206,-0.47 0.165,-0.421 0.157,-0.322Z" style="fill-rule:nonzero;"/>
        </g>
        <g transform="matrix(10.9091,0,0,10.9091,-189.086,11.477)">
            <path d="M0.237,0.012C0.193,0.012 0.139,0.002 0.077,-0.019L0.077,-0.107C0.139,-0.076 0.194,-0.06 0.241,-0.06C0.268,-0.06 0.291,-0.068 0.31,-0.083C0.328,-0.097 0.337,-0.116 0.337,-0.139C0.337,-0.172 0.311,-0.199 0.26,-0.22L0.204,-0.244C0.121,-0.279 0.08,-0.328 0.08,-0.393C0.08,-0.439 0.096,-0.476 0.129,-0.502C0.161,-0.529 0.206,-0.542 0.263,-0.542C0.293,-0.542 0.329,-0.538 0.373,-0.53L0.393,-0.526L0.393,-0.446C0.339,-0.462 0.297,-0.47 0.265,-0.47C0.203,-0.47 0.172,-0.447 0.172,-0.402C0.172,-0.373 0.196,-0.349 0.243,-0.329L0.289,-0.31C0.341,-0.287 0.379,-0.264 0.4,-0.24C0.422,-0.215 0.433,-0.184 0.433,-0.147C0.433,-0.101 0.415,-0.063 0.378,-0.033C0.341,-0.003 0.294,0.012 0.237,0.012Z" style="fill-rule:nonzero;"/>
        </g>
        <g transform="matrix(10.9091,0,0,10.9091,-183.843,11.477)">
            <path d="M0.255,0.012C0.207,0.012 0.168,-0.002 0.141,-0.03C0.114,-0.058 0.1,-0.097 0.1,-0.146L0.1,-0.458L0.034,-0.458L0.034,-0.53L0.1,-0.53L0.1,-0.626L0.196,-0.636L0.196,-0.53L0.335,-0.53L0.335,-0.458L0.196,-0.458L0.196,-0.164C0.196,-0.095 0.226,-0.06 0.286,-0.06C0.299,-0.06 0.314,-0.062 0.333,-0.066L0.333,-0C0.303,0.008 0.277,0.012 0.255,0.012Z" style="fill-rule:nonzero;"/>
        </g>
        <g transform="matrix(10.9091,0,0,10.9091,-177.328,11.477)">
            <path d="M0.096,0.193L0.096,-0.53L0.192,-0.53L0.192,-0.431C0.232,-0.505 0.291,-0.542 0.37,-0.542C0.433,-0.542 0.484,-0.519 0.52,-0.472C0.557,-0.426 0.575,-0.362 0.575,-0.281C0.575,-0.193 0.554,-0.122 0.513,-0.069C0.471,-0.015 0.417,0.012 0.349,0.012C0.286,0.012 0.234,-0.012 0.192,-0.06L0.192,0.193L0.096,0.193ZM0.192,-0.126C0.242,-0.082 0.289,-0.06 0.334,-0.06C0.426,-0.06 0.473,-0.131 0.473,-0.271C0.473,-0.396 0.432,-0.458 0.35,-0.458C0.296,-0.458 0.243,-0.429 0.192,-0.371L0.192,-0.126Z" style="fill-rule:nonzero;"/>
        </g>
        <g transform="matrix(10.9091,0,0,10.9091,-170.78,11.477)">
            <path d="M0.096,-0L0.096,-0.53L0.192,-0.53L0.192,-0.431C0.23,-0.505 0.286,-0.542 0.358,-0.542C0.368,-0.542 0.378,-0.541 0.389,-0.54L0.389,-0.45C0.373,-0.455 0.358,-0.458 0.345,-0.458C0.284,-0.458 0.233,-0.422 0.192,-0.35L0.192,-0L0.096,-0Z" style="fill-rule:nonzero;"/>
        </g>
        <g transform="matrix(10.9091,0,0,10.9091,-166.634,11.477)">
            <path d="M0.485,-0.017C0.42,0.002 0.365,0.012 0.319,0.012C0.241,0.012 0.177,-0.014 0.128,-0.066C0.079,-0.118 0.054,-0.185 0.054,-0.268C0.054,-0.348 0.076,-0.414 0.119,-0.465C0.163,-0.517 0.218,-0.542 0.286,-0.542C0.35,-0.542 0.4,-0.52 0.435,-0.474C0.47,-0.429 0.487,-0.364 0.487,-0.28L0.487,-0.25L0.152,-0.25C0.166,-0.124 0.228,-0.061 0.337,-0.061C0.377,-0.061 0.427,-0.072 0.485,-0.093L0.485,-0.017ZM0.157,-0.322L0.391,-0.322C0.391,-0.421 0.354,-0.47 0.28,-0.47C0.206,-0.47 0.165,-0.421 0.157,-0.322Z" style="fill-rule:nonzero;"/>
        </g>
        <g transform="matrix(10.9091,0,0,10.9091,-160.875,11.477)">
            <path d="M0.437,-0L0.437,-0.1C0.397,-0.025 0.339,0.012 0.26,0.012C0.196,0.012 0.146,-0.011 0.109,-0.058C0.073,-0.104 0.054,-0.168 0.054,-0.249C0.054,-0.337 0.075,-0.408 0.116,-0.461C0.158,-0.515 0.213,-0.542 0.28,-0.542C0.343,-0.542 0.395,-0.518 0.437,-0.47L0.437,-0.771L0.533,-0.771L0.533,-0L0.437,-0ZM0.437,-0.404C0.387,-0.448 0.34,-0.47 0.295,-0.47C0.203,-0.47 0.157,-0.399 0.157,-0.258C0.157,-0.134 0.198,-0.072 0.28,-0.072C0.333,-0.072 0.385,-0.101 0.437,-0.16L0.437,-0.404Z" style="fill-rule:nonzero;"/>
        </g>
        <g transform="matrix(10.9091,0,0,10.9091,-154.327,11.477)">
            <path d="M0.096,-0L0.096,-0.53L0.192,-0.53L0.192,-0L0.096,-0ZM0.096,-0.626L0.096,-0.723L0.192,-0.723L0.192,-0.626L0.096,-0.626Z" style="fill-rule:nonzero;"/>
        </g>
        <g transform="matrix(10.9091,0,0,10.9091,-151.491,11.477)">
            <path d="M0.303,0.012C0.232,0.012 0.172,-0.014 0.125,-0.067C0.078,-0.12 0.054,-0.187 0.054,-0.268C0.054,-0.354 0.078,-0.422 0.124,-0.47C0.171,-0.518 0.236,-0.542 0.32,-0.542C0.361,-0.542 0.407,-0.536 0.458,-0.525L0.458,-0.444C0.404,-0.46 0.36,-0.468 0.326,-0.468C0.277,-0.468 0.237,-0.45 0.207,-0.413C0.177,-0.376 0.163,-0.327 0.163,-0.265C0.163,-0.206 0.178,-0.157 0.208,-0.121C0.239,-0.084 0.279,-0.065 0.329,-0.065C0.373,-0.065 0.418,-0.077 0.464,-0.099L0.464,-0.016C0.402,0.003 0.348,0.012 0.303,0.012Z" style="fill-rule:nonzero;"/>
        </g>
        <g transform="matrix(10.9091,0,0,10.9091,-146.222,11.477)">
            <path d="M0.255,0.012C0.207,0.012 0.168,-0.002 0.141,-0.03C0.114,-0.058 0.1,-0.097 0.1,-0.146L0.1,-0.458L0.034,-0.458L0.034,-0.53L0.1,-0.53L0.1,-0.626L0.196,-0.636L0.196,-0.53L0.335,-0.53L0.335,-0.458L0.196,-0.458L0.196,-0.164C0.196,-0.095 0.226,-0.06 0.286,-0.06C0.299,-0.06 0.314,-0.062 0.333,-0.066L0.333,-0C0.303,0.008 0.277,0.012 0.255,0.012Z" style="fill-rule:nonzero;"/>
        </g>
        <g transform="matrix(10.9091,0,0,10.9091,-142.46,11.477)">
            <path d="M0.096,-0L0.096,-0.53L0.192,-0.53L0.192,-0L0.096,-0ZM0.096,-0.626L0.096,-0.723L0.192,-0.723L0.192,-0.626L0.096,-0.626Z" style="fill-rule:nonzero;"/>
        </g>
        <g transform="matrix(10.9091,0,0,10.9091,-139.624,11.477)">
            <path d="M0.304,0.012C0.228,0.012 0.167,-0.013 0.122,-0.063C0.077,-0.114 0.054,-0.181 0.054,-0.265C0.054,-0.35 0.077,-0.418 0.122,-0.468C0.168,-0.517 0.229,-0.542 0.307,-0.542C0.385,-0.542 0.447,-0.517 0.492,-0.468C0.537,-0.418 0.56,-0.351 0.56,-0.266C0.56,-0.18 0.537,-0.111 0.492,-0.062C0.446,-0.013 0.383,0.012 0.304,0.012ZM0.305,-0.06C0.407,-0.06 0.458,-0.129 0.458,-0.266C0.458,-0.402 0.408,-0.47 0.307,-0.47C0.207,-0.47 0.157,-0.402 0.157,-0.265C0.157,-0.128 0.206,-0.06 0.305,-0.06Z" style="fill-rule:nonzero;"/>
        </g>
        <g transform="matrix(10.9091,0,0,10.9091,-133.241,11.477)">
            <path d="M0.096,-0L0.096,-0.53L0.192,-0.53L0.192,-0.431C0.243,-0.505 0.305,-0.542 0.379,-0.542C0.425,-0.542 0.461,-0.527 0.489,-0.498C0.516,-0.469 0.53,-0.43 0.53,-0.381L0.53,-0L0.434,-0L0.434,-0.35C0.434,-0.389 0.428,-0.417 0.416,-0.434C0.405,-0.451 0.386,-0.459 0.359,-0.459C0.3,-0.459 0.244,-0.42 0.192,-0.343L0.192,-0L0.096,-0Z" style="fill-rule:nonzero;"/>
        </g>
    </g>
    <g id="anchors">
        <g transform="matrix(0.0874319,0,0,0.0874319,0,0)">
            <circle cx="5.719" cy="5.719" r="5.719"/>
        </g>
        <g transform="matrix(0.0874319,0,0,0.0874319,462.849,366.325)">
            <circle cx="5.719" cy="5.719" r="5.719"/>
        </g>
    </g>
</svg>
