<?xml version="1.0" encoding="UTF-8" standalone="no"?>
<!DOCTYPE svg PUBLIC "-//W3C//DTD SVG 1.1//EN" "http://www.w3.org/Graphics/SVG/1.1/DTD/svg11.dtd">
<svg width="100%" height="100%" viewBox="0 0 464 368" version="1.1" xmlns="http://www.w3.org/2000/svg" xmlns:xlink="http://www.w3.org/1999/xlink" xml:space="preserve" xmlns:serif="http://www.serif.com/" style="fill-rule:evenodd;clip-rule:evenodd;stroke-miterlimit:10;">
    <g id="ALL-NODE-PLOTS" serif:id="ALL NODE PLOTS">
    </g>
    <g id="AL-ICNN-PLOTS" serif:id="AL ICNN PLOTS">
    </g>
    <g id="ALL-CANN-PLOTS" serif:id="ALL CANN PLOTS">
    </g>
    <g id="ALL-EXP-PLOTS" serif:id="ALL EXP PLOTS">
        <g id="EXP-UT" serif:id="EXP UT">
            <g id="EXP-UT-PS" serif:id="EXP UT PS">
                <g transform="matrix(0,-1,-1,0,42.766,323.718)">
                    <circle cx="0" cy="0" r="1.594" style="fill:white;stroke:black;stroke-width:0.4px;"/>
                </g>
                <g transform="matrix(0,-1,-1,0,46.4865,322.124)">
                    <ellipse cx="1.063" cy="2.657" rx="1.594" ry="1.594" style="fill:white;stroke:black;stroke-width:0.4px;"/>
                </g>
                <g transform="matrix(0,-1,-1,0,52.248,319.764)">
                    <ellipse cx="2.764" cy="6.718" rx="1.594" ry="1.594" style="fill:white;stroke:black;stroke-width:0.4px;"/>
                </g>
                <g transform="matrix(0,-1,-1,0,57.1378,317.85)">
                    <ellipse cx="4.252" cy="10.12" rx="1.594" ry="1.594" style="fill:white;stroke:black;stroke-width:0.4px;"/>
                </g>
                <g transform="matrix(0,-1,-1,0,63.8134,316.702)">
                    <ellipse cx="7.016" cy="14.032" rx="1.594" ry="1.594" style="fill:white;stroke:black;stroke-width:0.4px;"/>
                </g>
                <g transform="matrix(0,-1,-1,0,70.0638,315.554)">
                    <circle cx="9.567" cy="17.731" r="1.594" style="fill:white;stroke:black;stroke-width:0.4px;"/>
                </g>
                <g transform="matrix(0,-1,-1,0,86.3065,316.745)">
                    <circle cx="18.284" cy="25.257" r="1.594" style="fill:white;stroke:black;stroke-width:0.4px;"/>
                </g>
                <g transform="matrix(0,-1,-1,0,105.143,320.869)">
                    <ellipse cx="29.764" cy="32.613" rx="1.594" ry="1.594" style="fill:white;stroke:black;stroke-width:0.4px;"/>
                </g>
                <g transform="matrix(0,-1,-1,0,125.255,325.844)">
                    <ellipse cx="42.307" cy="40.181" rx="1.594" ry="1.594" style="fill:white;stroke:black;stroke-width:0.4px;"/>
                </g>
                <g transform="matrix(0,-1,-1,0,143.964,328.82)">
                    <ellipse cx="53.15" cy="48.048" rx="1.594" ry="1.594" style="fill:white;stroke:black;stroke-width:0.4px;"/>
                </g>
                <g transform="matrix(0,-1,-1,0,161.397,331.797)">
                    <circle cx="63.355" cy="55.276" r="1.594" style="fill:white;stroke:black;stroke-width:0.4px;"/>
                </g>
                <g transform="matrix(0,-1,-1,0,177.767,332.86)">
                    <ellipse cx="72.071" cy="62.93" rx="1.594" ry="1.594" style="fill:white;stroke:black;stroke-width:0.4px;"/>
                </g>
                <g transform="matrix(0,-1,-1,0,191.586,333.072)">
                    <ellipse cx="79.087" cy="69.733" rx="1.594" ry="1.594" style="fill:white;stroke:black;stroke-width:0.4px;"/>
                </g>
                <g transform="matrix(0,-1,-1,0,204.98,331.159)">
                    <ellipse cx="84.827" cy="77.387" rx="1.594" ry="1.594" style="fill:white;stroke:black;stroke-width:0.4px;"/>
                </g>
            </g>
            <g id="EXP-UT-ET" serif:id="EXP UT ET">
                <g transform="matrix(0,-1,-1,0,42.766,216.002)">
                    <circle cx="0" cy="0" r="1.594" style="fill:white;stroke:black;stroke-width:0.4px;"/>
                </g>
                <g transform="matrix(0,-1,-1,0,46.2864,214.182)">
                    <ellipse cx="0.85" cy="2.67" rx="1.594" ry="1.594" style="fill:white;stroke:black;stroke-width:0.4px;"/>
                </g>
                <g transform="matrix(0,-1,-1,0,49.0024,213.167)">
                    <ellipse cx="1.701" cy="4.536" rx="1.594" ry="1.594" style="fill:white;stroke:black;stroke-width:0.4px;"/>
                </g>
                <g transform="matrix(0,-1,-1,0,52.1205,211.75)">
                    <ellipse cx="2.551" cy="6.803" rx="1.594" ry="1.594" style="fill:white;stroke:black;stroke-width:0.4px;"/>
                </g>
                <g transform="matrix(0,-1,-1,0,53.3249,211.821)">
                    <ellipse cx="3.189" cy="7.37" rx="1.594" ry="1.594" style="fill:white;stroke:black;stroke-width:0.4px;"/>
                </g>
                <g transform="matrix(0,-1,-1,0,56.6131,211.084)">
                    <ellipse cx="4.465" cy="9.383" rx="1.594" ry="1.594" style="fill:white;stroke:black;stroke-width:0.4px;"/>
                </g>
                <g transform="matrix(0,-1,-1,0,62.0132,210.361)">
                    <ellipse cx="6.803" cy="12.444" rx="1.594" ry="1.594" style="fill:white;stroke:black;stroke-width:0.4px;"/>
                </g>
                <g transform="matrix(0,-1,-1,0,66.4782,210.573)">
                    <ellipse cx="9.142" cy="14.57" rx="1.594" ry="1.594" style="fill:white;stroke:black;stroke-width:0.4px;"/>
                </g>
                <g transform="matrix(0,-1,-1,0,76.2716,212.26)">
                    <ellipse cx="14.882" cy="18.624" rx="1.594" ry="1.594" style="fill:white;stroke:black;stroke-width:0.4px;"/>
                </g>
                <g transform="matrix(0,-1,-1,0,84.8748,214.287)">
                    <ellipse cx="20.197" cy="21.912" rx="1.594" ry="1.594" style="fill:white;stroke:black;stroke-width:0.4px;"/>
                </g>
                <g transform="matrix(0,-1,-1,0,102.096,220.452)">
                    <circle cx="31.89" cy="27.44" r="1.594" style="fill:white;stroke:black;stroke-width:0.4px;"/>
                </g>
                <g transform="matrix(0,-1,-1,0,121.853,223.656)">
                    <ellipse cx="43.37" cy="35.717" rx="1.594" ry="1.594" style="fill:white;stroke:black;stroke-width:0.4px;"/>
                </g>
                <g transform="matrix(0,-1,-1,0,136.31,226.207)">
                    <ellipse cx="51.874" cy="41.67" rx="1.594" ry="1.594" style="fill:white;stroke:black;stroke-width:0.4px;"/>
                </g>
                <g transform="matrix(0,-1,-1,0,150.483,225.64)">
                    <circle cx="58.678" cy="49.04" r="1.594" style="fill:white;stroke:black;stroke-width:0.4px;"/>
                </g>
                <g transform="matrix(0,-1,-1,0,163.027,224.577)">
                    <circle cx="64.418" cy="55.843" r="1.594" style="fill:white;stroke:black;stroke-width:0.4px;"/>
                </g>
                <g transform="matrix(0,-1,-1,0,175.286,222.097)">
                    <ellipse cx="69.307" cy="63.213" rx="1.594" ry="1.594" style="fill:white;stroke:black;stroke-width:0.4px;"/>
                </g>
                <g transform="matrix(0,-1,-1,0,185.562,219.9)">
                    <ellipse cx="73.347" cy="69.449" rx="1.594" ry="1.594" style="fill:white;stroke:black;stroke-width:0.4px;"/>
                </g>
            </g>
            <g id="EXP-UT-UT" serif:id="EXP UT UT">
                <g transform="matrix(0,-1,-1,0,42.766,108.286)">
                    <circle cx="0" cy="0" r="1.594" style="fill:white;stroke:black;stroke-width:0.4px;"/>
                </g>
                <g transform="matrix(0,-1,-1,0,42.9232,108.372)">
                    <circle cx="0.121" cy="0.036" r="1.594" style="fill:white;stroke:black;stroke-width:0.4px;"/>
                </g>
                <g transform="matrix(0,-1,-1,0,45.9973,108.213)">
                    <ellipse cx="1.579" cy="1.652" rx="1.594" ry="1.594" style="fill:white;stroke:black;stroke-width:0.4px;"/>
                </g>
                <g transform="matrix(0,-1,-1,0,48.4148,108.225)">
                    <circle cx="2.794" cy="2.855" r="1.594" style="fill:white;stroke:black;stroke-width:0.4px;"/>
                </g>
                <g transform="matrix(0,-1,-1,0,51.804,109.209)">
                    <circle cx="4.981" cy="4.057" r="1.594" style="fill:white;stroke:black;stroke-width:0.4px;"/>
                </g>
                <g transform="matrix(0,-1,-1,0,55.4362,110.436)">
                    <ellipse cx="7.41" cy="5.26" rx="1.594" ry="1.594" style="fill:white;stroke:black;stroke-width:0.4px;"/>
                </g>
                <g transform="matrix(0,-1,-1,0,59.8824,112.793)">
                    <circle cx="10.812" cy="6.305" r="1.594" style="fill:white;stroke:black;stroke-width:0.4px;"/>
                </g>
                <g transform="matrix(0,-1,-1,0,64.1949,115.283)">
                    <circle cx="14.213" cy="7.216" r="1.594" style="fill:white;stroke:black;stroke-width:0.4px;"/>
                </g>
                <g transform="matrix(0,-1,-1,0,68.641,117.64)">
                    <ellipse cx="17.614" cy="8.261" rx="1.594" ry="1.594" style="fill:white;stroke:black;stroke-width:0.4px;"/>
                </g>
                <g transform="matrix(0,-1,-1,0,78.3107,122.791)">
                    <ellipse cx="25.025" cy="10.52" rx="1.594" ry="1.594" style="fill:white;stroke:black;stroke-width:0.4px;"/>
                </g>
                <g transform="matrix(0,-1,-1,0,87.4703,127.237)">
                    <circle cx="31.827" cy="12.877" r="1.594" style="fill:white;stroke:black;stroke-width:0.4px;"/>
                </g>
                <g transform="matrix(0,-1,-1,0,95.002,130.395)">
                    <ellipse cx="37.173" cy="15.063" rx="1.594" ry="1.594" style="fill:white;stroke:black;stroke-width:0.4px;"/>
                </g>
                <g transform="matrix(0,-1,-1,0,108.608,135.254)">
                    <ellipse cx="46.405" cy="19.437" rx="1.594" ry="1.594" style="fill:white;stroke:black;stroke-width:0.4px;"/>
                </g>
                <g transform="matrix(0,-1,-1,0,120.027,138.17)">
                    <circle cx="53.572" cy="23.688" r="1.594" style="fill:white;stroke:black;stroke-width:0.4px;"/>
                </g>
                <g transform="matrix(0,-1,-1,0,128.895,138.534)">
                    <ellipse cx="58.188" cy="27.94" rx="1.594" ry="1.594" style="fill:white;stroke:black;stroke-width:0.4px;"/>
                </g>
                <g transform="matrix(0,-1,-1,0,138.856,139.263)">
                    <ellipse cx="63.534" cy="32.556" rx="1.594" ry="1.594" style="fill:white;stroke:black;stroke-width:0.4px;"/>
                </g>
                <g transform="matrix(0,-1,-1,0,145.902,137.805)">
                    <circle cx="66.328" cy="36.808" r="1.594" style="fill:white;stroke:black;stroke-width:0.4px;"/>
                </g>
                <g transform="matrix(0,-1,-1,0,152.947,135.862)">
                    <ellipse cx="68.879" cy="41.303" rx="1.594" ry="1.594" style="fill:white;stroke:black;stroke-width:0.4px;"/>
                </g>
                <g transform="matrix(0,-1,-1,0,161.087,134.768)">
                    <ellipse cx="72.401" cy="45.919" rx="1.594" ry="1.594" style="fill:white;stroke:black;stroke-width:0.4px;"/>
                </g>
                <g transform="matrix(0,-1,-1,0,167.889,132.339)">
                    <ellipse cx="74.588" cy="50.535" rx="1.594" ry="1.594" style="fill:white;stroke:black;stroke-width:0.4px;"/>
                </g>
                <g transform="matrix(0,-1,-1,0,173.234,129.666)">
                    <ellipse cx="75.924" cy="54.544" rx="1.594" ry="1.594" style="fill:white;stroke:black;stroke-width:0.4px;"/>
                </g>
                <g transform="matrix(0,-1,-1,0,179.065,126.508)">
                    <circle cx="77.261" cy="59.039" r="1.594" style="fill:white;stroke:black;stroke-width:0.4px;"/>
                </g>
                <g transform="matrix(0,-1,-1,0,185.261,123.471)">
                    <ellipse cx="78.84" cy="63.655" rx="1.594" ry="1.594" style="fill:white;stroke:black;stroke-width:0.4px;"/>
                </g>
                <g transform="matrix(0,-1,-1,0,190.97,120.434)">
                    <ellipse cx="80.176" cy="68.028" rx="1.594" ry="1.594" style="fill:white;stroke:black;stroke-width:0.4px;"/>
                </g>
                <g transform="matrix(0,-1,-1,0,200.932,112.659)">
                    <circle cx="81.269" cy="76.896" r="1.594" style="fill:white;stroke:black;stroke-width:0.4px;"/>
                </g>
            </g>
        </g>
    </g>
    <g id="ALL-AXES" serif:id="ALL AXES">
        <g id="AXES-UT" serif:id="AXES UT">
        </g>
    </g>
    <g id="EXP-LEGEND" serif:id="EXP LEGEND">
        <g transform="matrix(0,-1,-1,0,131.261,366.881)">
            <ellipse cx="8.504" cy="-0" rx="1.594" ry="1.594" style="fill:white;stroke:black;stroke-width:0.4px;"/>
        </g>
        <g>
            <g transform="matrix(11.9552,0,0,11.9552,137.682,361.584)">
                <path d="M0.093,-0L0.093,-0.723L0.333,-0.723C0.405,-0.723 0.463,-0.715 0.507,-0.699C0.551,-0.683 0.589,-0.656 0.622,-0.618C0.673,-0.557 0.698,-0.477 0.698,-0.378C0.698,-0.258 0.667,-0.165 0.603,-0.099C0.54,-0.033 0.45,-0 0.335,-0L0.093,-0ZM0.196,-0.077L0.327,-0.077C0.421,-0.077 0.487,-0.102 0.526,-0.152C0.568,-0.206 0.589,-0.278 0.589,-0.369C0.589,-0.454 0.569,-0.52 0.527,-0.569C0.502,-0.598 0.472,-0.619 0.438,-0.63C0.403,-0.641 0.35,-0.646 0.28,-0.646L0.196,-0.646L0.196,-0.077Z" style="fill-rule:nonzero;"/>
            </g>
            <g transform="matrix(11.9552,0,0,11.9552,146.409,361.584)">
                <path d="M0.37,-0.067C0.312,-0.014 0.257,0.012 0.203,0.012C0.159,0.012 0.123,-0.002 0.094,-0.029C0.065,-0.057 0.05,-0.091 0.05,-0.133C0.05,-0.191 0.075,-0.236 0.123,-0.267C0.172,-0.298 0.242,-0.313 0.333,-0.313L0.355,-0.313L0.355,-0.377C0.355,-0.439 0.324,-0.47 0.261,-0.47C0.21,-0.47 0.155,-0.454 0.096,-0.423L0.096,-0.502C0.161,-0.529 0.222,-0.542 0.278,-0.542C0.338,-0.542 0.381,-0.529 0.409,-0.502C0.438,-0.475 0.452,-0.434 0.452,-0.377L0.452,-0.137C0.452,-0.082 0.469,-0.055 0.502,-0.055C0.507,-0.055 0.513,-0.055 0.521,-0.057L0.528,-0.003C0.506,0.007 0.482,0.012 0.456,0.012C0.411,0.012 0.382,-0.014 0.37,-0.067ZM0.355,-0.12L0.355,-0.257L0.323,-0.258C0.271,-0.258 0.228,-0.248 0.195,-0.228C0.163,-0.208 0.146,-0.181 0.146,-0.149C0.146,-0.126 0.155,-0.106 0.171,-0.09C0.187,-0.074 0.207,-0.066 0.23,-0.066C0.271,-0.066 0.312,-0.084 0.355,-0.12Z" style="fill-rule:nonzero;"/>
            </g>
            <g transform="matrix(11.9552,0,0,11.9552,152.784,361.584)">
                <path d="M0.255,0.012C0.207,0.012 0.168,-0.002 0.141,-0.03C0.114,-0.058 0.1,-0.097 0.1,-0.146L0.1,-0.458L0.034,-0.458L0.034,-0.53L0.1,-0.53L0.1,-0.626L0.196,-0.636L0.196,-0.53L0.335,-0.53L0.335,-0.458L0.196,-0.458L0.196,-0.164C0.196,-0.095 0.226,-0.06 0.286,-0.06C0.299,-0.06 0.314,-0.062 0.333,-0.066L0.333,-0C0.303,0.008 0.277,0.012 0.255,0.012Z" style="fill-rule:nonzero;"/>
            </g>
            <g transform="matrix(11.9552,0,0,11.9552,157.028,361.584)">
                <path d="M0.37,-0.067C0.312,-0.014 0.257,0.012 0.203,0.012C0.159,0.012 0.123,-0.002 0.094,-0.029C0.065,-0.057 0.05,-0.091 0.05,-0.133C0.05,-0.191 0.075,-0.236 0.123,-0.267C0.172,-0.298 0.242,-0.313 0.333,-0.313L0.355,-0.313L0.355,-0.377C0.355,-0.439 0.324,-0.47 0.261,-0.47C0.21,-0.47 0.155,-0.454 0.096,-0.423L0.096,-0.502C0.161,-0.529 0.222,-0.542 0.278,-0.542C0.338,-0.542 0.381,-0.529 0.409,-0.502C0.438,-0.475 0.452,-0.434 0.452,-0.377L0.452,-0.137C0.452,-0.082 0.469,-0.055 0.502,-0.055C0.507,-0.055 0.513,-0.055 0.521,-0.057L0.528,-0.003C0.506,0.007 0.482,0.012 0.456,0.012C0.411,0.012 0.382,-0.014 0.37,-0.067ZM0.355,-0.12L0.355,-0.257L0.323,-0.258C0.271,-0.258 0.228,-0.248 0.195,-0.228C0.163,-0.208 0.146,-0.181 0.146,-0.149C0.146,-0.126 0.155,-0.106 0.171,-0.09C0.187,-0.074 0.207,-0.066 0.23,-0.066C0.271,-0.066 0.312,-0.084 0.355,-0.12Z" style="fill-rule:nonzero;"/>
            </g>
        </g>
    </g>
    <g id="anchors">
        <g transform="matrix(0.0874319,0,0,0.0874319,0,0)">
            <circle cx="5.719" cy="5.719" r="5.719"/>
        </g>
        <g transform="matrix(0.0874319,0,0,0.0874319,462.849,366.325)">
            <circle cx="5.719" cy="5.719" r="5.719"/>
        </g>
    </g>
</svg>
