<?xml version="1.0" encoding="UTF-8" standalone="no"?>
<!DOCTYPE svg PUBLIC "-//W3C//DTD SVG 1.1//EN" "http://www.w3.org/Graphics/SVG/1.1/DTD/svg11.dtd">
<svg width="100%" height="100%" viewBox="0 0 387 250" version="1.1" xmlns="http://www.w3.org/2000/svg" xmlns:xlink="http://www.w3.org/1999/xlink" xml:space="preserve" xmlns:serif="http://www.serif.com/" style="fill-rule:evenodd;clip-rule:evenodd;stroke-miterlimit:10;">
    <g id="sgm_xx-NN" serif:id="sgm_xx NN">
        <g transform="matrix(1.96774,0,0,-1.77149,67.9738,152.052)">
            <path d="M4.62,1.791L5.292,1.789L6.115,1.787L6.937,1.785L7.759,1.784L8.544,1.783L9.291,1.782L10.002,1.782L10.824,1.783L11.646,1.786L12.468,1.789L13.291,1.795L14.038,1.8L14.748,1.809L15.57,1.821L16.43,1.836L17.29,1.855L18.112,1.88L18.897,1.905L19.607,1.937L20.467,1.979L21.364,2.032L22.223,2.094L23.083,2.167L23.868,2.243L24.578,2.331L25.475,2.451L26.335,2.587L27.232,2.751L28.091,2.936L28.913,3.131L29.624,3.341L30.521,3.624L31.418,3.949L32.315,4.329L33.212,4.752L34.071,5.192L34.819,5.655L35.716,6.244L36.65,6.937L37.547,7.668L38.481,8.518L39.341,9.335L40.089,10.164L40.986,11.188L41.92,12.347L42.854,13.562L43.789,14.877L44.686,16.134L45.433,17.325L46.368,18.782L47.339,20.361L48.311,21.976L49.246,23.531L50.18,25.057L50.927,26.383L51.899,28.011L52.871,29.572L53.843,31.132L54.777,32.603L55.749,33.98" style="fill:none;fill-rule:nonzero;stroke:white;stroke-width:0.8px;"/>
        </g>
        <g transform="matrix(1.96774,0,0,-1.77149,67.9738,152.052)">
            <path d="M4.62,1.791L4.956,1.788L5.367,1.785L5.741,1.783L6.152,1.782L6.563,1.783L6.937,1.784L7.273,1.788L7.684,1.794L8.095,1.803L8.507,1.815L8.918,1.83L9.291,1.846L9.628,1.868L10.039,1.896L10.45,1.931L10.861,1.972L11.272,2.022L11.646,2.069L11.982,2.13L12.394,2.208L12.842,2.303L13.253,2.405L13.664,2.526L14.038,2.641L14.374,2.788L14.823,2.966L15.234,3.176L15.645,3.406L16.094,3.679L16.468,3.924L16.804,4.229L17.252,4.611L17.664,5.037L18.075,5.515L18.523,6.035L18.897,6.532L19.233,7.119L19.682,7.871L20.093,8.669L20.541,9.56L20.953,10.569L21.364,11.476L21.7,12.561L22.149,13.879L22.597,15.267L23.008,16.814L23.457,18.509L23.868,20.057L24.204,21.809L24.653,23.894L25.101,26.208L25.512,28.572L25.961,31.202L26.372,33.475L26.708,36.015L27.157,39.078L27.605,42.299L28.054,45.673L28.502,49.195L28.913,52.305" style="fill:none;fill-rule:nonzero;stroke:rgb(187,55,84);stroke-width:0.8px;"/>
        </g>
    </g>
    <g id="sgm_yy-NN" serif:id="sgm_yy NN">
        <g transform="matrix(1.96367,0,0,-1.76418,242.65,151.877)">
            <path d="M4.62,1.434L5.292,1.548L6.115,1.433L6.937,1.433L7.759,1.548L8.544,1.663L9.291,1.547L10.002,1.547L10.824,1.793L11.646,1.547L12.468,1.547L13.291,1.547L14.038,1.547L14.748,1.797L15.57,1.547L17.29,1.547L18.112,1.547L18.897,1.668L19.607,1.668L20.467,1.669L21.364,1.925L22.223,2.171L23.083,2.296L23.868,2.052L24.578,2.424L25.475,2.564L26.335,2.692L27.232,3.457L28.091,3.464L28.913,3.985L29.624,3.992L30.521,4.633L31.418,4.91L32.315,5.827L33.212,6.749L34.071,7.69L34.819,8.35L35.716,9.161L36.65,10.38L37.547,11.865L38.481,13.232L39.341,14.199L40.089,15.835L40.986,17.49L41.92,19.157L42.854,20.849L43.789,23.218L44.686,24.771L45.433,26.334L46.368,28.743L47.339,31.037L48.311,33.766L49.246,36.223L50.18,39.242L50.927,40.736L51.899,43.806L52.871,46.608L53.843,50.283L54.777,53.395L55.749,56.978" style="fill:none;fill-rule:nonzero;stroke:white;stroke-width:0.8px;"/>
        </g>
        <g transform="matrix(1.96367,0,0,-1.76418,242.65,151.877)">
            <path d="M4.62,1.434L4.956,1.434L5.367,1.662L5.741,1.662L6.152,1.433L6.563,1.548L6.937,1.548L7.273,1.548L7.684,1.432L8.095,1.548L8.507,1.548L8.918,1.663L9.291,1.547L9.628,1.664L10.039,1.547L10.45,1.547L10.861,1.793L11.272,1.547L11.646,1.547L11.982,1.794L12.394,1.547L12.842,1.665L13.253,1.547L13.664,1.547L14.038,1.666L14.374,1.547L14.823,1.547L15.234,1.916L15.645,1.547L16.094,1.547L16.468,1.798L16.804,1.547L17.252,1.667L17.664,1.547L18.075,1.667L18.523,1.8L18.897,2.405L19.233,2.164L19.682,2.165L20.093,2.409L20.541,2.544L20.953,2.789L21.364,3.291L21.7,3.037L22.149,3.542L22.597,3.79L23.008,4.052L23.457,3.933L23.868,4.307L24.204,4.558L24.653,4.823L25.101,5.46L25.512,5.59L25.961,6.355L26.372,6.612L26.708,7.13L27.157,7.527L27.605,7.913L28.054,8.688L28.502,9.215L28.913,9.605" style="fill:none;fill-rule:nonzero;stroke:rgb(187,55,84);stroke-width:0.8px;"/>
        </g>
    </g>
    <g id="Anchors">
        <g transform="matrix(0.124477,0,0,0.124477,338.764,-0.673978)">
            <circle cx="382.91" cy="9.431" r="4.017" style="stroke:black;stroke-width:8.03px;stroke-linecap:round;stroke-linejoin:round;stroke-miterlimit:1.5;"/>
        </g>
        <g transform="matrix(0.114771,0,0,0.114771,0,205.756)">
            <circle cx="4.357" cy="381.145" r="4.357" style="stroke:black;stroke-width:8.71px;stroke-linecap:round;stroke-linejoin:round;stroke-miterlimit:1.5;"/>
        </g>
    </g>
</svg>
