<?xml version="1.0" encoding="UTF-8" standalone="no"?>
<!DOCTYPE svg PUBLIC "-//W3C//DTD SVG 1.1//EN" "http://www.w3.org/Graphics/SVG/1.1/DTD/svg11.dtd">
<svg width="100%" height="100%" viewBox="0 0 387 250" version="1.1" xmlns="http://www.w3.org/2000/svg" xmlns:xlink="http://www.w3.org/1999/xlink" xml:space="preserve" xmlns:serif="http://www.serif.com/" style="fill-rule:evenodd;clip-rule:evenodd;stroke-miterlimit:10;">
    <g id="sgm_xx-axes" serif:id="sgm_xx axes">
        <g transform="matrix(1.96774,0,0,-1.77149,67.9738,152.052)">
            <path d="M4.62,-2.126L4.62,2.126M27.717,-2.126L27.717,2.126M50.815,-2.126L50.815,2.126" style="fill:white;fill-rule:nonzero;stroke:white;stroke-width:0.2px;"/>
        </g>
        <g transform="matrix(1.96774,0,0,-1.77149,67.9738,152.052)">
            <path d="M-2.126,1.782L2.126,1.782M-2.126,19.6L2.126,19.6M-2.126,37.418L2.126,37.418M-2.126,55.237L2.126,55.237" style="fill:white;fill-rule:nonzero;stroke:white;stroke-width:0.2px;"/>
        </g>
        <g transform="matrix(1.96774,0,0,-1.77149,67.9738,152.052)">
            <path d="M0,0L60.372,0" style="fill:none;fill-rule:nonzero;stroke:white;stroke-width:0.4px;"/>
        </g>
        <g transform="matrix(1.96774,0,0,-1.77149,186.77,152.052)">
            <path d="M1.993,0L-1.196,1.594L0,0L-1.196,-1.594" style="fill:white;fill-rule:nonzero;stroke:white;stroke-width:0.53px;stroke-linejoin:round;stroke-miterlimit:2;"/>
        </g>
        <g transform="matrix(1.96774,0,0,-1.77149,67.9738,152.052)">
            <path d="M0,0L0,60.371" style="fill:none;fill-rule:nonzero;stroke:white;stroke-width:0.4px;"/>
        </g>
        <g transform="matrix(0,-1.77149,-1.96774,0,67.9738,45.1051)">
            <path d="M1.993,0L-1.196,1.594L0,0L-1.196,-1.594" style="fill:white;fill-rule:nonzero;stroke:white;stroke-width:0.53px;stroke-linejoin:round;stroke-miterlimit:2;"/>
        </g>
        <g transform="matrix(1.96774,0,0,1.77149,66.0248,171.509)">
            <g>
                <g transform="matrix(6.58581,0,0,6.58581,0,0)">
                    <path d="M0.15,-0L0.15,-0.072L0.295,-0.072L0.295,-0.643L0.15,-0.606L0.15,-0.681L0.392,-0.741L0.392,-0.072L0.536,-0.072L0.536,-0L0.15,-0Z" style="fill:white;fill-rule:nonzero;"/>
                </g>
                <g transform="matrix(6.58581,0,0,6.58581,4.16437,0)">
                    <rect x="0.098" y="-0.121" width="0.121" height="0.121" style="fill:white;fill-rule:nonzero;"/>
                </g>
                <g transform="matrix(6.58581,0,0,6.58581,6.24816,0)">
                    <path d="M0.313,0.018C0.239,0.018 0.179,-0.017 0.133,-0.087C0.087,-0.157 0.063,-0.249 0.063,-0.362C0.063,-0.476 0.087,-0.567 0.133,-0.637C0.179,-0.706 0.241,-0.741 0.316,-0.741C0.392,-0.741 0.453,-0.706 0.5,-0.637C0.546,-0.567 0.569,-0.476 0.569,-0.363C0.569,-0.247 0.546,-0.155 0.5,-0.086C0.453,-0.017 0.391,0.018 0.313,0.018ZM0.314,-0.054C0.416,-0.054 0.467,-0.158 0.467,-0.365C0.467,-0.567 0.417,-0.668 0.316,-0.668C0.216,-0.668 0.166,-0.566 0.166,-0.362C0.166,-0.157 0.215,-0.054 0.314,-0.054Z" style="fill:white;fill-rule:nonzero;"/>
                </g>
            </g>
        </g>
        <g transform="matrix(1.96774,0,0,1.77149,111.74,171.72)">
            <g>
                <g transform="matrix(6.58581,0,0,6.58581,0,0)">
                    <path d="M0.15,-0L0.15,-0.072L0.295,-0.072L0.295,-0.643L0.15,-0.606L0.15,-0.681L0.392,-0.741L0.392,-0.072L0.536,-0.072L0.536,-0L0.15,-0Z" style="fill:white;fill-rule:nonzero;"/>
                </g>
                <g transform="matrix(6.58581,0,0,6.58581,4.16437,0)">
                    <rect x="0.098" y="-0.121" width="0.121" height="0.121" style="fill:white;fill-rule:nonzero;"/>
                </g>
                <g transform="matrix(6.58581,0,0,6.58581,6.24816,0)">
                    <path d="M0.15,-0L0.15,-0.072L0.295,-0.072L0.295,-0.643L0.15,-0.606L0.15,-0.681L0.392,-0.741L0.392,-0.072L0.536,-0.072L0.536,-0L0.15,-0Z" style="fill:white;fill-rule:nonzero;"/>
                </g>
            </g>
        </g>
        <g transform="matrix(1.96774,0,0,1.77149,157.378,171.509)">
            <g>
                <g transform="matrix(6.58581,0,0,6.58581,0,0)">
                    <path d="M0.15,-0L0.15,-0.072L0.295,-0.072L0.295,-0.643L0.15,-0.606L0.15,-0.681L0.392,-0.741L0.392,-0.072L0.536,-0.072L0.536,-0L0.15,-0Z" style="fill:white;fill-rule:nonzero;"/>
                </g>
                <g transform="matrix(6.58581,0,0,6.58581,4.16437,0)">
                    <rect x="0.098" y="-0.121" width="0.121" height="0.121" style="fill:white;fill-rule:nonzero;"/>
                </g>
                <g transform="matrix(6.58581,0,0,6.58581,6.24816,0)">
                    <path d="M0.083,-0L0.083,-0.084C0.111,-0.15 0.168,-0.221 0.253,-0.298L0.308,-0.348C0.379,-0.412 0.415,-0.475 0.415,-0.539C0.415,-0.579 0.402,-0.611 0.378,-0.634C0.354,-0.657 0.321,-0.668 0.278,-0.668C0.228,-0.668 0.169,-0.649 0.101,-0.61L0.101,-0.695C0.165,-0.726 0.229,-0.741 0.292,-0.741C0.36,-0.741 0.414,-0.722 0.455,-0.686C0.496,-0.65 0.517,-0.601 0.517,-0.541C0.517,-0.498 0.506,-0.459 0.486,-0.426C0.465,-0.392 0.426,-0.352 0.37,-0.304L0.333,-0.272C0.256,-0.207 0.211,-0.144 0.199,-0.084L0.513,-0.084L0.513,-0L0.083,-0Z" style="fill:white;fill-rule:nonzero;"/>
                </g>
            </g>
        </g>
        <g transform="matrix(12.9592,0,0,11.6667,53.0796,152.429)">
            <path d="M0.313,0.018C0.239,0.018 0.179,-0.017 0.133,-0.087C0.087,-0.157 0.063,-0.249 0.063,-0.362C0.063,-0.476 0.087,-0.567 0.133,-0.637C0.179,-0.706 0.241,-0.741 0.316,-0.741C0.392,-0.741 0.453,-0.706 0.5,-0.637C0.546,-0.567 0.569,-0.476 0.569,-0.363C0.569,-0.247 0.546,-0.155 0.5,-0.086C0.453,-0.017 0.391,0.018 0.313,0.018ZM0.314,-0.054C0.416,-0.054 0.467,-0.158 0.467,-0.365C0.467,-0.567 0.417,-0.668 0.316,-0.668C0.216,-0.668 0.166,-0.566 0.166,-0.362C0.166,-0.157 0.215,-0.054 0.314,-0.054Z" style="fill:white;fill-rule:nonzero;"/>
        </g>
        <g transform="matrix(1.96774,0,0,1.77149,44.8852,121.422)">
            <g>
                <g transform="matrix(6.58581,0,0,6.58581,0,0)">
                    <path d="M0.122,0.003L0.122,-0.083C0.169,-0.064 0.215,-0.054 0.258,-0.054C0.306,-0.054 0.343,-0.068 0.37,-0.096C0.398,-0.124 0.411,-0.163 0.411,-0.212C0.411,-0.32 0.336,-0.375 0.187,-0.375C0.17,-0.375 0.152,-0.373 0.134,-0.371L0.134,-0.723L0.5,-0.723L0.5,-0.639L0.218,-0.639L0.218,-0.448C0.311,-0.448 0.383,-0.427 0.436,-0.384C0.488,-0.342 0.514,-0.283 0.514,-0.207C0.514,-0.137 0.49,-0.082 0.443,-0.042C0.395,-0.002 0.33,0.018 0.246,0.018C0.209,0.018 0.168,0.013 0.122,0.003Z" style="fill:white;fill-rule:nonzero;"/>
                </g>
                <g transform="matrix(6.58581,0,0,6.58581,4.16437,0)">
                    <path d="M0.313,0.018C0.239,0.018 0.179,-0.017 0.133,-0.087C0.087,-0.157 0.063,-0.249 0.063,-0.362C0.063,-0.476 0.087,-0.567 0.133,-0.637C0.179,-0.706 0.241,-0.741 0.316,-0.741C0.392,-0.741 0.453,-0.706 0.5,-0.637C0.546,-0.567 0.569,-0.476 0.569,-0.363C0.569,-0.247 0.546,-0.155 0.5,-0.086C0.453,-0.017 0.391,0.018 0.313,0.018ZM0.314,-0.054C0.416,-0.054 0.467,-0.158 0.467,-0.365C0.467,-0.567 0.417,-0.668 0.316,-0.668C0.216,-0.668 0.166,-0.566 0.166,-0.362C0.166,-0.157 0.215,-0.054 0.314,-0.054Z" style="fill:white;fill-rule:nonzero;"/>
                </g>
            </g>
        </g>
        <g transform="matrix(1.96774,0,0,1.77149,36.6908,89.6996)">
            <g>
                <g transform="matrix(6.58581,0,0,6.58581,0,0)">
                    <path d="M0.15,-0L0.15,-0.072L0.295,-0.072L0.295,-0.643L0.15,-0.606L0.15,-0.681L0.392,-0.741L0.392,-0.072L0.536,-0.072L0.536,-0L0.15,-0Z" style="fill:white;fill-rule:nonzero;"/>
                </g>
                <g transform="matrix(6.58581,0,0,6.58581,4.16437,0)">
                    <path d="M0.313,0.018C0.239,0.018 0.179,-0.017 0.133,-0.087C0.087,-0.157 0.063,-0.249 0.063,-0.362C0.063,-0.476 0.087,-0.567 0.133,-0.637C0.179,-0.706 0.241,-0.741 0.316,-0.741C0.392,-0.741 0.453,-0.706 0.5,-0.637C0.546,-0.567 0.569,-0.476 0.569,-0.363C0.569,-0.247 0.546,-0.155 0.5,-0.086C0.453,-0.017 0.391,0.018 0.313,0.018ZM0.314,-0.054C0.416,-0.054 0.467,-0.158 0.467,-0.365C0.467,-0.567 0.417,-0.668 0.316,-0.668C0.216,-0.668 0.166,-0.566 0.166,-0.362C0.166,-0.157 0.215,-0.054 0.314,-0.054Z" style="fill:white;fill-rule:nonzero;"/>
                </g>
                <g transform="matrix(6.58581,0,0,6.58581,8.32874,0)">
                    <path d="M0.313,0.018C0.239,0.018 0.179,-0.017 0.133,-0.087C0.087,-0.157 0.063,-0.249 0.063,-0.362C0.063,-0.476 0.087,-0.567 0.133,-0.637C0.179,-0.706 0.241,-0.741 0.316,-0.741C0.392,-0.741 0.453,-0.706 0.5,-0.637C0.546,-0.567 0.569,-0.476 0.569,-0.363C0.569,-0.247 0.546,-0.155 0.5,-0.086C0.453,-0.017 0.391,0.018 0.313,0.018ZM0.314,-0.054C0.416,-0.054 0.467,-0.158 0.467,-0.365C0.467,-0.567 0.417,-0.668 0.316,-0.668C0.216,-0.668 0.166,-0.566 0.166,-0.362C0.166,-0.157 0.215,-0.054 0.314,-0.054Z" style="fill:white;fill-rule:nonzero;"/>
                </g>
            </g>
        </g>
        <g transform="matrix(1.96774,0,0,1.77149,36.6908,59.1383)">
            <g>
                <g transform="matrix(6.58581,0,0,6.58581,0,0)">
                    <path d="M0.15,-0L0.15,-0.072L0.295,-0.072L0.295,-0.643L0.15,-0.606L0.15,-0.681L0.392,-0.741L0.392,-0.072L0.536,-0.072L0.536,-0L0.15,-0Z" style="fill:white;fill-rule:nonzero;"/>
                </g>
                <g transform="matrix(6.58581,0,0,6.58581,4.16437,0)">
                    <path d="M0.122,0.003L0.122,-0.083C0.169,-0.064 0.215,-0.054 0.258,-0.054C0.306,-0.054 0.343,-0.068 0.37,-0.096C0.398,-0.124 0.411,-0.163 0.411,-0.212C0.411,-0.32 0.336,-0.375 0.187,-0.375C0.17,-0.375 0.152,-0.373 0.134,-0.371L0.134,-0.723L0.5,-0.723L0.5,-0.639L0.218,-0.639L0.218,-0.448C0.311,-0.448 0.383,-0.427 0.436,-0.384C0.488,-0.342 0.514,-0.283 0.514,-0.207C0.514,-0.137 0.49,-0.082 0.443,-0.042C0.395,-0.002 0.33,0.018 0.246,0.018C0.209,0.018 0.168,0.013 0.122,0.003Z" style="fill:white;fill-rule:nonzero;"/>
                </g>
                <g transform="matrix(6.58581,0,0,6.58581,8.32874,0)">
                    <path d="M0.313,0.018C0.239,0.018 0.179,-0.017 0.133,-0.087C0.087,-0.157 0.063,-0.249 0.063,-0.362C0.063,-0.476 0.087,-0.567 0.133,-0.637C0.179,-0.706 0.241,-0.741 0.316,-0.741C0.392,-0.741 0.453,-0.706 0.5,-0.637C0.546,-0.567 0.569,-0.476 0.569,-0.363C0.569,-0.247 0.546,-0.155 0.5,-0.086C0.453,-0.017 0.391,0.018 0.313,0.018ZM0.314,-0.054C0.416,-0.054 0.467,-0.158 0.467,-0.365C0.467,-0.567 0.417,-0.668 0.316,-0.668C0.216,-0.668 0.166,-0.566 0.166,-0.362C0.166,-0.157 0.215,-0.054 0.314,-0.054Z" style="fill:white;fill-rule:nonzero;"/>
                </g>
            </g>
        </g>
        <g transform="matrix(1,0,0,1,21.0697,253.827)">
            <g transform="matrix(1,0,0,1,16.42,-222.267)">
                <g transform="matrix(11.9552,0,0,11.9552,0,0)">
                    <path d="M0.096,0.145L0.096,-0.771L0.289,-0.771L0.289,-0.699L0.181,-0.699L0.181,0.072L0.289,0.072L0.289,0.145L0.096,0.145Z" style="fill:white;fill-rule:nonzero;"/>
                </g>
                <g transform="matrix(11.9552,0,0,11.9552,3.88777,0)">
                    <path d="M0.096,-0L0.096,-0.771L0.192,-0.771L0.192,-0.273L0.417,-0.53L0.521,-0.53L0.306,-0.283L0.565,-0L0.442,-0L0.192,-0.272L0.192,-0L0.096,-0Z" style="fill:white;fill-rule:nonzero;"/>
                </g>
                <g transform="matrix(11.9552,0,0,11.9552,10.8753,0)">
                    <path d="M0.093,-0L0.093,-0.723L0.29,-0.723C0.377,-0.723 0.44,-0.708 0.478,-0.678C0.516,-0.649 0.535,-0.601 0.535,-0.533C0.535,-0.456 0.509,-0.396 0.457,-0.353C0.405,-0.309 0.333,-0.287 0.24,-0.287L0.195,-0.287L0.195,-0L0.093,-0ZM0.195,-0.365L0.236,-0.365C0.297,-0.365 0.344,-0.379 0.377,-0.407C0.411,-0.435 0.427,-0.474 0.427,-0.525C0.427,-0.569 0.414,-0.6 0.388,-0.618C0.362,-0.637 0.319,-0.646 0.258,-0.646L0.195,-0.646L0.195,-0.365Z" style="fill:white;fill-rule:nonzero;"/>
                </g>
                <g transform="matrix(11.9552,0,0,11.9552,17.4833,0)">
                    <path d="M0.37,-0.067C0.312,-0.014 0.257,0.012 0.203,0.012C0.159,0.012 0.123,-0.002 0.094,-0.029C0.065,-0.057 0.05,-0.091 0.05,-0.133C0.05,-0.191 0.075,-0.236 0.123,-0.267C0.172,-0.298 0.242,-0.313 0.333,-0.313L0.355,-0.313L0.355,-0.377C0.355,-0.439 0.324,-0.47 0.261,-0.47C0.21,-0.47 0.155,-0.454 0.096,-0.423L0.096,-0.502C0.161,-0.529 0.222,-0.542 0.278,-0.542C0.338,-0.542 0.381,-0.529 0.409,-0.502C0.438,-0.475 0.452,-0.434 0.452,-0.377L0.452,-0.137C0.452,-0.082 0.469,-0.055 0.502,-0.055C0.507,-0.055 0.513,-0.055 0.521,-0.057L0.528,-0.003C0.506,0.007 0.482,0.012 0.456,0.012C0.411,0.012 0.382,-0.014 0.37,-0.067ZM0.355,-0.12L0.355,-0.257L0.323,-0.258C0.271,-0.258 0.228,-0.248 0.195,-0.228C0.163,-0.208 0.146,-0.181 0.146,-0.149C0.146,-0.126 0.155,-0.106 0.171,-0.09C0.187,-0.074 0.207,-0.066 0.23,-0.066C0.271,-0.066 0.312,-0.084 0.355,-0.12Z" style="fill:white;fill-rule:nonzero;"/>
                </g>
                <g transform="matrix(11.9552,0,0,11.9552,24.0855,0)">
                    <path d="M0.229,0.145L0.229,-0.771L0.036,-0.771L0.036,-0.699L0.145,-0.699L0.145,0.072L0.036,0.072L0.036,0.145L0.229,0.145Z" style="fill:white;fill-rule:nonzero;"/>
                </g>
            </g>
            <g transform="matrix(1,0,0,1,7.70205,-220.474)">
                <g transform="matrix(8.7671,0,0,8.7671,0,0)">
                    <path d="M0.023,-0.042L0.107,-0.042L0.236,-0.24L0.362,-0.042L0.453,-0.042L0.287,-0.294L0.441,-0.538L0.358,-0.538L0.245,-0.349L0.121,-0.538L0.031,-0.538L0.192,-0.294L0.023,-0.042Z" style="fill:white;fill-rule:nonzero;"/>
                </g>
                <g transform="matrix(8.7671,0,0,8.7671,4.18191,0)">
                    <path d="M0.023,-0.042L0.107,-0.042L0.236,-0.24L0.362,-0.042L0.453,-0.042L0.287,-0.294L0.441,-0.538L0.358,-0.538L0.245,-0.349L0.121,-0.538L0.031,-0.538L0.192,-0.294L0.023,-0.042Z" style="fill:white;fill-rule:nonzero;"/>
                </g>
            </g>
            <g transform="matrix(11.9552,0,0,11.9552,0.302046,-222.267)">
                <path d="M0.387,-0.49C0.457,-0.487 0.489,-0.487 0.51,-0.487L0.513,-0.545C0.495,-0.544 0.441,-0.545 0.409,-0.545L0.272,-0.545C0.134,-0.545 0.037,-0.455 0.037,-0.3C0.037,-0.153 0.133,-0.063 0.256,-0.063C0.359,-0.063 0.476,-0.137 0.476,-0.307C0.476,-0.38 0.443,-0.448 0.387,-0.487L0.387,-0.49ZM0.258,-0.121C0.176,-0.121 0.115,-0.199 0.115,-0.304C0.115,-0.392 0.159,-0.487 0.258,-0.487C0.358,-0.487 0.399,-0.386 0.399,-0.307C0.399,-0.199 0.337,-0.121 0.258,-0.121Z" style="fill:white;fill-rule:nonzero;"/>
            </g>
        </g>
        <g transform="matrix(1,0,0,1,-115.483,317.119)">
            <g transform="matrix(8.7671,0,0,8.7671,238.961,-125.09)">
                <path d="M0.023,-0.042L0.107,-0.042L0.236,-0.24L0.362,-0.042L0.453,-0.042L0.287,-0.294L0.441,-0.538L0.358,-0.538L0.245,-0.349L0.121,-0.538L0.031,-0.538L0.192,-0.294L0.023,-0.042Z" style="fill:white;fill-rule:nonzero;"/>
            </g>
            <g transform="matrix(11.9552,0,0,11.9552,232.444,-126.206)">
                <path d="M0.349,-0.073L0.431,-0.073L0.253,-0.543C0.202,-0.675 0.162,-0.761 0.072,-0.761C0.062,-0.761 0.05,-0.76 0.042,-0.758L0.035,-0.699L0.051,-0.699C0.109,-0.699 0.143,-0.632 0.174,-0.548C0.179,-0.536 0.18,-0.528 0.18,-0.524C0.18,-0.519 0.179,-0.511 0.175,-0.501L0.007,-0.073L0.086,-0.073L0.186,-0.347C0.196,-0.378 0.21,-0.414 0.216,-0.445L0.22,-0.445C0.23,-0.407 0.241,-0.376 0.253,-0.344L0.349,-0.073Z" style="fill:white;fill-rule:nonzero;"/>
            </g>
        </g>
    </g>
    <g id="sgm_yy-axes" serif:id="sgm_yy axes">
        <g transform="matrix(1.96367,0,0,-1.76418,242.65,151.877)">
            <path d="M4.62,-2.126L4.62,2.126M27.717,-2.126L27.717,2.126M50.815,-2.126L50.815,2.126" style="fill:white;fill-rule:nonzero;stroke:white;stroke-width:0.2px;"/>
        </g>
        <g transform="matrix(1.96367,0,0,-1.76418,242.65,151.877)">
            <path d="M-2.126,1.559L2.126,1.559M-2.126,17.15L2.126,17.15M-2.126,32.741L2.126,32.741M-2.126,48.333L2.126,48.333" style="fill:white;fill-rule:nonzero;stroke:white;stroke-width:0.2px;"/>
        </g>
        <g transform="matrix(1.96367,0,0,-1.76418,242.65,151.877)">
            <path d="M0,0L60.372,0" style="fill:none;fill-rule:nonzero;stroke:white;stroke-width:0.4px;"/>
        </g>
        <g transform="matrix(1.96367,0,0,-1.76418,361.2,151.877)">
            <path d="M1.993,0L-1.196,1.594L0,0L-1.196,-1.594" style="fill:white;fill-rule:nonzero;stroke:white;stroke-width:0.54px;stroke-linejoin:round;stroke-miterlimit:2;"/>
        </g>
        <g transform="matrix(1.96367,0,0,-1.76418,242.65,151.877)">
            <path d="M0,0L0,60.372" style="fill:none;fill-rule:nonzero;stroke:white;stroke-width:0.4px;"/>
        </g>
        <g transform="matrix(0,-1.76418,-1.96367,0,242.65,45.3696)">
            <path d="M1.993,0L-1.196,1.594L0,0L-1.196,-1.594" style="fill:white;fill-rule:nonzero;stroke:white;stroke-width:0.54px;stroke-linejoin:round;stroke-miterlimit:2;"/>
        </g>
        <g transform="matrix(1.96367,0,0,1.76418,241.135,171.975)">
            <g>
                <g transform="matrix(6.61308,0,0,6.61308,0,0)">
                    <path d="M0.15,-0L0.15,-0.072L0.295,-0.072L0.295,-0.643L0.15,-0.606L0.15,-0.681L0.392,-0.741L0.392,-0.072L0.536,-0.072L0.536,-0L0.15,-0Z" style="fill:white;fill-rule:nonzero;"/>
                </g>
                <g transform="matrix(6.61308,0,0,6.61308,4.18161,0)">
                    <rect x="0.098" y="-0.121" width="0.121" height="0.121" style="fill:white;fill-rule:nonzero;"/>
                </g>
                <g transform="matrix(6.61308,0,0,6.61308,6.27403,0)">
                    <path d="M0.313,0.018C0.239,0.018 0.179,-0.017 0.133,-0.087C0.087,-0.157 0.063,-0.249 0.063,-0.362C0.063,-0.476 0.087,-0.567 0.133,-0.637C0.179,-0.706 0.241,-0.741 0.316,-0.741C0.392,-0.741 0.453,-0.706 0.5,-0.637C0.546,-0.567 0.569,-0.476 0.569,-0.363C0.569,-0.247 0.546,-0.155 0.5,-0.086C0.453,-0.017 0.391,0.018 0.313,0.018ZM0.314,-0.054C0.416,-0.054 0.467,-0.158 0.467,-0.365C0.467,-0.567 0.417,-0.668 0.316,-0.668C0.216,-0.668 0.166,-0.566 0.166,-0.362C0.166,-0.157 0.215,-0.054 0.314,-0.054Z" style="fill:white;fill-rule:nonzero;"/>
                </g>
            </g>
        </g>
        <g transform="matrix(1.96367,0,0,1.76418,286.869,171.975)">
            <g>
                <g transform="matrix(6.61308,0,0,6.61308,0,0)">
                    <path d="M0.15,-0L0.15,-0.072L0.295,-0.072L0.295,-0.643L0.15,-0.606L0.15,-0.681L0.392,-0.741L0.392,-0.072L0.536,-0.072L0.536,-0L0.15,-0Z" style="fill:white;fill-rule:nonzero;"/>
                </g>
                <g transform="matrix(6.61308,0,0,6.61308,4.18161,0)">
                    <rect x="0.098" y="-0.121" width="0.121" height="0.121" style="fill:white;fill-rule:nonzero;"/>
                </g>
                <g transform="matrix(6.61308,0,0,6.61308,6.27403,0)">
                    <path d="M0.15,-0L0.15,-0.072L0.295,-0.072L0.295,-0.643L0.15,-0.606L0.15,-0.681L0.392,-0.741L0.392,-0.072L0.536,-0.072L0.536,-0L0.15,-0Z" style="fill:white;fill-rule:nonzero;"/>
                </g>
            </g>
        </g>
        <g transform="matrix(1.96367,0,0,1.76418,332.314,171.975)">
            <g>
                <g transform="matrix(6.61308,0,0,6.61308,0,0)">
                    <path d="M0.15,-0L0.15,-0.072L0.295,-0.072L0.295,-0.643L0.15,-0.606L0.15,-0.681L0.392,-0.741L0.392,-0.072L0.536,-0.072L0.536,-0L0.15,-0Z" style="fill:white;fill-rule:nonzero;"/>
                </g>
                <g transform="matrix(6.61308,0,0,6.61308,4.18161,0)">
                    <rect x="0.098" y="-0.121" width="0.121" height="0.121" style="fill:white;fill-rule:nonzero;"/>
                </g>
                <g transform="matrix(6.61308,0,0,6.61308,6.27403,0)">
                    <path d="M0.083,-0L0.083,-0.084C0.111,-0.15 0.168,-0.221 0.253,-0.298L0.308,-0.348C0.379,-0.412 0.415,-0.475 0.415,-0.539C0.415,-0.579 0.402,-0.611 0.378,-0.634C0.354,-0.657 0.321,-0.668 0.278,-0.668C0.228,-0.668 0.169,-0.649 0.101,-0.61L0.101,-0.695C0.165,-0.726 0.229,-0.741 0.292,-0.741C0.36,-0.741 0.414,-0.722 0.455,-0.686C0.496,-0.65 0.517,-0.601 0.517,-0.541C0.517,-0.498 0.506,-0.459 0.486,-0.426C0.465,-0.392 0.426,-0.352 0.37,-0.304L0.333,-0.272C0.256,-0.207 0.211,-0.144 0.199,-0.084L0.513,-0.084L0.513,-0L0.083,-0Z" style="fill:white;fill-rule:nonzero;"/>
                </g>
            </g>
        </g>
        <g transform="matrix(12.9859,0,0,11.6667,229.522,151.729)">
            <path d="M0.313,0.018C0.239,0.018 0.179,-0.017 0.133,-0.087C0.087,-0.157 0.063,-0.249 0.063,-0.362C0.063,-0.476 0.087,-0.567 0.133,-0.637C0.179,-0.706 0.241,-0.741 0.316,-0.741C0.392,-0.741 0.453,-0.706 0.5,-0.637C0.546,-0.567 0.569,-0.476 0.569,-0.363C0.569,-0.247 0.546,-0.155 0.5,-0.086C0.453,-0.017 0.391,0.018 0.313,0.018ZM0.314,-0.054C0.416,-0.054 0.467,-0.158 0.467,-0.365C0.467,-0.567 0.417,-0.668 0.316,-0.668C0.216,-0.668 0.166,-0.566 0.166,-0.362C0.166,-0.157 0.215,-0.054 0.314,-0.054Z" style="fill:white;fill-rule:nonzero;"/>
        </g>
        <g transform="matrix(1.96367,0,0,1.76418,212.493,125.137)">
            <g>
                <g transform="matrix(6.61308,0,0,6.61308,0,0)">
                    <path d="M0.15,-0L0.15,-0.072L0.295,-0.072L0.295,-0.643L0.15,-0.606L0.15,-0.681L0.392,-0.741L0.392,-0.072L0.536,-0.072L0.536,-0L0.15,-0Z" style="fill:white;fill-rule:nonzero;"/>
                </g>
                <g transform="matrix(6.61308,0,0,6.61308,4.18161,0)">
                    <path d="M0.313,0.018C0.239,0.018 0.179,-0.017 0.133,-0.087C0.087,-0.157 0.063,-0.249 0.063,-0.362C0.063,-0.476 0.087,-0.567 0.133,-0.637C0.179,-0.706 0.241,-0.741 0.316,-0.741C0.392,-0.741 0.453,-0.706 0.5,-0.637C0.546,-0.567 0.569,-0.476 0.569,-0.363C0.569,-0.247 0.546,-0.155 0.5,-0.086C0.453,-0.017 0.391,0.018 0.313,0.018ZM0.314,-0.054C0.416,-0.054 0.467,-0.158 0.467,-0.365C0.467,-0.567 0.417,-0.668 0.316,-0.668C0.216,-0.668 0.166,-0.566 0.166,-0.362C0.166,-0.157 0.215,-0.054 0.314,-0.054Z" style="fill:white;fill-rule:nonzero;"/>
                </g>
                <g transform="matrix(6.61308,0,0,6.61308,8.36323,0)">
                    <path d="M0.313,0.018C0.239,0.018 0.179,-0.017 0.133,-0.087C0.087,-0.157 0.063,-0.249 0.063,-0.362C0.063,-0.476 0.087,-0.567 0.133,-0.637C0.179,-0.706 0.241,-0.741 0.316,-0.741C0.392,-0.741 0.453,-0.706 0.5,-0.637C0.546,-0.567 0.569,-0.476 0.569,-0.363C0.569,-0.247 0.546,-0.155 0.5,-0.086C0.453,-0.017 0.391,0.018 0.313,0.018ZM0.314,-0.054C0.416,-0.054 0.467,-0.158 0.467,-0.365C0.467,-0.567 0.417,-0.668 0.316,-0.668C0.216,-0.668 0.166,-0.566 0.166,-0.362C0.166,-0.157 0.215,-0.054 0.314,-0.054Z" style="fill:white;fill-rule:nonzero;"/>
                </g>
            </g>
        </g>
        <g transform="matrix(1.96367,0,0,1.76418,213.368,98.3093)">
            <g>
                <g transform="matrix(6.61308,0,0,6.61308,0,0)">
                    <path d="M0.083,-0L0.083,-0.084C0.111,-0.15 0.168,-0.221 0.253,-0.298L0.308,-0.348C0.379,-0.412 0.415,-0.475 0.415,-0.539C0.415,-0.579 0.402,-0.611 0.378,-0.634C0.354,-0.657 0.321,-0.668 0.278,-0.668C0.228,-0.668 0.169,-0.649 0.101,-0.61L0.101,-0.695C0.165,-0.726 0.229,-0.741 0.292,-0.741C0.36,-0.741 0.414,-0.722 0.455,-0.686C0.496,-0.65 0.517,-0.601 0.517,-0.541C0.517,-0.498 0.506,-0.459 0.486,-0.426C0.465,-0.392 0.426,-0.352 0.37,-0.304L0.333,-0.272C0.256,-0.207 0.211,-0.144 0.199,-0.084L0.513,-0.084L0.513,-0L0.083,-0Z" style="fill:white;fill-rule:nonzero;"/>
                </g>
                <g transform="matrix(6.61308,0,0,6.61308,4.18161,0)">
                    <path d="M0.313,0.018C0.239,0.018 0.179,-0.017 0.133,-0.087C0.087,-0.157 0.063,-0.249 0.063,-0.362C0.063,-0.476 0.087,-0.567 0.133,-0.637C0.179,-0.706 0.241,-0.741 0.316,-0.741C0.392,-0.741 0.453,-0.706 0.5,-0.637C0.546,-0.567 0.569,-0.476 0.569,-0.363C0.569,-0.247 0.546,-0.155 0.5,-0.086C0.453,-0.017 0.391,0.018 0.313,0.018ZM0.314,-0.054C0.416,-0.054 0.467,-0.158 0.467,-0.365C0.467,-0.567 0.417,-0.668 0.316,-0.668C0.216,-0.668 0.166,-0.566 0.166,-0.362C0.166,-0.157 0.215,-0.054 0.314,-0.054Z" style="fill:white;fill-rule:nonzero;"/>
                </g>
                <g transform="matrix(6.61308,0,0,6.61308,8.36323,0)">
                    <path d="M0.313,0.018C0.239,0.018 0.179,-0.017 0.133,-0.087C0.087,-0.157 0.063,-0.249 0.063,-0.362C0.063,-0.476 0.087,-0.567 0.133,-0.637C0.179,-0.706 0.241,-0.741 0.316,-0.741C0.392,-0.741 0.453,-0.706 0.5,-0.637C0.546,-0.567 0.569,-0.476 0.569,-0.363C0.569,-0.247 0.546,-0.155 0.5,-0.086C0.453,-0.017 0.391,0.018 0.313,0.018ZM0.314,-0.054C0.416,-0.054 0.467,-0.158 0.467,-0.365C0.467,-0.567 0.417,-0.668 0.316,-0.668C0.216,-0.668 0.166,-0.566 0.166,-0.362C0.166,-0.157 0.215,-0.054 0.314,-0.054Z" style="fill:white;fill-rule:nonzero;"/>
                </g>
            </g>
        </g>
        <g transform="matrix(1.96367,0,0,1.76418,213.368,70.1933)">
            <g>
                <g transform="matrix(6.61308,0,0,6.61308,0,0)">
                    <path d="M0.102,-0.005L0.102,-0.095C0.171,-0.068 0.225,-0.054 0.265,-0.054C0.311,-0.054 0.348,-0.068 0.377,-0.094C0.406,-0.121 0.42,-0.156 0.42,-0.199C0.42,-0.3 0.349,-0.351 0.207,-0.351L0.168,-0.351L0.168,-0.416L0.202,-0.417C0.336,-0.417 0.402,-0.464 0.402,-0.558C0.402,-0.632 0.358,-0.668 0.271,-0.668C0.222,-0.668 0.169,-0.655 0.111,-0.628L0.111,-0.712C0.168,-0.731 0.224,-0.741 0.277,-0.741C0.425,-0.741 0.499,-0.685 0.499,-0.573C0.499,-0.488 0.449,-0.428 0.348,-0.392C0.465,-0.365 0.523,-0.301 0.523,-0.2C0.523,-0.132 0.5,-0.079 0.456,-0.04C0.411,-0.001 0.349,0.018 0.271,0.018C0.226,0.018 0.17,0.01 0.102,-0.005Z" style="fill:white;fill-rule:nonzero;"/>
                </g>
                <g transform="matrix(6.61308,0,0,6.61308,4.18161,0)">
                    <path d="M0.313,0.018C0.239,0.018 0.179,-0.017 0.133,-0.087C0.087,-0.157 0.063,-0.249 0.063,-0.362C0.063,-0.476 0.087,-0.567 0.133,-0.637C0.179,-0.706 0.241,-0.741 0.316,-0.741C0.392,-0.741 0.453,-0.706 0.5,-0.637C0.546,-0.567 0.569,-0.476 0.569,-0.363C0.569,-0.247 0.546,-0.155 0.5,-0.086C0.453,-0.017 0.391,0.018 0.313,0.018ZM0.314,-0.054C0.416,-0.054 0.467,-0.158 0.467,-0.365C0.467,-0.567 0.417,-0.668 0.316,-0.668C0.216,-0.668 0.166,-0.566 0.166,-0.362C0.166,-0.157 0.215,-0.054 0.314,-0.054Z" style="fill:white;fill-rule:nonzero;"/>
                </g>
                <g transform="matrix(6.61308,0,0,6.61308,8.36323,0)">
                    <path d="M0.313,0.018C0.239,0.018 0.179,-0.017 0.133,-0.087C0.087,-0.157 0.063,-0.249 0.063,-0.362C0.063,-0.476 0.087,-0.567 0.133,-0.637C0.179,-0.706 0.241,-0.741 0.316,-0.741C0.392,-0.741 0.453,-0.706 0.5,-0.637C0.546,-0.567 0.569,-0.476 0.569,-0.363C0.569,-0.247 0.546,-0.155 0.5,-0.086C0.453,-0.017 0.391,0.018 0.313,0.018ZM0.314,-0.054C0.416,-0.054 0.467,-0.158 0.467,-0.365C0.467,-0.567 0.417,-0.668 0.316,-0.668C0.216,-0.668 0.166,-0.566 0.166,-0.362C0.166,-0.157 0.215,-0.054 0.314,-0.054Z" style="fill:white;fill-rule:nonzero;"/>
                </g>
            </g>
        </g>
        <g transform="matrix(1,0,0,1,54.3865,317.119)">
            <g transform="matrix(8.7671,0,0,8.7671,243.567,-124.458)">
                <path d="M0.023,-0.042L0.107,-0.042L0.236,-0.24L0.362,-0.042L0.453,-0.042L0.287,-0.294L0.441,-0.538L0.358,-0.538L0.245,-0.349L0.121,-0.538L0.031,-0.538L0.192,-0.294L0.023,-0.042Z" style="fill:white;fill-rule:nonzero;"/>
            </g>
            <g transform="matrix(11.9552,0,0,11.9552,237.05,-125.575)">
                <path d="M0.349,-0.073L0.431,-0.073L0.253,-0.543C0.202,-0.675 0.162,-0.761 0.072,-0.761C0.062,-0.761 0.05,-0.76 0.042,-0.758L0.035,-0.699L0.051,-0.699C0.109,-0.699 0.143,-0.632 0.174,-0.548C0.179,-0.536 0.18,-0.528 0.18,-0.524C0.18,-0.519 0.179,-0.511 0.175,-0.501L0.007,-0.073L0.086,-0.073L0.186,-0.347C0.196,-0.378 0.21,-0.414 0.216,-0.445L0.22,-0.445C0.23,-0.407 0.241,-0.376 0.253,-0.344L0.349,-0.073Z" style="fill:white;fill-rule:nonzero;"/>
            </g>
        </g>
        <g transform="matrix(1,0,0,1,9.05991e-06,317.751)">
            <g transform="matrix(1,0,0,1,210.36,-285.708)">
                <g transform="matrix(11.9552,0,0,11.9552,0,0)">
                    <path d="M0.096,0.145L0.096,-0.771L0.289,-0.771L0.289,-0.699L0.181,-0.699L0.181,0.072L0.289,0.072L0.289,0.145L0.096,0.145Z" style="fill:white;fill-rule:nonzero;"/>
                </g>
                <g transform="matrix(11.9552,0,0,11.9552,3.88777,0)">
                    <path d="M0.096,-0L0.096,-0.771L0.192,-0.771L0.192,-0.273L0.417,-0.53L0.521,-0.53L0.306,-0.283L0.565,-0L0.442,-0L0.192,-0.272L0.192,-0L0.096,-0Z" style="fill:white;fill-rule:nonzero;"/>
                </g>
                <g transform="matrix(11.9552,0,0,11.9552,10.8753,0)">
                    <path d="M0.093,-0L0.093,-0.723L0.29,-0.723C0.377,-0.723 0.44,-0.708 0.478,-0.678C0.516,-0.649 0.535,-0.601 0.535,-0.533C0.535,-0.456 0.509,-0.396 0.457,-0.353C0.405,-0.309 0.333,-0.287 0.24,-0.287L0.195,-0.287L0.195,-0L0.093,-0ZM0.195,-0.365L0.236,-0.365C0.297,-0.365 0.344,-0.379 0.377,-0.407C0.411,-0.435 0.427,-0.474 0.427,-0.525C0.427,-0.569 0.414,-0.6 0.388,-0.618C0.362,-0.637 0.319,-0.646 0.258,-0.646L0.195,-0.646L0.195,-0.365Z" style="fill:white;fill-rule:nonzero;"/>
                </g>
                <g transform="matrix(11.9552,0,0,11.9552,17.4833,0)">
                    <path d="M0.37,-0.067C0.312,-0.014 0.257,0.012 0.203,0.012C0.159,0.012 0.123,-0.002 0.094,-0.029C0.065,-0.057 0.05,-0.091 0.05,-0.133C0.05,-0.191 0.075,-0.236 0.123,-0.267C0.172,-0.298 0.242,-0.313 0.333,-0.313L0.355,-0.313L0.355,-0.377C0.355,-0.439 0.324,-0.47 0.261,-0.47C0.21,-0.47 0.155,-0.454 0.096,-0.423L0.096,-0.502C0.161,-0.529 0.222,-0.542 0.278,-0.542C0.338,-0.542 0.381,-0.529 0.409,-0.502C0.438,-0.475 0.452,-0.434 0.452,-0.377L0.452,-0.137C0.452,-0.082 0.469,-0.055 0.502,-0.055C0.507,-0.055 0.513,-0.055 0.521,-0.057L0.528,-0.003C0.506,0.007 0.482,0.012 0.456,0.012C0.411,0.012 0.382,-0.014 0.37,-0.067ZM0.355,-0.12L0.355,-0.257L0.323,-0.258C0.271,-0.258 0.228,-0.248 0.195,-0.228C0.163,-0.208 0.146,-0.181 0.146,-0.149C0.146,-0.126 0.155,-0.106 0.171,-0.09C0.187,-0.074 0.207,-0.066 0.23,-0.066C0.271,-0.066 0.312,-0.084 0.355,-0.12Z" style="fill:white;fill-rule:nonzero;"/>
                </g>
                <g transform="matrix(11.9552,0,0,11.9552,24.0855,0)">
                    <path d="M0.229,0.145L0.229,-0.771L0.036,-0.771L0.036,-0.699L0.145,-0.699L0.145,0.072L0.036,0.072L0.036,0.145L0.229,0.145Z" style="fill:white;fill-rule:nonzero;"/>
                </g>
            </g>
            <g transform="matrix(1,0,0,1,199.658,-285.407)">
                <g transform="matrix(8.7671,0,0,8.7671,0,0)">
                    <path d="M0.111,0.107C0.193,0.107 0.234,0.077 0.267,-0.011L0.462,-0.538L0.385,-0.538L0.251,-0.161L0.249,-0.161L0.103,-0.538L0.021,-0.538L0.211,-0.06L0.196,-0.019C0.175,0.035 0.145,0.043 0.097,0.043C0.079,0.043 0.061,0.038 0.049,0.036L0.049,0.093C0.063,0.1 0.088,0.107 0.111,0.107Z" style="fill:white;fill-rule:nonzero;"/>
                </g>
                <g transform="matrix(8.7671,0,0,8.7671,4.22574,0)">
                    <path d="M0.111,0.107C0.193,0.107 0.234,0.077 0.267,-0.011L0.462,-0.538L0.385,-0.538L0.251,-0.161L0.249,-0.161L0.103,-0.538L0.021,-0.538L0.211,-0.06L0.196,-0.019C0.175,0.035 0.145,0.043 0.097,0.043C0.079,0.043 0.061,0.038 0.049,0.036L0.049,0.093C0.063,0.1 0.088,0.107 0.111,0.107Z" style="fill:white;fill-rule:nonzero;"/>
                </g>
            </g>
            <g transform="matrix(11.9552,0,0,11.9552,191.908,-287.2)">
                <path d="M0.387,-0.49C0.457,-0.487 0.489,-0.487 0.51,-0.487L0.513,-0.545C0.495,-0.544 0.441,-0.545 0.409,-0.545L0.272,-0.545C0.134,-0.545 0.037,-0.455 0.037,-0.3C0.037,-0.153 0.133,-0.063 0.256,-0.063C0.359,-0.063 0.476,-0.137 0.476,-0.307C0.476,-0.38 0.443,-0.448 0.387,-0.487L0.387,-0.49ZM0.258,-0.121C0.176,-0.121 0.115,-0.199 0.115,-0.304C0.115,-0.392 0.159,-0.487 0.258,-0.487C0.358,-0.487 0.399,-0.386 0.399,-0.307C0.399,-0.199 0.337,-0.121 0.258,-0.121Z" style="fill:white;fill-rule:nonzero;"/>
            </g>
        </g>
    </g>
    <g id="Anchors">
        <g transform="matrix(0.124477,0,0,0.124477,338.764,-0.673978)">
            <circle cx="382.91" cy="9.431" r="4.017" style="stroke:black;stroke-width:8.03px;stroke-linecap:round;stroke-linejoin:round;stroke-miterlimit:1.5;"/>
        </g>
        <g transform="matrix(0.114771,0,0,0.114771,0,205.756)">
            <circle cx="4.357" cy="381.145" r="4.357" style="stroke:black;stroke-width:8.71px;stroke-linecap:round;stroke-linejoin:round;stroke-miterlimit:1.5;"/>
        </g>
    </g>
</svg>
