<?xml version="1.0" encoding="UTF-8" standalone="no"?>
<!DOCTYPE svg PUBLIC "-//W3C//DTD SVG 1.1//EN" "http://www.w3.org/Graphics/SVG/1.1/DTD/svg11.dtd">
<svg width="100%" height="100%" viewBox="0 0 464 368" version="1.1" xmlns="http://www.w3.org/2000/svg" xmlns:xlink="http://www.w3.org/1999/xlink" xml:space="preserve" xmlns:serif="http://www.serif.com/" style="fill-rule:evenodd;clip-rule:evenodd;stroke-linejoin:round;stroke-miterlimit:2;">
    <g id="ALL-NODE-PLOTS" serif:id="ALL NODE PLOTS">
        <g id="NODE-UT" serif:id="NODE UT">
            <g>
                <g transform="matrix(1,0,0,1,42.766,32.1017)">
                    <path d="M1.924,74.747L2.368,74.412L1.888,73.776C1.649,73.956 1.425,74.125 1.425,74.125C1.425,74.125 1.659,74.846 1.659,74.846L1.37,74.173L-0.288,75.909L0.288,76.46L1.924,74.747Z"/>
                </g>
                <g transform="matrix(1,0,0,1,42.766,32.1017)">
                    <path d="M5.162,72.582L6.796,71.8L7.46,71.526L7.156,70.789C6.835,70.922 6.491,71.063 6.491,71.063C6.491,71.063 6.634,71.834 6.634,71.834L6.462,71.076L4.804,71.871L4.976,72.629C4.976,72.629 4.77,71.888 4.77,71.888C4.77,71.888 4.602,71.987 4.411,72.098L4.813,72.786L5.162,72.582Z"/>
                </g>
                <g transform="matrix(1,0,0,1,42.766,32.1017)">
                    <path d="M10.227,70.466L11.735,69.953C11.735,69.953 13.058,69.528 13.058,69.528L12.814,68.769L11.485,69.196C11.482,69.197 10.377,69.573 9.97,69.712L10.227,70.466Z"/>
                </g>
                <g transform="matrix(1,0,0,1,42.766,32.1017)">
                    <path d="M16.7,68.412L18.358,67.92L18.244,67.937C18.244,67.937 18.47,67.887 18.77,67.799L18.544,67.034C18.331,67.097 18.136,67.155 18.136,67.155L18.244,67.937L18.131,67.156L16.472,67.648L16.586,68.429C16.586,68.429 16.471,67.649 16.471,67.649L15.677,67.888L15.907,68.651L16.7,68.412Z"/>
                </g>
                <g transform="matrix(1,0,0,1,42.766,32.1017)">
                    <path d="M21.634,66.946L21.561,66.956L21.675,66.94L23.335,66.444C23.335,66.444 24.012,66.239 24.501,66.091L24.27,65.329L23.105,65.681L21.41,66.187L21.487,66.447L21.561,66.956L21.488,66.449L21.634,66.946Z"/>
                </g>
                <g transform="matrix(1,0,0,1,42.766,32.1017)">
                    <path d="M21.634,66.946L21.636,66.951C21.658,66.945 21.674,66.94 21.674,66.94L21.634,66.946Z"/>
                </g>
                <g transform="matrix(1,0,0,1,42.766,32.1017)">
                    <path d="M27.361,65.207L28.317,64.906C28.319,64.905 29.977,64.367 29.977,64.367L29.854,64.386C29.854,64.386 29.999,64.359 30.212,64.288L29.959,63.532L29.73,63.609C29.73,63.609 28.074,64.147 28.074,64.147C28.074,64.147 27.121,64.447 27.121,64.447L27.361,65.207Z"/>
                </g>
                <g transform="matrix(1,0,0,1,42.766,32.1017)">
                    <path d="M34.691,61.88L33.037,62.479C33.037,62.479 32.922,62.519 32.783,62.568L33.045,63.321C33.184,63.272 33.299,63.232 33.299,63.232L34.966,62.628L34.962,62.629L35.862,62.288L35.579,61.543L34.691,61.88Z"/>
                </g>
                <g transform="matrix(1,0,0,1,42.766,32.1017)">
                    <path d="M34.899,62.652L33.307,63.229L34.899,62.652Z"/>
                </g>
                <g transform="matrix(1,0,0,1,42.766,32.1017)">
                    <path d="M38.653,61.181L39.964,60.629C39.968,60.627 40.949,60.189 41.402,59.986L41.077,59.259L39.647,59.898C39.647,59.898 38.344,60.447 38.344,60.447L38.653,61.181Z"/>
                </g>
                <g transform="matrix(1,0,0,1,42.766,32.1017)">
                    <path d="M46.244,56.646L44.596,57.54L43.751,57.969L44.111,58.679L44.961,58.248L46.63,57.343L46.543,57.365C46.601,57.347 46.679,57.315 46.769,57.263L46.368,56.574L46.244,56.646Z"/>
                </g>
                <g transform="matrix(1,0,0,1,42.766,32.1017)">
                    <path d="M46.329,57.507L44.971,58.243L46.329,57.507Z"/>
                </g>
                <g transform="matrix(1,0,0,1,42.766,32.1017)">
                    <path d="M50.96,54.665L51.651,54.201C51.665,54.191 51.742,54.136 51.855,54.054L51.389,53.407L51.188,53.553L49.537,54.66C49.537,54.66 49.224,54.856 48.921,55.045L49.343,55.721C49.646,55.532 49.959,55.336 49.959,55.336L50.96,54.665Z"/>
                </g>
                <g transform="matrix(1,0,0,1,42.766,32.1017)">
                    <path d="M50.96,54.665L49.979,55.323L51.512,54.295L50.96,54.665Z"/>
                </g>
                <g transform="matrix(1,0,0,1,42.766,32.1017)">
                    <path d="M56.595,50.37L56.085,49.757L54.483,51.089L53.778,51.635L54.266,52.265L54.976,51.715L56.595,50.37Z"/>
                </g>
                <g transform="matrix(1,0,0,1,42.766,32.1017)">
                    <path d="M54.987,51.707L56.831,50.174L54.987,51.707Z"/>
                </g>
                <g transform="matrix(1,0,0,1,42.766,32.1017)">
                    <path d="M58.831,48.346L59.989,47.238C59.994,47.233 60.509,46.703 60.966,46.235L60.395,45.679L59.428,46.672C59.428,46.672 58.28,47.77 58.28,47.77L58.831,48.346Z"/>
                </g>
                <g transform="matrix(1,0,0,1,42.766,32.1017)">
                    <path d="M64.959,41.751L64.35,41.237L62.725,43.162L62.419,43.499L63.009,44.035C63.175,43.853 63.317,43.696 63.317,43.696L64.959,41.751Z"/>
                </g>
                <g transform="matrix(1,0,0,1,42.766,32.1017)">
                    <path d="M67.673,36.813L66.166,38.902L66.812,39.368L68.336,37.255C68.351,37.232 68.435,37.105 68.557,36.921L67.892,36.482L67.673,36.813Z"/>
                </g>
                <g transform="matrix(1,0,0,1,42.766,32.1017)">
                    <path d="M70.971,31.563L69.515,33.994L70.199,34.403L71.655,31.972L71.643,31.991L71.738,31.819L71.036,31.443L70.971,31.563Z"/>
                </g>
                <g transform="matrix(1,0,0,1,42.766,32.1017)">
                    <path d="M72.62,28.483L72.446,28.808L73.149,29.184C73.248,28.999 73.326,28.853 73.326,28.853C73.326,28.853 72.977,29.06 72.977,29.06L73.337,28.831C73.337,28.831 73.963,27.497 74.446,26.469L73.724,26.13L72.62,28.483Z"/>
                </g>
                <g transform="matrix(1,0,0,1,42.766,32.1017)">
                    <path d="M75.919,20.844L74.894,23.406L75.634,23.702L76.659,21.139L76.651,21.159L76.74,20.899L75.982,20.65L75.919,20.844Z"/>
                </g>
                <g transform="matrix(1,0,0,1,42.766,32.1017)">
                    <path d="M77.569,15.808L76.913,17.81L77.671,18.058L78.33,16.044L78.552,15.175L77.779,14.98L77.569,15.808Z"/>
                </g>
                <g transform="matrix(1,0,0,1,42.766,32.1017)">
                    <path d="M79.221,9.277L78.512,12.082L79.284,12.277C79.657,10.805 79.997,9.458 79.997,9.458L79.983,9.469C79.998,9.434 80.01,9.395 80.017,9.35L79.233,9.211L79.221,9.277Z"/>
                </g>
                <g transform="matrix(1,0,0,1,42.766,32.1017)">
                    <path d="M80.539,6.407C80.705,5.468 80.89,4.427 81.06,3.464L80.276,3.325C80.105,4.288 79.92,5.329 79.754,6.268L80.539,6.407Z"/>
                </g>
                <g transform="matrix(1,0,0,1,42.766,32.1017)">
                    <path d="M81.582,0.521C81.627,0.263 81.661,0.074 81.661,0.074C81.661,0.074 81.269,0.399 81.269,0.399C81.269,0.399 80.876,-0.065 80.876,-0.065C80.876,-0.065 80.843,0.124 80.797,0.382L81.582,0.521Z"/>
                </g>
            </g>
            <g>
                <g transform="matrix(1,0,0,1,42.766,-378.023)">
                    <path d="M0.379,594.149C0.379,594.149 0.883,592.604 1.306,591.307L0.548,591.06C0.125,592.357 -0.379,593.902 -0.379,593.902L0.379,594.149Z"/>
                </g>
                <g transform="matrix(1,0,0,1,42.766,-378.023)">
                    <path d="M2.275,588.5C2.653,587.495 3.18,586.093 3.327,585.702L2.581,585.422C2.434,585.812 1.907,587.214 1.529,588.219L2.275,588.5Z"/>
                </g>
                <g transform="matrix(1,0,0,1,42.766,-378.023)">
                    <path d="M4.858,581.958L5.61,580.196L4.876,579.884C4.501,580.764 4.124,581.648 4.124,581.648L4.491,582.203C4.491,582.203 4.122,581.653 4.122,581.653L3.716,582.644L4.453,582.946L4.858,581.958Z"/>
                </g>
                <g transform="matrix(1,0,0,1,42.766,-378.023)">
                    <path d="M7.85,574.961L7.961,574.698L7.226,574.389C7.165,574.535 7.118,574.646 7.118,574.646C7.118,574.646 7.484,575.202 7.484,575.202L7.118,574.646C7.118,574.646 6.493,576.103 6.051,577.134L6.784,577.449L7.85,574.961Z"/>
                </g>
                <g transform="matrix(1,0,0,1,42.766,-378.023)">
                    <path d="M9.12,571.944C9.244,571.65 9.346,571.408 9.346,571.408C9.346,571.408 8.981,571.646 8.981,571.646L9.35,571.397C9.35,571.397 9.836,570.202 10.254,569.173L9.516,568.873C9.098,569.902 8.612,571.097 8.612,571.097L8.981,571.646C8.981,571.646 8.611,571.099 8.611,571.099C8.611,571.099 8.509,571.341 8.386,571.634L9.12,571.944Z"/>
                </g>
                <g transform="matrix(1,0,0,1,42.766,-378.023)">
                    <path d="M11.602,563.559L10.617,566.101L11.36,566.389L12.35,563.835C12.356,563.819 12.388,563.732 12.438,563.594L11.69,563.319L11.602,563.559Z"/>
                </g>
                <g transform="matrix(1,0,0,1,42.766,-378.023)">
                    <path d="M13.097,559.49L12.72,560.514L13.469,560.789L13.846,559.761C13.846,559.761 13.472,560.022 13.472,560.022L13.848,559.754C13.848,559.754 14.142,558.908 14.468,557.964L13.715,557.703L13.097,559.49Z"/>
                </g>
                <g transform="matrix(1,0,0,1,42.766,-378.023)">
                    <path d="M15.444,555.131C15.627,554.568 16.04,553.302 16.37,552.289L15.612,552.043C15.282,553.055 14.869,554.321 14.686,554.884L15.444,555.131Z"/>
                </g>
                <g transform="matrix(1,0,0,1,42.766,-378.023)">
                    <path d="M17.273,549.433C17.561,548.493 17.927,547.297 18.148,546.575L17.386,546.342C17.165,547.063 16.799,548.26 16.511,549.2L17.273,549.433Z"/>
                </g>
                <g transform="matrix(1,0,0,1,42.766,-378.023)">
                    <path d="M18.987,543.7C19.332,542.5 19.708,541.193 19.814,540.827L19.048,540.607C18.942,540.973 18.566,542.28 18.221,543.479L18.987,543.7Z"/>
                </g>
                <g transform="matrix(1,0,0,1,42.766,-378.023)">
                    <path d="M20.571,534.978L19.827,537.728L20.597,537.936L21.343,535.176C21.345,535.168 21.357,535.122 21.376,535.045L20.604,534.848L20.571,534.978Z"/>
                </g>
                <g transform="matrix(1,0,0,1,42.766,-378.023)">
                    <path d="M22.066,529.094L21.34,531.952L22.112,532.148C22.479,530.704 22.839,529.288 22.839,529.288L22.837,529.29C22.842,529.276 22.846,529.261 22.849,529.246L22.074,529.06L22.066,529.094Z"/>
                </g>
                <g transform="matrix(1,0,0,1,42.766,-378.023)">
                    <path d="M23.545,526.339C23.817,525.201 24.097,524.031 24.24,523.432L23.465,523.247C23.322,523.846 23.042,525.016 22.77,526.153L23.545,526.339Z"/>
                </g>
                <g transform="matrix(1,0,0,1,42.766,-378.023)">
                    <path d="M24.904,520.512C25.128,519.515 25.377,518.412 25.561,517.597L24.783,517.421C24.599,518.237 24.351,519.339 24.126,520.337L24.904,520.512Z"/>
                </g>
                <g transform="matrix(1,0,0,1,42.766,-378.023)">
                    <path d="M26.198,514.672C26.384,513.795 26.615,512.711 26.819,511.748L26.039,511.582C25.835,512.545 25.604,513.629 25.418,514.506L26.198,514.672Z"/>
                </g>
            </g>
            <g>
                <g transform="matrix(1,0,0,1,42.766,214.779)">
                    <path d="M0.378,109.065C0.378,109.065 0.866,107.602 1.323,106.23L0.567,105.978C0.11,107.35 -0.378,108.813 -0.378,108.813L0.378,109.065Z"/>
                </g>
                <g transform="matrix(1,0,0,1,42.766,214.779)">
                    <path d="M2.291,103.431C2.563,102.768 3.067,101.538 3.425,100.666L2.687,100.363C2.33,101.235 1.825,102.466 1.554,103.129L2.291,103.431Z"/>
                </g>
                <g transform="matrix(1,0,0,1,42.766,214.779)">
                    <path d="M5.96,95.307L7.061,93.047L5.831,95.234L5.314,94.943L4.846,95.775C4.846,95.775 5.194,96.369 5.194,96.369L4.835,95.796C4.835,95.796 4.385,96.72 3.944,97.625L4.661,97.974L5.547,96.155C5.582,96.093 5.769,95.76 6.009,95.334L5.96,95.307Z"/>
                </g>
                <g transform="matrix(1,0,0,1,42.766,214.779)">
                    <path d="M10.638,87.707L8.935,90.153L8.421,89.795C8.369,89.87 8.33,89.926 8.33,89.926C8.33,89.926 8.656,90.553 8.656,90.553L8.319,89.942C8.319,89.942 7.273,91.595 6.807,92.331L7.481,92.757L8.988,90.375L9.075,90.25L9.069,90.246L10.664,87.726L10.778,87.812L12.433,85.616L12.575,85.439L11.953,84.94C11.871,85.042 11.809,85.119 11.809,85.119C11.809,85.119 12.118,85.769 12.118,85.769L11.8,85.131C11.8,85.131 10.47,86.896 10.142,87.333L10.638,87.707Z"/>
                </g>
                <g transform="matrix(1,0,0,1,42.766,214.779)">
                    <path d="M15.884,81.421L16.382,80.855L15.784,80.329C15.529,80.618 15.288,80.893 15.288,80.893C15.288,80.893 15.581,81.562 15.581,81.562L15.276,80.906C15.276,80.906 14.332,82.024 13.838,82.609L14.447,83.123L15.884,81.421Z"/>
                </g>
                <g transform="matrix(1,0,0,1,42.766,214.779)">
                    <path d="M18.365,78.628L19.336,77.559C19.336,77.559 20.386,76.433 20.386,76.433L19.803,75.889L18.75,77.019C18.748,77.021 18.241,77.58 17.775,78.092L18.365,78.628Z"/>
                </g>
                <g transform="matrix(1,0,0,1,42.766,214.779)">
                    <path d="M22.436,74.263C22.625,74.064 22.79,73.89 22.79,73.89C22.79,73.89 22.505,74.01 22.505,74.01L22.792,73.888C22.792,73.888 24.33,72.295 24.507,72.112L23.933,71.558C23.757,71.741 22.219,73.334 22.219,73.334L22.505,74.01C22.505,74.01 22.212,73.341 22.212,73.341C22.212,73.341 22.047,73.515 21.858,73.713L22.436,74.263Z"/>
                </g>
                <g transform="matrix(1,0,0,1,42.766,214.779)">
                    <path d="M27.982,68.568L28.692,67.851L28.126,67.29L27.416,68.007C27.416,68.007 27.699,68.686 27.699,68.686L27.415,68.008C27.415,68.008 26.53,68.906 26.026,69.419L26.594,69.978L27.982,68.568Z"/>
                </g>
                <g transform="matrix(1,0,0,1,42.766,214.779)">
                    <path d="M31.444,65.079L32.904,63.611L32.339,63.049C31.852,63.538 30.879,64.516 30.879,64.516L31.161,65.196C31.161,65.196 30.878,64.517 30.878,64.517L30.231,65.168L30.797,65.73L31.444,65.079Z"/>
                </g>
                <g transform="matrix(1,0,0,1,42.766,214.779)">
                    <path d="M36.637,59.855L37.118,59.369L36.551,58.809C36.306,59.056 36.077,59.287 36.077,59.287C36.077,59.287 36.355,59.972 36.355,59.972L36.072,59.293C36.072,59.293 34.823,60.551 34.447,60.93L35.012,61.491L36.637,59.855Z"/>
                </g>
                <g transform="matrix(1,0,0,1,42.766,214.779)">
                    <path d="M39.219,57.242L40.101,56.347C40.101,56.347 40.804,55.63 41.314,55.109L40.745,54.552L39.533,55.788C39.533,55.788 38.651,56.683 38.651,56.683L39.219,57.242Z"/>
                </g>
                <g transform="matrix(1,0,0,1,42.766,214.779)">
                    <path d="M43.331,52.9L43.401,52.968C43.492,52.875 43.563,52.803 43.563,52.803L43.331,52.9Z"/>
                </g>
                <g transform="matrix(1,0,0,1,42.766,214.779)">
                    <path d="M43.279,52.921L42.992,52.247C42.992,52.247 42.921,52.319 42.83,52.413L43.227,52.799L43.279,52.921Z"/>
                </g>
                <g transform="matrix(1,0,0,1,42.766,214.779)">
                    <path d="M42.993,52.246L43.227,52.799L43.33,52.899L43.566,52.8L45.3,51.004C45.313,50.991 45.379,50.921 45.48,50.816L44.904,50.265C44.804,50.37 44.725,50.453 44.725,50.453C44.725,50.453 45.01,51.129 45.01,51.129L44.724,50.454L42.993,52.246Z"/>
                </g>
                <g transform="matrix(1,0,0,1,42.766,214.779)">
                    <path d="M47.546,48.654L48.763,47.371C48.763,47.37 49.177,46.93 49.599,46.479L49.018,45.934L48.183,46.824C48.183,46.824 46.968,48.105 46.968,48.105L47.546,48.654Z"/>
                </g>
                <g transform="matrix(1,0,0,1,42.766,214.779)">
                    <path d="M51.642,43.116L51.055,43.749L51.639,44.291L52.227,43.657C52.227,43.657 51.935,43.785 51.935,43.785L52.229,43.655C52.229,43.655 53.169,42.629 53.663,42.089L53.075,41.551L51.642,43.116Z"/>
                </g>
                <g transform="matrix(1,0,0,1,42.766,214.779)">
                    <path d="M55.101,39.313L55.079,39.337L55.131,39.383L55.397,39.977L55.135,39.387L55.659,39.86L55.397,39.977L55.695,39.844L57.431,37.893C57.447,37.875 57.533,37.776 57.66,37.632L57.06,37.107C56.934,37.251 56.831,37.368 56.831,37.368C56.831,37.368 57.129,38.032 57.129,38.032L56.831,37.369L55.101,39.313Z"/>
                </g>
                <g transform="matrix(1,0,0,1,42.766,214.779)">
                    <path d="M55.66,39.861L55.671,39.871C55.684,39.856 55.693,39.846 55.693,39.846L55.66,39.861Z"/>
                </g>
                <g transform="matrix(1,0,0,1,42.766,214.779)">
                    <path d="M60.288,33.387L59.023,34.857L59.627,35.377L60.904,33.893C60.959,33.828 61.247,33.488 61.572,33.103L60.963,32.589L60.288,33.387Z"/>
                </g>
                <g transform="matrix(1,0,0,1,42.766,214.779)">
                    <path d="M63.494,30.809L64.361,29.764C64.363,29.762 64.912,29.086 65.392,28.495L64.773,27.993L63.745,29.258C63.745,29.258 62.881,30.301 62.881,30.301L63.494,30.809Z"/>
                </g>
            </g>
        </g>
    </g>
    <g id="AL-ICNN-PLOTS" serif:id="AL ICNN PLOTS">
    </g>
    <g id="NODE-LEGEND" serif:id="NODE LEGEND">
        <g>
            <g transform="matrix(1,0,0,1,288.034,358.377)">
                <path d="M8.504,-0.398L5.978,-0.399L5.978,0.399L8.966,0.399L8.966,-0.399L8.504,-0.398Z"/>
            </g>
            <g transform="matrix(1,0,0,1,288.034,358.377)">
                <path d="M11.955,0.399L14.944,0.399L14.944,-0.399L11.955,-0.399L11.955,0.399Z"/>
            </g>
            <g transform="matrix(1,0,0,1,288.034,358.377)">
                <path d="M0,0.399L2.989,0.399L2.989,-0.399L0,-0.399L0,0.399Z"/>
            </g>
        </g>
        <g>
            <g transform="matrix(11.9552,0,0,11.9552,310.268,361.584)">
                <path d="M0.093,-0L0.093,-0.723L0.194,-0.723L0.558,-0.165L0.558,-0.723L0.646,-0.723L0.646,-0L0.545,-0L0.181,-0.558L0.181,-0L0.093,-0Z" style="fill-rule:nonzero;"/>
            </g>
            <g transform="matrix(11.9552,0,0,11.9552,319.015,361.584)">
                <path d="M0.384,0.018C0.284,0.018 0.203,-0.017 0.142,-0.086C0.081,-0.156 0.051,-0.248 0.051,-0.362C0.051,-0.477 0.081,-0.569 0.143,-0.637C0.204,-0.706 0.286,-0.741 0.389,-0.741C0.491,-0.741 0.573,-0.706 0.634,-0.638C0.696,-0.569 0.727,-0.477 0.727,-0.363C0.727,-0.246 0.696,-0.153 0.634,-0.085C0.573,-0.016 0.489,0.018 0.384,0.018ZM0.386,-0.059C0.46,-0.059 0.517,-0.085 0.557,-0.138C0.597,-0.192 0.618,-0.267 0.618,-0.364C0.618,-0.458 0.597,-0.531 0.557,-0.584C0.516,-0.638 0.46,-0.664 0.389,-0.664C0.317,-0.664 0.261,-0.637 0.22,-0.584C0.18,-0.531 0.16,-0.457 0.16,-0.362C0.16,-0.268 0.18,-0.194 0.22,-0.14C0.26,-0.086 0.315,-0.059 0.386,-0.059Z" style="fill-rule:nonzero;"/>
            </g>
            <g transform="matrix(11.9552,0,0,11.9552,328.218,361.584)">
                <path d="M0.093,-0L0.093,-0.723L0.333,-0.723C0.405,-0.723 0.463,-0.715 0.507,-0.699C0.551,-0.683 0.589,-0.656 0.622,-0.618C0.673,-0.557 0.698,-0.477 0.698,-0.378C0.698,-0.258 0.667,-0.165 0.603,-0.099C0.54,-0.033 0.45,-0 0.335,-0L0.093,-0ZM0.196,-0.077L0.327,-0.077C0.421,-0.077 0.487,-0.102 0.526,-0.152C0.568,-0.206 0.589,-0.278 0.589,-0.369C0.589,-0.454 0.569,-0.52 0.527,-0.569C0.502,-0.598 0.472,-0.619 0.438,-0.63C0.403,-0.641 0.35,-0.646 0.28,-0.646L0.196,-0.646L0.196,-0.077Z" style="fill-rule:nonzero;"/>
            </g>
            <g transform="matrix(11.9552,0,0,11.9552,337.088,361.584)">
                <path d="M0.093,-0L0.093,-0.723L0.497,-0.723L0.497,-0.646L0.196,-0.646L0.196,-0.414L0.448,-0.414L0.448,-0.338L0.196,-0.338L0.196,-0.077L0.518,-0.077L0.518,-0L0.093,-0Z" style="fill-rule:nonzero;"/>
            </g>
        </g>
    </g>
    <g id="anchors">
        <g transform="matrix(0.0874319,0,0,0.0874319,0,0)">
            <circle cx="5.719" cy="5.719" r="5.719"/>
        </g>
        <g transform="matrix(0.0874319,0,0,0.0874319,462.849,366.325)">
            <circle cx="5.719" cy="5.719" r="5.719"/>
        </g>
    </g>
</svg>
