<?xml version="1.0" encoding="UTF-8" standalone="no"?>
<!DOCTYPE svg PUBLIC "-//W3C//DTD SVG 1.1//EN" "http://www.w3.org/Graphics/SVG/1.1/DTD/svg11.dtd">
<svg width="100%" height="100%" viewBox="0 0 1200 693" version="1.1" xmlns="http://www.w3.org/2000/svg" xmlns:xlink="http://www.w3.org/1999/xlink" xml:space="preserve" xmlns:serif="http://www.serif.com/" style="fill-rule:evenodd;clip-rule:evenodd;">
    <g transform="matrix(1.9292,0,0,1.9292,-1304.77,-639.911)">
        <g id="_3_0" serif:id="3_0" transform="matrix(1,0,0,1,30.6745,1.72041)">
            <circle cx="1226.67" cy="449.5" r="10" style="fill:none;stroke:white;stroke-width:1px;"/>
        </g>
        <g id="_3_1" serif:id="3_1" transform="matrix(1,0,0,1,30.6745,1.72041)">
            <circle cx="1226.67" cy="489.5" r="10" style="fill:none;stroke:white;stroke-width:1px;"/>
        </g>
        <g id="_3_2" serif:id="3_2" transform="matrix(1,0,0,1,30.6745,1.72041)">
            <circle cx="1226.67" cy="529.5" r="10" style="fill:none;stroke:white;stroke-width:1px;"/>
        </g>
        <g id="_3_3" serif:id="3_3" transform="matrix(1,0,0,1,30.6745,1.72041)">
            <circle cx="1226.67" cy="569.5" r="10" style="fill:none;stroke:white;stroke-width:1px;"/>
        </g>
        <g transform="matrix(1,0,0,1,30.6745,1.72041)">
            <path d="M1046.67,369.5L1226.67,449.5" style="fill:none;fill-rule:nonzero;stroke:white;stroke-width:0.5px;"/>
        </g>
        <g transform="matrix(1,0,0,1,30.6745,1.72041)">
            <path d="M1046.67,409.5L1226.67,449.5" style="fill:none;fill-rule:nonzero;stroke:white;stroke-width:0.5px;"/>
        </g>
        <g transform="matrix(1,0,0,1,30.6745,1.72041)">
            <path d="M1046.67,449.5L1226.67,449.5" style="fill:none;fill-rule:nonzero;stroke:white;stroke-width:0.5px;"/>
        </g>
        <g transform="matrix(1,0,0,1,30.6745,1.72041)">
            <path d="M1046.67,489.5L1226.67,449.5" style="fill:none;fill-rule:nonzero;stroke:white;stroke-width:0.5px;"/>
        </g>
        <g transform="matrix(1,0,0,1,30.6745,1.72041)">
            <path d="M1046.67,529.5L1226.67,449.5" style="fill:none;fill-rule:nonzero;stroke:white;stroke-width:0.5px;"/>
        </g>
        <g transform="matrix(1,0,0,1,30.6745,1.72041)">
            <path d="M1046.67,569.5L1226.67,449.5" style="fill:none;fill-rule:nonzero;stroke:white;stroke-width:0.5px;"/>
        </g>
        <g transform="matrix(1,0,0,1,30.6745,1.72041)">
            <path d="M1046.67,609.5L1226.67,449.5" style="fill:none;fill-rule:nonzero;stroke:white;stroke-width:0.5px;"/>
        </g>
        <g transform="matrix(1,0,0,1,30.6745,1.72041)">
            <path d="M1046.67,649.5L1226.67,449.5" style="fill:none;fill-rule:nonzero;stroke:white;stroke-width:0.5px;"/>
        </g>
        <g transform="matrix(1,0,0,1,30.6745,1.72041)">
            <path d="M1046.67,369.5L1226.67,489.5" style="fill:none;fill-rule:nonzero;stroke:white;stroke-width:0.5px;"/>
        </g>
        <g transform="matrix(1,0,0,1,30.6745,1.72041)">
            <path d="M1046.67,369.5L1226.67,529.5" style="fill:none;fill-rule:nonzero;stroke:white;stroke-width:0.5px;"/>
        </g>
        <g transform="matrix(1,0,0,1,30.6745,1.72041)">
            <path d="M1046.67,369.5L1226.67,569.5" style="fill:none;fill-rule:nonzero;stroke:white;stroke-width:0.5px;"/>
        </g>
        <g transform="matrix(1,0,0,1,30.6745,1.72041)">
            <path d="M1046.67,409.5L1226.67,489.5" style="fill:none;fill-rule:nonzero;stroke:white;stroke-width:0.5px;"/>
        </g>
        <g transform="matrix(1,0,0,1,30.6745,1.72041)">
            <path d="M1046.67,409.5L1226.67,529.5" style="fill:none;fill-rule:nonzero;stroke:white;stroke-width:0.5px;"/>
        </g>
        <g transform="matrix(1,0,0,1,30.6745,1.72041)">
            <path d="M1046.67,409.5L1226.67,569.5" style="fill:none;fill-rule:nonzero;stroke:white;stroke-width:0.5px;"/>
        </g>
        <g transform="matrix(1,0,0,1,30.6745,1.72041)">
            <path d="M1046.67,449.5L1226.67,489.5" style="fill:none;fill-rule:nonzero;stroke:white;stroke-width:0.5px;"/>
        </g>
        <g transform="matrix(1,0,0,1,30.6745,1.72041)">
            <path d="M1046.67,449.5L1226.67,529.5" style="fill:none;fill-rule:nonzero;stroke:white;stroke-width:0.5px;"/>
        </g>
        <g transform="matrix(1,0,0,1,30.6745,1.72041)">
            <path d="M1046.67,449.5L1226.67,569.5" style="fill:none;fill-rule:nonzero;stroke:white;stroke-width:0.5px;"/>
        </g>
        <g transform="matrix(1,0,0,1,30.6745,1.72041)">
            <path d="M1046.67,489.5L1226.67,489.5" style="fill:none;fill-rule:nonzero;stroke:white;stroke-width:0.5px;"/>
        </g>
        <g transform="matrix(1,0,0,1,30.6745,1.72041)">
            <path d="M1046.67,489.5L1226.67,529.5" style="fill:none;fill-rule:nonzero;stroke:white;stroke-width:0.5px;"/>
        </g>
        <g transform="matrix(1,0,0,1,30.6745,1.72041)">
            <path d="M1046.67,489.5L1226.67,569.5" style="fill:none;fill-rule:nonzero;stroke:white;stroke-width:0.5px;"/>
        </g>
        <g transform="matrix(1,0,0,1,30.6745,1.72041)">
            <path d="M1046.67,529.5L1226.67,489.5" style="fill:none;fill-rule:nonzero;stroke:white;stroke-width:0.5px;"/>
        </g>
        <g transform="matrix(1,0,0,1,30.6745,1.72041)">
            <path d="M1046.67,529.5L1226.67,529.5" style="fill:none;fill-rule:nonzero;stroke:white;stroke-width:0.5px;"/>
        </g>
        <g transform="matrix(1,0,0,1,30.6745,1.72041)">
            <path d="M1046.67,529.5L1226.67,569.5" style="fill:none;fill-rule:nonzero;stroke:white;stroke-width:0.5px;"/>
        </g>
        <g transform="matrix(1,0,0,1,30.6745,1.72041)">
            <path d="M1046.67,569.5L1226.67,489.5" style="fill:none;fill-rule:nonzero;stroke:white;stroke-width:0.5px;"/>
        </g>
        <g transform="matrix(1,0,0,1,30.6745,1.72041)">
            <path d="M1046.67,569.5L1226.67,529.5" style="fill:none;fill-rule:nonzero;stroke:white;stroke-width:0.5px;"/>
        </g>
        <g transform="matrix(1,0,0,1,30.6745,1.72041)">
            <path d="M1046.67,569.5L1226.67,569.5" style="fill:none;fill-rule:nonzero;stroke:white;stroke-width:0.5px;"/>
        </g>
        <g transform="matrix(1,0,0,1,30.6745,1.72041)">
            <path d="M1046.67,609.5L1226.67,489.5" style="fill:none;fill-rule:nonzero;stroke:white;stroke-width:0.5px;"/>
        </g>
        <g transform="matrix(1,0,0,1,30.6745,1.72041)">
            <path d="M1046.67,609.5L1226.67,529.5" style="fill:none;fill-rule:nonzero;stroke:white;stroke-width:0.5px;"/>
        </g>
        <g transform="matrix(1,0,0,1,30.6745,1.72041)">
            <path d="M1046.67,609.5L1226.67,569.5" style="fill:none;fill-rule:nonzero;stroke:white;stroke-width:0.5px;"/>
        </g>
        <g transform="matrix(1,0,0,1,30.6745,1.72041)">
            <path d="M1046.67,649.5L1226.67,489.5" style="fill:none;fill-rule:nonzero;stroke:white;stroke-width:0.5px;"/>
        </g>
        <g transform="matrix(1,0,0,1,30.6745,1.72041)">
            <path d="M1046.67,649.5L1226.67,529.5" style="fill:none;fill-rule:nonzero;stroke:white;stroke-width:0.5px;"/>
        </g>
        <g transform="matrix(1,0,0,1,30.6745,1.72041)">
            <path d="M1046.67,649.5L1226.67,569.5" style="fill:none;fill-rule:nonzero;stroke:white;stroke-width:0.5px;"/>
        </g>
        <g id="_2_0" serif:id="2_0" transform="matrix(1,0,0,1,30.6745,1.72041)">
            <circle cx="1046.67" cy="369.5" r="10" style="fill:none;stroke:white;stroke-width:1px;"/>
        </g>
        <g id="_2_1" serif:id="2_1" transform="matrix(1,0,0,1,30.6745,1.72041)">
            <circle cx="1046.67" cy="409.5" r="10" style="fill:none;stroke:white;stroke-width:1px;"/>
        </g>
        <g id="_2_2" serif:id="2_2" transform="matrix(1,0,0,1,30.6745,1.72041)">
            <circle cx="1046.67" cy="449.5" r="10" style="fill:none;stroke:white;stroke-width:1px;"/>
        </g>
        <g id="_2_3" serif:id="2_3" transform="matrix(1,0,0,1,30.6745,1.72041)">
            <circle cx="1046.67" cy="489.5" r="10" style="fill:none;stroke:white;stroke-width:1px;"/>
        </g>
        <g id="_2_4" serif:id="2_4" transform="matrix(1,0,0,1,30.6745,1.72041)">
            <circle cx="1046.67" cy="529.5" r="10" style="fill:none;stroke:white;stroke-width:1px;"/>
        </g>
        <g id="_2_5" serif:id="2_5" transform="matrix(1,0,0,1,30.6745,1.72041)">
            <circle cx="1046.67" cy="569.5" r="10" style="fill:none;stroke:white;stroke-width:1px;"/>
        </g>
        <g id="_2_6" serif:id="2_6" transform="matrix(1,0,0,1,30.6745,1.72041)">
            <circle cx="1046.67" cy="609.5" r="10" style="fill:none;stroke:white;stroke-width:1px;"/>
        </g>
        <g id="_2_7" serif:id="2_7" transform="matrix(1,0,0,1,30.6745,1.72041)">
            <circle cx="1046.67" cy="649.5" r="10" style="fill:none;stroke:white;stroke-width:1px;"/>
        </g>
        <g transform="matrix(1,0,0,1,30.6745,1.72041)">
            <path d="M866.667,369.5L1046.67,369.5" style="fill:none;fill-rule:nonzero;stroke:white;stroke-width:0.5px;"/>
        </g>
        <g transform="matrix(1,0,0,1,30.6745,1.72041)">
            <path d="M866.667,369.5L1046.67,409.5" style="fill:none;fill-rule:nonzero;stroke:white;stroke-width:0.5px;"/>
        </g>
        <g transform="matrix(1,0,0,1,30.6745,1.72041)">
            <path d="M866.667,369.5L1046.67,449.5" style="fill:none;fill-rule:nonzero;stroke:white;stroke-width:0.5px;"/>
        </g>
        <g transform="matrix(1,0,0,1,30.6745,1.72041)">
            <path d="M866.667,369.5L1046.67,489.5" style="fill:none;fill-rule:nonzero;stroke:white;stroke-width:0.5px;"/>
        </g>
        <g transform="matrix(1,0,0,1,30.6745,1.72041)">
            <path d="M866.667,369.5L1046.67,529.5" style="fill:none;fill-rule:nonzero;stroke:white;stroke-width:0.5px;"/>
        </g>
        <g transform="matrix(1,0,0,1,30.6745,1.72041)">
            <path d="M866.667,369.5L1046.67,569.5" style="fill:none;fill-rule:nonzero;stroke:white;stroke-width:0.5px;"/>
        </g>
        <g transform="matrix(1,0,0,1,30.6745,1.72041)">
            <path d="M866.667,369.5L1046.67,609.5" style="fill:none;fill-rule:nonzero;stroke:white;stroke-width:0.5px;"/>
        </g>
        <g transform="matrix(1,0,0,1,30.6745,1.72041)">
            <path d="M866.667,369.5L1046.67,649.5" style="fill:none;fill-rule:nonzero;stroke:white;stroke-width:0.5px;"/>
        </g>
        <g transform="matrix(1,0,0,1,30.6745,1.72041)">
            <path d="M866.667,409.5L1046.67,369.5" style="fill:none;fill-rule:nonzero;stroke:white;stroke-width:0.5px;"/>
        </g>
        <g transform="matrix(1,0,0,1,30.6745,1.72041)">
            <path d="M866.667,409.5L1046.67,409.5" style="fill:none;fill-rule:nonzero;stroke:white;stroke-width:0.5px;"/>
        </g>
        <g transform="matrix(1,0,0,1,30.6745,1.72041)">
            <path d="M866.667,409.5L1046.67,449.5" style="fill:none;fill-rule:nonzero;stroke:white;stroke-width:0.5px;"/>
        </g>
        <g transform="matrix(1,0,0,1,30.6745,1.72041)">
            <path d="M866.667,409.5L1046.67,489.5" style="fill:none;fill-rule:nonzero;stroke:white;stroke-width:0.5px;"/>
        </g>
        <g transform="matrix(1,0,0,1,30.6745,1.72041)">
            <path d="M866.667,409.5L1046.67,529.5" style="fill:none;fill-rule:nonzero;stroke:white;stroke-width:0.5px;"/>
        </g>
        <g transform="matrix(1,0,0,1,30.6745,1.72041)">
            <path d="M866.667,409.5L1046.67,569.5" style="fill:none;fill-rule:nonzero;stroke:white;stroke-width:0.5px;"/>
        </g>
        <g transform="matrix(1,0,0,1,30.6745,1.72041)">
            <path d="M866.667,409.5L1046.67,609.5" style="fill:none;fill-rule:nonzero;stroke:white;stroke-width:0.5px;"/>
        </g>
        <g transform="matrix(1,0,0,1,30.6745,1.72041)">
            <path d="M866.667,409.5L1046.67,649.5" style="fill:none;fill-rule:nonzero;stroke:white;stroke-width:0.5px;"/>
        </g>
        <g transform="matrix(1,0,0,1,30.6745,1.72041)">
            <path d="M866.667,449.5L1046.67,369.5" style="fill:none;fill-rule:nonzero;stroke:white;stroke-width:0.5px;"/>
        </g>
        <g transform="matrix(1,0,0,1,30.6745,1.72041)">
            <path d="M866.667,449.5L1046.67,409.5" style="fill:none;fill-rule:nonzero;stroke:white;stroke-width:0.5px;"/>
        </g>
        <g transform="matrix(1,0,0,1,30.6745,1.72041)">
            <path d="M866.667,449.5L1046.67,449.5" style="fill:none;fill-rule:nonzero;stroke:white;stroke-width:0.5px;"/>
        </g>
        <g transform="matrix(1,0,0,1,30.6745,1.72041)">
            <path d="M866.667,449.5L1046.67,489.5" style="fill:none;fill-rule:nonzero;stroke:white;stroke-width:0.5px;"/>
        </g>
        <g transform="matrix(1,0,0,1,30.6745,1.72041)">
            <path d="M866.667,449.5L1046.67,529.5" style="fill:none;fill-rule:nonzero;stroke:white;stroke-width:0.5px;"/>
        </g>
        <g transform="matrix(1,0,0,1,30.6745,1.72041)">
            <path d="M866.667,449.5L1046.67,569.5" style="fill:none;fill-rule:nonzero;stroke:white;stroke-width:0.5px;"/>
        </g>
        <g transform="matrix(1,0,0,1,30.6745,1.72041)">
            <path d="M866.667,449.5L1046.67,609.5" style="fill:none;fill-rule:nonzero;stroke:white;stroke-width:0.5px;"/>
        </g>
        <g transform="matrix(1,0,0,1,30.6745,1.72041)">
            <path d="M866.667,449.5L1046.67,649.5" style="fill:none;fill-rule:nonzero;stroke:white;stroke-width:0.5px;"/>
        </g>
        <g transform="matrix(1,0,0,1,30.6745,1.72041)">
            <path d="M866.667,489.5L1046.67,369.5" style="fill:none;fill-rule:nonzero;stroke:white;stroke-width:0.5px;"/>
        </g>
        <g transform="matrix(1,0,0,1,30.6745,1.72041)">
            <path d="M866.667,489.5L1046.67,409.5" style="fill:none;fill-rule:nonzero;stroke:white;stroke-width:0.5px;"/>
        </g>
        <g transform="matrix(1,0,0,1,30.6745,1.72041)">
            <path d="M866.667,489.5L1046.67,449.5" style="fill:none;fill-rule:nonzero;stroke:white;stroke-width:0.5px;"/>
        </g>
        <g transform="matrix(1,0,0,1,30.6745,1.72041)">
            <path d="M866.667,489.5L1046.67,489.5" style="fill:none;fill-rule:nonzero;stroke:white;stroke-width:0.5px;"/>
        </g>
        <g transform="matrix(1,0,0,1,30.6745,1.72041)">
            <path d="M866.667,489.5L1046.67,529.5" style="fill:none;fill-rule:nonzero;stroke:white;stroke-width:0.5px;"/>
        </g>
        <g transform="matrix(1,0,0,1,30.6745,1.72041)">
            <path d="M866.667,489.5L1046.67,569.5" style="fill:none;fill-rule:nonzero;stroke:white;stroke-width:0.5px;"/>
        </g>
        <g transform="matrix(1,0,0,1,30.6745,1.72041)">
            <path d="M866.667,489.5L1046.67,609.5" style="fill:none;fill-rule:nonzero;stroke:white;stroke-width:0.5px;"/>
        </g>
        <g transform="matrix(1,0,0,1,30.6745,1.72041)">
            <path d="M866.667,489.5L1046.67,649.5" style="fill:none;fill-rule:nonzero;stroke:white;stroke-width:0.5px;"/>
        </g>
        <g transform="matrix(1,0,0,1,30.6745,1.72041)">
            <path d="M866.667,529.5L1046.67,369.5" style="fill:none;fill-rule:nonzero;stroke:white;stroke-width:0.5px;"/>
        </g>
        <g transform="matrix(1,0,0,1,30.6745,1.72041)">
            <path d="M866.667,529.5L1046.67,409.5" style="fill:none;fill-rule:nonzero;stroke:white;stroke-width:0.5px;"/>
        </g>
        <g transform="matrix(1,0,0,1,30.6745,1.72041)">
            <path d="M866.667,529.5L1046.67,449.5" style="fill:none;fill-rule:nonzero;stroke:white;stroke-width:0.5px;"/>
        </g>
        <g transform="matrix(1,0,0,1,30.6745,1.72041)">
            <path d="M866.667,529.5L1046.67,489.5" style="fill:none;fill-rule:nonzero;stroke:white;stroke-width:0.5px;"/>
        </g>
        <g transform="matrix(1,0,0,1,30.6745,1.72041)">
            <path d="M866.667,529.5L1046.67,529.5" style="fill:none;fill-rule:nonzero;stroke:white;stroke-width:0.5px;"/>
        </g>
        <g transform="matrix(1,0,0,1,30.6745,1.72041)">
            <path d="M866.667,529.5L1046.67,569.5" style="fill:none;fill-rule:nonzero;stroke:white;stroke-width:0.5px;"/>
        </g>
        <g transform="matrix(1,0,0,1,30.6745,1.72041)">
            <path d="M866.667,529.5L1046.67,609.5" style="fill:none;fill-rule:nonzero;stroke:white;stroke-width:0.5px;"/>
        </g>
        <g transform="matrix(1,0,0,1,30.6745,1.72041)">
            <path d="M866.667,529.5L1046.67,649.5" style="fill:none;fill-rule:nonzero;stroke:white;stroke-width:0.5px;"/>
        </g>
        <g transform="matrix(1,0,0,1,30.6745,1.72041)">
            <path d="M866.667,569.5L1046.67,369.5" style="fill:none;fill-rule:nonzero;stroke:white;stroke-width:0.5px;"/>
        </g>
        <g transform="matrix(1,0,0,1,30.6745,1.72041)">
            <path d="M866.667,569.5L1046.67,409.5" style="fill:none;fill-rule:nonzero;stroke:white;stroke-width:0.5px;"/>
        </g>
        <g transform="matrix(1,0,0,1,30.6745,1.72041)">
            <path d="M866.667,569.5L1046.67,449.5" style="fill:none;fill-rule:nonzero;stroke:white;stroke-width:0.5px;"/>
        </g>
        <g transform="matrix(1,0,0,1,30.6745,1.72041)">
            <path d="M866.667,569.5L1046.67,489.5" style="fill:none;fill-rule:nonzero;stroke:white;stroke-width:0.5px;"/>
        </g>
        <g transform="matrix(1,0,0,1,30.6745,1.72041)">
            <path d="M866.667,569.5L1046.67,529.5" style="fill:none;fill-rule:nonzero;stroke:white;stroke-width:0.5px;"/>
        </g>
        <g transform="matrix(1,0,0,1,30.6745,1.72041)">
            <path d="M866.667,569.5L1046.67,569.5" style="fill:none;fill-rule:nonzero;stroke:white;stroke-width:0.5px;"/>
        </g>
        <g transform="matrix(1,0,0,1,30.6745,1.72041)">
            <path d="M866.667,569.5L1046.67,609.5" style="fill:none;fill-rule:nonzero;stroke:white;stroke-width:0.5px;"/>
        </g>
        <g transform="matrix(1,0,0,1,30.6745,1.72041)">
            <path d="M866.667,569.5L1046.67,649.5" style="fill:none;fill-rule:nonzero;stroke:white;stroke-width:0.5px;"/>
        </g>
        <g transform="matrix(1,0,0,1,30.6745,1.72041)">
            <path d="M866.667,609.5L1046.67,369.5" style="fill:none;fill-rule:nonzero;stroke:white;stroke-width:0.5px;"/>
        </g>
        <g transform="matrix(1,0,0,1,30.6745,1.72041)">
            <path d="M866.667,609.5L1046.67,409.5" style="fill:none;fill-rule:nonzero;stroke:white;stroke-width:0.5px;"/>
        </g>
        <g transform="matrix(1,0,0,1,30.6745,1.72041)">
            <path d="M866.667,609.5L1046.67,449.5" style="fill:none;fill-rule:nonzero;stroke:white;stroke-width:0.5px;"/>
        </g>
        <g transform="matrix(1,0,0,1,30.6745,1.72041)">
            <path d="M866.667,609.5L1046.67,489.5" style="fill:none;fill-rule:nonzero;stroke:white;stroke-width:0.5px;"/>
        </g>
        <g transform="matrix(1,0,0,1,30.6745,1.72041)">
            <path d="M866.667,609.5L1046.67,529.5" style="fill:none;fill-rule:nonzero;stroke:white;stroke-width:0.5px;"/>
        </g>
        <g transform="matrix(1,0,0,1,30.6745,1.72041)">
            <path d="M866.667,609.5L1046.67,569.5" style="fill:none;fill-rule:nonzero;stroke:white;stroke-width:0.5px;"/>
        </g>
        <g transform="matrix(1,0,0,1,30.6745,1.72041)">
            <path d="M866.667,609.5L1046.67,609.5" style="fill:none;fill-rule:nonzero;stroke:white;stroke-width:0.5px;"/>
        </g>
        <g transform="matrix(1,0,0,1,30.6745,1.72041)">
            <path d="M866.667,609.5L1046.67,649.5" style="fill:none;fill-rule:nonzero;stroke:white;stroke-width:0.5px;"/>
        </g>
        <g transform="matrix(1,0,0,1,30.6745,1.72041)">
            <path d="M866.667,649.5L1046.67,369.5" style="fill:none;fill-rule:nonzero;stroke:white;stroke-width:0.5px;"/>
        </g>
        <g transform="matrix(1,0,0,1,30.6745,1.72041)">
            <path d="M866.667,649.5L1046.67,409.5" style="fill:none;fill-rule:nonzero;stroke:white;stroke-width:0.5px;"/>
        </g>
        <g transform="matrix(1,0,0,1,30.6745,1.72041)">
            <path d="M866.667,649.5L1046.67,449.5" style="fill:none;fill-rule:nonzero;stroke:white;stroke-width:0.5px;"/>
        </g>
        <g transform="matrix(1,0,0,1,30.6745,1.72041)">
            <path d="M866.667,649.5L1046.67,489.5" style="fill:none;fill-rule:nonzero;stroke:white;stroke-width:0.5px;"/>
        </g>
        <g transform="matrix(1,0,0,1,30.6745,1.72041)">
            <path d="M866.667,649.5L1046.67,529.5" style="fill:none;fill-rule:nonzero;stroke:white;stroke-width:0.5px;"/>
        </g>
        <g transform="matrix(1,0,0,1,30.6745,1.72041)">
            <path d="M866.667,649.5L1046.67,569.5" style="fill:none;fill-rule:nonzero;stroke:white;stroke-width:0.5px;"/>
        </g>
        <g transform="matrix(1,0,0,1,30.6745,1.72041)">
            <path d="M866.667,649.5L1046.67,609.5" style="fill:none;fill-rule:nonzero;stroke:white;stroke-width:0.5px;"/>
        </g>
        <g transform="matrix(1,0,0,1,30.6745,1.72041)">
            <path d="M866.667,649.5L1046.67,649.5" style="fill:none;fill-rule:nonzero;stroke:white;stroke-width:0.5px;"/>
        </g>
        <g id="_1_0" serif:id="1_0" transform="matrix(1,0,0,1,30.6745,1.72041)">
            <circle cx="866.667" cy="369.5" r="10" style="fill:none;stroke:white;stroke-width:1px;"/>
        </g>
        <g id="_1_1" serif:id="1_1" transform="matrix(1,0,0,1,30.6745,1.72041)">
            <circle cx="866.667" cy="409.5" r="10" style="fill:none;stroke:white;stroke-width:1px;"/>
        </g>
        <g id="_1_2" serif:id="1_2" transform="matrix(1,0,0,1,30.6745,1.72041)">
            <circle cx="866.667" cy="449.5" r="10" style="fill:none;stroke:white;stroke-width:1px;"/>
        </g>
        <g id="_1_3" serif:id="1_3" transform="matrix(1,0,0,1,30.6745,1.72041)">
            <circle cx="866.667" cy="489.5" r="10" style="fill:none;stroke:white;stroke-width:1px;"/>
        </g>
        <g id="_1_4" serif:id="1_4" transform="matrix(1,0,0,1,30.6745,1.72041)">
            <circle cx="866.667" cy="529.5" r="10" style="fill:none;stroke:white;stroke-width:1px;"/>
        </g>
        <g id="_1_5" serif:id="1_5" transform="matrix(1,0,0,1,30.6745,1.72041)">
            <circle cx="866.667" cy="569.5" r="10" style="fill:none;stroke:white;stroke-width:1px;"/>
        </g>
        <g id="_1_6" serif:id="1_6" transform="matrix(1,0,0,1,30.6745,1.72041)">
            <circle cx="866.667" cy="609.5" r="10" style="fill:none;stroke:white;stroke-width:1px;"/>
        </g>
        <g id="_1_7" serif:id="1_7" transform="matrix(1,0,0,1,30.6745,1.72041)">
            <circle cx="866.667" cy="649.5" r="10" style="fill:none;stroke:white;stroke-width:1px;"/>
        </g>
        <g transform="matrix(1,0,0,1,30.6745,1.72041)">
            <path d="M686.667,449.5L866.667,369.5" style="fill:none;fill-rule:nonzero;stroke:white;stroke-width:0.5px;"/>
        </g>
        <g transform="matrix(1,0,0,1,30.6745,1.72041)">
            <path d="M686.667,449.5L866.667,409.5" style="fill:none;fill-rule:nonzero;stroke:white;stroke-width:0.5px;"/>
        </g>
        <g transform="matrix(1,0,0,1,30.6745,1.72041)">
            <path d="M686.667,449.5L866.667,449.5" style="fill:none;fill-rule:nonzero;stroke:white;stroke-width:0.5px;"/>
        </g>
        <g transform="matrix(1,0,0,1,30.6745,1.72041)">
            <path d="M686.667,449.5L866.667,489.5" style="fill:none;fill-rule:nonzero;stroke:white;stroke-width:0.5px;"/>
        </g>
        <g transform="matrix(1,0,0,1,30.6745,1.72041)">
            <path d="M686.667,449.5L866.667,529.5" style="fill:none;fill-rule:nonzero;stroke:white;stroke-width:0.5px;"/>
        </g>
        <g transform="matrix(1,0,0,1,30.6745,1.72041)">
            <path d="M686.667,449.5L866.667,569.5" style="fill:none;fill-rule:nonzero;stroke:white;stroke-width:0.5px;"/>
        </g>
        <g transform="matrix(1,0,0,1,30.6745,1.72041)">
            <path d="M686.667,449.5L866.667,609.5" style="fill:none;fill-rule:nonzero;stroke:white;stroke-width:0.5px;"/>
        </g>
        <g transform="matrix(1,0,0,1,30.6745,1.72041)">
            <path d="M686.667,449.5L866.667,649.5" style="fill:none;fill-rule:nonzero;stroke:white;stroke-width:0.5px;"/>
        </g>
        <g transform="matrix(1,0,0,1,30.6745,1.72041)">
            <path d="M686.667,489.5L866.667,369.5" style="fill:none;fill-rule:nonzero;stroke:white;stroke-width:0.5px;"/>
        </g>
        <g transform="matrix(1,0,0,1,30.6745,1.72041)">
            <path d="M686.667,489.5L866.667,409.5" style="fill:none;fill-rule:nonzero;stroke:white;stroke-width:0.5px;"/>
        </g>
        <g transform="matrix(1,0,0,1,30.6745,1.72041)">
            <path d="M686.667,489.5L866.667,449.5" style="fill:none;fill-rule:nonzero;stroke:white;stroke-width:0.5px;"/>
        </g>
        <g transform="matrix(1,0,0,1,30.6745,1.72041)">
            <path d="M686.667,489.5L866.667,489.5" style="fill:none;fill-rule:nonzero;stroke:white;stroke-width:0.5px;"/>
        </g>
        <g transform="matrix(1,0,0,1,30.6745,1.72041)">
            <path d="M686.667,489.5L866.667,529.5" style="fill:none;fill-rule:nonzero;stroke:white;stroke-width:0.5px;"/>
        </g>
        <g transform="matrix(1,0,0,1,30.6745,1.72041)">
            <path d="M686.667,489.5L866.667,569.5" style="fill:none;fill-rule:nonzero;stroke:white;stroke-width:0.5px;"/>
        </g>
        <g transform="matrix(1,0,0,1,30.6745,1.72041)">
            <path d="M686.667,489.5L866.667,609.5" style="fill:none;fill-rule:nonzero;stroke:white;stroke-width:0.5px;"/>
        </g>
        <g transform="matrix(1,0,0,1,30.6745,1.72041)">
            <path d="M686.667,489.5L866.667,649.5" style="fill:none;fill-rule:nonzero;stroke:white;stroke-width:0.5px;"/>
        </g>
        <g transform="matrix(1,0,0,1,30.6745,1.72041)">
            <path d="M686.667,529.5L866.667,369.5" style="fill:none;fill-rule:nonzero;stroke:white;stroke-width:0.5px;"/>
        </g>
        <g transform="matrix(1,0,0,1,30.6745,1.72041)">
            <path d="M686.667,529.5L866.667,409.5" style="fill:none;fill-rule:nonzero;stroke:white;stroke-width:0.5px;"/>
        </g>
        <g transform="matrix(1,0,0,1,30.6745,1.72041)">
            <path d="M686.667,529.5L866.667,449.5" style="fill:none;fill-rule:nonzero;stroke:white;stroke-width:0.5px;"/>
        </g>
        <g transform="matrix(1,0,0,1,30.6745,1.72041)">
            <path d="M686.667,529.5L866.667,489.5" style="fill:none;fill-rule:nonzero;stroke:white;stroke-width:0.5px;"/>
        </g>
        <g transform="matrix(1,0,0,1,30.6745,1.72041)">
            <path d="M686.667,529.5L866.667,529.5" style="fill:none;fill-rule:nonzero;stroke:white;stroke-width:0.5px;"/>
        </g>
        <g transform="matrix(1,0,0,1,30.6745,1.72041)">
            <path d="M686.667,529.5L866.667,569.5" style="fill:none;fill-rule:nonzero;stroke:white;stroke-width:0.5px;"/>
        </g>
        <g transform="matrix(1,0,0,1,30.6745,1.72041)">
            <path d="M686.667,529.5L866.667,609.5" style="fill:none;fill-rule:nonzero;stroke:white;stroke-width:0.5px;"/>
        </g>
        <g transform="matrix(1,0,0,1,30.6745,1.72041)">
            <path d="M686.667,529.5L866.667,649.5" style="fill:none;fill-rule:nonzero;stroke:white;stroke-width:0.5px;"/>
        </g>
        <g transform="matrix(1,0,0,1,30.6745,1.72041)">
            <path d="M686.667,569.5L866.667,369.5" style="fill:none;fill-rule:nonzero;stroke:white;stroke-width:0.5px;"/>
        </g>
        <g transform="matrix(1,0,0,1,30.6745,1.72041)">
            <path d="M686.667,569.5L866.667,409.5" style="fill:none;fill-rule:nonzero;stroke:white;stroke-width:0.5px;"/>
        </g>
        <g transform="matrix(1,0,0,1,30.6745,1.72041)">
            <path d="M686.667,569.5L866.667,449.5" style="fill:none;fill-rule:nonzero;stroke:white;stroke-width:0.5px;"/>
        </g>
        <g transform="matrix(1,0,0,1,30.6745,1.72041)">
            <path d="M686.667,569.5L866.667,489.5" style="fill:none;fill-rule:nonzero;stroke:white;stroke-width:0.5px;"/>
        </g>
        <g transform="matrix(1,0,0,1,30.6745,1.72041)">
            <path d="M686.667,569.5L866.667,529.5" style="fill:none;fill-rule:nonzero;stroke:white;stroke-width:0.5px;"/>
        </g>
        <g transform="matrix(1,0,0,1,30.6745,1.72041)">
            <path d="M686.667,569.5L866.667,569.5" style="fill:none;fill-rule:nonzero;stroke:white;stroke-width:0.5px;"/>
        </g>
        <g transform="matrix(1,0,0,1,30.6745,1.72041)">
            <path d="M686.667,569.5L866.667,609.5" style="fill:none;fill-rule:nonzero;stroke:white;stroke-width:0.5px;"/>
        </g>
        <g transform="matrix(1,0,0,1,30.6745,1.72041)">
            <path d="M686.667,569.5L866.667,649.5" style="fill:none;fill-rule:nonzero;stroke:white;stroke-width:0.5px;"/>
        </g>
        <g id="_0_0" serif:id="0_0" transform="matrix(1,0,0,1,30.6745,1.72041)">
            <circle cx="686.667" cy="449.5" r="10" style="fill:none;stroke:white;stroke-width:1px;"/>
        </g>
        <g id="_0_1" serif:id="0_1" transform="matrix(1,0,0,1,30.6745,1.72041)">
            <circle cx="686.667" cy="489.5" r="10" style="fill:none;stroke:white;stroke-width:1px;"/>
        </g>
        <g id="_0_2" serif:id="0_2" transform="matrix(1,0,0,1,30.6745,1.72041)">
            <circle cx="686.667" cy="529.5" r="10" style="fill:none;stroke:white;stroke-width:1px;"/>
        </g>
        <g id="_0_3" serif:id="0_3" transform="matrix(1,0,0,1,30.6745,1.72041)">
            <circle cx="686.667" cy="569.5" r="10" style="fill:none;stroke:white;stroke-width:1px;"/>
        </g>
    </g>
</svg>
