<?xml version="1.0" encoding="UTF-8" standalone="no"?>
<!DOCTYPE svg PUBLIC "-//W3C//DTD SVG 1.1//EN" "http://www.w3.org/Graphics/SVG/1.1/DTD/svg11.dtd">
<svg width="100%" height="100%" viewBox="0 0 400 247" version="1.1" xmlns="http://www.w3.org/2000/svg" xmlns:xlink="http://www.w3.org/1999/xlink" xml:space="preserve" xmlns:serif="http://www.serif.com/" style="fill-rule:evenodd;clip-rule:evenodd;stroke-miterlimit:10;">
    <g id="NODE" transform="matrix(1,0,0,1,-148.062,-253.402)">
        <g transform="matrix(1,0,0,1,188.757,385.364)">
            <path d="M12.756,-17.207L-12.756,-17.207C-17.453,-17.207 -21.26,-13.4 -21.26,-8.703C-21.26,-4.007 -17.453,-0.199 -12.756,-0.199L12.756,-0.199C17.453,-0.199 21.26,-4.007 21.26,-8.703C21.26,-13.4 17.453,-17.207 12.756,-17.207Z" style="fill:none;fill-rule:nonzero;stroke:black;stroke-width:0.4px;"/>
        </g>
        <g transform="matrix(1,0,0,1,188.757,288.984)">
            <path d="M72.683,30.782L47.171,30.782C42.474,30.782 38.667,34.589 38.667,39.286L38.667,39.687C38.667,44.384 42.474,48.191 47.171,48.191L72.683,48.191C77.38,48.191 81.187,44.384 81.187,39.687L81.187,39.286C81.187,34.589 77.38,30.782 72.683,30.782Z" style="fill:none;fill-rule:nonzero;stroke:black;stroke-width:0.4px;"/>
        </g>
        <g transform="matrix(1,0,0,1,188.757,481.743)">
            <path d="M72.683,-65.598L47.171,-65.598C42.474,-65.598 38.667,-61.79 38.667,-57.093L38.667,-56.692C38.667,-51.996 42.474,-48.188 47.171,-48.188L72.683,-48.188C77.38,-48.188 81.187,-51.996 81.187,-56.692L81.187,-57.093C81.187,-61.79 77.38,-65.598 72.683,-65.598Z" style="fill:none;fill-rule:nonzero;stroke:black;stroke-width:0.4px;"/>
        </g>
        <g transform="matrix(1,0,0,1,188.757,288.984)">
            <path d="M193.675,-6.207L121.271,-6.207C116.574,-6.207 112.767,-2.4 112.767,2.297L112.767,76.676C112.767,81.373 116.574,85.18 121.271,85.18L193.675,85.18C198.371,85.18 202.179,81.373 202.179,76.676L202.179,2.297C202.179,-2.4 198.371,-6.207 193.675,-6.207Z" style="fill:none;fill-rule:nonzero;stroke:black;stroke-width:0.4px;"/>
        </g>
        <g transform="matrix(1,0,0,1,323.291,354.838)">
            <path d="M0,0L43.882,0" style="fill:none;fill-rule:nonzero;stroke:black;stroke-width:0.4px;"/>
        </g>
        <g transform="matrix(1,0,0,1,367.173,354.838)">
            <path d="M1.993,0L-1.196,-1.594L0,0L-1.196,1.594" style="fill-rule:nonzero;"/>
        </g>
        <g transform="matrix(0,-1,-1,0,345.233,332.896)">
            <path d="M-21.942,21.942L21.942,21.942" style="fill:none;fill-rule:nonzero;stroke:black;stroke-width:0.4px;"/>
        </g>
        <g transform="matrix(0,-1,1,0,323.291,310.954)">
            <path d="M1.993,0L-1.196,-1.594L0,0L-1.196,1.594" style="fill-rule:nonzero;"/>
        </g>
        <g transform="matrix(1,0,0,1,323.291,-6498.61)">
            <path d="M0,6853.44C0,6853.44 2.708,6853.34 3.748,6853.28C4.788,6853.23 6.456,6853.12 7.496,6853.04C8.536,6852.95 10.204,6852.8 11.244,6852.67C12.284,6852.54 13.951,6852.3 14.991,6852.11C16.031,6851.91 17.699,6851.55 18.739,6851.26C19.779,6850.96 21.447,6850.42 22.487,6849.96C23.527,6849.51 25.195,6848.69 26.235,6848C27.275,6847.32 28.943,6846.07 29.983,6845.03C31.023,6843.99 32.691,6842.1 33.731,6840.52C34.771,6838.95 36.439,6836.07 37.479,6833.68C38.519,6831.29 40.186,6826.93 41.226,6823.3C42.266,6819.68 43.934,6813.06 44.974,6807.56" style="fill:none;fill-rule:nonzero;stroke:black;stroke-width:0.8px;"/>
        </g>
        <g transform="matrix(1,0,0,1,188.757,481.743)">
            <path d="M193.675,-102.587L121.271,-102.587C116.574,-102.587 112.767,-98.779 112.767,-94.083L112.767,-19.703C112.767,-15.007 116.574,-11.199 121.271,-11.199L193.675,-11.199C198.371,-11.199 202.179,-15.007 202.179,-19.703L202.179,-94.083C202.179,-98.779 198.371,-102.587 193.675,-102.587Z" style="fill:none;fill-rule:nonzero;stroke:black;stroke-width:0.4px;"/>
        </g>
        <g transform="matrix(1,0,0,1,-83.619,451.216)">
            <path d="M406.914,0L450.799,0" style="fill:none;fill-rule:nonzero;stroke:black;stroke-width:0.4px;"/>
        </g>
        <g transform="matrix(1,0,0,1,367.18,451.216)">
            <path d="M1.993,0L-1.196,-1.594L0,0L-1.196,1.594" style="fill-rule:nonzero;"/>
        </g>
        <g transform="matrix(0,-1,-1,0,345.237,836.187)">
            <path d="M384.971,21.942L428.856,21.942" style="fill:none;fill-rule:nonzero;stroke:black;stroke-width:0.4px;"/>
        </g>
        <g transform="matrix(0,-1,1,0,323.295,407.331)">
            <path d="M1.993,0L-1.196,-1.594L0,0L-1.196,1.594" style="fill-rule:nonzero;"/>
        </g>
        <g transform="matrix(1,0,0,1,-83.619,-2953.3)">
            <path d="M406.914,3369.72C417.238,3375.95 435.358,3381.75 451.37,3384.13" style="fill:none;fill-rule:nonzero;stroke:black;stroke-width:0.8px;"/>
        </g>
        <g transform="matrix(1,0,0,1,188.757,288.984)">
            <path d="M270.24,30.115L242.263,30.115C237.566,30.115 233.759,33.922 233.759,38.619L233.759,40.353C233.759,45.05 237.566,48.857 242.263,48.857L270.24,48.857C274.937,48.857 278.744,45.05 278.744,40.353L278.744,38.619C278.744,33.922 274.937,30.115 270.24,30.115Z" style="fill:none;fill-rule:nonzero;stroke:black;stroke-width:0.4px;"/>
        </g>
        <g transform="matrix(1,0,0,1,188.757,481.743)">
            <path d="M270.24,-66.264L242.263,-66.264C237.566,-66.264 233.759,-62.457 233.759,-57.76L233.759,-56.026C233.759,-51.329 237.566,-47.522 242.263,-47.522L270.24,-47.522C274.937,-47.522 278.744,-51.329 278.744,-56.026L278.744,-57.76C278.744,-62.457 274.937,-66.264 270.24,-66.264Z" style="fill:none;fill-rule:nonzero;stroke:black;stroke-width:0.4px;"/>
        </g>
        <g transform="matrix(1,0,0,1,188.757,385.364)">
            <path d="M330.167,-18.009L304.655,-18.009C299.958,-18.009 296.15,-14.201 296.15,-9.505L296.15,-7.902C296.15,-3.205 299.958,0.602 304.655,0.602L330.167,0.602C334.863,0.602 338.671,-3.205 338.671,-7.902L338.671,-9.505C338.671,-14.201 334.863,-18.009 330.167,-18.009Z" style="fill:none;fill-rule:nonzero;stroke:black;stroke-width:0.4px;"/>
        </g>
        <g transform="matrix(11.9552,0,0,11.9552,185.005,380.761)">
            <path d="M0.09,-0L0.09,-0.723L0.545,-0.723L0.545,-0.624L0.241,-0.624L0.241,-0.404L0.491,-0.404L0.491,-0.304L0.241,-0.304L0.241,-0L0.09,-0Z" style="fill-rule:nonzero;"/>
        </g>
        <g>
            <g transform="matrix(24.7871,0,0,24.7871,245.573,446.335)">
                <rect x="0.098" y="-0.121" width="0.121" height="0.121" style="fill-rule:nonzero;"/>
            </g>
            <g transform="matrix(24.7871,0,0,24.7871,245.573,450.32)">
                <rect x="0.098" y="-0.121" width="0.121" height="0.121" style="fill-rule:nonzero;"/>
            </g>
            <g transform="matrix(24.7871,0,0,24.7871,245.573,454.305)">
                <rect x="0.098" y="-0.121" width="0.121" height="0.121" style="fill-rule:nonzero;"/>
            </g>
        </g>
        <g>
            <g transform="matrix(11.9552,0,0,11.9552,309.326,298.884)">
                <path d="M0.093,-0L0.093,-0.723L0.194,-0.723L0.558,-0.165L0.558,-0.723L0.646,-0.723L0.646,-0L0.545,-0L0.181,-0.558L0.181,-0L0.093,-0Z" style="fill-rule:nonzero;"/>
            </g>
            <g transform="matrix(11.9552,0,0,11.9552,317.888,298.884)">
                <path d="M0.485,-0.017C0.42,0.002 0.365,0.012 0.319,0.012C0.241,0.012 0.177,-0.014 0.128,-0.066C0.079,-0.118 0.054,-0.185 0.054,-0.268C0.054,-0.348 0.076,-0.414 0.119,-0.465C0.163,-0.517 0.218,-0.542 0.286,-0.542C0.35,-0.542 0.4,-0.52 0.435,-0.474C0.47,-0.429 0.487,-0.364 0.487,-0.28L0.487,-0.25L0.152,-0.25C0.166,-0.124 0.228,-0.061 0.337,-0.061C0.377,-0.061 0.427,-0.072 0.485,-0.093L0.485,-0.017ZM0.157,-0.322L0.391,-0.322C0.391,-0.421 0.354,-0.47 0.28,-0.47C0.206,-0.47 0.165,-0.421 0.157,-0.322Z" style="fill-rule:nonzero;"/>
            </g>
            <g transform="matrix(11.9552,0,0,11.9552,324.278,298.884)">
                <path d="M0.428,-0L0.428,-0.1C0.377,-0.025 0.315,0.012 0.242,0.012C0.195,0.012 0.159,-0.002 0.131,-0.031C0.104,-0.061 0.09,-0.1 0.09,-0.149L0.09,-0.53L0.187,-0.53L0.187,-0.181C0.187,-0.141 0.192,-0.113 0.204,-0.096C0.215,-0.079 0.235,-0.071 0.262,-0.071C0.32,-0.071 0.376,-0.109 0.428,-0.187L0.428,-0.53L0.524,-0.53L0.524,-0L0.428,-0Z" style="fill-rule:nonzero;"/>
            </g>
            <g transform="matrix(11.9552,0,0,11.9552,331.427,298.884)">
                <path d="M0.096,-0L0.096,-0.53L0.192,-0.53L0.192,-0.431C0.23,-0.505 0.286,-0.542 0.358,-0.542C0.368,-0.542 0.378,-0.541 0.389,-0.54L0.389,-0.45C0.373,-0.455 0.358,-0.458 0.345,-0.458C0.284,-0.458 0.233,-0.422 0.192,-0.35L0.192,-0L0.096,-0Z" style="fill-rule:nonzero;"/>
            </g>
            <g transform="matrix(11.9552,0,0,11.9552,336.048,298.884)">
                <path d="M0.37,-0.067C0.312,-0.014 0.257,0.012 0.203,0.012C0.159,0.012 0.123,-0.002 0.094,-0.029C0.065,-0.057 0.05,-0.091 0.05,-0.133C0.05,-0.191 0.075,-0.236 0.123,-0.267C0.172,-0.298 0.242,-0.313 0.333,-0.313L0.355,-0.313L0.355,-0.377C0.355,-0.439 0.324,-0.47 0.261,-0.47C0.21,-0.47 0.155,-0.454 0.096,-0.423L0.096,-0.502C0.161,-0.529 0.222,-0.542 0.278,-0.542C0.338,-0.542 0.381,-0.529 0.409,-0.502C0.438,-0.475 0.452,-0.434 0.452,-0.377L0.452,-0.137C0.452,-0.082 0.469,-0.055 0.502,-0.055C0.507,-0.055 0.513,-0.055 0.521,-0.057L0.528,-0.003C0.506,0.007 0.482,0.012 0.456,0.012C0.411,0.012 0.382,-0.014 0.37,-0.067ZM0.355,-0.12L0.355,-0.257L0.323,-0.258C0.271,-0.258 0.228,-0.248 0.195,-0.228C0.163,-0.208 0.146,-0.181 0.146,-0.149C0.146,-0.126 0.155,-0.106 0.171,-0.09C0.187,-0.074 0.207,-0.066 0.23,-0.066C0.271,-0.066 0.312,-0.084 0.355,-0.12Z" style="fill-rule:nonzero;"/>
            </g>
            <g transform="matrix(11.9552,0,0,11.9552,342.38,298.884)">
                <rect x="0.096" y="-0.771" width="0.096" height="0.771" style="fill-rule:nonzero;"/>
            </g>
            <g transform="matrix(11.9552,0,0,11.9552,347.363,298.884)">
                <path d="M0.384,0.018C0.284,0.018 0.203,-0.017 0.142,-0.086C0.081,-0.156 0.051,-0.248 0.051,-0.362C0.051,-0.477 0.081,-0.569 0.143,-0.637C0.204,-0.706 0.286,-0.741 0.389,-0.741C0.491,-0.741 0.573,-0.706 0.634,-0.638C0.696,-0.569 0.727,-0.477 0.727,-0.363C0.727,-0.246 0.696,-0.153 0.634,-0.085C0.573,-0.016 0.489,0.018 0.384,0.018ZM0.386,-0.059C0.46,-0.059 0.517,-0.085 0.557,-0.138C0.597,-0.192 0.618,-0.267 0.618,-0.364C0.618,-0.458 0.597,-0.531 0.557,-0.584C0.516,-0.638 0.46,-0.664 0.389,-0.664C0.317,-0.664 0.261,-0.637 0.22,-0.584C0.18,-0.531 0.16,-0.457 0.16,-0.362C0.16,-0.268 0.18,-0.194 0.22,-0.14C0.26,-0.086 0.315,-0.059 0.386,-0.059Z" style="fill-rule:nonzero;"/>
            </g>
            <g transform="matrix(11.9552,0,0,11.9552,356.38,298.884)">
                <path d="M0.093,-0L0.093,-0.723L0.333,-0.723C0.405,-0.723 0.463,-0.715 0.507,-0.699C0.551,-0.683 0.589,-0.656 0.622,-0.618C0.673,-0.557 0.698,-0.477 0.698,-0.378C0.698,-0.258 0.667,-0.165 0.603,-0.099C0.54,-0.033 0.45,-0 0.335,-0L0.093,-0ZM0.196,-0.077L0.327,-0.077C0.421,-0.077 0.487,-0.102 0.526,-0.152C0.568,-0.206 0.589,-0.278 0.589,-0.369C0.589,-0.454 0.569,-0.52 0.527,-0.569C0.502,-0.598 0.472,-0.619 0.438,-0.63C0.403,-0.641 0.35,-0.646 0.28,-0.646L0.196,-0.646L0.196,-0.077Z" style="fill-rule:nonzero;"/>
            </g>
            <g transform="matrix(11.9552,0,0,11.9552,365.064,298.884)">
                <path d="M0.093,-0L0.093,-0.723L0.497,-0.723L0.497,-0.646L0.196,-0.646L0.196,-0.414L0.448,-0.414L0.448,-0.338L0.196,-0.338L0.196,-0.077L0.518,-0.077L0.518,-0L0.093,-0Z" style="fill-rule:nonzero;"/>
            </g>
            <g transform="matrix(11.9552,0,0,11.9552,377.281,298.884)">
                <path d="M0.15,-0L0.15,-0.072L0.295,-0.072L0.295,-0.643L0.15,-0.606L0.15,-0.681L0.392,-0.741L0.392,-0.072L0.536,-0.072L0.536,-0L0.15,-0Z" style="fill-rule:nonzero;"/>
            </g>
        </g>
        <g>
            <g transform="matrix(11.9552,0,0,11.9552,309.326,395.261)">
                <path d="M0.093,-0L0.093,-0.723L0.194,-0.723L0.558,-0.165L0.558,-0.723L0.646,-0.723L0.646,-0L0.545,-0L0.181,-0.558L0.181,-0L0.093,-0Z" style="fill-rule:nonzero;"/>
            </g>
            <g transform="matrix(11.9552,0,0,11.9552,317.888,395.261)">
                <path d="M0.485,-0.017C0.42,0.002 0.365,0.012 0.319,0.012C0.241,0.012 0.177,-0.014 0.128,-0.066C0.079,-0.118 0.054,-0.185 0.054,-0.268C0.054,-0.348 0.076,-0.414 0.119,-0.465C0.163,-0.517 0.218,-0.542 0.286,-0.542C0.35,-0.542 0.4,-0.52 0.435,-0.474C0.47,-0.429 0.487,-0.364 0.487,-0.28L0.487,-0.25L0.152,-0.25C0.166,-0.124 0.228,-0.061 0.337,-0.061C0.377,-0.061 0.427,-0.072 0.485,-0.093L0.485,-0.017ZM0.157,-0.322L0.391,-0.322C0.391,-0.421 0.354,-0.47 0.28,-0.47C0.206,-0.47 0.165,-0.421 0.157,-0.322Z" style="fill-rule:nonzero;"/>
            </g>
            <g transform="matrix(11.9552,0,0,11.9552,324.278,395.261)">
                <path d="M0.428,-0L0.428,-0.1C0.377,-0.025 0.315,0.012 0.242,0.012C0.195,0.012 0.159,-0.002 0.131,-0.031C0.104,-0.061 0.09,-0.1 0.09,-0.149L0.09,-0.53L0.187,-0.53L0.187,-0.181C0.187,-0.141 0.192,-0.113 0.204,-0.096C0.215,-0.079 0.235,-0.071 0.262,-0.071C0.32,-0.071 0.376,-0.109 0.428,-0.187L0.428,-0.53L0.524,-0.53L0.524,-0L0.428,-0Z" style="fill-rule:nonzero;"/>
            </g>
            <g transform="matrix(11.9552,0,0,11.9552,331.427,395.261)">
                <path d="M0.096,-0L0.096,-0.53L0.192,-0.53L0.192,-0.431C0.23,-0.505 0.286,-0.542 0.358,-0.542C0.368,-0.542 0.378,-0.541 0.389,-0.54L0.389,-0.45C0.373,-0.455 0.358,-0.458 0.345,-0.458C0.284,-0.458 0.233,-0.422 0.192,-0.35L0.192,-0L0.096,-0Z" style="fill-rule:nonzero;"/>
            </g>
            <g transform="matrix(11.9552,0,0,11.9552,336.048,395.261)">
                <path d="M0.37,-0.067C0.312,-0.014 0.257,0.012 0.203,0.012C0.159,0.012 0.123,-0.002 0.094,-0.029C0.065,-0.057 0.05,-0.091 0.05,-0.133C0.05,-0.191 0.075,-0.236 0.123,-0.267C0.172,-0.298 0.242,-0.313 0.333,-0.313L0.355,-0.313L0.355,-0.377C0.355,-0.439 0.324,-0.47 0.261,-0.47C0.21,-0.47 0.155,-0.454 0.096,-0.423L0.096,-0.502C0.161,-0.529 0.222,-0.542 0.278,-0.542C0.338,-0.542 0.381,-0.529 0.409,-0.502C0.438,-0.475 0.452,-0.434 0.452,-0.377L0.452,-0.137C0.452,-0.082 0.469,-0.055 0.502,-0.055C0.507,-0.055 0.513,-0.055 0.521,-0.057L0.528,-0.003C0.506,0.007 0.482,0.012 0.456,0.012C0.411,0.012 0.382,-0.014 0.37,-0.067ZM0.355,-0.12L0.355,-0.257L0.323,-0.258C0.271,-0.258 0.228,-0.248 0.195,-0.228C0.163,-0.208 0.146,-0.181 0.146,-0.149C0.146,-0.126 0.155,-0.106 0.171,-0.09C0.187,-0.074 0.207,-0.066 0.23,-0.066C0.271,-0.066 0.312,-0.084 0.355,-0.12Z" style="fill-rule:nonzero;"/>
            </g>
            <g transform="matrix(11.9552,0,0,11.9552,342.38,395.261)">
                <rect x="0.096" y="-0.771" width="0.096" height="0.771" style="fill-rule:nonzero;"/>
            </g>
            <g transform="matrix(11.9552,0,0,11.9552,347.363,395.261)">
                <path d="M0.384,0.018C0.284,0.018 0.203,-0.017 0.142,-0.086C0.081,-0.156 0.051,-0.248 0.051,-0.362C0.051,-0.477 0.081,-0.569 0.143,-0.637C0.204,-0.706 0.286,-0.741 0.389,-0.741C0.491,-0.741 0.573,-0.706 0.634,-0.638C0.696,-0.569 0.727,-0.477 0.727,-0.363C0.727,-0.246 0.696,-0.153 0.634,-0.085C0.573,-0.016 0.489,0.018 0.384,0.018ZM0.386,-0.059C0.46,-0.059 0.517,-0.085 0.557,-0.138C0.597,-0.192 0.618,-0.267 0.618,-0.364C0.618,-0.458 0.597,-0.531 0.557,-0.584C0.516,-0.638 0.46,-0.664 0.389,-0.664C0.317,-0.664 0.261,-0.637 0.22,-0.584C0.18,-0.531 0.16,-0.457 0.16,-0.362C0.16,-0.268 0.18,-0.194 0.22,-0.14C0.26,-0.086 0.315,-0.059 0.386,-0.059Z" style="fill-rule:nonzero;"/>
            </g>
            <g transform="matrix(11.9552,0,0,11.9552,356.38,395.261)">
                <path d="M0.093,-0L0.093,-0.723L0.333,-0.723C0.405,-0.723 0.463,-0.715 0.507,-0.699C0.551,-0.683 0.589,-0.656 0.622,-0.618C0.673,-0.557 0.698,-0.477 0.698,-0.378C0.698,-0.258 0.667,-0.165 0.603,-0.099C0.54,-0.033 0.45,-0 0.335,-0L0.093,-0ZM0.196,-0.077L0.327,-0.077C0.421,-0.077 0.487,-0.102 0.526,-0.152C0.568,-0.206 0.589,-0.278 0.589,-0.369C0.589,-0.454 0.569,-0.52 0.527,-0.569C0.502,-0.598 0.472,-0.619 0.438,-0.63C0.403,-0.641 0.35,-0.646 0.28,-0.646L0.196,-0.646L0.196,-0.077Z" style="fill-rule:nonzero;"/>
            </g>
            <g transform="matrix(11.9552,0,0,11.9552,365.064,395.261)">
                <path d="M0.093,-0L0.093,-0.723L0.497,-0.723L0.497,-0.646L0.196,-0.646L0.196,-0.414L0.448,-0.414L0.448,-0.338L0.196,-0.338L0.196,-0.077L0.518,-0.077L0.518,-0L0.093,-0Z" style="fill-rule:nonzero;"/>
            </g>
            <g transform="matrix(11.9552,0,0,11.9552,377.281,395.261)">
                <path d="M0.083,-0L0.083,-0.084C0.111,-0.15 0.168,-0.221 0.253,-0.298L0.308,-0.348C0.379,-0.412 0.415,-0.475 0.415,-0.539C0.415,-0.579 0.402,-0.611 0.378,-0.634C0.354,-0.657 0.321,-0.668 0.278,-0.668C0.228,-0.668 0.169,-0.649 0.101,-0.61L0.101,-0.695C0.165,-0.726 0.229,-0.741 0.292,-0.741C0.36,-0.741 0.414,-0.722 0.455,-0.686C0.496,-0.65 0.517,-0.601 0.517,-0.541C0.517,-0.498 0.506,-0.459 0.486,-0.426C0.465,-0.392 0.426,-0.352 0.37,-0.304L0.333,-0.272C0.256,-0.207 0.211,-0.144 0.199,-0.084L0.513,-0.084L0.513,-0L0.083,-0Z" style="fill-rule:nonzero;"/>
            </g>
        </g>
        <g>
            <g transform="matrix(24.7871,0,0,24.7871,343.117,483.323)">
                <rect x="0.098" y="-0.121" width="0.121" height="0.121" style="fill-rule:nonzero;"/>
            </g>
            <g transform="matrix(24.7871,0,0,24.7871,343.117,487.308)">
                <rect x="0.098" y="-0.121" width="0.121" height="0.121" style="fill-rule:nonzero;"/>
            </g>
            <g transform="matrix(24.7871,0,0,24.7871,343.117,491.293)">
                <rect x="0.098" y="-0.121" width="0.121" height="0.121" style="fill-rule:nonzero;"/>
            </g>
        </g>
        <g>
            <g transform="matrix(11.9552,0,0,11.9552,493.509,379.715)">
                <path d="M0.09,-0L0.09,-0.723L0.342,-0.723C0.43,-0.723 0.493,-0.708 0.531,-0.678C0.568,-0.649 0.587,-0.6 0.587,-0.531C0.587,-0.453 0.562,-0.392 0.511,-0.348C0.461,-0.305 0.391,-0.283 0.3,-0.283L0.238,-0.283L0.238,-0L0.09,-0ZM0.238,-0.382L0.267,-0.382C0.319,-0.382 0.359,-0.394 0.389,-0.418C0.419,-0.442 0.434,-0.475 0.434,-0.516C0.434,-0.588 0.388,-0.624 0.296,-0.624L0.238,-0.624L0.238,-0.382Z" style="fill-rule:nonzero;"/>
            </g>
            <g transform="matrix(11.9552,0,0,11.9552,503,379.715)">
                <path d="M0.289,0.078L0.289,0.145C0.219,0.097 0.163,0.032 0.122,-0.051C0.081,-0.133 0.06,-0.22 0.06,-0.313C0.06,-0.406 0.081,-0.494 0.122,-0.576C0.163,-0.658 0.219,-0.723 0.289,-0.771L0.289,-0.705C0.241,-0.653 0.207,-0.597 0.187,-0.537C0.166,-0.477 0.156,-0.402 0.156,-0.313C0.156,-0.224 0.166,-0.15 0.187,-0.09C0.207,-0.03 0.241,0.026 0.289,0.078Z" style="fill-rule:nonzero;"/>
            </g>
            <g transform="matrix(11.9552,0,0,11.9552,507.443,379.715)">
                <path d="M0.09,-0L0.09,-0.723L0.545,-0.723L0.545,-0.624L0.241,-0.624L0.241,-0.404L0.491,-0.404L0.491,-0.304L0.241,-0.304L0.241,-0L0.09,-0Z" style="fill-rule:nonzero;"/>
            </g>
            <g transform="matrix(11.9552,0,0,11.9552,514.864,379.715)">
                <path d="M0.036,0.078L0.036,0.145C0.106,0.097 0.162,0.032 0.203,-0.051C0.245,-0.133 0.265,-0.22 0.265,-0.313C0.265,-0.406 0.245,-0.494 0.203,-0.576C0.162,-0.658 0.106,-0.723 0.036,-0.771L0.036,-0.705C0.084,-0.653 0.118,-0.597 0.138,-0.537C0.159,-0.477 0.169,-0.402 0.169,-0.313C0.169,-0.224 0.159,-0.15 0.138,-0.09C0.118,-0.03 0.084,0.026 0.036,0.078Z" style="fill-rule:nonzero;"/>
            </g>
        </g>
        <g transform="matrix(1.14435,0,0,1,-36.0186,1.83566)">
            <g transform="matrix(10.4863,0,0,12,270.143,320.788)">
                <path d="M0.007,-0L0.197,-0.27L0.021,-0.519L0.131,-0.519L0.211,-0.397C0.226,-0.374 0.238,-0.354 0.247,-0.339C0.261,-0.36 0.275,-0.379 0.287,-0.396L0.374,-0.519L0.479,-0.519L0.3,-0.274L0.493,-0L0.385,-0L0.278,-0.161L0.25,-0.205L0.114,-0L0.007,-0Z" style="fill-rule:nonzero;"/>
            </g>
            <g transform="matrix(6.11353,0,0,6.996,275.386,324.784)">
                <path d="M0.373,-0L0.285,-0L0.285,-0.56C0.264,-0.54 0.236,-0.52 0.201,-0.5C0.167,-0.479 0.136,-0.464 0.109,-0.454L0.109,-0.539C0.158,-0.562 0.201,-0.59 0.238,-0.623C0.275,-0.656 0.301,-0.688 0.316,-0.719L0.373,-0.719L0.373,-0Z" style="fill-rule:nonzero;"/>
            </g>
            <g transform="matrix(10.4863,0,0,12,278.786,320.788)">
                <rect x="0.092" y="-0.728" width="0.077" height="0.938" style="fill-rule:nonzero;"/>
            </g>
            <g transform="matrix(6.11353,0,0,6.996,281.51,324.784)">
                <path d="M0.12,-0.519L0.205,-0.519C0.156,-0.411 0.132,-0.321 0.132,-0.247C0.132,-0.19 0.142,-0.144 0.163,-0.109C0.184,-0.075 0.21,-0.057 0.243,-0.057C0.264,-0.057 0.283,-0.065 0.301,-0.082C0.319,-0.098 0.332,-0.117 0.338,-0.14C0.344,-0.163 0.347,-0.195 0.347,-0.236L0.347,-0.388L0.434,-0.388L0.434,-0.236C0.434,-0.196 0.437,-0.164 0.443,-0.141C0.449,-0.117 0.461,-0.097 0.48,-0.081C0.498,-0.065 0.518,-0.057 0.539,-0.057C0.57,-0.057 0.597,-0.074 0.618,-0.109C0.639,-0.144 0.649,-0.19 0.649,-0.247C0.649,-0.321 0.625,-0.411 0.577,-0.519L0.661,-0.519C0.713,-0.427 0.738,-0.338 0.738,-0.252C0.738,-0.166 0.72,-0.101 0.685,-0.056C0.649,-0.011 0.604,0.012 0.548,0.012C0.475,0.012 0.422,-0.027 0.391,-0.105C0.359,-0.027 0.306,0.012 0.232,0.012C0.174,0.012 0.128,-0.012 0.094,-0.059C0.06,-0.106 0.042,-0.171 0.042,-0.252C0.042,-0.338 0.068,-0.427 0.12,-0.519Z" style="fill-rule:nonzero;"/>
            </g>
            <g transform="matrix(6.11353,0,0,6.996,286.284,324.784)">
                <path d="M0.528,-0.421L0.056,-0.421L0.056,-0.503L0.528,-0.503L0.528,-0.421ZM0.528,-0.204L0.056,-0.204L0.056,-0.286L0.528,-0.286L0.528,-0.204Z" style="fill-rule:nonzero;"/>
            </g>
            <g transform="matrix(6.11353,0,0,6.996,289.854,324.784)">
                <path d="M0.042,-0.353C0.042,-0.438 0.05,-0.506 0.068,-0.557C0.085,-0.609 0.111,-0.649 0.145,-0.677C0.18,-0.705 0.223,-0.719 0.275,-0.719C0.313,-0.719 0.347,-0.711 0.376,-0.696C0.405,-0.68 0.429,-0.658 0.448,-0.629C0.467,-0.6 0.481,-0.564 0.492,-0.522C0.503,-0.48 0.508,-0.424 0.508,-0.353C0.508,-0.269 0.5,-0.201 0.482,-0.15C0.465,-0.098 0.439,-0.058 0.405,-0.03C0.371,-0.002 0.327,0.012 0.275,0.012C0.206,0.012 0.152,-0.013 0.112,-0.062C0.065,-0.122 0.042,-0.219 0.042,-0.353ZM0.132,-0.353C0.132,-0.236 0.146,-0.157 0.173,-0.118C0.201,-0.08 0.235,-0.06 0.275,-0.06C0.315,-0.06 0.349,-0.08 0.377,-0.119C0.404,-0.158 0.418,-0.236 0.418,-0.353C0.418,-0.471 0.404,-0.549 0.377,-0.588C0.349,-0.627 0.315,-0.646 0.274,-0.646C0.234,-0.646 0.201,-0.629 0.177,-0.595C0.147,-0.551 0.132,-0.471 0.132,-0.353Z" style="fill-rule:nonzero;"/>
            </g>
        </g>
        <g transform="matrix(2.34222e-17,-0.382514,1.04098,6.37416e-17,-19.7741,438.147)">
            <g transform="matrix(31.3714,0,0,11.5276,270.143,320.45)">
                <path d="M0.007,-0L0.197,-0.27L0.021,-0.519L0.131,-0.519L0.211,-0.397C0.226,-0.374 0.238,-0.354 0.247,-0.339C0.261,-0.36 0.275,-0.379 0.287,-0.396L0.374,-0.519L0.479,-0.519L0.3,-0.274L0.493,-0L0.385,-0L0.278,-0.161L0.25,-0.205L0.114,-0L0.007,-0Z" style="fill-rule:nonzero;"/>
            </g>
            <g transform="matrix(18.2895,0,0,6.72059,285.829,324.288)">
                <path d="M0.373,-0L0.285,-0L0.285,-0.56C0.264,-0.54 0.236,-0.52 0.201,-0.5C0.167,-0.479 0.136,-0.464 0.109,-0.454L0.109,-0.539C0.158,-0.562 0.201,-0.59 0.238,-0.623C0.275,-0.656 0.301,-0.688 0.316,-0.719L0.373,-0.719L0.373,-0Z" style="fill-rule:nonzero;"/>
            </g>
        </g>
        <g transform="matrix(2.34222e-17,-0.382514,1.04098,6.37416e-17,-19.7741,533.979)">
            <g transform="matrix(31.3714,0,0,11.5276,270.143,320.45)">
                <path d="M0.007,-0L0.197,-0.27L0.021,-0.519L0.131,-0.519L0.211,-0.397C0.226,-0.374 0.238,-0.354 0.247,-0.339C0.261,-0.36 0.275,-0.379 0.287,-0.396L0.374,-0.519L0.479,-0.519L0.3,-0.274L0.493,-0L0.385,-0L0.278,-0.161L0.25,-0.205L0.114,-0L0.007,-0Z" style="fill-rule:nonzero;"/>
            </g>
            <g transform="matrix(18.2895,0,0,6.72059,285.829,324.288)">
                <path d="M0.503,-0.084L0.503,-0L0.03,-0C0.03,-0.021 0.033,-0.042 0.041,-0.061C0.053,-0.093 0.072,-0.125 0.098,-0.156C0.125,-0.188 0.163,-0.224 0.213,-0.265C0.291,-0.328 0.344,-0.379 0.371,-0.416C0.398,-0.454 0.412,-0.489 0.412,-0.522C0.412,-0.557 0.4,-0.586 0.375,-0.61C0.35,-0.634 0.317,-0.646 0.277,-0.646C0.235,-0.646 0.201,-0.633 0.176,-0.608C0.15,-0.583 0.138,-0.547 0.137,-0.502L0.047,-0.512C0.053,-0.579 0.076,-0.63 0.117,-0.666C0.157,-0.701 0.211,-0.719 0.279,-0.719C0.348,-0.719 0.402,-0.7 0.442,-0.662C0.482,-0.624 0.502,-0.576 0.502,-0.52C0.502,-0.491 0.497,-0.463 0.485,-0.436C0.473,-0.408 0.454,-0.379 0.427,-0.348C0.399,-0.318 0.354,-0.276 0.291,-0.222C0.238,-0.178 0.204,-0.148 0.189,-0.132C0.174,-0.116 0.162,-0.1 0.152,-0.084L0.503,-0.084Z" style="fill-rule:nonzero;"/>
            </g>
        </g>
        <g transform="matrix(12,0,0,12,342.204,366.406)">
            <path d="M0.12,-0.519L0.205,-0.519C0.156,-0.411 0.132,-0.321 0.132,-0.247C0.132,-0.19 0.142,-0.144 0.163,-0.109C0.184,-0.075 0.21,-0.057 0.243,-0.057C0.264,-0.057 0.283,-0.065 0.301,-0.082C0.319,-0.098 0.332,-0.117 0.338,-0.14C0.344,-0.163 0.347,-0.195 0.347,-0.236L0.347,-0.388L0.434,-0.388L0.434,-0.236C0.434,-0.196 0.437,-0.164 0.443,-0.141C0.449,-0.117 0.461,-0.097 0.48,-0.081C0.498,-0.065 0.518,-0.057 0.539,-0.057C0.57,-0.057 0.597,-0.074 0.618,-0.109C0.639,-0.144 0.649,-0.19 0.649,-0.247C0.649,-0.321 0.625,-0.411 0.577,-0.519L0.661,-0.519C0.713,-0.427 0.738,-0.338 0.738,-0.252C0.738,-0.166 0.72,-0.101 0.685,-0.056C0.649,-0.011 0.604,0.012 0.548,0.012C0.475,0.012 0.422,-0.027 0.391,-0.105C0.359,-0.027 0.306,0.012 0.232,0.012C0.174,0.012 0.128,-0.012 0.094,-0.059C0.06,-0.106 0.042,-0.171 0.042,-0.252C0.042,-0.338 0.068,-0.427 0.12,-0.519Z" style="fill-rule:nonzero;"/>
        </g>
        <g transform="matrix(12,0,0,12,341.587,462.33)">
            <path d="M0.12,-0.519L0.205,-0.519C0.156,-0.411 0.132,-0.321 0.132,-0.247C0.132,-0.19 0.142,-0.144 0.163,-0.109C0.184,-0.075 0.21,-0.057 0.243,-0.057C0.264,-0.057 0.283,-0.065 0.301,-0.082C0.319,-0.098 0.332,-0.117 0.338,-0.14C0.344,-0.163 0.347,-0.195 0.347,-0.236L0.347,-0.388L0.434,-0.388L0.434,-0.236C0.434,-0.196 0.437,-0.164 0.443,-0.141C0.449,-0.117 0.461,-0.097 0.48,-0.081C0.498,-0.065 0.518,-0.057 0.539,-0.057C0.57,-0.057 0.597,-0.074 0.618,-0.109C0.639,-0.144 0.649,-0.19 0.649,-0.247C0.649,-0.321 0.625,-0.411 0.577,-0.519L0.661,-0.519C0.713,-0.427 0.738,-0.338 0.738,-0.252C0.738,-0.166 0.72,-0.101 0.685,-0.056C0.649,-0.011 0.604,0.012 0.548,0.012C0.475,0.012 0.422,-0.027 0.391,-0.105C0.359,-0.027 0.306,0.012 0.232,0.012C0.174,0.012 0.128,-0.012 0.094,-0.059C0.06,-0.106 0.042,-0.171 0.042,-0.252C0.042,-0.338 0.068,-0.427 0.12,-0.519Z" style="fill-rule:nonzero;"/>
        </g>
        <g transform="matrix(1.14435,0,0,1,-36.0186,97.6087)">
            <g transform="matrix(10.4863,0,0,12,270.143,320.788)">
                <path d="M0.007,-0L0.197,-0.27L0.021,-0.519L0.131,-0.519L0.211,-0.397C0.226,-0.374 0.238,-0.354 0.247,-0.339C0.261,-0.36 0.275,-0.379 0.287,-0.396L0.374,-0.519L0.479,-0.519L0.3,-0.274L0.493,-0L0.385,-0L0.278,-0.161L0.25,-0.205L0.114,-0L0.007,-0Z" style="fill-rule:nonzero;"/>
            </g>
            <g transform="matrix(6.11353,0,0,6.996,275.386,324.784)">
                <path d="M0.503,-0.084L0.503,-0L0.03,-0C0.03,-0.021 0.033,-0.042 0.041,-0.061C0.053,-0.093 0.072,-0.125 0.098,-0.156C0.125,-0.188 0.163,-0.224 0.213,-0.265C0.291,-0.328 0.344,-0.379 0.371,-0.416C0.398,-0.454 0.412,-0.489 0.412,-0.522C0.412,-0.557 0.4,-0.586 0.375,-0.61C0.35,-0.634 0.317,-0.646 0.277,-0.646C0.235,-0.646 0.201,-0.633 0.176,-0.608C0.15,-0.583 0.138,-0.547 0.137,-0.502L0.047,-0.512C0.053,-0.579 0.076,-0.63 0.117,-0.666C0.157,-0.701 0.211,-0.719 0.279,-0.719C0.348,-0.719 0.402,-0.7 0.442,-0.662C0.482,-0.624 0.502,-0.576 0.502,-0.52C0.502,-0.491 0.497,-0.463 0.485,-0.436C0.473,-0.408 0.454,-0.379 0.427,-0.348C0.399,-0.318 0.354,-0.276 0.291,-0.222C0.238,-0.178 0.204,-0.148 0.189,-0.132C0.174,-0.116 0.162,-0.1 0.152,-0.084L0.503,-0.084Z" style="fill-rule:nonzero;"/>
            </g>
            <g transform="matrix(10.4863,0,0,12,278.786,320.788)">
                <rect x="0.092" y="-0.728" width="0.077" height="0.938" style="fill-rule:nonzero;"/>
            </g>
            <g transform="matrix(6.11353,0,0,6.996,281.51,324.784)">
                <path d="M0.12,-0.519L0.205,-0.519C0.156,-0.411 0.132,-0.321 0.132,-0.247C0.132,-0.19 0.142,-0.144 0.163,-0.109C0.184,-0.075 0.21,-0.057 0.243,-0.057C0.264,-0.057 0.283,-0.065 0.301,-0.082C0.319,-0.098 0.332,-0.117 0.338,-0.14C0.344,-0.163 0.347,-0.195 0.347,-0.236L0.347,-0.388L0.434,-0.388L0.434,-0.236C0.434,-0.196 0.437,-0.164 0.443,-0.141C0.449,-0.117 0.461,-0.097 0.48,-0.081C0.498,-0.065 0.518,-0.057 0.539,-0.057C0.57,-0.057 0.597,-0.074 0.618,-0.109C0.639,-0.144 0.649,-0.19 0.649,-0.247C0.649,-0.321 0.625,-0.411 0.577,-0.519L0.661,-0.519C0.713,-0.427 0.738,-0.338 0.738,-0.252C0.738,-0.166 0.72,-0.101 0.685,-0.056C0.649,-0.011 0.604,0.012 0.548,0.012C0.475,0.012 0.422,-0.027 0.391,-0.105C0.359,-0.027 0.306,0.012 0.232,0.012C0.174,0.012 0.128,-0.012 0.094,-0.059C0.06,-0.106 0.042,-0.171 0.042,-0.252C0.042,-0.338 0.068,-0.427 0.12,-0.519Z" style="fill-rule:nonzero;"/>
            </g>
            <g transform="matrix(6.11353,0,0,6.996,286.284,324.784)">
                <path d="M0.528,-0.421L0.056,-0.421L0.056,-0.503L0.528,-0.503L0.528,-0.421ZM0.528,-0.204L0.056,-0.204L0.056,-0.286L0.528,-0.286L0.528,-0.204Z" style="fill-rule:nonzero;"/>
            </g>
            <g transform="matrix(6.11353,0,0,6.996,289.854,324.784)">
                <path d="M0.042,-0.353C0.042,-0.438 0.05,-0.506 0.068,-0.557C0.085,-0.609 0.111,-0.649 0.145,-0.677C0.18,-0.705 0.223,-0.719 0.275,-0.719C0.313,-0.719 0.347,-0.711 0.376,-0.696C0.405,-0.68 0.429,-0.658 0.448,-0.629C0.467,-0.6 0.481,-0.564 0.492,-0.522C0.503,-0.48 0.508,-0.424 0.508,-0.353C0.508,-0.269 0.5,-0.201 0.482,-0.15C0.465,-0.098 0.439,-0.058 0.405,-0.03C0.371,-0.002 0.327,0.012 0.275,0.012C0.206,0.012 0.152,-0.013 0.112,-0.062C0.065,-0.122 0.042,-0.219 0.042,-0.353ZM0.132,-0.353C0.132,-0.236 0.146,-0.157 0.173,-0.118C0.201,-0.08 0.235,-0.06 0.275,-0.06C0.315,-0.06 0.349,-0.08 0.377,-0.119C0.404,-0.158 0.418,-0.236 0.418,-0.353C0.418,-0.471 0.404,-0.549 0.377,-0.588C0.349,-0.627 0.315,-0.646 0.274,-0.646C0.234,-0.646 0.201,-0.629 0.177,-0.595C0.147,-0.551 0.132,-0.471 0.132,-0.353Z" style="fill-rule:nonzero;"/>
            </g>
        </g>
        <g transform="matrix(1.14435,0,0,1,84.4548,1.83566)">
            <g transform="matrix(10.4863,0,0,12,270.143,320.788)">
                <path d="M0.007,-0L0.197,-0.27L0.021,-0.519L0.131,-0.519L0.211,-0.397C0.226,-0.374 0.238,-0.354 0.247,-0.339C0.261,-0.36 0.275,-0.379 0.287,-0.396L0.374,-0.519L0.479,-0.519L0.3,-0.274L0.493,-0L0.385,-0L0.278,-0.161L0.25,-0.205L0.114,-0L0.007,-0Z" style="fill-rule:nonzero;"/>
            </g>
            <g transform="matrix(6.11353,0,0,6.996,275.386,324.784)">
                <path d="M0.373,-0L0.285,-0L0.285,-0.56C0.264,-0.54 0.236,-0.52 0.201,-0.5C0.167,-0.479 0.136,-0.464 0.109,-0.454L0.109,-0.539C0.158,-0.562 0.201,-0.59 0.238,-0.623C0.275,-0.656 0.301,-0.688 0.316,-0.719L0.373,-0.719L0.373,-0Z" style="fill-rule:nonzero;"/>
            </g>
            <g transform="matrix(10.4863,0,0,12,278.786,320.788)">
                <rect x="0.092" y="-0.728" width="0.077" height="0.938" style="fill-rule:nonzero;"/>
            </g>
            <g transform="matrix(6.11353,0,0,6.996,281.51,324.784)">
                <path d="M0.12,-0.519L0.205,-0.519C0.156,-0.411 0.132,-0.321 0.132,-0.247C0.132,-0.19 0.142,-0.144 0.163,-0.109C0.184,-0.075 0.21,-0.057 0.243,-0.057C0.264,-0.057 0.283,-0.065 0.301,-0.082C0.319,-0.098 0.332,-0.117 0.338,-0.14C0.344,-0.163 0.347,-0.195 0.347,-0.236L0.347,-0.388L0.434,-0.388L0.434,-0.236C0.434,-0.196 0.437,-0.164 0.443,-0.141C0.449,-0.117 0.461,-0.097 0.48,-0.081C0.498,-0.065 0.518,-0.057 0.539,-0.057C0.57,-0.057 0.597,-0.074 0.618,-0.109C0.639,-0.144 0.649,-0.19 0.649,-0.247C0.649,-0.321 0.625,-0.411 0.577,-0.519L0.661,-0.519C0.713,-0.427 0.738,-0.338 0.738,-0.252C0.738,-0.166 0.72,-0.101 0.685,-0.056C0.649,-0.011 0.604,0.012 0.548,0.012C0.475,0.012 0.422,-0.027 0.391,-0.105C0.359,-0.027 0.306,0.012 0.232,0.012C0.174,0.012 0.128,-0.012 0.094,-0.059C0.06,-0.106 0.042,-0.171 0.042,-0.252C0.042,-0.338 0.068,-0.427 0.12,-0.519Z" style="fill-rule:nonzero;"/>
            </g>
            <g transform="matrix(6.11353,0,0,6.996,286.284,324.784)">
                <path d="M0.528,-0.421L0.056,-0.421L0.056,-0.503L0.528,-0.503L0.528,-0.421ZM0.528,-0.204L0.056,-0.204L0.056,-0.286L0.528,-0.286L0.528,-0.204Z" style="fill-rule:nonzero;"/>
            </g>
            <g transform="matrix(6.11353,0,0,6.996,289.854,324.784)">
                <path d="M0.373,-0L0.285,-0L0.285,-0.56C0.264,-0.54 0.236,-0.52 0.201,-0.5C0.167,-0.479 0.136,-0.464 0.109,-0.454L0.109,-0.539C0.158,-0.562 0.201,-0.59 0.238,-0.623C0.275,-0.656 0.301,-0.688 0.316,-0.719L0.373,-0.719L0.373,-0Z" style="fill-rule:nonzero;"/>
            </g>
        </g>
        <g transform="matrix(1.14435,0,0,1,84.4548,97.6087)">
            <g transform="matrix(10.4863,0,0,12,270.143,320.788)">
                <path d="M0.007,-0L0.197,-0.27L0.021,-0.519L0.131,-0.519L0.211,-0.397C0.226,-0.374 0.238,-0.354 0.247,-0.339C0.261,-0.36 0.275,-0.379 0.287,-0.396L0.374,-0.519L0.479,-0.519L0.3,-0.274L0.493,-0L0.385,-0L0.278,-0.161L0.25,-0.205L0.114,-0L0.007,-0Z" style="fill-rule:nonzero;"/>
            </g>
            <g transform="matrix(6.11353,0,0,6.996,275.386,324.784)">
                <path d="M0.503,-0.084L0.503,-0L0.03,-0C0.03,-0.021 0.033,-0.042 0.041,-0.061C0.053,-0.093 0.072,-0.125 0.098,-0.156C0.125,-0.188 0.163,-0.224 0.213,-0.265C0.291,-0.328 0.344,-0.379 0.371,-0.416C0.398,-0.454 0.412,-0.489 0.412,-0.522C0.412,-0.557 0.4,-0.586 0.375,-0.61C0.35,-0.634 0.317,-0.646 0.277,-0.646C0.235,-0.646 0.201,-0.633 0.176,-0.608C0.15,-0.583 0.138,-0.547 0.137,-0.502L0.047,-0.512C0.053,-0.579 0.076,-0.63 0.117,-0.666C0.157,-0.701 0.211,-0.719 0.279,-0.719C0.348,-0.719 0.402,-0.7 0.442,-0.662C0.482,-0.624 0.502,-0.576 0.502,-0.52C0.502,-0.491 0.497,-0.463 0.485,-0.436C0.473,-0.408 0.454,-0.379 0.427,-0.348C0.399,-0.318 0.354,-0.276 0.291,-0.222C0.238,-0.178 0.204,-0.148 0.189,-0.132C0.174,-0.116 0.162,-0.1 0.152,-0.084L0.503,-0.084Z" style="fill-rule:nonzero;"/>
            </g>
            <g transform="matrix(10.4863,0,0,12,278.786,320.788)">
                <rect x="0.092" y="-0.728" width="0.077" height="0.938" style="fill-rule:nonzero;"/>
            </g>
            <g transform="matrix(6.11353,0,0,6.996,281.51,324.784)">
                <path d="M0.12,-0.519L0.205,-0.519C0.156,-0.411 0.132,-0.321 0.132,-0.247C0.132,-0.19 0.142,-0.144 0.163,-0.109C0.184,-0.075 0.21,-0.057 0.243,-0.057C0.264,-0.057 0.283,-0.065 0.301,-0.082C0.319,-0.098 0.332,-0.117 0.338,-0.14C0.344,-0.163 0.347,-0.195 0.347,-0.236L0.347,-0.388L0.434,-0.388L0.434,-0.236C0.434,-0.196 0.437,-0.164 0.443,-0.141C0.449,-0.117 0.461,-0.097 0.48,-0.081C0.498,-0.065 0.518,-0.057 0.539,-0.057C0.57,-0.057 0.597,-0.074 0.618,-0.109C0.639,-0.144 0.649,-0.19 0.649,-0.247C0.649,-0.321 0.625,-0.411 0.577,-0.519L0.661,-0.519C0.713,-0.427 0.738,-0.338 0.738,-0.252C0.738,-0.166 0.72,-0.101 0.685,-0.056C0.649,-0.011 0.604,0.012 0.548,0.012C0.475,0.012 0.422,-0.027 0.391,-0.105C0.359,-0.027 0.306,0.012 0.232,0.012C0.174,0.012 0.128,-0.012 0.094,-0.059C0.06,-0.106 0.042,-0.171 0.042,-0.252C0.042,-0.338 0.068,-0.427 0.12,-0.519Z" style="fill-rule:nonzero;"/>
            </g>
            <g transform="matrix(6.11353,0,0,6.996,286.284,324.784)">
                <path d="M0.528,-0.421L0.056,-0.421L0.056,-0.503L0.528,-0.503L0.528,-0.421ZM0.528,-0.204L0.056,-0.204L0.056,-0.286L0.528,-0.286L0.528,-0.204Z" style="fill-rule:nonzero;"/>
            </g>
            <g transform="matrix(6.11353,0,0,6.996,289.854,324.784)">
                <path d="M0.373,-0L0.285,-0L0.285,-0.56C0.264,-0.54 0.236,-0.52 0.201,-0.5C0.167,-0.479 0.136,-0.464 0.109,-0.454L0.109,-0.539C0.158,-0.562 0.201,-0.59 0.238,-0.623C0.275,-0.656 0.301,-0.688 0.316,-0.719L0.373,-0.719L0.373,-0Z" style="fill-rule:nonzero;"/>
            </g>
        </g>
        <g>
            <g transform="matrix(11.9552,0,0,11.9552,238.014,265.719)">
                <path d="M0.093,-0L0.093,-0.723L0.194,-0.723L0.558,-0.165L0.558,-0.723L0.646,-0.723L0.646,-0L0.545,-0L0.181,-0.558L0.181,-0L0.093,-0Z" style="fill-rule:nonzero;"/>
            </g>
            <g transform="matrix(11.9552,0,0,11.9552,246.334,265.719)">
                <path d="M0.485,-0.017C0.42,0.002 0.365,0.012 0.319,0.012C0.241,0.012 0.177,-0.014 0.128,-0.066C0.079,-0.118 0.054,-0.185 0.054,-0.268C0.054,-0.348 0.076,-0.414 0.119,-0.465C0.163,-0.517 0.218,-0.542 0.286,-0.542C0.35,-0.542 0.4,-0.52 0.435,-0.474C0.47,-0.429 0.487,-0.364 0.487,-0.28L0.487,-0.25L0.152,-0.25C0.166,-0.124 0.228,-0.061 0.337,-0.061C0.377,-0.061 0.427,-0.072 0.485,-0.093L0.485,-0.017ZM0.157,-0.322L0.391,-0.322C0.391,-0.421 0.354,-0.47 0.28,-0.47C0.206,-0.47 0.165,-0.421 0.157,-0.322Z" style="fill-rule:nonzero;"/>
            </g>
            <g transform="matrix(11.9552,0,0,11.9552,252.482,265.719)">
                <path d="M0.428,-0L0.428,-0.1C0.377,-0.025 0.315,0.012 0.242,0.012C0.195,0.012 0.159,-0.002 0.131,-0.031C0.104,-0.061 0.09,-0.1 0.09,-0.149L0.09,-0.53L0.187,-0.53L0.187,-0.181C0.187,-0.141 0.192,-0.113 0.204,-0.096C0.215,-0.079 0.235,-0.071 0.262,-0.071C0.32,-0.071 0.376,-0.109 0.428,-0.187L0.428,-0.53L0.524,-0.53L0.524,-0L0.428,-0Z" style="fill-rule:nonzero;"/>
            </g>
            <g transform="matrix(11.9552,0,0,11.9552,259.389,265.719)">
                <path d="M0.096,-0L0.096,-0.53L0.192,-0.53L0.192,-0.431C0.23,-0.505 0.286,-0.542 0.358,-0.542C0.368,-0.542 0.378,-0.541 0.389,-0.54L0.389,-0.45C0.373,-0.455 0.358,-0.458 0.345,-0.458C0.284,-0.458 0.233,-0.422 0.192,-0.35L0.192,-0L0.096,-0Z" style="fill-rule:nonzero;"/>
            </g>
            <g transform="matrix(11.9552,0,0,11.9552,263.768,265.719)">
                <path d="M0.37,-0.067C0.312,-0.014 0.257,0.012 0.203,0.012C0.159,0.012 0.123,-0.002 0.094,-0.029C0.065,-0.057 0.05,-0.091 0.05,-0.133C0.05,-0.191 0.075,-0.236 0.123,-0.267C0.172,-0.298 0.242,-0.313 0.333,-0.313L0.355,-0.313L0.355,-0.377C0.355,-0.439 0.324,-0.47 0.261,-0.47C0.21,-0.47 0.155,-0.454 0.096,-0.423L0.096,-0.502C0.161,-0.529 0.222,-0.542 0.278,-0.542C0.338,-0.542 0.381,-0.529 0.409,-0.502C0.438,-0.475 0.452,-0.434 0.452,-0.377L0.452,-0.137C0.452,-0.082 0.469,-0.055 0.502,-0.055C0.507,-0.055 0.513,-0.055 0.521,-0.057L0.528,-0.003C0.506,0.007 0.482,0.012 0.456,0.012C0.411,0.012 0.382,-0.014 0.37,-0.067ZM0.355,-0.12L0.355,-0.257L0.323,-0.258C0.271,-0.258 0.228,-0.248 0.195,-0.228C0.163,-0.208 0.146,-0.181 0.146,-0.149C0.146,-0.126 0.155,-0.106 0.171,-0.09C0.187,-0.074 0.207,-0.066 0.23,-0.066C0.271,-0.066 0.312,-0.084 0.355,-0.12Z" style="fill-rule:nonzero;"/>
            </g>
            <g transform="matrix(11.9552,0,0,11.9552,269.858,265.719)">
                <rect x="0.096" y="-0.771" width="0.096" height="0.771" style="fill-rule:nonzero;"/>
            </g>
            <g transform="matrix(11.9552,0,0,11.9552,276.403,265.719)">
                <path d="M0.384,0.018C0.284,0.018 0.203,-0.017 0.142,-0.086C0.081,-0.156 0.051,-0.248 0.051,-0.362C0.051,-0.477 0.081,-0.569 0.143,-0.637C0.204,-0.706 0.286,-0.741 0.389,-0.741C0.491,-0.741 0.573,-0.706 0.634,-0.638C0.696,-0.569 0.727,-0.477 0.727,-0.363C0.727,-0.246 0.696,-0.153 0.634,-0.085C0.573,-0.016 0.489,0.018 0.384,0.018ZM0.386,-0.059C0.46,-0.059 0.517,-0.085 0.557,-0.138C0.597,-0.192 0.618,-0.267 0.618,-0.364C0.618,-0.458 0.597,-0.531 0.557,-0.584C0.516,-0.638 0.46,-0.664 0.389,-0.664C0.317,-0.664 0.261,-0.637 0.22,-0.584C0.18,-0.531 0.16,-0.457 0.16,-0.362C0.16,-0.268 0.18,-0.194 0.22,-0.14C0.26,-0.086 0.315,-0.059 0.386,-0.059Z" style="fill-rule:nonzero;"/>
            </g>
            <g transform="matrix(11.9552,0,0,11.9552,285.178,265.719)">
                <path d="M0.096,-0L0.096,-0.53L0.192,-0.53L0.192,-0.431C0.23,-0.505 0.286,-0.542 0.358,-0.542C0.368,-0.542 0.378,-0.541 0.389,-0.54L0.389,-0.45C0.373,-0.455 0.358,-0.458 0.345,-0.458C0.284,-0.458 0.233,-0.422 0.192,-0.35L0.192,-0L0.096,-0Z" style="fill-rule:nonzero;"/>
            </g>
            <g transform="matrix(11.9552,0,0,11.9552,289.557,265.719)">
                <path d="M0.437,-0L0.437,-0.1C0.397,-0.025 0.339,0.012 0.26,0.012C0.196,0.012 0.146,-0.011 0.109,-0.058C0.073,-0.104 0.054,-0.168 0.054,-0.249C0.054,-0.337 0.075,-0.408 0.116,-0.461C0.158,-0.515 0.213,-0.542 0.28,-0.542C0.343,-0.542 0.395,-0.518 0.437,-0.47L0.437,-0.771L0.533,-0.771L0.533,-0L0.437,-0ZM0.437,-0.404C0.387,-0.448 0.34,-0.47 0.295,-0.47C0.203,-0.47 0.157,-0.399 0.157,-0.258C0.157,-0.134 0.198,-0.072 0.28,-0.072C0.333,-0.072 0.385,-0.101 0.437,-0.16L0.437,-0.404Z" style="fill-rule:nonzero;"/>
            </g>
            <g transform="matrix(11.9552,0,0,11.9552,296.569,265.719)">
                <path d="M0.096,-0L0.096,-0.53L0.192,-0.53L0.192,-0L0.096,-0ZM0.096,-0.626L0.096,-0.723L0.192,-0.723L0.192,-0.626L0.096,-0.626Z" style="fill-rule:nonzero;"/>
            </g>
            <g transform="matrix(11.9552,0,0,11.9552,299.512,265.719)">
                <path d="M0.096,-0L0.096,-0.53L0.192,-0.53L0.192,-0.431C0.243,-0.505 0.305,-0.542 0.379,-0.542C0.425,-0.542 0.461,-0.527 0.489,-0.498C0.516,-0.469 0.53,-0.43 0.53,-0.381L0.53,-0L0.434,-0L0.434,-0.35C0.434,-0.389 0.428,-0.417 0.416,-0.434C0.405,-0.451 0.386,-0.459 0.359,-0.459C0.3,-0.459 0.244,-0.42 0.192,-0.343L0.192,-0L0.096,-0Z" style="fill-rule:nonzero;"/>
            </g>
            <g transform="matrix(11.9552,0,0,11.9552,306.419,265.719)">
                <path d="M0.37,-0.067C0.312,-0.014 0.257,0.012 0.203,0.012C0.159,0.012 0.123,-0.002 0.094,-0.029C0.065,-0.057 0.05,-0.091 0.05,-0.133C0.05,-0.191 0.075,-0.236 0.123,-0.267C0.172,-0.298 0.242,-0.313 0.333,-0.313L0.355,-0.313L0.355,-0.377C0.355,-0.439 0.324,-0.47 0.261,-0.47C0.21,-0.47 0.155,-0.454 0.096,-0.423L0.096,-0.502C0.161,-0.529 0.222,-0.542 0.278,-0.542C0.338,-0.542 0.381,-0.529 0.409,-0.502C0.438,-0.475 0.452,-0.434 0.452,-0.377L0.452,-0.137C0.452,-0.082 0.469,-0.055 0.502,-0.055C0.507,-0.055 0.513,-0.055 0.521,-0.057L0.528,-0.003C0.506,0.007 0.482,0.012 0.456,0.012C0.411,0.012 0.382,-0.014 0.37,-0.067ZM0.355,-0.12L0.355,-0.257L0.323,-0.258C0.271,-0.258 0.228,-0.248 0.195,-0.228C0.163,-0.208 0.146,-0.181 0.146,-0.149C0.146,-0.126 0.155,-0.106 0.171,-0.09C0.187,-0.074 0.207,-0.066 0.23,-0.066C0.271,-0.066 0.312,-0.084 0.355,-0.12Z" style="fill-rule:nonzero;"/>
            </g>
            <g transform="matrix(11.9552,0,0,11.9552,312.509,265.719)">
                <path d="M0.096,-0L0.096,-0.53L0.192,-0.53L0.192,-0.431C0.23,-0.505 0.286,-0.542 0.358,-0.542C0.368,-0.542 0.378,-0.541 0.389,-0.54L0.389,-0.45C0.373,-0.455 0.358,-0.458 0.345,-0.458C0.284,-0.458 0.233,-0.422 0.192,-0.35L0.192,-0L0.096,-0Z" style="fill-rule:nonzero;"/>
            </g>
            <g transform="matrix(11.9552,0,0,11.9552,316.889,265.719)">
                <path d="M0.127,0.193L0.213,-0L0.008,-0.53L0.112,-0.53L0.264,-0.131L0.426,-0.53L0.517,-0.53L0.227,0.193L0.127,0.193Z" style="fill-rule:nonzero;"/>
            </g>
            <g transform="matrix(11.9552,0,0,11.9552,326.224,265.719)">
                <path d="M0.093,-0L0.093,-0.723L0.333,-0.723C0.405,-0.723 0.463,-0.715 0.507,-0.699C0.551,-0.683 0.589,-0.656 0.622,-0.618C0.673,-0.557 0.698,-0.477 0.698,-0.378C0.698,-0.258 0.667,-0.165 0.603,-0.099C0.54,-0.033 0.45,-0 0.335,-0L0.093,-0ZM0.196,-0.077L0.327,-0.077C0.421,-0.077 0.487,-0.102 0.526,-0.152C0.568,-0.206 0.589,-0.278 0.589,-0.369C0.589,-0.454 0.569,-0.52 0.527,-0.569C0.502,-0.598 0.472,-0.619 0.438,-0.63C0.403,-0.641 0.35,-0.646 0.28,-0.646L0.196,-0.646L0.196,-0.077Z" style="fill-rule:nonzero;"/>
            </g>
            <g transform="matrix(11.9552,0,0,11.9552,334.666,265.719)">
                <path d="M0.096,-0L0.096,-0.53L0.192,-0.53L0.192,-0L0.096,-0ZM0.096,-0.626L0.096,-0.723L0.192,-0.723L0.192,-0.626L0.096,-0.626Z" style="fill-rule:nonzero;"/>
            </g>
            <g transform="matrix(11.9552,0,0,11.9552,337.609,265.719)">
                <path d="M0.114,-0L0.114,-0.458L0.039,-0.458L0.039,-0.53L0.114,-0.53L0.114,-0.594C0.114,-0.72 0.172,-0.783 0.287,-0.783C0.319,-0.783 0.356,-0.778 0.397,-0.767L0.397,-0.691C0.354,-0.704 0.319,-0.711 0.293,-0.711C0.261,-0.711 0.24,-0.703 0.228,-0.688C0.217,-0.673 0.211,-0.645 0.211,-0.604L0.211,-0.53L0.452,-0.53L0.452,-0.594C0.452,-0.72 0.509,-0.783 0.625,-0.783C0.657,-0.783 0.693,-0.778 0.734,-0.767L0.734,-0.691C0.691,-0.704 0.656,-0.711 0.63,-0.711C0.599,-0.711 0.577,-0.703 0.565,-0.688C0.554,-0.673 0.548,-0.645 0.548,-0.604L0.548,-0.53L0.681,-0.53L0.681,-0.458L0.548,-0.458L0.548,-0L0.452,-0L0.452,-0.458L0.211,-0.458L0.211,-0L0.114,-0ZM0.343,-0.53" style="fill-rule:nonzero;"/>
            </g>
            <g transform="matrix(11.9552,0,0,11.9552,345.52,265.719)">
                <path d="M0.485,-0.017C0.42,0.002 0.365,0.012 0.319,0.012C0.241,0.012 0.177,-0.014 0.128,-0.066C0.079,-0.118 0.054,-0.185 0.054,-0.268C0.054,-0.348 0.076,-0.414 0.119,-0.465C0.163,-0.517 0.218,-0.542 0.286,-0.542C0.35,-0.542 0.4,-0.52 0.435,-0.474C0.47,-0.429 0.487,-0.364 0.487,-0.28L0.487,-0.25L0.152,-0.25C0.166,-0.124 0.228,-0.061 0.337,-0.061C0.377,-0.061 0.427,-0.072 0.485,-0.093L0.485,-0.017ZM0.157,-0.322L0.391,-0.322C0.391,-0.421 0.354,-0.47 0.28,-0.47C0.206,-0.47 0.165,-0.421 0.157,-0.322Z" style="fill-rule:nonzero;"/>
            </g>
            <g transform="matrix(11.9552,0,0,11.9552,351.669,265.719)">
                <path d="M0.096,-0L0.096,-0.53L0.192,-0.53L0.192,-0.431C0.23,-0.505 0.286,-0.542 0.358,-0.542C0.368,-0.542 0.378,-0.541 0.389,-0.54L0.389,-0.45C0.373,-0.455 0.358,-0.458 0.345,-0.458C0.284,-0.458 0.233,-0.422 0.192,-0.35L0.192,-0L0.096,-0Z" style="fill-rule:nonzero;"/>
            </g>
            <g transform="matrix(11.9552,0,0,11.9552,356.048,265.719)">
                <path d="M0.485,-0.017C0.42,0.002 0.365,0.012 0.319,0.012C0.241,0.012 0.177,-0.014 0.128,-0.066C0.079,-0.118 0.054,-0.185 0.054,-0.268C0.054,-0.348 0.076,-0.414 0.119,-0.465C0.163,-0.517 0.218,-0.542 0.286,-0.542C0.35,-0.542 0.4,-0.52 0.435,-0.474C0.47,-0.429 0.487,-0.364 0.487,-0.28L0.487,-0.25L0.152,-0.25C0.166,-0.124 0.228,-0.061 0.337,-0.061C0.377,-0.061 0.427,-0.072 0.485,-0.093L0.485,-0.017ZM0.157,-0.322L0.391,-0.322C0.391,-0.421 0.354,-0.47 0.28,-0.47C0.206,-0.47 0.165,-0.421 0.157,-0.322Z" style="fill-rule:nonzero;"/>
            </g>
            <g transform="matrix(11.9552,0,0,11.9552,362.196,265.719)">
                <path d="M0.096,-0L0.096,-0.53L0.192,-0.53L0.192,-0.431C0.243,-0.505 0.305,-0.542 0.379,-0.542C0.425,-0.542 0.461,-0.527 0.489,-0.498C0.516,-0.469 0.53,-0.43 0.53,-0.381L0.53,-0L0.434,-0L0.434,-0.35C0.434,-0.389 0.428,-0.417 0.416,-0.434C0.405,-0.451 0.386,-0.459 0.359,-0.459C0.3,-0.459 0.244,-0.42 0.192,-0.343L0.192,-0L0.096,-0Z" style="fill-rule:nonzero;"/>
            </g>
            <g transform="matrix(11.9552,0,0,11.9552,369.103,265.719)">
                <path d="M0.255,0.012C0.207,0.012 0.168,-0.002 0.141,-0.03C0.114,-0.058 0.1,-0.097 0.1,-0.146L0.1,-0.458L0.034,-0.458L0.034,-0.53L0.1,-0.53L0.1,-0.626L0.196,-0.636L0.196,-0.53L0.335,-0.53L0.335,-0.458L0.196,-0.458L0.196,-0.164C0.196,-0.095 0.226,-0.06 0.286,-0.06C0.299,-0.06 0.314,-0.062 0.333,-0.066L0.333,-0C0.303,0.008 0.277,0.012 0.255,0.012Z" style="fill-rule:nonzero;"/>
            </g>
            <g transform="matrix(11.9552,0,0,11.9552,373.062,265.719)">
                <path d="M0.096,-0L0.096,-0.53L0.192,-0.53L0.192,-0L0.096,-0ZM0.096,-0.626L0.096,-0.723L0.192,-0.723L0.192,-0.626L0.096,-0.626Z" style="fill-rule:nonzero;"/>
            </g>
            <g transform="matrix(11.9552,0,0,11.9552,376.005,265.719)">
                <path d="M0.37,-0.067C0.312,-0.014 0.257,0.012 0.203,0.012C0.159,0.012 0.123,-0.002 0.094,-0.029C0.065,-0.057 0.05,-0.091 0.05,-0.133C0.05,-0.191 0.075,-0.236 0.123,-0.267C0.172,-0.298 0.242,-0.313 0.333,-0.313L0.355,-0.313L0.355,-0.377C0.355,-0.439 0.324,-0.47 0.261,-0.47C0.21,-0.47 0.155,-0.454 0.096,-0.423L0.096,-0.502C0.161,-0.529 0.222,-0.542 0.278,-0.542C0.338,-0.542 0.381,-0.529 0.409,-0.502C0.438,-0.475 0.452,-0.434 0.452,-0.377L0.452,-0.137C0.452,-0.082 0.469,-0.055 0.502,-0.055C0.507,-0.055 0.513,-0.055 0.521,-0.057L0.528,-0.003C0.506,0.007 0.482,0.012 0.456,0.012C0.411,0.012 0.382,-0.014 0.37,-0.067ZM0.355,-0.12L0.355,-0.257L0.323,-0.258C0.271,-0.258 0.228,-0.248 0.195,-0.228C0.163,-0.208 0.146,-0.181 0.146,-0.149C0.146,-0.126 0.155,-0.106 0.171,-0.09C0.187,-0.074 0.207,-0.066 0.23,-0.066C0.271,-0.066 0.312,-0.084 0.355,-0.12Z" style="fill-rule:nonzero;"/>
            </g>
            <g transform="matrix(11.9552,0,0,11.9552,382.095,265.719)">
                <rect x="0.096" y="-0.771" width="0.096" height="0.771" style="fill-rule:nonzero;"/>
            </g>
            <g transform="matrix(11.9552,0,0,11.9552,387.572,265.719)">
                <path d="M0.093,-0L0.093,-0.723L0.497,-0.723L0.497,-0.646L0.196,-0.646L0.196,-0.414L0.448,-0.414L0.448,-0.338L0.196,-0.338L0.196,-0.077L0.518,-0.077L0.518,-0L0.093,-0Z" style="fill-rule:nonzero;"/>
            </g>
            <g transform="matrix(11.9552,0,0,11.9552,393.54,265.719)">
                <path d="M0.437,0.193L0.437,-0.1C0.397,-0.025 0.339,0.012 0.26,0.012C0.196,0.012 0.146,-0.011 0.109,-0.058C0.073,-0.104 0.054,-0.168 0.054,-0.249C0.054,-0.337 0.075,-0.408 0.116,-0.461C0.158,-0.515 0.213,-0.542 0.28,-0.542C0.343,-0.542 0.395,-0.518 0.437,-0.47L0.437,-0.53L0.533,-0.53L0.533,0.193L0.437,0.193ZM0.437,-0.404C0.387,-0.448 0.34,-0.47 0.295,-0.47C0.203,-0.47 0.157,-0.399 0.157,-0.258C0.157,-0.134 0.198,-0.072 0.28,-0.072C0.333,-0.072 0.385,-0.101 0.437,-0.16L0.437,-0.404Z" style="fill-rule:nonzero;"/>
            </g>
            <g transform="matrix(11.9552,0,0,11.9552,400.552,265.719)">
                <path d="M0.428,-0L0.428,-0.1C0.377,-0.025 0.315,0.012 0.242,0.012C0.195,0.012 0.159,-0.002 0.131,-0.031C0.104,-0.061 0.09,-0.1 0.09,-0.149L0.09,-0.53L0.187,-0.53L0.187,-0.181C0.187,-0.141 0.192,-0.113 0.204,-0.096C0.215,-0.079 0.235,-0.071 0.262,-0.071C0.32,-0.071 0.376,-0.109 0.428,-0.187L0.428,-0.53L0.524,-0.53L0.524,-0L0.428,-0Z" style="fill-rule:nonzero;"/>
            </g>
            <g transform="matrix(11.9552,0,0,11.9552,407.459,265.719)">
                <path d="M0.37,-0.067C0.312,-0.014 0.257,0.012 0.203,0.012C0.159,0.012 0.123,-0.002 0.094,-0.029C0.065,-0.057 0.05,-0.091 0.05,-0.133C0.05,-0.191 0.075,-0.236 0.123,-0.267C0.172,-0.298 0.242,-0.313 0.333,-0.313L0.355,-0.313L0.355,-0.377C0.355,-0.439 0.324,-0.47 0.261,-0.47C0.21,-0.47 0.155,-0.454 0.096,-0.423L0.096,-0.502C0.161,-0.529 0.222,-0.542 0.278,-0.542C0.338,-0.542 0.381,-0.529 0.409,-0.502C0.438,-0.475 0.452,-0.434 0.452,-0.377L0.452,-0.137C0.452,-0.082 0.469,-0.055 0.502,-0.055C0.507,-0.055 0.513,-0.055 0.521,-0.057L0.528,-0.003C0.506,0.007 0.482,0.012 0.456,0.012C0.411,0.012 0.382,-0.014 0.37,-0.067ZM0.355,-0.12L0.355,-0.257L0.323,-0.258C0.271,-0.258 0.228,-0.248 0.195,-0.228C0.163,-0.208 0.146,-0.181 0.146,-0.149C0.146,-0.126 0.155,-0.106 0.171,-0.09C0.187,-0.074 0.207,-0.066 0.23,-0.066C0.271,-0.066 0.312,-0.084 0.355,-0.12Z" style="fill-rule:nonzero;"/>
            </g>
            <g transform="matrix(11.9552,0,0,11.9552,413.548,265.719)">
                <path d="M0.255,0.012C0.207,0.012 0.168,-0.002 0.141,-0.03C0.114,-0.058 0.1,-0.097 0.1,-0.146L0.1,-0.458L0.034,-0.458L0.034,-0.53L0.1,-0.53L0.1,-0.626L0.196,-0.636L0.196,-0.53L0.335,-0.53L0.335,-0.458L0.196,-0.458L0.196,-0.164C0.196,-0.095 0.226,-0.06 0.286,-0.06C0.299,-0.06 0.314,-0.062 0.333,-0.066L0.333,-0C0.303,0.008 0.277,0.012 0.255,0.012Z" style="fill-rule:nonzero;"/>
            </g>
            <g transform="matrix(11.9552,0,0,11.9552,417.507,265.719)">
                <path d="M0.096,-0L0.096,-0.53L0.192,-0.53L0.192,-0L0.096,-0ZM0.096,-0.626L0.096,-0.723L0.192,-0.723L0.192,-0.626L0.096,-0.626Z" style="fill-rule:nonzero;"/>
            </g>
            <g transform="matrix(11.9552,0,0,11.9552,420.451,265.719)">
                <path d="M0.304,0.012C0.228,0.012 0.167,-0.013 0.122,-0.063C0.077,-0.114 0.054,-0.181 0.054,-0.265C0.054,-0.35 0.077,-0.418 0.122,-0.468C0.168,-0.517 0.229,-0.542 0.307,-0.542C0.385,-0.542 0.447,-0.517 0.492,-0.468C0.537,-0.418 0.56,-0.351 0.56,-0.266C0.56,-0.18 0.537,-0.111 0.492,-0.062C0.446,-0.013 0.383,0.012 0.304,0.012ZM0.305,-0.06C0.407,-0.06 0.458,-0.129 0.458,-0.266C0.458,-0.402 0.408,-0.47 0.307,-0.47C0.207,-0.47 0.157,-0.402 0.157,-0.265C0.157,-0.128 0.206,-0.06 0.305,-0.06Z" style="fill-rule:nonzero;"/>
            </g>
            <g transform="matrix(11.9552,0,0,11.9552,427.282,265.719)">
                <path d="M0.096,-0L0.096,-0.53L0.192,-0.53L0.192,-0.431C0.243,-0.505 0.305,-0.542 0.379,-0.542C0.425,-0.542 0.461,-0.527 0.489,-0.498C0.516,-0.469 0.53,-0.43 0.53,-0.381L0.53,-0L0.434,-0L0.434,-0.35C0.434,-0.389 0.428,-0.417 0.416,-0.434C0.405,-0.451 0.386,-0.459 0.359,-0.459C0.3,-0.459 0.244,-0.42 0.192,-0.343L0.192,-0L0.096,-0Z" style="fill-rule:nonzero;"/>
            </g>
            <g transform="matrix(11.9552,0,0,11.9552,434.189,265.719)">
                <path d="M0.237,0.012C0.193,0.012 0.139,0.002 0.077,-0.019L0.077,-0.107C0.139,-0.076 0.194,-0.06 0.241,-0.06C0.268,-0.06 0.291,-0.068 0.31,-0.083C0.328,-0.097 0.337,-0.116 0.337,-0.139C0.337,-0.172 0.311,-0.199 0.26,-0.22L0.204,-0.244C0.121,-0.279 0.08,-0.328 0.08,-0.393C0.08,-0.439 0.096,-0.476 0.129,-0.502C0.161,-0.529 0.206,-0.542 0.263,-0.542C0.293,-0.542 0.329,-0.538 0.373,-0.53L0.393,-0.526L0.393,-0.446C0.339,-0.462 0.297,-0.47 0.265,-0.47C0.203,-0.47 0.172,-0.447 0.172,-0.402C0.172,-0.373 0.196,-0.349 0.243,-0.329L0.289,-0.31C0.341,-0.287 0.379,-0.264 0.4,-0.24C0.422,-0.215 0.433,-0.184 0.433,-0.147C0.433,-0.101 0.415,-0.063 0.378,-0.033C0.341,-0.003 0.294,0.012 0.237,0.012Z" style="fill-rule:nonzero;"/>
            </g>
        </g>
        <g transform="matrix(0.332821,-0.94299,-0.94299,-0.332821,221.269,386.509)">
            <path d="M5.608,13.701L53.125,13.701" style="fill:none;fill-rule:nonzero;stroke:black;stroke-width:0.4px;"/>
        </g>
        <g transform="matrix(0.3328,-0.94295,0.94295,0.3328,226.031,331.853)">
            <path d="M3.587,0C2.524,-0.199 0.797,-0.797 -0.399,-1.494L-0.399,1.494C0.797,0.797 2.524,0.199 3.587,0" style="fill-rule:nonzero;"/>
        </g>
        <g transform="matrix(0.332821,0.94299,0.94299,-0.332821,237.683,361.019)">
            <path d="M5.608,-31.107L53.125,-31.107" style="fill:none;fill-rule:nonzero;stroke:black;stroke-width:0.4px;"/>
        </g>
        <g transform="matrix(0.3328,0.94295,-0.94295,0.3328,226.031,421.468)">
            <path d="M3.587,0C2.524,-0.199 0.797,-0.797 -0.399,-1.494L-0.399,1.494C0.797,0.797 2.524,0.199 3.587,0" style="fill-rule:nonzero;"/>
        </g>
        <g transform="matrix(1,0,0,1,188.757,288.984)">
            <path d="M81.386,39.486L108.981,39.486" style="fill:none;fill-rule:nonzero;stroke:black;stroke-width:0.4px;"/>
        </g>
        <g transform="matrix(1,0,0,1,297.738,328.471)">
            <path d="M3.587,0C2.524,-0.199 0.797,-0.797 -0.399,-1.494L-0.399,1.494C0.797,0.797 2.524,0.199 3.587,0" style="fill-rule:nonzero;"/>
        </g>
        <g transform="matrix(1,0,0,1,188.757,481.743)">
            <path d="M81.386,-56.893L108.981,-56.893" style="fill:none;fill-rule:nonzero;stroke:black;stroke-width:0.4px;"/>
        </g>
        <g transform="matrix(1,0,0,1,297.738,424.85)">
            <path d="M3.587,0C2.524,-0.199 0.797,-0.797 -0.399,-1.494L-0.399,1.494C0.797,0.797 2.524,0.199 3.587,0" style="fill-rule:nonzero;"/>
        </g>
        <g transform="matrix(1,0,0,1,188.757,288.984)">
            <path d="M202.378,39.486L229.973,39.486" style="fill:none;fill-rule:nonzero;stroke:black;stroke-width:0.4px;"/>
        </g>
        <g transform="matrix(1,0,0,1,418.73,328.471)">
            <path d="M3.587,0C2.524,-0.199 0.797,-0.797 -0.399,-1.494L-0.399,1.494C0.797,0.797 2.524,0.199 3.587,0" style="fill-rule:nonzero;"/>
        </g>
        <g transform="matrix(1,0,0,1,188.757,481.743)">
            <path d="M202.378,-56.893L229.973,-56.893" style="fill:none;fill-rule:nonzero;stroke:black;stroke-width:0.4px;"/>
        </g>
        <g transform="matrix(1,0,0,1,418.73,424.85)">
            <path d="M3.587,0C2.524,-0.199 0.797,-0.797 -0.399,-1.494L-0.399,1.494C0.797,0.797 2.524,0.199 3.587,0" style="fill-rule:nonzero;"/>
        </g>
        <g transform="matrix(0.332821,0.94299,0.94299,-0.332821,364.029,86.0628)">
            <path d="M263.092,17.082L310.609,17.082" style="fill:none;fill-rule:nonzero;stroke:black;stroke-width:0.4px;"/>
        </g>
        <g transform="matrix(0.3328,0.94295,-0.94295,0.3328,483.515,373.278)">
            <path d="M3.587,0C2.524,-0.199 0.797,-0.797 -0.399,-1.494L-0.399,1.494C0.797,0.797 2.524,0.199 3.587,0" style="fill-rule:nonzero;"/>
        </g>
        <g transform="matrix(0.332821,-0.94299,-0.94299,-0.332821,347.615,661.464)">
            <path d="M263.092,-34.489L310.609,-34.489" style="fill:none;fill-rule:nonzero;stroke:black;stroke-width:0.4px;"/>
        </g>
        <g transform="matrix(0.3328,-0.94295,0.94295,0.3328,483.515,380.042)">
            <path d="M3.587,0C2.524,-0.199 0.797,-0.797 -0.399,-1.494L-0.399,1.494C0.797,0.797 2.524,0.199 3.587,0" style="fill-rule:nonzero;"/>
        </g>
        <g transform="matrix(0.737079,0,0,1.22357,201.367,275.446)">
            <g transform="matrix(16.2805,0,0,9.8074,43.129,45.4751)">
                <rect x="0.093" y="-0.723" width="0.103" height="0.723" style="fill-rule:nonzero;"/>
            </g>
            <g transform="matrix(12.6554,0,0,7.62362,47.8191,49.8296)">
                <path d="M0.15,-0L0.15,-0.072L0.295,-0.072L0.295,-0.643L0.15,-0.606L0.15,-0.681L0.392,-0.741L0.392,-0.072L0.536,-0.072L0.536,-0L0.15,-0Z" style="fill-rule:nonzero;"/>
            </g>
            <g transform="matrix(16.2805,0,0,9.8074,60.9727,45.4751)">
                <rect x="0.072" y="-0.325" width="0.434" height="0.072" style="fill-rule:nonzero;"/>
            </g>
            <g transform="matrix(16.2805,0,0,9.8074,75.544,45.4751)">
                <path d="M0.102,-0.005L0.102,-0.095C0.171,-0.068 0.225,-0.054 0.265,-0.054C0.311,-0.054 0.348,-0.068 0.377,-0.094C0.406,-0.121 0.42,-0.156 0.42,-0.199C0.42,-0.3 0.349,-0.351 0.207,-0.351L0.168,-0.351L0.168,-0.416L0.202,-0.417C0.336,-0.417 0.402,-0.464 0.402,-0.558C0.402,-0.632 0.358,-0.668 0.271,-0.668C0.222,-0.668 0.169,-0.655 0.111,-0.628L0.111,-0.712C0.168,-0.731 0.224,-0.741 0.277,-0.741C0.425,-0.741 0.499,-0.685 0.499,-0.573C0.499,-0.488 0.449,-0.428 0.348,-0.392C0.465,-0.365 0.523,-0.301 0.523,-0.2C0.523,-0.132 0.5,-0.079 0.456,-0.04C0.411,-0.001 0.349,0.018 0.271,0.018C0.226,0.018 0.17,0.01 0.102,-0.005Z" style="fill-rule:nonzero;"/>
            </g>
        </g>
        <g transform="matrix(0.704812,0,0,0.987977,202.759,379.674)">
            <g transform="matrix(17.0258,0,0,12.146,43.129,47.8792)">
                <rect x="0.093" y="-0.723" width="0.103" height="0.723" style="fill-rule:nonzero;"/>
            </g>
            <g transform="matrix(13.2347,0,0,9.44152,48.0338,53.272)">
                <path d="M0.083,-0L0.083,-0.084C0.111,-0.15 0.168,-0.221 0.253,-0.298L0.308,-0.348C0.379,-0.412 0.415,-0.475 0.415,-0.539C0.415,-0.579 0.402,-0.611 0.378,-0.634C0.354,-0.657 0.321,-0.668 0.278,-0.668C0.228,-0.668 0.169,-0.649 0.101,-0.61L0.101,-0.695C0.165,-0.726 0.229,-0.741 0.292,-0.741C0.36,-0.741 0.414,-0.722 0.455,-0.686C0.496,-0.65 0.517,-0.601 0.517,-0.541C0.517,-0.498 0.506,-0.459 0.486,-0.426C0.465,-0.392 0.426,-0.352 0.37,-0.304L0.333,-0.272C0.256,-0.207 0.211,-0.144 0.199,-0.084L0.513,-0.084L0.513,-0L0.083,-0Z" style="fill-rule:nonzero;"/>
            </g>
            <g transform="matrix(17.0258,0,0,12.146,61.7896,47.8792)">
                <rect x="0.072" y="-0.325" width="0.434" height="0.072" style="fill-rule:nonzero;"/>
            </g>
            <g transform="matrix(17.0258,0,0,12.146,77.028,47.8792)">
                <path d="M0.102,-0.005L0.102,-0.095C0.171,-0.068 0.225,-0.054 0.265,-0.054C0.311,-0.054 0.348,-0.068 0.377,-0.094C0.406,-0.121 0.42,-0.156 0.42,-0.199C0.42,-0.3 0.349,-0.351 0.207,-0.351L0.168,-0.351L0.168,-0.416L0.202,-0.417C0.336,-0.417 0.402,-0.464 0.402,-0.558C0.402,-0.632 0.358,-0.668 0.271,-0.668C0.222,-0.668 0.169,-0.655 0.111,-0.628L0.111,-0.712C0.168,-0.731 0.224,-0.741 0.277,-0.741C0.425,-0.741 0.499,-0.685 0.499,-0.573C0.499,-0.488 0.449,-0.428 0.348,-0.392C0.465,-0.365 0.523,-0.301 0.523,-0.2C0.523,-0.132 0.5,-0.079 0.456,-0.04C0.411,-0.001 0.349,0.018 0.271,0.018C0.226,0.018 0.17,0.01 0.102,-0.005Z" style="fill-rule:nonzero;"/>
            </g>
        </g>
        <g transform="matrix(0.605882,0,0,0.837462,158.122,80.196)">
            <g transform="matrix(19.8058,0,0,14.329,447.911,299.5)">
                <path d="M0.208,-0.556L0.142,-0.585C0.165,-0.636 0.192,-0.673 0.224,-0.695C0.256,-0.717 0.287,-0.728 0.318,-0.728C0.343,-0.728 0.365,-0.722 0.385,-0.709C0.405,-0.696 0.42,-0.681 0.43,-0.665C0.445,-0.639 0.457,-0.608 0.464,-0.573C0.471,-0.538 0.475,-0.498 0.475,-0.452C0.475,-0.358 0.461,-0.275 0.433,-0.202C0.405,-0.129 0.367,-0.075 0.319,-0.04C0.271,-0.005 0.224,0.012 0.178,0.012C0.133,0.012 0.097,-0.003 0.069,-0.032C0.041,-0.062 0.027,-0.104 0.027,-0.157C0.027,-0.231 0.052,-0.294 0.102,-0.346C0.166,-0.414 0.272,-0.449 0.419,-0.451C0.418,-0.506 0.414,-0.548 0.407,-0.576C0.401,-0.605 0.39,-0.627 0.374,-0.642C0.358,-0.658 0.34,-0.666 0.319,-0.666C0.299,-0.666 0.279,-0.657 0.26,-0.641C0.241,-0.625 0.223,-0.597 0.208,-0.556ZM0.417,-0.389C0.338,-0.384 0.279,-0.373 0.242,-0.355C0.205,-0.338 0.175,-0.309 0.151,-0.269C0.127,-0.229 0.115,-0.189 0.115,-0.148C0.115,-0.121 0.124,-0.099 0.14,-0.081C0.157,-0.063 0.176,-0.055 0.198,-0.055C0.223,-0.055 0.249,-0.064 0.276,-0.082C0.314,-0.106 0.345,-0.144 0.369,-0.196C0.393,-0.248 0.409,-0.312 0.417,-0.389Z" style="fill-rule:nonzero;"/>
            </g>
            <g transform="matrix(19.8058,0,0,14.329,457.698,299.5)">
                <path d="M0.062,-0.716L0.157,-0.716L0.157,-0.523C0.157,-0.444 0.174,-0.39 0.209,-0.358C0.244,-0.327 0.298,-0.308 0.37,-0.302L0.37,-0.716L0.465,-0.716L0.465,-0.302C0.533,-0.306 0.586,-0.325 0.623,-0.359C0.66,-0.392 0.678,-0.451 0.678,-0.535L0.678,-0.716L0.773,-0.716L0.773,-0.514C0.773,-0.322 0.671,-0.224 0.465,-0.221L0.465,-0L0.37,-0L0.37,-0.221C0.263,-0.223 0.184,-0.249 0.135,-0.3C0.087,-0.35 0.062,-0.418 0.062,-0.505L0.062,-0.716Z" style="fill-rule:nonzero;"/>
            </g>
            <g transform="matrix(19.8058,0,0,14.329,474.244,299.5)">
                <path d="M0,0.012L0.208,-0.728L0.278,-0.728L0.071,0.012L0,0.012Z" style="fill-rule:nonzero;"/>
            </g>
            <g transform="matrix(19.8058,0,0,14.329,479.747,299.5)">
                <path d="M0.208,-0.556L0.142,-0.585C0.165,-0.636 0.192,-0.673 0.224,-0.695C0.256,-0.717 0.287,-0.728 0.318,-0.728C0.343,-0.728 0.365,-0.722 0.385,-0.709C0.405,-0.696 0.42,-0.681 0.43,-0.665C0.445,-0.639 0.457,-0.608 0.464,-0.573C0.471,-0.538 0.475,-0.498 0.475,-0.452C0.475,-0.358 0.461,-0.275 0.433,-0.202C0.405,-0.129 0.367,-0.075 0.319,-0.04C0.271,-0.005 0.224,0.012 0.178,0.012C0.133,0.012 0.097,-0.003 0.069,-0.032C0.041,-0.062 0.027,-0.104 0.027,-0.157C0.027,-0.231 0.052,-0.294 0.102,-0.346C0.166,-0.414 0.272,-0.449 0.419,-0.451C0.418,-0.506 0.414,-0.548 0.407,-0.576C0.401,-0.605 0.39,-0.627 0.374,-0.642C0.358,-0.658 0.34,-0.666 0.319,-0.666C0.299,-0.666 0.279,-0.657 0.26,-0.641C0.241,-0.625 0.223,-0.597 0.208,-0.556ZM0.417,-0.389C0.338,-0.384 0.279,-0.373 0.242,-0.355C0.205,-0.338 0.175,-0.309 0.151,-0.269C0.127,-0.229 0.115,-0.189 0.115,-0.148C0.115,-0.121 0.124,-0.099 0.14,-0.081C0.157,-0.063 0.176,-0.055 0.198,-0.055C0.223,-0.055 0.249,-0.064 0.276,-0.082C0.314,-0.106 0.345,-0.144 0.369,-0.196C0.393,-0.248 0.409,-0.312 0.417,-0.389Z" style="fill-rule:nonzero;"/>
            </g>
            <g transform="matrix(19.8058,0,0,14.329,489.534,299.5)">
                <rect x="0.093" y="-0.716" width="0.095" height="0.716" style="fill-rule:nonzero;"/>
            </g>
            <g transform="matrix(11.5468,0,0,8.35381,495.037,304.271)">
                <path d="M0.373,-0L0.285,-0L0.285,-0.56C0.264,-0.54 0.236,-0.52 0.201,-0.5C0.167,-0.479 0.136,-0.464 0.109,-0.454L0.109,-0.539C0.158,-0.562 0.201,-0.59 0.238,-0.623C0.275,-0.656 0.301,-0.688 0.316,-0.719L0.373,-0.719L0.373,-0Z" style="fill-rule:nonzero;"/>
            </g>
        </g>
        <g transform="matrix(0.605882,0,0,0.837462,158.122,177.969)">
            <g transform="matrix(19.8058,0,0,14.329,447.911,299.5)">
                <path d="M0.208,-0.556L0.142,-0.585C0.165,-0.636 0.192,-0.673 0.224,-0.695C0.256,-0.717 0.287,-0.728 0.318,-0.728C0.343,-0.728 0.365,-0.722 0.385,-0.709C0.405,-0.696 0.42,-0.681 0.43,-0.665C0.445,-0.639 0.457,-0.608 0.464,-0.573C0.471,-0.538 0.475,-0.498 0.475,-0.452C0.475,-0.358 0.461,-0.275 0.433,-0.202C0.405,-0.129 0.367,-0.075 0.319,-0.04C0.271,-0.005 0.224,0.012 0.178,0.012C0.133,0.012 0.097,-0.003 0.069,-0.032C0.041,-0.062 0.027,-0.104 0.027,-0.157C0.027,-0.231 0.052,-0.294 0.102,-0.346C0.166,-0.414 0.272,-0.449 0.419,-0.451C0.418,-0.506 0.414,-0.548 0.407,-0.576C0.401,-0.605 0.39,-0.627 0.374,-0.642C0.358,-0.658 0.34,-0.666 0.319,-0.666C0.299,-0.666 0.279,-0.657 0.26,-0.641C0.241,-0.625 0.223,-0.597 0.208,-0.556ZM0.417,-0.389C0.338,-0.384 0.279,-0.373 0.242,-0.355C0.205,-0.338 0.175,-0.309 0.151,-0.269C0.127,-0.229 0.115,-0.189 0.115,-0.148C0.115,-0.121 0.124,-0.099 0.14,-0.081C0.157,-0.063 0.176,-0.055 0.198,-0.055C0.223,-0.055 0.249,-0.064 0.276,-0.082C0.314,-0.106 0.345,-0.144 0.369,-0.196C0.393,-0.248 0.409,-0.312 0.417,-0.389Z" style="fill-rule:nonzero;"/>
            </g>
            <g transform="matrix(19.8058,0,0,14.329,457.698,299.5)">
                <path d="M0.062,-0.716L0.157,-0.716L0.157,-0.523C0.157,-0.444 0.174,-0.39 0.209,-0.358C0.244,-0.327 0.298,-0.308 0.37,-0.302L0.37,-0.716L0.465,-0.716L0.465,-0.302C0.533,-0.306 0.586,-0.325 0.623,-0.359C0.66,-0.392 0.678,-0.451 0.678,-0.535L0.678,-0.716L0.773,-0.716L0.773,-0.514C0.773,-0.322 0.671,-0.224 0.465,-0.221L0.465,-0L0.37,-0L0.37,-0.221C0.263,-0.223 0.184,-0.249 0.135,-0.3C0.087,-0.35 0.062,-0.418 0.062,-0.505L0.062,-0.716Z" style="fill-rule:nonzero;"/>
            </g>
            <g transform="matrix(19.8058,0,0,14.329,474.244,299.5)">
                <path d="M0,0.012L0.208,-0.728L0.278,-0.728L0.071,0.012L0,0.012Z" style="fill-rule:nonzero;"/>
            </g>
            <g transform="matrix(19.8058,0,0,14.329,479.747,299.5)">
                <path d="M0.208,-0.556L0.142,-0.585C0.165,-0.636 0.192,-0.673 0.224,-0.695C0.256,-0.717 0.287,-0.728 0.318,-0.728C0.343,-0.728 0.365,-0.722 0.385,-0.709C0.405,-0.696 0.42,-0.681 0.43,-0.665C0.445,-0.639 0.457,-0.608 0.464,-0.573C0.471,-0.538 0.475,-0.498 0.475,-0.452C0.475,-0.358 0.461,-0.275 0.433,-0.202C0.405,-0.129 0.367,-0.075 0.319,-0.04C0.271,-0.005 0.224,0.012 0.178,0.012C0.133,0.012 0.097,-0.003 0.069,-0.032C0.041,-0.062 0.027,-0.104 0.027,-0.157C0.027,-0.231 0.052,-0.294 0.102,-0.346C0.166,-0.414 0.272,-0.449 0.419,-0.451C0.418,-0.506 0.414,-0.548 0.407,-0.576C0.401,-0.605 0.39,-0.627 0.374,-0.642C0.358,-0.658 0.34,-0.666 0.319,-0.666C0.299,-0.666 0.279,-0.657 0.26,-0.641C0.241,-0.625 0.223,-0.597 0.208,-0.556ZM0.417,-0.389C0.338,-0.384 0.279,-0.373 0.242,-0.355C0.205,-0.338 0.175,-0.309 0.151,-0.269C0.127,-0.229 0.115,-0.189 0.115,-0.148C0.115,-0.121 0.124,-0.099 0.14,-0.081C0.157,-0.063 0.176,-0.055 0.198,-0.055C0.223,-0.055 0.249,-0.064 0.276,-0.082C0.314,-0.106 0.345,-0.144 0.369,-0.196C0.393,-0.248 0.409,-0.312 0.417,-0.389Z" style="fill-rule:nonzero;"/>
            </g>
            <g transform="matrix(19.8058,0,0,14.329,489.534,299.5)">
                <rect x="0.093" y="-0.716" width="0.095" height="0.716" style="fill-rule:nonzero;"/>
            </g>
            <g transform="matrix(11.5468,0,0,8.35381,495.037,304.271)">
                <path d="M0.503,-0.084L0.503,-0L0.03,-0C0.03,-0.021 0.033,-0.042 0.041,-0.061C0.053,-0.093 0.072,-0.125 0.098,-0.156C0.125,-0.188 0.163,-0.224 0.213,-0.265C0.291,-0.328 0.344,-0.379 0.371,-0.416C0.398,-0.454 0.412,-0.489 0.412,-0.522C0.412,-0.557 0.4,-0.586 0.375,-0.61C0.35,-0.634 0.317,-0.646 0.277,-0.646C0.235,-0.646 0.201,-0.633 0.176,-0.608C0.15,-0.583 0.138,-0.547 0.137,-0.502L0.047,-0.512C0.053,-0.579 0.076,-0.63 0.117,-0.666C0.157,-0.701 0.211,-0.719 0.279,-0.719C0.348,-0.719 0.402,-0.7 0.442,-0.662C0.482,-0.624 0.502,-0.576 0.502,-0.52C0.502,-0.491 0.497,-0.463 0.485,-0.436C0.473,-0.408 0.454,-0.379 0.427,-0.348C0.399,-0.318 0.354,-0.276 0.291,-0.222C0.238,-0.178 0.204,-0.148 0.189,-0.132C0.174,-0.116 0.162,-0.1 0.152,-0.084L0.503,-0.084Z" style="fill-rule:nonzero;"/>
            </g>
        </g>
    </g>
</svg>
