<?xml version="1.0" encoding="UTF-8" standalone="no"?>
<!DOCTYPE svg PUBLIC "-//W3C//DTD SVG 1.1//EN" "http://www.w3.org/Graphics/SVG/1.1/DTD/svg11.dtd">
<svg width="100%" height="100%" viewBox="0 0 2000 2000" version="1.1" xmlns="http://www.w3.org/2000/svg" xmlns:xlink="http://www.w3.org/1999/xlink" xml:space="preserve" xmlns:serif="http://www.serif.com/" style="fill-rule:evenodd;clip-rule:evenodd;stroke-linejoin:round;stroke-miterlimit:2;">
    <g transform="matrix(4,0,0,4,0,0)">
        <rect x="0" y="0" width="500" height="500"/>
    </g>
    <g>
        <g>
            <g transform="matrix(1,0,0,1,199.287,1.01255)">
                <circle cx="125.135" cy="224.8" r="35.804" style="fill:white;"/>
            </g>
            <g transform="matrix(1,0,0,1,-49.5903,149.56)">
                <circle cx="125.135" cy="224.8" r="35.804" style="fill:white;"/>
            </g>
            <g transform="matrix(1,0,0,1,-49.6692,49.3725)">
                <circle cx="125.135" cy="224.8" r="35.804" style="fill:white;"/>
            </g>
            <g transform="matrix(1,0,0,1,-100.623,-200.394)">
                <circle cx="125.135" cy="224.8" r="35.804" style="fill:white;"/>
            </g>
            <g transform="matrix(1,0,0,1,250.075,52.2142)">
                <circle cx="125.135" cy="224.8" r="35.804" style="fill:white;"/>
            </g>
            <g transform="matrix(1,0,0,1,99.4909,201.263)">
                <circle cx="125.135" cy="224.8" r="35.804" style="fill:white;"/>
            </g>
            <path d="M0,50L500,50L500,100L0,100L0,50ZM0,150L500,150L500,200L0,200L0,150ZM0,250L500,250L500,300L0,300L0,250ZM0,350L500,350L500,400L0,400L0,350ZM0,450L500,450L500,500L0,500L0,450ZM50,0L50,500L100,500L100,0L50,0ZM150,0L150,500L200,500L200,0L150,0ZM250,0L250,500L300,500L300,0L250,0ZM350,0L350,500L400,500L400,0L350,0ZM450,0L450,500L500,500L500,0L450,0Z" style="fill:white;fill-rule:nonzero;"/>
            <circle cx="125.135" cy="224.8" r="35.804" style="fill:white;"/>
            <g transform="matrix(1,0,0,1,99.891,-99.235)">
                <circle cx="125.135" cy="224.8" r="35.804" style="fill:white;"/>
            </g>
            <g transform="matrix(1,0,0,1,250.298,-99.6515)">
                <circle cx="125.135" cy="224.8" r="35.804"/>
            </g>
            <g transform="matrix(1,0,0,1,150.113,101.892)">
                <circle cx="125.135" cy="224.8" r="35.804"/>
            </g>
            <g transform="matrix(1,0,0,1,101.682,49.495)">
                <circle cx="125.135" cy="224.8" r="35.804"/>
            </g>
            <g transform="matrix(1,0,0,1,300.285,250.752)">
                <circle cx="125.135" cy="224.8" r="35.804"/>
            </g>
            <g transform="matrix(1,0,0,1,-50.8179,-99.8039)">
                <circle cx="125.135" cy="224.8" r="35.804"/>
            </g>
            <g transform="matrix(1,0,0,1,-0.476332,-149.179)">
                <circle cx="125.135" cy="224.8" r="35.804"/>
            </g>
            <g transform="matrix(1,0,0,1,-99.2132,250.788)">
                <circle cx="125.135" cy="224.8" r="35.804"/>
            </g>
            <g transform="matrix(1,0,0,1,299.031,-49.4324)">
                <circle cx="125.135" cy="224.8" r="35.804"/>
            </g>
            <g transform="matrix(1,0,0,1,349.813,-99.8719)">
                <circle cx="125.135" cy="224.8" r="35.804"/>
            </g>
        </g>
        <g transform="matrix(1,0,0,1,499.962,0.0760956)">
            <g transform="matrix(1,0,0,1,199.287,1.01255)">
                <circle cx="125.135" cy="224.8" r="35.804" style="fill:white;"/>
            </g>
            <g transform="matrix(1,0,0,1,-49.5903,149.56)">
                <circle cx="125.135" cy="224.8" r="35.804" style="fill:white;"/>
            </g>
            <g transform="matrix(1,0,0,1,-49.6692,49.3725)">
                <circle cx="125.135" cy="224.8" r="35.804" style="fill:white;"/>
            </g>
            <g transform="matrix(1,0,0,1,-100.623,-200.394)">
                <circle cx="125.135" cy="224.8" r="35.804" style="fill:white;"/>
            </g>
            <g transform="matrix(1,0,0,1,250.075,52.2142)">
                <circle cx="125.135" cy="224.8" r="35.804" style="fill:white;"/>
            </g>
            <g transform="matrix(1,0,0,1,99.4909,201.263)">
                <circle cx="125.135" cy="224.8" r="35.804" style="fill:white;"/>
            </g>
            <path d="M0,50L500,50L500,100L0,100L0,50ZM0,150L500,150L500,200L0,200L0,150ZM0,250L500,250L500,300L0,300L0,250ZM0,350L500,350L500,400L0,400L0,350ZM0,450L500,450L500,500L0,500L0,450ZM50,0L50,500L100,500L100,0L50,0ZM150,0L150,500L200,500L200,0L150,0ZM250,0L250,500L300,500L300,0L250,0ZM350,0L350,500L400,500L400,0L350,0ZM450,0L450,500L500,500L500,0L450,0Z" style="fill:white;fill-rule:nonzero;"/>
            <circle cx="125.135" cy="224.8" r="35.804" style="fill:white;"/>
            <g transform="matrix(1,0,0,1,99.891,-99.235)">
                <circle cx="125.135" cy="224.8" r="35.804" style="fill:white;"/>
            </g>
            <g transform="matrix(1,0,0,1,250.298,-99.6515)">
                <circle cx="125.135" cy="224.8" r="35.804"/>
            </g>
            <g transform="matrix(1,0,0,1,150.113,101.892)">
                <circle cx="125.135" cy="224.8" r="35.804"/>
            </g>
            <g transform="matrix(1,0,0,1,101.682,49.495)">
                <circle cx="125.135" cy="224.8" r="35.804"/>
            </g>
            <g transform="matrix(1,0,0,1,300.285,250.752)">
                <circle cx="125.135" cy="224.8" r="35.804"/>
            </g>
            <g transform="matrix(1,0,0,1,-50.8179,-99.8039)">
                <circle cx="125.135" cy="224.8" r="35.804"/>
            </g>
            <g transform="matrix(1,0,0,1,-0.476332,-149.179)">
                <circle cx="125.135" cy="224.8" r="35.804"/>
            </g>
            <g transform="matrix(1,0,0,1,-99.2132,250.788)">
                <circle cx="125.135" cy="224.8" r="35.804"/>
            </g>
            <g transform="matrix(1,0,0,1,299.031,-49.4324)">
                <circle cx="125.135" cy="224.8" r="35.804"/>
            </g>
            <g transform="matrix(1,0,0,1,349.813,-99.8719)">
                <circle cx="125.135" cy="224.8" r="35.804"/>
            </g>
        </g>
        <g transform="matrix(1,0,0,1,-0.132498,499.947)">
            <g transform="matrix(1,0,0,1,199.287,1.01255)">
                <circle cx="125.135" cy="224.8" r="35.804" style="fill:white;"/>
            </g>
            <g transform="matrix(1,0,0,1,-49.5903,149.56)">
                <circle cx="125.135" cy="224.8" r="35.804" style="fill:white;"/>
            </g>
            <g transform="matrix(1,0,0,1,-49.6692,49.3725)">
                <circle cx="125.135" cy="224.8" r="35.804" style="fill:white;"/>
            </g>
            <g transform="matrix(1,0,0,1,199.523,-200.888)">
                <circle cx="125.135" cy="224.8" r="35.804" style="fill:white;"/>
            </g>
            <g transform="matrix(1,0,0,1,152.205,-249.368)">
                <circle cx="125.135" cy="224.8" r="35.804" style="fill:white;"/>
            </g>
            <g transform="matrix(1,0,0,1,199.729,-300.811)">
                <circle cx="125.135" cy="224.8" r="35.804" style="fill:white;"/>
            </g>
            <g transform="matrix(1,0,0,1,250.075,52.2142)">
                <circle cx="125.135" cy="224.8" r="35.804" style="fill:white;"/>
            </g>
            <g transform="matrix(1,0,0,1,99.4909,201.263)">
                <circle cx="125.135" cy="224.8" r="35.804" style="fill:white;"/>
            </g>
            <path d="M0,50L500,50L500,100L0,100L0,50ZM0,150L500,150L500,200L0,200L0,150ZM0,250L500,250L500,300L0,300L0,250ZM0,350L500,350L500,400L0,400L0,350ZM0,450L500,450L500,500L0,500L0,450ZM50,0L50,500L100,500L100,0L50,0ZM150,0L150,500L200,500L200,0L150,0ZM250,0L250,500L300,500L300,0L250,0ZM350,0L350,500L400,500L400,0L350,0ZM450,0L450,500L500,500L500,0L450,0Z" style="fill:white;fill-rule:nonzero;"/>
            <circle cx="125.135" cy="224.8" r="35.804" style="fill:white;"/>
            <g transform="matrix(1,0,0,1,99.891,-99.235)">
                <circle cx="125.135" cy="224.8" r="35.804" style="fill:white;"/>
            </g>
            <g transform="matrix(1,0,0,1,250.298,-99.6515)">
                <circle cx="125.135" cy="224.8" r="35.804"/>
            </g>
            <g transform="matrix(1,0,0,1,150.113,101.892)">
                <circle cx="125.135" cy="224.8" r="35.804"/>
            </g>
            <g transform="matrix(1,0,0,1,101.682,49.495)">
                <circle cx="125.135" cy="224.8" r="35.804"/>
            </g>
            <g transform="matrix(1,0,0,1,300.285,250.752)">
                <circle cx="125.135" cy="224.8" r="35.804"/>
            </g>
            <g transform="matrix(1,0,0,1,-50.8179,-99.8039)">
                <circle cx="125.135" cy="224.8" r="35.804"/>
            </g>
            <g transform="matrix(1,0,0,1,-0.476332,-149.179)">
                <circle cx="125.135" cy="224.8" r="35.804"/>
            </g>
            <g transform="matrix(1,0,0,1,-99.2132,250.788)">
                <circle cx="125.135" cy="224.8" r="35.804"/>
            </g>
            <g transform="matrix(1,0,0,1,299.031,-49.4324)">
                <circle cx="125.135" cy="224.8" r="35.804"/>
            </g>
            <g transform="matrix(1,0,0,1,349.813,-99.8719)">
                <circle cx="125.135" cy="224.8" r="35.804"/>
            </g>
        </g>
        <g transform="matrix(1,0,0,1,500.025,500.13)">
            <g transform="matrix(1,0,0,1,199.287,1.01255)">
                <circle cx="125.135" cy="224.8" r="35.804" style="fill:white;"/>
            </g>
            <g transform="matrix(1,0,0,1,-49.5903,149.56)">
                <circle cx="125.135" cy="224.8" r="35.804" style="fill:white;"/>
            </g>
            <g transform="matrix(1,0,0,1,-49.6692,49.3725)">
                <circle cx="125.135" cy="224.8" r="35.804" style="fill:white;"/>
            </g>
            <g transform="matrix(1,0,0,1,250.075,52.2142)">
                <circle cx="125.135" cy="224.8" r="35.804" style="fill:white;"/>
            </g>
            <g transform="matrix(1,0,0,1,99.4909,201.263)">
                <circle cx="125.135" cy="224.8" r="35.804" style="fill:white;"/>
            </g>
            <path d="M0,50L500,50L500,100L0,100L0,50ZM0,150L500,150L500,200L0,200L0,150ZM0,250L500,250L500,300L0,300L0,250ZM0,350L500,350L500,400L0,400L0,350ZM0,450L500,450L500,500L0,500L0,450ZM50,0L50,500L100,500L100,0L50,0ZM150,0L150,500L200,500L200,0L150,0ZM250,0L250,500L300,500L300,0L250,0ZM350,0L350,500L400,500L400,0L350,0ZM450,0L450,500L500,500L500,0L450,0Z" style="fill:white;fill-rule:nonzero;"/>
            <circle cx="125.135" cy="224.8" r="35.804" style="fill:white;"/>
            <g transform="matrix(1,0,0,1,99.891,-99.235)">
                <circle cx="125.135" cy="224.8" r="35.804" style="fill:white;"/>
            </g>
            <g transform="matrix(1,0,0,1,250.298,-99.6515)">
                <circle cx="125.135" cy="224.8" r="35.804"/>
            </g>
            <g transform="matrix(1,0,0,1,150.113,101.892)">
                <circle cx="125.135" cy="224.8" r="35.804"/>
            </g>
            <g transform="matrix(1,0,0,1,101.682,49.495)">
                <circle cx="125.135" cy="224.8" r="35.804"/>
            </g>
            <g transform="matrix(1,0,0,1,300.285,250.752)">
                <circle cx="125.135" cy="224.8" r="35.804"/>
            </g>
            <g transform="matrix(1,0,0,1,-50.8179,-99.8039)">
                <circle cx="125.135" cy="224.8" r="35.804"/>
            </g>
            <g transform="matrix(1,0,0,1,-0.476332,-149.179)">
                <circle cx="125.135" cy="224.8" r="35.804"/>
            </g>
            <g transform="matrix(1,0,0,1,-99.2132,250.788)">
                <circle cx="125.135" cy="224.8" r="35.804"/>
            </g>
            <g transform="matrix(1,0,0,1,299.031,-49.4324)">
                <circle cx="125.135" cy="224.8" r="35.804"/>
            </g>
            <g transform="matrix(1,0,0,1,349.813,-99.8719)">
                <circle cx="125.135" cy="224.8" r="35.804"/>
            </g>
        </g>
        <g>
            <g transform="matrix(1,0,0,1,400.5,599.946)">
                <circle cx="125.135" cy="224.8" r="35.804" style="fill:white;"/>
            </g>
            <g transform="matrix(1,0,0,1,-49.8017,549.32)">
                <circle cx="125.135" cy="224.8" r="35.804" style="fill:white;"/>
            </g>
            <g transform="matrix(1,0,0,1,498.491,600.347)">
                <circle cx="125.135" cy="224.8" r="35.804" style="fill:white;"/>
            </g>
            <g transform="matrix(1,0,0,1,-49.8017,549.32)">
                <circle cx="125.135" cy="224.8" r="35.804" style="fill:white;"/>
            </g>
            <g transform="matrix(1,0,0,1,650.621,250.602)">
                <circle cx="125.135" cy="224.8" r="35.804" style="fill:white;"/>
            </g>
            <g transform="matrix(1,0,0,1,699.54,199.566)">
                <circle cx="125.135" cy="224.8" r="35.804" style="fill:white;"/>
            </g>
            <g transform="matrix(1,0,0,1,548.786,251.577)">
                <circle cx="125.135" cy="224.8" r="35.804" style="fill:white;"/>
            </g>
            <g transform="matrix(1,0,0,1,-1.08841,201.31)">
                <circle cx="125.135" cy="224.8" r="35.804" style="fill:white;"/>
            </g>
            <g transform="matrix(1,0,0,1,-49.8017,549.32)">
                <circle cx="125.135" cy="224.8" r="35.804" style="fill:white;"/>
            </g>
            <g transform="matrix(1,0,0,1,49.9061,152.364)">
                <circle cx="125.135" cy="224.8" r="35.804" style="fill:white;"/>
            </g>
            <g transform="matrix(1,0,0,1,0.507061,102.06)">
                <circle cx="125.135" cy="224.8" r="35.804" style="fill:white;"/>
            </g>
            <g transform="matrix(1,0,0,1,648.876,-150.949)">
                <circle cx="125.135" cy="224.8" r="35.804" style="fill:white;"/>
            </g>
            <g transform="matrix(1,0,0,1,600.331,-199.909)">
                <circle cx="125.135" cy="224.8" r="35.804" style="fill:white;"/>
            </g>
            <g transform="matrix(1,0,0,1,698.159,-200.381)">
                <circle cx="125.135" cy="224.8" r="35.804" style="fill:white;"/>
            </g>
            <g transform="matrix(1,0,0,1,800.708,-201.528)">
                <circle cx="125.135" cy="224.8" r="35.804" style="fill:white;"/>
            </g>
            <g transform="matrix(1,0,0,1,800.106,602.75)">
                <circle cx="125.135" cy="224.8" r="35.804" style="fill:white;"/>
            </g>
            <g transform="matrix(1,0,0,1,751.365,650.586)">
                <circle cx="125.135" cy="224.8" r="35.804" style="fill:white;"/>
            </g>
            <g transform="matrix(1,0,0,1,700.529,699.822)">
                <circle cx="125.135" cy="224.8" r="35.804" style="fill:white;"/>
            </g>
            <g transform="matrix(1,0,0,1,299.603,353.165)">
                <circle cx="125.135" cy="224.8" r="35.804"/>
            </g>
            <g transform="matrix(1,0,0,1,551.772,98.2717)">
                <circle cx="125.135" cy="224.8" r="35.804"/>
            </g>
            <g transform="matrix(1,0,0,1,500.828,751.978)">
                <circle cx="125.135" cy="224.8" r="35.804"/>
            </g>
            <g transform="matrix(0.83361,0,0,1,107.228,-1)">
                <rect x="650.449" y="850.52" width="363.152" height="151.924"/>
            </g>
        </g>
    </g>
    <g transform="matrix(6.1149e-17,-1,1,6.1149e-17,1001.72,1000.78)">
        <g transform="matrix(1,0,0,1,1,-1)">
            <g transform="matrix(1,0,0,1,199.287,1.01255)">
                <circle cx="125.135" cy="224.8" r="35.804" style="fill:white;"/>
            </g>
            <g transform="matrix(1,0,0,1,-49.5903,149.56)">
                <circle cx="125.135" cy="224.8" r="35.804" style="fill:white;"/>
            </g>
            <g transform="matrix(1,0,0,1,-49.6692,49.3725)">
                <circle cx="125.135" cy="224.8" r="35.804" style="fill:white;"/>
            </g>
            <g transform="matrix(1,0,0,1,250.075,52.2142)">
                <circle cx="125.135" cy="224.8" r="35.804" style="fill:white;"/>
            </g>
            <g transform="matrix(1,0,0,1,99.4909,201.263)">
                <circle cx="125.135" cy="224.8" r="35.804" style="fill:white;"/>
            </g>
            <path d="M0,50L500,50L500,100L0,100L0,50ZM0,150L500,150L500,200L0,200L0,150ZM0,250L500,250L500,300L0,300L0,250ZM0,350L500,350L500,400L0,400L0,350ZM0,450L500,450L500,500L0,500L0,450ZM50,0L50,500L100,500L100,0L50,0ZM150,0L150,500L200,500L200,0L150,0ZM250,0L250,500L300,500L300,0L250,0ZM350,0L350,500L400,500L400,0L350,0ZM450,0L450,500L500,500L500,0L450,0Z" style="fill:white;fill-rule:nonzero;"/>
            <circle cx="125.135" cy="224.8" r="35.804" style="fill:white;"/>
            <g transform="matrix(1,0,0,1,99.891,-99.235)">
                <circle cx="125.135" cy="224.8" r="35.804" style="fill:white;"/>
            </g>
            <g transform="matrix(1,0,0,1,250.298,-99.6515)">
                <circle cx="125.135" cy="224.8" r="35.804"/>
            </g>
            <g transform="matrix(1,0,0,1,150.113,101.892)">
                <circle cx="125.135" cy="224.8" r="35.804"/>
            </g>
            <g transform="matrix(1,0,0,1,101.682,49.495)">
                <circle cx="125.135" cy="224.8" r="35.804"/>
            </g>
            <g transform="matrix(1,0,0,1,300.285,250.752)">
                <circle cx="125.135" cy="224.8" r="35.804"/>
            </g>
            <g transform="matrix(1,0,0,1,-50.8179,-99.8039)">
                <circle cx="125.135" cy="224.8" r="35.804"/>
            </g>
            <g transform="matrix(1,0,0,1,-0.476332,-149.179)">
                <circle cx="125.135" cy="224.8" r="35.804"/>
            </g>
            <g transform="matrix(1,0,0,1,-99.2132,250.788)">
                <circle cx="125.135" cy="224.8" r="35.804"/>
            </g>
            <g transform="matrix(1,0,0,1,299.031,-49.4324)">
                <circle cx="125.135" cy="224.8" r="35.804"/>
            </g>
            <g transform="matrix(1,0,0,1,349.813,-99.8719)">
                <circle cx="125.135" cy="224.8" r="35.804"/>
            </g>
        </g>
        <g transform="matrix(1,0,0,1,500.962,-0.923904)">
            <g transform="matrix(1,0,0,1,199.287,1.01255)">
                <circle cx="125.135" cy="224.8" r="35.804" style="fill:white;"/>
            </g>
            <g transform="matrix(1,0,0,1,-49.5903,149.56)">
                <circle cx="125.135" cy="224.8" r="35.804" style="fill:white;"/>
            </g>
            <g transform="matrix(1,0,0,1,-49.6692,49.3725)">
                <circle cx="125.135" cy="224.8" r="35.804" style="fill:white;"/>
            </g>
            <g transform="matrix(1,0,0,1,250.075,52.2142)">
                <circle cx="125.135" cy="224.8" r="35.804" style="fill:white;"/>
            </g>
            <g transform="matrix(1,0,0,1,99.4909,201.263)">
                <circle cx="125.135" cy="224.8" r="35.804" style="fill:white;"/>
            </g>
            <path d="M0,50L500,50L500,100L0,100L0,50ZM0,150L500,150L500,200L0,200L0,150ZM0,250L500,250L500,300L0,300L0,250ZM0,350L500,350L500,400L0,400L0,350ZM0,450L500,450L500,500L0,500L0,450ZM50,0L50,500L100,500L100,0L50,0ZM150,0L150,500L200,500L200,0L150,0ZM250,0L250,500L300,500L300,0L250,0ZM350,0L350,500L400,500L400,0L350,0ZM450,0L450,500L500,500L500,0L450,0Z" style="fill:white;fill-rule:nonzero;"/>
            <circle cx="125.135" cy="224.8" r="35.804" style="fill:white;"/>
            <g transform="matrix(1,0,0,1,99.891,-99.235)">
                <circle cx="125.135" cy="224.8" r="35.804" style="fill:white;"/>
            </g>
            <g transform="matrix(1,0,0,1,250.298,-99.6515)">
                <circle cx="125.135" cy="224.8" r="35.804"/>
            </g>
            <g transform="matrix(1,0,0,1,150.113,101.892)">
                <circle cx="125.135" cy="224.8" r="35.804"/>
            </g>
            <g transform="matrix(1,0,0,1,101.682,49.495)">
                <circle cx="125.135" cy="224.8" r="35.804"/>
            </g>
            <g transform="matrix(1,0,0,1,300.285,250.752)">
                <circle cx="125.135" cy="224.8" r="35.804"/>
            </g>
            <g transform="matrix(1,0,0,1,-50.8179,-99.8039)">
                <circle cx="125.135" cy="224.8" r="35.804"/>
            </g>
            <g transform="matrix(1,0,0,1,-0.476332,-149.179)">
                <circle cx="125.135" cy="224.8" r="35.804"/>
            </g>
            <g transform="matrix(1,0,0,1,-99.2132,250.788)">
                <circle cx="125.135" cy="224.8" r="35.804"/>
            </g>
            <g transform="matrix(1,0,0,1,299.031,-49.4324)">
                <circle cx="125.135" cy="224.8" r="35.804"/>
            </g>
            <g transform="matrix(1,0,0,1,349.813,-99.8719)">
                <circle cx="125.135" cy="224.8" r="35.804"/>
            </g>
        </g>
        <g transform="matrix(1,0,0,1,-0.132498,499.947)">
            <g transform="matrix(1,0,0,1,199.287,1.01255)">
                <circle cx="125.135" cy="224.8" r="35.804" style="fill:white;"/>
            </g>
            <g transform="matrix(1,0,0,1,-49.5903,149.56)">
                <circle cx="125.135" cy="224.8" r="35.804" style="fill:white;"/>
            </g>
            <g transform="matrix(1,0,0,1,-49.6692,49.3725)">
                <circle cx="125.135" cy="224.8" r="35.804" style="fill:white;"/>
            </g>
            <g transform="matrix(1,0,0,1,199.523,-200.888)">
                <circle cx="125.135" cy="224.8" r="35.804" style="fill:white;"/>
            </g>
            <g transform="matrix(1,0,0,1,152.205,-249.368)">
                <circle cx="125.135" cy="224.8" r="35.804" style="fill:white;"/>
            </g>
            <g transform="matrix(1,0,0,1,199.729,-300.811)">
                <circle cx="125.135" cy="224.8" r="35.804" style="fill:white;"/>
            </g>
            <g transform="matrix(1,0,0,1,250.075,52.2142)">
                <circle cx="125.135" cy="224.8" r="35.804" style="fill:white;"/>
            </g>
            <g transform="matrix(1,0,0,1,99.4909,201.263)">
                <circle cx="125.135" cy="224.8" r="35.804" style="fill:white;"/>
            </g>
            <path d="M0,50L500,50L500,100L0,100L0,50ZM0,150L500,150L500,200L0,200L0,150ZM0,250L500,250L500,300L0,300L0,250ZM0,350L500,350L500,400L0,400L0,350ZM0,450L500,450L500,500L0,500L0,450ZM50,0L50,500L100,500L100,0L50,0ZM150,0L150,500L200,500L200,0L150,0ZM250,0L250,500L300,500L300,0L250,0ZM350,0L350,500L400,500L400,0L350,0ZM450,0L450,500L500,500L500,0L450,0Z" style="fill:white;fill-rule:nonzero;"/>
            <circle cx="125.135" cy="224.8" r="35.804" style="fill:white;"/>
            <g transform="matrix(1,0,0,1,99.891,-99.235)">
                <circle cx="125.135" cy="224.8" r="35.804" style="fill:white;"/>
            </g>
            <g transform="matrix(1,0,0,1,250.298,-99.6515)">
                <circle cx="125.135" cy="224.8" r="35.804"/>
            </g>
            <g transform="matrix(1,0,0,1,150.113,101.892)">
                <circle cx="125.135" cy="224.8" r="35.804"/>
            </g>
            <g transform="matrix(1,0,0,1,101.682,49.495)">
                <circle cx="125.135" cy="224.8" r="35.804"/>
            </g>
            <g transform="matrix(1,0,0,1,300.285,250.752)">
                <circle cx="125.135" cy="224.8" r="35.804"/>
            </g>
            <g transform="matrix(1,0,0,1,-50.8179,-99.8039)">
                <circle cx="125.135" cy="224.8" r="35.804"/>
            </g>
            <g transform="matrix(1,0,0,1,-0.476332,-149.179)">
                <circle cx="125.135" cy="224.8" r="35.804"/>
            </g>
            <g transform="matrix(1,0,0,1,-99.2132,250.788)">
                <circle cx="125.135" cy="224.8" r="35.804"/>
            </g>
            <g transform="matrix(1,0,0,1,299.031,-49.4324)">
                <circle cx="125.135" cy="224.8" r="35.804"/>
            </g>
            <g transform="matrix(1,0,0,1,349.813,-99.8719)">
                <circle cx="125.135" cy="224.8" r="35.804"/>
            </g>
        </g>
        <g transform="matrix(1,0,0,1,500.025,500.13)">
            <g transform="matrix(1,0,0,1,199.287,1.01255)">
                <circle cx="125.135" cy="224.8" r="35.804" style="fill:white;"/>
            </g>
            <g transform="matrix(1,0,0,1,-49.5903,149.56)">
                <circle cx="125.135" cy="224.8" r="35.804" style="fill:white;"/>
            </g>
            <g transform="matrix(1,0,0,1,-49.6692,49.3725)">
                <circle cx="125.135" cy="224.8" r="35.804" style="fill:white;"/>
            </g>
            <g transform="matrix(1,0,0,1,250.075,52.2142)">
                <circle cx="125.135" cy="224.8" r="35.804" style="fill:white;"/>
            </g>
            <g transform="matrix(1,0,0,1,99.4909,201.263)">
                <circle cx="125.135" cy="224.8" r="35.804" style="fill:white;"/>
            </g>
            <path d="M0,50L500,50L500,100L0,100L0,50ZM0,150L500,150L500,200L0,200L0,150ZM0,250L500,250L500,300L0,300L0,250ZM0,350L500,350L500,400L0,400L0,350ZM0,450L500,450L500,500L0,500L0,450ZM50,0L50,500L100,500L100,0L50,0ZM150,0L150,500L200,500L200,0L150,0ZM250,0L250,500L300,500L300,0L250,0ZM350,0L350,500L400,500L400,0L350,0ZM450,0L450,500L500,500L500,0L450,0Z" style="fill:white;fill-rule:nonzero;"/>
            <circle cx="125.135" cy="224.8" r="35.804" style="fill:white;"/>
            <g transform="matrix(1,0,0,1,99.891,-99.235)">
                <circle cx="125.135" cy="224.8" r="35.804" style="fill:white;"/>
            </g>
            <g transform="matrix(1,0,0,1,250.298,-99.6515)">
                <circle cx="125.135" cy="224.8" r="35.804"/>
            </g>
            <g transform="matrix(1,0,0,1,150.113,101.892)">
                <circle cx="125.135" cy="224.8" r="35.804"/>
            </g>
            <g transform="matrix(1,0,0,1,101.682,49.495)">
                <circle cx="125.135" cy="224.8" r="35.804"/>
            </g>
            <g transform="matrix(1,0,0,1,300.285,250.752)">
                <circle cx="125.135" cy="224.8" r="35.804"/>
            </g>
            <g transform="matrix(1,0,0,1,-50.8179,-99.8039)">
                <circle cx="125.135" cy="224.8" r="35.804"/>
            </g>
            <g transform="matrix(1,0,0,1,-0.476332,-149.179)">
                <circle cx="125.135" cy="224.8" r="35.804"/>
            </g>
            <g transform="matrix(1,0,0,1,-99.2132,250.788)">
                <circle cx="125.135" cy="224.8" r="35.804"/>
            </g>
            <g transform="matrix(1,0,0,1,299.031,-49.4324)">
                <circle cx="125.135" cy="224.8" r="35.804"/>
            </g>
            <g transform="matrix(1,0,0,1,349.813,-99.8719)">
                <circle cx="125.135" cy="224.8" r="35.804"/>
            </g>
        </g>
        <g>
            <g transform="matrix(1,0,0,1,400.5,599.946)">
                <circle cx="125.135" cy="224.8" r="35.804" style="fill:white;"/>
            </g>
            <g transform="matrix(1,0,0,1,-49.8017,549.32)">
                <circle cx="125.135" cy="224.8" r="35.804" style="fill:white;"/>
            </g>
            <g transform="matrix(1,0,0,1,498.491,600.347)">
                <circle cx="125.135" cy="224.8" r="35.804" style="fill:white;"/>
            </g>
            <g transform="matrix(1,0,0,1,-49.8017,549.32)">
                <circle cx="125.135" cy="224.8" r="35.804" style="fill:white;"/>
            </g>
            <g transform="matrix(1,0,0,1,650.621,250.602)">
                <circle cx="125.135" cy="224.8" r="35.804" style="fill:white;"/>
            </g>
            <g transform="matrix(1,0,0,1,699.54,199.566)">
                <circle cx="125.135" cy="224.8" r="35.804" style="fill:white;"/>
            </g>
            <g transform="matrix(1,0,0,1,548.786,251.577)">
                <circle cx="125.135" cy="224.8" r="35.804" style="fill:white;"/>
            </g>
            <g transform="matrix(1,0,0,1,-1.08841,201.31)">
                <circle cx="125.135" cy="224.8" r="35.804" style="fill:white;"/>
            </g>
            <g transform="matrix(1,0,0,1,-49.8017,549.32)">
                <circle cx="125.135" cy="224.8" r="35.804" style="fill:white;"/>
            </g>
            <g transform="matrix(1,0,0,1,49.9061,152.364)">
                <circle cx="125.135" cy="224.8" r="35.804" style="fill:white;"/>
            </g>
            <g transform="matrix(1,0,0,1,0.507061,102.06)">
                <circle cx="125.135" cy="224.8" r="35.804" style="fill:white;"/>
            </g>
            <g transform="matrix(1,0,0,1,648.876,-150.949)">
                <circle cx="125.135" cy="224.8" r="35.804" style="fill:white;"/>
            </g>
            <g transform="matrix(1,0,0,1,800.106,602.75)">
                <circle cx="125.135" cy="224.8" r="35.804" style="fill:white;"/>
            </g>
            <g transform="matrix(1,0,0,1,751.365,650.586)">
                <circle cx="125.135" cy="224.8" r="35.804" style="fill:white;"/>
            </g>
            <g transform="matrix(1,0,0,1,700.529,699.822)">
                <circle cx="125.135" cy="224.8" r="35.804" style="fill:white;"/>
            </g>
            <g transform="matrix(1,0,0,1,299.603,353.165)">
                <circle cx="125.135" cy="224.8" r="35.804"/>
            </g>
            <g transform="matrix(1,0,0,1,551.772,98.2717)">
                <circle cx="125.135" cy="224.8" r="35.804"/>
            </g>
            <g transform="matrix(1,0,0,1,500.828,751.978)">
                <circle cx="125.135" cy="224.8" r="35.804"/>
            </g>
            <g transform="matrix(0.83361,0,0,1,107.228,-1)">
                <rect x="650.449" y="850.52" width="363.152" height="151.924"/>
            </g>
        </g>
    </g>
    <g transform="matrix(6.1149e-17,-1,1,6.1149e-17,-0.774183,1998.98)">
        <g>
            <g transform="matrix(1,0,0,1,199.287,1.01255)">
                <circle cx="125.135" cy="224.8" r="35.804" style="fill:white;"/>
            </g>
            <g transform="matrix(1,0,0,1,-49.5903,149.56)">
                <circle cx="125.135" cy="224.8" r="35.804" style="fill:white;"/>
            </g>
            <g transform="matrix(1,0,0,1,-49.6692,49.3725)">
                <circle cx="125.135" cy="224.8" r="35.804" style="fill:white;"/>
            </g>
            <g transform="matrix(1,0,0,1,-100.623,-200.394)">
                <circle cx="125.135" cy="224.8" r="35.804" style="fill:white;"/>
            </g>
            <g transform="matrix(1,0,0,1,250.075,52.2142)">
                <circle cx="125.135" cy="224.8" r="35.804" style="fill:white;"/>
            </g>
            <g transform="matrix(1,0,0,1,99.4909,201.263)">
                <circle cx="125.135" cy="224.8" r="35.804" style="fill:white;"/>
            </g>
            <path d="M0,50L500,50L500,100L0,100L0,50ZM0,150L500,150L500,200L0,200L0,150ZM0,250L500,250L500,300L0,300L0,250ZM0,350L500,350L500,400L0,400L0,350ZM0,450L500,450L500,500L0,500L0,450ZM50,0L50,500L100,500L100,0L50,0ZM150,0L150,500L200,500L200,0L150,0ZM250,0L250,500L300,500L300,0L250,0ZM350,0L350,500L400,500L400,0L350,0ZM450,0L450,500L500,500L500,0L450,0Z" style="fill:white;fill-rule:nonzero;"/>
            <circle cx="125.135" cy="224.8" r="35.804" style="fill:white;"/>
            <g transform="matrix(1,0,0,1,99.891,-99.235)">
                <circle cx="125.135" cy="224.8" r="35.804" style="fill:white;"/>
            </g>
            <g transform="matrix(1,0,0,1,250.298,-99.6515)">
                <circle cx="125.135" cy="224.8" r="35.804"/>
            </g>
            <g transform="matrix(1,0,0,1,150.113,101.892)">
                <circle cx="125.135" cy="224.8" r="35.804"/>
            </g>
            <g transform="matrix(1,0,0,1,101.682,49.495)">
                <circle cx="125.135" cy="224.8" r="35.804"/>
            </g>
            <g transform="matrix(1,0,0,1,300.285,250.752)">
                <circle cx="125.135" cy="224.8" r="35.804"/>
            </g>
            <g transform="matrix(1,0,0,1,-50.8179,-99.8039)">
                <circle cx="125.135" cy="224.8" r="35.804"/>
            </g>
            <g transform="matrix(1,0,0,1,-0.476332,-149.179)">
                <circle cx="125.135" cy="224.8" r="35.804"/>
            </g>
            <g transform="matrix(1,0,0,1,-99.2132,250.788)">
                <circle cx="125.135" cy="224.8" r="35.804"/>
            </g>
            <g transform="matrix(1,0,0,1,299.031,-49.4324)">
                <circle cx="125.135" cy="224.8" r="35.804"/>
            </g>
            <g transform="matrix(1,0,0,1,349.813,-99.8719)">
                <circle cx="125.135" cy="224.8" r="35.804"/>
            </g>
        </g>
        <g transform="matrix(1,0,0,1,499.962,0.0760956)">
            <g transform="matrix(1,0,0,1,199.287,1.01255)">
                <circle cx="125.135" cy="224.8" r="35.804" style="fill:white;"/>
            </g>
            <g transform="matrix(1,0,0,1,-49.5903,149.56)">
                <circle cx="125.135" cy="224.8" r="35.804" style="fill:white;"/>
            </g>
            <g transform="matrix(1,0,0,1,-49.6692,49.3725)">
                <circle cx="125.135" cy="224.8" r="35.804" style="fill:white;"/>
            </g>
            <g transform="matrix(1,0,0,1,-100.623,-200.394)">
                <circle cx="125.135" cy="224.8" r="35.804" style="fill:white;"/>
            </g>
            <g transform="matrix(1,0,0,1,250.075,52.2142)">
                <circle cx="125.135" cy="224.8" r="35.804" style="fill:white;"/>
            </g>
            <g transform="matrix(1,0,0,1,99.4909,201.263)">
                <circle cx="125.135" cy="224.8" r="35.804" style="fill:white;"/>
            </g>
            <path d="M0,50L500,50L500,100L0,100L0,50ZM0,150L500,150L500,200L0,200L0,150ZM0,250L500,250L500,300L0,300L0,250ZM0,350L500,350L500,400L0,400L0,350ZM0,450L500,450L500,500L0,500L0,450ZM50,0L50,500L100,500L100,0L50,0ZM150,0L150,500L200,500L200,0L150,0ZM250,0L250,500L300,500L300,0L250,0ZM350,0L350,500L400,500L400,0L350,0ZM450,0L450,500L500,500L500,0L450,0Z" style="fill:white;fill-rule:nonzero;"/>
            <circle cx="125.135" cy="224.8" r="35.804" style="fill:white;"/>
            <g transform="matrix(1,0,0,1,99.891,-99.235)">
                <circle cx="125.135" cy="224.8" r="35.804" style="fill:white;"/>
            </g>
            <g transform="matrix(1,0,0,1,250.298,-99.6515)">
                <circle cx="125.135" cy="224.8" r="35.804"/>
            </g>
            <g transform="matrix(1,0,0,1,150.113,101.892)">
                <circle cx="125.135" cy="224.8" r="35.804"/>
            </g>
            <g transform="matrix(1,0,0,1,101.682,49.495)">
                <circle cx="125.135" cy="224.8" r="35.804"/>
            </g>
            <g transform="matrix(1,0,0,1,300.285,250.752)">
                <circle cx="125.135" cy="224.8" r="35.804"/>
            </g>
            <g transform="matrix(1,0,0,1,-50.8179,-99.8039)">
                <circle cx="125.135" cy="224.8" r="35.804"/>
            </g>
            <g transform="matrix(1,0,0,1,-0.476332,-149.179)">
                <circle cx="125.135" cy="224.8" r="35.804"/>
            </g>
            <g transform="matrix(1,0,0,1,-99.2132,250.788)">
                <circle cx="125.135" cy="224.8" r="35.804"/>
            </g>
            <g transform="matrix(1,0,0,1,299.031,-49.4324)">
                <circle cx="125.135" cy="224.8" r="35.804"/>
            </g>
            <g transform="matrix(1,0,0,1,349.813,-99.8719)">
                <circle cx="125.135" cy="224.8" r="35.804"/>
            </g>
        </g>
        <g transform="matrix(1,0,0,1,-0.132498,499.947)">
            <g transform="matrix(1,0,0,1,199.287,1.01255)">
                <circle cx="125.135" cy="224.8" r="35.804" style="fill:white;"/>
            </g>
            <g transform="matrix(1,0,0,1,-49.5903,149.56)">
                <circle cx="125.135" cy="224.8" r="35.804" style="fill:white;"/>
            </g>
            <g transform="matrix(1,0,0,1,-49.6692,49.3725)">
                <circle cx="125.135" cy="224.8" r="35.804" style="fill:white;"/>
            </g>
            <g transform="matrix(1,0,0,1,199.523,-200.888)">
                <circle cx="125.135" cy="224.8" r="35.804" style="fill:white;"/>
            </g>
            <g transform="matrix(1,0,0,1,152.205,-249.368)">
                <circle cx="125.135" cy="224.8" r="35.804" style="fill:white;"/>
            </g>
            <g transform="matrix(1,0,0,1,199.729,-300.811)">
                <circle cx="125.135" cy="224.8" r="35.804" style="fill:white;"/>
            </g>
            <g transform="matrix(1,0,0,1,250.075,52.2142)">
                <circle cx="125.135" cy="224.8" r="35.804" style="fill:white;"/>
            </g>
            <g transform="matrix(1,0,0,1,99.4909,201.263)">
                <circle cx="125.135" cy="224.8" r="35.804" style="fill:white;"/>
            </g>
            <path d="M0,50L500,50L500,100L0,100L0,50ZM0,150L500,150L500,200L0,200L0,150ZM0,250L500,250L500,300L0,300L0,250ZM0,350L500,350L500,400L0,400L0,350ZM0,450L500,450L500,500L0,500L0,450ZM50,0L50,500L100,500L100,0L50,0ZM150,0L150,500L200,500L200,0L150,0ZM250,0L250,500L300,500L300,0L250,0ZM350,0L350,500L400,500L400,0L350,0ZM450,0L450,500L500,500L500,0L450,0Z" style="fill:white;fill-rule:nonzero;"/>
            <circle cx="125.135" cy="224.8" r="35.804" style="fill:white;"/>
            <g transform="matrix(1,0,0,1,99.891,-99.235)">
                <circle cx="125.135" cy="224.8" r="35.804" style="fill:white;"/>
            </g>
            <g transform="matrix(1,0,0,1,250.298,-99.6515)">
                <circle cx="125.135" cy="224.8" r="35.804"/>
            </g>
            <g transform="matrix(1,0,0,1,150.113,101.892)">
                <circle cx="125.135" cy="224.8" r="35.804"/>
            </g>
            <g transform="matrix(1,0,0,1,101.682,49.495)">
                <circle cx="125.135" cy="224.8" r="35.804"/>
            </g>
            <g transform="matrix(1,0,0,1,300.285,250.752)">
                <circle cx="125.135" cy="224.8" r="35.804"/>
            </g>
            <g transform="matrix(1,0,0,1,-50.8179,-99.8039)">
                <circle cx="125.135" cy="224.8" r="35.804"/>
            </g>
            <g transform="matrix(1,0,0,1,-0.476332,-149.179)">
                <circle cx="125.135" cy="224.8" r="35.804"/>
            </g>
            <g transform="matrix(1,0,0,1,-99.2132,250.788)">
                <circle cx="125.135" cy="224.8" r="35.804"/>
            </g>
            <g transform="matrix(1,0,0,1,299.031,-49.4324)">
                <circle cx="125.135" cy="224.8" r="35.804"/>
            </g>
            <g transform="matrix(1,0,0,1,349.813,-99.8719)">
                <circle cx="125.135" cy="224.8" r="35.804"/>
            </g>
        </g>
        <g transform="matrix(1,0,0,1,500.025,500.13)">
            <g transform="matrix(1,0,0,1,199.287,1.01255)">
                <circle cx="125.135" cy="224.8" r="35.804" style="fill:white;"/>
            </g>
            <g transform="matrix(1,0,0,1,-49.5903,149.56)">
                <circle cx="125.135" cy="224.8" r="35.804" style="fill:white;"/>
            </g>
            <g transform="matrix(1,0,0,1,-49.6692,49.3725)">
                <circle cx="125.135" cy="224.8" r="35.804" style="fill:white;"/>
            </g>
            <g transform="matrix(1,0,0,1,250.075,52.2142)">
                <circle cx="125.135" cy="224.8" r="35.804" style="fill:white;"/>
            </g>
            <g transform="matrix(1,0,0,1,99.4909,201.263)">
                <circle cx="125.135" cy="224.8" r="35.804" style="fill:white;"/>
            </g>
            <path d="M0,50L500,50L500,100L0,100L0,50ZM0,150L500,150L500,200L0,200L0,150ZM0,250L500,250L500,300L0,300L0,250ZM0,350L500,350L500,400L0,400L0,350ZM0,450L500,450L500,500L0,500L0,450ZM50,0L50,500L100,500L100,0L50,0ZM150,0L150,500L200,500L200,0L150,0ZM250,0L250,500L300,500L300,0L250,0ZM350,0L350,500L400,500L400,0L350,0ZM450,0L450,500L500,500L500,0L450,0Z" style="fill:white;fill-rule:nonzero;"/>
            <circle cx="125.135" cy="224.8" r="35.804" style="fill:white;"/>
            <g transform="matrix(1,0,0,1,99.891,-99.235)">
                <circle cx="125.135" cy="224.8" r="35.804" style="fill:white;"/>
            </g>
            <g transform="matrix(1,0,0,1,250.298,-99.6515)">
                <circle cx="125.135" cy="224.8" r="35.804"/>
            </g>
            <g transform="matrix(1,0,0,1,150.113,101.892)">
                <circle cx="125.135" cy="224.8" r="35.804"/>
            </g>
            <g transform="matrix(1,0,0,1,101.682,49.495)">
                <circle cx="125.135" cy="224.8" r="35.804"/>
            </g>
            <g transform="matrix(1,0,0,1,300.285,250.752)">
                <circle cx="125.135" cy="224.8" r="35.804"/>
            </g>
            <g transform="matrix(1,0,0,1,-50.8179,-99.8039)">
                <circle cx="125.135" cy="224.8" r="35.804"/>
            </g>
            <g transform="matrix(1,0,0,1,-0.476332,-149.179)">
                <circle cx="125.135" cy="224.8" r="35.804"/>
            </g>
            <g transform="matrix(1,0,0,1,-99.2132,250.788)">
                <circle cx="125.135" cy="224.8" r="35.804"/>
            </g>
            <g transform="matrix(1,0,0,1,299.031,-49.4324)">
                <circle cx="125.135" cy="224.8" r="35.804"/>
            </g>
            <g transform="matrix(1,0,0,1,349.813,-99.8719)">
                <circle cx="125.135" cy="224.8" r="35.804"/>
            </g>
        </g>
        <g>
            <g transform="matrix(1,0,0,1,400.5,599.946)">
                <circle cx="125.135" cy="224.8" r="35.804" style="fill:white;"/>
            </g>
            <g transform="matrix(1,0,0,1,-49.8017,549.32)">
                <circle cx="125.135" cy="224.8" r="35.804" style="fill:white;"/>
            </g>
            <g transform="matrix(1,0,0,1,498.491,600.347)">
                <circle cx="125.135" cy="224.8" r="35.804" style="fill:white;"/>
            </g>
            <g transform="matrix(1,0,0,1,-49.8017,549.32)">
                <circle cx="125.135" cy="224.8" r="35.804" style="fill:white;"/>
            </g>
            <g transform="matrix(1,0,0,1,650.621,250.602)">
                <circle cx="125.135" cy="224.8" r="35.804" style="fill:white;"/>
            </g>
            <g transform="matrix(1,0,0,1,699.54,199.566)">
                <circle cx="125.135" cy="224.8" r="35.804" style="fill:white;"/>
            </g>
            <g transform="matrix(1,0,0,1,548.786,251.577)">
                <circle cx="125.135" cy="224.8" r="35.804" style="fill:white;"/>
            </g>
            <g transform="matrix(1,0,0,1,-1.08841,201.31)">
                <circle cx="125.135" cy="224.8" r="35.804" style="fill:white;"/>
            </g>
            <g transform="matrix(1,0,0,1,-49.8017,549.32)">
                <circle cx="125.135" cy="224.8" r="35.804" style="fill:white;"/>
            </g>
            <g transform="matrix(1,0,0,1,49.9061,152.364)">
                <circle cx="125.135" cy="224.8" r="35.804" style="fill:white;"/>
            </g>
            <g transform="matrix(1,0,0,1,0.507061,102.06)">
                <circle cx="125.135" cy="224.8" r="35.804" style="fill:white;"/>
            </g>
            <g transform="matrix(1,0,0,1,648.876,-150.949)">
                <circle cx="125.135" cy="224.8" r="35.804" style="fill:white;"/>
            </g>
            <g transform="matrix(1,0,0,1,600.331,-199.909)">
                <circle cx="125.135" cy="224.8" r="35.804" style="fill:white;"/>
            </g>
            <g transform="matrix(1,0,0,1,698.159,-200.381)">
                <circle cx="125.135" cy="224.8" r="35.804" style="fill:white;"/>
            </g>
            <g transform="matrix(1,0,0,1,800.708,-201.528)">
                <circle cx="125.135" cy="224.8" r="35.804" style="fill:white;"/>
            </g>
            <g transform="matrix(1,0,0,1,800.106,602.75)">
                <circle cx="125.135" cy="224.8" r="35.804" style="fill:white;"/>
            </g>
            <g transform="matrix(1,0,0,1,751.365,650.586)">
                <circle cx="125.135" cy="224.8" r="35.804" style="fill:white;"/>
            </g>
            <g transform="matrix(1,0,0,1,700.529,699.822)">
                <circle cx="125.135" cy="224.8" r="35.804" style="fill:white;"/>
            </g>
            <g transform="matrix(1,0,0,1,299.603,353.165)">
                <circle cx="125.135" cy="224.8" r="35.804"/>
            </g>
            <g transform="matrix(1,0,0,1,551.772,98.2717)">
                <circle cx="125.135" cy="224.8" r="35.804"/>
            </g>
            <g transform="matrix(1,0,0,1,500.828,751.978)">
                <circle cx="125.135" cy="224.8" r="35.804"/>
            </g>
            <g transform="matrix(0.83361,0,0,1,107.228,-1)">
                <rect x="650.449" y="850.52" width="363.152" height="151.924"/>
            </g>
        </g>
    </g>
    <g transform="matrix(-1,-1.22298e-16,1.22298e-16,-1,2001.99,1999.55)">
        <g>
            <g transform="matrix(1,0,0,1,199.287,1.01255)">
                <circle cx="125.135" cy="224.8" r="35.804" style="fill:white;"/>
            </g>
            <g transform="matrix(1,0,0,1,-49.5903,149.56)">
                <circle cx="125.135" cy="224.8" r="35.804" style="fill:white;"/>
            </g>
            <g transform="matrix(1,0,0,1,-49.6692,49.3725)">
                <circle cx="125.135" cy="224.8" r="35.804" style="fill:white;"/>
            </g>
            <g transform="matrix(1,0,0,1,-100.623,-200.394)">
                <circle cx="125.135" cy="224.8" r="35.804" style="fill:white;"/>
            </g>
            <g transform="matrix(1,0,0,1,250.075,52.2142)">
                <circle cx="125.135" cy="224.8" r="35.804" style="fill:white;"/>
            </g>
            <g transform="matrix(1,0,0,1,99.4909,201.263)">
                <circle cx="125.135" cy="224.8" r="35.804" style="fill:white;"/>
            </g>
            <path d="M0,50L500,50L500,100L0,100L0,50ZM0,150L500,150L500,200L0,200L0,150ZM0,250L500,250L500,300L0,300L0,250ZM0,350L500,350L500,400L0,400L0,350ZM0,450L500,450L500,500L0,500L0,450ZM50,0L50,500L100,500L100,0L50,0ZM150,0L150,500L200,500L200,0L150,0ZM250,0L250,500L300,500L300,0L250,0ZM350,0L350,500L400,500L400,0L350,0ZM450,0L450,500L500,500L500,0L450,0Z" style="fill:white;fill-rule:nonzero;"/>
            <circle cx="125.135" cy="224.8" r="35.804" style="fill:white;"/>
            <g transform="matrix(1,0,0,1,99.891,-99.235)">
                <circle cx="125.135" cy="224.8" r="35.804" style="fill:white;"/>
            </g>
            <g transform="matrix(1,0,0,1,250.298,-99.6515)">
                <circle cx="125.135" cy="224.8" r="35.804"/>
            </g>
            <g transform="matrix(1,0,0,1,150.113,101.892)">
                <circle cx="125.135" cy="224.8" r="35.804"/>
            </g>
            <g transform="matrix(1,0,0,1,101.682,49.495)">
                <circle cx="125.135" cy="224.8" r="35.804"/>
            </g>
            <g transform="matrix(1,0,0,1,300.285,250.752)">
                <circle cx="125.135" cy="224.8" r="35.804"/>
            </g>
            <g transform="matrix(1,0,0,1,-50.8179,-99.8039)">
                <circle cx="125.135" cy="224.8" r="35.804"/>
            </g>
            <g transform="matrix(1,0,0,1,-0.476332,-149.179)">
                <circle cx="125.135" cy="224.8" r="35.804"/>
            </g>
            <g transform="matrix(1,0,0,1,-99.2132,250.788)">
                <circle cx="125.135" cy="224.8" r="35.804"/>
            </g>
            <g transform="matrix(1,0,0,1,299.031,-49.4324)">
                <circle cx="125.135" cy="224.8" r="35.804"/>
            </g>
            <g transform="matrix(1,0,0,1,349.813,-99.8719)">
                <circle cx="125.135" cy="224.8" r="35.804"/>
            </g>
        </g>
        <g transform="matrix(1,0,0,1,499.962,0.0760956)">
            <g transform="matrix(1,0,0,1,199.287,1.01255)">
                <circle cx="125.135" cy="224.8" r="35.804" style="fill:white;"/>
            </g>
            <g transform="matrix(1,0,0,1,-49.5903,149.56)">
                <circle cx="125.135" cy="224.8" r="35.804" style="fill:white;"/>
            </g>
            <g transform="matrix(1,0,0,1,-49.6692,49.3725)">
                <circle cx="125.135" cy="224.8" r="35.804" style="fill:white;"/>
            </g>
            <g transform="matrix(1,0,0,1,-100.623,-200.394)">
                <circle cx="125.135" cy="224.8" r="35.804" style="fill:white;"/>
            </g>
            <g transform="matrix(1,0,0,1,250.075,52.2142)">
                <circle cx="125.135" cy="224.8" r="35.804" style="fill:white;"/>
            </g>
            <g transform="matrix(1,0,0,1,99.4909,201.263)">
                <circle cx="125.135" cy="224.8" r="35.804" style="fill:white;"/>
            </g>
            <path d="M0,50L500,50L500,100L0,100L0,50ZM0,150L500,150L500,200L0,200L0,150ZM0,250L500,250L500,300L0,300L0,250ZM0,350L500,350L500,400L0,400L0,350ZM0,450L500,450L500,500L0,500L0,450ZM50,0L50,500L100,500L100,0L50,0ZM150,0L150,500L200,500L200,0L150,0ZM250,0L250,500L300,500L300,0L250,0ZM350,0L350,500L400,500L400,0L350,0ZM450,0L450,500L500,500L500,0L450,0Z" style="fill:white;fill-rule:nonzero;"/>
            <circle cx="125.135" cy="224.8" r="35.804" style="fill:white;"/>
            <g transform="matrix(1,0,0,1,99.891,-99.235)">
                <circle cx="125.135" cy="224.8" r="35.804" style="fill:white;"/>
            </g>
            <g transform="matrix(1,0,0,1,250.298,-99.6515)">
                <circle cx="125.135" cy="224.8" r="35.804"/>
            </g>
            <g transform="matrix(1,0,0,1,150.113,101.892)">
                <circle cx="125.135" cy="224.8" r="35.804"/>
            </g>
            <g transform="matrix(1,0,0,1,101.682,49.495)">
                <circle cx="125.135" cy="224.8" r="35.804"/>
            </g>
            <g transform="matrix(1,0,0,1,300.285,250.752)">
                <circle cx="125.135" cy="224.8" r="35.804"/>
            </g>
            <g transform="matrix(1,0,0,1,-50.8179,-99.8039)">
                <circle cx="125.135" cy="224.8" r="35.804"/>
            </g>
            <g transform="matrix(1,0,0,1,-0.476332,-149.179)">
                <circle cx="125.135" cy="224.8" r="35.804"/>
            </g>
            <g transform="matrix(1,0,0,1,-99.2132,250.788)">
                <circle cx="125.135" cy="224.8" r="35.804"/>
            </g>
            <g transform="matrix(1,0,0,1,299.031,-49.4324)">
                <circle cx="125.135" cy="224.8" r="35.804"/>
            </g>
        </g>
        <g transform="matrix(1,0,0,1,-0.132498,499.947)">
            <g transform="matrix(1,0,0,1,199.287,1.01255)">
                <circle cx="125.135" cy="224.8" r="35.804" style="fill:white;"/>
            </g>
            <g transform="matrix(1,0,0,1,-49.5903,149.56)">
                <circle cx="125.135" cy="224.8" r="35.804" style="fill:white;"/>
            </g>
            <g transform="matrix(1,0,0,1,-49.6692,49.3725)">
                <circle cx="125.135" cy="224.8" r="35.804" style="fill:white;"/>
            </g>
            <g transform="matrix(1,0,0,1,199.523,-200.888)">
                <circle cx="125.135" cy="224.8" r="35.804" style="fill:white;"/>
            </g>
            <g transform="matrix(1,0,0,1,152.205,-249.368)">
                <circle cx="125.135" cy="224.8" r="35.804" style="fill:white;"/>
            </g>
            <g transform="matrix(1,0,0,1,199.729,-300.811)">
                <circle cx="125.135" cy="224.8" r="35.804" style="fill:white;"/>
            </g>
            <g transform="matrix(1,0,0,1,250.075,52.2142)">
                <circle cx="125.135" cy="224.8" r="35.804" style="fill:white;"/>
            </g>
            <g transform="matrix(1,0,0,1,99.4909,201.263)">
                <circle cx="125.135" cy="224.8" r="35.804" style="fill:white;"/>
            </g>
            <path d="M0,50L500,50L500,100L0,100L0,50ZM0,150L500,150L500,200L0,200L0,150ZM0,250L500,250L500,300L0,300L0,250ZM0,350L500,350L500,400L0,400L0,350ZM0,450L500,450L500,500L0,500L0,450ZM50,0L50,500L100,500L100,0L50,0ZM150,0L150,500L200,500L200,0L150,0ZM250,0L250,500L300,500L300,0L250,0ZM350,0L350,500L400,500L400,0L350,0ZM450,0L450,500L500,500L500,0L450,0Z" style="fill:white;fill-rule:nonzero;"/>
            <circle cx="125.135" cy="224.8" r="35.804" style="fill:white;"/>
            <g transform="matrix(1,0,0,1,99.891,-99.235)">
                <circle cx="125.135" cy="224.8" r="35.804" style="fill:white;"/>
            </g>
            <g transform="matrix(1,0,0,1,250.298,-99.6515)">
                <circle cx="125.135" cy="224.8" r="35.804"/>
            </g>
            <g transform="matrix(1,0,0,1,150.113,101.892)">
                <circle cx="125.135" cy="224.8" r="35.804"/>
            </g>
            <g transform="matrix(1,0,0,1,101.682,49.495)">
                <circle cx="125.135" cy="224.8" r="35.804"/>
            </g>
            <g transform="matrix(1,0,0,1,-50.8179,-99.8039)">
                <circle cx="125.135" cy="224.8" r="35.804"/>
            </g>
            <g transform="matrix(1,0,0,1,-0.476332,-149.179)">
                <circle cx="125.135" cy="224.8" r="35.804"/>
            </g>
            <g transform="matrix(1,0,0,1,-99.2132,250.788)">
                <circle cx="125.135" cy="224.8" r="35.804"/>
            </g>
            <g transform="matrix(1,0,0,1,299.031,-49.4324)">
                <circle cx="125.135" cy="224.8" r="35.804"/>
            </g>
            <g transform="matrix(1,0,0,1,349.813,-99.8719)">
                <circle cx="125.135" cy="224.8" r="35.804"/>
            </g>
        </g>
        <g transform="matrix(-1,1.22465e-16,-1.22465e-16,-1,1000.89,1011.52)">
            <g transform="matrix(1,0,0,1,199.287,1.01255)">
                <circle cx="125.135" cy="224.8" r="35.804" style="fill:white;"/>
            </g>
            <g transform="matrix(1,0,0,1,-49.5903,149.56)">
                <circle cx="125.135" cy="224.8" r="35.804" style="fill:white;"/>
            </g>
            <g transform="matrix(1,0,0,1,-49.6692,49.3725)">
                <circle cx="125.135" cy="224.8" r="35.804" style="fill:white;"/>
            </g>
            <g transform="matrix(1,0,0,1,250.075,52.2142)">
                <circle cx="125.135" cy="224.8" r="35.804" style="fill:white;"/>
            </g>
            <g transform="matrix(1,0,0,1,99.4909,201.263)">
                <circle cx="125.135" cy="224.8" r="35.804" style="fill:white;"/>
            </g>
            <path d="M0,50L500,50L500,100L0,100L0,50ZM0,150L500,150L500,200L0,200L0,150ZM0,250L500,250L500,300L0,300L0,250ZM0,350L500,350L500,400L0,400L0,350ZM0,450L500,450L500,500L0,500L0,450ZM50,0L50,500L100,500L100,0L50,0ZM150,0L150,500L200,500L200,0L150,0ZM250,0L250,500L300,500L300,0L250,0ZM350,0L350,500L400,500L400,0L350,0ZM450,0L450,500L500,500L500,0L450,0Z" style="fill:white;fill-rule:nonzero;"/>
            <circle cx="125.135" cy="224.8" r="35.804" style="fill:white;"/>
            <g transform="matrix(1,0,0,1,99.891,-99.235)">
                <circle cx="125.135" cy="224.8" r="35.804" style="fill:white;"/>
            </g>
            <g transform="matrix(1,0,0,1,250.298,-99.6515)">
                <circle cx="125.135" cy="224.8" r="35.804"/>
            </g>
            <g transform="matrix(1,0,0,1,150.113,101.892)">
                <circle cx="125.135" cy="224.8" r="35.804"/>
            </g>
            <g transform="matrix(1,0,0,1,101.682,49.495)">
                <circle cx="125.135" cy="224.8" r="35.804"/>
            </g>
            <g transform="matrix(1,0,0,1,300.285,250.752)">
                <circle cx="125.135" cy="224.8" r="35.804"/>
            </g>
            <g transform="matrix(1,0,0,1,-50.8179,-99.8039)">
                <circle cx="125.135" cy="224.8" r="35.804"/>
            </g>
            <g transform="matrix(1,0,0,1,-0.476332,-149.179)">
                <circle cx="125.135" cy="224.8" r="35.804"/>
            </g>
            <g transform="matrix(1,0,0,1,-99.2132,250.788)">
                <circle cx="125.135" cy="224.8" r="35.804"/>
            </g>
            <g transform="matrix(1,0,0,1,299.031,-49.4324)">
                <circle cx="125.135" cy="224.8" r="35.804"/>
            </g>
        </g>
        <g>
            <g transform="matrix(1,0,0,1,-49.8017,549.32)">
                <circle cx="125.135" cy="224.8" r="35.804" style="fill:white;"/>
            </g>
            <g transform="matrix(1,0,0,1,-49.8017,549.32)">
                <circle cx="125.135" cy="224.8" r="35.804" style="fill:white;"/>
            </g>
            <g transform="matrix(1,0,0,1,699.54,199.566)">
                <circle cx="125.135" cy="224.8" r="35.804" style="fill:white;"/>
            </g>
            <g transform="matrix(1,0,0,1,-1.08841,201.31)">
                <circle cx="125.135" cy="224.8" r="35.804" style="fill:white;"/>
            </g>
            <g transform="matrix(1,0,0,1,-49.8017,549.32)">
                <circle cx="125.135" cy="224.8" r="35.804" style="fill:white;"/>
            </g>
            <g transform="matrix(1,0,0,1,49.9061,152.364)">
                <circle cx="125.135" cy="224.8" r="35.804" style="fill:white;"/>
            </g>
            <g transform="matrix(1,0,0,1,0.507061,102.06)">
                <circle cx="125.135" cy="224.8" r="35.804" style="fill:white;"/>
            </g>
            <g transform="matrix(1,0,0,1,648.876,-150.949)">
                <circle cx="125.135" cy="224.8" r="35.804" style="fill:white;"/>
            </g>
            <g transform="matrix(1,0,0,1,600.331,-199.909)">
                <circle cx="125.135" cy="224.8" r="35.804" style="fill:white;"/>
            </g>
            <g transform="matrix(1,0,0,1,698.159,-200.381)">
                <circle cx="125.135" cy="224.8" r="35.804" style="fill:white;"/>
            </g>
            <g transform="matrix(1,0,0,1,800.708,-201.528)">
                <circle cx="125.135" cy="224.8" r="35.804" style="fill:white;"/>
            </g>
            <g transform="matrix(1,0,0,1,800.106,602.75)">
                <circle cx="125.135" cy="224.8" r="35.804" style="fill:white;"/>
            </g>
            <g transform="matrix(1,0,0,1,751.365,650.586)">
                <circle cx="125.135" cy="224.8" r="35.804" style="fill:white;"/>
            </g>
            <g transform="matrix(1,0,0,1,700.529,699.822)">
                <circle cx="125.135" cy="224.8" r="35.804" style="fill:white;"/>
            </g>
            <g transform="matrix(1,0,0,1,299.603,353.165)">
                <circle cx="125.135" cy="224.8" r="35.804"/>
            </g>
            <g transform="matrix(1,0,0,1,551.772,98.2717)">
                <circle cx="125.135" cy="224.8" r="35.804"/>
            </g>
            <g transform="matrix(0.83361,0,0,1,107.228,-1)">
                <rect x="650.449" y="850.52" width="363.152" height="151.924"/>
            </g>
        </g>
    </g>
</svg>
