<?xml version="1.0" encoding="iso-8859-1"?>
<!-- Uploaded to: SVG Repo, www.svgrepo.com, Generator: SVG Repo Mixer Tools -->
<svg version="1.1" id="Layer_1" xmlns="http://www.w3.org/2000/svg" xmlns:xlink="http://www.w3.org/1999/xlink" 
	 viewBox="0 0 512 512" xml:space="preserve">
<rect y="50.093" style="fill:#995C0D;" width="512" height="411.814"/>
<g>
	<polygon style="fill:#B27214;" points="37.653,99.647 10.105,72.099 10.105,439.901 37.653,412.353 	"/>
	<polygon style="fill:#B27214;" points="462.436,87.743 489.982,60.198 22.018,60.198 49.563,87.743 	"/>
	<polygon style="fill:#B27214;" points="474.351,99.655 474.351,412.345 501.895,439.889 501.895,72.111 	"/>
	<polygon style="fill:#B27214;" points="49.561,424.258 22.018,451.802 489.982,451.802 462.438,424.258 	"/>
</g>
<rect x="47.758" y="97.85" style="fill:#E6E6E6;" width="416.485" height="316.299"/>
<polygon style="fill:#333333;" points="286.577,156.811 286.563,156.811 286.563,139.969 "/>
<path style="fill:#B3B3B3;" d="M464.248,97.845v316.31H97.255L256.96,254.451c4.648,4.637,7.714,10.857,8.342,17.796
	c4.828,53.388,24.825,93.393,48.74,93.393c27.531,0,49.863-53.018,49.863-118.42c0-33.189-5.749-63.19-15.012-84.703l63.83-63.83
	v-0.842H464.248z"/>
<path style="fill:#F7B239;" d="M348.893,162.517c9.263,21.513,15.012,51.513,15.012,84.703c0,65.402-22.332,118.42-49.863,118.42
	c-23.915,0-43.912-40.005-48.74-93.393c-0.629-6.939-3.694-13.159-8.342-17.796c-4.637-4.648-10.857-7.714-17.796-8.342
	c-53.388-4.839-93.404-24.825-93.404-48.74c0-27.542,53.018-49.863,118.42-49.863c7.657,0,15.135,0.303,22.388,0.887h0.011
	C310.775,150.346,332.344,155.399,348.893,162.517z"/>
<path style="fill:#E09B2D;" d="M256.96,254.451c4.648,4.637,7.714,10.857,8.342,17.796c4.828,53.388,24.825,93.393,48.74,93.393
	c27.531,0,49.863-53.018,49.863-118.42c0-33.189-5.749-63.19-15.012-84.703L256.96,254.451z"/>
<path style="fill:#E54728;" d="M314.042,374.061c-28.703,0-51.661-40.611-57.127-101.055c-0.431-4.753-2.527-9.226-5.904-12.592
	c-3.382-3.391-7.855-5.487-12.608-5.918c-60.451-5.479-101.066-28.437-101.066-57.126c0-16.926,14.148-32.204,39.837-43.021
	c23.376-9.842,54.275-15.263,87.003-15.263c7.728,0,15.448,0.304,22.95,0.905c0.043,0.002,0.085,0.006,0.127,0.009
	c24.642,1.99,47.105,7.102,64.964,14.783c1.978,0.851,3.555,2.427,4.407,4.406c10.123,23.509,15.697,54.773,15.697,88.033
	c0,32.726-5.422,63.625-15.268,87.004C346.24,359.912,330.964,374.061,314.042,374.061z M264.179,155.926
	c-64.824,0-110,21.84-110,41.442c0,16.015,32.072,35.489,85.744,40.353c8.679,0.787,16.847,4.616,22.997,10.782
	c6.152,6.135,9.982,14.302,10.769,22.982c4.852,53.666,24.328,85.732,40.353,85.732c19.602,0,41.441-45.175,41.441-109.999
	c0-29.545-4.614-57.162-13.032-78.257c-15.664-6.242-35.086-10.435-56.441-12.168c-0.039-0.002-0.079-0.006-0.118-0.009
	C278.801,156.216,271.498,155.926,264.179,155.926z"/>
<path style="fill:#333333;" d="M318.89,306.899c-4.652,0-8.421-3.77-8.421-8.421V265.23c0-29.036-18.658-40.767-19.452-41.252
	c-2.946-1.732-4.523-5.056-4.038-8.439c0.487-3.383,2.998-6.118,6.312-6.951c1.913-0.481,9.483-1.469,38.418-0.247
	c4.647,0.196,8.255,4.122,8.058,8.769c-0.196,4.647-4.179,8.251-8.769,8.058c-6.377-0.269-11.61-0.424-15.89-0.504
	c6.337,8.981,12.201,22.242,12.201,40.566v33.248C327.311,303.129,323.541,306.899,318.89,306.899z"/>
</svg>