<?xml version="1.0" encoding="iso-8859-1"?>
<!-- Uploaded to: SVG Repo, www.svgrepo.com, Generator: SVG Repo Mixer Tools -->
<svg xmlns="http://www.w3.org/2000/svg" xmlns:xlink="http://www.w3.org/1999/xlink" version="1.1" id="Layer_1"  viewBox="0 0 426.439 426.439" xml:space="preserve" width="512" height="512">
<g>
	<path style="fill:#B3B3B3;" d="M268.018,64.459L213.217,9.657l-54.802,54.802l-5.657-5.657l57.63-57.63   c0.75-0.75,1.768-1.171,2.829-1.171s2.078,0.421,2.829,1.171l57.63,57.63L268.018,64.459z"/>
	<path style="fill:#F7B239;" d="M56.92,50.879v375.56h312.6V50.879H56.92z"/>
	<rect x="117.886" y="113.489" style="fill:#FFFFFF;" width="198.667" height="190"/>
	<path style="fill:#87B6DD;" d="M101.1,95.059v287.2h224.24v-287.2H101.1z"/>
	<polygon style="fill:#D69732;" points="369.52,50.879 369.52,55.829 325.34,100.009 325.34,95.059 320.39,95.059 364.57,50.879     "/>
	<polygon style="fill:#D69732;" points="106.05,95.059 101.1,95.059 101.1,100.009 56.92,55.829 56.92,50.879 61.87,50.879  "/>
	<polygon style="fill:#D69732;" points="106.05,382.259 61.87,426.439 56.92,426.439 56.92,421.489 101.1,377.309 101.1,382.259     "/>
	<polygon style="fill:#D69732;" points="369.52,421.489 369.52,426.439 364.57,426.439 320.39,382.259 325.34,382.259    325.34,377.309  "/>
	<path style="fill:#14AF61;" d="M220.88,302.979v79.28h-12v-79.28c1.9,0.57,3.91,0.88,6,0.88   C216.97,303.859,218.98,303.549,220.88,302.979z"/>
	<path style="fill:#14AF61;" d="M214.876,360.04v5.65h-5.65c-29.82,0-54-24.18-54-54v-5.65h5.65   C190.696,306.04,214.876,330.22,214.876,360.04z"/>
	<path style="fill:#0EA053;" d="M220.88,302.979v14.09c-0.18,0.07-0.37,0.12-0.55,0.18c-1.72,0.51-3.55,0.8-5.45,0.8   c-1.9,0-3.73-0.29-5.46-0.8c-0.18-0.05-0.36-0.11-0.54-0.17v-14.1c1.9,0.57,3.91,0.88,6,0.88   C216.97,303.859,218.98,303.549,220.88,302.979z"/>
	<path style="fill:#FFFFFF;" d="M278.463,243.422h-18.103l12.799,12.808c3.684,3.675,5.522,8.497,5.522,13.318   c0,4.821-1.838,9.643-5.522,13.327c-7.359,7.35-19.285,7.35-26.645,0l-12.799-12.808v18.103c0,8.506-5.64,15.701-13.381,18.039   c-1.728,0.519-3.557,0.801-5.458,0.801c-1.901,0-3.73-0.282-5.458-0.801c-7.741-2.338-13.381-9.534-13.381-18.039v-18.103   l-12.799,12.808c-3.675,3.675-8.506,5.513-13.327,5.513c-4.821,0-9.643-1.838-13.318-5.513c-7.359-7.359-7.359-19.294,0-26.645   l12.799-12.808h-18.103c-5.203,0-9.916-2.111-13.318-5.513c-3.411-3.411-5.522-8.123-5.522-13.327   c0-10.398,8.433-18.84,18.84-18.84h18.103l-12.799-12.799c-3.684-3.684-5.522-8.506-5.522-13.327c0-4.821,1.838-9.643,5.522-13.318   c7.35-7.359,19.285-7.359,26.645,0l12.799,12.799v-18.103c0-10.398,8.433-18.84,18.84-18.84s18.84,8.442,18.84,18.84v18.103   l12.799-12.799c3.675-3.675,8.496-5.522,13.318-5.522c4.821,0,9.643,1.846,13.327,5.522c7.359,7.359,7.359,19.285,0,26.645   l-12.799,12.799h18.103c5.203,0,9.916,2.111,13.318,5.522c3.411,3.411,5.522,8.123,5.522,13.318   C297.303,234.989,288.87,243.422,278.463,243.422z"/>
	<path style="fill:#F24125;" d="M214.877,176.444c26.584,0,48.139,21.555,48.139,48.139c0,26.594-21.555,48.148-48.139,48.148   c-26.594,0-48.148-21.555-48.148-48.148C166.729,197.999,188.283,176.444,214.877,176.444z"/>
	<path style="fill:#E5A030;" d="M248.17,224.579c0,18.39-14.91,33.29-33.29,33.29c-2.52,0-4.97-0.28-7.33-0.81   c-14.87-3.34-25.96-16.61-25.96-32.48c0-15.86,11.09-29.13,25.96-32.47c2.36-0.53,4.81-0.81,7.33-0.81   C233.26,191.299,248.17,206.199,248.17,224.579z"/>
	<path style="fill:#F7B239;" d="M233.5,224.579c0,15.87-11.1,29.14-25.95,32.48c-14.87-3.34-25.96-16.61-25.96-32.48   c0-15.86,11.09-29.13,25.96-32.47C222.4,195.449,233.5,208.719,233.5,224.579z"/>
</g>















</svg>