<?xml version="1.0" encoding="UTF-8" standalone="no"?>
<!DOCTYPE svg PUBLIC "-//W3C//DTD SVG 1.1//EN" "http://www.w3.org/Graphics/SVG/1.1/DTD/svg11.dtd">
<svg width="100%" height="100%" viewBox="0 0 462 456" version="1.1" xmlns="http://www.w3.org/2000/svg" xmlns:xlink="http://www.w3.org/1999/xlink" xml:space="preserve" xmlns:serif="http://www.serif.com/" style="fill-rule:evenodd;clip-rule:evenodd;stroke-linecap:round;stroke-linejoin:round;stroke-miterlimit:1.5;">
    <path d="M205.157,157.43C211.251,143.925 228.715,148.403 240.677,153.306C252.638,158.208 254.845,163.014 250.375,168.6C245.905,174.185 237.882,182.273 250.375,191.983C262.868,201.693 263,223.396 250.375,235.902C237.75,248.409 211.57,253.551 197.027,247.52C182.484,241.49 159.8,224.781 159.594,206.66C159.388,188.538 160.345,169.116 174.622,168.6C188.899,168.083 203.282,161.585 205.157,157.43Z" style="fill:none;stroke:white;stroke-width:4px;"/>
    <path d="M292.93,191.983C307.541,187.428 298.972,197.732 303.009,201.47C307.046,205.208 310.78,209.066 303.009,211.161C295.238,213.255 288.91,219.871 284.148,211.161C279.385,202.45 285.26,194.374 292.93,191.983Z" style="fill:none;stroke:white;stroke-width:4px;"/>
    <path d="M275.125,237.259C283.38,230.312 280.26,241.401 284.148,244.522C288.035,247.643 277.784,258.377 275.125,259.16C272.466,259.942 262.996,262.983 266.389,251.668C269.781,240.353 271.829,240.033 275.125,237.259Z" style="fill:none;stroke:white;stroke-width:4px;"/>
    <path d="M221.528,284.996C225.599,279.608 232.601,280.759 243.293,281.862C253.985,282.964 252.333,288.633 254.299,290.186C256.265,291.739 251.856,297.864 243.293,301.142C234.73,304.42 213.179,296.047 221.528,284.996Z" style="fill:none;stroke:white;stroke-width:4px;"/>
    <g transform="matrix(-1,1.22465e-16,-1.22465e-16,-1,451.635,440.194)">
        <path d="M183.142,44.713L182.793,100.369C182.793,100.369 180.503,129.584 173.255,138.911C166.008,148.239 159.358,161.976 150.207,168.106C141.056,174.236 121.651,192.399 123.576,215.771C125.5,239.144 127.422,239.021 134.672,249.751C141.921,260.481 156.566,267.63 162.4,277.362C168.234,287.094 173.857,294.892 176.382,302.896C178.908,310.899 182.804,322.011 182.793,329.581C182.782,337.151 183.142,397.948 183.142,397.948" style="fill:none;stroke:white;stroke-width:4px;"/>
    </g>
    <g transform="matrix(-1,1.22465e-16,-1.22465e-16,-1,451.983,438.803)">
        <path d="M154.433,44.201L154.655,91.525C154.655,91.525 156.166,111.939 148.193,123.822C140.22,135.705 126.979,144.599 115.898,159.727C104.816,174.854 94.645,185.883 95.068,215.209C95.491,244.536 106.633,258.71 115.898,269.027C125.163,279.344 141.408,296.056 144.887,306.296C148.365,316.537 151.795,327.489 151.909,333.852C152.022,340.216 151.909,397.239 151.909,397.239" style="fill:none;stroke:white;stroke-width:4px;"/>
    </g>
    <path d="M183.142,44.713L182.793,100.369C182.793,100.369 180.503,129.584 173.255,138.911C166.008,148.239 159.358,161.976 150.207,168.106C141.056,174.236 121.651,192.399 123.576,215.771C125.5,239.144 127.422,239.021 134.672,249.751C141.921,260.481 156.566,267.63 162.4,277.362C168.234,287.094 173.857,294.892 176.382,302.896C178.908,310.899 182.804,322.011 182.793,329.581C182.782,337.151 183.142,397.948 183.142,397.948" style="fill:none;stroke:white;stroke-width:4px;"/>
    <path d="M154.433,44.201L154.655,91.525C154.655,91.525 156.166,111.939 148.193,123.822C140.22,135.705 126.979,144.599 115.898,159.727C104.816,174.854 94.645,185.883 95.068,215.209C95.491,244.536 106.633,258.71 115.898,269.027C125.163,279.344 141.408,296.056 144.887,306.296C148.365,316.537 151.795,327.489 151.909,333.852C152.022,340.216 151.909,397.239 151.909,397.239" style="fill:none;stroke:white;stroke-width:4px;"/>
</svg>
