<?xml version="1.0" encoding="UTF-8" standalone="no"?>
<!DOCTYPE svg PUBLIC "-//W3C//DTD SVG 1.1//EN" "http://www.w3.org/Graphics/SVG/1.1/DTD/svg11.dtd">
<svg width="100%" height="100%" viewBox="0 0 584 407" version="1.1" xmlns="http://www.w3.org/2000/svg" xmlns:xlink="http://www.w3.org/1999/xlink" xml:space="preserve" xmlns:serif="http://www.serif.com/" style="fill-rule:evenodd;clip-rule:evenodd;stroke-linejoin:round;stroke-miterlimit:2;">
    <g id="Layer-1" serif:id="Layer 1" transform="matrix(1,0,0,1,-2.5845,-235.01)">
        <path id="path4823" d="M271.87,619.19C271.15,618.3 256.27,626.38 246.11,633.17C229.25,644.45 199.82,643.61 190.36,631.58C187.73,628.24 181.43,625.09 173.64,623.22C163.56,620.8 158.55,617.7 147.81,607.26C136.93,596.68 134.2,592.47 132.88,584.24L131.27,574.16L118.32,575.44C111.2,576.15 98.503,577.43 90.109,578.3C80.432,579.29 71.845,578.88 66.647,577.16C58.182,574.37 46.448,565.04 46.448,561.1C46.448,559.87 53.207,558.14 61.468,557.25C69.729,556.37 76.488,554.88 76.488,553.94C76.488,553 68.652,551.64 59.076,550.91C21.918,548.1 2.469,523.69 2.585,480C2.651,455.3 8.187,434.82 22.902,404.83C30.386,389.58 38.334,372.79 40.564,367.53C45.168,356.66 57.439,344.14 77.643,329.71C85.268,324.26 93.949,316.81 96.933,313.14C103.37,305.24 126.56,289.4 141.19,282.93C146.91,280.4 163.54,273.42 178.16,267.42C192.77,261.43 209.87,253.24 216.16,249.22C222.45,245.21 229.72,241.89 232.34,241.85C234.95,241.81 239.1,240.25 241.57,238.39C247.02,234.27 272.36,233.79 280.83,237.66C284.04,239.12 287.24,242.1 287.93,244.29C288.92,247.39 293.11,248.61 307.04,249.88C316.86,250.77 331.13,251.38 338.75,251.23C347.26,251.07 357.79,252.76 366,255.6C375.97,259.05 380.86,259.66 385.21,258.01C397.36,253.39 406.08,255.31 417.39,265.09C430.7,276.62 443.93,283.52 452.7,283.52C462.24,283.52 474.66,292.59 477.3,301.48C478.51,305.58 480.43,308.94 481.57,308.94C488.52,308.94 500.65,317.92 506.46,327.36C510.09,333.25 517.26,341.45 522.39,345.58C531.55,352.94 540.94,367.68 540.94,374.7C540.94,376.66 542.44,378.26 544.28,378.26C551.54,378.26 559.86,389.93 572.27,417.54C582.79,440.95 585.04,448.07 584.11,455.1C583.48,459.87 584.04,467.24 585.34,471.48C588.44,481.58 579.86,521.29 571.93,533.59C564.81,544.62 554.82,549.9 544.64,547.99C542.95,547.67 529.16,542.99 503.29,549.63C477.42,556.26 472.18,552.97 449.96,548.88C415.7,542.58 417.19,553.01 390.5,563.04C384.42,565.32 372.62,570.32 359.27,572.4C343.74,574.83 337.85,566.85 324.55,573.31C311.24,579.76 310.14,581.84 298.46,592.11C290.74,598.9 271.88,619.2 271.87,619.19ZM231.7,636.99C236.36,635.69 242.6,632.61 245.56,630.15L250.95,625.66L241.36,625.58C234.42,625.53 228.63,623.39 220.43,617.87L209.08,610.24L204.96,615.7C202.7,618.7 198.23,622.15 195.03,623.37C189.96,625.3 189.61,626.07 192.35,629.36C199.75,638.28 215.83,641.4 231.7,636.99ZM194.04,620.64C203.01,617.51 205.82,612.63 206.12,599.66C206.36,589.73 206.37,589.72 208.17,597.35C211.78,612.6 227.62,623.19 246.79,623.19C261.28,623.19 271.71,616.47 290.05,595.31C297.58,586.62 308.15,577.17 313.55,574.3L323.36,569.1L314.24,562.39L305.12,555.69L287.27,567.31C277.46,573.71 264.49,581.31 258.46,584.2C246.33,590.01 244.43,594.61 253.26,596.83C256.43,597.62 259.03,599.18 259.03,600.28C259.03,602.91 246.9,598.26 244.77,594.82C242.39,590.96 246.78,586.66 259.83,580.04C278.26,570.7 302.96,553.46 301.43,551C298.43,546.14 277.91,539.09 262.5,537.61L246.32,536.06L260.74,535.73C270.05,535.51 279.26,536.94 286.74,539.79C295.74,543.21 298.32,543.5 298.32,541.1C298.32,532.63 325.45,522.89 334.46,528.13C337.92,530.14 336.28,530.64 326.04,530.71C316.2,530.77 311.78,532.03 306.45,536.3C300.2,541.3 299.84,542.31 302.53,547.33C304.15,550.37 310.68,556.4 317.03,560.73C327.93,568.17 329.71,568.62 348.68,568.75C368.3,568.89 369.44,568.59 395.17,556.51C426.51,541.79 441.48,539.32 459.71,545.88C470.22,549.66 473.1,549.76 490.82,547.01C502.29,545.23 519.49,544.45 532.5,545.13C565.87,546.88 570.77,542.43 580.24,501.79C585.62,478.74 585,472.73 575.46,455.67C571.91,449.31 568.28,440.18 567.41,435.37C566.53,430.56 563.83,424.32 561.39,421.5C556.98,416.39 556.98,416.4 558.13,430.25C559.21,443.12 559.12,443.45 556.92,434.87C555.61,429.79 554.04,423.2 553.42,420.23C550.86,407.83 531.7,397.41 531.7,408.42C531.7,411.09 524.89,420.42 516.09,429.79C507.5,438.94 498.78,449.02 496.7,452.2C494.62,455.38 492.3,457.38 491.54,456.66C490.78,455.93 498.51,446.07 508.71,434.74C518.91,423.41 527.86,411.74 528.6,408.81C531.38,397.71 524.45,387.22 505.06,373.21C485.21,358.87 481.78,357.57 480.14,363.82C479.49,366.32 478.99,365.46 478.82,361.55C478.61,356.65 476.51,354.2 469.4,350.58C464.37,348.01 458.15,345.91 455.59,345.91C451.58,345.91 451.24,346.71 453.13,351.69C454.34,354.86 454.52,357.46 453.54,357.46C452.56,357.46 450.44,353.82 448.83,349.38C442.93,333.06 426.19,325.82 391.55,324.6C374.48,324 372.9,324.31 374.79,327.84C375.94,329.99 376.83,333.11 376.76,334.78C376.7,336.45 375.11,334.18 373.23,329.73C368.8,319.24 353.48,308.34 342.72,308.02C335.66,307.82 333.5,309.12 327.39,317.32C323.47,322.57 317.44,331.92 313.99,338.12C310.54,344.31 303.84,355.43 299.1,362.82C290.97,375.53 290.66,376.68 293.56,383.62C295.25,387.66 296.94,395.13 297.33,400.21L298.03,409.45L296.35,400.15C295.43,395.03 292.95,388.37 290.83,385.35C287.42,380.48 287.36,379 290.28,372C292.09,367.67 295.81,360.99 298.54,357.15C302.32,351.84 302.86,349.53 300.81,347.48C298.77,345.44 297.6,345.62 295.94,348.24C294.06,351.21 293.76,351.16 293.73,347.89C293.69,343.54 299.8,340.38 301.84,343.7C304.56,348.09 307.58,345.71 313.07,334.88C319.38,322.44 318.24,318.76 306.18,312.47C302.06,310.32 300.96,308.96 303.34,308.95C305.46,308.94 310.24,311.49 313.95,314.62L320.7,320.29L325.49,313.81C328.12,310.25 334.27,305.5 339.14,303.25C347.11,299.57 355.9,291.57 356.03,287.88C356.06,287.11 353.61,286.94 350.58,287.52C347.55,288.1 342.23,287.08 338.74,285.26C332.63,282.05 332.85,281.97 344.82,282.83C351.65,283.32 358.28,282.9 359.56,281.89C363.16,279.05 375.14,262.52 374.23,261.65C372.09,259.63 347.53,253.48 341.61,253.48C332.22,253.48 334.66,258.72 345.28,261.4C349.95,262.57 353.77,264.39 353.77,265.44C353.77,268.32 352.41,267.94 334.52,259.98C323.86,255.25 313.01,252.29 304.09,251.68L290.23,250.74L286.39,260.78C284.28,266.29 278.61,280.17 273.79,291.61C265.56,311.14 264.99,314.04 264.4,339.41C263.86,363 262.75,369.6 255.63,391.62C251.15,405.48 247.48,421.24 247.48,426.63L247.48,436.44L254.39,430.63C258.36,427.29 266.95,423.65 274.6,422.08C281.93,420.57 294.16,417.8 301.78,415.93C309.41,414.05 322.37,411.64 330.58,410.57C351,407.91 354.5,402.51 346.48,386.1C345.18,383.42 340.3,379.03 335.65,376.33C331,373.64 328.35,371.41 329.77,371.38C331.18,371.35 336.15,373.92 340.82,377.09C347.8,381.82 349.54,382.24 350.62,379.43C352.17,375.39 350.68,358.27 348.2,351.69C346.47,347.08 346.47,347.08 350.2,351.66C353.27,355.44 353.79,360.89 353.11,382.28C352.32,407.01 352.51,408.3 356.89,408.3C359.42,408.3 363.25,409.89 365.4,411.83C368.47,414.61 370.67,414.84 375.72,412.92C379.25,411.58 382.66,411 383.3,411.63C383.93,412.27 381.45,413.93 377.79,415.32C374.12,416.72 367.74,420.44 363.6,423.59C357.22,428.46 356.09,430.79 356.09,439.03C356.1,444.45 358.02,451.88 360.44,455.86C364.4,462.35 365.58,462.86 373.72,461.62C378.64,460.87 386.89,458 392.06,455.24C408.21,446.62 429.91,418.94 434.83,400.7C437.71,390 444.39,382.85 451.4,382.97C455.9,383.05 455.64,383.48 449.5,386.15C443.89,388.59 441.35,392.13 437.38,403.04C430.69,421.39 411.53,446.34 397.39,455.13C389.8,459.85 386.1,463.72 386.05,466.99C385.99,471.4 385.77,471.47 383.63,467.8C379.95,461.49 374.12,462.92 357.22,474.25C348.62,480.02 337.04,485.95 331.5,487.44C320.77,490.31 320,491.44 323.91,498.75C326.44,503.47 353.18,517.54 356.15,515.7C357.04,515.15 359.02,508.34 360.55,500.56C362.08,492.78 363.86,486.93 364.49,487.57C365.13,488.2 364.38,495.15 362.84,503.01L360.03,517.29L367.34,524.61C374.21,531.47 375.69,531.92 391.37,531.92C410.04,531.92 424.83,526.15 428.84,517.31C430.1,514.54 431.94,512.28 432.94,512.28C433.95,512.28 433.23,515.25 431.35,518.88C425.45,530.3 394.19,540.72 381.01,535.66C376.96,534.11 374.24,534.05 373.34,535.51C369.83,541.18 353.49,546.93 341.73,546.62L329.51,546.31L343.37,544.71C351,543.83 359.32,541.93 361.86,540.48C373.26,533.99 373.28,533.93 365.06,526.46C360.76,522.55 356.2,519.31 354.93,519.26C350.22,519.07 328.59,507.89 323.93,503.23C321.28,500.58 319.11,495.82 319.11,492.64C319.11,484.57 315.18,485.41 313.32,493.88C311.06,504.17 290.12,530.4 283.93,530.69C283.02,530.73 286.71,526.32 292.14,520.88C302.7,510.33 312.18,493.3 312.18,484.9C312.18,477.78 305.99,463.68 300.11,457.43C297.41,454.56 296.26,452.2 297.55,452.2C301.62,452.2 307.65,460.5 312.06,472.16C315.95,482.45 317.01,483.46 324.64,484.11C330.58,484.62 337,482.68 347.08,477.3C354.85,473.17 361.69,468.5 362.29,466.93C362.9,465.36 361.28,461.14 358.71,457.56C356.13,453.98 353.35,447.26 352.53,442.62C351.21,435.18 352.01,433.13 359.35,425C365.74,417.93 366.99,415.26 364.76,413.42C357.47,407.42 273.8,421.63 257.55,431.63C250.42,436.02 242.86,448.23 242.86,455.36C242.86,469.31 260.21,484.55 276.1,484.55C280.78,484.55 284.45,485.7 284.45,487.17C284.45,488.97 281.39,489.26 274.63,488.1C269.23,487.17 261.7,486.25 257.9,486.06C251.55,485.73 250.99,486.32 250.97,493.4C250.94,503.03 245.7,507.12 230.85,509.09C222.34,510.22 218.27,512.21 213.92,517.38C207.51,525.01 206.86,528.51 211.09,532.7C212.68,534.28 216.57,540.99 219.75,547.61C224.72,557.97 226.65,559.85 233.62,561.08C240.66,562.32 240.88,562.55 235.35,562.81C230.97,563.02 228.98,564.37 228.96,567.16C228.94,569.38 227.84,572.76 226.51,574.67C224.7,577.26 224.45,576.3 225.52,570.85C226.38,566.48 225.92,562.92 224.39,561.97C222.97,561.09 219.23,554.53 216.07,547.38C207.46,527.91 202.42,526.37 186.25,538.28C171.72,548.96 168.02,557.77 169.56,577.96C170.31,587.71 170.03,592.44 168.87,589.69C165.69,582.12 166.34,558.77 169.92,551.85C174.24,543.51 192.65,528.45 198.54,528.45C202.63,528.45 214.29,513.71 213.36,509.71C213.18,508.93 219.38,507.63 227.13,506.82C243.84,505.07 247.47,502.6 247.52,492.93C247.53,488.96 248.46,484.28 249.56,482.53C250.89,480.44 249.7,476.59 246.06,471.23C243.03,466.77 240.55,460.14 240.55,456.5C240.55,445.05 231.56,447.73 218.16,463.18C205.06,478.28 201.27,484.56 201.27,491.2C201.27,493.75 200.07,496.57 198.62,497.47C196,499.09 196.8,492.85 200.42,483.41C201.88,479.63 160.11,512 152.25,520.75C148.16,525.31 142.01,538.58 138.68,550.04C137.11,555.44 137.79,557.62 142.58,562.41C145.78,565.61 147.98,568.64 147.48,569.15C146.97,569.66 144.66,567.99 142.36,565.44C140.05,562.89 137.28,560.8 136.21,560.8C133.5,560.8 133.78,578.65 136.65,588.98C139.55,599.41 155.99,614.56 169.67,619.41C181.7,623.67 184.88,623.83 194.04,620.64ZM226.68,599.75C222.24,595.86 213.63,589.56 207.56,585.74C197.21,579.25 189.71,569.54 189.72,562.65C189.72,561 191.54,563.28 193.76,567.71C196.12,572.42 203.08,579.28 210.51,584.21C221.32,591.39 238.93,607.22 235.78,606.93C235.23,606.87 231.13,603.65 226.68,599.75ZM537.92,530.74C545.47,527.7 550.62,518.51 549.09,510.79C547.85,504.56 547.93,504.48 550.49,509.39C553.86,515.85 559.33,516.02 565.92,509.88C570.31,505.79 570.98,502.72 570.98,486.77C570.98,471.17 570.24,467.64 566.13,463.53C561.41,458.81 557.66,458.61 546.72,462.49C542.16,464.11 542.16,464.08 546.58,460.48C552.76,455.44 563.12,455.9 568.67,461.44C572.53,465.3 573.29,469.15 573.29,484.7C573.29,506.02 571.47,510.71 561.12,516.07C557.04,518.17 550.94,522.86 547.55,526.49C544.17,530.11 539.47,533.01 537.13,532.93C533.5,532.81 533.62,532.47 537.92,530.74ZM501.78,519.51C500.27,515.86 496.37,511.67 493.12,510.18C489.86,508.7 487.82,506.86 488.58,506.1C489.34,505.34 492.43,506.34 495.45,508.32C500.45,511.6 501.47,511.57 506.91,508C513.23,503.86 520.89,494.94 523.08,489.17C524,486.76 524.46,487.2 524.58,490.61C524.69,493.61 520.72,499.24 514.34,505.12C505.77,513.02 504.17,515.75 505.35,520.44C507.3,528.2 505.15,527.65 501.78,519.51ZM384.16,513.8C383.88,506.71 384.74,504.67 388.41,503.71C391.97,502.78 392.74,501.13 391.83,496.42C390.68,490.49 390.72,490.46 393.36,495.53C395.77,500.14 397.8,500.71 411.32,500.62C419.7,500.57 430.68,499.06 435.71,497.26C445.97,493.61 449.28,494.29 441.5,498.46C438.69,499.96 425.95,502.1 413.17,503.21C400.4,504.31 389.16,506.03 388.21,507.02C387.26,508.01 386.03,511.93 385.49,515.75C384.62,521.85 384.46,521.62 384.16,513.8ZM468.77,489.4C469.48,482 468.87,477.62 466.99,476.46C465.42,475.49 453.43,474.58 440.34,474.43C418.43,474.17 411.03,472.74 414.39,469.38C415.11,468.66 420.18,469.28 425.65,470.75C431.65,472.37 441.28,472.83 449.9,471.9L464.19,470.37L469.2,448.71C473.44,430.34 475.94,424.69 485.62,411.58C491.9,403.07 497,397.03 496.96,398.16C496.92,399.29 495.36,402.23 493.5,404.7C491.63,407.16 489.98,412.36 489.84,416.25C489.69,420.14 489.09,421.5 488.51,419.27C485.6,408.12 477.76,422.31 471.63,449.83C469,461.64 467.4,471.86 468.08,472.54C468.76,473.21 469.31,472.49 469.31,470.93C469.31,468.82 475.57,468.25 493.52,468.72C514.97,469.29 518.45,468.82 524.13,464.58C528.74,461.15 530.91,457.09 531.86,450.14C532.59,444.83 535.05,438.7 537.33,436.52C541.3,432.74 541.35,432.82 538.45,438.34C536.78,441.51 534.84,448.16 534.14,453.11C533.24,459.41 530.88,463.58 526.31,466.98C520.47,471.32 517.2,471.77 495.69,471.13C477.13,470.59 471.57,471.12 471.41,473.44C471.3,475.11 471.37,481.3 471.57,487.21C471.77,493.11 470.98,498.54 469.81,499.26C468.58,500.02 468.14,495.88 468.77,489.4ZM558.01,486.2C558.37,478.85 560.03,471.57 561.7,470.03C564.15,467.76 564.4,468.1 562.99,471.84C562.04,474.38 560.38,481.66 559.31,488.02L557.36,499.57L558.01,486.2ZM399.09,393.21C403.92,385.83 402.3,368.74 395.49,355.4C389.86,344.36 389.49,338.27 394.21,334.35C398.13,331.1 398.68,332.79 395.58,338.58C394.13,341.29 395.16,346.39 398.95,355.18C401.96,362.15 404.46,372.23 404.52,377.57C404.61,387.61 400.74,399.05 397.25,399.05C396.16,399.05 396.98,396.42 399.09,393.21ZM497.04,389.81C497.04,387.27 497.98,385.19 499.13,385.19C500.28,385.19 500.68,387.27 500.02,389.81C499.35,392.35 498.41,394.43 497.92,394.43C497.44,394.43 497.04,392.35 497.04,389.81ZM515.69,547.38C514.49,546.98 506.4,549.25 501.42,549.25C499.88,549.25 516.89,547.78 515.69,547.38ZM116.35,573.26C127.22,572.19 131.94,570.77 131.94,568.58C131.94,566.56 129.23,565.43 124.39,565.43C120.23,565.43 109.34,563.35 100.18,560.81C85.455,556.73 81.497,556.5 66.05,558.79C48.781,561.36 48.624,561.45 52.711,566.04C62.629,577.17 69.161,577.91 116.35,573.26ZM131.48,560.34C135.7,556.13 134.8,551.56 129.75,551.56C117.35,551.56 100.56,545.95 94.326,539.72C89.014,534.4 85.64,533.08 77.465,533.08C66.575,533.08 65.744,534.19 69.868,543.24C72.899,549.89 73.766,550.32 98.439,557.31C120.09,563.45 127.68,564.15 131.48,560.34ZM66.198,541.74C63.235,534.64 62.159,534.11 46.479,531.92C29.402,529.54 23.341,525.51 23.341,516.54C23.341,514.29 20.222,507.52 16.409,501.51C12.596,495.5 9.523,488.44 9.578,485.83C9.642,482.85 10.833,484.32 12.78,489.77C14.485,494.55 17.264,500.27 18.957,502.48C20.649,504.69 22.187,506.8 22.374,507.15C22.562,507.51 25.844,506.01 29.668,503.81C35.963,500.2 36.754,498.41 38.011,484.94C38.776,476.76 38.846,469.16 38.167,468.06C36.447,465.28 25.652,465.55 25.652,468.38C25.652,469.65 24.485,470.69 23.058,470.69C21.266,470.69 21.354,469.62 23.341,467.22C24.923,465.31 28.599,463.75 31.508,463.75C35.948,463.75 37.05,462.18 38.355,453.93C41.922,431.42 51.767,419.85 67.354,419.85C73.352,419.85 74.177,419.04 74.177,413.11C74.177,404.91 76.238,399.05 79.127,399.05C80.361,399.05 80.256,400.95 78.88,403.52C73.917,412.8 76.211,426.85 85.96,446.9C91.17,457.61 95.008,466.8 94.489,467.32C93.041,468.77 74.177,430.42 74.177,426.03C74.177,421.12 64.887,420.87 55.863,425.54C43.621,431.87 37.207,463.47 45.293,477.62C49.584,485.13 49.577,489.29 45.283,483.62C42.224,479.58 41.832,479.54 40.446,483.15C37.568,490.65 41.289,505.86 47.514,512.05L53.547,518.06L103.72,517.45L153.89,516.84L162.78,507.95C171.65,499.08 171.66,499.03 167.95,491.84C162.53,481.37 152.13,476.78 133.66,476.72C122.91,476.68 119.23,476 121.85,474.54C127.4,471.43 151.94,474.25 158.88,478.8C164.53,482.5 165.08,482.48 169.07,478.43C173,474.44 173.06,473.11 169.96,458.45C168.13,449.81 166.22,438.37 165.72,433.03C165.23,427.69 164.01,421.24 163.03,418.7C162.05,416.15 162.1,414.85 163.14,415.79C164.17,416.73 166.35,416.4 167.98,415.05C170.33,413.1 170.67,415.09 169.65,424.91C168.41,437.02 173.96,471.94 178.49,480.51C179.72,482.84 183.29,484.56 186.91,484.56C191.74,484.57 197.28,480.29 211.09,465.87C231.48,444.58 232.5,440.96 223.4,422.09C218.93,412.84 218.22,409.03 219.86,403.3C222.39,394.47 228.47,387.45 233.4,387.66C236.02,387.77 235.63,388.52 232.05,390.25C223.3,394.48 220.89,404.27 225.49,416.95C227.68,423 229.98,431.74 230.61,436.39C231.44,442.52 233.1,445.2 236.64,446.13C243.25,447.85 244.93,444.31 244.86,428.8C244.82,419.9 247.47,407.41 253.07,390.07C260.29,367.75 261.34,361.55 261.34,341.54C261.34,316.3 264.2,304.85 278.42,273.12C282.98,262.95 286.72,252.35 286.73,249.57C286.78,241.59 278.29,237.3 262.56,237.34C243.18,237.39 240.47,239.57 248.26,248.83C251.64,252.85 254.41,256.86 254.41,257.74C254.41,260.27 245.06,277.03 241.85,280.24C240.25,281.84 238.32,291.19 237.58,301C235.77,324.99 227.38,341.28 203.03,368.1C174.15,399.91 175.42,397.95 180.57,402.61C182.96,404.77 186.12,410.32 187.59,414.93C189.07,419.54 192.29,426.96 194.75,431.4L199.22,439.49L194.16,433.33C191.38,429.94 186.89,421.63 184.19,414.85C179.85,403.94 178.15,402.13 169.42,399.11C155.74,394.37 152.44,397.06 148.99,415.74C144.4,440.61 138.82,448.43 119.84,456.57C104.04,463.34 94.953,480.58 101.63,491.12C102.76,492.9 110.82,495.04 120.66,496.17L137.72,498.13L120.39,497.42C99.94,496.59 78.408,489.57 69.155,480.7C65.589,477.29 63.192,473.97 63.827,473.33C64.462,472.7 67.846,474.92 71.345,478.28C74.845,481.63 82.113,485.93 87.496,487.83L97.284,491.28L97.293,482.72C97.304,471.27 104.78,459.63 114.8,455.44L122.97,452.03L112.59,440.48C102.81,429.6 95.208,414.22 98.155,411.28C98.887,410.55 100.11,411.92 100.88,414.32C104.44,425.45 106.7,429.09 110.02,429.09C116.21,429.09 124.58,422.15 130.47,412.14C133.58,406.85 139.03,399.92 142.57,396.74L149.02,390.97L142.05,400.21C138.22,405.29 132.78,413.28 129.96,417.97C127.13,422.65 121.75,427.84 117.99,429.51C114.23,431.17 111.15,433.3 111.15,434.24C111.15,435.18 114.21,439.35 117.95,443.5C123.57,449.74 125.47,450.61 128.92,448.52C135.51,444.53 143.27,431.67 144.64,422.48C145.33,417.86 147.17,409.92 148.74,404.83C151.09,397.21 152.74,395.46 158.2,394.83L164.81,394.08L163.44,378.66C159.36,332.93 159.22,321.58 162.6,311.92C165.01,305.02 165.25,301.92 163.41,301.26C161.99,300.75 161.63,299.47 162.6,298.43C163.57,297.39 165.48,297.64 166.83,298.99C168.57,300.73 168.22,304.61 165.64,312.21C160.99,325.89 161.01,333.66 165.8,368.44C169.91,398.3 171.83,401.45 179.7,391.26C182.03,388.25 191.99,376.69 201.83,365.59C224.68,339.79 232.83,323.16 234.4,299.12C235.77,278.13 240.39,279.85 195.03,284.45C160.12,287.98 154.15,290.62 143.73,307.04C137.54,316.8 128.7,324.4 83.75,358.62C66.214,371.96 59.219,381.27 57.19,393.96C55.493,404.58 48.739,413.93 39.21,418.85C35.453,420.8 30.35,425.72 27.869,429.78C25.012,434.47 23.355,435.75 23.35,433.28C23.345,431.14 26.569,426.46 30.513,422.88C51.544,403.83 53.057,401.96 54.609,393.11C57.072,379.07 64.323,369.99 86.886,352.7C98.324,343.94 112.88,332.74 119.23,327.81C125.59,322.88 135.54,312.71 141.34,305.22C156.04,286.27 162.36,283.8 203.17,280.97C236.47,278.66 237.2,278.5 243.44,271.79C261.49,252.39 238.26,237.84 213.9,253.29C208.05,257 190.08,265.34 173.96,271.83C157.84,278.32 140.8,285.94 136.08,288.77C131.37,291.6 121.78,297.29 114.77,301.41C107.77,305.53 100.22,311.67 98.012,315.04C95.801,318.42 84.48,328.2 72.856,336.79C51.659,352.44 43.631,361.88 40.515,374.79C39.595,378.61 36.917,384.48 34.565,387.85C29.349,395.32 17.53,421.08 11.408,438.34C4.813,456.92 3.352,486.76 8.128,505.35C15.665,534.69 31.982,548.22 60.78,549.01L69.332,549.25L66.198,541.74L66.198,541.74ZM208.198,404.64C204.598,402.64 203.778,401.42 206.018,401.4C207.998,401.38 211.638,402.89 214.108,404.76C219.718,409 215.918,408.92 208.198,404.64ZM114.778,373.97C112.778,370.1 111.248,364.02 111.378,360.47L111.618,354L113.288,360.93C114.208,364.74 116.268,370.29 117.868,373.26C119.458,376.23 120.238,379.18 119.588,379.83C118.948,380.47 116.778,377.83 114.778,373.97ZM193.518,355.99C191.088,343.17 194.998,329.13 205.198,314.07C209.748,307.37 213.948,302.36 214.528,302.95C215.118,303.53 213.018,307.46 209.878,311.67C200.098,324.77 198.098,330.33 196.688,348.22C195.398,364.75 195.248,365.11 193.518,355.99ZM137.568,542.61C139.458,538.96 140.348,535.32 139.548,534.52C138.758,533.73 127.748,533.08 115.098,533.08C94.554,533.08 92.413,533.46 95.076,536.67C99.476,541.97 106.518,545.34 116.918,547.1C132.648,549.77 134.018,549.48 137.568,542.61ZM146.138,525.53C149.418,519.4 143.768,518.31 120.818,520.64C109.778,521.76 91.197,522.48 79.522,522.24C55.993,521.75 45.621,518.07 41.354,508.7C38.21,501.8 36.285,501.64 30.153,507.78C26.852,511.08 25.886,514.06 26.97,517.6C30.687,529.73 32.843,530.09 100.398,529.8C139.538,529.63 144.168,529.2 146.138,525.53ZM184.918,487.27C183.108,486.71 179.818,484.69 177.618,482.78C174.478,480.04 172.908,479.88 170.298,482.05C167.408,484.45 167.478,485.69 170.758,491.41L174.548,498.01L181.378,493.15C186.158,489.74 187.218,487.98 184.918,487.27ZM581.508,448.63C580.278,442.08 573.988,427.22 557.948,393.02C556.098,389.07 551.958,384.64 548.748,383.18C543.368,380.72 543.038,380.9 544.488,385.45C545.448,388.46 545.168,389.84 543.778,388.99C542.528,388.21 540.258,382.62 538.738,376.56C533.138,354.28 519.138,341.26 497.038,337.78C491.318,336.88 485.078,335.18 483.168,333.99C479.738,331.87 483.868,332.25 501.828,335.73L508.938,337.11L505.328,330.14C499.188,318.26 488.748,312.61 471.088,311.61C453.708,310.63 449.488,306.63 465.838,306.63C471.558,306.63 476.238,305.67 476.238,304.49C476.238,298.91 463.878,288.21 455.878,286.87C439.388,284.11 432.708,280.91 419.738,269.56C410.338,261.33 404.718,258.1 399.778,258.1C389.728,258.1 378.428,263.51 372.648,271.1C369.858,274.75 362.978,283.62 357.368,290.8L347.158,303.86L361.438,312.69C374.998,321.08 376.948,321.6 399.988,322.85C425.838,324.27 438.318,328.33 445.708,337.72C448.038,340.68 453.498,343.43 458.758,344.28C477.538,347.33 527.668,383.32 530.858,396.04C531.758,399.6 533.898,401.37 537.328,401.37C545.698,401.37 565.928,421.18 568.908,432.29C573.018,447.62 578.388,459.11 580.748,457.65C581.958,456.9 582.298,452.85 581.508,448.63ZM403.818,288C392.588,287 382.708,285.46 381.868,284.58C379.148,281.72 423.018,284.83 425.888,287.7C427.398,289.21 427.648,290.31 426.438,290.13C425.238,289.95 415.058,288.99 403.818,288Z" style="fill:white;fill-rule:nonzero;"/>
    </g>
</svg>
