<?xml version="1.0" encoding="UTF-8" standalone="no"?>
<!DOCTYPE svg PUBLIC "-//W3C//DTD SVG 1.1//EN" "http://www.w3.org/Graphics/SVG/1.1/DTD/svg11.dtd">
<svg width="100%" height="100%" viewBox="0 0 392 305" version="1.1" xmlns="http://www.w3.org/2000/svg" xmlns:xlink="http://www.w3.org/1999/xlink" xml:space="preserve" xmlns:serif="http://www.serif.com/" style="fill-rule:evenodd;clip-rule:evenodd;stroke-miterlimit:10;">
    <g id="dots">
        <g id="Trained-NN" serif:id="Trained NN">
            <g transform="matrix(0,-1,-1,0,393.303,558.643)">
                <ellipse cx="329.208" cy="12.793" rx="0.797" ry="0.797" style="fill:white;stroke:black;stroke-width:0.4px;"/>
            </g>
            <g transform="matrix(0,-1,-1,0,396.837,555.11)">
                <ellipse cx="329.208" cy="16.326" rx="0.797" ry="0.797" style="fill:white;stroke:black;stroke-width:0.4px;"/>
            </g>
            <g transform="matrix(0,-1,-1,0,395.455,556.491)">
                <ellipse cx="329.208" cy="14.945" rx="0.797" ry="0.797" style="fill:white;stroke:black;stroke-width:0.4px;"/>
            </g>
            <g transform="matrix(0,-1,-1,0,393.969,557.977)">
                <ellipse cx="329.208" cy="13.459" rx="0.797" ry="0.797" style="fill:white;stroke:black;stroke-width:0.4px;"/>
            </g>
            <g transform="matrix(0,-1,-1,0,395.723,556.224)">
                <ellipse cx="329.208" cy="15.213" rx="0.797" ry="0.797" style="fill:white;stroke:black;stroke-width:0.4px;"/>
            </g>
            <g transform="matrix(0,-1,-1,0,393.195,558.752)">
                <ellipse cx="329.208" cy="12.685" rx="0.797" ry="0.797" style="fill:white;stroke:black;stroke-width:0.4px;"/>
            </g>
            <g transform="matrix(0,-1,-1,0,394.011,557.936)">
                <ellipse cx="329.208" cy="13.501" rx="0.797" ry="0.797" style="fill:white;stroke:black;stroke-width:0.4px;"/>
            </g>
            <g transform="matrix(0,-1,-1,0,394.525,557.421)">
                <ellipse cx="329.208" cy="14.015" rx="0.797" ry="0.797" style="fill:white;stroke:black;stroke-width:0.4px;"/>
            </g>
            <g transform="matrix(0,-1,-1,0,394.43,557.516)">
                <circle cx="329.208" cy="13.92" r="0.797" style="fill:white;stroke:black;stroke-width:0.4px;"/>
            </g>
            <g transform="matrix(0,-1,-1,0,394.06,557.886)">
                <ellipse cx="329.208" cy="13.55" rx="0.797" ry="0.797" style="fill:white;stroke:black;stroke-width:0.4px;"/>
            </g>
            <g transform="matrix(0,-1,-1,0,389.945,562.001)">
                <ellipse cx="329.208" cy="9.435" rx="0.797" ry="0.797" style="fill:white;stroke:black;stroke-width:0.4px;"/>
            </g>
            <g transform="matrix(0,-1,-1,0,391.351,560.595)">
                <ellipse cx="329.208" cy="10.841" rx="0.797" ry="0.797" style="fill:white;stroke:black;stroke-width:0.4px;"/>
            </g>
            <g transform="matrix(0,-1,-1,0,393.734,558.212)">
                <ellipse cx="329.208" cy="13.224" rx="0.797" ry="0.797" style="fill:white;stroke:black;stroke-width:0.4px;"/>
            </g>
            <g transform="matrix(0,-1,-1,0,395.02,556.926)">
                <ellipse cx="329.208" cy="14.51" rx="0.797" ry="0.797" style="fill:white;stroke:black;stroke-width:0.4px;"/>
            </g>
            <g transform="matrix(0,-1,-1,0,397.711,554.235)">
                <ellipse cx="329.208" cy="17.201" rx="0.797" ry="0.797" style="fill:white;stroke:black;stroke-width:0.4px;"/>
            </g>
            <g transform="matrix(0,-1,-1,0,398.979,552.967)">
                <ellipse cx="329.208" cy="18.469" rx="0.797" ry="0.797" style="fill:white;stroke:black;stroke-width:0.4px;"/>
            </g>
            <g transform="matrix(0,-1,-1,0,413.307,538.639)">
                <ellipse cx="329.208" cy="32.797" rx="0.797" ry="0.797" style="fill:white;stroke:black;stroke-width:0.4px;"/>
            </g>
            <g transform="matrix(0,-1,-1,0,468.364,483.582)">
                <ellipse cx="329.208" cy="87.854" rx="0.797" ry="0.797" style="fill:white;stroke:black;stroke-width:0.4px;"/>
            </g>
            <g transform="matrix(0,-1,-1,0,396.398,555.548)">
                <circle cx="329.208" cy="15.888" r="0.797" style="fill:white;stroke:black;stroke-width:0.4px;"/>
            </g>
            <g transform="matrix(0,-1,-1,0,393.961,557.985)">
                <ellipse cx="329.208" cy="13.451" rx="0.797" ry="0.797" style="fill:white;stroke:black;stroke-width:0.4px;"/>
            </g>
            <g transform="matrix(0,-1,-1,0,393.811,558.135)">
                <ellipse cx="329.208" cy="13.301" rx="0.797" ry="0.797" style="fill:white;stroke:black;stroke-width:0.4px;"/>
            </g>
            <g transform="matrix(0,-1,-1,0,393.777,558.17)">
                <circle cx="329.208" cy="13.266" r="0.797" style="fill:white;stroke:black;stroke-width:0.4px;"/>
            </g>
            <g transform="matrix(0,-1,-1,0,394.271,557.675)">
                <ellipse cx="329.208" cy="13.761" rx="0.797" ry="0.797" style="fill:white;stroke:black;stroke-width:0.4px;"/>
            </g>
            <g transform="matrix(0,-1,-1,0,397.856,554.09)">
                <circle cx="329.208" cy="17.346" r="0.797" style="fill:white;stroke:black;stroke-width:0.4px;"/>
            </g>
            <g transform="matrix(0,-1,-1,0,393.958,557.989)">
                <ellipse cx="329.208" cy="13.447" rx="0.797" ry="0.797" style="fill:white;stroke:black;stroke-width:0.4px;"/>
            </g>
            <g transform="matrix(0,-1,-1,0,393.474,558.472)">
                <ellipse cx="329.208" cy="12.964" rx="0.797" ry="0.797" style="fill:white;stroke:black;stroke-width:0.4px;"/>
            </g>
            <g transform="matrix(0,-1,-1,0,393.12,558.826)">
                <ellipse cx="329.208" cy="12.61" rx="0.797" ry="0.797" style="fill:white;stroke:black;stroke-width:0.4px;"/>
            </g>
            <g transform="matrix(0,-1,-1,0,400.829,551.117)">
                <ellipse cx="329.208" cy="20.319" rx="0.797" ry="0.797" style="fill:white;stroke:black;stroke-width:0.4px;"/>
            </g>
            <g transform="matrix(0,-1,-1,0,393.424,558.522)">
                <ellipse cx="329.208" cy="12.914" rx="0.797" ry="0.797" style="fill:white;stroke:black;stroke-width:0.4px;"/>
            </g>
            <g transform="matrix(0,-1,-1,0,393.863,558.083)">
                <ellipse cx="329.208" cy="13.353" rx="0.797" ry="0.797" style="fill:white;stroke:black;stroke-width:0.4px;"/>
            </g>
            <g transform="matrix(0,-1,-1,0,394.345,557.601)">
                <ellipse cx="329.208" cy="13.835" rx="0.797" ry="0.797" style="fill:white;stroke:black;stroke-width:0.4px;"/>
            </g>
            <g transform="matrix(0,-1,-1,0,394.346,557.6)">
                <ellipse cx="329.208" cy="13.836" rx="0.797" ry="0.797" style="fill:white;stroke:black;stroke-width:0.4px;"/>
            </g>
            <g transform="matrix(0,-1,-1,0,394.452,557.494)">
                <ellipse cx="329.208" cy="13.942" rx="0.797" ry="0.797" style="fill:white;stroke:black;stroke-width:0.4px;"/>
            </g>
            <g transform="matrix(0,-1,-1,0,393.752,558.195)">
                <circle cx="329.208" cy="13.241" r="0.797" style="fill:white;stroke:black;stroke-width:0.4px;"/>
            </g>
            <g transform="matrix(0,-1,-1,0,400.379,551.568)">
                <circle cx="329.208" cy="19.869" r="0.797" style="fill:white;stroke:black;stroke-width:0.4px;"/>
            </g>
            <g transform="matrix(0,-1,-1,0,394.277,557.67)">
                <ellipse cx="329.208" cy="13.767" rx="0.797" ry="0.797" style="fill:white;stroke:black;stroke-width:0.4px;"/>
            </g>
            <g transform="matrix(0,-1,-1,0,394.648,557.298)">
                <ellipse cx="329.208" cy="14.138" rx="0.797" ry="0.797" style="fill:white;stroke:black;stroke-width:0.4px;"/>
            </g>
            <g transform="matrix(0,-1,-1,0,393.955,557.991)">
                <circle cx="329.208" cy="13.445" r="0.797" style="fill:white;stroke:black;stroke-width:0.4px;"/>
            </g>
            <g transform="matrix(0,-1,-1,0,393.644,558.303)">
                <ellipse cx="329.208" cy="13.134" rx="0.797" ry="0.797" style="fill:white;stroke:black;stroke-width:0.4px;"/>
            </g>
            <g transform="matrix(0,-1,-1,0,394.387,557.56)">
                <ellipse cx="329.208" cy="13.877" rx="0.797" ry="0.797" style="fill:white;stroke:black;stroke-width:0.4px;"/>
            </g>
            <g transform="matrix(0,-1,-1,0,394.321,557.626)">
                <ellipse cx="329.208" cy="13.81" rx="0.797" ry="0.797" style="fill:white;stroke:black;stroke-width:0.4px;"/>
            </g>
            <g transform="matrix(0,-1,-1,0,394.112,557.835)">
                <ellipse cx="329.208" cy="13.601" rx="0.797" ry="0.797" style="fill:white;stroke:black;stroke-width:0.4px;"/>
            </g>
            <g transform="matrix(0,-1,-1,0,394.311,557.635)">
                <circle cx="329.208" cy="13.801" r="0.797" style="fill:white;stroke:black;stroke-width:0.4px;"/>
            </g>
            <g transform="matrix(0,-1,-1,0,393.816,558.13)">
                <ellipse cx="329.208" cy="13.306" rx="0.797" ry="0.797" style="fill:white;stroke:black;stroke-width:0.4px;"/>
            </g>
            <g transform="matrix(0,-1,-1,0,403.908,548.038)">
                <ellipse cx="329.208" cy="23.398" rx="0.797" ry="0.797" style="fill:white;stroke:black;stroke-width:0.4px;"/>
            </g>
            <g transform="matrix(0,-1,-1,0,393.392,558.555)">
                <circle cx="329.208" cy="12.882" r="0.797" style="fill:white;stroke:black;stroke-width:0.4px;"/>
            </g>
            <g transform="matrix(0,-1,-1,0,393.819,558.127)">
                <ellipse cx="329.208" cy="13.309" rx="0.797" ry="0.797" style="fill:white;stroke:black;stroke-width:0.4px;"/>
            </g>
            <g transform="matrix(0,-1,-1,0,393.781,558.165)">
                <circle cx="329.208" cy="13.271" r="0.797" style="fill:white;stroke:black;stroke-width:0.4px;"/>
            </g>
            <g transform="matrix(0,-1,-1,0,390.843,561.103)">
                <ellipse cx="329.208" cy="10.333" rx="0.797" ry="0.797" style="fill:white;stroke:black;stroke-width:0.4px;"/>
            </g>
        </g>
    </g>
    <circle cx="1.021" cy="134.513" r="1.021"/>
    <g transform="matrix(0.635376,0,0,0.635376,142.866,91.0116)">
        <circle cx="390.049" cy="247.836" r="1.768"/>
    </g>
</svg>
