<?xml version="1.0" encoding="UTF-8" standalone="no"?>
<!DOCTYPE svg PUBLIC "-//W3C//DTD SVG 1.1//EN" "http://www.w3.org/Graphics/SVG/1.1/DTD/svg11.dtd">
<svg width="100%" height="100%" viewBox="0 0 392 120" version="1.1" xmlns="http://www.w3.org/2000/svg" xmlns:xlink="http://www.w3.org/1999/xlink" xml:space="preserve" xmlns:serif="http://www.serif.com/" style="fill-rule:evenodd;clip-rule:evenodd;stroke-miterlimit:10;">
    <g id="Pure-shear" serif:id="Pure shear">
        <g transform="matrix(1,0,0,1,293.214,100.494)">
            <path d="M0,-4.961L0,-9.213M70.866,-4.961L70.866,-9.213" style="fill:none;fill-rule:nonzero;stroke:white;stroke-width:0.2px;"/>
        </g>
        <g transform="matrix(1,0,0,1,293.214,86.3195)">
            <path d="M-9.213,0L-4.961,0" style="fill:none;fill-rule:nonzero;stroke:white;stroke-width:0.2px;"/>
        </g>
        <g transform="matrix(1,0,0,1,293.214,100.494)">
            <path d="M-7.087,-7.087L75.96,-7.087" style="fill:none;fill-rule:nonzero;stroke:white;stroke-width:0.4px;"/>
        </g>
        <g transform="matrix(1,0,0,1,369.174,93.4067)">
            <path d="M1.993,0L-1.196,-1.594L0,0L-1.196,1.594" style="fill:white;fill-rule:nonzero;"/>
        </g>
        <g transform="matrix(0,-1,-1,0,320.565,44.795)">
            <path d="M-48.612,34.438L34.438,34.438" style="fill:none;fill-rule:nonzero;stroke:white;stroke-width:0.4px;"/>
        </g>
        <g transform="matrix(0,-1,1,0,286.127,10.3572)">
            <path d="M1.993,0L-1.196,-1.594L0,0L-1.196,1.594" style="fill:white;fill-rule:nonzero;"/>
        </g>
        <g transform="matrix(1,0,0,1,-9.35073,-8.4435)">
            <clipPath id="_clip1">
                <rect x="295.478" y="16.808" width="85.039" height="85.042" clip-rule="nonzero"/>
            </clipPath>
            <g clip-path="url(#_clip1)">
                <g transform="matrix(1,0,0,1,302.565,94.763)">
                    <path d="M0,0L70.866,0" style="fill:none;fill-rule:nonzero;stroke:rgb(255,0,0);stroke-width:1.59px;"/>
                </g>
                <g id="preds">
                    <g transform="matrix(1,0,0,1,302.565,39.5009)">
                        <path d="M0,0.006L1.446,7.249L2.892,13.73L4.339,19.507L5.785,24.637L7.231,29.175L8.677,33.17L10.124,36.672L11.57,39.727L13.016,42.379L14.462,44.668L15.909,46.632L17.355,48.308L18.801,49.727L20.247,50.92L21.694,51.914L23.14,52.734L24.586,53.402L26.032,53.938L27.478,54.36L28.925,54.685L30.371,54.926L31.817,55.096L33.263,55.203L34.71,55.256L36.156,55.256L37.602,55.203L39.048,55.096L40.495,54.926L41.941,54.685L43.387,54.36L44.833,53.938L46.28,53.402L47.726,52.734L49.172,51.914L50.618,50.92L52.064,49.727L53.511,48.308L54.957,46.632L56.403,44.668L57.849,42.379L59.296,39.727L60.742,36.672L62.188,33.17L63.634,29.175L65.081,24.637L66.527,19.507L67.973,13.73L69.419,7.249L70.866,0.006" style="fill:none;fill-rule:nonzero;stroke:white;stroke-opacity:0.2;stroke-width:0.4px;"/>
                    </g>
                    <g transform="matrix(1,0,0,1,302.565,48.516)">
                        <path d="M0,0.005L1.446,6.328L2.892,11.943L4.339,16.912L5.785,21.292L7.231,25.135L8.677,28.492L10.124,31.412L11.57,33.938L13.016,36.111L14.462,37.971L15.909,39.551L17.355,40.886L18.801,42.006L20.247,42.937L21.694,43.705L23.14,44.332L24.586,44.84L26.032,45.245L27.478,45.563L28.925,45.808L30.371,45.99L31.817,46.12L33.263,46.202L34.71,46.242L36.156,46.242L37.602,46.202L39.048,46.12L40.495,45.99L41.941,45.808L43.387,45.563L44.833,45.245L46.28,44.84L47.726,44.332L49.172,43.705L50.618,42.937L52.064,42.006L53.511,40.886L54.957,39.551L56.403,37.971L57.849,36.111L59.296,33.938L60.742,31.412L62.188,28.492L63.634,25.135L65.081,21.292L66.527,16.912L67.973,11.943L69.419,6.328L70.866,0.005" style="fill:none;fill-rule:nonzero;stroke:white;stroke-opacity:0.2;stroke-width:0.4px;"/>
                    </g>
                    <g transform="matrix(1,0,0,1,302.565,29.51)">
                        <path d="M0,0.009L1.446,8.06L2.892,15.317L4.339,21.84L5.785,27.685L7.231,32.905L8.677,37.552L10.124,41.674L11.57,45.317L13.016,48.523L14.462,51.334L15.909,53.784L17.355,55.91L18.801,57.741L20.247,59.307L21.694,60.634L23.14,61.744L24.586,62.66L26.032,63.403L27.478,63.992L28.925,64.447L30.371,64.785L31.817,65.022L33.263,65.172L34.71,65.244L36.156,65.244L37.602,65.172L39.048,65.022L40.495,64.785L41.941,64.447L43.387,63.992L44.833,63.403L46.28,62.66L47.726,61.744L49.172,60.634L50.618,59.307L52.064,57.741L53.511,55.91L54.957,53.784L56.403,51.334L57.849,48.523L59.296,45.317L60.742,41.674L62.188,37.552L63.634,32.905L65.081,27.685L66.527,21.84L67.973,15.317L69.419,8.06L70.866,0.009" style="fill:none;fill-rule:nonzero;stroke:white;stroke-opacity:0.2;stroke-width:0.4px;"/>
                    </g>
                    <g transform="matrix(1,0,0,1,302.565,42.4676)">
                        <path d="M0,0.005L1.446,7.07L2.892,13.371L4.339,18.969L5.785,23.92L7.231,28.279L8.677,32.098L10.124,35.425L11.57,38.309L13.016,40.793L14.462,42.918L15.909,44.725L17.355,46.249L18.801,47.525L20.247,48.584L21.694,49.454L23.14,50.163L24.586,50.734L26.032,51.187L27.478,51.542L28.925,51.813L30.371,52.014L31.817,52.156L33.263,52.246L34.71,52.29L36.156,52.29L37.602,52.246L39.048,52.156L40.495,52.014L41.941,51.813L43.387,51.542L44.833,51.187L46.28,50.734L47.726,50.163L49.172,49.454L50.618,48.584L52.064,47.525L53.511,46.249L54.957,44.725L56.403,42.918L57.849,40.793L59.296,38.309L60.742,35.425L62.188,32.098L63.634,28.279L65.081,23.92L66.527,18.969L67.973,13.371L69.419,7.07L70.866,0.005" style="fill:none;fill-rule:nonzero;stroke:white;stroke-opacity:0.2;stroke-width:0.4px;"/>
                    </g>
                    <g transform="matrix(1,0,0,1,302.565,54.3135)">
                        <path d="M0,0.004L1.446,5.843L2.892,10.976L4.339,15.467L5.785,19.377L7.231,22.763L8.677,25.681L10.124,28.185L11.57,30.323L13.016,32.141L14.462,33.68L15.909,34.978L17.355,36.066L18.801,36.975L20.247,37.73L21.694,38.353L23.14,38.863L24.586,39.277L26.032,39.61L27.478,39.873L28.925,40.078L30.371,40.231L31.817,40.341L33.263,40.411L34.71,40.445L36.156,40.445L37.602,40.411L39.048,40.341L40.495,40.231L41.941,40.078L43.387,39.873L44.833,39.61L46.28,39.277L47.726,38.863L49.172,38.353L50.618,37.73L52.064,36.975L53.511,36.066L54.957,34.978L56.403,33.68L57.849,32.141L59.296,30.323L60.742,28.185L62.188,25.681L63.634,22.763L65.081,19.377L66.527,15.467L67.973,10.976L69.419,5.843L70.866,0.004" style="fill:none;fill-rule:nonzero;stroke:white;stroke-opacity:0.2;stroke-width:0.4px;"/>
                    </g>
                    <g transform="matrix(1,0,0,1,302.565,59.6006)">
                        <path d="M0,0.003L1.446,5.528L2.892,10.355L4.339,14.544L5.785,18.153L7.231,21.236L8.677,23.847L10.124,26.035L11.57,27.851L13.016,29.341L14.462,30.552L15.909,31.527L17.355,32.308L18.801,32.932L20.247,33.431L21.694,33.831L23.14,34.153L24.586,34.413L26.032,34.621L27.478,34.788L28.925,34.918L30.371,35.018L31.817,35.09L33.263,35.137L34.71,35.16L36.156,35.16L37.602,35.137L39.048,35.09L40.495,35.018L41.941,34.918L43.387,34.788L44.833,34.621L46.28,34.413L47.726,34.153L49.172,33.831L50.618,33.431L52.064,32.932L53.511,32.308L54.957,31.527L56.403,30.552L57.849,29.341L59.296,27.851L60.742,26.035L62.188,23.847L63.634,21.236L65.081,18.153L66.527,14.544L67.973,10.355L69.419,5.528L70.866,0.003" style="fill:none;fill-rule:nonzero;stroke:white;stroke-opacity:0.2;stroke-width:0.4px;"/>
                    </g>
                    <g transform="matrix(1,0,0,1,302.565,34.6441)">
                        <path d="M0,0.007L1.446,7.641L2.892,14.499L4.339,20.641L5.785,26.123L7.231,30.999L8.677,35.321L10.124,39.137L11.57,42.491L13.016,45.427L14.462,47.982L15.909,50.194L17.355,52.097L18.801,53.72L20.247,55.094L21.694,56.244L23.14,57.196L24.586,57.972L26.032,58.594L27.478,59.083L28.925,59.458L30.371,59.735L31.817,59.929L33.263,60.052L34.71,60.112L36.156,60.112L37.602,60.052L39.048,59.929L40.495,59.735L41.941,59.458L43.387,59.083L44.833,58.594L46.28,57.972L47.726,57.196L49.172,56.244L50.618,55.094L52.064,53.72L53.511,52.097L54.957,50.194L56.403,47.982L57.849,45.427L59.296,42.491L60.742,39.137L62.188,35.321L63.634,30.999L65.081,26.123L66.527,20.641L67.973,14.499L69.419,7.641L70.866,0.007" style="fill:none;fill-rule:nonzero;stroke:white;stroke-opacity:0.2;stroke-width:0.4px;"/>
                    </g>
                    <g transform="matrix(1,0,0,1,302.565,39.8975)">
                        <path d="M0,0.006L1.446,7.225L2.892,13.684L4.339,19.443L5.785,24.557L7.231,29.081L8.677,33.065L10.124,36.558L11.57,39.604L13.016,42.247L14.462,44.527L15.909,46.48L17.355,48.141L18.801,49.542L20.247,50.713L21.694,51.682L23.14,52.475L24.586,53.115L26.032,53.625L27.478,54.023L28.925,54.327L30.371,54.553L31.817,54.711L33.263,54.811L34.71,54.86L36.156,54.86L37.602,54.811L39.048,54.711L40.495,54.553L41.941,54.327L43.387,54.023L44.833,53.625L46.28,53.115L47.726,52.475L49.172,51.682L50.618,50.713L52.064,49.542L53.511,48.141L54.957,46.48L56.403,44.527L57.849,42.247L59.296,39.604L60.742,36.558L62.188,33.065L63.634,29.081L65.081,24.557L66.527,19.443L67.973,13.684L69.419,7.225L70.866,0.006" style="fill:none;fill-rule:nonzero;stroke:white;stroke-opacity:0.2;stroke-width:0.4px;"/>
                    </g>
                    <g transform="matrix(1,0,0,1,302.565,52.2672)">
                        <path d="M0,0.004L1.446,6.075L2.892,11.432L4.339,16.135L5.785,20.243L7.231,23.813L8.677,26.899L10.124,29.552L11.57,31.821L13.016,33.751L14.462,35.384L15.909,36.759L17.355,37.91L18.801,38.869L20.247,39.663L21.694,40.317L23.14,40.85L24.586,41.282L26.032,41.628L27.478,41.901L28.925,42.113L30.371,42.271L31.817,42.384L33.263,42.456L34.71,42.491L36.156,42.491L37.602,42.456L39.048,42.384L40.495,42.271L41.941,42.113L43.387,41.901L44.833,41.628L46.28,41.282L47.726,40.85L49.172,40.317L50.618,39.663L52.064,38.869L53.511,37.91L54.957,36.759L56.403,35.384L57.849,33.751L59.296,31.821L60.742,29.552L62.188,26.899L63.634,23.813L65.081,20.243L66.527,16.135L67.973,11.432L69.419,6.075L70.866,0.004" style="fill:none;fill-rule:nonzero;stroke:white;stroke-opacity:0.2;stroke-width:0.4px;"/>
                    </g>
                    <g transform="matrix(1,0,0,1,302.565,41.4329)">
                        <path d="M0,0.006L1.446,7.107L2.892,13.452L4.339,19.1L5.785,24.106L7.231,28.525L8.677,32.406L10.124,35.8L11.57,38.751L13.016,41.302L14.462,43.495L15.909,45.367L17.355,46.954L18.801,48.288L20.247,49.4L21.694,50.319L23.14,51.068L24.586,51.673L26.032,52.155L27.478,52.531L28.925,52.819L30.371,53.033L31.817,53.183L33.263,53.278L34.71,53.324L36.156,53.324L37.602,53.278L39.048,53.183L40.495,53.033L41.941,52.819L43.387,52.531L44.833,52.155L46.28,51.673L47.726,51.068L49.172,50.319L50.618,49.4L52.064,48.288L53.511,46.954L54.957,45.367L56.403,43.495L57.849,41.302L59.296,38.751L60.742,35.8L62.188,32.406L63.634,28.525L65.081,24.106L66.527,19.1L67.973,13.452L69.419,7.107L70.866,0.006" style="fill:none;fill-rule:nonzero;stroke:white;stroke-opacity:0.2;stroke-width:0.4px;"/>
                    </g>
                    <g transform="matrix(1,0,0,1,302.565,44.5467)">
                        <path d="M0,0.005L1.446,6.863L2.892,12.974L4.339,18.399L5.785,23.191L7.231,27.403L8.677,31.087L10.124,34.289L11.57,37.055L13.016,39.429L14.462,41.452L15.909,43.163L17.355,44.599L18.801,45.795L20.247,46.782L21.694,47.59L23.14,48.246L24.586,48.773L26.032,49.191L27.478,49.518L28.925,49.769L30.371,49.955L31.817,50.087L33.263,50.171L34.71,50.211L36.156,50.211L37.602,50.171L39.048,50.087L40.495,49.955L41.941,49.769L43.387,49.518L44.833,49.191L46.28,48.773L47.726,48.246L49.172,47.59L50.618,46.782L52.064,45.795L53.511,44.599L54.957,43.163L56.403,41.452L57.849,39.429L59.296,37.055L60.742,34.289L62.188,31.087L63.634,27.403L65.081,23.191L66.527,18.399L67.973,12.974L69.419,6.863L70.866,0.005" style="fill:none;fill-rule:nonzero;stroke:white;stroke-opacity:0.2;stroke-width:0.4px;"/>
                    </g>
                    <g transform="matrix(1,0,0,1,302.565,49.1285)">
                        <path d="M0,0.005L1.446,6.344L2.892,11.959L4.339,16.911L5.785,21.26L7.231,25.063L8.677,28.373L10.124,31.24L11.57,33.711L13.016,35.83L14.462,37.638L15.909,39.17L17.355,40.461L18.801,41.542L20.247,42.44L21.694,43.18L23.14,43.785L24.586,44.274L26.032,44.665L27.478,44.972L28.925,45.209L30.371,45.385L31.817,45.511L33.263,45.591L34.71,45.63L36.156,45.63L37.602,45.591L39.048,45.511L40.495,45.385L41.941,45.209L43.387,44.972L44.833,44.665L46.28,44.274L47.726,43.785L49.172,43.18L50.618,42.44L52.064,41.542L53.511,40.461L54.957,39.17L56.403,37.638L57.849,35.83L59.296,33.711L60.742,31.24L62.188,28.373L63.634,25.063L65.081,21.26L66.527,16.911L67.973,11.959L69.419,6.344L70.866,0.005" style="fill:none;fill-rule:nonzero;stroke:white;stroke-opacity:0.2;stroke-width:0.4px;"/>
                    </g>
                    <g transform="matrix(1,0,0,1,302.565,39.9817)">
                        <path d="M0,0.005L1.446,7.357L2.892,13.941L4.339,19.813L5.785,25.026L7.231,29.629L8.677,33.671L10.124,37.198L11.57,40.255L13.016,42.884L14.462,45.128L15.909,47.026L17.355,48.619L18.801,49.943L20.247,51.034L21.694,51.925L23.14,52.645L24.586,53.222L26.032,53.677L27.478,54.032L28.925,54.302L30.371,54.502L31.817,54.643L33.263,54.733L34.71,54.776L36.156,54.776L37.602,54.733L39.048,54.643L40.495,54.502L41.941,54.302L43.387,54.032L44.833,53.677L46.28,53.222L47.726,52.645L49.172,51.925L50.618,51.034L52.064,49.943L53.511,48.619L54.957,47.026L56.403,45.128L57.849,42.884L59.296,40.255L60.742,37.198L62.188,33.671L63.634,29.629L65.081,25.026L66.527,19.813L67.973,13.941L69.419,7.357L70.866,0.005" style="fill:none;fill-rule:nonzero;stroke:white;stroke-opacity:0.2;stroke-width:0.4px;"/>
                    </g>
                    <g transform="matrix(1,0,0,1,302.565,33.0143)">
                        <path d="M0,0.007L1.446,7.876L2.892,14.956L4.339,21.308L5.785,26.986L7.231,32.043L8.677,36.53L10.124,40.492L11.57,43.974L13.016,47.016L14.462,49.656L15.909,51.931L17.355,53.875L18.801,55.521L20.247,56.899L21.694,58.04L23.14,58.972L24.586,59.723L26.032,60.318L27.478,60.782L28.925,61.133L30.371,61.392L31.817,61.573L33.263,61.687L34.71,61.742L36.156,61.742L37.602,61.687L39.048,61.573L40.495,61.392L41.941,61.133L43.387,60.782L44.833,60.318L46.28,59.723L47.726,58.972L49.172,58.04L50.618,56.899L52.064,55.521L53.511,53.875L54.957,51.931L56.403,49.656L57.849,47.016L59.296,43.974L60.742,40.492L62.188,36.53L63.634,32.043L65.081,26.986L66.527,21.308L67.973,14.956L69.419,7.876L70.866,0.007" style="fill:none;fill-rule:nonzero;stroke:white;stroke-opacity:0.2;stroke-width:0.4px;"/>
                    </g>
                    <g transform="matrix(1,0,0,1,302.565,43.7053)">
                        <path d="M0,0.005L1.446,6.91L2.892,13.066L4.339,18.532L5.785,23.365L7.231,27.619L8.677,31.344L10.124,34.589L11.57,37.4L13.016,39.822L14.462,41.894L15.909,43.656L17.355,45.143L18.801,46.389L20.247,47.423L21.694,48.274L23.14,48.968L24.586,49.526L26.032,49.97L27.478,50.318L28.925,50.584L30.371,50.781L31.817,50.921L33.263,51.009L34.71,51.052L36.156,51.052L37.602,51.009L39.048,50.921L40.495,50.781L41.941,50.584L43.387,50.318L44.833,49.97L46.28,49.526L47.726,48.968L49.172,48.274L50.618,47.423L52.064,46.389L53.511,45.143L54.957,43.656L56.403,41.894L57.849,39.822L59.296,37.4L60.742,34.589L62.188,31.344L63.634,27.619L65.081,23.365L66.527,18.532L67.973,13.066L69.419,6.91L70.866,0.005" style="fill:none;fill-rule:nonzero;stroke:white;stroke-opacity:0.2;stroke-width:0.4px;"/>
                    </g>
                    <g transform="matrix(1,0,0,1,302.565,45.015)">
                        <path d="M0,0.005L1.446,6.7L2.892,12.658L4.339,17.94L5.785,22.605L7.231,26.709L8.677,30.305L10.124,33.442L11.57,36.167L13.016,38.523L14.462,40.549L15.909,42.282L17.355,43.754L18.801,44.995L20.247,46.033L21.694,46.893L23.14,47.598L24.586,48.169L26.032,48.625L27.478,48.983L28.925,49.258L30.371,49.462L31.817,49.606L33.263,49.698L34.71,49.743L36.156,49.743L37.602,49.698L39.048,49.606L40.495,49.462L41.941,49.258L43.387,48.983L44.833,48.625L46.28,48.169L47.726,47.598L49.172,46.893L50.618,46.033L52.064,44.995L53.511,43.754L54.957,42.282L56.403,40.549L57.849,38.523L59.296,36.167L60.742,33.442L62.188,30.305L63.634,26.709L65.081,22.605L66.527,17.94L67.973,12.658L69.419,6.7L70.866,0.005" style="fill:none;fill-rule:nonzero;stroke:white;stroke-opacity:0.2;stroke-width:0.4px;"/>
                    </g>
                    <g transform="matrix(1,0,0,1,302.565,37.2997)">
                        <path d="M0,0.006L1.446,7.46L2.892,14.139L4.339,20.104L5.785,25.413L7.231,30.119L8.677,34.274L10.124,37.927L11.57,41.125L13.016,43.91L14.462,46.321L15.909,48.397L17.355,50.171L18.801,51.675L20.247,52.939L21.694,53.989L23.14,54.852L24.586,55.55L26.032,56.107L27.478,56.543L28.925,56.876L30.371,57.122L31.817,57.295L33.263,57.404L34.71,57.457L36.156,57.457L37.602,57.404L39.048,57.295L40.495,57.122L41.941,56.876L43.387,56.543L44.833,56.107L46.28,55.55L47.726,54.852L49.172,53.989L50.618,52.939L52.064,51.675L53.511,50.171L54.957,48.397L56.403,46.321L57.849,43.91L59.296,41.125L60.742,37.927L62.188,34.274L63.634,30.119L65.081,25.413L66.527,20.104L67.973,14.139L69.419,7.46L70.866,0.006" style="fill:none;fill-rule:nonzero;stroke:white;stroke-opacity:0.2;stroke-width:0.4px;"/>
                    </g>
                    <g transform="matrix(1,0,0,1,302.565,41.4742)">
                        <path d="M0,0.006L1.446,7.127L2.892,13.491L4.339,19.157L5.785,24.178L7.231,28.609L8.677,32.5L10.124,35.899L11.57,38.851L13.016,41.4L14.462,43.586L15.909,45.447L17.355,47.021L18.801,48.34L20.247,49.437L21.694,50.34L23.14,51.076L24.586,51.668L26.032,52.139L27.478,52.507L28.925,52.789L30.371,52.998L31.817,53.145L33.263,53.238L34.71,53.283L36.156,53.283L37.602,53.238L39.048,53.145L40.495,52.998L41.941,52.789L43.387,52.507L44.833,52.139L46.28,51.668L47.726,51.076L49.172,50.34L50.618,49.437L52.064,48.34L53.511,47.021L54.957,45.447L56.403,43.586L57.849,41.4L59.296,38.851L60.742,35.899L62.188,32.5L63.634,28.609L65.081,24.178L66.527,19.157L67.973,13.491L69.419,7.127L70.866,0.006" style="fill:none;fill-rule:nonzero;stroke:white;stroke-opacity:0.2;stroke-width:0.4px;"/>
                    </g>
                    <g transform="matrix(1,0,0,1,302.565,33.6929)">
                        <path d="M0,0.008L1.446,7.721L2.892,14.654L4.339,20.865L5.785,26.412L7.231,31.347L8.677,35.723L10.124,39.587L11.57,42.985L13.016,45.961L14.462,48.554L15.909,50.802L17.355,52.74L18.801,54.399L20.247,55.809L21.694,56.995L23.14,57.982L24.586,58.793L26.032,59.447L27.478,59.965L28.925,60.363L30.371,60.659L31.817,60.867L33.263,60.999L34.71,61.062L36.156,61.062L37.602,60.999L39.048,60.867L40.495,60.659L41.941,60.363L43.387,59.965L44.833,59.447L46.28,58.793L47.726,57.982L49.172,56.995L50.618,55.809L52.064,54.399L53.511,52.74L54.957,50.802L56.403,48.554L57.849,45.961L59.296,42.985L60.742,39.587L62.188,35.723L63.634,31.347L65.081,26.412L66.527,20.865L67.973,14.654L69.419,7.721L70.866,0.008" style="fill:none;fill-rule:nonzero;stroke:white;stroke-opacity:0.2;stroke-width:0.4px;"/>
                    </g>
                    <g transform="matrix(1,0,0,1,302.565,40.5163)">
                        <path d="M0,0.006L1.446,7.356L2.892,13.909L4.339,19.728L5.785,24.872L7.231,29.398L8.677,33.362L10.124,36.813L11.57,39.803L13.016,42.376L14.462,44.576L15.909,46.445L17.355,48.021L18.801,49.339L20.247,50.431L21.694,51.329L23.14,52.059L24.586,52.646L26.032,53.112L27.478,53.476L28.925,53.754L30.371,53.96L31.817,54.104L33.263,54.197L34.71,54.241L36.156,54.241L37.602,54.197L39.048,54.104L40.495,53.96L41.941,53.754L43.387,53.476L44.833,53.112L46.28,52.646L47.726,52.059L49.172,51.329L50.618,50.431L52.064,49.339L53.511,48.021L54.957,46.445L56.403,44.576L57.849,42.376L59.296,39.803L60.742,36.813L62.188,33.362L63.634,29.398L65.081,24.872L66.527,19.728L67.973,13.909L69.419,7.356L70.866,0.006" style="fill:none;fill-rule:nonzero;stroke:white;stroke-opacity:0.2;stroke-width:0.4px;"/>
                    </g>
                    <g transform="matrix(1,0,0,1,302.565,42.3399)">
                        <path d="M0,0.006L1.446,6.989L2.892,13.226L4.339,18.778L5.785,23.698L7.231,28.042L8.677,31.858L10.124,35.194L11.57,38.096L13.016,40.606L14.462,42.763L15.909,44.605L17.355,46.165L18.801,47.476L20.247,48.569L21.694,49.47L23.14,50.206L24.586,50.799L26.032,51.271L27.478,51.64L28.925,51.922L30.371,52.131L31.817,52.279L33.263,52.372L34.71,52.418L36.156,52.418L37.602,52.372L39.048,52.279L40.495,52.131L41.941,51.922L43.387,51.64L44.833,51.271L46.28,50.799L47.726,50.206L49.172,49.47L50.618,48.569L52.064,47.476L53.511,46.165L54.957,44.605L56.403,42.763L57.849,40.606L59.296,38.096L60.742,35.194L62.188,31.858L63.634,28.042L65.081,23.698L66.527,18.778L67.973,13.226L69.419,6.989L70.866,0.006" style="fill:none;fill-rule:nonzero;stroke:white;stroke-opacity:0.2;stroke-width:0.4px;"/>
                    </g>
                    <g transform="matrix(1,0,0,1,302.565,41.2756)">
                        <path d="M0,0.007L1.446,7.074L2.892,13.381L4.339,18.989L5.785,23.953L7.231,28.329L8.677,32.17L10.124,35.526L11.57,38.447L13.016,40.976L14.462,43.159L15.909,45.033L17.355,46.637L18.801,48.001L20.247,49.155L21.694,50.124L23.14,50.931L24.586,51.595L26.032,52.133L27.478,52.56L28.925,52.892L30.371,53.14L31.817,53.315L33.263,53.427L34.71,53.481L36.156,53.481L37.602,53.427L39.048,53.315L40.495,53.14L41.941,52.892L43.387,52.56L44.833,52.133L46.28,51.595L47.726,50.931L49.172,50.124L50.618,49.155L52.064,48.001L53.511,46.637L54.957,45.033L56.403,43.159L57.849,40.976L59.296,38.447L60.742,35.526L62.188,32.17L63.634,28.329L65.081,23.953L66.527,18.989L67.973,13.381L69.419,7.074L70.866,0.007" style="fill:none;fill-rule:nonzero;stroke:white;stroke-opacity:0.2;stroke-width:0.4px;"/>
                    </g>
                    <g transform="matrix(1,0,0,1,302.565,60.2655)">
                        <path d="M0,0.004L1.446,5.13L2.892,9.617L4.339,13.52L5.785,16.897L7.231,19.801L8.677,22.285L10.124,24.397L11.57,26.186L13.016,27.694L14.462,28.961L15.909,30.022L17.355,30.907L18.801,31.645L20.247,32.257L21.694,32.762L23.14,33.178L24.586,33.517L26.032,33.792L27.478,34.011L28.925,34.182L30.371,34.311L31.817,34.404L33.263,34.464L34.71,34.494L36.156,34.494L37.602,34.464L39.048,34.404L40.495,34.311L41.941,34.182L43.387,34.011L44.833,33.792L46.28,33.517L47.726,33.178L49.172,32.762L50.618,32.257L52.064,31.645L53.511,30.907L54.957,30.022L56.403,28.961L57.849,27.694L59.296,26.186L60.742,24.397L62.188,22.285L63.634,19.801L65.081,16.897L66.527,13.52L67.973,9.617L69.419,5.13L70.866,0.004" style="fill:none;fill-rule:nonzero;stroke:white;stroke-opacity:0.2;stroke-width:0.4px;"/>
                    </g>
                    <g transform="matrix(1,0,0,1,302.565,33.1732)">
                        <path d="M0,0.009L1.446,7.535L2.892,14.326L4.339,20.435L5.785,25.916L7.231,30.818L8.677,35.187L10.124,39.069L11.57,42.506L13.016,45.537L14.462,48.199L15.909,50.526L17.355,52.549L18.801,54.299L20.247,55.8L21.694,57.076L23.14,58.149L24.586,59.039L26.032,59.764L27.478,60.342L28.925,60.79L30.371,61.124L31.817,61.359L33.263,61.509L34.71,61.581L36.156,61.581L37.602,61.509L39.048,61.359L40.495,61.124L41.941,60.79L43.387,60.342L44.833,59.764L46.28,59.039L47.726,58.149L49.172,57.076L50.618,55.8L52.064,54.299L53.511,52.549L54.957,50.526L56.403,48.199L57.849,45.537L59.296,42.506L60.742,39.069L62.188,35.187L63.634,30.818L65.081,25.916L66.527,20.435L67.973,14.326L69.419,7.535L70.866,0.009" style="fill:none;fill-rule:nonzero;stroke:white;stroke-opacity:0.2;stroke-width:0.4px;"/>
                    </g>
                    <g transform="matrix(1,0,0,1,302.565,60.2559)">
                        <path d="M0,0.003L1.446,5.386L2.892,10.076L4.339,14.133L5.785,17.618L7.231,20.589L8.677,23.101L10.124,25.21L11.57,26.966L13.016,28.42L14.462,29.616L15.909,30.596L17.355,31.398L18.801,32.052L20.247,32.587L21.694,33.023L23.14,33.379L24.586,33.668L26.032,33.901L27.478,34.088L28.925,34.235L30.371,34.346L31.817,34.426L33.263,34.478L34.71,34.504L36.156,34.504L37.602,34.478L39.048,34.426L40.495,34.346L41.941,34.235L43.387,34.088L44.833,33.901L46.28,33.668L47.726,33.379L49.172,33.023L50.618,32.587L52.064,32.052L53.511,31.398L54.957,30.596L56.403,29.616L57.849,28.42L59.296,26.966L60.742,25.21L62.188,23.101L63.634,20.589L65.081,17.618L66.527,14.133L67.973,10.076L69.419,5.386L70.866,0.003" style="fill:none;fill-rule:nonzero;stroke:white;stroke-opacity:0.2;stroke-width:0.4px;"/>
                    </g>
                    <g transform="matrix(1,0,0,1,302.565,34.6513)">
                        <path d="M0,0.007L1.446,7.723L2.892,14.658L4.339,20.868L5.785,26.41L7.231,31.334L8.677,35.69L10.124,39.525L11.57,42.885L13.016,45.812L14.462,48.346L15.909,50.527L17.355,52.391L18.801,53.972L20.247,55.301L21.694,56.409L23.14,57.322L24.586,58.064L26.032,58.658L27.478,59.124L28.925,59.481L30.371,59.745L31.817,59.931L33.263,60.048L34.71,60.105L36.156,60.105L37.602,60.048L39.048,59.931L40.495,59.745L41.941,59.481L43.387,59.124L44.833,58.658L46.28,58.064L47.726,57.322L49.172,56.409L50.618,55.301L52.064,53.972L53.511,52.391L54.957,50.527L56.403,48.346L57.849,45.812L59.296,42.885L60.742,39.525L62.188,35.69L63.634,31.334L65.081,26.41L66.527,20.868L67.973,14.658L69.419,7.723L70.866,0.007" style="fill:none;fill-rule:nonzero;stroke:white;stroke-opacity:0.2;stroke-width:0.4px;"/>
                    </g>
                    <g transform="matrix(1,0,0,1,302.565,42.1518)">
                        <path d="M0,0.006L1.446,7.013L2.892,13.268L4.339,18.831L5.785,23.759L7.231,28.105L8.677,31.922L10.124,35.256L11.57,38.156L13.016,40.664L14.462,42.821L15.909,44.665L17.355,46.23L18.801,47.55L20.247,48.655L21.694,49.57L23.14,50.321L24.586,50.929L26.032,51.415L27.478,51.797L28.925,52.09L30.371,52.308L31.817,52.461L33.263,52.558L34.71,52.605L36.156,52.605L37.602,52.558L39.048,52.461L40.495,52.308L41.941,52.09L43.387,51.797L44.833,51.415L46.28,50.929L47.726,50.321L49.172,49.57L50.618,48.655L52.064,47.55L53.511,46.23L54.957,44.665L56.403,42.821L57.849,40.664L59.296,38.156L60.742,35.256L62.188,31.922L63.634,28.105L65.081,23.759L66.527,18.831L67.973,13.268L69.419,7.013L70.866,0.006" style="fill:none;fill-rule:nonzero;stroke:white;stroke-opacity:0.2;stroke-width:0.4px;"/>
                    </g>
                    <g transform="matrix(1,0,0,1,302.565,29.8667)">
                        <path d="M0,0.009L1.446,8.05L2.892,15.295L4.339,21.804L5.785,27.633L7.231,32.837L8.677,37.467L10.124,41.572L11.57,45.198L13.016,48.388L14.462,51.183L15.909,53.618L17.355,55.727L18.801,57.542L20.247,59.09L21.694,60.398L23.14,61.489L24.586,62.385L26.032,63.109L27.478,63.681L28.925,64.12L30.371,64.446L31.817,64.674L33.263,64.818L34.71,64.888L36.156,64.888L37.602,64.818L39.048,64.674L40.495,64.446L41.941,64.12L43.387,63.681L44.833,63.109L46.28,62.385L47.726,61.489L49.172,60.398L50.618,59.09L52.064,57.542L53.511,55.727L54.957,53.618L56.403,51.183L57.849,48.388L59.296,45.198L60.742,41.572L62.188,37.467L63.634,32.837L65.081,27.633L66.527,21.804L67.973,15.295L69.419,8.05L70.866,0.009" style="fill:none;fill-rule:nonzero;stroke:white;stroke-opacity:0.2;stroke-width:0.4px;"/>
                    </g>
                    <g transform="matrix(1,0,0,1,302.565,40.2128)">
                        <path d="M0,0.006L1.446,7.276L2.892,13.774L4.339,19.559L5.785,24.687L7.231,29.214L8.677,33.19L10.124,36.666L11.57,39.688L13.016,42.3L14.462,44.543L15.909,46.457L17.355,48.078L18.801,49.439L20.247,50.571L21.694,51.505L23.14,52.266L24.586,52.879L26.032,53.365L27.478,53.745L28.925,54.036L30.371,54.251L31.817,54.402L33.263,54.498L34.71,54.544L36.156,54.544L37.602,54.498L39.048,54.402L40.495,54.251L41.941,54.036L43.387,53.745L44.833,53.365L46.28,52.879L47.726,52.266L49.172,51.505L50.618,50.571L52.064,49.439L53.511,48.078L54.957,46.457L56.403,44.543L57.849,42.3L59.296,39.688L60.742,36.666L62.188,33.19L63.634,29.214L65.081,24.687L66.527,19.559L67.973,13.774L69.419,7.276L70.866,0.006" style="fill:none;fill-rule:nonzero;stroke:white;stroke-opacity:0.2;stroke-width:0.4px;"/>
                    </g>
                    <g transform="matrix(1,0,0,1,302.565,50.1983)">
                        <path d="M0,0.005L1.446,6.105L2.892,11.527L4.339,16.326L5.785,20.556L7.231,24.269L8.677,27.511L10.124,30.329L11.57,32.764L13.016,34.857L14.462,36.645L15.909,38.162L17.355,39.441L18.801,40.512L20.247,41.402L21.694,42.135L23.14,42.734L24.586,43.218L26.032,43.604L27.478,43.909L28.925,44.143L30.371,44.318L31.817,44.442L33.263,44.521L34.71,44.56L36.156,44.56L37.602,44.521L39.048,44.442L40.495,44.318L41.941,44.143L43.387,43.909L44.833,43.604L46.28,43.218L47.726,42.734L49.172,42.135L50.618,41.402L52.064,40.512L53.511,39.441L54.957,38.162L56.403,36.645L57.849,34.857L59.296,32.764L60.742,30.329L62.188,27.511L63.634,24.269L65.081,20.556L66.527,16.326L67.973,11.527L69.419,6.105L70.866,0.005" style="fill:none;fill-rule:nonzero;stroke:white;stroke-opacity:0.2;stroke-width:0.4px;"/>
                    </g>
                    <g transform="matrix(1,0,0,1,302.565,64.4351)">
                        <path d="M0,0.002L1.446,5.078L2.892,9.469L4.339,13.232L5.785,16.425L7.231,19.104L8.677,21.322L10.124,23.137L11.57,24.605L13.016,25.781L14.462,26.717L15.909,27.462L17.355,28.056L18.801,28.532L20.247,28.917L21.694,29.23L23.14,29.487L24.586,29.697L26.032,29.869L27.478,30.007L28.925,30.118L30.371,30.203L31.817,30.265L33.263,30.305L34.71,30.325L36.156,30.325L37.602,30.305L39.048,30.265L40.495,30.203L41.941,30.118L43.387,30.007L44.833,29.869L46.28,29.697L47.726,29.487L49.172,29.23L50.618,28.917L52.064,28.532L53.511,28.056L54.957,27.462L56.403,26.717L57.849,25.781L59.296,24.605L60.742,23.137L62.188,21.322L63.634,19.104L65.081,16.425L66.527,13.232L67.973,9.469L69.419,5.078L70.866,0.002" style="fill:none;fill-rule:nonzero;stroke:white;stroke-opacity:0.2;stroke-width:0.4px;"/>
                    </g>
                    <g transform="matrix(1,0,0,1,302.565,45.7726)">
                        <path d="M0,0.005L1.446,6.662L2.892,12.582L4.339,17.826L5.785,22.452L7.231,26.516L8.677,30.069L10.124,33.163L11.57,35.842L13.016,38.151L14.462,40.13L15.909,41.816L17.355,43.243L18.801,44.441L20.247,45.44L21.694,46.265L23.14,46.939L24.586,47.484L26.032,47.919L27.478,48.26L28.925,48.522L30.371,48.717L31.817,48.855L33.263,48.943L34.71,48.985L36.156,48.985L37.602,48.943L39.048,48.855L40.495,48.717L41.941,48.522L43.387,48.26L44.833,47.919L46.28,47.484L47.726,46.939L49.172,46.265L50.618,45.44L52.064,44.441L53.511,43.243L54.957,41.816L56.403,40.13L57.849,38.151L59.296,35.842L60.742,33.163L62.188,30.069L63.634,26.516L65.081,22.452L66.527,17.826L67.973,12.582L69.419,6.662L70.866,0.005" style="fill:none;fill-rule:nonzero;stroke:white;stroke-opacity:0.2;stroke-width:0.4px;"/>
                    </g>
                    <g transform="matrix(1,0,0,1,302.565,41.2897)">
                        <path d="M0,0.005L1.446,7.203L2.892,13.642L4.339,19.381L5.785,24.475L7.231,28.973L8.677,32.926L10.124,36.378L11.57,39.373L13.016,41.952L14.462,44.152L15.909,46.013L17.355,47.569L18.801,48.859L20.247,49.915L21.694,50.771L23.14,51.459L24.586,52.006L26.032,52.436L27.478,52.769L28.925,53.023L30.371,53.211L31.817,53.344L33.263,53.428L34.71,53.468L36.156,53.468L37.602,53.428L39.048,53.344L40.495,53.211L41.941,53.023L43.387,52.769L44.833,52.436L46.28,52.006L47.726,51.459L49.172,50.771L50.618,49.915L52.064,48.859L53.511,47.569L54.957,46.013L56.403,44.152L57.849,41.952L59.296,39.373L60.742,36.378L62.188,32.926L63.634,28.973L65.081,24.475L66.527,19.381L67.973,13.642L69.419,7.203L70.866,0.005" style="fill:none;fill-rule:nonzero;stroke:white;stroke-opacity:0.2;stroke-width:0.4px;"/>
                    </g>
                    <g transform="matrix(1,0,0,1,302.565,45.8848)">
                        <path d="M0,0.005L1.446,6.703L2.892,12.663L4.339,17.944L5.785,22.602L7.231,26.689L8.677,30.257L10.124,33.356L11.57,36.031L13.016,38.326L14.462,40.284L15.909,41.943L17.355,43.339L18.801,44.506L20.247,45.473L21.694,46.268L23.14,46.916L24.586,47.438L26.032,47.854L27.478,48.18L28.925,48.43L30.371,48.617L31.817,48.748L33.263,48.832L34.71,48.873L36.156,48.873L37.602,48.832L39.048,48.748L40.495,48.617L41.941,48.43L43.387,48.18L44.833,47.854L46.28,47.438L47.726,46.916L49.172,46.268L50.618,45.473L52.064,44.506L53.511,43.339L54.957,41.943L56.403,40.284L57.849,38.326L59.296,36.031L60.742,33.356L62.188,30.257L63.634,26.689L65.081,22.602L66.527,17.944L67.973,12.663L69.419,6.703L70.866,0.005" style="fill:none;fill-rule:nonzero;stroke:white;stroke-opacity:0.2;stroke-width:0.4px;"/>
                    </g>
                    <g transform="matrix(1,0,0,1,302.565,42.8117)">
                        <path d="M0,0.006L1.446,6.777L2.892,12.819L4.339,18.197L5.785,22.969L7.231,27.19L8.677,30.913L10.124,34.185L11.57,37.051L13.016,39.55L14.462,41.721L15.909,43.596L17.355,45.204L18.801,46.575L20.247,47.732L21.694,48.699L23.14,49.497L24.586,50.147L26.032,50.668L27.478,51.078L28.925,51.393L30.371,51.626L31.817,51.79L33.263,51.895L34.71,51.945L36.156,51.945L37.602,51.895L39.048,51.79L40.495,51.626L41.941,51.393L43.387,51.078L44.833,50.668L46.28,50.147L47.726,49.497L49.172,48.699L50.618,47.732L52.064,46.575L53.511,45.204L54.957,43.596L56.403,41.721L57.849,39.55L59.296,37.051L60.742,34.185L62.188,30.913L63.634,27.19L65.081,22.969L66.527,18.197L67.973,12.819L69.419,6.777L70.866,0.006" style="fill:none;fill-rule:nonzero;stroke:white;stroke-opacity:0.2;stroke-width:0.4px;"/>
                    </g>
                    <g transform="matrix(1,0,0,1,302.565,34.4467)">
                        <path d="M0,0.006L1.446,8.035L2.892,15.232L4.339,21.654L5.785,27.359L7.231,32.401L8.677,36.832L10.124,40.704L11.57,44.067L13.016,46.968L14.462,49.452L15.909,51.563L17.355,53.344L18.801,54.831L20.247,56.063L21.694,57.073L23.14,57.893L24.586,58.549L26.032,59.067L27.478,59.47L28.925,59.777L30.371,60.003L31.817,60.162L33.263,60.262L34.71,60.31L36.156,60.31L37.602,60.262L39.048,60.162L40.495,60.003L41.941,59.777L43.387,59.47L44.833,59.067L46.28,58.549L47.726,57.893L49.172,57.073L50.618,56.063L52.064,54.831L53.511,53.344L54.957,51.563L56.403,49.452L57.849,46.968L59.296,44.067L60.742,40.704L62.188,36.832L63.634,32.401L65.081,27.359L66.527,21.654L67.973,15.232L69.419,8.035L70.866,0.006" style="fill:none;fill-rule:nonzero;stroke:white;stroke-opacity:0.2;stroke-width:0.4px;"/>
                    </g>
                    <g transform="matrix(1,0,0,1,302.565,45.8072)">
                        <path d="M0,0.005L1.446,6.748L2.892,12.75L4.339,18.07L5.785,22.762L7.231,26.881L8.677,30.477L10.124,33.597L11.57,36.287L13.016,38.591L14.462,40.55L15.909,42.202L17.355,43.585L18.801,44.733L20.247,45.679L21.694,46.451L23.14,47.077L24.586,47.579L26.032,47.977L27.478,48.289L28.925,48.528L30.371,48.706L31.817,48.832L33.263,48.912L34.71,48.951L36.156,48.951L37.602,48.912L39.048,48.832L40.495,48.706L41.941,48.528L43.387,48.289L44.833,47.977L46.28,47.579L47.726,47.077L49.172,46.451L50.618,45.679L52.064,44.733L53.511,43.585L54.957,42.202L56.403,40.55L57.849,38.591L59.296,36.287L60.742,33.597L62.188,30.477L63.634,26.881L65.081,22.762L66.527,18.07L67.973,12.75L69.419,6.748L70.866,0.005" style="fill:none;fill-rule:nonzero;stroke:white;stroke-opacity:0.2;stroke-width:0.4px;"/>
                    </g>
                    <g transform="matrix(1,0,0,1,302.565,42.2191)">
                        <path d="M0,0.006L1.446,6.941L2.892,13.144L4.339,18.672L5.785,23.581L7.231,27.923L8.677,31.747L10.124,35.099L11.57,38.021L13.016,40.554L14.462,42.736L15.909,44.602L17.355,46.185L18.801,47.518L20.247,48.628L21.694,49.545L23.14,50.293L24.586,50.896L26.032,51.375L27.478,51.75L28.925,52.036L30.371,52.248L31.817,52.398L33.263,52.492L34.71,52.538L36.156,52.538L37.602,52.492L39.048,52.398L40.495,52.248L41.941,52.036L43.387,51.75L44.833,51.375L46.28,50.896L47.726,50.293L49.172,49.545L50.618,48.628L52.064,47.518L53.511,46.185L54.957,44.602L56.403,42.736L57.849,40.554L59.296,38.021L60.742,35.099L62.188,31.747L63.634,27.923L65.081,23.581L66.527,18.672L67.973,13.144L69.419,6.941L70.866,0.006" style="fill:none;fill-rule:nonzero;stroke:white;stroke-opacity:0.2;stroke-width:0.4px;"/>
                    </g>
                    <g transform="matrix(1,0,0,1,302.565,23.886)">
                        <path d="M0,0.009L1.446,8.556L2.892,16.293L4.339,23.278L5.785,29.566L7.231,35.212L8.677,40.265L10.124,44.771L11.57,48.775L13.016,52.318L14.462,55.437L15.909,58.168L17.355,60.544L18.801,62.594L20.247,64.346L21.694,65.826L23.14,67.06L24.586,68.073L26.032,68.888L27.478,69.529L28.925,70.019L30.371,70.381L31.817,70.633L33.263,70.791L34.71,70.868L36.156,70.868L37.602,70.791L39.048,70.633L40.495,70.381L41.941,70.019L43.387,69.529L44.833,68.888L46.28,68.073L47.726,67.06L49.172,65.826L50.618,64.346L52.064,62.594L53.511,60.544L54.957,58.168L56.403,55.437L57.849,52.318L59.296,48.775L60.742,44.771L62.188,40.265L63.634,35.212L65.081,29.566L66.527,23.278L67.973,16.293L69.419,8.556L70.866,0.009" style="fill:none;fill-rule:nonzero;stroke:white;stroke-opacity:0.2;stroke-width:0.4px;"/>
                    </g>
                    <g transform="matrix(1,0,0,1,302.565,39.8131)">
                        <path d="M0,0.006L1.446,7.431L2.892,14.058L4.339,19.946L5.785,25.156L7.231,29.743L8.677,33.761L10.124,37.263L11.57,40.296L13.016,42.907L14.462,45.141L15.909,47.038L17.355,48.638L18.801,49.975L20.247,51.084L21.694,51.995L23.14,52.735L24.586,53.33L26.032,53.802L27.478,54.17L28.925,54.451L30.371,54.66L31.817,54.806L33.263,54.899L34.71,54.944L36.156,54.944L37.602,54.899L39.048,54.806L40.495,54.66L41.941,54.451L43.387,54.17L44.833,53.802L46.28,53.33L47.726,52.735L49.172,51.995L50.618,51.084L52.064,49.975L53.511,48.638L54.957,47.038L56.403,45.141L57.849,42.907L59.296,40.296L60.742,37.263L62.188,33.761L63.634,29.743L65.081,25.156L66.527,19.946L67.973,14.058L69.419,7.431L70.866,0.006" style="fill:none;fill-rule:nonzero;stroke:white;stroke-opacity:0.2;stroke-width:0.4px;"/>
                    </g>
                    <g transform="matrix(1,0,0,1,302.565,51.7836)">
                        <path d="M0,0.004L1.446,6.278L2.892,11.822L4.339,16.697L5.785,20.956L7.231,24.656L8.677,27.846L10.124,30.576L11.57,32.893L13.016,34.842L14.462,36.467L15.909,37.81L17.355,38.909L18.801,39.804L20.247,40.527L21.694,41.108L23.14,41.575L24.586,41.947L26.032,42.242L27.478,42.474L28.925,42.653L30.371,42.788L31.817,42.884L33.263,42.946L34.71,42.976L36.156,42.976L37.602,42.946L39.048,42.884L40.495,42.788L41.941,42.653L43.387,42.474L44.833,42.242L46.28,41.947L47.726,41.575L49.172,41.108L50.618,40.527L52.064,39.804L53.511,38.909L54.957,37.81L56.403,36.467L57.849,34.842L59.296,32.893L60.742,30.576L62.188,27.846L63.634,24.656L65.081,20.956L66.527,16.697L67.973,11.822L69.419,6.278L70.866,0.004" style="fill:none;fill-rule:nonzero;stroke:white;stroke-opacity:0.2;stroke-width:0.4px;"/>
                    </g>
                    <g transform="matrix(1,0,0,1,302.565,36.0527)">
                        <path d="M0,0.007L1.446,7.529L2.892,14.278L4.339,20.314L5.785,25.693L7.231,30.469L8.677,34.693L10.124,38.415L11.57,41.679L13.016,44.529L14.462,47.004L15.909,49.141L17.355,50.975L18.801,52.536L20.247,53.854L21.694,54.957L23.14,55.87L24.586,56.616L26.032,57.217L27.478,57.692L28.925,58.059L30.371,58.331L31.817,58.523L33.263,58.644L34.71,58.703L36.156,58.703L37.602,58.644L39.048,58.523L40.495,58.331L41.941,58.059L43.387,57.692L44.833,57.217L46.28,56.616L47.726,55.87L49.172,54.957L50.618,53.854L52.064,52.536L53.511,50.975L54.957,49.141L56.403,47.004L57.849,44.529L59.296,41.679L60.742,38.415L62.188,34.693L63.634,30.469L65.081,25.693L66.527,20.314L67.973,14.278L69.419,7.529L70.866,0.007" style="fill:none;fill-rule:nonzero;stroke:white;stroke-opacity:0.2;stroke-width:0.4px;"/>
                    </g>
                    <g transform="matrix(1,0,0,1,302.565,46.1738)">
                        <path d="M0,0.005L1.446,6.748L2.892,12.735L4.339,18.026L5.785,22.681L7.231,26.754L8.677,30.3L10.124,33.369L11.57,36.012L13.016,38.273L14.462,40.196L15.909,41.822L17.355,43.188L18.801,44.327L20.247,45.27L21.694,46.045L23.14,46.676L24.586,47.184L26.032,47.589L27.478,47.907L28.925,48.152L30.371,48.334L31.817,48.462L33.263,48.544L34.71,48.584L36.156,48.584L37.602,48.544L39.048,48.462L40.495,48.334L41.941,48.152L43.387,47.907L44.833,47.589L46.28,47.184L47.726,46.676L49.172,46.045L50.618,45.27L52.064,44.327L53.511,43.188L54.957,41.822L56.403,40.196L57.849,38.273L59.296,36.012L60.742,33.369L62.188,30.3L63.634,26.754L65.081,22.681L66.527,18.026L67.973,12.735L69.419,6.748L70.866,0.005" style="fill:none;fill-rule:nonzero;stroke:white;stroke-opacity:0.2;stroke-width:0.4px;"/>
                    </g>
                    <g transform="matrix(1,0,0,1,302.565,48.1974)">
                        <path d="M0,0.004L1.446,6.552L2.892,12.366L4.339,17.506L5.785,22.027L7.231,25.983L8.677,29.426L10.124,32.402L11.57,34.96L13.016,37.141L14.462,38.986L15.909,40.535L17.355,41.821L18.801,42.88L20.247,43.741L21.694,44.435L23.14,44.987L24.586,45.421L26.032,45.759L27.478,46.019L28.925,46.216L30.371,46.362L31.817,46.464L33.263,46.53L34.71,46.562L36.156,46.562L37.602,46.53L39.048,46.464L40.495,46.362L41.941,46.216L43.387,46.019L44.833,45.759L46.28,45.421L47.726,44.987L49.172,44.435L50.618,43.741L52.064,42.88L53.511,41.821L54.957,40.535L56.403,38.986L57.849,37.141L59.296,34.96L60.742,32.402L62.188,29.426L63.634,25.983L65.081,22.027L66.527,17.506L67.973,12.366L69.419,6.552L70.866,0.004" style="fill:none;fill-rule:nonzero;stroke:white;stroke-opacity:0.2;stroke-width:0.4px;"/>
                    </g>
                    <g transform="matrix(1,0,0,1,302.565,31.1616)">
                        <path d="M0,0.008L1.446,7.938L2.892,15.083L4.339,21.501L5.785,27.249L7.231,32.38L8.677,36.945L10.124,40.992L11.57,44.565L13.016,47.706L14.462,50.452L15.909,52.838L17.355,54.898L18.801,56.661L20.247,58.155L21.694,59.408L23.14,60.444L24.586,61.287L26.032,61.962L27.478,62.491L28.925,62.894L30.371,63.192L31.817,63.399L33.263,63.53L34.71,63.594L36.156,63.594L37.602,63.53L39.048,63.399L40.495,63.192L41.941,62.894L43.387,62.491L44.833,61.962L46.28,61.287L47.726,60.444L49.172,59.408L50.618,58.155L52.064,56.661L53.511,54.898L54.957,52.838L56.403,50.452L57.849,47.706L59.296,44.565L60.742,40.992L62.188,36.945L63.634,32.38L65.081,27.249L66.527,21.501L67.973,15.083L69.419,7.938L70.866,0.008" style="fill:none;fill-rule:nonzero;stroke:white;stroke-opacity:0.2;stroke-width:0.4px;"/>
                    </g>
                    <g transform="matrix(1,0,0,1,302.565,45.8429)">
                        <path d="M0,0.006L1.446,6.692L2.892,12.634L4.339,17.892L5.785,22.521L7.231,26.578L8.677,30.117L10.124,33.187L11.57,35.837L13.016,38.115L14.462,40.062L15.909,41.72L17.355,43.124L18.801,44.308L20.247,45.3L21.694,46.124L23.14,46.805L24.586,47.359L26.032,47.805L27.478,48.158L28.925,48.43L30.371,48.634L31.817,48.778L33.263,48.87L34.71,48.915L36.156,48.915L37.602,48.87L39.048,48.778L40.495,48.634L41.941,48.43L43.387,48.158L44.833,47.805L46.28,47.359L47.726,46.805L49.172,46.124L50.618,45.3L52.064,44.308L53.511,43.124L54.957,41.72L56.403,40.062L57.849,38.115L59.296,35.837L60.742,33.187L62.188,30.117L63.634,26.578L65.081,22.521L66.527,17.892L67.973,12.634L69.419,6.692L70.866,0.006" style="fill:none;fill-rule:nonzero;stroke:white;stroke-opacity:0.2;stroke-width:0.4px;"/>
                    </g>
                    <g transform="matrix(1,0,0,1,302.565,30.5281)">
                        <path d="M0,0.006L1.446,8.482L2.892,16.098L4.339,22.909L5.785,28.973L7.231,34.344L8.677,39.074L10.124,43.215L11.57,46.816L13.016,49.927L14.462,52.594L15.909,54.862L17.355,56.775L18.801,58.373L20.247,59.696L21.694,60.779L23.14,61.657L24.586,62.358L26.032,62.911L27.478,63.34L28.925,63.666L30.371,63.905L31.817,64.072L33.263,64.178L34.71,64.229L36.156,64.229L37.602,64.178L39.048,64.072L40.495,63.905L41.941,63.666L43.387,63.34L44.833,62.911L46.28,62.358L47.726,61.657L49.172,60.779L50.618,59.696L52.064,58.373L53.511,56.775L54.957,54.862L56.403,52.594L57.849,49.927L59.296,46.816L60.742,43.215L62.188,39.074L63.634,34.344L65.081,28.973L66.527,22.909L67.973,16.098L69.419,8.482L70.866,0.006" style="fill:none;fill-rule:nonzero;stroke:white;stroke-opacity:0.2;stroke-width:0.4px;"/>
                    </g>
                    <g transform="matrix(1,0,0,1,302.565,53.5755)">
                        <path d="M0,0.004L1.446,5.991L2.892,11.281L4.339,15.929L5.785,19.992L7.231,23.521L8.677,26.566L10.124,29.173L11.57,31.388L13.016,33.255L14.462,34.815L15.909,36.108L17.355,37.171L18.801,38.041L20.247,38.748L21.694,39.32L23.14,39.781L24.586,40.152L26.032,40.447L27.478,40.679L28.925,40.859L30.371,40.994L31.817,41.091L33.263,41.153L34.71,41.184L36.156,41.184L37.602,41.153L39.048,41.091L40.495,40.994L41.941,40.859L43.387,40.679L44.833,40.447L46.28,40.152L47.726,39.781L49.172,39.32L50.618,38.748L52.064,38.041L53.511,37.171L54.957,36.108L56.403,34.815L57.849,33.255L59.296,31.388L60.742,29.173L62.188,26.566L63.634,23.521L65.081,19.992L66.527,15.929L67.973,11.281L69.419,5.991L70.866,0.004" style="fill:none;fill-rule:nonzero;stroke:white;stroke-opacity:0.2;stroke-width:0.4px;"/>
                    </g>
                    <g transform="matrix(1,0,0,1,302.565,50.8287)">
                        <path d="M0,0.004L1.446,6.338L2.892,11.946L4.339,16.887L5.785,21.216L7.231,24.986L8.677,28.249L10.124,31.051L11.57,33.439L13.016,35.456L14.462,37.145L15.909,38.546L17.355,39.697L18.801,40.634L20.247,41.392L21.694,42L23.14,42.486L24.586,42.873L26.032,43.178L27.478,43.417L28.925,43.601L30.371,43.739L31.817,43.837L33.263,43.9L34.71,43.931L36.156,43.931L37.602,43.9L39.048,43.837L40.495,43.739L41.941,43.601L43.387,43.417L44.833,43.178L46.28,42.873L47.726,42.486L49.172,42L50.618,41.392L52.064,40.634L53.511,39.697L54.957,38.546L56.403,37.145L57.849,35.456L59.296,33.439L60.742,31.051L62.188,28.249L63.634,24.986L65.081,21.216L66.527,16.887L67.973,11.946L69.419,6.338L70.866,0.004" style="fill:none;fill-rule:nonzero;stroke:white;stroke-opacity:0.2;stroke-width:0.4px;"/>
                    </g>
                    <g transform="matrix(1,0,0,1,302.565,44.3118)">
                        <path d="M0,0.005L1.446,6.926L2.892,13.103L4.339,18.594L5.785,23.453L7.231,27.729L8.677,31.471L10.124,34.724L11.57,37.53L13.016,39.931L14.462,41.966L15.909,43.675L17.355,45.097L18.801,46.267L20.247,47.223L21.694,47.996L23.14,48.617L24.586,49.112L26.032,49.501L27.478,49.805L28.925,50.037L30.371,50.209L31.817,50.331L33.263,50.409L34.71,50.447L36.156,50.447L37.602,50.409L39.048,50.331L40.495,50.209L41.941,50.037L43.387,49.805L44.833,49.501L46.28,49.112L47.726,48.617L49.172,47.996L50.618,47.223L52.064,46.267L53.511,45.097L54.957,43.675L56.403,41.966L57.849,39.931L59.296,37.53L60.742,34.724L62.188,31.471L63.634,27.729L65.081,23.453L66.527,18.594L67.973,13.103L69.419,6.926L70.866,0.005" style="fill:none;fill-rule:nonzero;stroke:white;stroke-opacity:0.2;stroke-width:0.4px;"/>
                    </g>
                </g>
            </g>
        </g>
    </g>
    <circle cx="0.222" cy="0.222" r="0.222"/>
    <g transform="matrix(1,0,0,1,391.372,119.555)">
        <circle cx="0.222" cy="0.222" r="0.222"/>
    </g>
</svg>
