<?xml version="1.0" encoding="UTF-8" standalone="no"?>
<!DOCTYPE svg PUBLIC "-//W3C//DTD SVG 1.1//EN" "http://www.w3.org/Graphics/SVG/1.1/DTD/svg11.dtd">
<svg width="100%" height="100%" viewBox="0 0 392 120" version="1.1" xmlns="http://www.w3.org/2000/svg" xmlns:xlink="http://www.w3.org/1999/xlink" xml:space="preserve" xmlns:serif="http://www.serif.com/" style="fill-rule:evenodd;clip-rule:evenodd;stroke-miterlimit:10;">
    <g transform="matrix(1,0,0,1,-9.35073,-8.4435)">
        <g id="Uniaxial">
            <g>
                <g id="preds">
                    <g transform="matrix(1,0,0,1,58.389,36.6586)">
                        <path d="M0,10.313L1.446,15.778L2.892,20.791L4.339,25.375L5.785,29.555L7.231,33.354L8.677,36.794L10.124,39.896L11.57,42.682L13.016,45.171L14.462,47.381L15.909,49.333L17.355,51.043L18.801,52.529L20.247,53.808L21.694,54.896L23.14,55.808L24.586,56.557L26.032,57.158L27.478,57.622L28.925,57.959L30.371,58.177L31.817,58.286L33.263,58.289L34.71,58.191L36.156,57.993L37.602,57.696L39.048,57.297L40.495,56.794L41.941,56.18L43.387,55.447L44.833,54.589L46.28,53.592L47.726,52.447L49.172,51.14L50.618,49.657L52.064,47.983L53.511,46.101L54.957,43.996L56.403,41.649L57.849,39.042L59.296,36.158L60.742,32.977L62.188,29.479L63.634,25.643L65.081,21.448L66.527,16.873L67.973,11.893L69.419,6.485L70.866,0.623" style="fill:none;fill-rule:nonzero;stroke:white;stroke-opacity:0.2;stroke-width:0.4px;"/>
                    </g>
                    <g transform="matrix(1,0,0,1,58.389,45.7593)">
                        <path d="M0,9.607L1.446,14.384L2.892,18.719L4.339,22.642L5.785,26.181L7.231,29.362L8.677,32.213L10.124,34.758L11.57,37.021L13.016,39.023L14.462,40.786L15.909,42.33L17.355,43.672L18.801,44.831L20.247,45.823L21.694,46.661L23.14,47.36L24.586,47.931L26.032,48.385L27.478,48.732L28.925,48.978L30.371,49.132L31.817,49.199L33.263,49.181L34.71,49.083L36.156,48.905L37.602,48.647L39.048,48.308L40.495,47.885L41.941,47.374L43.387,46.77L44.833,46.065L46.28,45.252L47.726,44.321L49.172,43.261L50.618,42.06L52.064,40.706L53.511,39.182L54.957,37.473L56.403,35.562L57.849,33.43L59.296,31.057L60.742,28.422L62.188,25.503L63.634,22.276L65.081,18.716L66.527,14.798L67.973,10.494L69.419,5.776L70.866,0.613" style="fill:none;fill-rule:nonzero;stroke:white;stroke-opacity:0.2;stroke-width:0.4px;"/>
                    </g>
                    <g transform="matrix(1,0,0,1,58.389,29.3695)">
                        <path d="M0,9.861L1.446,16.1L2.892,21.827L4.339,27.073L5.785,31.864L7.231,36.228L8.677,40.189L10.124,43.771L11.57,46.997L13.016,49.889L14.462,52.466L15.909,54.751L17.355,56.76L18.801,58.514L20.247,60.03L21.694,61.325L23.14,62.417L24.586,63.321L26.032,64.052L27.478,64.624L28.925,65.05L30.371,65.34L31.817,65.502L33.263,65.545L34.71,65.472L36.156,65.286L37.602,64.987L39.048,64.573L40.495,64.038L41.941,63.376L43.387,62.578L44.833,61.634L46.28,60.53L47.726,59.252L49.172,57.787L50.618,56.118L52.064,54.228L53.511,52.099L54.957,49.715L56.403,47.055L57.849,44.101L59.296,40.832L60.742,37.229L62.188,33.268L63.634,28.928L65.081,24.185L66.527,19.014L67.973,13.387L69.419,7.278L70.866,0.656" style="fill:none;fill-rule:nonzero;stroke:white;stroke-opacity:0.2;stroke-width:0.4px;"/>
                    </g>
                    <g transform="matrix(1,0,0,1,58.389,27.3191)">
                        <path d="M0,11.781L1.446,17.986L2.892,23.684L4.339,28.906L5.785,33.681L7.231,38.035L8.677,41.996L10.124,45.588L11.57,48.832L13.016,51.752L14.462,54.365L15.909,56.692L17.355,58.75L18.801,60.553L20.247,62.119L21.694,63.462L23.14,64.595L24.586,65.532L26.032,66.285L27.478,66.868L28.925,67.29L30.371,67.563L31.817,67.694L33.263,67.69L34.71,67.558L36.156,67.298L37.602,66.913L39.048,66.4L40.495,65.754L41.941,64.971L43.387,64.042L44.833,62.958L46.28,61.709L47.726,60.282L49.172,58.667L50.618,56.849L52.064,54.816L53.511,52.552L54.957,50.042L56.403,47.271L57.849,44.219L59.296,40.869L60.742,37.2L62.188,33.19L63.634,28.817L65.081,24.054L66.527,18.875L67.973,13.253L69.419,7.157L70.866,0.558" style="fill:none;fill-rule:nonzero;stroke:white;stroke-opacity:0.2;stroke-width:0.4px;"/>
                    </g>
                    <g transform="matrix(1,0,0,1,58.389,47.1116)">
                        <path d="M0,10.403L1.446,15.045L2.892,19.243L4.339,23.026L5.785,26.425L7.231,29.468L8.677,32.183L10.124,34.595L11.57,36.73L13.016,38.612L14.462,40.262L15.909,41.7L17.355,42.947L18.801,44.019L20.247,44.931L21.694,45.699L23.14,46.335L24.586,46.85L26.032,47.253L27.478,47.555L28.925,47.762L30.371,47.88L31.817,47.914L33.263,47.867L34.71,47.743L36.156,47.541L37.602,47.263L39.048,46.906L40.495,46.47L41.941,45.949L43.387,45.339L44.833,44.635L46.28,43.828L47.726,42.911L49.172,41.872L50.618,40.702L52.064,39.387L53.511,37.913L54.957,36.264L56.403,34.423L57.849,32.371L59.296,30.087L60.742,27.55L62.188,24.735L63.634,21.619L65.081,18.174L66.527,14.373L67.973,10.188L69.419,5.589L70.866,0.546" style="fill:none;fill-rule:nonzero;stroke:white;stroke-opacity:0.2;stroke-width:0.4px;"/>
                    </g>
                    <g transform="matrix(1,0,0,1,58.389,52.9215)">
                        <path d="M0,8.107L1.446,12.377L2.892,16.22L4.339,19.666L5.785,22.746L7.231,25.489L8.677,27.923L10.124,30.076L11.57,31.972L13.016,33.637L14.462,35.092L15.909,36.358L17.355,37.454L18.801,38.396L20.247,39.201L21.694,39.881L23.14,40.448L24.586,40.913L26.032,41.285L27.478,41.571L28.925,41.777L30.371,41.91L31.817,41.973L33.263,41.969L34.71,41.9L36.156,41.767L37.602,41.57L39.048,41.307L40.495,40.976L41.941,40.574L43.387,40.095L44.833,39.536L46.28,38.888L47.726,38.143L49.172,37.293L50.618,36.326L52.064,35.23L53.511,33.992L54.957,32.596L56.403,31.025L57.849,29.26L59.296,27.28L60.742,25.062L62.188,22.582L63.634,19.815L65.081,16.733L66.527,13.308L67.973,9.51L69.419,5.31L70.866,0.677" style="fill:none;fill-rule:nonzero;stroke:white;stroke-opacity:0.2;stroke-width:0.4px;"/>
                    </g>
                    <g transform="matrix(1,0,0,1,58.389,37.8205)">
                        <path d="M0,11.729L1.446,17.173L2.892,22.131L4.339,26.633L5.785,30.707L7.231,34.382L8.677,37.683L10.124,40.638L11.57,43.27L13.016,45.604L14.462,47.662L15.909,49.465L17.355,51.034L18.801,52.386L20.247,53.54L21.694,54.513L23.14,55.317L24.586,55.968L26.032,56.478L27.478,56.856L28.925,57.113L30.371,57.256L31.817,57.292L33.263,57.226L34.71,57.061L36.156,56.8L37.602,56.442L39.048,55.987L40.495,55.433L41.941,54.775L43.387,54.007L44.833,53.123L46.28,52.113L47.726,50.969L49.172,49.677L50.618,48.226L52.064,46.6L53.511,44.783L54.957,42.759L56.403,40.508L57.849,38.009L59.296,35.243L60.742,32.184L62.188,28.811L63.634,25.097L65.081,21.015L66.527,16.54L67.973,11.641L69.419,6.291L70.866,0.458" style="fill:none;fill-rule:nonzero;stroke:white;stroke-opacity:0.2;stroke-width:0.4px;"/>
                    </g>
                    <g transform="matrix(1,0,0,1,58.389,45.6623)">
                        <path d="M0,10.418L1.446,15.379L2.892,19.838L4.339,23.83L5.785,27.393L7.231,30.561L8.677,33.369L10.124,35.849L11.57,38.033L13.016,39.947L14.462,41.619L15.909,43.072L17.355,44.328L18.801,45.405L20.247,46.322L21.694,47.092L23.14,47.73L24.586,48.247L26.032,48.654L27.478,48.959L28.925,49.171L30.371,49.296L31.817,49.337L33.263,49.3L34.71,49.186L36.156,48.996L37.602,48.731L39.048,48.388L40.495,47.965L41.941,47.459L43.387,46.863L44.833,46.171L46.28,45.375L47.726,44.467L49.172,43.436L50.618,42.27L52.064,40.954L53.511,39.475L54.957,37.815L56.403,35.955L57.849,33.873L59.296,31.546L60.742,28.948L62.188,26.052L63.634,22.825L65.081,19.237L66.527,15.252L67.973,10.837L69.419,5.956L70.866,0.571" style="fill:none;fill-rule:nonzero;stroke:white;stroke-opacity:0.2;stroke-width:0.4px;"/>
                    </g>
                    <g transform="matrix(1,0,0,1,58.389,37.6868)">
                        <path d="M0,11.172L1.446,16.633L2.892,21.612L4.339,26.138L5.785,30.243L7.231,33.954L8.677,37.301L10.124,40.311L11.57,43.009L13.016,45.421L14.462,47.567L15.909,49.464L17.355,51.129L18.801,52.572L20.247,53.807L21.694,54.845L23.14,55.696L24.586,56.374L26.032,56.892L27.478,57.26L28.925,57.492L30.371,57.596L31.817,57.582L33.263,57.458L34.71,57.229L36.156,56.899L37.602,56.47L39.048,55.944L40.495,55.318L41.941,54.591L43.387,53.757L44.833,52.812L46.28,51.747L47.726,50.553L49.172,49.221L50.618,47.738L52.064,46.091L53.511,44.264L54.957,42.241L56.403,40.002L57.849,37.526L59.296,34.789L60.742,31.768L62.188,28.434L63.634,24.761L65.081,20.719L66.527,16.281L67.973,11.416L69.419,6.095L70.866,0.288" style="fill:none;fill-rule:nonzero;stroke:white;stroke-opacity:0.2;stroke-width:0.4px;"/>
                    </g>
                    <g transform="matrix(1,0,0,1,58.389,44.3038)">
                        <path d="M0,9.929L1.446,14.794L2.892,19.216L4.339,23.224L5.785,26.847L7.231,30.112L8.677,33.043L10.124,35.666L11.57,38.003L13.016,40.076L14.462,41.905L15.909,43.51L17.355,44.909L18.801,46.118L20.247,47.154L21.694,48.03L23.14,48.761L24.586,49.358L26.032,49.832L27.478,50.193L28.925,50.45L30.371,50.608L31.817,50.674L33.263,50.652L34.71,50.544L36.156,50.353L37.602,50.078L39.048,49.718L40.495,49.27L41.941,48.73L43.387,48.092L44.833,47.349L46.28,46.494L47.726,45.516L49.172,44.405L50.618,43.148L52.064,41.733L53.511,40.144L54.957,38.365L56.403,36.381L57.849,34.172L59.296,31.72L60.742,29.003L62.188,26L63.634,22.688L65.081,19.042L66.527,15.038L67.973,10.647L69.419,5.842L70.866,0.593" style="fill:none;fill-rule:nonzero;stroke:white;stroke-opacity:0.2;stroke-width:0.4px;"/>
                    </g>
                    <g transform="matrix(1,0,0,1,58.389,44.7595)">
                        <path d="M0,9.158L1.446,14.045L2.892,18.485L4.339,22.509L5.785,26.145L7.231,29.421L8.677,32.362L10.124,34.993L11.57,37.338L13.016,39.418L14.462,41.255L15.909,42.868L17.355,44.274L18.801,45.492L20.247,46.537L21.694,47.423L23.14,48.165L24.586,48.773L26.032,49.26L27.478,49.635L28.925,49.907L30.371,50.081L31.817,50.166L33.263,50.163L34.71,50.077L36.156,49.909L37.602,49.659L39.048,49.325L40.495,48.904L41.941,48.392L43.387,47.782L44.833,47.069L46.28,46.243L47.726,45.294L49.172,44.211L50.618,42.983L52.064,41.595L53.511,40.032L54.957,38.279L56.403,36.319L57.849,34.133L59.296,31.701L60.742,29.004L62.188,26.018L63.634,22.72L65.081,19.087L66.527,15.09L67.973,10.704L69.419,5.899L70.866,0.646" style="fill:none;fill-rule:nonzero;stroke:white;stroke-opacity:0.2;stroke-width:0.4px;"/>
                    </g>
                    <g transform="matrix(1,0,0,1,58.389,40.3241)">
                        <path d="M0,11.073L1.446,16.354L2.892,21.149L4.339,25.488L5.785,29.402L7.231,32.923L8.677,36.079L10.124,38.895L11.57,41.399L13.016,43.615L14.462,45.566L15.909,47.273L17.355,48.756L18.801,50.035L20.247,51.126L21.694,52.046L23.14,52.809L24.586,53.429L26.032,53.916L27.478,54.282L28.925,54.534L30.371,54.682L31.817,54.729L33.263,54.682L34.71,54.542L36.156,54.313L37.602,53.993L39.048,53.583L40.495,53.078L41.941,52.475L43.387,51.769L44.833,50.951L46.28,50.015L47.726,48.949L49.172,47.742L50.618,46.382L52.064,44.854L53.511,43.142L54.957,41.228L56.403,39.095L57.849,36.722L59.296,34.087L60.742,31.167L62.188,27.938L63.634,24.373L65.081,20.446L66.527,16.128L67.973,11.388L69.419,6.196L70.866,0.518" style="fill:none;fill-rule:nonzero;stroke:white;stroke-opacity:0.2;stroke-width:0.4px;"/>
                    </g>
                    <g transform="matrix(1,0,0,1,58.389,39.2795)">
                        <path d="M0,9.435L1.446,14.499L2.892,19.143L4.339,23.393L5.785,27.277L7.231,30.818L8.677,34.039L10.124,36.963L11.57,39.607L13.016,41.991L14.462,44.13L15.909,46.042L17.355,47.739L18.801,49.235L20.247,50.542L21.694,51.673L23.14,52.638L24.586,53.449L26.032,54.115L27.478,54.646L28.925,55.05L30.371,55.336L31.817,55.51L33.263,55.577L34.71,55.54L36.156,55.401L37.602,55.158L39.048,54.81L40.495,54.351L41.941,53.775L43.387,53.075L44.833,52.243L46.28,51.268L47.726,50.141L49.172,48.85L50.618,47.386L52.064,45.735L53.511,43.888L54.957,41.83L56.403,39.55L57.849,37.031L59.296,34.261L60.742,31.221L62.188,27.894L63.634,24.261L65.081,20.301L66.527,15.991L67.973,11.307L69.419,6.224L70.866,0.714" style="fill:none;fill-rule:nonzero;stroke:white;stroke-opacity:0.2;stroke-width:0.4px;"/>
                    </g>
                    <g transform="matrix(1,0,0,1,58.389,39.1949)">
                        <path d="M0,11.021L1.446,16.335L2.892,21.179L4.339,25.582L5.785,29.572L7.231,33.178L8.677,36.424L10.124,39.336L11.57,41.935L13.016,44.245L14.462,46.286L15.909,48.078L17.355,49.64L18.801,50.988L20.247,52.14L21.694,53.112L23.14,53.917L24.586,54.568L26.032,55.079L27.478,55.459L28.925,55.718L30.371,55.864L31.817,55.903L33.263,55.842L34.71,55.683L36.156,55.429L37.602,55.081L39.048,54.638L40.495,54.097L41.941,53.455L43.387,52.705L44.833,51.842L46.28,50.857L47.726,49.739L49.172,48.478L50.618,47.06L52.064,45.471L53.511,43.696L54.957,41.719L56.403,39.519L57.849,37.079L59.296,34.377L60.742,31.392L62.188,28.101L63.634,24.479L65.081,20.5L66.527,16.139L67.973,11.367L69.419,6.155L70.866,0.473" style="fill:none;fill-rule:nonzero;stroke:white;stroke-opacity:0.2;stroke-width:0.4px;"/>
                    </g>
                    <g transform="matrix(1,0,0,1,58.389,41.2253)">
                        <path d="M0,10.649L1.446,15.747L2.892,20.394L4.339,24.617L5.785,28.444L7.231,31.901L8.677,35.013L10.124,37.804L11.57,40.297L13.016,42.512L14.462,44.471L15.909,46.192L17.355,47.693L18.801,48.992L20.247,50.103L21.694,51.043L23.14,51.825L24.586,52.462L26.032,52.964L27.478,53.342L28.925,53.606L30.371,53.761L31.817,53.816L33.263,53.774L34.71,53.639L36.156,53.413L37.602,53.096L39.048,52.687L40.495,52.183L41.941,51.58L43.387,50.873L44.833,50.054L46.28,49.116L47.726,48.048L49.172,46.84L50.618,45.478L52.064,43.949L53.511,42.239L54.957,40.331L56.403,38.208L57.849,35.852L59.296,33.243L60.742,30.36L62.188,27.182L63.634,23.685L65.081,19.845L66.527,15.637L67.973,11.033L69.419,6.007L70.866,0.529" style="fill:none;fill-rule:nonzero;stroke:white;stroke-opacity:0.2;stroke-width:0.4px;"/>
                    </g>
                    <g transform="matrix(1,0,0,1,58.389,43.4534)">
                        <path d="M0,10.732L1.446,15.684L2.892,20.177L4.339,24.243L5.785,27.911L7.231,31.208L8.677,34.163L10.124,36.8L11.57,39.144L13.016,41.218L14.462,43.043L15.909,44.641L17.355,46.029L18.801,47.226L20.247,48.247L21.694,49.108L23.14,49.822L24.586,50.4L26.032,50.854L27.478,51.194L28.925,51.427L30.371,51.56L31.817,51.599L33.263,51.548L34.71,51.411L36.156,51.187L37.602,50.879L39.048,50.485L40.495,50.001L41.941,49.426L43.387,48.753L44.833,47.976L46.28,47.088L47.726,46.078L49.172,44.937L50.618,43.652L52.064,42.211L53.511,40.597L54.957,38.796L56.403,36.789L57.849,34.558L59.296,32.081L60.742,29.337L62.188,26.302L63.634,22.953L65.081,19.261L66.527,15.202L67.973,10.745L69.419,5.861L70.866,0.518" style="fill:none;fill-rule:nonzero;stroke:white;stroke-opacity:0.2;stroke-width:0.4px;"/>
                    </g>
                    <g transform="matrix(1,0,0,1,58.389,64.3391)">
                        <path d="M0,10.712L1.446,13.567L2.892,16.067L4.339,18.254L5.785,20.167L7.231,21.84L8.677,23.305L10.124,24.586L11.57,25.705L13.016,26.682L14.462,27.531L15.909,28.266L17.355,28.897L18.801,29.433L20.247,29.882L21.694,30.25L23.14,30.542L24.586,30.762L26.032,30.914L27.478,31L28.925,31.025L30.371,30.99L31.817,30.897L33.263,30.749L34.71,30.546L36.156,30.289L37.602,29.98L39.048,29.618L40.495,29.205L41.941,28.739L43.387,28.221L44.833,27.648L46.28,27.019L47.726,26.332L49.172,25.584L50.618,24.771L52.064,23.888L53.511,22.929L54.957,21.886L56.403,20.749L57.849,19.506L59.296,18.144L60.742,16.646L62.188,14.991L63.634,13.157L65.081,11.117L66.527,8.839L67.973,6.289L69.419,3.425L70.866,0.207" style="fill:none;fill-rule:nonzero;stroke:white;stroke-opacity:0.2;stroke-width:0.4px;"/>
                    </g>
                    <g transform="matrix(1,0,0,1,58.389,23.2378)">
                        <path d="M0,9.84L1.446,16.939L2.892,23.451L4.339,29.405L5.785,34.83L7.231,39.753L8.677,44.203L10.124,48.206L11.57,51.79L13.016,54.981L14.462,57.805L15.909,60.289L17.355,62.456L18.801,64.333L20.247,65.942L21.694,67.306L23.14,68.448L24.586,69.387L26.032,70.142L27.478,70.73L28.925,71.165L30.371,71.462L31.817,71.628L33.263,71.674L34.71,71.603L36.156,71.419L37.602,71.121L39.048,70.707L40.495,70.172L41.941,69.506L43.387,68.701L44.833,67.744L46.28,66.618L47.726,65.309L49.172,63.796L50.618,62.059L52.064,60.077L53.511,57.827L54.957,55.285L56.403,52.427L57.849,49.227L59.296,45.659L60.742,41.697L62.188,37.315L63.634,32.486L65.081,27.182L66.527,21.375L67.973,15.039L69.419,8.143L70.866,0.659" style="fill:none;fill-rule:nonzero;stroke:white;stroke-opacity:0.2;stroke-width:0.4px;"/>
                    </g>
                    <g transform="matrix(1,0,0,1,58.389,49.4481)">
                        <path d="M0,10.999L1.446,15.252L2.892,19.095L4.339,22.563L5.785,25.684L7.231,28.487L8.677,31L10.124,33.246L11.57,35.248L13.016,37.025L14.462,38.595L15.909,39.974L17.355,41.175L18.801,42.211L20.247,43.093L21.694,43.833L23.14,44.44L24.586,44.924L26.032,45.292L27.478,45.552L28.925,45.711L30.371,45.775L31.817,45.749L33.263,45.637L34.71,45.443L36.156,45.167L37.602,44.812L39.048,44.378L40.495,43.863L41.941,43.266L43.387,42.584L44.833,41.812L46.28,40.945L47.726,39.978L49.172,38.903L50.618,37.71L52.064,36.392L53.511,34.935L54.957,33.328L56.403,31.557L57.849,29.606L59.296,27.456L60.742,25.089L62.188,22.482L63.634,19.612L65.081,16.454L66.527,12.978L67.973,9.156L69.419,4.957L70.866,0.348" style="fill:none;fill-rule:nonzero;stroke:white;stroke-opacity:0.2;stroke-width:0.4px;"/>
                    </g>
                    <g transform="matrix(1,0,0,1,58.389,34.6416)">
                        <path d="M0,10.159L1.446,15.565L2.892,20.52L4.339,25.053L5.785,29.192L7.231,32.965L8.677,36.397L10.124,39.515L11.57,42.343L13.016,44.904L14.462,47.221L15.909,49.319L17.355,51.221L18.801,52.958L20.247,54.565L21.694,56.102L23.14,57.616L24.586,58.94L26.032,59.881L27.478,60.479L28.925,60.81L30.371,60.929L31.817,60.874L33.263,60.67L34.71,60.335L36.156,59.88L37.602,59.313L39.048,58.639L40.495,57.86L41.941,56.974L43.387,55.977L44.833,54.866L46.28,53.632L47.726,52.268L49.172,50.762L50.618,49.103L52.064,47.278L53.511,45.272L54.957,43.069L56.403,40.651L57.849,38.001L59.296,35.097L60.742,31.92L62.188,28.446L63.634,24.653L65.081,20.517L66.527,16.01L67.973,11.108L69.419,5.781L70.866,0" style="fill:none;fill-rule:nonzero;stroke:white;stroke-opacity:0.2;stroke-width:0.4px;"/>
                    </g>
                    <g transform="matrix(1,0,0,1,58.389,52.6334)">
                        <path d="M0,10.107L1.446,14.153L2.892,17.796L4.339,21.07L5.785,24.004L7.231,26.629L8.677,28.972L10.124,31.057L11.57,32.906L13.016,34.54L14.462,35.977L15.909,37.233L17.355,38.324L18.801,39.262L20.247,40.06L21.694,40.728L23.14,41.277L24.586,41.715L26.032,42.051L27.478,42.291L28.925,42.441L30.371,42.507L31.817,42.493L33.263,42.402L34.71,42.238L36.156,42.003L37.602,41.697L39.048,41.321L40.495,40.872L41.941,40.351L43.387,39.752L44.833,39.073L46.28,38.307L47.726,37.449L49.172,36.491L50.618,35.425L52.064,34.24L53.511,32.925L54.957,31.466L56.403,29.85L57.849,28.06L59.296,26.077L60.742,23.881L62.188,21.45L63.634,18.76L65.081,15.783L66.527,12.493L67.973,8.858L69.419,4.849L70.866,0.431" style="fill:none;fill-rule:nonzero;stroke:white;stroke-opacity:0.2;stroke-width:0.4px;"/>
                    </g>
                    <g transform="matrix(1,0,0,1,58.389,49.3322)">
                        <path d="M0,10.034L1.446,14.295L2.892,18.164L4.339,21.671L5.785,24.839L7.231,27.695L8.677,30.26L10.124,32.557L11.57,34.604L13.016,36.422L14.462,38.026L15.909,39.435L17.355,40.663L18.801,41.725L20.247,42.634L21.694,43.403L23.14,44.043L24.586,44.564L26.032,44.976L27.478,45.286L28.925,45.502L30.371,45.628L31.817,45.671L33.263,45.634L34.71,45.518L36.156,45.325L37.602,45.055L39.048,44.706L40.495,44.277L41.941,43.764L43.387,43.163L44.833,42.466L46.28,41.668L47.726,40.761L49.172,39.735L50.618,38.58L52.064,37.285L53.511,35.836L54.957,34.222L56.403,32.427L57.849,30.436L59.296,28.232L60.742,25.798L62.188,23.115L63.634,20.163L65.081,16.92L66.527,13.365L67.973,9.472L69.419,5.215L70.866,0.567" style="fill:none;fill-rule:nonzero;stroke:white;stroke-opacity:0.2;stroke-width:0.4px;"/>
                    </g>
                    <g transform="matrix(1,0,0,1,58.389,52.0337)">
                        <path d="M0,10.646L1.446,14.867L2.892,18.63L4.339,21.975L5.785,24.943L7.231,27.57L8.677,29.893L10.124,31.942L11.57,33.746L13.016,35.33L14.462,36.716L15.909,37.923L17.355,38.968L18.801,39.866L20.247,40.63L21.694,41.271L23.14,41.799L24.586,42.225L26.032,42.554L27.478,42.795L28.925,42.952L30.371,43.03L31.817,43.033L33.263,42.964L34.71,42.825L36.156,42.616L37.602,42.338L39.048,41.99L40.495,41.569L41.941,41.074L43.387,40.5L44.833,39.842L46.28,39.096L47.726,38.255L49.172,37.311L50.618,36.254L52.064,35.075L53.511,33.763L54.957,32.304L56.403,30.683L57.849,28.884L59.296,26.887L60.742,24.67L62.188,22.209L63.634,19.476L65.081,16.437L66.527,13.06L67.973,9.305L69.419,5.134L70.866,0.504" style="fill:none;fill-rule:nonzero;stroke:white;stroke-opacity:0.2;stroke-width:0.4px;"/>
                    </g>
                    <g transform="matrix(1,0,0,1,58.389,39.6379)">
                        <path d="M0,10.915L1.446,16.291L2.892,21.177L4.339,25.604L5.785,29.603L7.231,33.202L8.677,36.428L10.124,39.31L11.57,41.873L13.016,44.14L14.462,46.136L15.909,47.881L17.355,49.398L18.801,50.703L20.247,51.817L21.694,52.753L23.14,53.528L24.586,54.155L26.032,54.646L27.478,55.012L28.925,55.262L30.371,55.403L31.817,55.443L33.263,55.386L34.71,55.235L36.156,54.993L37.602,54.66L39.048,54.235L40.495,53.715L41.941,53.098L43.387,52.376L44.833,51.543L46.28,50.591L47.726,49.51L49.172,48.287L50.618,46.91L52.064,45.364L53.511,43.633L54.957,41.699L56.403,39.542L57.849,37.142L59.296,34.477L60.742,31.523L62.188,28.254L63.634,24.645L65.081,20.667L66.527,16.293L67.973,11.493L69.419,6.236L70.866,0.49" style="fill:none;fill-rule:nonzero;stroke:white;stroke-opacity:0.2;stroke-width:0.4px;"/>
                    </g>
                    <g transform="matrix(1,0,0,1,58.389,49.665)">
                        <path d="M0,10.386L1.446,14.795L2.892,18.779L4.339,22.367L5.785,25.586L7.231,28.464L8.677,31.026L10.124,33.295L11.57,35.297L13.016,37.052L14.462,38.582L15.909,39.907L17.355,41.046L18.801,42.016L20.247,42.835L21.694,43.517L23.14,44.077L24.586,44.525L26.032,44.872L27.478,45.125L28.925,45.293L30.371,45.379L31.817,45.389L33.263,45.326L34.71,45.192L36.156,44.987L37.602,44.712L39.048,44.366L40.495,43.946L41.941,43.451L43.387,42.875L44.833,42.214L46.28,41.46L47.726,40.605L49.172,39.639L50.618,38.552L52.064,37.328L53.511,35.954L54.957,34.412L56.403,32.686L57.849,30.755L59.296,28.599L60.742,26.199L62.188,23.531L63.634,20.571L65.081,17.297L66.527,13.682L67.973,9.699L69.419,5.32L70.866,0.517" style="fill:none;fill-rule:nonzero;stroke:white;stroke-opacity:0.2;stroke-width:0.4px;"/>
                    </g>
                    <g transform="matrix(1,0,0,1,58.389,51.2678)">
                        <path d="M0,12.049L1.446,15.917L2.892,19.415L4.339,22.57L5.785,25.41L7.231,27.96L8.677,30.244L10.124,32.283L11.57,34.098L13.016,35.706L14.462,37.124L15.909,38.369L17.355,39.453L18.801,40.39L20.247,41.193L21.694,41.87L23.14,42.432L24.586,42.888L26.032,43.245L27.478,43.509L28.925,43.685L30.371,43.779L31.817,43.793L33.263,43.731L34.71,43.592L36.156,43.379L37.602,43.091L39.048,42.726L40.495,42.281L41.941,41.755L43.387,41.142L44.833,40.438L46.28,39.637L47.726,38.731L49.172,37.714L50.618,36.576L52.064,35.307L53.511,33.897L54.957,32.335L56.403,30.608L57.849,28.701L59.296,26.6L60.742,24.288L62.188,21.747L63.634,18.959L65.081,15.902L66.527,12.554L67.973,8.891L69.419,4.885L70.866,0.51" style="fill:none;fill-rule:nonzero;stroke:white;stroke-opacity:0.2;stroke-width:0.4px;"/>
                    </g>
                    <g transform="matrix(1,0,0,1,58.389,44.0592)">
                        <path d="M0,11.034L1.446,15.968L2.892,20.428L4.339,24.447L5.785,28.056L7.231,31.287L8.677,34.171L10.124,36.735L11.57,39.007L13.016,41.012L14.462,42.774L15.909,44.313L17.355,45.649L18.801,46.8L20.247,47.782L21.694,48.61L23.14,49.296L24.586,49.852L26.032,50.288L27.478,50.614L28.925,50.836L30.371,50.962L31.817,50.996L33.263,50.943L34.71,50.805L36.156,50.582L37.602,50.276L39.048,49.886L40.495,49.408L41.941,48.839L43.387,48.175L44.833,47.408L46.28,46.532L47.726,45.538L49.172,44.415L50.618,43.153L52.064,41.737L53.511,40.155L54.957,38.389L56.403,36.422L57.849,34.235L59.296,31.807L60.742,29.113L62.188,26.129L63.634,22.828L65.081,19.181L66.527,15.159L67.973,10.728L69.419,5.858L70.866,0.515" style="fill:none;fill-rule:nonzero;stroke:white;stroke-opacity:0.2;stroke-width:0.4px;"/>
                    </g>
                    <g transform="matrix(1,0,0,1,58.389,47.7542)">
                        <path d="M0,8.623L1.446,13.3L2.892,17.535L4.339,21.359L5.785,24.803L7.231,27.894L8.677,30.66L10.124,33.125L11.57,35.315L13.016,37.252L14.462,38.957L15.909,40.45L17.355,41.75L18.801,42.874L20.247,43.836L21.694,44.651L23.14,45.333L24.586,45.892L26.032,46.339L27.478,46.683L28.925,46.931L30.371,47.09L31.817,47.165L33.263,47.161L34.71,47.078L36.156,46.92L37.602,46.686L39.048,46.374L40.495,45.981L41.941,45.505L43.387,44.939L44.833,44.277L46.28,43.511L47.726,42.632L49.172,41.631L50.618,40.494L52.064,39.21L53.511,37.763L54.957,36.139L56.403,34.321L57.849,32.289L59.296,30.024L60.742,27.505L62.188,24.708L63.634,21.61L65.081,18.185L66.527,14.406L67.973,10.244L69.419,5.67L70.866,0.651" style="fill:none;fill-rule:nonzero;stroke:white;stroke-opacity:0.2;stroke-width:0.4px;"/>
                    </g>
                    <g transform="matrix(1,0,0,1,58.389,53.572)">
                        <path d="M0,10.715L1.446,14.457L2.892,17.841L4.339,20.897L5.785,23.649L7.231,26.122L8.677,28.339L10.124,30.32L11.57,32.083L13.016,33.647L14.462,35.028L15.909,36.239L17.355,37.295L18.801,38.208L20.247,38.989L21.694,39.648L23.14,40.195L24.586,40.636L26.032,40.981L27.478,41.234L28.925,41.401L30.371,41.487L31.817,41.495L33.263,41.428L34.71,41.288L36.156,41.076L37.602,40.791L39.048,40.434L40.495,40.001L41.941,39.492L43.387,38.901L44.833,38.225L46.28,37.459L47.726,36.596L49.172,35.629L50.618,34.55L52.064,33.35L53.511,32.019L54.957,30.546L56.403,28.918L57.849,27.123L59.296,25.145L60.742,22.969L62.188,20.576L63.634,17.949L65.081,15.066L66.527,11.905L67.973,8.442L69.419,4.651L70.866,0.504" style="fill:none;fill-rule:nonzero;stroke:white;stroke-opacity:0.2;stroke-width:0.4px;"/>
                    </g>
                    <g transform="matrix(1,0,0,1,58.389,46.1931)">
                        <path d="M0,8.424L1.446,13.283L2.892,17.696L4.339,21.692L5.785,25.299L7.231,28.543L8.677,31.448L10.124,34.039L11.57,36.339L13.016,38.372L14.462,40.157L15.909,41.717L17.355,43.071L18.801,44.238L20.247,45.235L21.694,46.077L23.14,46.781L24.586,47.358L26.032,47.82L27.478,48.177L28.925,48.437L30.371,48.608L31.817,48.695L33.263,48.703L34.71,48.633L36.156,48.488L37.602,48.266L39.048,47.968L40.495,47.588L41.941,47.124L43.387,46.569L44.833,45.916L46.28,45.157L47.726,44.28L49.172,43.275L50.618,42.127L52.064,40.823L53.511,39.346L54.957,37.679L56.403,35.802L57.849,33.695L59.296,31.338L60.742,28.709L62.188,25.786L63.634,22.544L65.081,18.959L66.527,15.007L67.973,10.661L69.419,5.893L70.866,0.675" style="fill:none;fill-rule:nonzero;stroke:white;stroke-opacity:0.2;stroke-width:0.4px;"/>
                    </g>
                    <g transform="matrix(1,0,0,1,58.389,36.4085)">
                        <path d="M0,10.444L1.446,15.955L2.892,21.006L4.339,25.625L5.785,29.836L7.231,33.663L8.677,37.128L10.124,40.254L11.57,43.06L13.016,45.566L14.462,47.792L15.909,49.755L17.355,51.474L18.801,52.966L20.247,54.247L21.694,55.333L23.14,56.239L24.586,56.979L26.032,57.567L27.478,58.014L28.925,58.331L30.371,58.527L31.817,58.61L33.263,58.585L34.71,58.457L36.156,58.228L37.602,57.898L39.048,57.468L40.495,56.932L41.941,56.287L43.387,55.526L44.833,54.641L46.28,53.62L47.726,52.454L49.172,51.129L50.618,49.632L52.064,47.947L53.511,46.058L54.957,43.948L56.403,41.6L57.849,38.995L59.296,36.115L60.742,32.938L62.188,29.444L63.634,25.612L65.081,21.419L66.527,16.842L67.973,11.856L69.419,6.435L70.866,0.553" style="fill:none;fill-rule:nonzero;stroke:white;stroke-opacity:0.2;stroke-width:0.4px;"/>
                    </g>
                    <g transform="matrix(1,0,0,1,58.389,46.8908)">
                        <path d="M0,10.752L1.446,15.426L2.892,19.656L4.339,23.471L5.785,26.9L7.231,29.972L8.677,32.714L10.124,35.152L11.57,37.309L13.016,39.21L14.462,40.875L15.909,42.325L17.355,43.579L18.801,44.653L20.247,45.562L21.694,46.321L23.14,46.941L24.586,47.434L26.032,47.809L27.478,48.076L28.925,48.241L30.371,48.31L31.817,48.29L33.263,48.184L34.71,47.996L36.156,47.728L37.602,47.381L39.048,46.955L40.495,46.449L41.941,45.86L43.387,45.187L44.833,44.423L46.28,43.563L47.726,42.6L49.172,41.525L50.618,40.328L52.064,38.996L53.511,37.514L54.957,35.867L56.403,34.036L57.849,32.001L59.296,29.738L60.742,27.225L62.188,24.436L63.634,21.344L65.081,17.923L66.527,14.144L67.973,9.979L69.419,5.398L70.866,0.37" style="fill:none;fill-rule:nonzero;stroke:white;stroke-opacity:0.2;stroke-width:0.4px;"/>
                    </g>
                    <g transform="matrix(1,0,0,1,58.389,41.4014)">
                        <path d="M0,11.321L1.446,16.358L2.892,20.939L4.339,25.095L5.785,28.855L7.231,32.247L8.677,35.296L10.124,38.026L11.57,40.462L13.016,42.625L14.462,44.535L15.909,46.213L17.355,47.675L18.801,48.94L20.247,50.022L21.694,50.938L23.14,51.699L24.586,52.319L26.032,52.809L27.478,53.178L28.925,53.435L30.371,53.587L31.817,53.64L33.263,53.597L34.71,53.463L36.156,53.238L37.602,52.922L39.048,52.515L40.495,52.013L41.941,51.412L43.387,50.706L44.833,49.889L46.28,48.952L47.726,47.886L49.172,46.678L50.618,45.318L52.064,43.792L53.511,42.085L54.957,40.182L56.403,38.065L57.849,35.716L59.296,33.116L60.742,30.244L62.188,27.079L63.634,23.598L65.081,19.775L66.527,15.585L67.973,11L69.419,5.992L70.866,0.53" style="fill:none;fill-rule:nonzero;stroke:white;stroke-opacity:0.2;stroke-width:0.4px;"/>
                    </g>
                    <g transform="matrix(1,0,0,1,58.389,58.5423)">
                        <path d="M0,5.601L1.446,9.415L2.892,12.837L4.339,15.898L5.785,18.631L7.231,21.065L8.677,23.227L10.124,25.144L11.57,26.839L13.016,28.334L14.462,29.647L15.909,30.797L17.355,31.8L18.801,32.669L20.247,33.419L21.694,34.059L23.14,34.601L24.586,35.054L26.032,35.425L27.478,35.721L28.925,35.948L30.371,36.111L31.817,36.213L33.263,36.258L34.71,36.247L36.156,36.181L37.602,36.059L39.048,35.881L40.495,35.644L41.941,35.345L43.387,34.98L44.833,34.543L46.28,34.028L47.726,33.428L49.172,32.732L50.618,31.933L52.064,31.017L53.511,29.974L54.957,28.788L56.403,27.445L57.849,25.927L59.296,24.217L60.742,22.294L62.188,20.136L63.634,17.719L65.081,15.016L66.527,12.001L67.973,8.643L69.419,4.911L70.866,0.771" style="fill:none;fill-rule:nonzero;stroke:white;stroke-opacity:0.2;stroke-width:0.4px;"/>
                    </g>
                    <g transform="matrix(1,0,0,1,58.389,37.6704)">
                        <path d="M0,11.371L1.446,16.673L2.892,21.519L4.339,25.939L5.785,29.959L7.231,33.605L8.677,36.902L10.124,39.872L11.57,42.538L13.016,44.919L14.462,47.035L15.909,48.904L17.355,50.543L18.801,51.968L20.247,53.194L21.694,54.236L23.14,55.107L24.586,55.82L26.032,56.386L27.478,56.816L28.925,57.119L30.371,57.303L31.817,57.374L33.263,57.339L34.71,57.2L36.156,56.96L37.602,56.618L39.048,56.174L40.495,55.624L41.941,54.963L43.387,54.186L44.833,53.286L46.28,52.252L47.726,51.075L49.172,49.745L50.618,48.247L52.064,46.57L53.511,44.699L54.957,42.619L56.403,40.314L57.849,37.766L59.296,34.958L60.742,31.87L62.188,28.482L63.634,24.772L65.081,20.716L66.527,16.291L67.973,11.469L69.419,6.224L70.866,0.526" style="fill:none;fill-rule:nonzero;stroke:white;stroke-opacity:0.2;stroke-width:0.4px;"/>
                    </g>
                    <g transform="matrix(1,0,0,1,58.389,53.1247)">
                        <path d="M0,10.867L1.446,14.703L2.892,18.161L4.339,21.272L5.785,24.067L7.231,26.571L8.677,28.809L10.124,30.804L11.57,32.576L13.016,34.144L14.462,35.525L15.909,36.735L17.355,37.788L18.801,38.697L20.247,39.473L21.694,40.127L23.14,40.668L24.586,41.105L26.032,41.444L27.478,41.693L28.925,41.857L30.371,41.94L31.817,41.946L33.263,41.877L34.71,41.736L36.156,41.523L37.602,41.238L39.048,40.88L40.495,40.448L41.941,39.939L43.387,39.35L44.833,38.675L46.28,37.91L47.726,37.048L49.172,36.082L50.618,35.003L52.064,33.803L53.511,32.471L54.957,30.994L56.403,29.361L57.849,27.558L59.296,25.567L60.742,23.374L62.188,20.958L63.634,18.299L65.081,15.375L66.527,12.161L67.973,8.63L69.419,4.754L70.866,0.5" style="fill:none;fill-rule:nonzero;stroke:white;stroke-opacity:0.2;stroke-width:0.4px;"/>
                    </g>
                    <g transform="matrix(1,0,0,1,58.389,48.5025)">
                        <path d="M0,10.072L1.446,14.531L2.892,18.565L4.339,22.203L5.785,25.474L7.231,28.406L8.677,31.026L10.124,33.359L11.57,35.427L13.016,37.253L14.462,38.858L15.909,40.261L17.355,41.48L18.801,42.532L20.247,43.43L21.694,44.19L23.14,44.822L24.586,45.338L26.032,45.747L27.478,46.058L28.925,46.277L30.371,46.411L31.817,46.464L33.263,46.439L34.71,46.339L36.156,46.164L37.602,45.914L39.048,45.587L40.495,45.182L41.941,44.693L43.387,44.117L44.833,43.447L46.28,42.675L47.726,41.793L49.172,40.791L50.618,39.658L52.064,38.381L53.511,36.947L54.957,35.341L56.403,33.545L57.849,31.544L59.296,29.316L60.742,26.843L62.188,24.1L63.634,21.066L65.081,17.715L66.527,14.022L67.973,9.958L69.419,5.495L70.866,0.604" style="fill:none;fill-rule:nonzero;stroke:white;stroke-opacity:0.2;stroke-width:0.4px;"/>
                    </g>
                    <g transform="matrix(1,0,0,1,58.389,35.9277)">
                        <path d="M0,10.255L1.446,16.013L2.892,21.264L4.339,26.039L5.785,30.366L7.231,34.274L8.677,37.79L10.124,40.94L11.57,43.75L13.016,46.243L14.462,48.444L15.909,50.374L17.355,52.055L18.801,53.507L20.247,54.751L21.694,55.803L23.14,56.68L24.586,57.398L26.032,57.97L27.478,58.41L28.925,58.726L30.371,58.929L31.817,59.026L33.263,59.023L34.71,58.922L36.156,58.725L37.602,58.434L39.048,58.045L40.495,57.556L41.941,56.96L43.387,56.25L44.833,55.418L46.28,54.453L47.726,53.343L49.172,52.072L50.618,50.628L52.064,48.991L53.511,47.146L54.957,45.071L56.403,42.748L57.849,40.154L59.296,37.267L60.742,34.064L62.188,30.52L63.634,26.609L65.081,22.307L66.527,17.585L67.973,12.416L69.419,6.77L70.866,0.617" style="fill:none;fill-rule:nonzero;stroke:white;stroke-opacity:0.2;stroke-width:0.4px;"/>
                    </g>
                    <g transform="matrix(1,0,0,1,58.389,41.7723)">
                        <path d="M0,9.997L1.446,14.977L2.892,19.527L4.339,23.674L5.785,27.445L7.231,30.863L8.677,33.951L10.124,36.73L11.57,39.221L13.016,41.443L14.462,43.416L15.909,45.156L17.355,46.681L18.801,48.007L20.247,49.148L21.694,50.12L23.14,50.935L24.586,51.606L26.032,52.145L27.478,52.561L28.925,52.863L30.371,53.06L31.817,53.157L33.263,53.159L34.71,53.07L36.156,52.889L37.602,52.618L39.048,52.255L40.495,51.796L41.941,51.236L43.387,50.569L44.833,49.787L46.28,48.881L47.726,47.84L49.172,46.652L50.618,45.307L52.064,43.788L53.511,42.083L54.957,40.176L56.403,38.051L57.849,35.69L59.296,33.077L60.742,30.193L62.188,27.018L63.634,23.532L65.081,19.713L66.527,15.539L67.973,10.986L69.419,6.028L70.866,0.639" style="fill:none;fill-rule:nonzero;stroke:white;stroke-opacity:0.2;stroke-width:0.4px;"/>
                    </g>
                    <g transform="matrix(1,0,0,1,58.389,41.1949)">
                        <path d="M0,10.886L1.446,16.027L2.892,20.698L4.339,24.93L5.785,28.753L7.231,32.195L8.677,35.284L10.124,38.046L11.57,40.505L13.016,42.684L14.462,44.607L15.909,46.292L17.355,47.76L18.801,49.028L20.247,50.113L21.694,51.03L23.14,51.794L24.586,52.417L26.032,52.912L27.478,53.288L28.925,53.555L30.371,53.721L31.817,53.79L33.263,53.767L34.71,53.656L36.156,53.458L37.602,53.171L39.048,52.795L40.495,52.325L41.941,51.756L43.387,51.083L44.833,50.297L46.28,49.389L47.726,48.35L49.172,47.166L50.618,45.826L52.064,44.316L53.511,42.62L54.957,40.723L56.403,38.606L57.849,36.25L59.296,33.637L60.742,30.744L62.188,27.548L63.634,24.026L65.081,20.152L66.527,15.9L67.973,11.241L69.419,6.146L70.866,0.586" style="fill:none;fill-rule:nonzero;stroke:white;stroke-opacity:0.2;stroke-width:0.4px;"/>
                    </g>
                    <g transform="matrix(1,0,0,1,58.389,45.3786)">
                        <path d="M0,7.876L1.446,12.85L2.892,17.37L4.339,21.465L5.785,25.164L7.231,28.493L8.677,31.48L10.124,34.149L11.57,36.523L13.016,38.626L14.462,40.48L15.909,42.104L17.355,43.518L18.801,44.741L20.247,45.79L21.694,46.679L23.14,47.424L24.586,48.037L26.032,48.53L27.478,48.914L28.925,49.196L30.371,49.386L31.817,49.487L33.263,49.506L34.71,49.445L36.156,49.304L37.602,49.085L39.048,48.786L40.495,48.403L41.941,47.933L43.387,47.368L44.833,46.701L46.28,45.924L47.726,45.026L49.172,43.996L50.618,42.819L52.064,41.483L53.511,39.97L54.957,38.264L56.403,36.346L57.849,34.197L59.296,31.797L60.742,29.123L62.188,26.153L63.634,22.862L65.081,19.226L66.527,15.218L67.973,10.812L69.419,5.978L70.866,0.686" style="fill:none;fill-rule:nonzero;stroke:white;stroke-opacity:0.2;stroke-width:0.4px;"/>
                    </g>
                    <g transform="matrix(1,0,0,1,58.389,37.4426)">
                        <path d="M0,9.903L1.446,15.247L2.892,20.13L4.339,24.584L5.785,28.636L7.231,32.316L8.677,35.65L10.124,38.665L11.57,41.386L13.016,43.838L14.462,46.047L15.909,48.041L17.355,49.849L18.801,51.496L20.247,52.982L21.694,54.272L23.14,55.343L24.586,56.196L26.032,56.846L27.478,57.311L28.925,57.611L30.371,57.763L31.817,57.781L33.263,57.679L34.71,57.466L36.156,57.149L37.602,56.732L39.048,56.217L40.495,55.602L41.941,54.884L43.387,54.058L44.833,53.118L46.28,52.055L47.726,50.858L49.172,49.515L50.618,48.015L52.064,46.342L53.511,44.482L54.957,42.417L56.403,40.13L57.849,37.603L59.296,34.815L60.742,31.746L62.188,28.373L63.634,24.672L65.081,20.62L66.527,16.189L67.973,11.353L69.419,6.082L70.866,0.347" style="fill:none;fill-rule:nonzero;stroke:white;stroke-opacity:0.2;stroke-width:0.4px;"/>
                    </g>
                    <g transform="matrix(1,0,0,1,58.389,40.7522)">
                        <path d="M0,11.24L1.446,16.319L2.892,20.947L4.339,25.153L5.785,28.965L7.231,32.409L8.677,35.51L10.124,38.292L11.57,40.778L13.016,42.99L14.462,44.947L15.909,46.669L17.355,48.173L18.801,49.476L20.247,50.593L21.694,51.539L23.14,52.326L24.586,52.967L26.032,53.473L27.478,53.852L28.925,54.115L30.371,54.268L31.817,54.316L33.263,54.266L34.71,54.119L36.156,53.879L37.602,53.544L39.048,53.114L40.495,52.587L41.941,51.958L43.387,51.222L44.833,50.373L46.28,49.401L47.726,48.299L49.172,47.055L50.618,45.658L52.064,44.095L53.511,42.351L54.957,40.412L56.403,38.26L57.849,35.878L59.296,33.247L60.742,30.347L62.188,27.155L63.634,23.648L65.081,19.802L66.527,15.592L67.973,10.991L69.419,5.971L70.866,0.502" style="fill:none;fill-rule:nonzero;stroke:white;stroke-opacity:0.2;stroke-width:0.4px;"/>
                    </g>
                    <g transform="matrix(1,0,0,1,58.389,53.0447)">
                        <path d="M0,10.778L1.446,14.77L2.892,18.369L4.339,21.606L5.785,24.509L7.231,27.104L8.677,29.415L10.124,31.466L11.57,33.277L13.016,34.869L14.462,36.261L15.909,37.47L17.355,38.513L18.801,39.404L20.247,40.154L21.694,40.776L23.14,41.278L24.586,41.67L26.032,41.959L27.478,42.152L28.925,42.254L30.371,42.271L31.817,42.207L33.263,42.067L34.71,41.852L36.156,41.566L37.602,41.21L39.048,40.784L40.495,40.288L41.941,39.721L43.387,39.082L44.833,38.367L46.28,37.572L47.726,36.694L49.172,35.725L50.618,34.657L52.064,33.481L53.511,32.184L54.957,30.753L56.403,29.17L57.849,27.418L59.296,25.475L60.742,23.32L62.188,20.929L63.634,18.28L65.081,15.348L66.527,12.107L67.973,8.531L69.419,4.59L70.866,0.255" style="fill:none;fill-rule:nonzero;stroke:white;stroke-opacity:0.2;stroke-width:0.4px;"/>
                    </g>
                    <g transform="matrix(1,0,0,1,58.389,47.116)">
                        <path d="M0,9.337L1.446,13.996L2.892,18.218L4.339,22.034L5.785,25.473L7.231,28.564L8.677,31.332L10.124,33.802L11.57,35.997L13.016,37.94L14.462,39.652L15.909,41.151L17.355,42.456L18.801,43.583L20.247,44.548L21.694,45.364L23.14,46.045L24.586,46.601L26.032,47.044L27.478,47.382L28.925,47.623L30.371,47.773L31.817,47.838L33.263,47.821L34.71,47.724L36.156,47.55L37.602,47.298L39.048,46.967L40.495,46.553L41.941,46.054L43.387,45.464L44.833,44.776L46.28,43.983L47.726,43.075L49.172,42.043L50.618,40.874L52.064,39.556L53.511,38.075L54.957,36.415L56.403,34.56L57.849,32.491L59.296,30.19L60.742,27.635L62.188,24.804L63.634,21.674L65.081,18.22L66.527,14.416L67.973,10.234L69.419,5.644L70.866,0.617" style="fill:none;fill-rule:nonzero;stroke:white;stroke-opacity:0.2;stroke-width:0.4px;"/>
                    </g>
                    <g transform="matrix(1,0,0,1,58.389,41.188)">
                        <path d="M0,10.17L1.446,15.287L2.892,19.952L4.339,24.194L5.785,28.04L7.231,31.516L8.677,34.647L10.124,37.457L11.57,39.967L13.016,42.199L14.462,44.174L15.909,45.91L17.355,47.427L18.801,48.74L20.247,49.868L21.694,50.824L23.14,51.623L24.586,52.279L26.032,52.802L27.478,53.204L28.925,53.493L30.371,53.678L31.817,53.764L33.263,53.756L34.71,53.658L36.156,53.47L37.602,53.193L39.048,52.824L40.495,52.361L41.941,51.799L43.387,51.131L44.833,50.35L46.28,49.445L47.726,48.408L49.172,47.224L50.618,45.883L52.064,44.369L53.511,42.666L54.957,40.759L56.403,38.631L57.849,36.262L59.296,33.634L60.742,30.726L62.188,27.518L63.634,23.986L65.081,20.108L66.527,15.859L67.973,11.213L69.419,6.142L70.866,0.619" style="fill:none;fill-rule:nonzero;stroke:white;stroke-opacity:0.2;stroke-width:0.4px;"/>
                    </g>
                    <g transform="matrix(1,0,0,1,58.389,36.3211)">
                        <path d="M0,11.022L1.446,16.488L2.892,21.476L4.339,26.018L5.785,30.144L7.231,33.882L8.677,37.259L10.124,40.302L11.57,43.034L13.016,45.479L14.462,47.656L15.909,49.586L17.355,51.286L18.801,52.771L20.247,54.058L21.694,55.16L23.14,56.09L24.586,56.858L26.032,57.478L27.478,57.957L28.925,58.306L30.371,58.533L31.817,58.643L33.263,58.643L34.71,58.535L36.156,58.322L37.602,58.004L39.048,57.579L40.495,57.043L41.941,56.391L43.387,55.617L44.833,54.712L46.28,53.667L47.726,52.473L49.172,51.118L50.618,49.591L52.064,47.879L53.511,45.968L54.957,43.843L56.403,41.488L57.849,38.885L59.296,36.016L60.742,32.859L62.188,29.391L63.634,25.589L65.081,21.426L66.527,16.876L67.973,11.91L69.419,6.497L70.866,0.607" style="fill:none;fill-rule:nonzero;stroke:white;stroke-opacity:0.2;stroke-width:0.4px;"/>
                    </g>
                    <g transform="matrix(1,0,0,1,58.389,36.9458)">
                        <path d="M0,9.799L1.446,15.336L2.892,20.397L4.339,25.012L5.785,29.209L7.231,33.013L8.677,36.45L10.124,39.545L11.57,42.321L13.016,44.799L14.462,47.001L15.909,48.945L17.355,50.65L18.801,52.134L20.247,53.414L21.694,54.505L23.14,55.421L24.586,56.178L26.032,56.788L27.478,57.261L28.925,57.609L30.371,57.84L31.817,57.962L33.263,57.979L34.71,57.896L36.156,57.714L37.602,57.434L39.048,57.053L40.495,56.568L41.941,55.972L43.387,55.259L44.833,54.421L46.28,53.445L47.726,52.321L49.172,51.036L50.618,49.576L52.064,47.926L53.511,46.071L54.957,43.993L56.403,41.675L57.849,39.098L59.296,36.242L60.742,33.088L62.188,29.613L63.634,25.793L65.081,21.606L66.527,17.025L67.973,12.023L69.419,6.573L70.866,0.646" style="fill:none;fill-rule:nonzero;stroke:white;stroke-opacity:0.2;stroke-width:0.4px;"/>
                    </g>
                </g>
            </g>
        </g>
    </g>
    <circle cx="0.222" cy="0.222" r="0.222"/>
    <g transform="matrix(1,0,0,1,391.372,119.555)">
        <circle cx="0.222" cy="0.222" r="0.222"/>
    </g>
</svg>
