<?xml version="1.0" encoding="UTF-8" standalone="no"?>
<!DOCTYPE svg PUBLIC "-//W3C//DTD SVG 1.1//EN" "http://www.w3.org/Graphics/SVG/1.1/DTD/svg11.dtd">
<svg width="100%" height="100%" viewBox="0 0 392 120" version="1.1" xmlns="http://www.w3.org/2000/svg" xmlns:xlink="http://www.w3.org/1999/xlink" xml:space="preserve" xmlns:serif="http://www.serif.com/" style="fill-rule:evenodd;clip-rule:evenodd;stroke-miterlimit:10;">
    <g id="Equibiaxial">
        <g transform="matrix(1,0,0,1,171.126,100.335)">
            <path d="M0,-4.802L0,-9.054M70.866,-4.802L70.866,-9.054" style="fill:white;fill-rule:nonzero;stroke:white;stroke-width:0.2px;"/>
        </g>
        <g transform="matrix(1,0,0,1,171.126,86.1617)">
            <path d="M-9.213,0.158L-4.961,0.158" style="fill:none;fill-rule:nonzero;stroke:white;stroke-width:0.2px;"/>
        </g>
        <g transform="matrix(1,0,0,1,171.126,100.335)">
            <path d="M-7.087,-6.928L75.96,-6.928" style="fill:none;fill-rule:nonzero;stroke:white;stroke-width:0.4px;"/>
        </g>
        <g transform="matrix(1,0,0,1,247.086,93.4068)">
            <path d="M1.993,0L-1.196,-1.594L0,0L-1.196,1.594" style="fill:white;fill-rule:nonzero;stroke:white;stroke-width:1px;stroke-linejoin:round;stroke-miterlimit:2;"/>
        </g>
        <g transform="matrix(0,-1,-1,0,198.633,44.7976)">
            <path d="M-48.609,34.594L34.435,34.594" style="fill:none;fill-rule:nonzero;stroke:white;stroke-width:0.4px;"/>
        </g>
        <g transform="matrix(0,-1,1,0,164.039,10.3623)">
            <path d="M1.993,0L-1.196,-1.594L0,0L-1.196,1.594" style="fill:white;fill-rule:nonzero;stroke:white;stroke-width:1px;stroke-linejoin:round;stroke-miterlimit:2;"/>
        </g>
        <g transform="matrix(1,0,0,1,-9.35073,-8.4435)">
            <clipPath id="_clip1">
                <rect x="173.39" y="16.813" width="85.039" height="85.037" clip-rule="nonzero"/>
            </clipPath>
            <g clip-path="url(#_clip1)">
                <g transform="matrix(1,0,0,1,180.477,94.6052)">
                    <path d="M0,0.158L70.866,0.158" style="fill:none;fill-rule:nonzero;stroke:rgb(255,0,0);stroke-width:1.59px;"/>
                </g>
                <g id="preds">
                    <g transform="matrix(1,0,0,1,180.477,41.1459)">
                        <path d="M0,4.825L1.446,11.688L2.892,17.775L4.339,23.151L5.785,27.875L7.231,32.006L8.677,35.598L10.124,38.704L11.57,41.375L13.016,43.657L14.462,45.596L15.909,47.232L17.355,48.604L18.801,49.748L20.247,50.694L21.694,51.471L23.14,52.103L24.586,52.608L26.032,53.003L27.478,53.301L28.925,53.513L30.371,53.649L31.817,53.716L33.263,53.72L34.71,53.666L36.156,53.556L37.602,53.392L39.048,53.171L40.495,52.891L41.941,52.546L43.387,52.128L44.833,51.63L46.28,51.038L47.726,50.34L49.172,49.52L50.618,48.555L52.064,47.422L53.511,46.093L54.957,44.535L56.403,42.713L57.849,40.588L59.296,38.118L60.742,35.26L62.188,31.965L63.634,28.185L65.081,23.865L66.527,18.952L67.973,13.387L69.419,7.109L70.866,0.056" style="fill:none;fill-rule:nonzero;stroke:white;stroke-opacity:0.2;stroke-width:0.4px;"/>
                    </g>
                    <g transform="matrix(1,0,0,1,180.477,48.3275)">
                        <path d="M0,4.971L1.446,11.092L2.892,16.457L4.339,21.134L5.785,25.192L7.231,28.695L8.677,31.705L10.124,34.282L11.57,36.478L13.016,38.344L14.462,39.923L15.909,41.254L17.355,42.371L18.801,43.304L20.247,44.078L21.694,44.714L23.14,45.231L24.586,45.643L26.032,45.965L27.478,46.207L28.925,46.378L30.371,46.486L31.817,46.536L33.263,46.534L34.71,46.481L36.156,46.379L37.602,46.229L39.048,46.029L40.495,45.775L41.941,45.464L43.387,45.09L44.833,44.646L46.28,44.122L47.726,43.507L49.172,42.789L50.618,41.952L52.064,40.977L53.511,39.843L54.957,38.525L56.403,36.993L57.849,35.215L59.296,33.149L60.742,30.754L62.188,27.978L63.634,24.769L65.081,21.068L66.527,16.813L67.973,11.938L69.419,6.376L70.866,0.058" style="fill:none;fill-rule:nonzero;stroke:white;stroke-opacity:0.2;stroke-width:0.4px;"/>
                    </g>
                    <g transform="matrix(1,0,0,1,180.477,42.7001)">
                        <path d="M0,5.083L1.446,11.732L2.892,17.619L4.339,22.807L5.785,27.358L7.231,31.329L8.677,34.776L10.124,37.754L11.57,40.314L13.016,42.502L14.462,44.364L15.909,45.94L17.355,47.266L18.801,48.374L20.247,49.293L21.694,50.048L23.14,50.659L24.586,51.146L26.032,51.524L27.478,51.807L28.925,52.006L30.371,52.129L31.817,52.186L33.263,52.18L34.71,52.116L36.156,51.997L37.602,51.822L39.048,51.591L40.495,51.3L41.941,50.944L43.387,50.517L44.833,50.01L46.28,49.411L47.726,48.707L49.172,47.883L50.618,46.92L52.064,45.796L53.511,44.486L54.957,42.961L56.403,41.19L57.849,39.134L59.296,36.754L60.742,34.005L62.188,30.838L63.634,27.204L65.081,23.047L66.527,18.312L67.973,12.939L69.419,6.868L70.866,0.036" style="fill:none;fill-rule:nonzero;stroke:white;stroke-opacity:0.2;stroke-width:0.4px;"/>
                    </g>
                    <g transform="matrix(1,0,0,1,180.477,31.5119)">
                        <path d="M0,4.741L1.446,12.489L2.892,19.429L4.339,25.623L5.785,31.128L7.231,36L8.677,40.292L10.124,44.054L11.57,47.333L13.016,50.176L14.462,52.624L15.909,54.717L17.355,56.494L18.801,57.989L20.247,59.235L21.694,60.263L23.14,61.099L24.586,61.769L26.032,62.293L27.478,62.691L28.925,62.979L30.371,63.171L31.817,63.281L33.263,63.318L34.71,63.29L36.156,63.198L37.602,63.045L39.048,62.826L40.495,62.533L41.941,62.157L43.387,61.685L44.833,61.103L46.28,60.393L47.726,59.537L49.172,58.513L50.618,57.297L52.064,55.862L53.511,54.176L54.957,52.209L56.403,49.924L57.849,47.283L59.296,44.247L60.742,40.774L62.188,36.817L63.634,32.33L65.081,27.263L66.527,21.562L67.973,15.173L69.419,8.036L70.866,0.092" style="fill:none;fill-rule:nonzero;stroke:white;stroke-opacity:0.2;stroke-width:0.4px;"/>
                    </g>
                    <g transform="matrix(1,0,0,1,180.477,38.3314)">
                        <path d="M0,4.785L1.446,11.862L2.892,18.161L4.339,23.744L5.785,28.672L7.231,33.003L8.677,36.792L10.124,40.092L11.57,42.952L13.016,45.416L14.462,47.527L15.909,49.325L17.355,50.843L18.801,52.116L20.247,53.171L21.694,54.036L23.14,54.734L24.586,55.287L26.032,55.715L27.478,56.035L28.925,56.262L30.371,56.41L31.817,56.489L33.263,56.507L34.71,56.471L36.156,56.381L37.602,56.238L39.048,56.04L40.495,55.779L41.941,55.448L43.387,55.037L44.833,54.53L46.28,53.914L47.726,53.171L49.172,52.28L50.618,51.221L52.064,49.97L53.511,48.501L54.957,46.784L56.403,44.789L57.849,42.479L59.296,39.816L60.742,36.759L62.188,33.261L63.634,29.274L65.081,24.747L66.527,19.623L67.973,13.846L69.419,7.354L70.866,0.083" style="fill:none;fill-rule:nonzero;stroke:white;stroke-opacity:0.2;stroke-width:0.4px;"/>
                    </g>
                    <g transform="matrix(1,0,0,1,180.477,32.443)">
                        <path d="M0,4.565L1.446,12.347L2.892,19.308L4.339,25.51L5.785,31.009L7.231,35.864L8.677,40.127L10.124,43.852L11.57,47.086L13.016,49.876L14.462,52.267L15.909,54.301L17.355,56.016L18.801,57.449L20.247,58.634L21.694,59.603L23.14,60.383L24.586,61L26.032,61.479L27.478,61.838L28.925,62.096L30.371,62.266L31.817,62.362L33.263,62.39L34.71,62.358L36.156,62.269L37.602,62.121L39.048,61.913L40.495,61.638L41.941,61.287L43.387,60.849L44.833,60.309L46.28,59.65L47.726,58.851L49.172,57.89L50.618,56.739L52.064,55.372L53.511,53.756L54.957,51.858L56.403,49.642L57.849,47.067L59.296,44.093L60.742,40.675L62.188,36.766L63.634,32.318L65.081,27.278L66.527,21.593L67.973,15.206L69.419,8.058L70.866,0.089" style="fill:none;fill-rule:nonzero;stroke:white;stroke-opacity:0.2;stroke-width:0.4px;"/>
                    </g>
                    <g transform="matrix(1,0,0,1,180.477,30.0479)">
                        <path d="M0,5.052L1.446,12.793L2.892,19.729L4.339,25.921L5.785,31.431L7.231,36.317L8.677,40.635L10.124,44.436L11.57,47.768L13.016,50.678L14.462,53.207L15.909,55.393L17.355,57.272L18.801,58.874L20.247,60.228L21.694,61.359L23.14,62.291L24.586,63.044L26.032,63.637L27.478,64.088L28.925,64.416L30.371,64.634L31.817,64.757L33.263,64.797L34.71,64.761L36.156,64.653L37.602,64.475L39.048,64.221L40.495,63.884L41.941,63.452L43.387,62.913L44.833,62.25L46.28,61.446L47.726,60.485L49.172,59.345L50.618,58.007L52.064,56.448L53.511,54.642L54.957,52.561L56.403,50.174L57.849,47.446L59.296,44.338L60.742,40.808L62.188,36.812L63.634,32.3L65.081,27.22L66.527,21.518L67.973,15.134L69.419,8.009L70.866,0.078" style="fill:none;fill-rule:nonzero;stroke:white;stroke-opacity:0.2;stroke-width:0.4px;"/>
                    </g>
                    <g transform="matrix(1,0,0,1,180.477,35.1811)">
                        <path d="M0,5.117L1.446,12.527L2.892,19.142L4.339,25.022L5.785,30.227L7.231,34.813L8.677,38.834L10.124,42.342L11.57,45.383L13.016,48.005L14.462,50.249L15.909,52.156L17.355,53.763L18.801,55.104L20.247,56.213L21.694,57.118L23.14,57.847L24.586,58.422L26.032,58.866L27.478,59.198L28.925,59.432L30.371,59.583L31.817,59.661L33.263,59.674L34.71,59.627L36.156,59.523L37.602,59.362L39.048,59.14L40.495,58.853L41.941,58.492L43.387,58.047L44.833,57.505L46.28,56.849L47.726,56.062L49.172,55.121L50.618,54.004L52.064,52.684L53.511,51.131L54.957,49.315L56.403,47.199L57.849,44.748L59.296,41.921L60.742,38.675L62.188,34.966L63.634,30.744L65.081,25.958L66.527,20.556L67.973,14.48L69.419,7.671L70.866,0.067" style="fill:none;fill-rule:nonzero;stroke:white;stroke-opacity:0.2;stroke-width:0.4px;"/>
                    </g>
                    <g transform="matrix(1,0,0,1,180.477,42.0055)">
                        <path d="M0,4.384L1.446,11.297L2.892,17.436L4.339,22.86L5.785,27.63L7.231,31.803L8.677,35.431L10.124,38.566L11.57,41.257L13.016,43.548L14.462,45.482L15.909,47.098L17.355,48.433L18.801,49.523L20.247,50.398L21.694,51.091L23.14,51.628L24.586,52.038L26.032,52.342L27.478,52.562L28.925,52.711L30.371,52.803L31.817,52.844L33.263,52.841L34.71,52.796L36.156,52.71L37.602,52.584L39.048,52.416L40.495,52.203L41.941,51.94L43.387,51.618L44.833,51.227L46.28,50.75L47.726,50.168L49.172,49.456L50.618,48.59L52.064,47.54L53.511,46.276L54.957,44.764L56.403,42.972L57.849,40.861L59.296,38.392L60.742,35.523L62.188,32.209L63.634,28.401L65.081,24.048L66.527,19.097L67.973,13.49L69.419,7.169L70.866,0.072" style="fill:none;fill-rule:nonzero;stroke:white;stroke-opacity:0.2;stroke-width:0.4px;"/>
                    </g>
                    <g transform="matrix(1,0,0,1,180.477,38.6935)">
                        <path d="M0,4.398L1.446,11.569L2.892,17.954L4.339,23.615L5.785,28.612L7.231,33L8.677,36.833L10.124,40.162L11.57,43.035L13.016,45.497L14.462,47.591L15.909,49.358L17.355,50.834L18.801,52.057L20.247,53.058L21.694,53.869L23.14,54.517L24.586,55.026L26.032,55.417L27.478,55.709L28.925,55.917L30.371,56.052L31.817,56.124L33.263,56.141L34.71,56.106L36.156,56.022L37.602,55.889L39.048,55.705L40.495,55.465L41.941,55.162L43.387,54.785L44.833,54.323L46.28,53.761L47.726,53.081L49.172,52.262L50.618,51.278L52.064,50.103L53.511,48.705L54.957,47.053L56.403,45.109L57.849,42.837L59.296,40.195L60.742,37.142L62.188,33.632L63.634,29.616L65.081,25.045L66.527,19.864L67.973,14.017L69.419,7.446L70.866,0.088" style="fill:none;fill-rule:nonzero;stroke:white;stroke-opacity:0.2;stroke-width:0.4px;"/>
                    </g>
                    <g transform="matrix(1,0,0,1,180.477,33.5979)">
                        <path d="M0,4.429L1.446,12.063L2.892,18.887L4.339,24.962L5.785,30.349L7.231,35.103L8.677,39.28L10.124,42.93L11.57,46.102L13.016,48.843L14.462,51.194L15.909,53.197L17.355,54.889L18.801,56.306L20.247,57.478L21.694,58.437L23.14,59.209L24.586,59.821L26.032,60.295L27.478,60.651L28.925,60.907L30.371,61.08L31.817,61.179L33.263,61.216L34.71,61.196L36.156,61.122L37.602,60.994L39.048,60.808L40.495,60.558L41.941,60.234L43.387,59.824L44.833,59.312L46.28,58.68L47.726,57.907L49.172,56.97L50.618,55.843L52.064,54.5L53.511,52.909L54.957,51.038L56.403,48.854L57.849,46.317L59.296,43.387L60.742,40.023L62.188,36.178L63.634,31.803L65.081,26.848L66.527,21.259L67.973,14.979L69.419,7.949L70.866,0.108" style="fill:none;fill-rule:nonzero;stroke:white;stroke-opacity:0.2;stroke-width:0.4px;"/>
                    </g>
                    <g transform="matrix(1,0,0,1,180.477,39.9284)">
                        <path d="M0,3.888L1.446,10.669L2.892,16.732L4.339,22.135L5.785,26.93L7.231,31.17L8.677,34.901L10.124,38.17L11.57,41.019L13.016,43.487L14.462,45.612L15.909,47.428L17.355,48.968L18.801,50.261L20.247,51.337L21.694,52.22L23.14,52.935L24.586,53.505L26.032,53.949L27.478,54.286L28.925,54.532L30.371,54.702L31.817,54.807L33.263,54.856L34.71,54.854L36.156,54.805L37.602,54.707L39.048,54.558L40.495,54.352L41.941,54.079L43.387,53.727L44.833,53.281L46.28,52.725L47.726,52.039L49.172,51.201L50.618,50.191L52.064,48.981L53.511,47.546L54.957,45.857L56.403,43.884L57.849,41.594L59.296,38.952L60.742,35.921L62.188,32.46L63.634,28.529L65.081,24.081L66.527,19.071L67.973,13.446L69.419,7.154L70.866,0.138" style="fill:none;fill-rule:nonzero;stroke:white;stroke-opacity:0.2;stroke-width:0.4px;"/>
                    </g>
                    <g transform="matrix(1,0,0,1,180.477,25.5784)">
                        <path d="M0,4.996L1.446,13.159L2.892,20.499L4.339,27.075L5.785,32.948L7.231,38.173L8.677,42.804L10.124,46.892L11.57,50.485L13.016,53.63L14.462,56.369L15.909,58.742L17.355,60.788L18.801,62.541L20.247,64.035L21.694,65.298L23.14,66.357L24.586,67.234L26.032,67.943L27.478,68.493L28.925,68.891L30.371,69.15L31.817,69.286L33.263,69.315L34.71,69.25L36.156,69.1L37.602,68.869L39.048,68.556L40.495,68.156L41.941,67.659L43.387,67.051L44.833,66.319L46.28,65.443L47.726,64.403L49.172,63.178L50.618,61.743L52.064,60.073L53.511,58.138L54.957,55.907L56.403,53.346L57.849,50.417L59.296,47.081L60.742,43.294L62.188,39.012L63.634,34.186L65.081,28.765L66.527,22.696L67.973,15.924L69.419,8.388L70.866,0.029" style="fill:none;fill-rule:nonzero;stroke:white;stroke-opacity:0.2;stroke-width:0.4px;"/>
                    </g>
                    <g transform="matrix(1,0,0,1,180.477,49.8522)">
                        <path d="M0,4.711L1.446,10.817L2.892,16.169L4.339,20.829L5.785,24.859L7.231,28.321L8.677,31.272L10.124,33.77L11.57,35.87L13.016,37.625L14.462,39.085L15.909,40.297L17.355,41.301L18.801,42.133L20.247,42.823L21.694,43.392L23.14,43.858L24.586,44.235L26.032,44.531L27.478,44.755L28.925,44.911L30.371,45.006L31.817,45.044L33.263,45.028L34.71,44.962L36.156,44.849L37.602,44.689L39.048,44.482L40.495,44.228L41.941,43.924L43.387,43.567L44.833,43.151L46.28,42.67L47.726,42.115L49.172,41.473L50.618,40.73L52.064,39.867L53.511,38.86L54.957,37.678L56.403,36.286L57.849,34.644L59.296,32.705L60.742,30.419L62.188,27.734L63.634,24.594L65.081,20.943L66.527,16.721L67.973,11.869L69.419,6.325L70.866,0.026" style="fill:none;fill-rule:nonzero;stroke:white;stroke-opacity:0.2;stroke-width:0.4px;"/>
                    </g>
                    <g transform="matrix(1,0,0,1,180.477,26.0968)">
                        <path d="M0,5.179L1.446,13.273L2.892,20.547L4.339,27.062L5.785,32.877L7.231,38.048L8.677,42.629L10.124,46.671L11.57,50.222L13.016,53.328L14.462,56.032L15.909,58.375L17.355,60.394L18.801,62.124L20.247,63.597L21.694,64.839L23.14,65.875L24.586,66.725L26.032,67.408L27.478,67.937L28.925,68.327L30.371,68.589L31.817,68.736L33.263,68.779L34.71,68.726L36.156,68.585L37.602,68.357L39.048,68.038L40.495,67.624L41.941,67.105L43.387,66.471L44.833,65.71L46.28,64.808L47.726,63.748L49.172,62.512L50.618,61.076L52.064,59.415L53.511,57.499L54.957,55.295L56.403,52.768L57.849,49.879L59.296,46.589L60.742,42.853L62.188,38.625L63.634,33.858L65.081,28.5L66.527,22.497L67.973,15.794L69.419,8.331L70.866,0.047" style="fill:none;fill-rule:nonzero;stroke:white;stroke-opacity:0.2;stroke-width:0.4px;"/>
                    </g>
                    <g transform="matrix(1,0,0,1,180.477,32.7106)">
                        <path d="M0,4.742L1.446,12.302L2.892,19.065L4.339,25.093L5.785,30.444L7.231,35.175L8.677,39.34L10.124,42.99L11.57,46.172L13.016,48.934L14.462,51.317L15.909,53.365L17.355,55.114L18.801,56.601L20.247,57.859L21.694,58.918L23.14,59.802L24.586,60.528L26.032,61.111L27.478,61.558L28.925,61.878L30.371,62.081L31.817,62.181L33.263,62.189L34.71,62.117L36.156,61.971L37.602,61.756L39.048,61.47L40.495,61.111L41.941,60.672L43.387,60.142L44.833,59.511L46.28,58.762L47.726,57.879L49.172,56.842L50.618,55.627L52.064,54.208L53.511,52.557L54.957,50.639L56.403,48.42L57.849,45.862L59.296,42.924L60.742,39.562L62.188,35.732L63.634,31.385L65.081,26.47L66.527,20.934L67.973,14.72L69.419,7.77L70.866,0.022" style="fill:none;fill-rule:nonzero;stroke:white;stroke-opacity:0.2;stroke-width:0.4px;"/>
                    </g>
                    <g transform="matrix(1,0,0,1,180.477,27.0115)">
                        <path d="M0,4.867L1.446,12.934L2.892,20.181L4.339,26.669L5.785,32.459L7.231,37.606L8.677,42.164L10.124,46.185L11.57,49.716L13.016,52.804L14.462,55.49L15.909,57.813L17.355,59.81L18.801,61.513L20.247,62.951L21.694,64.153L23.14,65.141L24.586,65.939L26.032,66.568L27.478,67.047L28.925,67.395L30.371,67.63L31.817,67.766L33.263,67.817L34.71,67.792L36.156,67.695L37.602,67.526L39.048,67.28L40.495,66.949L41.941,66.52L43.387,65.977L44.833,65.304L46.28,64.48L47.726,63.488L49.172,62.304L50.618,60.908L52.064,59.275L53.511,57.377L54.957,55.185L56.403,52.667L57.849,49.786L59.296,46.504L60.742,42.777L62.188,38.561L63.634,33.808L65.081,28.466L66.527,22.482L67.973,15.798L69.419,8.356L70.866,0.093" style="fill:none;fill-rule:nonzero;stroke:white;stroke-opacity:0.2;stroke-width:0.4px;"/>
                    </g>
                    <g transform="matrix(1,0,0,1,180.477,37.246)">
                        <path d="M0,4.792L1.446,12.098L2.892,18.609L4.339,24.386L5.785,29.486L7.231,33.963L8.677,37.872L10.124,41.263L11.57,44.186L13.016,46.688L14.462,48.815L15.909,50.609L17.355,52.113L18.801,53.362L20.247,54.39L21.694,55.229L23.14,55.904L24.586,56.438L26.032,56.851L27.478,57.161L28.925,57.38L30.371,57.522L31.817,57.595L33.263,57.607L34.71,57.561L36.156,57.461L37.602,57.306L39.048,57.095L40.495,56.823L41.941,56.482L43.387,56.065L44.833,55.559L46.28,54.95L47.726,54.221L49.172,53.353L50.618,52.322L52.064,51.101L53.511,49.661L54.957,47.968L56.403,45.983L57.849,43.667L59.296,40.976L60.742,37.864L62.188,34.284L63.634,30.187L65.081,25.52L66.527,20.232L67.973,14.266L69.419,7.565L70.866,0.07" style="fill:none;fill-rule:nonzero;stroke:white;stroke-opacity:0.2;stroke-width:0.4px;"/>
                    </g>
                    <g transform="matrix(1,0,0,1,180.477,36.7568)">
                        <path d="M0,4.262L1.446,11.554L2.892,18.059L4.339,23.842L5.785,28.961L7.231,33.473L8.677,37.431L10.124,40.884L11.57,43.882L13.016,46.466L14.462,48.679L15.909,50.56L17.355,52.145L18.801,53.468L20.247,54.56L21.694,55.451L23.14,56.169L24.586,56.736L26.032,57.176L27.478,57.508L28.925,57.748L30.371,57.911L31.817,58.008L33.263,58.046L34.71,58.032L36.156,57.969L37.602,57.855L39.048,57.688L40.495,57.462L41.941,57.167L43.387,56.792L44.833,56.322L46.28,55.741L47.726,55.027L49.172,54.159L50.618,53.112L52.064,51.859L53.511,50.37L54.957,48.614L56.403,46.556L57.849,44.16L59.296,41.388L60.742,38.198L62.188,34.546L63.634,30.387L65.081,25.669L66.527,20.341L67.973,14.347L69.419,7.627L70.866,0.119" style="fill:none;fill-rule:nonzero;stroke:white;stroke-opacity:0.2;stroke-width:0.4px;"/>
                    </g>
                    <g transform="matrix(1,0,0,1,180.477,39.2431)">
                        <path d="M0,4.472L1.446,11.597L2.892,17.936L4.339,23.549L5.785,28.495L7.231,32.832L8.677,36.613L10.124,39.891L11.57,42.713L13.016,45.127L14.462,47.177L15.909,48.904L17.355,50.348L18.801,51.545L20.247,52.526L21.694,53.323L23.14,53.96L24.586,54.463L26.032,54.85L27.478,55.14L28.925,55.347L30.371,55.483L31.817,55.559L33.263,55.58L34.71,55.552L36.156,55.477L37.602,55.354L39.048,55.182L40.495,54.954L41.941,54.663L43.387,54.3L44.833,53.852L46.28,53.304L47.726,52.638L49.172,51.833L50.618,50.866L52.064,49.711L53.511,48.337L54.957,46.712L56.403,44.8L57.849,42.562L59.296,39.957L60.742,36.941L62.188,33.467L63.634,29.486L65.081,24.947L66.527,19.796L67.973,13.978L69.419,7.432L70.866,0.099" style="fill:none;fill-rule:nonzero;stroke:white;stroke-opacity:0.2;stroke-width:0.4px;"/>
                    </g>
                    <g transform="matrix(1,0,0,1,180.477,28.4392)">
                        <path d="M0,4.713L1.446,12.718L2.892,19.906L4.339,26.337L5.785,32.071L7.231,37.164L8.677,41.669L10.124,45.636L11.57,49.112L13.016,52.142L14.462,54.768L15.909,57.029L17.355,58.96L18.801,60.596L20.247,61.968L21.694,63.104L23.14,64.031L24.586,64.772L26.032,65.35L27.478,65.783L28.925,66.091L30.371,66.291L31.817,66.397L33.263,66.422L34.71,66.374L36.156,66.259L37.602,66.078L39.048,65.829L40.495,65.506L41.941,65.099L43.387,64.593L44.833,63.972L46.28,63.216L47.726,62.303L49.172,61.207L50.618,59.903L52.064,58.363L53.511,56.556L54.957,54.45L56.403,52.012L57.849,49.206L59.296,45.992L60.742,42.33L62.188,38.176L63.634,33.481L65.081,28.197L66.527,22.27L67.973,15.644L69.419,8.262L70.866,0.061" style="fill:none;fill-rule:nonzero;stroke:white;stroke-opacity:0.2;stroke-width:0.4px;"/>
                    </g>
                    <g transform="matrix(1,0,0,1,180.477,37.9294)">
                        <path d="M0,4.577L1.446,11.847L2.892,18.319L4.339,24.054L5.785,29.11L7.231,33.545L8.677,37.414L10.124,40.768L11.57,43.659L13.016,46.133L14.462,48.237L15.909,50.013L17.355,51.501L18.801,52.736L20.247,53.751L21.694,54.576L23.14,55.238L24.586,55.759L26.032,56.162L27.478,56.462L28.925,56.676L30.371,56.815L31.817,56.889L33.263,56.906L34.71,56.871L36.156,56.785L37.602,56.649L39.048,56.46L40.495,56.213L41.941,55.901L43.387,55.514L44.833,55.039L46.28,54.461L47.726,53.762L49.172,52.922L50.618,51.918L52.064,50.722L53.511,49.305L54.957,47.633L56.403,45.672L57.849,43.381L59.296,40.718L60.742,37.638L62.188,34.093L63.634,30.032L65.081,25.404L66.527,20.152L67.973,14.222L69.419,7.554L70.866,0.086" style="fill:none;fill-rule:nonzero;stroke:white;stroke-opacity:0.2;stroke-width:0.4px;"/>
                    </g>
                    <g transform="matrix(1,0,0,1,180.477,39.4197)">
                        <path d="M0,4.827L1.446,11.901L2.892,18.176L4.339,23.715L5.785,28.583L7.231,32.839L8.677,36.542L10.124,39.749L11.57,42.51L13.016,44.876L14.462,46.893L15.909,48.601L17.355,50.04L18.801,51.242L20.247,52.239L21.694,53.056L23.14,53.718L24.586,54.246L26.032,54.657L27.478,54.967L28.925,55.19L30.371,55.335L31.817,55.412L33.263,55.428L34.71,55.386L36.156,55.289L37.602,55.136L39.048,54.927L40.495,54.655L41.941,54.316L43.387,53.899L44.833,53.395L46.28,52.79L47.726,52.068L49.172,51.212L50.618,50.2L52.064,49.01L53.511,47.613L54.957,45.981L56.403,44.079L57.849,41.868L59.296,39.308L60.742,36.353L62.188,32.953L63.634,29.056L65.081,24.606L66.527,19.545L67.973,13.811L69.419,7.343L70.866,0.075" style="fill:none;fill-rule:nonzero;stroke:white;stroke-opacity:0.2;stroke-width:0.4px;"/>
                    </g>
                    <g transform="matrix(1,0,0,1,180.477,45.4586)">
                        <path d="M0,4.928L1.446,11.47L2.892,17.246L4.339,22.317L5.785,26.744L7.231,30.583L8.677,33.889L10.124,36.717L11.57,39.116L13.016,41.138L14.462,42.827L15.909,44.23L17.355,45.386L18.801,46.333L20.247,47.103L21.694,47.725L23.14,48.22L24.586,48.61L26.032,48.91L27.478,49.131L28.925,49.285L30.371,49.378L31.817,49.418L33.263,49.408L34.71,49.351L36.156,49.248L37.602,49.1L39.048,48.906L40.495,48.662L41.941,48.364L43.387,48.006L44.833,47.581L46.28,47.079L47.726,46.487L49.172,45.789L50.618,44.967L52.064,43.996L53.511,42.85L54.957,41.494L56.403,39.893L57.849,38.006L59.296,35.787L60.742,33.191L62.188,30.168L63.634,26.667L65.081,22.634L66.527,18.013L67.973,12.748L69.419,6.78L70.866,0.046" style="fill:none;fill-rule:nonzero;stroke:white;stroke-opacity:0.2;stroke-width:0.4px;"/>
                    </g>
                    <g transform="matrix(1,0,0,1,180.477,39.2896)">
                        <path d="M0,4.198L1.446,11.38L2.892,17.765L4.339,23.414L5.785,28.389L7.231,32.746L8.677,36.541L10.124,39.828L11.57,42.655L13.016,45.073L14.462,47.124L15.909,48.853L17.355,50.298L18.801,51.495L20.247,52.478L21.694,53.276L23.14,53.915L24.586,54.419L26.032,54.808L27.478,55.099L28.925,55.307L30.371,55.443L31.817,55.518L33.263,55.537L34.71,55.507L36.156,55.429L37.602,55.303L39.048,55.126L40.495,54.894L41.941,54.599L43.387,54.232L44.833,53.78L46.28,53.23L47.726,52.563L49.172,51.759L50.618,50.795L52.064,49.645L53.511,48.279L54.957,46.665L56.403,44.766L57.849,42.542L59.296,39.953L60.742,36.952L62.188,33.492L63.634,29.522L65.081,24.99L66.527,19.84L67.973,14.015L69.419,7.454L70.866,0.095" style="fill:none;fill-rule:nonzero;stroke:white;stroke-opacity:0.2;stroke-width:0.4px;"/>
                    </g>
                    <g transform="matrix(1,0,0,1,180.477,35.011)">
                        <path d="M0,5.076L1.446,12.471L2.892,19.077L4.339,24.955L5.785,30.164L7.231,34.758L8.677,38.79L10.124,42.311L11.57,45.368L13.016,48.006L14.462,50.268L15.909,52.192L17.355,53.815L18.801,55.173L20.247,56.296L21.694,57.215L23.14,57.955L24.586,58.542L26.032,58.996L27.478,59.337L28.925,59.58L30.371,59.739L31.817,59.823L33.263,59.841L34.71,59.797L36.156,59.694L37.602,59.532L39.048,59.308L40.495,59.018L41.941,58.654L43.387,58.205L44.833,57.659L46.28,56.999L47.726,56.207L49.172,55.262L50.618,54.138L52.064,52.81L53.511,51.247L54.957,49.419L56.403,47.291L57.849,44.826L59.296,41.984L60.742,38.723L62.188,34.999L63.634,30.763L65.081,25.966L66.527,20.556L67.973,14.475L69.419,7.667L70.866,0.07" style="fill:none;fill-rule:nonzero;stroke:white;stroke-opacity:0.2;stroke-width:0.4px;"/>
                    </g>
                    <g transform="matrix(1,0,0,1,180.477,33.2788)">
                        <path d="M0,4.249L1.446,11.959L2.892,18.856L4.339,25L5.785,30.45L7.231,35.26L8.677,39.484L10.124,43.173L11.57,46.375L13.016,49.137L14.462,51.503L15.909,53.514L17.355,55.209L18.801,56.626L20.247,57.798L21.694,58.756L23.14,59.529L24.586,60.143L26.032,60.619L27.478,60.978L28.925,61.236L30.371,61.408L31.817,61.507L33.263,61.541L34.71,61.517L36.156,61.439L37.602,61.305L39.048,61.113L40.495,60.856L41.941,60.525L43.387,60.107L44.833,59.587L46.28,58.949L47.726,58.172L49.172,57.234L50.618,56.11L52.064,54.771L53.511,53.185L54.957,51.32L56.403,49.137L57.849,46.598L59.296,43.662L60.742,40.285L62.188,36.419L63.634,32.017L65.081,27.028L66.527,21.399L67.973,15.073L69.419,7.995L70.866,0.102" style="fill:none;fill-rule:nonzero;stroke:white;stroke-opacity:0.2;stroke-width:0.4px;"/>
                    </g>
                    <g transform="matrix(1,0,0,1,180.477,28.9688)">
                        <path d="M0,4.708L1.446,12.742L2.892,19.962L4.339,26.429L5.785,32.198L7.231,37.323L8.677,41.853L10.124,45.836L11.57,49.317L13.016,52.337L14.462,54.937L15.909,57.155L17.355,59.03L18.801,60.596L20.247,61.888L21.694,62.939L23.14,63.78L24.586,64.439L26.032,64.943L27.478,65.316L28.925,65.579L30.371,65.75L31.817,65.842L33.263,65.868L34.71,65.833L36.156,65.742L37.602,65.595L39.048,65.388L40.495,65.113L41.941,64.759L43.387,64.313L44.833,63.756L46.28,63.067L47.726,62.223L49.172,61.196L50.618,59.958L52.064,58.478L53.511,56.723L54.957,54.659L56.403,52.25L57.849,49.459L59.296,46.247L60.742,42.574L62.188,38.398L63.634,33.674L65.081,28.355L66.527,22.391L67.973,15.73L69.419,8.314L70.866,0.085" style="fill:none;fill-rule:nonzero;stroke:white;stroke-opacity:0.2;stroke-width:0.4px;"/>
                    </g>
                    <g transform="matrix(1,0,0,1,180.477,26.2072)">
                        <path d="M0,4.858L1.446,13.031L2.892,20.382L4.339,26.97L5.785,32.854L7.231,38.09L8.677,42.73L10.124,46.823L11.57,50.418L13.016,53.558L14.462,56.286L15.909,58.641L17.355,60.66L18.801,62.375L20.247,63.819L21.694,65.02L23.14,66.003L24.586,66.793L26.032,67.412L27.478,67.881L28.925,68.22L30.371,68.446L31.817,68.577L33.263,68.624L34.71,68.597L36.156,68.499L37.602,68.331L39.048,68.089L40.495,67.764L41.941,67.342L43.387,66.808L44.833,66.144L46.28,65.33L47.726,64.345L49.172,63.167L50.618,61.772L52.064,60.133L53.511,58.222L54.957,56.009L56.403,53.459L57.849,50.537L59.296,47.202L60.742,43.413L62.188,39.126L63.634,34.292L65.081,28.862L66.527,22.784L67.973,16.002L69.419,8.457L70.866,0.091" style="fill:none;fill-rule:nonzero;stroke:white;stroke-opacity:0.2;stroke-width:0.4px;"/>
                    </g>
                    <g transform="matrix(1,0,0,1,180.477,34.0424)">
                        <path d="M0,4.569L1.446,11.937L2.892,18.526L4.339,24.397L5.785,29.613L7.231,34.229L8.677,38.3L10.124,41.876L11.57,45.004L13.016,47.729L14.462,50.089L15.909,52.125L17.355,53.868L18.801,55.353L20.247,56.606L21.694,57.654L23.14,58.519L24.586,59.219L26.032,59.771L27.478,60.19L28.925,60.491L30.371,60.687L31.817,60.792L33.263,60.817L34.71,60.77L36.156,60.657L37.602,60.479L39.048,60.237L40.495,59.923L41.941,59.53L43.387,59.045L44.833,58.455L46.28,57.742L47.726,56.889L49.172,55.873L50.618,54.672L52.064,53.262L53.511,51.616L54.957,49.705L56.403,47.499L57.849,44.961L59.296,42.056L60.742,38.742L62.188,34.978L63.634,30.715L65.081,25.904L66.527,20.492L67.973,14.421L69.419,7.633L70.866,0.063" style="fill:none;fill-rule:nonzero;stroke:white;stroke-opacity:0.2;stroke-width:0.4px;"/>
                    </g>
                    <g transform="matrix(1,0,0,1,180.477,37.0361)">
                        <path d="M0,4.854L1.446,12.087L2.892,18.525L4.339,24.234L5.785,29.275L7.231,33.706L8.677,37.584L10.124,40.961L11.57,43.888L13.016,46.411L14.462,48.574L15.909,50.417L17.355,51.978L18.801,53.29L20.247,54.382L21.694,55.283L23.14,56.016L24.586,56.6L26.032,57.054L27.478,57.394L28.925,57.632L30.371,57.781L31.817,57.851L33.263,57.85L34.71,57.784L36.156,57.657L37.602,57.47L39.048,57.223L40.495,56.911L41.941,56.529L43.387,56.067L44.833,55.515L46.28,54.858L47.726,54.079L49.172,53.159L50.618,52.076L52.064,50.804L53.511,49.315L54.957,47.577L56.403,45.557L57.849,43.217L59.296,40.517L60.742,37.412L62.188,33.856L63.634,29.798L65.081,25.186L66.527,19.964L67.973,14.073L69.419,7.451L70.866,0.035" style="fill:none;fill-rule:nonzero;stroke:white;stroke-opacity:0.2;stroke-width:0.4px;"/>
                    </g>
                    <g transform="matrix(1,0,0,1,180.477,35.0089)">
                        <path d="M0,4.349L1.446,11.908L2.892,18.654L4.339,24.649L5.785,29.952L7.231,34.62L8.677,38.708L10.124,42.268L11.57,45.351L13.016,48.002L14.462,50.266L15.909,52.186L17.355,53.799L18.801,55.143L20.247,56.251L21.694,57.153L23.14,57.878L24.586,58.451L26.032,58.895L27.478,59.231L28.925,59.474L30.371,59.641L31.817,59.741L33.263,59.785L34.71,59.777L36.156,59.72L37.602,59.612L39.048,59.451L40.495,59.227L41.941,58.933L43.387,58.554L44.833,58.076L46.28,57.482L47.726,56.751L49.172,55.861L50.618,54.786L52.064,53.5L53.511,51.972L54.957,50.168L56.403,48.054L57.849,45.591L59.296,42.739L60.742,39.453L62.188,35.688L63.634,31.396L65.081,26.524L66.527,21.019L67.973,14.824L69.419,7.881L70.866,0.128" style="fill:none;fill-rule:nonzero;stroke:white;stroke-opacity:0.2;stroke-width:0.4px;"/>
                    </g>
                    <g transform="matrix(1,0,0,1,180.477,32.0174)">
                        <path d="M0,4.791L1.446,12.541L2.892,19.471L4.339,25.645L5.785,31.122L7.231,35.96L8.677,40.214L10.124,43.935L11.57,47.172L13.016,49.972L14.462,52.38L15.909,54.435L17.355,56.177L18.801,57.641L20.247,58.86L21.694,59.864L23.14,60.679L24.586,61.331L26.032,61.84L27.478,62.224L28.925,62.502L30.371,62.686L31.817,62.789L33.263,62.821L34.71,62.787L36.156,62.691L37.602,62.532L39.048,62.309L40.495,62.014L41.941,61.637L43.387,61.168L44.833,60.591L46.28,59.89L47.726,59.046L49.172,58.039L50.618,56.843L52.064,55.432L53.511,53.776L54.957,51.841L56.403,49.594L57.849,46.994L59.296,44.002L60.742,40.572L62.188,36.66L63.634,32.214L65.081,27.184L66.527,21.514L67.973,15.148L69.419,8.026L70.866,0.084" style="fill:none;fill-rule:nonzero;stroke:white;stroke-opacity:0.2;stroke-width:0.4px;"/>
                    </g>
                    <g transform="matrix(1,0,0,1,180.477,29.7206)">
                        <path d="M0,4.424L1.446,12.277L2.892,19.34L4.339,25.67L5.785,31.324L7.231,36.355L8.677,40.812L10.124,44.742L11.57,48.19L13.016,51.196L14.462,53.799L15.909,56.035L17.355,57.938L18.801,59.541L20.247,60.874L21.694,61.967L23.14,62.849L24.586,63.546L26.032,64.084L27.478,64.486L28.925,64.772L30.371,64.961L31.817,65.069L33.263,65.105L34.71,65.079L36.156,64.993L37.602,64.848L39.048,64.641L40.495,64.363L41.941,64.002L43.387,63.545L44.833,62.973L46.28,62.264L47.726,61.396L49.172,60.343L50.618,59.077L52.064,57.571L53.511,55.795L54.957,53.718L56.403,51.307L57.849,48.527L59.296,45.343L60.742,41.716L62.188,37.605L63.634,32.965L65.081,27.75L66.527,21.91L67.973,15.392L69.419,8.14L70.866,0.096" style="fill:none;fill-rule:nonzero;stroke:white;stroke-opacity:0.2;stroke-width:0.4px;"/>
                    </g>
                    <g transform="matrix(1,0,0,1,180.477,35.2056)">
                        <path d="M0,5.134L1.446,12.518L2.892,19.111L4.339,24.974L5.785,30.165L7.231,34.741L8.677,38.755L10.124,42.258L11.57,45.298L13.016,47.92L14.462,50.168L15.909,52.079L17.355,53.694L18.801,55.044L20.247,56.163L21.694,57.079L23.14,57.819L24.586,58.405L26.032,58.858L27.478,59.196L28.925,59.435L30.371,59.586L31.817,59.661L33.263,59.667L34.71,59.61L36.156,59.491L37.602,59.312L39.048,59.07L40.495,58.761L41.941,58.377L43.387,57.908L44.833,57.343L46.28,56.667L47.726,55.861L49.172,54.906L50.618,53.778L52.064,52.451L53.511,50.896L54.957,49.081L56.403,46.972L57.849,44.53L59.296,41.715L60.742,38.485L62.188,34.792L63.634,30.59L65.081,25.826L66.527,20.448L67.973,14.399L69.419,7.62L70.866,0.049" style="fill:none;fill-rule:nonzero;stroke:white;stroke-opacity:0.2;stroke-width:0.4px;"/>
                    </g>
                    <g transform="matrix(1,0,0,1,180.477,30.4633)">
                        <path d="M0,4.571L1.446,12.419L2.892,19.448L4.339,25.72L5.785,31.295L7.231,36.229L8.677,40.577L10.124,44.391L11.57,47.721L13.016,50.612L14.462,53.109L15.909,55.253L17.355,57.08L18.801,58.626L20.247,59.924L21.694,61.001L23.14,61.884L24.586,62.595L26.032,63.157L27.478,63.587L28.925,63.904L30.371,64.124L31.817,64.26L33.263,64.324L34.71,64.323L36.156,64.262L37.602,64.14L39.048,63.952L40.495,63.688L41.941,63.336L43.387,62.88L44.833,62.305L46.28,61.592L47.726,60.721L49.172,59.671L50.618,58.418L52.064,56.938L53.511,55.202L54.957,53.178L56.403,50.832L57.849,48.128L59.296,45.024L60.742,41.479L62.188,37.447L63.634,32.88L65.081,27.726L66.527,21.932L67.973,15.442L69.419,8.197L70.866,0.135" style="fill:none;fill-rule:nonzero;stroke:white;stroke-opacity:0.2;stroke-width:0.4px;"/>
                    </g>
                    <g transform="matrix(1,0,0,1,180.477,41.1142)">
                        <path d="M0,4.839L1.446,11.709L2.892,17.804L4.339,23.185L5.785,27.908L7.231,32.03L8.677,35.605L10.124,38.685L11.57,41.322L13.016,43.567L14.462,45.47L15.909,47.077L17.355,48.432L18.801,49.572L20.247,50.531L21.694,51.333L23.14,52.001L24.586,52.549L26.032,52.986L27.478,53.322L28.925,53.563L30.371,53.715L31.817,53.787L33.263,53.783L34.71,53.71L36.156,53.572L37.602,53.372L39.048,53.109L40.495,52.783L41.941,52.39L43.387,51.926L44.833,51.384L46.28,50.755L47.726,50.027L49.172,49.186L50.618,48.212L52.064,47.083L53.511,45.772L54.957,44.245L56.403,42.464L57.849,40.386L59.296,37.964L60.742,35.148L62.188,31.888L63.634,28.132L65.081,23.828L66.527,18.921L67.973,13.357L69.419,7.077L70.866,0.021" style="fill:none;fill-rule:nonzero;stroke:white;stroke-opacity:0.2;stroke-width:0.4px;"/>
                    </g>
                    <g transform="matrix(1,0,0,1,180.477,43.2726)">
                        <path d="M0,4.601L1.446,11.353L2.892,17.337L4.339,22.616L5.785,27.25L7.231,31.294L8.677,34.804L10.124,37.83L11.57,40.42L13.016,42.62L14.462,44.473L15.909,46.019L17.355,47.296L18.801,48.338L20.247,49.18L21.694,49.85L23.14,50.375L24.586,50.779L26.032,51.081L27.478,51.301L28.925,51.451L30.371,51.543L31.817,51.583L33.263,51.578L34.71,51.53L36.156,51.442L37.602,51.313L39.048,51.142L40.495,50.926L41.941,50.658L43.387,50.332L44.833,49.937L46.28,49.457L47.726,48.877L49.172,48.174L50.618,47.326L52.064,46.304L53.511,45.08L54.957,43.62L56.403,41.889L57.849,39.849L59.296,37.46L60.742,34.679L62.188,31.46L63.634,27.755L65.081,23.514L66.527,18.682L67.973,13.204L69.419,7.019L70.866,0.066" style="fill:none;fill-rule:nonzero;stroke:white;stroke-opacity:0.2;stroke-width:0.4px;"/>
                    </g>
                    <g transform="matrix(1,0,0,1,180.477,30.3259)">
                        <path d="M0,5.273L1.446,13.405L2.892,20.684L4.339,27.168L5.785,32.914L7.231,37.98L8.677,42.417L10.124,46.28L11.57,49.617L13.016,52.478L14.462,54.908L15.909,56.953L17.355,58.655L18.801,60.054L20.247,61.19L21.694,62.098L23.14,62.815L24.586,63.37L26.032,63.791L27.478,64.101L28.925,64.319L30.371,64.457L31.817,64.526L33.263,64.534L34.71,64.484L36.156,64.378L37.602,64.217L39.048,63.997L40.495,63.716L41.941,63.364L43.387,62.933L44.833,62.408L46.28,61.771L47.726,61L49.172,60.066L50.618,58.939L52.064,57.585L53.511,55.967L54.957,54.046L56.403,51.783L57.849,49.135L59.296,46.058L60.742,42.506L62.188,38.432L63.634,33.784L65.081,28.511L66.527,22.56L67.973,15.873L69.419,8.394L70.866,0.062" style="fill:none;fill-rule:nonzero;stroke:white;stroke-opacity:0.2;stroke-width:0.4px;"/>
                    </g>
                    <g transform="matrix(1,0,0,1,180.477,35.1947)">
                        <path d="M0,4.742L1.446,12.139L2.892,18.741L4.339,24.61L5.785,29.806L7.231,34.385L8.677,38.402L10.124,41.908L11.57,44.953L13.016,47.582L14.462,49.84L15.909,51.767L17.355,53.402L18.801,54.778L20.247,55.93L21.694,56.884L23.14,57.666L24.586,58.297L26.032,58.791L27.478,59.164L28.925,59.427L30.371,59.595L31.817,59.677L33.263,59.684L34.71,59.623L36.156,59.499L37.602,59.315L39.048,59.069L40.495,58.758L41.941,58.375L43.387,57.909L44.833,57.349L46.28,56.679L47.726,55.88L49.172,54.932L50.618,53.811L52.064,52.49L53.511,50.941L54.957,49.131L56.403,47.025L57.849,44.585L59.296,41.772L60.742,38.542L62.188,34.849L63.634,30.643L65.081,25.874L66.527,20.488L67.973,14.427L69.419,7.633L70.866,0.043" style="fill:none;fill-rule:nonzero;stroke:white;stroke-opacity:0.2;stroke-width:0.4px;"/>
                    </g>
                    <g transform="matrix(1,0,0,1,180.477,33.1589)">
                        <path d="M0,4.826L1.446,12.441L2.892,19.249L4.339,25.312L5.785,30.691L7.231,35.441L8.677,39.617L10.124,43.27L11.57,46.448L13.016,49.198L14.462,51.561L15.909,53.578L17.355,55.286L18.801,56.719L20.247,57.908L21.694,58.883L23.14,59.67L24.586,60.295L26.032,60.778L27.478,61.14L28.925,61.399L30.371,61.568L31.817,61.66L33.263,61.684L34.71,61.646L36.156,61.549L37.602,61.393L39.048,61.175L40.495,60.89L41.941,60.527L43.387,60.075L44.833,59.519L46.28,58.841L47.726,58.023L49.172,57.042L50.618,55.873L52.064,54.49L53.511,52.864L54.957,50.962L56.403,48.752L57.849,46.195L59.296,43.251L60.742,39.879L62.188,36.032L63.634,31.663L65.081,26.719L66.527,21.146L67.973,14.889L69.419,7.887L70.866,0.079" style="fill:none;fill-rule:nonzero;stroke:white;stroke-opacity:0.2;stroke-width:0.4px;"/>
                    </g>
                    <g transform="matrix(1,0,0,1,180.477,26.3798)">
                        <path d="M0,4.004L1.446,12.228L2.892,19.622L4.339,26.246L5.785,32.16L7.231,37.418L8.677,42.075L10.124,46.181L11.57,49.783L13.016,52.927L14.462,55.657L15.909,58.013L17.355,60.034L18.801,61.756L20.247,63.211L21.694,64.43L23.14,65.44L24.586,66.265L26.032,66.925L27.478,67.44L28.925,67.826L30.371,68.102L31.817,68.281L33.263,68.377L34.71,68.399L36.156,68.352L37.602,68.236L39.048,68.046L40.495,67.77L41.941,67.395L43.387,66.904L44.833,66.28L46.28,65.506L47.726,64.56L49.172,63.423L50.618,62.068L52.064,60.469L53.511,58.596L54.957,56.415L56.403,53.89L57.849,50.983L59.296,47.653L60.742,43.858L62.188,39.551L63.634,34.685L65.081,29.211L66.527,23.077L67.973,16.226L69.419,8.602L70.866,0.144" style="fill:none;fill-rule:nonzero;stroke:white;stroke-opacity:0.2;stroke-width:0.4px;"/>
                    </g>
                    <g transform="matrix(1,0,0,1,180.477,33.9485)">
                        <path d="M0,4.913L1.446,12.485L2.892,19.249L4.339,25.265L5.785,30.594L7.231,35.293L8.677,39.417L10.124,43.017L11.57,46.141L13.016,48.837L14.462,51.147L15.909,53.113L17.355,54.772L18.801,56.159L20.247,57.307L21.694,58.246L23.14,59.002L24.586,59.601L26.032,60.064L27.478,60.41L28.925,60.655L30.371,60.813L31.817,60.895L33.263,60.909L34.71,60.861L36.156,60.754L37.602,60.588L39.048,60.36L40.495,60.066L41.941,59.697L43.387,59.242L44.833,58.689L46.28,58.02L47.726,57.217L49.172,56.259L50.618,55.12L52.064,53.775L53.511,52.192L54.957,50.339L56.403,48.181L57.849,45.679L59.296,42.793L60.742,39.479L62.188,35.691L63.634,31.379L65.081,26.493L66.527,20.977L67.973,14.774L69.419,7.824L70.866,0.064" style="fill:none;fill-rule:nonzero;stroke:white;stroke-opacity:0.2;stroke-width:0.4px;"/>
                    </g>
                    <g transform="matrix(1,0,0,1,180.477,32.2419)">
                        <path d="M0,4.471L1.446,12.279L2.892,19.279L4.339,25.531L5.785,31.09L7.231,36.008L8.677,40.336L10.124,44.12L11.57,47.405L13.016,50.235L14.462,52.652L15.909,54.698L17.355,56.411L18.801,57.833L20.247,58.998L21.694,59.942L23.14,60.697L24.586,61.289L26.032,61.743L27.478,62.082L28.925,62.323L30.371,62.481L31.817,62.567L33.263,62.591L34.71,62.558L36.156,62.472L37.602,62.331L39.048,62.133L40.495,61.873L41.941,61.541L43.387,61.126L44.833,60.613L46.28,59.983L47.726,59.215L49.172,58.285L50.618,57.164L52.064,55.822L53.511,54.222L54.957,52.33L56.403,50.106L57.849,47.509L59.296,44.498L60.742,41.031L62.188,37.065L63.634,32.554L65.081,27.451L66.527,21.708L67.973,15.27L69.419,8.084L70.866,0.089" style="fill:none;fill-rule:nonzero;stroke:white;stroke-opacity:0.2;stroke-width:0.4px;"/>
                    </g>
                    <g transform="matrix(1,0,0,1,180.477,23.8416)">
                        <path d="M0,4.752L1.446,13.018L2.892,20.472L4.339,27.178L5.785,33.193L7.231,38.573L8.677,43.368L10.124,47.628L11.57,51.395L13.016,54.71L14.462,57.611L15.909,60.133L17.355,62.308L18.801,64.167L20.247,65.741L21.694,67.056L23.14,68.138L24.586,69.012L26.032,69.699L27.478,70.221L28.925,70.596L30.371,70.844L31.817,70.982L33.263,71.022L34.71,70.976L36.156,70.849L37.602,70.644L39.048,70.358L40.495,69.984L41.941,69.511L43.387,68.924L44.833,68.205L46.28,67.332L47.726,66.282L49.172,65.028L50.618,63.544L52.064,61.802L53.511,59.772L54.957,57.426L56.403,54.731L57.849,51.655L59.296,48.162L60.742,44.217L62.188,39.777L63.634,34.8L65.081,29.238L66.527,23.04L67.973,16.15L69.419,8.51L70.866,0.059" style="fill:none;fill-rule:nonzero;stroke:white;stroke-opacity:0.2;stroke-width:0.4px;"/>
                    </g>
                    <g transform="matrix(1,0,0,1,180.477,33.0168)">
                        <path d="M0,3.9L1.446,11.411L2.892,18.139L4.339,24.148L5.785,29.496L7.231,34.24L8.677,38.433L10.124,42.123L11.57,45.358L13.016,48.181L14.462,50.632L15.909,52.748L17.355,54.563L18.801,56.109L20.247,57.415L21.694,58.504L23.14,59.401L24.586,60.125L26.032,60.695L27.478,61.129L28.925,61.443L30.371,61.653L31.817,61.773L33.263,61.815L34.71,61.786L36.156,61.692L37.602,61.533L39.048,61.307L40.495,61.006L41.941,60.619L43.387,60.133L44.833,59.534L46.28,58.804L47.726,57.925L49.172,56.878L50.618,55.642L52.064,54.193L53.511,52.505L54.957,50.549L56.403,48.293L57.849,45.701L59.296,42.737L60.742,39.36L62.188,35.526L63.634,31.188L65.081,26.297L66.527,20.799L67.973,14.639L69.419,7.757L70.866,0.091" style="fill:none;fill-rule:nonzero;stroke:white;stroke-opacity:0.2;stroke-width:0.4px;"/>
                    </g>
                    <g transform="matrix(1,0,0,1,180.477,41.0076)">
                        <path d="M0,4.782L1.446,11.649L2.892,17.754L4.339,23.158L5.785,27.921L7.231,32.096L8.677,35.738L10.124,38.895L11.57,41.615L13.016,43.942L14.462,45.919L15.909,47.582L17.355,48.97L18.801,50.115L20.247,51.05L21.694,51.803L23.14,52.401L24.586,52.868L26.032,53.224L27.478,53.486L28.925,53.67L30.371,53.785L31.817,53.841L33.263,53.844L34.71,53.797L36.156,53.703L37.602,53.562L39.048,53.371L40.495,53.127L41.941,52.823L43.387,52.45L44.833,51.998L46.28,51.452L47.726,50.795L49.172,50.005L50.618,49.06L52.064,47.933L53.511,46.595L54.957,45.013L56.403,43.156L57.849,40.986L59.296,38.464L60.742,35.549L62.188,32.197L63.634,28.36L65.081,23.99L66.527,19.032L67.973,13.433L69.419,7.133L70.866,0.071" style="fill:none;fill-rule:nonzero;stroke:white;stroke-opacity:0.2;stroke-width:0.4px;"/>
                    </g>
                    <g transform="matrix(1,0,0,1,180.477,33.7648)">
                        <path d="M0,4.033L1.446,11.619L2.892,18.403L4.339,24.448L5.785,29.813L7.231,34.557L8.677,38.733L10.124,42.393L11.57,45.584L13.016,48.35L14.462,50.734L15.909,52.772L17.355,54.502L18.801,55.954L20.247,57.161L21.694,58.152L23.14,58.951L24.586,59.586L26.032,60.077L27.478,60.448L28.925,60.715L30.371,60.895L31.817,61.001L33.263,61.043L34.71,61.027L36.156,60.957L37.602,60.832L39.048,60.649L40.495,60.402L41.941,60.079L43.387,59.669L44.833,59.154L46.28,58.516L47.726,57.734L49.172,56.785L50.618,55.643L52.064,54.282L53.511,52.673L54.957,50.786L56.403,48.586L57.849,46.039L59.296,43.106L60.742,39.745L62.188,35.913L63.634,31.561L65.081,26.639L66.527,21.092L67.973,14.862L69.419,7.891L70.866,0.114" style="fill:none;fill-rule:nonzero;stroke:white;stroke-opacity:0.2;stroke-width:0.4px;"/>
                    </g>
                    <g transform="matrix(1,0,0,1,180.477,59.718)">
                        <path d="M0,3.051L1.446,8.461L2.892,13.128L4.339,17.113L5.785,20.48L7.231,23.291L8.677,25.611L10.124,27.505L11.57,29.039L13.016,30.273L14.462,31.265L15.909,32.062L17.355,32.705L18.801,33.226L20.247,33.648L21.694,33.992L23.14,34.271L24.586,34.496L26.032,34.675L27.478,34.815L28.925,34.92L30.371,34.994L31.817,35.041L33.263,35.061L34.71,35.057L36.156,35.028L37.602,34.976L39.048,34.898L40.495,34.795L41.941,34.662L43.387,34.497L44.833,34.296L46.28,34.054L47.726,33.763L49.172,33.414L50.618,32.996L52.064,32.493L53.511,31.885L54.957,31.145L56.403,30.241L57.849,29.13L59.296,27.763L60.742,26.082L62.188,24.024L63.634,21.525L65.081,18.517L66.527,14.938L67.973,10.723L69.419,5.812L70.866,0.143" style="fill:none;fill-rule:nonzero;stroke:white;stroke-opacity:0.2;stroke-width:0.4px;"/>
                    </g>
                    <g transform="matrix(1,0,0,1,180.477,28.7371)">
                        <path d="M0,4.68L1.446,12.608L2.892,19.722L4.339,26.083L5.785,31.75L7.231,36.778L8.677,41.221L10.124,45.13L11.57,48.552L13.016,51.534L14.462,54.118L15.909,56.344L17.355,58.251L18.801,59.873L20.247,61.244L21.694,62.395L23.14,63.356L24.586,64.157L26.032,64.827L27.478,65.381L28.925,65.797L30.371,66.056L31.817,66.177L33.263,66.185L34.71,66.1L36.156,65.935L37.602,65.698L39.048,65.39L40.495,65.007L41.941,64.542L43.387,63.982L44.833,63.313L46.28,62.517L47.726,61.571L49.172,60.453L50.618,59.138L52.064,57.598L53.511,55.802L54.957,53.718L56.403,51.313L57.849,48.547L59.296,45.383L60.742,41.775L62.188,37.68L63.634,33.05L65.081,27.833L66.527,21.977L67.973,15.425L69.419,8.12L70.866,0" style="fill:none;fill-rule:nonzero;stroke:white;stroke-opacity:0.2;stroke-width:0.4px;"/>
                    </g>
                </g>
            </g>
        </g>
    </g>
    <circle cx="0.222" cy="0.222" r="0.222"/>
    <g transform="matrix(1,0,0,1,391.372,119.555)">
        <circle cx="0.222" cy="0.222" r="0.222"/>
    </g>
</svg>
