<?xml version="1.0" encoding="UTF-8" standalone="no"?>
<!DOCTYPE svg PUBLIC "-//W3C//DTD SVG 1.1//EN" "http://www.w3.org/Graphics/SVG/1.1/DTD/svg11.dtd">
<svg width="100%" height="100%" viewBox="0 0 1182 1182" version="1.1" xmlns="http://www.w3.org/2000/svg" xmlns:xlink="http://www.w3.org/1999/xlink" xml:space="preserve" xmlns:serif="http://www.serif.com/" style="fill-rule:evenodd;clip-rule:evenodd;stroke-linecap:round;stroke-linejoin:round;stroke-miterlimit:1.5;">
    <path d="M203.288,89.515C177.709,449.592 180.903,494.509 189.413,588.785C197.923,683.061 221.771,822.982 221.771,895.729" style="fill:none;stroke:white;stroke-width:7.08px;"/>
    <path d="M319.929,247.646C306.936,321.662 297.196,319.117 301.772,389.418C306.348,459.719 333.91,499.472 333.85,563.695C333.79,627.917 323.262,869.85 301.772,944.286C280.282,1018.72 279.447,1045.91 282.34,1078.37" style="fill:none;stroke:white;stroke-width:7.08px;"/>
    <path d="M81.877,1166.39C95.658,1056.1 112.572,982.577 111.63,929.256C110.688,875.936 96.313,795.694 96.313,795.694" style="fill:none;stroke:white;stroke-width:7.08px;"/>
    <path d="M589.757,35.219C530.953,371.081 540.452,574.717 558.268,730.423C576.083,886.129 598.161,934.881 589.757,990.178" style="fill:none;stroke:white;stroke-width:7.08px;"/>
    <path d="M471.861,1313.19C471.861,1313.19 423.824,1035.27 432.375,962.864" style="fill:none;stroke:white;stroke-width:7.08px;"/>
    <path d="M715.517,1268.47C715.517,1268.47 786.94,785.995 724.381,536.881C661.822,287.767 766.8,136.73 772.785,109.909" style="fill:none;stroke:white;stroke-width:7.08px;"/>
    <path d="M990.089,197.165L997.51,331.702" style="fill:none;stroke:white;stroke-width:7.08px;"/>
    <path d="M1047.58,806.957C1047.58,806.957 949.013,1115.34 966.528,1210.37" style="fill:none;stroke:white;stroke-width:7.08px;"/>
    <path d="M1047.58,-44.447C1047.58,-44.447 1066,264.353 1150.29,325.095" style="fill:none;stroke:white;stroke-width:7.08px;"/>
</svg>
