<?xml version="1.0" encoding="UTF-8" standalone="no"?>
<!DOCTYPE svg PUBLIC "-//W3C//DTD SVG 1.1//EN" "http://www.w3.org/Graphics/SVG/1.1/DTD/svg11.dtd">
<svg width="100%" height="100%" viewBox="0 0 1502 2024" version="1.1" xmlns="http://www.w3.org/2000/svg" xmlns:xlink="http://www.w3.org/1999/xlink" xml:space="preserve" xmlns:serif="http://www.serif.com/" style="fill-rule:evenodd;clip-rule:evenodd;stroke-linejoin:round;stroke-miterlimit:2;">
    <g>
        <path d="M550.35,52L550.99,52C596.126,101.016 617.147,181.525 619.88,253.16C639.88,243.414 669.596,231.23 685.19,247.03C694.648,181.958 656.68,113.835 755.54,149.28C739.012,259.121 738.188,265.769 785.43,271.31C786.638,247.608 793.3,166.681 815.87,158.96C834.903,153.759 844.99,179.975 852.53,189.5C862.914,202.665 869.046,184.823 877.59,188.53C878.47,191.7 877.06,194.64 875.03,197.01C739.04,371.96 942.376,191.322 987.86,519.14C1111.81,490.775 1236.74,502.048 1240.98,502.02C1240.54,502.59 1239.67,503.73 1239.23,504.3C1310.13,545.321 1234.01,821.322 1181.3,617.81C1181.01,657.685 1202.99,680.224 1214.18,698.08C1154.92,675.951 1094.81,665.167 1033.82,670.69C1210.27,697.236 1242.17,1018.05 1244.91,1023C1441.82,1328.24 1412.63,1830.38 1303.16,1908.13C1231.25,1961.28 1114.41,1959.97 1028.22,1941.78C979.002,1930.47 709.403,1909.78 459.06,1735.79C470.989,1807.5 490.643,1896.38 514.95,1965.13C516.24,1967.76 514.78,1970.35 512.67,1972L509.14,1972C502.909,1967.49 481.049,1909.92 426.16,1886.85C335.689,1847.65 250.727,1940.01 259.97,1907C289.737,1741.16 285.58,1558.12 284.7,1554.41C236.592,1479.64 202.089,1389.2 197.65,1303.21C191.064,1288.46 123.164,1185.27 113,1031.4C113,972.762 117.66,916.181 152.59,853.63C225.441,722.724 238.951,823.251 253.84,659.07C262.777,557.214 252.691,437.269 233.6,336.26C232.592,329.884 223.638,316.949 237.77,300.81C280.012,252.72 434.418,267.065 440.02,312.58L439.69,312.65C432.913,263.857 280.007,267.132 246.47,310.53C225.447,337.37 302.999,355.32 320.89,356.62C398.57,362.97 412.819,337.887 430.44,332.47C435.55,328.27 439.65,322.13 439.55,315.28L439.9,315.35C440.05,322.39 435.92,328.48 431.04,333.17C431.45,335 432.19,336.88 431.64,338.77C424.23,370.82 418.88,403.4 416.28,436.19C421.85,424.453 440.4,331.975 563.02,279.12C569.759,275.254 560.397,152.567 533.38,116.62C522.353,102.766 458.793,101.412 550.35,52M522.46,76.47C517.205,80.572 504.421,91.049 509.51,95.39C517.839,103.24 565.825,85.035 572.93,281.92C487.145,317.162 430.383,378.253 415.33,470.54C404.08,527.328 434.287,709.17 476.13,775.9C495.35,797.39 509.67,823.01 519.53,850.03C550.272,770.402 601.114,641.947 693.83,663.9C674.15,632.88 659.17,598.79 650.06,563.19C650.52,562.65 651.42,561.56 651.87,561.01C642.5,538.756 679.42,487.025 709.97,485.21C732.512,484.411 786.074,590.612 795.24,611.24C846.118,565.629 915.922,536.247 981.34,520.88C981.1,517.2 980.53,513.56 980,509.92C934.113,207.853 735.391,367.294 863.75,200.76C859.43,201.06 854.81,200.56 851.45,197.56C837.685,185.772 816.781,122.038 798.88,210.81C794.91,233.25 792.34,255.97 791.4,278.73C735.517,272.927 729.94,265.652 748.53,153.71C686.682,132.412 692.191,156.419 691.89,201C692.022,233.321 695.049,253.502 686,254.49C681.79,254.67 679.87,250.25 676.59,248.46C660.899,239.609 629.33,255.156 613.61,263.96C613,194.028 594.464,113.252 549.58,59.96C540.07,64.62 531.01,70.23 522.46,76.47M241.35,342.95C263.835,464.707 276.031,633.738 244.18,756.01C328.672,714.952 415.485,722.534 450.15,740.13C408.07,623.878 386.905,512.091 424.01,342.74C412.586,348.356 383.308,375.054 294.85,363.11C275.91,360.41 256.4,355.37 241.35,342.95M690.95,498.8C698.4,496.55 705.78,494.31 713.02,491.47C705.18,491.54 697.27,494.2 690.95,498.8M674.16,517.14C663.11,528.77 658.51,545.16 658.29,560.9C661.82,560.02 665.36,559.21 668.95,558.61C669.58,561.19 670.07,563.81 670.95,566.33C687.711,561.619 705.782,541.639 713.52,525.99C711.02,518.01 708.34,510.08 705.84,502.11L705.06,501.55C693.57,503.66 682.27,508.52 674.16,517.14M727.84,506.73C728.303,509.643 753.343,594.736 786.04,619.97C787.86,619.38 789.06,617.46 790.17,615.96C773.769,576.843 739.985,523.686 727.84,506.73M940.66,548.75C887.257,567.285 822.554,600.691 790.9,642.46C742.528,621.904 722.291,544.636 715.49,532.4C700.901,552.98 681.696,564.609 671.26,566.95C682.298,622.759 725.378,679.767 735.91,696.11C713.601,687.005 692.858,671.849 656.17,682.07C512.814,721.774 487.296,1108.61 496.98,1133.01C505.04,1149.57 515.41,1165.5 529.86,1177.19C571.411,1210.77 608.449,1164.93 616.74,1157.91C572.831,1207.17 533.504,1199.43 500.64,1147.34C496.73,1141.49 494.05,1134.93 490.38,1128.97C491.038,1141.42 494.235,1197.58 498.98,1209.09C524.145,1279.06 474.715,1395.32 454.05,1414.24C457.53,1401.96 462.33,1390.1 466.08,1377.91C521.99,1212.26 483.267,1219.1 483.23,1085.01C482.382,1016.22 492.177,937.352 511.11,868.98C511.015,867.98 498.561,822.481 460.9,788.29C412.475,835.906 269.624,828.289 248.03,798.89C289.908,833.809 413.413,816.399 450.9,780.07C389.34,731.238 308.603,739.592 240.64,781.09C239.95,786.85 242.27,792.63 246.07,796.92C241.11,793.47 240.51,786.87 240.15,781.36C227.947,787.783 135.427,865.058 137.21,1014.01C138.803,1111.72 179.056,1219.17 225.54,1294.5C294.029,1353.64 401.7,1402.7 437.03,1425.76C361.149,1405.5 286.99,1371.66 226.98,1317.87C274.193,1744.18 987.235,1919.02 1101.67,1891.44C767.505,1523.81 727.823,1205.45 719.28,1190.08C696.466,1198.32 666.831,1176.18 656.21,1164.94C692.563,1196 718.273,1195.14 718.46,1186.48C767.777,1166.87 737.759,1081.93 762.13,950.95C806.766,711.001 970.538,614.033 1187.85,677.97C1163.45,639.393 1169.96,608.409 1176.53,564.95C1177.86,546.34 1183.29,527.23 1195.93,513.07C1109.78,511.95 1022.52,520.71 940.66,548.75M1229.19,514.14C1143.84,596.649 1205.5,695.258 1222.84,693.9C1258.59,696.712 1287.54,531.717 1229.19,514.14M1190.01,546.87C1195.72,536.89 1202.07,527.31 1209.07,518.21C1199.93,525.43 1193.86,536.02 1190.01,546.87M651.23,557.86L651.72,557.95C652.55,550.54 653.63,543.12 655.91,535.98C652.03,542.38 649.46,550.46 651.23,557.86M947.31,697.3C862.018,729.519 811.759,805.48 782.56,892.19C822.325,830.051 904.675,687.733 1053.07,713.07C1211.54,808.123 1213.2,1017.52 1141.1,1184.21C1135.76,1201.86 1130.43,1220.16 1118.83,1234.89C1105.58,1251.76 1085.77,1249.43 1079.77,1244.28C1089.75,1243.96 1099.24,1245.14 1113.83,1230.84C1161.44,1181.22 1237.26,852.403 1047.72,726.19C932.644,705.727 851.326,798.267 791.28,897.94C833.939,1103.29 1002.65,1149.26 1012.16,1171.08C1012.81,1179.69 1011.16,1188.3 1009.5,1196.72C1016.7,1202.8 1035.52,1242.78 1067.99,1249.71C1045.57,1249.59 1022.05,1222.38 1008.08,1205C1006.52,1205.07 1007.07,1207.4 1006.43,1208.44C997.369,1239.44 977.467,1268.46 947.03,1257.28C1000.4,1266.35 1009.75,1190.96 1008.99,1173C1009.19,1169.2 997.35,1162.81 989.62,1158.42C887.6,1100.74 814.538,1037.58 780.94,898.99C778.451,902.796 755.851,973.783 751.29,1094.98C750.549,1110.87 754.405,1155.66 730.52,1182.96C757.714,1252.74 832.68,1321.65 868.41,1329.36C911.163,1338.86 932.149,1279.37 932.8,1266.36C933,1266.4 933.38,1266.46 933.58,1266.49C908.737,1380.47 822.535,1334.29 752.05,1243.12C777.433,1288.42 860.448,1433.25 942.61,1561.39C1139.67,1867.49 1196.47,1888.7 1247.56,1871.5C1390.25,1823.12 1253.59,1268.35 1145.16,1178.99C1241.65,1243.44 1399.76,1785.25 1266.2,1873.17C1185.49,1927.98 1086.29,1818.76 874.54,1476.43C832.83,1408.65 792.07,1340.28 753.04,1270.93C753.122,1272.14 812.124,1544.79 1109.35,1887.59C1150.97,1927.85 728.75,1882.4 448.35,1665.65C329.4,1573.58 283.823,1487.84 274.9,1475.96C280.327,1494.49 344.697,1596.54 376.14,1618.87C403.882,1638.13 476.013,1750.94 734.99,1840.1C847.053,1878.48 1107.85,1943.24 1224.93,1910.87C1288.19,1893.65 1302.32,1866.8 1314.41,1842.39C1384.62,1691.01 1388.54,1297.01 1226.93,1037.06C1224.91,1033.59 1221.99,1030.38 1221.78,1026.18C1200.55,841.679 1123.72,631.293 947.31,697.3M499.49,980.28C497.76,997.4 494.53,1014.35 493.48,1031.55L494.07,1032.08L494.65,1032.02C496.12,1014.82 498.38,997.57 499.73,980.32L499.49,980.28M493.04,1033.59C491.46,1055.91 489.58,1078.3 490.38,1100.72L490.61,1100.66C490.671,1089.68 494.042,1033.47 493.95,1033.01C493.72,1033.15 493.27,1033.44 493.04,1033.59M295.09,1569.87C296.872,1678.06 293.361,1789.34 275.19,1895.11C357.242,1848.92 440.777,1853.24 494.81,1930.9C477.05,1866.88 465.36,1801.3 457.37,1735.39C457.37,1735.39 362.819,1668.35 295.09,1569.87Z" style="fill:white;fill-rule:nonzero;"/>
        <path d="M438.51,1228.56C482.837,1254.6 467.67,1298.05 389,1299.3C314.517,1298.29 252.448,1262.93 269.49,1236.7C267.07,1241.95 266.67,1248.24 269.25,1253.52C297.341,1312.93 490.939,1293.17 442.87,1247.12C411.027,1216.95 313.55,1196.74 269.91,1235.83C290.987,1204.52 388.274,1200.01 438.51,1228.56Z" style="fill:white;fill-rule:nonzero;"/>
    </g>
</svg>
