<?xml version="1.0" encoding="UTF-8" standalone="no"?>
<!DOCTYPE svg PUBLIC "-//W3C//DTD SVG 1.1//EN" "http://www.w3.org/Graphics/SVG/1.1/DTD/svg11.dtd">
<svg width="100%" height="100%" viewBox="0 0 1800 1039" version="1.1" xmlns="http://www.w3.org/2000/svg" xmlns:xlink="http://www.w3.org/1999/xlink" xml:space="preserve" xmlns:serif="http://www.serif.com/" style="fill-rule:evenodd;clip-rule:evenodd;">
    <g transform="matrix(2.36526,0,0,2.36526,-1314.76,-680.351)">
        <path d="M798.333,509.5L879.333,469.5" style="fill:none;fill-rule:nonzero;stroke:rgb(255,250,250);stroke-width:2px;"/>
        <path d="M798.333,509.5L879.333,509.5" style="fill:none;fill-rule:nonzero;stroke:rgb(255,250,250);stroke-width:2px;"/>
        <path d="M798.333,509.5L879.333,549.5" style="fill:none;fill-rule:nonzero;stroke:rgb(255,250,250);stroke-width:2px;"/>
        <path d="M879.333,469.5L960.333,469.5" style="fill:none;fill-rule:nonzero;stroke:rgb(255,250,250);stroke-width:2px;"/>
        <path d="M879.333,469.5L960.333,509.5" style="fill:none;fill-rule:nonzero;stroke:rgb(255,250,250);stroke-width:2px;"/>
        <path d="M879.333,469.5L960.333,549.5" style="fill:none;fill-rule:nonzero;stroke:rgb(255,250,250);stroke-width:2px;"/>
        <path d="M879.333,509.5L960.333,469.5" style="fill:none;fill-rule:nonzero;stroke:rgb(255,250,250);stroke-width:2px;"/>
        <path d="M879.333,509.5L960.333,509.5" style="fill:none;fill-rule:nonzero;stroke:rgb(255,250,250);stroke-width:2px;"/>
        <path d="M879.333,509.5L960.333,549.5" style="fill:none;fill-rule:nonzero;stroke:rgb(255,250,250);stroke-width:2px;"/>
        <path d="M879.333,549.5L960.333,469.5" style="fill:none;fill-rule:nonzero;stroke:rgb(255,250,250);stroke-width:2px;"/>
        <path d="M879.333,549.5L960.333,509.5" style="fill:none;fill-rule:nonzero;stroke:rgb(255,250,250);stroke-width:2px;"/>
        <path d="M879.333,549.5L960.333,549.5" style="fill:none;fill-rule:nonzero;stroke:rgb(255,250,250);stroke-width:2px;"/>
        <path d="M960.333,469.5L1041.33,469.5" style="fill:none;fill-rule:nonzero;stroke:rgb(255,250,250);stroke-width:2px;"/>
        <path d="M960.333,509.5L1041.33,469.5" style="fill:none;fill-rule:nonzero;stroke:rgb(255,250,250);stroke-width:2px;"/>
        <path d="M960.333,549.5L1041.33,469.5" style="fill:none;fill-rule:nonzero;stroke:rgb(255,250,250);stroke-width:2px;"/>
        <path d="M960.333,469.5L1041.33,509.5" style="fill:none;fill-rule:nonzero;stroke:rgb(255,250,250);stroke-width:2px;"/>
        <path d="M960.333,469.5L1041.33,549.5" style="fill:none;fill-rule:nonzero;stroke:rgb(255,250,250);stroke-width:2px;"/>
        <path d="M960.333,509.5L1041.33,509.5" style="fill:none;fill-rule:nonzero;stroke:rgb(255,250,250);stroke-width:2px;"/>
        <path d="M960.333,509.5L1041.33,549.5" style="fill:none;fill-rule:nonzero;stroke:rgb(255,250,250);stroke-width:2px;"/>
        <path d="M960.333,549.5L1041.33,509.5" style="fill:none;fill-rule:nonzero;stroke:rgb(255,250,250);stroke-width:2px;"/>
        <path d="M960.333,549.5L1041.33,549.5" style="fill:none;fill-rule:nonzero;stroke:rgb(255,250,250);stroke-width:2px;"/>
        <path d="M1041.33,469.5L1122.33,509.5" style="fill:none;fill-rule:nonzero;stroke:rgb(255,250,250);stroke-width:2px;"/>
        <path d="M1041.33,509.5L1122.33,509.5" style="fill:none;fill-rule:nonzero;stroke:rgb(255,250,250);stroke-width:2px;"/>
        <path d="M1041.33,549.5L1122.33,509.5" style="fill:none;fill-rule:nonzero;stroke:rgb(255,250,250);stroke-width:2px;"/>
        <circle id="_0_0" serif:id="0_0" cx="798.333" cy="509.5" r="14" style="fill:white;stroke:rgb(255,250,250);stroke-width:1px;"/>
        <circle id="_1_0" serif:id="1_0" cx="879.333" cy="469.5" r="14" style="fill:white;stroke:rgb(255,250,250);stroke-width:1px;"/>
        <circle id="_1_1" serif:id="1_1" cx="879.333" cy="509.5" r="14" style="fill:white;stroke:rgb(255,250,250);stroke-width:1px;"/>
        <circle id="_1_2" serif:id="1_2" cx="879.333" cy="549.5" r="14" style="fill:white;stroke:rgb(255,250,250);stroke-width:1px;"/>
        <circle id="_2_0" serif:id="2_0" cx="960.333" cy="469.5" r="14" style="fill:white;stroke:rgb(255,250,250);stroke-width:1px;"/>
        <circle id="_2_1" serif:id="2_1" cx="960.333" cy="509.5" r="14" style="fill:white;stroke:rgb(255,250,250);stroke-width:1px;"/>
        <circle id="_2_2" serif:id="2_2" cx="960.333" cy="549.5" r="14" style="fill:white;stroke:rgb(255,250,250);stroke-width:1px;"/>
        <circle id="_3_0" serif:id="3_0" cx="1041.33" cy="469.5" r="14" style="fill:white;stroke:rgb(255,250,250);stroke-width:1px;"/>
        <circle id="_3_1" serif:id="3_1" cx="1041.33" cy="509.5" r="14" style="fill:white;stroke:rgb(255,250,250);stroke-width:1px;"/>
        <circle id="_3_2" serif:id="3_2" cx="1041.33" cy="549.5" r="14" style="fill:white;stroke:rgb(255,250,250);stroke-width:1px;"/>
        <circle id="_4_0" serif:id="4_0" cx="1122.33" cy="509.5" r="14" style="fill:white;stroke:rgb(255,250,250);stroke-width:1px;"/>
    </g>
</svg>
