<?xml version="1.0" encoding="UTF-8" standalone="no"?>
<!DOCTYPE svg PUBLIC "-//W3C//DTD SVG 1.1//EN" "http://www.w3.org/Graphics/SVG/1.1/DTD/svg11.dtd">
<svg width="100%" height="100%" viewBox="0 0 1800 1039" version="1.1" xmlns="http://www.w3.org/2000/svg" xmlns:xlink="http://www.w3.org/1999/xlink" xml:space="preserve" xmlns:serif="http://www.serif.com/" style="fill-rule:evenodd;clip-rule:evenodd;">
    <g transform="matrix(2.36526,0,0,2.36526,-1314.76,-680.351)">
        <path d="M771.667,505.5L876.667,457.5" style="fill:none;fill-rule:nonzero;stroke:rgb(255,238,238);stroke-width:0.24px;"/>
        <path d="M771.667,505.5L876.667,505.5" style="fill:none;fill-rule:nonzero;stroke:rgb(255,238,238);stroke-width:0.24px;"/>
        <path d="M771.667,505.5L876.667,553.5" style="fill:none;fill-rule:nonzero;stroke:rgb(255,238,238);stroke-width:0.24px;"/>
        <path d="M876.667,457.5L981.667,457.5" style="fill:none;fill-rule:nonzero;stroke:rgb(255,238,238);stroke-width:0.24px;"/>
        <path d="M876.667,457.5L981.667,505.5" style="fill:none;fill-rule:nonzero;stroke:rgb(255,238,238);stroke-width:0.24px;"/>
        <path d="M876.667,457.5L981.667,553.5" style="fill:none;fill-rule:nonzero;stroke:rgb(255,238,238);stroke-width:0.24px;"/>
        <path d="M876.667,505.5L981.667,457.5" style="fill:none;fill-rule:nonzero;stroke:rgb(255,238,238);stroke-width:0.24px;"/>
        <path d="M876.667,505.5L981.667,505.5" style="fill:none;fill-rule:nonzero;stroke:rgb(255,238,238);stroke-width:0.24px;"/>
        <path d="M876.667,505.5L981.667,553.5" style="fill:none;fill-rule:nonzero;stroke:rgb(255,238,238);stroke-width:0.24px;"/>
        <path d="M876.667,553.5L981.667,457.5" style="fill:none;fill-rule:nonzero;stroke:rgb(255,238,238);stroke-width:0.24px;"/>
        <path d="M876.667,553.5L981.667,505.5" style="fill:none;fill-rule:nonzero;stroke:rgb(255,238,238);stroke-width:0.24px;"/>
        <path d="M876.667,553.5L981.667,553.5" style="fill:none;fill-rule:nonzero;stroke:rgb(255,238,238);stroke-width:0.24px;"/>
        <path d="M981.667,457.5L1086.67,457.5" style="fill:none;fill-rule:nonzero;stroke:rgb(255,238,238);stroke-width:0.24px;"/>
        <path d="M981.667,505.5L1086.67,457.5" style="fill:none;fill-rule:nonzero;stroke:rgb(255,238,238);stroke-width:0.24px;"/>
        <path d="M981.667,553.5L1086.67,457.5" style="fill:none;fill-rule:nonzero;stroke:rgb(255,238,238);stroke-width:0.24px;"/>
        <path d="M981.667,457.5L1086.67,505.5" style="fill:none;fill-rule:nonzero;stroke:rgb(255,238,238);stroke-width:0.24px;"/>
        <path d="M981.667,457.5L1086.67,553.5" style="fill:none;fill-rule:nonzero;stroke:rgb(255,238,238);stroke-width:0.24px;"/>
        <path d="M981.667,505.5L1086.67,505.5" style="fill:none;fill-rule:nonzero;stroke:rgb(255,238,238);stroke-width:0.24px;"/>
        <path d="M981.667,505.5L1086.67,553.5" style="fill:none;fill-rule:nonzero;stroke:rgb(255,238,238);stroke-width:0.24px;"/>
        <path d="M981.667,553.5L1086.67,505.5" style="fill:none;fill-rule:nonzero;stroke:rgb(255,238,238);stroke-width:0.24px;"/>
        <path d="M981.667,553.5L1086.67,553.5" style="fill:none;fill-rule:nonzero;stroke:rgb(255,238,238);stroke-width:0.24px;"/>
        <path d="M1086.67,457.5L1191.67,505.5" style="fill:none;fill-rule:nonzero;stroke:rgb(255,238,238);stroke-width:0.24px;"/>
        <path d="M1086.67,505.5L1191.67,505.5" style="fill:none;fill-rule:nonzero;stroke:rgb(255,238,238);stroke-width:0.24px;"/>
        <path d="M1086.67,553.5L1191.67,505.5" style="fill:none;fill-rule:nonzero;stroke:rgb(255,238,238);stroke-width:0.24px;"/>
        <circle id="_0_0" serif:id="0_0" cx="771.667" cy="505.5" r="10" style="fill:white;stroke:rgb(255,238,238);stroke-width:1px;"/>
        <circle id="_1_0" serif:id="1_0" cx="876.667" cy="457.5" r="10" style="fill:white;stroke:rgb(255,238,238);stroke-width:1px;"/>
        <circle id="_1_1" serif:id="1_1" cx="876.667" cy="505.5" r="10" style="fill:white;stroke:rgb(255,238,238);stroke-width:1px;"/>
        <circle id="_1_2" serif:id="1_2" cx="876.667" cy="553.5" r="10" style="fill:white;stroke:rgb(255,238,238);stroke-width:1px;"/>
        <circle id="_2_0" serif:id="2_0" cx="981.667" cy="457.5" r="10" style="fill:white;stroke:rgb(255,238,238);stroke-width:1px;"/>
        <circle id="_2_1" serif:id="2_1" cx="981.667" cy="505.5" r="10" style="fill:white;stroke:rgb(255,238,238);stroke-width:1px;"/>
        <circle id="_2_2" serif:id="2_2" cx="981.667" cy="553.5" r="10" style="fill:white;stroke:rgb(255,238,238);stroke-width:1px;"/>
        <circle id="_3_0" serif:id="3_0" cx="1086.67" cy="457.5" r="10" style="fill:white;stroke:rgb(255,238,238);stroke-width:1px;"/>
        <circle id="_3_1" serif:id="3_1" cx="1086.67" cy="505.5" r="10" style="fill:white;stroke:rgb(255,238,238);stroke-width:1px;"/>
        <circle id="_3_2" serif:id="3_2" cx="1086.67" cy="553.5" r="10" style="fill:white;stroke:rgb(255,238,238);stroke-width:1px;"/>
        <circle id="_4_0" serif:id="4_0" cx="1191.67" cy="505.5" r="10" style="fill:white;stroke:rgb(255,238,238);stroke-width:1px;"/>
    </g>
</svg>
