<?xml version="1.0" encoding="UTF-8" standalone="no"?>
<!DOCTYPE svg PUBLIC "-//W3C//DTD SVG 1.1//EN" "http://www.w3.org/Graphics/SVG/1.1/DTD/svg11.dtd">
<svg width="100%" height="100%" viewBox="0 0 800 800" version="1.1" xmlns="http://www.w3.org/2000/svg" xmlns:xlink="http://www.w3.org/1999/xlink" xml:space="preserve" xmlns:serif="http://www.serif.com/" style="fill-rule:evenodd;clip-rule:evenodd;stroke-linejoin:round;stroke-miterlimit:2;">
    <g>
        <path d="M400.003,0C179.441,0 0,179.438 0,400C0,620.562 179.441,800 400.003,800C620.562,800 800.003,620.562 800.003,400C800.003,179.438 620.559,0 400.003,0ZM400.003,684.098C243.097,684.098 115.902,556.906 115.902,400C115.902,243.094 243.097,115.902 400.003,115.902C556.903,115.902 684.101,243.094 684.101,400C684.101,556.906 556.9,684.098 400.003,684.098Z" style="fill:white;fill-rule:nonzero;"/>
        <path d="M400.003,152.682C263.627,152.682 152.682,263.627 152.682,400C152.682,536.373 263.631,647.318 400.003,647.318C536.376,647.318 647.321,536.373 647.321,400C647.321,263.627 536.373,152.682 400.003,152.682ZM615.649,384.231L495.648,384.231C493.197,369.066 487.206,355.08 478.566,343.124L563.283,258.407C593.022,292.653 612.17,336.291 615.649,384.231ZM415.52,184.332C463.432,187.748 507.055,206.824 541.32,236.478L456.622,321.179C444.666,312.542 430.682,306.555 415.52,304.103L415.52,184.332ZM384.483,184.332L384.483,304.1C369.321,306.552 355.334,312.539 343.378,321.179L258.677,236.481C292.942,206.827 336.571,187.748 384.483,184.332ZM236.711,258.41L321.431,343.127C312.791,355.08 306.803,369.066 304.352,384.228L184.351,384.228C187.83,336.291 206.978,292.656 236.711,258.41ZM184.316,415.266L304.355,415.266C306.803,430.428 312.794,444.414 321.434,456.37L236.481,541.323C206.773,506.995 187.682,463.275 184.316,415.266ZM384.483,615.668C336.442,612.242 292.716,593.076 258.407,563.286L343.378,478.315C355.334,486.955 369.321,492.942 384.483,495.394L384.483,615.668ZM384.483,463.467L384.483,463.693C377.785,462.065 371.499,459.419 365.772,455.918L365.92,455.77C356.963,450.307 349.438,442.783 343.976,433.822L343.831,433.967C340.33,428.24 337.683,421.957 336.055,415.259L336.278,415.259C335.068,410.278 334.358,405.098 334.358,399.742C334.358,394.387 335.071,389.207 336.278,384.225L336.055,384.225C337.683,377.531 340.327,371.248 343.831,365.521L343.976,365.666C349.438,356.708 356.966,349.18 365.92,343.721L365.772,343.573C371.499,340.072 377.785,337.422 384.483,335.797L384.483,336.024C389.468,334.814 394.644,334.1 400.003,334.1C405.362,334.1 410.539,334.814 415.523,336.024L415.523,335.797C422.221,337.426 428.504,340.069 434.228,343.57L434.08,343.718C443.041,349.177 450.565,356.705 456.028,365.662L456.172,365.518C459.677,371.244 462.323,377.531 463.951,384.228L463.728,384.228C464.938,389.21 465.648,394.39 465.648,399.745C465.648,405.101 464.935,410.281 463.728,415.263L463.951,415.263C462.323,421.96 459.68,428.246 456.172,433.973L456.028,433.828C450.565,442.786 443.037,450.31 434.08,455.773L434.228,455.918C428.504,459.419 422.221,462.065 415.523,463.693L415.523,463.467C410.539,464.677 405.362,465.391 400.003,465.391C394.644,465.391 389.468,464.68 384.483,463.467ZM415.52,615.668L415.52,495.394C430.682,492.942 444.666,486.955 456.622,478.318L541.59,563.286C507.284,593.076 463.558,612.242 415.52,615.668ZM563.519,541.323L478.569,456.373C487.209,444.417 493.197,430.431 495.652,415.266L615.687,415.266C612.318,463.275 593.23,506.995 563.519,541.323Z" style="fill:white;fill-rule:nonzero;"/>
    </g>
</svg>
