<?xml version="1.0" encoding="utf-8" standalone="no"?>
<!DOCTYPE svg PUBLIC "-//W3C//DTD SVG 1.1//EN"
  "http://www.w3.org/Graphics/SVG/1.1/DTD/svg11.dtd">
<!-- Created with matplotlib (https://matplotlib.org/) -->
<svg height="720pt" version="1.1" viewBox="0 0 720 720" width="720pt" xmlns="http://www.w3.org/2000/svg" xmlns:xlink="http://www.w3.org/1999/xlink">
 <metadata>
  <rdf:RDF xmlns:cc="http://creativecommons.org/ns#" xmlns:dc="http://purl.org/dc/elements/1.1/" xmlns:rdf="http://www.w3.org/1999/02/22-rdf-syntax-ns#">
   <cc:Work>
    <dc:type rdf:resource="http://purl.org/dc/dcmitype/StillImage"/>
    <dc:date>2022-10-11T12:10:43.349076</dc:date>
    <dc:format>image/svg+xml</dc:format>
    <dc:creator>
     <cc:Agent>
      <dc:title>Matplotlib v3.3.4, https://matplotlib.org/</dc:title>
     </cc:Agent>
    </dc:creator>
   </cc:Work>
  </rdf:RDF>
 </metadata>
 <defs>
  <style type="text/css">*{stroke-linecap:butt;stroke-linejoin:round;}</style>
 </defs>
 <g id="figure_1">
  <g id="patch_1">
   <path d="M 0 720 
L 720 720 
L 720 0 
L 0 0 
z
" style="fill:none;"/>
  </g>
  <g id="axes_1">
   <g id="patch_2">
    <path d="M 98.588571 630 
L 603.36 630 
L 603.36 86.4 
L 98.588571 86.4 
z
" style="fill:#ffffff;"/>
   </g>
   <g id="PatchCollection_1">
    <path clip-path="url(#p60fb68e8cb)" d="M 137.417143 591.171429 
L 160.275132 588.443976 
L 159.4016 568.798241 
L 137.417143 570.735338 
z
" style="fill:#08306b;stroke:#000000;"/>
    <path clip-path="url(#p60fb68e8cb)" d="M 137.417143 570.735338 
L 159.4016 568.798241 
L 159.416611 548.670599 
L 137.417143 550.299248 
z
" style="fill:#4a98c9;stroke:#000000;"/>
    <path clip-path="url(#p60fb68e8cb)" d="M 137.417143 550.299248 
L 159.416611 548.670599 
L 159.405156 528.494032 
L 137.417143 529.863158 
z
" style="fill:#82bbdb;stroke:#000000;"/>
    <path clip-path="url(#p60fb68e8cb)" d="M 137.417143 529.863158 
L 159.405156 528.494032 
L 159.415724 508.292995 
L 137.417143 509.427068 
z
" style="fill:#aed1e7;stroke:#000000;"/>
    <path clip-path="url(#p60fb68e8cb)" d="M 137.417143 509.427068 
L 159.415724 508.292995 
L 159.428659 488.078351 
L 137.417143 488.990977 
z
" style="fill:#c6dbef;stroke:#000000;"/>
    <path clip-path="url(#p60fb68e8cb)" d="M 137.417143 488.990977 
L 159.428659 488.078351 
L 159.442096 467.856489 
L 137.417143 468.554887 
z
" style="fill:#d1e2f3;stroke:#000000;"/>
    <path clip-path="url(#p60fb68e8cb)" d="M 137.417143 468.554887 
L 159.442096 467.856489 
L 159.454104 447.631126 
L 137.417143 448.118797 
z
" style="fill:#dae8f6;stroke:#000000;"/>
    <path clip-path="url(#p60fb68e8cb)" d="M 137.417143 448.118797 
L 159.454104 447.631126 
L 159.463938 427.405293 
L 137.417143 427.682707 
z
" style="fill:#e2edf8;stroke:#000000;"/>
    <path clip-path="url(#p60fb68e8cb)" d="M 137.417143 427.682707 
L 159.463938 427.405293 
L 159.47106 407.181788 
L 137.417143 407.246617 
z
" style="fill:#e9f2fa;stroke:#000000;"/>
    <path clip-path="url(#p60fb68e8cb)" d="M 137.417143 407.246617 
L 159.47106 407.181788 
L 159.475017 386.963551 
L 137.417143 386.810526 
z
" style="fill:#ebf3fb;stroke:#000000;"/>
    <path clip-path="url(#p60fb68e8cb)" d="M 137.417143 386.810526 
L 159.475017 386.963551 
L 159.47529 366.753926 
L 137.417143 366.374436 
z
" style="fill:#ecf4fb;stroke:#000000;"/>
    <path clip-path="url(#p60fb68e8cb)" d="M 137.417143 366.374436 
L 159.47529 366.753926 
L 159.4712 346.556961 
L 137.417143 345.938346 
z
" style="fill:#ecf4fb;stroke:#000000;"/>
    <path clip-path="url(#p60fb68e8cb)" d="M 137.417143 345.938346 
L 159.4712 346.556961 
L 159.461824 326.377837 
L 137.417143 325.502256 
z
" style="fill:#eaf2fb;stroke:#000000;"/>
    <path clip-path="url(#p60fb68e8cb)" d="M 137.417143 325.502256 
L 159.461824 326.377837 
L 159.445956 306.223644 
L 137.417143 305.066165 
z
" style="fill:#e4eff9;stroke:#000000;"/>
    <path clip-path="url(#p60fb68e8cb)" d="M 137.417143 305.066165 
L 159.445956 306.223644 
L 159.422694 286.104713 
L 137.417143 284.630075 
z
" style="fill:#dce9f6;stroke:#000000;"/>
    <path clip-path="url(#p60fb68e8cb)" d="M 137.417143 284.630075 
L 159.422694 286.104713 
L 159.390386 266.038069 
L 137.417143 264.193985 
z
" style="fill:#cde0f1;stroke:#000000;"/>
    <path clip-path="url(#p60fb68e8cb)" d="M 137.417143 264.193985 
L 159.390386 266.038069 
L 159.361126 246.052831 
L 137.417143 243.757895 
z
" style="fill:#add0e6;stroke:#000000;"/>
    <path clip-path="url(#p60fb68e8cb)" d="M 137.417143 243.757895 
L 159.361126 246.052831 
L 159.324751 226.22901 
L 137.417143 223.321805 
z
" style="fill:#63a8d3;stroke:#000000;"/>
    <path clip-path="url(#p60fb68e8cb)" d="M 137.417143 223.321805 
L 159.324751 226.22901 
L 159.906046 206.882119 
L 137.417143 202.885714 
z
" style="fill:#08306b;stroke:#000000;"/>
    <path clip-path="url(#p60fb68e8cb)" d="M 160.275132 588.443976 
L 183.071132 586.826363 
L 181.891098 567.330136 
L 159.4016 568.798241 
z
" style="fill:#08306b;stroke:#000000;"/>
    <path clip-path="url(#p60fb68e8cb)" d="M 159.4016 568.798241 
L 181.891098 567.330136 
L 181.636511 547.520548 
L 159.416611 548.670599 
z
" style="fill:#0f5aa3;stroke:#000000;"/>
    <path clip-path="url(#p60fb68e8cb)" d="M 159.416611 548.670599 
L 181.636511 547.520548 
L 181.60551 527.562693 
L 159.405156 528.494032 
z
" style="fill:#72b2d8;stroke:#000000;"/>
    <path clip-path="url(#p60fb68e8cb)" d="M 159.405156 528.494032 
L 181.60551 527.562693 
L 181.598097 507.567877 
L 159.415724 508.292995 
z
" style="fill:#9cc9e1;stroke:#000000;"/>
    <path clip-path="url(#p60fb68e8cb)" d="M 159.415724 508.292995 
L 181.598097 507.567877 
L 181.608872 487.549981 
L 159.428659 488.078351 
z
" style="fill:#b5d4e9;stroke:#000000;"/>
    <path clip-path="url(#p60fb68e8cb)" d="M 159.428659 488.078351 
L 181.608872 487.549981 
L 181.624048 467.520148 
L 159.442096 467.856489 
z
" style="fill:#c7dbef;stroke:#000000;"/>
    <path clip-path="url(#p60fb68e8cb)" d="M 159.442096 467.856489 
L 181.624048 467.520148 
L 181.639831 447.485259 
L 159.454104 447.631126 
z
" style="fill:#cee0f2;stroke:#000000;"/>
    <path clip-path="url(#p60fb68e8cb)" d="M 159.454104 447.631126 
L 181.639831 447.485259 
L 181.653887 427.450875 
L 159.463938 427.405293 
z
" style="fill:#d5e5f4;stroke:#000000;"/>
    <path clip-path="url(#p60fb68e8cb)" d="M 159.463938 427.405293 
L 181.653887 427.450875 
L 181.664959 407.422123 
L 159.47106 407.181788 
z
" style="fill:#dae8f6;stroke:#000000;"/>
    <path clip-path="url(#p60fb68e8cb)" d="M 159.47106 407.181788 
L 181.664959 407.422123 
L 181.672103 387.404247 
L 159.475017 386.963551 
z
" style="fill:#deebf7;stroke:#000000;"/>
    <path clip-path="url(#p60fb68e8cb)" d="M 159.475017 386.963551 
L 181.672103 387.404247 
L 181.674509 367.403003 
L 159.47529 366.753926 
z
" style="fill:#e2edf8;stroke:#000000;"/>
    <path clip-path="url(#p60fb68e8cb)" d="M 159.47529 366.753926 
L 181.674509 367.403003 
L 181.671279 347.425051 
L 159.4712 346.556961 
z
" style="fill:#e0ecf8;stroke:#000000;"/>
    <path clip-path="url(#p60fb68e8cb)" d="M 159.4712 346.556961 
L 181.671279 347.425051 
L 181.6615 327.47846 
L 159.461824 326.377837 
z
" style="fill:#deebf7;stroke:#000000;"/>
    <path clip-path="url(#p60fb68e8cb)" d="M 159.461824 326.377837 
L 181.6615 327.47846 
L 181.644679 307.573472 
L 159.445956 306.223644 
z
" style="fill:#d9e8f5;stroke:#000000;"/>
    <path clip-path="url(#p60fb68e8cb)" d="M 159.445956 306.223644 
L 181.644679 307.573472 
L 181.621448 287.72376 
L 159.422694 286.104713 
z
" style="fill:#d3e4f3;stroke:#000000;"/>
    <path clip-path="url(#p60fb68e8cb)" d="M 159.422694 286.104713 
L 181.621448 287.72376 
L 181.598793 267.948616 
L 159.390386 266.038069 
z
" style="fill:#cadef0;stroke:#000000;"/>
    <path clip-path="url(#p60fb68e8cb)" d="M 159.390386 266.038069 
L 181.598793 267.948616 
L 181.591778 248.276662 
L 159.361126 246.052831 
z
" style="fill:#b8d5ea;stroke:#000000;"/>
    <path clip-path="url(#p60fb68e8cb)" d="M 159.361126 246.052831 
L 181.591778 248.276662 
L 181.729426 228.763822 
L 159.324751 226.22901 
z
" style="fill:#7db8da;stroke:#000000;"/>
    <path clip-path="url(#p60fb68e8cb)" d="M 159.324751 226.22901 
L 181.729426 228.763822 
L 182.309885 209.297131 
L 159.906046 206.882119 
z
" style="fill:#91c3de;stroke:#000000;"/>
    <path clip-path="url(#p60fb68e8cb)" d="M 183.071132 586.826363 
L 205.658882 585.855324 
L 204.523056 566.418595 
L 181.891098 567.330136 
z
" style="fill:#3484bf;stroke:#000000;"/>
    <path clip-path="url(#p60fb68e8cb)" d="M 181.891098 567.330136 
L 204.523056 566.418595 
L 204.074651 546.799987 
L 181.636511 547.520548 
z
" style="fill:#1967ad;stroke:#000000;"/>
    <path clip-path="url(#p60fb68e8cb)" d="M 181.636511 547.520548 
L 204.074651 546.799987 
L 203.957265 527.037688 
L 181.60551 527.562693 
z
" style="fill:#56a0ce;stroke:#000000;"/>
    <path clip-path="url(#p60fb68e8cb)" d="M 181.60551 527.562693 
L 203.957265 527.037688 
L 203.923454 507.212334 
L 181.598097 507.567877 
z
" style="fill:#89bedc;stroke:#000000;"/>
    <path clip-path="url(#p60fb68e8cb)" d="M 181.598097 507.567877 
L 203.923454 507.212334 
L 203.918626 487.359193 
L 181.608872 487.549981 
z
" style="fill:#a3cce3;stroke:#000000;"/>
    <path clip-path="url(#p60fb68e8cb)" d="M 181.608872 487.549981 
L 203.918626 487.359193 
L 203.927487 467.490896 
L 181.624048 467.520148 
z
" style="fill:#b3d3e8;stroke:#000000;"/>
    <path clip-path="url(#p60fb68e8cb)" d="M 181.624048 467.520148 
L 203.927487 467.490896 
L 203.941133 447.616949 
L 181.639831 447.485259 
z
" style="fill:#bfd8ed;stroke:#000000;"/>
    <path clip-path="url(#p60fb68e8cb)" d="M 181.639831 447.485259 
L 203.941133 447.616949 
L 203.955705 427.74442 
L 181.653887 427.450875 
z
" style="fill:#c7dbef;stroke:#000000;"/>
    <path clip-path="url(#p60fb68e8cb)" d="M 181.653887 427.450875 
L 203.955705 427.74442 
L 203.968885 407.879582 
L 181.664959 407.422123 
z
" style="fill:#cbdef1;stroke:#000000;"/>
    <path clip-path="url(#p60fb68e8cb)" d="M 181.664959 407.422123 
L 203.968885 407.879582 
L 203.979307 388.02851 
L 181.672103 387.404247 
z
" style="fill:#cde0f1;stroke:#000000;"/>
    <path clip-path="url(#p60fb68e8cb)" d="M 181.672103 387.404247 
L 203.979307 388.02851 
L 203.985983 368.197518 
L 181.674509 367.403003 
z
" style="fill:#cfe1f2;stroke:#000000;"/>
    <path clip-path="url(#p60fb68e8cb)" d="M 181.674509 367.403003 
L 203.985983 368.197518 
L 203.988128 348.393463 
L 181.671279 347.425051 
z
" style="fill:#d0e1f2;stroke:#000000;"/>
    <path clip-path="url(#p60fb68e8cb)" d="M 181.671279 347.425051 
L 203.988128 348.393463 
L 203.985372 328.624022 
L 181.6615 327.47846 
z
" style="fill:#d0e1f2;stroke:#000000;"/>
    <path clip-path="url(#p60fb68e8cb)" d="M 181.6615 327.47846 
L 203.985372 328.624022 
L 203.978256 308.897975 
L 181.644679 307.573472 
z
" style="fill:#cde0f1;stroke:#000000;"/>
    <path clip-path="url(#p60fb68e8cb)" d="M 181.644679 307.573472 
L 203.978256 308.897975 
L 203.970237 289.225479 
L 181.621448 287.72376 
z
" style="fill:#caddf0;stroke:#000000;"/>
    <path clip-path="url(#p60fb68e8cb)" d="M 181.621448 287.72376 
L 203.970237 289.225479 
L 203.970642 269.617636 
L 181.598793 267.948616 
z
" style="fill:#c1d9ed;stroke:#000000;"/>
    <path clip-path="url(#p60fb68e8cb)" d="M 181.598793 267.948616 
L 203.970642 269.617636 
L 204.012258 250.086588 
L 181.591778 248.276662 
z
" style="fill:#aed1e7;stroke:#000000;"/>
    <path clip-path="url(#p60fb68e8cb)" d="M 181.591778 248.276662 
L 204.012258 250.086588 
L 204.181612 230.615339 
L 181.729426 228.763822 
z
" style="fill:#a0cbe2;stroke:#000000;"/>
    <path clip-path="url(#p60fb68e8cb)" d="M 181.729426 228.763822 
L 204.181612 230.615339 
L 204.574805 211.142554 
L 182.309885 209.297131 
z
" style="fill:#d0e1f2;stroke:#000000;"/>
    <path clip-path="url(#p60fb68e8cb)" d="M 205.658882 585.855324 
L 228.136342 585.415496 
L 227.162219 565.984385 
L 204.523056 566.418595 
z
" style="fill:#79b5d9;stroke:#000000;"/>
    <path clip-path="url(#p60fb68e8cb)" d="M 204.523056 566.418595 
L 227.162219 565.984385 
L 226.631051 546.472776 
L 204.074651 546.799987 
z
" style="fill:#3282be;stroke:#000000;"/>
    <path clip-path="url(#p60fb68e8cb)" d="M 204.074651 546.799987 
L 226.631051 546.472776 
L 226.423705 526.850827 
L 203.957265 527.037688 
z
" style="fill:#4b98ca;stroke:#000000;"/>
    <path clip-path="url(#p60fb68e8cb)" d="M 203.957265 527.037688 
L 226.423705 526.850827 
L 226.348966 507.161267 
L 203.923454 507.212334 
z
" style="fill:#74b3d8;stroke:#000000;"/>
    <path clip-path="url(#p60fb68e8cb)" d="M 203.923454 507.212334 
L 226.348966 507.161267 
L 226.32306 487.438572 
L 203.918626 487.359193 
z
" style="fill:#8fc2de;stroke:#000000;"/>
    <path clip-path="url(#p60fb68e8cb)" d="M 203.918626 487.359193 
L 226.32306 487.438572 
L 226.320191 467.699415 
L 203.927487 467.490896 
z
" style="fill:#a1cbe2;stroke:#000000;"/>
    <path clip-path="url(#p60fb68e8cb)" d="M 203.927487 467.490896 
L 226.320191 467.699415 
L 226.328285 447.953939 
L 203.941133 447.616949 
z
" style="fill:#abd0e6;stroke:#000000;"/>
    <path clip-path="url(#p60fb68e8cb)" d="M 203.941133 447.616949 
L 226.328285 447.953939 
L 226.341096 428.209883 
L 203.955705 427.74442 
z
" style="fill:#b2d2e8;stroke:#000000;"/>
    <path clip-path="url(#p60fb68e8cb)" d="M 203.955705 427.74442 
L 226.341096 428.209883 
L 226.355257 408.473644 
L 203.968885 407.879582 
z
" style="fill:#b7d4ea;stroke:#000000;"/>
    <path clip-path="url(#p60fb68e8cb)" d="M 203.968885 407.879582 
L 226.355257 408.473644 
L 226.368811 388.751051 
L 203.979307 388.02851 
z
" style="fill:#b9d6ea;stroke:#000000;"/>
    <path clip-path="url(#p60fb68e8cb)" d="M 203.979307 388.02851 
L 226.368811 388.751051 
L 226.380574 369.047741 
L 203.985983 368.197518 
z
" style="fill:#bad6eb;stroke:#000000;"/>
    <path clip-path="url(#p60fb68e8cb)" d="M 203.985983 368.197518 
L 226.380574 369.047741 
L 226.389813 349.369393 
L 203.988128 348.393463 
z
" style="fill:#bad6eb;stroke:#000000;"/>
    <path clip-path="url(#p60fb68e8cb)" d="M 203.988128 348.393463 
L 226.389813 349.369393 
L 226.396404 329.721796 
L 203.985372 328.624022 
z
" style="fill:#b8d5ea;stroke:#000000;"/>
    <path clip-path="url(#p60fb68e8cb)" d="M 203.985372 328.624022 
L 226.396404 329.721796 
L 226.401409 310.110725 
L 203.978256 308.897975 
z
" style="fill:#b5d4e9;stroke:#000000;"/>
    <path clip-path="url(#p60fb68e8cb)" d="M 203.978256 308.897975 
L 226.401409 310.110725 
L 226.40848 290.541324 
L 203.970237 289.225479 
z
" style="fill:#afd1e7;stroke:#000000;"/>
    <path clip-path="url(#p60fb68e8cb)" d="M 203.970237 289.225479 
L 226.40848 290.541324 
L 226.427748 271.016956 
L 203.970642 269.617636 
z
" style="fill:#a9cfe5;stroke:#000000;"/>
    <path clip-path="url(#p60fb68e8cb)" d="M 203.970642 269.617636 
L 226.427748 271.016956 
L 226.484038 251.533454 
L 204.012258 250.086588 
z
" style="fill:#a4cce3;stroke:#000000;"/>
    <path clip-path="url(#p60fb68e8cb)" d="M 204.012258 250.086588 
L 226.484038 251.533454 
L 226.62225 232.071088 
L 204.181612 230.615339 
z
" style="fill:#add0e6;stroke:#000000;"/>
    <path clip-path="url(#p60fb68e8cb)" d="M 204.181612 230.615339 
L 226.62225 232.071088 
L 226.845499 212.583961 
L 204.574805 211.142554 
z
" style="fill:#dbe9f6;stroke:#000000;"/>
    <path clip-path="url(#p60fb68e8cb)" d="M 228.136342 585.415496 
L 250.568679 585.357463 
L 249.766985 565.924548 
L 227.162219 565.984385 
z
" style="fill:#a3cce3;stroke:#000000;"/>
    <path clip-path="url(#p60fb68e8cb)" d="M 227.162219 565.984385 
L 249.766985 565.924548 
L 249.23063 546.464818 
L 226.631051 546.472776 
z
" style="fill:#4e9acb;stroke:#000000;"/>
    <path clip-path="url(#p60fb68e8cb)" d="M 226.631051 546.472776 
L 249.23063 546.464818 
L 248.961182 526.934138 
L 226.423705 526.850827 
z
" style="fill:#4d99ca;stroke:#000000;"/>
    <path clip-path="url(#p60fb68e8cb)" d="M 226.423705 526.850827 
L 248.961182 526.934138 
L 248.843241 507.344637 
L 226.348966 507.161267 
z
" style="fill:#66abd4;stroke:#000000;"/>
    <path clip-path="url(#p60fb68e8cb)" d="M 226.348966 507.161267 
L 248.843241 507.344637 
L 248.793457 487.721336 
L 226.32306 487.438572 
z
" style="fill:#7db8da;stroke:#000000;"/>
    <path clip-path="url(#p60fb68e8cb)" d="M 226.32306 487.438572 
L 248.793457 487.721336 
L 248.776742 468.080851 
L 226.320191 467.699415 
z
" style="fill:#8dc1dd;stroke:#000000;"/>
    <path clip-path="url(#p60fb68e8cb)" d="M 226.320191 467.699415 
L 248.776742 468.080851 
L 248.777398 448.433487 
L 226.328285 447.953939 
z
" style="fill:#99c7e0;stroke:#000000;"/>
    <path clip-path="url(#p60fb68e8cb)" d="M 226.328285 447.953939 
L 248.777398 448.433487 
L 248.787102 428.786692 
L 226.341096 428.209883 
z
" style="fill:#9fcae1;stroke:#000000;"/>
    <path clip-path="url(#p60fb68e8cb)" d="M 226.341096 428.209883 
L 248.787102 428.786692 
L 248.80126 409.146388 
L 226.355257 408.473644 
z
" style="fill:#a3cce3;stroke:#000000;"/>
    <path clip-path="url(#p60fb68e8cb)" d="M 226.355257 408.473644 
L 248.80126 409.146388 
L 248.817222 389.517617 
L 226.368811 388.751051 
z
" style="fill:#a5cde3;stroke:#000000;"/>
    <path clip-path="url(#p60fb68e8cb)" d="M 226.368811 388.751051 
L 248.817222 389.517617 
L 248.83343 369.904899 
L 226.380574 369.047741 
z
" style="fill:#a6cee4;stroke:#000000;"/>
    <path clip-path="url(#p60fb68e8cb)" d="M 226.380574 369.047741 
L 248.83343 369.904899 
L 248.84897 350.312371 
L 226.389813 349.369393 
z
" style="fill:#a5cde3;stroke:#000000;"/>
    <path clip-path="url(#p60fb68e8cb)" d="M 226.389813 349.369393 
L 248.84897 350.312371 
L 248.86355 330.743761 
L 226.396404 329.721796 
z
" style="fill:#a4cce3;stroke:#000000;"/>
    <path clip-path="url(#p60fb68e8cb)" d="M 226.396404 329.721796 
L 248.86355 330.743761 
L 248.877783 311.202054 
L 226.401409 310.110725 
z
" style="fill:#a1cbe2;stroke:#000000;"/>
    <path clip-path="url(#p60fb68e8cb)" d="M 226.401409 310.110725 
L 248.877783 311.202054 
L 248.894236 291.688797 
L 226.40848 290.541324 
z
" style="fill:#9fcae1;stroke:#000000;"/>
    <path clip-path="url(#p60fb68e8cb)" d="M 226.40848 290.541324 
L 248.894236 291.688797 
L 248.919778 272.202484 
L 226.427748 271.016956 
z
" style="fill:#9dcae1;stroke:#000000;"/>
    <path clip-path="url(#p60fb68e8cb)" d="M 226.427748 271.016956 
L 248.919778 272.202484 
L 248.96869 252.735923 
L 226.484038 251.533454 
z
" style="fill:#a0cbe2;stroke:#000000;"/>
    <path clip-path="url(#p60fb68e8cb)" d="M 226.484038 251.533454 
L 248.96869 252.735923 
L 249.056652 233.271512 
L 226.62225 232.071088 
z
" style="fill:#b4d3e9;stroke:#000000;"/>
    <path clip-path="url(#p60fb68e8cb)" d="M 226.62225 232.071088 
L 249.056652 233.271512 
L 249.146879 213.786736 
L 226.845499 212.583961 
z
" style="fill:#dbe9f6;stroke:#000000;"/>
    <path clip-path="url(#p60fb68e8cb)" d="M 250.568679 585.357463 
L 272.991482 585.570927 
L 272.33566 566.135968 
L 249.766985 565.924548 
z
" style="fill:#b3d3e8;stroke:#000000;"/>
    <path clip-path="url(#p60fb68e8cb)" d="M 249.766985 565.924548 
L 272.33566 566.135968 
L 271.833158 546.69999 
L 249.23063 546.464818 
z
" style="fill:#66abd4;stroke:#000000;"/>
    <path clip-path="url(#p60fb68e8cb)" d="M 249.23063 546.464818 
L 271.833158 546.69999 
L 271.533933 527.223521 
L 248.961182 526.934138 
z
" style="fill:#56a0ce;stroke:#000000;"/>
    <path clip-path="url(#p60fb68e8cb)" d="M 248.961182 526.934138 
L 271.533933 527.223521 
L 271.381108 507.702781 
L 248.843241 507.344637 
z
" style="fill:#61a7d2;stroke:#000000;"/>
    <path clip-path="url(#p60fb68e8cb)" d="M 248.843241 507.344637 
L 271.381108 507.702781 
L 271.30834 488.151656 
L 248.793457 487.721336 
z
" style="fill:#71b1d7;stroke:#000000;"/>
    <path clip-path="url(#p60fb68e8cb)" d="M 248.793457 487.721336 
L 271.30834 488.151656 
L 271.277627 468.58375 
L 248.776742 468.080851 
z
" style="fill:#7db8da;stroke:#000000;"/>
    <path clip-path="url(#p60fb68e8cb)" d="M 248.776742 468.080851 
L 271.277627 468.58375 
L 271.270228 449.008492 
L 248.777398 448.433487 
z
" style="fill:#87bddc;stroke:#000000;"/>
    <path clip-path="url(#p60fb68e8cb)" d="M 248.777398 448.433487 
L 271.270228 449.008492 
L 271.276009 429.432596 
L 248.787102 428.786692 
z
" style="fill:#8dc1dd;stroke:#000000;"/>
    <path clip-path="url(#p60fb68e8cb)" d="M 248.787102 428.786692 
L 271.276009 429.432596 
L 271.289196 409.861178 
L 248.80126 409.146388 
z
" style="fill:#91c3de;stroke:#000000;"/>
    <path clip-path="url(#p60fb68e8cb)" d="M 248.80126 409.146388 
L 271.289196 409.861178 
L 271.306401 390.298331 
L 248.817222 389.517617 
z
" style="fill:#94c4df;stroke:#000000;"/>
    <path clip-path="url(#p60fb68e8cb)" d="M 248.817222 389.517617 
L 271.306401 390.298331 
L 271.325552 370.747433 
L 248.83343 369.904899 
z
" style="fill:#94c4df;stroke:#000000;"/>
    <path clip-path="url(#p60fb68e8cb)" d="M 248.83343 369.904899 
L 271.325552 370.747433 
L 271.345351 351.211257 
L 248.84897 350.312371 
z
" style="fill:#94c4df;stroke:#000000;"/>
    <path clip-path="url(#p60fb68e8cb)" d="M 248.84897 350.312371 
L 271.345351 351.211257 
L 271.364993 331.691918 
L 248.86355 330.743761 
z
" style="fill:#94c4df;stroke:#000000;"/>
    <path clip-path="url(#p60fb68e8cb)" d="M 248.86355 330.743761 
L 271.364993 331.691918 
L 271.384192 312.190606 
L 248.877783 311.202054 
z
" style="fill:#92c4de;stroke:#000000;"/>
    <path clip-path="url(#p60fb68e8cb)" d="M 248.877783 311.202054 
L 271.384192 312.190606 
L 271.40368 292.707039 
L 248.894236 291.688797 
z
" style="fill:#92c4de;stroke:#000000;"/>
    <path clip-path="url(#p60fb68e8cb)" d="M 248.894236 291.688797 
L 271.40368 292.707039 
L 271.426392 273.238502 
L 248.919778 272.202484 
z
" style="fill:#95c5df;stroke:#000000;"/>
    <path clip-path="url(#p60fb68e8cb)" d="M 248.919778 272.202484 
L 271.426392 273.238502 
L 271.457345 253.778206 
L 248.96869 252.735923 
z
" style="fill:#a0cbe2;stroke:#000000;"/>
    <path clip-path="url(#p60fb68e8cb)" d="M 248.96869 252.735923 
L 271.457345 253.778206 
L 271.494434 234.314539 
L 249.056652 233.271512 
z
" style="fill:#b5d4e9;stroke:#000000;"/>
    <path clip-path="url(#p60fb68e8cb)" d="M 249.056652 233.271512 
L 271.494434 234.314539 
L 271.487551 214.837041 
L 249.146879 213.786736 
z
" style="fill:#d6e6f4;stroke:#000000;"/>
    <path clip-path="url(#p60fb68e8cb)" d="M 272.991482 585.570927 
L 295.41948 585.972517 
L 294.877263 566.536797 
L 272.33566 566.135968 
z
" style="fill:#b8d5ea;stroke:#000000;"/>
    <path clip-path="url(#p60fb68e8cb)" d="M 272.33566 566.135968 
L 294.877263 566.536797 
L 294.422722 547.110736 
L 271.833158 546.69999 
z
" style="fill:#7ab6d9;stroke:#000000;"/>
    <path clip-path="url(#p60fb68e8cb)" d="M 271.833158 546.69999 
L 294.422722 547.110736 
L 294.118314 527.664349 
L 271.533933 527.223521 
z
" style="fill:#60a7d2;stroke:#000000;"/>
    <path clip-path="url(#p60fb68e8cb)" d="M 271.533933 527.223521 
L 294.118314 527.664349 
L 293.943344 508.187802 
L 271.381108 507.702781 
z
" style="fill:#61a7d2;stroke:#000000;"/>
    <path clip-path="url(#p60fb68e8cb)" d="M 271.381108 507.702781 
L 293.943344 508.187802 
L 293.85166 488.686595 
L 271.30834 488.151656 
z
" style="fill:#69add5;stroke:#000000;"/>
    <path clip-path="url(#p60fb68e8cb)" d="M 271.30834 488.151656 
L 293.85166 488.686595 
L 293.80827 469.170108 
L 271.277627 468.58375 
z
" style="fill:#74b3d8;stroke:#000000;"/>
    <path clip-path="url(#p60fb68e8cb)" d="M 271.277627 468.58375 
L 293.80827 469.170108 
L 293.793033 449.646094 
L 271.270228 449.008492 
z
" style="fill:#7ab6d9;stroke:#000000;"/>
    <path clip-path="url(#p60fb68e8cb)" d="M 271.270228 449.008492 
L 293.793033 449.646094 
L 293.794477 430.120237 
L 271.276009 429.432596 
z
" style="fill:#81badb;stroke:#000000;"/>
    <path clip-path="url(#p60fb68e8cb)" d="M 271.276009 429.432596 
L 293.794477 430.120237 
L 293.805831 410.596752 
L 271.289196 409.861178 
z
" style="fill:#84bcdb;stroke:#000000;"/>
    <path clip-path="url(#p60fb68e8cb)" d="M 271.289196 409.861178 
L 293.805831 410.596752 
L 293.822997 391.078836 
L 271.306401 390.298331 
z
" style="fill:#85bcdc;stroke:#000000;"/>
    <path clip-path="url(#p60fb68e8cb)" d="M 271.306401 390.298331 
L 293.822997 391.078836 
L 293.843375 371.568923 
L 271.325552 370.747433 
z
" style="fill:#87bddc;stroke:#000000;"/>
    <path clip-path="url(#p60fb68e8cb)" d="M 271.325552 370.747433 
L 293.843375 371.568923 
L 293.865158 352.068802 
L 271.345351 351.211257 
z
" style="fill:#87bddc;stroke:#000000;"/>
    <path clip-path="url(#p60fb68e8cb)" d="M 271.345351 351.211257 
L 293.865158 352.068802 
L 293.886932 332.579596 
L 271.364993 331.691918 
z
" style="fill:#89bedc;stroke:#000000;"/>
    <path clip-path="url(#p60fb68e8cb)" d="M 271.364993 331.691918 
L 293.886932 332.579596 
L 293.907415 313.101635 
L 271.384192 312.190606 
z
" style="fill:#89bedc;stroke:#000000;"/>
    <path clip-path="url(#p60fb68e8cb)" d="M 271.384192 312.190606 
L 293.907415 313.101635 
L 293.92546 293.634134 
L 271.40368 292.707039 
z
" style="fill:#8cc0dd;stroke:#000000;"/>
    <path clip-path="url(#p60fb68e8cb)" d="M 271.40368 292.707039 
L 293.92546 293.634134 
L 293.940355 274.174588 
L 271.426392 273.238502 
z
" style="fill:#91c3de;stroke:#000000;"/>
    <path clip-path="url(#p60fb68e8cb)" d="M 271.426392 273.238502 
L 293.940355 274.174588 
L 293.950237 254.718084 
L 271.457345 253.778206 
z
" style="fill:#9fcae1;stroke:#000000;"/>
    <path clip-path="url(#p60fb68e8cb)" d="M 271.457345 253.778206 
L 293.950237 254.718084 
L 293.942576 235.257581 
L 271.494434 234.314539 
z
" style="fill:#b3d3e8;stroke:#000000;"/>
    <path clip-path="url(#p60fb68e8cb)" d="M 271.494434 234.314539 
L 293.942576 235.257581 
L 293.86625 215.789727 
L 271.487551 214.837041 
z
" style="fill:#d0e1f2;stroke:#000000;"/>
    <path clip-path="url(#p60fb68e8cb)" d="M 295.41948 585.972517 
L 317.857393 586.502877 
L 317.400538 567.066932 
L 294.877263 566.536797 
z
" style="fill:#bad6eb;stroke:#000000;"/>
    <path clip-path="url(#p60fb68e8cb)" d="M 294.877263 566.536797 
L 317.400538 567.066932 
L 316.995464 547.643967 
L 294.422722 547.110736 
z
" style="fill:#8abfdd;stroke:#000000;"/>
    <path clip-path="url(#p60fb68e8cb)" d="M 294.422722 547.110736 
L 316.995464 547.643967 
L 316.701222 528.212886 
L 294.118314 527.664349 
z
" style="fill:#6caed6;stroke:#000000;"/>
    <path clip-path="url(#p60fb68e8cb)" d="M 294.118314 527.664349 
L 316.701222 528.212886 
L 316.516363 508.762927 
L 293.943344 508.187802 
z
" style="fill:#65aad4;stroke:#000000;"/>
    <path clip-path="url(#p60fb68e8cb)" d="M 293.943344 508.187802 
L 316.516363 508.762927 
L 316.411568 489.294477 
L 293.85166 488.686595 
z
" style="fill:#68acd5;stroke:#000000;"/>
    <path clip-path="url(#p60fb68e8cb)" d="M 293.85166 488.686595 
L 316.411568 489.294477 
L 316.357881 469.813013 
L 293.80827 469.170108 
z
" style="fill:#6dafd7;stroke:#000000;"/>
    <path clip-path="url(#p60fb68e8cb)" d="M 293.80827 469.170108 
L 316.357881 469.813013 
L 316.335636 450.324259 
L 293.793033 449.646094 
z
" style="fill:#72b2d8;stroke:#000000;"/>
    <path clip-path="url(#p60fb68e8cb)" d="M 293.793033 449.646094 
L 316.335636 450.324259 
L 316.33269 430.832722 
L 293.794477 430.120237 
z
" style="fill:#77b5d9;stroke:#000000;"/>
    <path clip-path="url(#p60fb68e8cb)" d="M 293.794477 430.120237 
L 316.33269 430.832722 
L 316.341566 411.341738 
L 293.805831 410.596752 
z
" style="fill:#7ab6d9;stroke:#000000;"/>
    <path clip-path="url(#p60fb68e8cb)" d="M 293.805831 410.596752 
L 316.341566 411.341738 
L 316.357586 391.853745 
L 293.822997 391.078836 
z
" style="fill:#7cb7da;stroke:#000000;"/>
    <path clip-path="url(#p60fb68e8cb)" d="M 293.822997 391.078836 
L 316.357586 391.853745 
L 316.377667 372.370489 
L 293.843375 371.568923 
z
" style="fill:#7db8da;stroke:#000000;"/>
    <path clip-path="url(#p60fb68e8cb)" d="M 293.843375 371.568923 
L 316.377667 372.370489 
L 316.399532 352.893141 
L 293.865158 352.068802 
z
" style="fill:#7fb9da;stroke:#000000;"/>
    <path clip-path="url(#p60fb68e8cb)" d="M 293.865158 352.068802 
L 316.399532 352.893141 
L 316.42119 333.422332 
L 293.886932 332.579596 
z
" style="fill:#81badb;stroke:#000000;"/>
    <path clip-path="url(#p60fb68e8cb)" d="M 293.886932 332.579596 
L 316.42119 333.422332 
L 316.440481 313.95811 
L 293.907415 313.101635 
z
" style="fill:#84bcdb;stroke:#000000;"/>
    <path clip-path="url(#p60fb68e8cb)" d="M 293.907415 313.101635 
L 316.440481 313.95811 
L 316.454579 294.499776 
L 293.92546 293.634134 
z
" style="fill:#87bddc;stroke:#000000;"/>
    <path clip-path="url(#p60fb68e8cb)" d="M 293.92546 293.634134 
L 316.454579 294.499776 
L 316.459746 275.04557 
L 293.940355 274.174588 
z
" style="fill:#8dc1dd;stroke:#000000;"/>
    <path clip-path="url(#p60fb68e8cb)" d="M 293.940355 274.174588 
L 316.459746 275.04557 
L 316.449272 255.592439 
L 293.950237 254.718084 
z
" style="fill:#9cc9e1;stroke:#000000;"/>
    <path clip-path="url(#p60fb68e8cb)" d="M 293.950237 254.718084 
L 316.449272 255.592439 
L 316.404902 236.136814 
L 293.942576 235.257581 
z
" style="fill:#afd1e7;stroke:#000000;"/>
    <path clip-path="url(#p60fb68e8cb)" d="M 293.942576 235.257581 
L 316.404902 236.136814 
L 316.2795 216.678972 
L 293.86625 215.789727 
z
" style="fill:#c9ddf0;stroke:#000000;"/>
    <path clip-path="url(#p60fb68e8cb)" d="M 317.857393 586.502877 
L 340.305123 587.12033 
L 339.911461 567.684055 
L 317.400538 567.066932 
z
" style="fill:#b9d6ea;stroke:#000000;"/>
    <path clip-path="url(#p60fb68e8cb)" d="M 317.400538 567.066932 
L 339.911461 567.684055 
L 339.552135 548.260635 
L 316.995464 547.643967 
z
" style="fill:#95c5df;stroke:#000000;"/>
    <path clip-path="url(#p60fb68e8cb)" d="M 316.995464 547.643967 
L 339.552135 548.260635 
L 339.276432 528.836058 
L 316.701222 528.212886 
z
" style="fill:#77b5d9;stroke:#000000;"/>
    <path clip-path="url(#p60fb68e8cb)" d="M 316.701222 528.212886 
L 339.276432 528.836058 
L 339.091393 509.400782 
L 316.516363 508.762927 
z
" style="fill:#6aaed6;stroke:#000000;"/>
    <path clip-path="url(#p60fb68e8cb)" d="M 316.516363 508.762927 
L 339.091393 509.400782 
L 338.979581 489.952581 
L 316.411568 489.294477 
z
" style="fill:#69add5;stroke:#000000;"/>
    <path clip-path="url(#p60fb68e8cb)" d="M 316.411568 489.294477 
L 338.979581 489.952581 
L 338.918605 470.493957 
L 316.357881 469.813013 
z
" style="fill:#6aaed6;stroke:#000000;"/>
    <path clip-path="url(#p60fb68e8cb)" d="M 316.357881 469.813013 
L 338.918605 470.493957 
L 338.890639 451.028678 
L 316.335636 450.324259 
z
" style="fill:#6dafd7;stroke:#000000;"/>
    <path clip-path="url(#p60fb68e8cb)" d="M 316.335636 450.324259 
L 338.890639 451.028678 
L 338.883597 431.560078 
L 316.33269 430.832722 
z
" style="fill:#71b1d7;stroke:#000000;"/>
    <path clip-path="url(#p60fb68e8cb)" d="M 316.33269 430.832722 
L 338.883597 431.560078 
L 338.889655 412.090686 
L 316.341566 411.341738 
z
" style="fill:#74b3d8;stroke:#000000;"/>
    <path clip-path="url(#p60fb68e8cb)" d="M 316.341566 411.341738 
L 338.889655 412.090686 
L 338.90374 392.622331 
L 316.357586 391.853745 
z
" style="fill:#75b4d8;stroke:#000000;"/>
    <path clip-path="url(#p60fb68e8cb)" d="M 316.357586 391.853745 
L 338.90374 392.622331 
L 338.922414 373.156275 
L 316.377667 372.370489 
z
" style="fill:#79b5d9;stroke:#000000;"/>
    <path clip-path="url(#p60fb68e8cb)" d="M 316.377667 372.370489 
L 338.922414 373.156275 
L 338.943023 353.69333 
L 316.399532 352.893141 
z
" style="fill:#7ab6d9;stroke:#000000;"/>
    <path clip-path="url(#p60fb68e8cb)" d="M 316.399532 352.893141 
L 338.943023 353.69333 
L 338.963118 334.233908 
L 316.42119 333.422332 
z
" style="fill:#7cb7da;stroke:#000000;"/>
    <path clip-path="url(#p60fb68e8cb)" d="M 316.42119 333.422332 
L 338.963118 334.233908 
L 338.979821 314.77804 
L 316.440481 313.95811 
z
" style="fill:#7fb9da;stroke:#000000;"/>
    <path clip-path="url(#p60fb68e8cb)" d="M 316.440481 313.95811 
L 338.979821 314.77804 
L 338.98895 295.325331 
L 316.454579 294.499776 
z
" style="fill:#84bcdb;stroke:#000000;"/>
    <path clip-path="url(#p60fb68e8cb)" d="M 316.454579 294.499776 
L 338.98895 295.325331 
L 338.984413 275.874867 
L 316.459746 275.04557 
z
" style="fill:#8abfdd;stroke:#000000;"/>
    <path clip-path="url(#p60fb68e8cb)" d="M 316.459746 275.04557 
L 338.984413 275.874867 
L 338.956188 256.425233 
L 316.449272 255.592439 
z
" style="fill:#97c6df;stroke:#000000;"/>
    <path clip-path="url(#p60fb68e8cb)" d="M 316.449272 255.592439 
L 338.956188 256.425233 
L 338.883155 236.975294 
L 316.404902 236.136814 
z
" style="fill:#a9cfe5;stroke:#000000;"/>
    <path clip-path="url(#p60fb68e8cb)" d="M 316.404902 236.136814 
L 338.883155 236.975294 
L 338.723389 217.527076 
L 316.2795 216.678972 
z
" style="fill:#bed8ec;stroke:#000000;"/>
    <path clip-path="url(#p60fb68e8cb)" d="M 340.305123 587.12033 
L 362.760387 587.796202 
L 362.413459 568.359075 
L 339.911461 567.684055 
z
" style="fill:#b9d6ea;stroke:#000000;"/>
    <path clip-path="url(#p60fb68e8cb)" d="M 339.911461 567.684055 
L 362.413459 568.359075 
L 362.094668 548.933219 
L 339.552135 548.260635 
z
" style="fill:#9dcae1;stroke:#000000;"/>
    <path clip-path="url(#p60fb68e8cb)" d="M 339.552135 548.260635 
L 362.094668 548.933219 
L 361.84153 529.509967 
L 339.276432 528.836058 
z
" style="fill:#82bbdb;stroke:#000000;"/>
    <path clip-path="url(#p60fb68e8cb)" d="M 339.276432 528.836058 
L 361.84153 529.509967 
L 361.663273 510.081654 
L 339.091393 509.400782 
z
" style="fill:#72b2d8;stroke:#000000;"/>
    <path clip-path="url(#p60fb68e8cb)" d="M 339.091393 509.400782 
L 361.663273 510.081654 
L 361.549933 490.645012 
L 338.979581 489.952581 
z
" style="fill:#6caed6;stroke:#000000;"/>
    <path clip-path="url(#p60fb68e8cb)" d="M 338.979581 489.952581 
L 361.549933 490.645012 
L 361.484884 471.200536 
L 338.918605 470.493957 
z
" style="fill:#6aaed6;stroke:#000000;"/>
    <path clip-path="url(#p60fb68e8cb)" d="M 338.918605 470.493957 
L 361.484884 471.200536 
L 361.45281 451.750361 
L 338.890639 451.028678 
z
" style="fill:#6caed6;stroke:#000000;"/>
    <path clip-path="url(#p60fb68e8cb)" d="M 338.890639 451.028678 
L 361.45281 451.750361 
L 361.442298 432.296744 
L 338.883597 431.560078 
z
" style="fill:#6dafd7;stroke:#000000;"/>
    <path clip-path="url(#p60fb68e8cb)" d="M 338.883597 431.560078 
L 361.442298 432.296744 
L 361.445519 412.841503 
L 338.889655 412.090686 
z
" style="fill:#71b1d7;stroke:#000000;"/>
    <path clip-path="url(#p60fb68e8cb)" d="M 338.889655 412.090686 
L 361.445519 412.841503 
L 361.457241 393.385964 
L 338.90374 392.622331 
z
" style="fill:#72b2d8;stroke:#000000;"/>
    <path clip-path="url(#p60fb68e8cb)" d="M 338.90374 392.622331 
L 361.457241 393.385964 
L 361.473829 373.931047 
L 338.922414 373.156275 
z
" style="fill:#74b3d8;stroke:#000000;"/>
    <path clip-path="url(#p60fb68e8cb)" d="M 338.922414 373.156275 
L 361.473829 373.931047 
L 361.492373 354.477343 
L 338.943023 353.69333 
z
" style="fill:#77b5d9;stroke:#000000;"/>
    <path clip-path="url(#p60fb68e8cb)" d="M 338.943023 353.69333 
L 361.492373 354.477343 
L 361.510087 335.02518 
L 338.963118 334.233908 
z
" style="fill:#79b5d9;stroke:#000000;"/>
    <path clip-path="url(#p60fb68e8cb)" d="M 338.963118 334.233908 
L 361.510087 335.02518 
L 361.523587 315.57466 
L 338.979821 314.77804 
z
" style="fill:#7cb7da;stroke:#000000;"/>
    <path clip-path="url(#p60fb68e8cb)" d="M 338.979821 314.77804 
L 361.523587 315.57466 
L 361.52772 296.125731 
L 338.98895 295.325331 
z
" style="fill:#81badb;stroke:#000000;"/>
    <path clip-path="url(#p60fb68e8cb)" d="M 338.98895 295.325331 
L 361.52772 296.125731 
L 361.51466 276.678271 
L 338.984413 275.874867 
z
" style="fill:#87bddc;stroke:#000000;"/>
    <path clip-path="url(#p60fb68e8cb)" d="M 338.984413 275.874867 
L 361.51466 276.678271 
L 361.472216 257.232237 
L 338.956188 256.425233 
z
" style="fill:#92c4de;stroke:#000000;"/>
    <path clip-path="url(#p60fb68e8cb)" d="M 338.956188 256.425233 
L 361.472216 257.232237 
L 361.377879 237.788232 
L 338.883155 236.975294 
z
" style="fill:#a1cbe2;stroke:#000000;"/>
    <path clip-path="url(#p60fb68e8cb)" d="M 338.883155 236.975294 
L 361.377879 237.788232 
L 361.194375 218.348979 
L 338.723389 217.527076 
z
" style="fill:#b2d2e8;stroke:#000000;"/>
    <path clip-path="url(#p60fb68e8cb)" d="M 362.760387 587.796202 
L 385.219973 588.511205 
L 384.908073 569.072467 
L 362.413459 568.359075 
z
" style="fill:#b9d6ea;stroke:#000000;"/>
    <path clip-path="url(#p60fb68e8cb)" d="M 362.413459 568.359075 
L 384.908073 569.072467 
L 384.624889 549.642976 
L 362.094668 548.933219 
z
" style="fill:#a3cce3;stroke:#000000;"/>
    <path clip-path="url(#p60fb68e8cb)" d="M 362.094668 548.933219 
L 384.624889 549.642976 
L 384.395982 530.21802 
L 361.84153 529.509967 
z
" style="fill:#8abfdd;stroke:#000000;"/>
    <path clip-path="url(#p60fb68e8cb)" d="M 361.84153 529.509967 
L 384.395982 530.21802 
L 384.22926 510.791847 
L 361.663273 510.081654 
z
" style="fill:#79b5d9;stroke:#000000;"/>
    <path clip-path="url(#p60fb68e8cb)" d="M 361.663273 510.081654 
L 384.22926 510.791847 
L 384.118954 491.360988 
L 361.549933 490.645012 
z
" style="fill:#71b1d7;stroke:#000000;"/>
    <path clip-path="url(#p60fb68e8cb)" d="M 361.549933 490.645012 
L 384.118954 491.360988 
L 384.052949 471.924712 
L 361.484884 471.200536 
z
" style="fill:#6caed6;stroke:#000000;"/>
    <path clip-path="url(#p60fb68e8cb)" d="M 361.484884 471.200536 
L 384.052949 471.924712 
L 384.018573 452.483898 
L 361.45281 451.750361 
z
" style="fill:#6caed6;stroke:#000000;"/>
    <path clip-path="url(#p60fb68e8cb)" d="M 361.45281 451.750361 
L 384.018573 452.483898 
L 384.00547 433.039878 
L 361.442298 432.296744 
z
" style="fill:#6dafd7;stroke:#000000;"/>
    <path clip-path="url(#p60fb68e8cb)" d="M 361.442298 432.296744 
L 384.00547 433.039878 
L 384.00613 413.593841 
L 361.445519 412.841503 
z
" style="fill:#6fb0d7;stroke:#000000;"/>
    <path clip-path="url(#p60fb68e8cb)" d="M 361.445519 412.841503 
L 384.00613 413.593841 
L 384.015392 394.146695 
L 361.457241 393.385964 
z
" style="fill:#71b1d7;stroke:#000000;"/>
    <path clip-path="url(#p60fb68e8cb)" d="M 361.457241 393.385964 
L 384.015392 394.146695 
L 384.029575 374.699095 
L 361.473829 373.931047 
z
" style="fill:#72b2d8;stroke:#000000;"/>
    <path clip-path="url(#p60fb68e8cb)" d="M 361.473829 373.931047 
L 384.029575 374.699095 
L 384.045661 355.251483 
L 361.492373 354.477343 
z
" style="fill:#74b3d8;stroke:#000000;"/>
    <path clip-path="url(#p60fb68e8cb)" d="M 361.492373 354.477343 
L 384.045661 355.251483 
L 384.060653 335.80415 
L 361.510087 335.02518 
z
" style="fill:#77b5d9;stroke:#000000;"/>
    <path clip-path="url(#p60fb68e8cb)" d="M 361.510087 335.02518 
L 384.060653 335.80415 
L 384.070858 316.357304 
L 361.523587 315.57466 
z
" style="fill:#7ab6d9;stroke:#000000;"/>
    <path clip-path="url(#p60fb68e8cb)" d="M 361.523587 315.57466 
L 384.070858 316.357304 
L 384.070574 296.911197 
L 361.52772 296.125731 
z
" style="fill:#7db8da;stroke:#000000;"/>
    <path clip-path="url(#p60fb68e8cb)" d="M 361.52772 296.125731 
L 384.070574 296.911197 
L 384.050779 277.466354 
L 361.51466 276.678271 
z
" style="fill:#84bcdb;stroke:#000000;"/>
    <path clip-path="url(#p60fb68e8cb)" d="M 361.51466 276.678271 
L 384.050779 277.466354 
L 383.998076 258.023869 
L 361.472216 257.232237 
z
" style="fill:#8cc0dd;stroke:#000000;"/>
    <path clip-path="url(#p60fb68e8cb)" d="M 361.472216 257.232237 
L 383.998076 258.023869 
L 383.889094 238.585718 
L 361.377879 237.788232 
z
" style="fill:#99c7e0;stroke:#000000;"/>
    <path clip-path="url(#p60fb68e8cb)" d="M 361.377879 237.788232 
L 383.889094 238.585718 
L 383.689642 219.154852 
L 361.194375 218.348979 
z
" style="fill:#a6cee4;stroke:#000000;"/>
    <path clip-path="url(#p60fb68e8cb)" d="M 385.219973 588.511205 
L 407.680353 589.25271 
L 407.395592 569.811477 
L 384.908073 569.072467 
z
" style="fill:#bad6eb;stroke:#000000;"/>
    <path clip-path="url(#p60fb68e8cb)" d="M 384.908073 569.072467 
L 407.395592 569.811477 
L 407.144141 550.377534 
L 384.624889 549.642976 
z
" style="fill:#a8cee4;stroke:#000000;"/>
    <path clip-path="url(#p60fb68e8cb)" d="M 384.624889 549.642976 
L 407.144141 550.377534 
L 406.940081 530.949127 
L 384.395982 530.21802 
z
" style="fill:#92c4de;stroke:#000000;"/>
    <path clip-path="url(#p60fb68e8cb)" d="M 384.395982 530.21802 
L 406.940081 530.949127 
L 406.78812 511.52219 
L 384.22926 510.791847 
z
" style="fill:#81badb;stroke:#000000;"/>
    <path clip-path="url(#p60fb68e8cb)" d="M 384.22926 510.791847 
L 406.78812 511.52219 
L 406.684507 492.093458 
L 384.118954 491.360988 
z
" style="fill:#75b4d8;stroke:#000000;"/>
    <path clip-path="url(#p60fb68e8cb)" d="M 384.118954 491.360988 
L 406.684507 492.093458 
L 406.620416 472.661488 
L 384.052949 471.924712 
z
" style="fill:#6fb0d7;stroke:#000000;"/>
    <path clip-path="url(#p60fb68e8cb)" d="M 384.052949 471.924712 
L 406.620416 472.661488 
L 406.58559 453.226242 
L 384.018573 452.483898 
z
" style="fill:#6dafd7;stroke:#000000;"/>
    <path clip-path="url(#p60fb68e8cb)" d="M 384.018573 452.483898 
L 406.58559 453.226242 
L 406.570939 433.788273 
L 384.00547 433.039878 
z
" style="fill:#6dafd7;stroke:#000000;"/>
    <path clip-path="url(#p60fb68e8cb)" d="M 384.00547 433.039878 
L 406.570939 433.788273 
L 406.569534 414.348224 
L 384.00613 413.593841 
z
" style="fill:#6dafd7;stroke:#000000;"/>
    <path clip-path="url(#p60fb68e8cb)" d="M 384.00613 413.593841 
L 406.569534 414.348224 
L 406.576487 394.906643 
L 384.015392 394.146695 
z
" style="fill:#6fb0d7;stroke:#000000;"/>
    <path clip-path="url(#p60fb68e8cb)" d="M 384.015392 394.146695 
L 406.576487 394.906643 
L 406.588233 375.463966 
L 384.029575 374.699095 
z
" style="fill:#71b1d7;stroke:#000000;"/>
    <path clip-path="url(#p60fb68e8cb)" d="M 384.029575 374.699095 
L 406.588233 375.463966 
L 406.601768 356.020528 
L 384.045661 355.251483 
z
" style="fill:#72b2d8;stroke:#000000;"/>
    <path clip-path="url(#p60fb68e8cb)" d="M 384.045661 355.251483 
L 406.601768 356.020528 
L 406.614023 336.576602 
L 384.060653 335.80415 
z
" style="fill:#75b4d8;stroke:#000000;"/>
    <path clip-path="url(#p60fb68e8cb)" d="M 384.060653 335.80415 
L 406.614023 336.576602 
L 406.621182 317.1325 
L 384.070858 316.357304 
z
" style="fill:#79b5d9;stroke:#000000;"/>
    <path clip-path="url(#p60fb68e8cb)" d="M 384.070858 316.357304 
L 406.621182 317.1325 
L 406.61741 297.688741 
L 384.070574 296.911197 
z
" style="fill:#7cb7da;stroke:#000000;"/>
    <path clip-path="url(#p60fb68e8cb)" d="M 384.070574 296.911197 
L 406.61741 297.688741 
L 406.592979 278.246323 
L 384.050779 277.466354 
z
" style="fill:#7fb9da;stroke:#000000;"/>
    <path clip-path="url(#p60fb68e8cb)" d="M 384.050779 277.466354 
L 406.592979 278.246323 
L 406.534105 258.807174 
L 383.998076 258.023869 
z
" style="fill:#85bcdc;stroke:#000000;"/>
    <path clip-path="url(#p60fb68e8cb)" d="M 383.998076 258.023869 
L 406.534105 258.807174 
L 406.416606 239.374348 
L 383.889094 238.585718 
z
" style="fill:#8fc2de;stroke:#000000;"/>
    <path clip-path="url(#p60fb68e8cb)" d="M 383.889094 238.585718 
L 406.416606 239.374348 
L 406.207109 219.95108 
L 383.689642 219.154852 
z
" style="fill:#9ac8e0;stroke:#000000;"/>
    <path clip-path="url(#p60fb68e8cb)" d="M 407.680353 589.25271 
L 430.13794 590.012695 
L 429.875476 570.567994 
L 407.395592 569.811477 
z
" style="fill:#bdd7ec;stroke:#000000;"/>
    <path clip-path="url(#p60fb68e8cb)" d="M 407.395592 569.811477 
L 429.875476 570.567994 
L 429.653304 551.128982 
L 407.144141 550.377534 
z
" style="fill:#add0e6;stroke:#000000;"/>
    <path clip-path="url(#p60fb68e8cb)" d="M 407.144141 550.377534 
L 429.653304 551.128982 
L 429.474423 531.696145 
L 406.940081 530.949127 
z
" style="fill:#9ac8e0;stroke:#000000;"/>
    <path clip-path="url(#p60fb68e8cb)" d="M 406.940081 530.949127 
L 429.474423 531.696145 
L 429.339552 512.266797 
L 406.78812 511.52219 
z
" style="fill:#87bddc;stroke:#000000;"/>
    <path clip-path="url(#p60fb68e8cb)" d="M 406.78812 511.52219 
L 429.339552 512.266797 
L 429.245556 492.838014 
L 406.684507 492.093458 
z
" style="fill:#7ab6d9;stroke:#000000;"/>
    <path clip-path="url(#p60fb68e8cb)" d="M 406.684507 492.093458 
L 429.245556 492.838014 
L 429.185916 473.407953 
L 406.620416 472.661488 
z
" style="fill:#72b2d8;stroke:#000000;"/>
    <path clip-path="url(#p60fb68e8cb)" d="M 406.620416 472.661488 
L 429.185916 473.407953 
L 429.152454 453.975886 
L 406.58559 453.226242 
z
" style="fill:#6fb0d7;stroke:#000000;"/>
    <path clip-path="url(#p60fb68e8cb)" d="M 406.58559 453.226242 
L 429.152454 453.975886 
L 429.137367 434.541726 
L 406.570939 433.788273 
z
" style="fill:#6dafd7;stroke:#000000;"/>
    <path clip-path="url(#p60fb68e8cb)" d="M 406.570939 433.788273 
L 429.137367 434.541726 
L 429.134516 415.105626 
L 406.569534 414.348224 
z
" style="fill:#6dafd7;stroke:#000000;"/>
    <path clip-path="url(#p60fb68e8cb)" d="M 406.569534 414.348224 
L 429.134516 415.105626 
L 429.139475 395.667827 
L 406.576487 394.906643 
z
" style="fill:#6fb0d7;stroke:#000000;"/>
    <path clip-path="url(#p60fb68e8cb)" d="M 406.576487 394.906643 
L 429.139475 395.667827 
L 429.148936 376.228591 
L 406.588233 375.463966 
z
" style="fill:#6fb0d7;stroke:#000000;"/>
    <path clip-path="url(#p60fb68e8cb)" d="M 406.588233 375.463966 
L 429.148936 376.228591 
L 429.160027 356.788168 
L 406.601768 356.020528 
z
" style="fill:#72b2d8;stroke:#000000;"/>
    <path clip-path="url(#p60fb68e8cb)" d="M 406.601768 356.020528 
L 429.160027 356.788168 
L 429.169753 337.346818 
L 406.614023 336.576602 
z
" style="fill:#74b3d8;stroke:#000000;"/>
    <path clip-path="url(#p60fb68e8cb)" d="M 406.614023 336.576602 
L 429.169753 337.346818 
L 429.174359 317.904922 
L 406.621182 317.1325 
z
" style="fill:#75b4d8;stroke:#000000;"/>
    <path clip-path="url(#p60fb68e8cb)" d="M 406.621182 317.1325 
L 429.174359 317.904922 
L 429.168252 298.463257 
L 406.61741 297.688741 
z
" style="fill:#79b5d9;stroke:#000000;"/>
    <path clip-path="url(#p60fb68e8cb)" d="M 406.61741 297.688741 
L 429.168252 298.463257 
L 429.141439 279.023261 
L 406.592979 278.246323 
z
" style="fill:#7cb7da;stroke:#000000;"/>
    <path clip-path="url(#p60fb68e8cb)" d="M 406.592979 278.246323 
L 429.141439 279.023261 
L 429.08037 259.58731 
L 406.534105 258.807174 
z
" style="fill:#7fb9da;stroke:#000000;"/>
    <path clip-path="url(#p60fb68e8cb)" d="M 406.534105 258.807174 
L 429.08037 259.58731 
L 428.96005 240.159295 
L 406.416606 239.374348 
z
" style="fill:#84bcdb;stroke:#000000;"/>
    <path clip-path="url(#p60fb68e8cb)" d="M 406.416606 239.374348 
L 428.96005 240.159295 
L 428.745282 220.742904 
L 406.207109 219.95108 
z
" style="fill:#8cc0dd;stroke:#000000;"/>
    <path clip-path="url(#p60fb68e8cb)" d="M 430.13794 590.012695 
L 452.589107 590.786275 
L 452.346681 571.33708 
L 429.875476 570.567994 
z
" style="fill:#c1d9ed;stroke:#000000;"/>
    <path clip-path="url(#p60fb68e8cb)" d="M 429.875476 570.567994 
L 452.346681 571.33708 
L 452.152893 551.892423 
L 429.653304 551.128982 
z
" style="fill:#b2d2e8;stroke:#000000;"/>
    <path clip-path="url(#p60fb68e8cb)" d="M 429.653304 551.128982 
L 452.152893 551.892423 
L 451.99974 532.454691 
L 429.474423 531.696145 
z
" style="fill:#a0cbe2;stroke:#000000;"/>
    <path clip-path="url(#p60fb68e8cb)" d="M 429.474423 531.696145 
L 451.99974 532.454691 
L 451.883805 513.022177 
L 429.339552 512.266797 
z
" style="fill:#8dc1dd;stroke:#000000;"/>
    <path clip-path="url(#p60fb68e8cb)" d="M 429.339552 512.266797 
L 451.883805 513.022177 
L 451.801809 493.592212 
L 429.245556 492.838014 
z
" style="fill:#7fb9da;stroke:#000000;"/>
    <path clip-path="url(#p60fb68e8cb)" d="M 429.245556 492.838014 
L 451.801809 493.592212 
L 451.748864 474.162703 
L 429.185916 473.407953 
z
" style="fill:#75b4d8;stroke:#000000;"/>
    <path clip-path="url(#p60fb68e8cb)" d="M 429.185916 473.407953 
L 451.748864 474.162703 
L 451.71843 454.732422 
L 429.152454 453.975886 
z
" style="fill:#71b1d7;stroke:#000000;"/>
    <path clip-path="url(#p60fb68e8cb)" d="M 429.152454 453.975886 
L 451.71843 454.732422 
L 451.703987 435.300708 
L 429.137367 434.541726 
z
" style="fill:#6dafd7;stroke:#000000;"/>
    <path clip-path="url(#p60fb68e8cb)" d="M 429.137367 434.541726 
L 451.703987 435.300708 
L 451.700339 415.867288 
L 429.134516 415.105626 
z
" style="fill:#6dafd7;stroke:#000000;"/>
    <path clip-path="url(#p60fb68e8cb)" d="M 429.134516 415.105626 
L 451.700339 415.867288 
L 451.703726 396.432169 
L 429.139475 395.667827 
z
" style="fill:#6dafd7;stroke:#000000;"/>
    <path clip-path="url(#p60fb68e8cb)" d="M 429.139475 395.667827 
L 451.703726 396.432169 
L 451.711183 376.995472 
L 429.148936 376.228591 
z
" style="fill:#6fb0d7;stroke:#000000;"/>
    <path clip-path="url(#p60fb68e8cb)" d="M 429.148936 376.228591 
L 451.711183 376.995472 
L 451.720052 357.557324 
L 429.160027 356.788168 
z
" style="fill:#71b1d7;stroke:#000000;"/>
    <path clip-path="url(#p60fb68e8cb)" d="M 429.160027 356.788168 
L 451.720052 357.557324 
L 451.727563 338.117945 
L 429.169753 337.346818 
z
" style="fill:#72b2d8;stroke:#000000;"/>
    <path clip-path="url(#p60fb68e8cb)" d="M 429.169753 337.346818 
L 451.727563 338.117945 
L 451.730252 318.677804 
L 429.174359 317.904922 
z
" style="fill:#74b3d8;stroke:#000000;"/>
    <path clip-path="url(#p60fb68e8cb)" d="M 429.174359 317.904922 
L 451.730252 318.677804 
L 451.72308 299.237893 
L 429.168252 298.463257 
z
" style="fill:#75b4d8;stroke:#000000;"/>
    <path clip-path="url(#p60fb68e8cb)" d="M 429.168252 298.463257 
L 451.72308 299.237893 
L 451.696492 279.800175 
L 429.141439 279.023261 
z
" style="fill:#77b5d9;stroke:#000000;"/>
    <path clip-path="url(#p60fb68e8cb)" d="M 429.141439 279.023261 
L 451.696492 279.800175 
L 451.637262 260.367503 
L 429.08037 259.58731 
z
" style="fill:#79b5d9;stroke:#000000;"/>
    <path clip-path="url(#p60fb68e8cb)" d="M 429.08037 259.58731 
L 451.637262 260.367503 
L 451.519657 240.944451 
L 428.96005 240.159295 
z
" style="fill:#7ab6d9;stroke:#000000;"/>
    <path clip-path="url(#p60fb68e8cb)" d="M 428.96005 240.159295 
L 451.519657 240.944451 
L 451.303891 221.534987 
L 428.745282 220.742904 
z
" style="fill:#7db8da;stroke:#000000;"/>
    <path clip-path="url(#p60fb68e8cb)" d="M 452.589107 590.786275 
L 475.029994 591.570946 
L 474.807788 572.11579 
L 452.346681 571.33708 
z
" style="fill:#c6dbef;stroke:#000000;"/>
    <path clip-path="url(#p60fb68e8cb)" d="M 452.346681 571.33708 
L 474.807788 572.11579 
L 474.643254 552.66512 
L 452.152893 551.892423 
z
" style="fill:#b7d4ea;stroke:#000000;"/>
    <path clip-path="url(#p60fb68e8cb)" d="M 452.152893 551.892423 
L 474.643254 552.66512 
L 474.516875 533.222433 
L 451.99974 532.454691 
z
" style="fill:#a5cde3;stroke:#000000;"/>
    <path clip-path="url(#p60fb68e8cb)" d="M 451.99974 532.454691 
L 474.516875 533.222433 
L 474.42155 513.786573 
L 451.883805 513.022177 
z
" style="fill:#92c4de;stroke:#000000;"/>
    <path clip-path="url(#p60fb68e8cb)" d="M 451.883805 513.022177 
L 474.42155 513.786573 
L 474.353584 494.355038 
L 451.801809 493.592212 
z
" style="fill:#84bcdb;stroke:#000000;"/>
    <path clip-path="url(#p60fb68e8cb)" d="M 451.801809 493.592212 
L 474.353584 494.355038 
L 474.309227 474.925588 
L 451.748864 474.162703 
z
" style="fill:#79b5d9;stroke:#000000;"/>
    <path clip-path="url(#p60fb68e8cb)" d="M 451.748864 474.162703 
L 474.309227 474.925588 
L 474.283226 455.496462 
L 451.71843 454.732422 
z
" style="fill:#72b2d8;stroke:#000000;"/>
    <path clip-path="url(#p60fb68e8cb)" d="M 451.71843 454.732422 
L 474.283226 455.496462 
L 474.270367 436.066438 
L 451.703987 435.300708 
z
" style="fill:#6fb0d7;stroke:#000000;"/>
    <path clip-path="url(#p60fb68e8cb)" d="M 451.703987 435.300708 
L 474.270367 436.066438 
L 474.266566 416.63496 
L 451.700339 415.867288 
z
" style="fill:#6dafd7;stroke:#000000;"/>
    <path clip-path="url(#p60fb68e8cb)" d="M 451.700339 415.867288 
L 474.266566 416.63496 
L 474.268828 397.201798 
L 451.703726 396.432169 
z
" style="fill:#6dafd7;stroke:#000000;"/>
    <path clip-path="url(#p60fb68e8cb)" d="M 451.703726 396.432169 
L 474.268828 397.201798 
L 474.274607 377.766873 
L 451.711183 376.995472 
z
" style="fill:#6fb0d7;stroke:#000000;"/>
    <path clip-path="url(#p60fb68e8cb)" d="M 451.711183 376.995472 
L 474.274607 377.766873 
L 474.281521 358.330259 
L 451.720052 357.557324 
z
" style="fill:#71b1d7;stroke:#000000;"/>
    <path clip-path="url(#p60fb68e8cb)" d="M 451.720052 357.557324 
L 474.281521 358.330259 
L 474.287196 338.892253 
L 451.727563 338.117945 
z
" style="fill:#72b2d8;stroke:#000000;"/>
    <path clip-path="url(#p60fb68e8cb)" d="M 451.727563 338.117945 
L 474.287196 338.892253 
L 474.288712 319.453461 
L 451.730252 318.677804 
z
" style="fill:#72b2d8;stroke:#000000;"/>
    <path clip-path="url(#p60fb68e8cb)" d="M 451.730252 318.677804 
L 474.288712 319.453461 
L 474.281659 300.014978 
L 451.72308 299.237893 
z
" style="fill:#74b3d8;stroke:#000000;"/>
    <path clip-path="url(#p60fb68e8cb)" d="M 451.72308 299.237893 
L 474.281659 300.014978 
L 474.258059 280.578932 
L 451.696492 279.800175 
z
" style="fill:#74b3d8;stroke:#000000;"/>
    <path clip-path="url(#p60fb68e8cb)" d="M 451.696492 279.800175 
L 474.258059 280.578932 
L 474.205066 261.149089 
L 451.637262 260.367503 
z
" style="fill:#71b1d7;stroke:#000000;"/>
    <path clip-path="url(#p60fb68e8cb)" d="M 451.637262 260.367503 
L 474.205066 261.149089 
L 474.096534 241.730961 
L 451.519657 240.944451 
z
" style="fill:#6dafd7;stroke:#000000;"/>
    <path clip-path="url(#p60fb68e8cb)" d="M 451.519657 240.944451 
L 474.096534 241.730961 
L 473.883988 222.328737 
L 451.303891 221.534987 
z
" style="fill:#6dafd7;stroke:#000000;"/>
    <path clip-path="url(#p60fb68e8cb)" d="M 475.029994 591.570946 
L 497.456124 592.365516 
L 497.256954 572.903491 
L 474.807788 572.11579 
z
" style="fill:#cadef0;stroke:#000000;"/>
    <path clip-path="url(#p60fb68e8cb)" d="M 474.807788 572.11579 
L 497.256954 572.903491 
L 497.124717 553.445719 
L 474.643254 552.66512 
z
" style="fill:#bcd7eb;stroke:#000000;"/>
    <path clip-path="url(#p60fb68e8cb)" d="M 474.643254 552.66512 
L 497.124717 553.445719 
L 497.027156 533.998203 
L 474.516875 533.222433 
z
" style="fill:#a9cfe5;stroke:#000000;"/>
    <path clip-path="url(#p60fb68e8cb)" d="M 474.516875 533.222433 
L 497.027156 533.998203 
L 496.953928 514.559742 
L 474.42155 513.786573 
z
" style="fill:#97c6df;stroke:#000000;"/>
    <path clip-path="url(#p60fb68e8cb)" d="M 474.42155 513.786573 
L 496.953928 514.559742 
L 496.901565 495.127166 
L 474.353584 494.355038 
z
" style="fill:#87bddc;stroke:#000000;"/>
    <path clip-path="url(#p60fb68e8cb)" d="M 474.353584 494.355038 
L 496.901565 495.127166 
L 496.867322 475.697774 
L 474.309227 474.925588 
z
" style="fill:#7cb7da;stroke:#000000;"/>
    <path clip-path="url(#p60fb68e8cb)" d="M 474.309227 474.925588 
L 496.867322 475.697774 
L 496.846856 456.269513 
L 474.283226 455.496462 
z
" style="fill:#74b3d8;stroke:#000000;"/>
    <path clip-path="url(#p60fb68e8cb)" d="M 474.283226 455.496462 
L 496.846856 456.269513 
L 496.836338 436.840927 
L 474.270367 436.066438 
z
" style="fill:#71b1d7;stroke:#000000;"/>
    <path clip-path="url(#p60fb68e8cb)" d="M 474.270367 436.066438 
L 496.836338 436.840927 
L 496.832916 417.411151 
L 474.266566 416.63496 
z
" style="fill:#6fb0d7;stroke:#000000;"/>
    <path clip-path="url(#p60fb68e8cb)" d="M 474.266566 416.63496 
L 496.832916 417.411151 
L 496.834376 397.979635 
L 474.268828 397.201798 
z
" style="fill:#6dafd7;stroke:#000000;"/>
    <path clip-path="url(#p60fb68e8cb)" d="M 474.268828 397.201798 
L 496.834376 397.979635 
L 496.838668 378.546044 
L 474.274607 377.766873 
z
" style="fill:#6fb0d7;stroke:#000000;"/>
    <path clip-path="url(#p60fb68e8cb)" d="M 474.274607 377.766873 
L 496.838668 378.546044 
L 496.843831 359.110264 
L 474.281521 358.330259 
z
" style="fill:#6fb0d7;stroke:#000000;"/>
    <path clip-path="url(#p60fb68e8cb)" d="M 474.281521 358.330259 
L 496.843831 359.110264 
L 496.84804 339.672521 
L 474.287196 338.892253 
z
" style="fill:#71b1d7;stroke:#000000;"/>
    <path clip-path="url(#p60fb68e8cb)" d="M 474.287196 338.892253 
L 496.84804 339.672521 
L 496.849071 320.233529 
L 474.288712 319.453461 
z
" style="fill:#72b2d8;stroke:#000000;"/>
    <path clip-path="url(#p60fb68e8cb)" d="M 474.288712 319.453461 
L 496.849071 320.233529 
L 496.843263 300.794635 
L 474.281659 300.014978 
z
" style="fill:#72b2d8;stroke:#000000;"/>
    <path clip-path="url(#p60fb68e8cb)" d="M 474.281659 300.014978 
L 496.843263 300.794635 
L 496.82481 281.358382 
L 474.258059 280.578932 
z
" style="fill:#6fb0d7;stroke:#000000;"/>
    <path clip-path="url(#p60fb68e8cb)" d="M 474.258059 280.578932 
L 496.82481 281.358382 
L 496.782745 261.929335 
L 474.205066 261.149089 
z
" style="fill:#6aaed6;stroke:#000000;"/>
    <path clip-path="url(#p60fb68e8cb)" d="M 474.205066 261.149089 
L 496.782745 261.929335 
L 496.690752 242.514969 
L 474.096534 241.730961 
z
" style="fill:#64a9d3;stroke:#000000;"/>
    <path clip-path="url(#p60fb68e8cb)" d="M 474.096534 241.730961 
L 496.690752 242.514969 
L 496.488094 223.119658 
L 473.883988 222.328737 
z
" style="fill:#5fa6d1;stroke:#000000;"/>
    <path clip-path="url(#p60fb68e8cb)" d="M 497.456124 592.365516 
L 519.859744 593.173817 
L 519.692398 573.697678 
L 497.256954 572.903491 
z
" style="fill:#d0e2f2;stroke:#000000;"/>
    <path clip-path="url(#p60fb68e8cb)" d="M 497.256954 572.903491 
L 519.692398 573.697678 
L 519.598976 554.232902 
L 497.124717 553.445719 
z
" style="fill:#c1d9ed;stroke:#000000;"/>
    <path clip-path="url(#p60fb68e8cb)" d="M 497.124717 553.445719 
L 519.598976 554.232902 
L 519.53237 534.782859 
L 497.027156 533.998203 
z
" style="fill:#abd0e6;stroke:#000000;"/>
    <path clip-path="url(#p60fb68e8cb)" d="M 497.027156 533.998203 
L 519.53237 534.782859 
L 519.482576 515.343832 
L 496.953928 514.559742 
z
" style="fill:#9ac8e0;stroke:#000000;"/>
    <path clip-path="url(#p60fb68e8cb)" d="M 496.953928 514.559742 
L 519.482576 515.343832 
L 519.446852 495.912117 
L 496.901565 495.127166 
z
" style="fill:#89bedc;stroke:#000000;"/>
    <path clip-path="url(#p60fb68e8cb)" d="M 496.901565 495.127166 
L 519.446852 495.912117 
L 519.42331 476.484286 
L 496.867322 475.697774 
z
" style="fill:#7db8da;stroke:#000000;"/>
    <path clip-path="url(#p60fb68e8cb)" d="M 496.867322 475.697774 
L 519.42331 476.484286 
L 519.408906 457.057321 
L 496.846856 456.269513 
z
" style="fill:#75b4d8;stroke:#000000;"/>
    <path clip-path="url(#p60fb68e8cb)" d="M 496.846856 456.269513 
L 519.408906 457.057321 
L 519.401329 437.629638 
L 496.836338 436.840927 
z
" style="fill:#71b1d7;stroke:#000000;"/>
    <path clip-path="url(#p60fb68e8cb)" d="M 496.836338 436.840927 
L 519.401329 437.629638 
L 519.398822 418.200352 
L 496.832916 417.411151 
z
" style="fill:#6fb0d7;stroke:#000000;"/>
    <path clip-path="url(#p60fb68e8cb)" d="M 496.832916 417.411151 
L 519.398822 418.200352 
L 519.399794 398.768761 
L 496.834376 397.979635 
z
" style="fill:#6fb0d7;stroke:#000000;"/>
    <path clip-path="url(#p60fb68e8cb)" d="M 496.834376 397.979635 
L 519.399794 398.768761 
L 519.402719 379.334512 
L 496.838668 378.546044 
z
" style="fill:#6fb0d7;stroke:#000000;"/>
    <path clip-path="url(#p60fb68e8cb)" d="M 496.838668 378.546044 
L 519.402719 379.334512 
L 519.406256 359.897629 
L 496.843831 359.110264 
z
" style="fill:#6fb0d7;stroke:#000000;"/>
    <path clip-path="url(#p60fb68e8cb)" d="M 496.843831 359.110264 
L 519.406256 359.897629 
L 519.409227 340.458455 
L 496.84804 339.672521 
z
" style="fill:#71b1d7;stroke:#000000;"/>
    <path clip-path="url(#p60fb68e8cb)" d="M 496.84804 339.672521 
L 519.409227 340.458455 
L 519.410127 321.017734 
L 496.849071 320.233529 
z
" style="fill:#71b1d7;stroke:#000000;"/>
    <path clip-path="url(#p60fb68e8cb)" d="M 496.849071 320.233529 
L 519.410127 321.017734 
L 519.406537 301.576816 
L 496.843263 300.794635 
z
" style="fill:#71b1d7;stroke:#000000;"/>
    <path clip-path="url(#p60fb68e8cb)" d="M 496.843263 300.794635 
L 519.406537 301.576816 
L 519.394529 282.138416 
L 496.82481 281.358382 
z
" style="fill:#6dafd7;stroke:#000000;"/>
    <path clip-path="url(#p60fb68e8cb)" d="M 496.82481 281.358382 
L 519.394529 282.138416 
L 519.36728 262.707091 
L 496.782745 261.929335 
z
" style="fill:#66abd4;stroke:#000000;"/>
    <path clip-path="url(#p60fb68e8cb)" d="M 496.782745 261.929335 
L 519.36728 262.707091 
L 519.301617 243.293966 
L 496.690752 242.514969 
z
" style="fill:#5ba3d0;stroke:#000000;"/>
    <path clip-path="url(#p60fb68e8cb)" d="M 496.690752 242.514969 
L 519.301617 243.293966 
L 519.122508 223.910544 
L 496.488094 223.119658 
z
" style="fill:#4e9acb;stroke:#000000;"/>
    <path clip-path="url(#p60fb68e8cb)" d="M 519.859744 593.173817 
L 542.225026 594.001313 
L 542.11181 574.51123 
L 519.692398 573.697678 
z
" style="fill:#d9e7f5;stroke:#000000;"/>
    <path clip-path="url(#p60fb68e8cb)" d="M 519.692398 573.697678 
L 542.11181 574.51123 
L 542.065627 555.041912 
L 519.598976 554.232902 
z
" style="fill:#c7dbef;stroke:#000000;"/>
    <path clip-path="url(#p60fb68e8cb)" d="M 519.598976 554.232902 
L 542.065627 555.041912 
L 542.032254 535.589826 
L 519.53237 534.782859 
z
" style="fill:#afd1e7;stroke:#000000;"/>
    <path clip-path="url(#p60fb68e8cb)" d="M 519.53237 534.782859 
L 542.032254 535.589826 
L 542.007489 516.148585 
L 519.482576 515.343832 
z
" style="fill:#9cc9e1;stroke:#000000;"/>
    <path clip-path="url(#p60fb68e8cb)" d="M 519.482576 515.343832 
L 542.007489 516.148585 
L 541.989821 496.714485 
L 519.446852 495.912117 
z
" style="fill:#8abfdd;stroke:#000000;"/>
    <path clip-path="url(#p60fb68e8cb)" d="M 519.446852 495.912117 
L 541.989821 496.714485 
L 541.97797 477.284659 
L 519.42331 476.484286 
z
" style="fill:#7fb9da;stroke:#000000;"/>
    <path clip-path="url(#p60fb68e8cb)" d="M 519.42331 476.484286 
L 541.97797 477.284659 
L 541.970351 457.856784 
L 519.408906 457.057321 
z
" style="fill:#75b4d8;stroke:#000000;"/>
    <path clip-path="url(#p60fb68e8cb)" d="M 519.408906 457.057321 
L 541.970351 457.856784 
L 541.966191 438.428963 
L 519.401329 437.629638 
z
" style="fill:#72b2d8;stroke:#000000;"/>
    <path clip-path="url(#p60fb68e8cb)" d="M 519.401329 437.629638 
L 541.966191 438.428963 
L 541.964714 418.999743 
L 519.398822 418.200352 
z
" style="fill:#6fb0d7;stroke:#000000;"/>
    <path clip-path="url(#p60fb68e8cb)" d="M 519.398822 418.200352 
L 541.964714 418.999743 
L 541.965069 399.568193 
L 519.399794 398.768761 
z
" style="fill:#6fb0d7;stroke:#000000;"/>
    <path clip-path="url(#p60fb68e8cb)" d="M 519.399794 398.768761 
L 541.965069 399.568193 
L 541.966439 380.133807 
L 519.402719 379.334512 
z
" style="fill:#6fb0d7;stroke:#000000;"/>
    <path clip-path="url(#p60fb68e8cb)" d="M 519.402719 379.334512 
L 541.966439 380.133807 
L 541.968174 360.69643 
L 519.406256 359.897629 
z
" style="fill:#71b1d7;stroke:#000000;"/>
    <path clip-path="url(#p60fb68e8cb)" d="M 519.406256 359.897629 
L 541.968174 360.69643 
L 541.969713 341.256227 
L 519.409227 340.458455 
z
" style="fill:#71b1d7;stroke:#000000;"/>
    <path clip-path="url(#p60fb68e8cb)" d="M 519.409227 340.458455 
L 541.969713 341.256227 
L 541.970314 321.81369 
L 519.410127 321.017734 
z
" style="fill:#71b1d7;stroke:#000000;"/>
    <path clip-path="url(#p60fb68e8cb)" d="M 519.410127 321.017734 
L 541.970314 321.81369 
L 541.968813 302.369861 
L 519.406537 301.576816 
z
" style="fill:#71b1d7;stroke:#000000;"/>
    <path clip-path="url(#p60fb68e8cb)" d="M 519.406537 301.576816 
L 541.968813 302.369861 
L 541.96355 282.926575 
L 519.394529 282.138416 
z
" style="fill:#6dafd7;stroke:#000000;"/>
    <path clip-path="url(#p60fb68e8cb)" d="M 519.394529 282.138416 
L 541.96355 282.926575 
L 541.950476 263.487162 
L 519.36728 262.707091 
z
" style="fill:#66abd4;stroke:#000000;"/>
    <path clip-path="url(#p60fb68e8cb)" d="M 519.36728 262.707091 
L 541.950476 263.487162 
L 541.922755 244.05932 
L 519.301617 243.293966 
z
" style="fill:#56a0ce;stroke:#000000;"/>
    <path clip-path="url(#p60fb68e8cb)" d="M 519.301617 243.293966 
L 541.922755 244.05932 
L 541.798207 224.675715 
L 519.122508 223.910544 
z
" style="fill:#3d8dc4;stroke:#000000;"/>
    <path clip-path="url(#p60fb68e8cb)" d="M 542.225026 594.001313 
L 564.531429 594.817112 
L 564.531429 575.315785 
L 542.11181 574.51123 
z
" style="fill:#e2edf8;stroke:#000000;"/>
    <path clip-path="url(#p60fb68e8cb)" d="M 542.11181 574.51123 
L 564.531429 575.315785 
L 564.531429 555.848841 
L 542.065627 555.041912 
z
" style="fill:#c6dbef;stroke:#000000;"/>
    <path clip-path="url(#p60fb68e8cb)" d="M 542.065627 555.041912 
L 564.531429 555.848841 
L 564.531429 536.397817 
L 542.032254 535.589826 
z
" style="fill:#aed1e7;stroke:#000000;"/>
    <path clip-path="url(#p60fb68e8cb)" d="M 542.032254 535.589826 
L 564.531429 536.397817 
L 564.531429 516.957212 
L 542.007489 516.148585 
z
" style="fill:#9cc9e1;stroke:#000000;"/>
    <path clip-path="url(#p60fb68e8cb)" d="M 542.007489 516.148585 
L 564.531429 516.957212 
L 564.531429 497.523234 
L 541.989821 496.714485 
z
" style="fill:#8abfdd;stroke:#000000;"/>
    <path clip-path="url(#p60fb68e8cb)" d="M 541.989821 496.714485 
L 564.531429 497.523234 
L 564.531429 478.09229 
L 541.97797 477.284659 
z
" style="fill:#7fb9da;stroke:#000000;"/>
    <path clip-path="url(#p60fb68e8cb)" d="M 541.97797 477.284659 
L 564.531429 478.09229 
L 564.531429 458.662545 
L 541.970351 457.856784 
z
" style="fill:#77b5d9;stroke:#000000;"/>
    <path clip-path="url(#p60fb68e8cb)" d="M 541.970351 457.856784 
L 564.531429 458.662545 
L 564.531429 439.23288 
L 541.966191 438.428963 
z
" style="fill:#71b1d7;stroke:#000000;"/>
    <path clip-path="url(#p60fb68e8cb)" d="M 541.966191 438.428963 
L 564.531429 439.23288 
L 564.531429 419.801991 
L 541.964714 418.999743 
z
" style="fill:#6fb0d7;stroke:#000000;"/>
    <path clip-path="url(#p60fb68e8cb)" d="M 541.964714 418.999743 
L 564.531429 419.801991 
L 564.531429 400.368866 
L 541.965069 399.568193 
z
" style="fill:#6dafd7;stroke:#000000;"/>
    <path clip-path="url(#p60fb68e8cb)" d="M 541.965069 399.568193 
L 564.531429 400.368866 
L 564.531429 380.933068 
L 541.966439 380.133807 
z
" style="fill:#6dafd7;stroke:#000000;"/>
    <path clip-path="url(#p60fb68e8cb)" d="M 541.966439 380.133807 
L 564.531429 380.933068 
L 564.531429 361.494554 
L 541.968174 360.69643 
z
" style="fill:#6fb0d7;stroke:#000000;"/>
    <path clip-path="url(#p60fb68e8cb)" d="M 541.968174 360.69643 
L 564.531429 361.494554 
L 564.531429 342.053626 
L 541.969713 341.256227 
z
" style="fill:#6fb0d7;stroke:#000000;"/>
    <path clip-path="url(#p60fb68e8cb)" d="M 541.969713 341.256227 
L 564.531429 342.053626 
L 564.531429 322.610953 
L 541.970314 321.81369 
z
" style="fill:#71b1d7;stroke:#000000;"/>
    <path clip-path="url(#p60fb68e8cb)" d="M 541.970314 321.81369 
L 564.531429 322.610953 
L 564.531429 303.167774 
L 541.968813 302.369861 
z
" style="fill:#6fb0d7;stroke:#000000;"/>
    <path clip-path="url(#p60fb68e8cb)" d="M 541.968813 302.369861 
L 564.531429 303.167774 
L 564.531429 283.726062 
L 541.96355 282.926575 
z
" style="fill:#6dafd7;stroke:#000000;"/>
    <path clip-path="url(#p60fb68e8cb)" d="M 541.96355 282.926575 
L 564.531429 283.726062 
L 564.531429 264.288748 
L 541.950476 263.487162 
z
" style="fill:#66abd4;stroke:#000000;"/>
    <path clip-path="url(#p60fb68e8cb)" d="M 541.950476 263.487162 
L 564.531429 264.288748 
L 564.531429 244.858729 
L 541.922755 244.05932 
z
" style="fill:#5aa2cf;stroke:#000000;"/>
    <path clip-path="url(#p60fb68e8cb)" d="M 541.922755 244.05932 
L 564.531429 244.858729 
L 564.531429 225.461968 
L 541.798207 224.675715 
z
" style="fill:#2d7dbb;stroke:#000000;"/>
   </g>
   <g id="matplotlib.axis_1"/>
   <g id="matplotlib.axis_2"/>
  </g>
  <g id="axes_2">
   <g id="patch_3">
    <path clip-path="url(#pf82f8fe962)" d="M 631.26 525.6 
L 631.26 441.9 
L 631.26 274.5 
L 631.26 190.8 
L 648 190.8 
L 648 274.5 
L 648 441.9 
L 648 525.6 
z
" style="fill:#ffffff;stroke:#ffffff;stroke-linejoin:miter;stroke-width:0.01;"/>
   </g>
   <g id="QuadMesh_1">
    <path clip-path="url(#pf82f8fe962)" d="M 631.26 525.6 
L 648 525.6 
L 648 441.9 
L 631.26 441.9 
L 631.26 525.6 
" style="fill:#deebf7;"/>
    <path clip-path="url(#pf82f8fe962)" d="M 631.26 441.9 
L 648 441.9 
L 648 358.2 
L 631.26 358.2 
L 631.26 441.9 
" style="fill:#9dcae1;"/>
    <path clip-path="url(#pf82f8fe962)" d="M 631.26 358.2 
L 648 358.2 
L 648 274.5 
L 631.26 274.5 
L 631.26 358.2 
" style="fill:#4191c6;"/>
    <path clip-path="url(#pf82f8fe962)" d="M 631.26 274.5 
L 648 274.5 
L 648 190.8 
L 631.26 190.8 
L 631.26 274.5 
" style="fill:#08509b;"/>
   </g>
   <g id="matplotlib.axis_3"/>
   <g id="matplotlib.axis_4">
    <g id="ytick_1">
     <g id="line2d_1">
      <defs>
       <path d="M 0 0 
L 3.5 0 
" id="m7cc6558b4b" style="stroke:#000000;stroke-width:0.8;"/>
      </defs>
      <g>
       <use style="stroke:#000000;stroke-width:0.8;" x="648" xlink:href="#m7cc6558b4b" y="525.6"/>
      </g>
     </g>
     <g id="text_1">
      <!-- 16 -->
      <g transform="translate(655 535.098047)scale(0.25 -0.25)">
       <defs>
        <path d="M 12.40625 8.296875 
L 28.515625 8.296875 
L 28.515625 63.921875 
L 10.984375 60.40625 
L 10.984375 69.390625 
L 28.421875 72.90625 
L 38.28125 72.90625 
L 38.28125 8.296875 
L 54.390625 8.296875 
L 54.390625 0 
L 12.40625 0 
z
" id="DejaVuSans-49"/>
        <path d="M 33.015625 40.375 
Q 26.375 40.375 22.484375 35.828125 
Q 18.609375 31.296875 18.609375 23.390625 
Q 18.609375 15.53125 22.484375 10.953125 
Q 26.375 6.390625 33.015625 6.390625 
Q 39.65625 6.390625 43.53125 10.953125 
Q 47.40625 15.53125 47.40625 23.390625 
Q 47.40625 31.296875 43.53125 35.828125 
Q 39.65625 40.375 33.015625 40.375 
z
M 52.59375 71.296875 
L 52.59375 62.3125 
Q 48.875 64.0625 45.09375 64.984375 
Q 41.3125 65.921875 37.59375 65.921875 
Q 27.828125 65.921875 22.671875 59.328125 
Q 17.53125 52.734375 16.796875 39.40625 
Q 19.671875 43.65625 24.015625 45.921875 
Q 28.375 48.1875 33.59375 48.1875 
Q 44.578125 48.1875 50.953125 41.515625 
Q 57.328125 34.859375 57.328125 23.390625 
Q 57.328125 12.15625 50.6875 5.359375 
Q 44.046875 -1.421875 33.015625 -1.421875 
Q 20.359375 -1.421875 13.671875 8.265625 
Q 6.984375 17.96875 6.984375 36.375 
Q 6.984375 53.65625 15.1875 63.9375 
Q 23.390625 74.21875 37.203125 74.21875 
Q 40.921875 74.21875 44.703125 73.484375 
Q 48.484375 72.75 52.59375 71.296875 
z
" id="DejaVuSans-54"/>
       </defs>
       <use xlink:href="#DejaVuSans-49"/>
       <use x="63.623047" xlink:href="#DejaVuSans-54"/>
      </g>
     </g>
    </g>
    <g id="ytick_2">
     <g id="line2d_2">
      <g>
       <use style="stroke:#000000;stroke-width:0.8;" x="648" xlink:href="#m7cc6558b4b" y="441.9"/>
      </g>
     </g>
     <g id="text_2">
      <!-- 19 -->
      <g transform="translate(655 451.398047)scale(0.25 -0.25)">
       <defs>
        <path d="M 10.984375 1.515625 
L 10.984375 10.5 
Q 14.703125 8.734375 18.5 7.8125 
Q 22.3125 6.890625 25.984375 6.890625 
Q 35.75 6.890625 40.890625 13.453125 
Q 46.046875 20.015625 46.78125 33.40625 
Q 43.953125 29.203125 39.59375 26.953125 
Q 35.25 24.703125 29.984375 24.703125 
Q 19.046875 24.703125 12.671875 31.3125 
Q 6.296875 37.9375 6.296875 49.421875 
Q 6.296875 60.640625 12.9375 67.421875 
Q 19.578125 74.21875 30.609375 74.21875 
Q 43.265625 74.21875 49.921875 64.515625 
Q 56.59375 54.828125 56.59375 36.375 
Q 56.59375 19.140625 48.40625 8.859375 
Q 40.234375 -1.421875 26.421875 -1.421875 
Q 22.703125 -1.421875 18.890625 -0.6875 
Q 15.09375 0.046875 10.984375 1.515625 
z
M 30.609375 32.421875 
Q 37.25 32.421875 41.125 36.953125 
Q 45.015625 41.5 45.015625 49.421875 
Q 45.015625 57.28125 41.125 61.84375 
Q 37.25 66.40625 30.609375 66.40625 
Q 23.96875 66.40625 20.09375 61.84375 
Q 16.21875 57.28125 16.21875 49.421875 
Q 16.21875 41.5 20.09375 36.953125 
Q 23.96875 32.421875 30.609375 32.421875 
z
" id="DejaVuSans-57"/>
       </defs>
       <use xlink:href="#DejaVuSans-49"/>
       <use x="63.623047" xlink:href="#DejaVuSans-57"/>
      </g>
     </g>
    </g>
    <g id="ytick_3">
     <g id="line2d_3">
      <g>
       <use style="stroke:#000000;stroke-width:0.8;" x="648" xlink:href="#m7cc6558b4b" y="358.2"/>
      </g>
     </g>
     <g id="text_3">
      <!-- 22 -->
      <g transform="translate(655 367.698047)scale(0.25 -0.25)">
       <defs>
        <path d="M 19.1875 8.296875 
L 53.609375 8.296875 
L 53.609375 0 
L 7.328125 0 
L 7.328125 8.296875 
Q 12.9375 14.109375 22.625 23.890625 
Q 32.328125 33.6875 34.8125 36.53125 
Q 39.546875 41.84375 41.421875 45.53125 
Q 43.3125 49.21875 43.3125 52.78125 
Q 43.3125 58.59375 39.234375 62.25 
Q 35.15625 65.921875 28.609375 65.921875 
Q 23.96875 65.921875 18.8125 64.3125 
Q 13.671875 62.703125 7.8125 59.421875 
L 7.8125 69.390625 
Q 13.765625 71.78125 18.9375 73 
Q 24.125 74.21875 28.421875 74.21875 
Q 39.75 74.21875 46.484375 68.546875 
Q 53.21875 62.890625 53.21875 53.421875 
Q 53.21875 48.921875 51.53125 44.890625 
Q 49.859375 40.875 45.40625 35.40625 
Q 44.1875 33.984375 37.640625 27.21875 
Q 31.109375 20.453125 19.1875 8.296875 
z
" id="DejaVuSans-50"/>
       </defs>
       <use xlink:href="#DejaVuSans-50"/>
       <use x="63.623047" xlink:href="#DejaVuSans-50"/>
      </g>
     </g>
    </g>
    <g id="ytick_4">
     <g id="line2d_4">
      <g>
       <use style="stroke:#000000;stroke-width:0.8;" x="648" xlink:href="#m7cc6558b4b" y="274.5"/>
      </g>
     </g>
     <g id="text_4">
      <!-- 25 -->
      <g transform="translate(655 283.998047)scale(0.25 -0.25)">
       <defs>
        <path d="M 10.796875 72.90625 
L 49.515625 72.90625 
L 49.515625 64.59375 
L 19.828125 64.59375 
L 19.828125 46.734375 
Q 21.96875 47.46875 24.109375 47.828125 
Q 26.265625 48.1875 28.421875 48.1875 
Q 40.625 48.1875 47.75 41.5 
Q 54.890625 34.8125 54.890625 23.390625 
Q 54.890625 11.625 47.5625 5.09375 
Q 40.234375 -1.421875 26.90625 -1.421875 
Q 22.3125 -1.421875 17.546875 -0.640625 
Q 12.796875 0.140625 7.71875 1.703125 
L 7.71875 11.625 
Q 12.109375 9.234375 16.796875 8.0625 
Q 21.484375 6.890625 26.703125 6.890625 
Q 35.15625 6.890625 40.078125 11.328125 
Q 45.015625 15.765625 45.015625 23.390625 
Q 45.015625 31 40.078125 35.4375 
Q 35.15625 39.890625 26.703125 39.890625 
Q 22.75 39.890625 18.8125 39.015625 
Q 14.890625 38.140625 10.796875 36.28125 
z
" id="DejaVuSans-53"/>
       </defs>
       <use xlink:href="#DejaVuSans-50"/>
       <use x="63.623047" xlink:href="#DejaVuSans-53"/>
      </g>
     </g>
    </g>
    <g id="ytick_5">
     <g id="line2d_5">
      <g>
       <use style="stroke:#000000;stroke-width:0.8;" x="648" xlink:href="#m7cc6558b4b" y="190.8"/>
      </g>
     </g>
     <g id="text_5">
      <!-- 28 -->
      <g transform="translate(655 200.298047)scale(0.25 -0.25)">
       <defs>
        <path d="M 31.78125 34.625 
Q 24.75 34.625 20.71875 30.859375 
Q 16.703125 27.09375 16.703125 20.515625 
Q 16.703125 13.921875 20.71875 10.15625 
Q 24.75 6.390625 31.78125 6.390625 
Q 38.8125 6.390625 42.859375 10.171875 
Q 46.921875 13.96875 46.921875 20.515625 
Q 46.921875 27.09375 42.890625 30.859375 
Q 38.875 34.625 31.78125 34.625 
z
M 21.921875 38.8125 
Q 15.578125 40.375 12.03125 44.71875 
Q 8.5 49.078125 8.5 55.328125 
Q 8.5 64.0625 14.71875 69.140625 
Q 20.953125 74.21875 31.78125 74.21875 
Q 42.671875 74.21875 48.875 69.140625 
Q 55.078125 64.0625 55.078125 55.328125 
Q 55.078125 49.078125 51.53125 44.71875 
Q 48 40.375 41.703125 38.8125 
Q 48.828125 37.15625 52.796875 32.3125 
Q 56.78125 27.484375 56.78125 20.515625 
Q 56.78125 9.90625 50.3125 4.234375 
Q 43.84375 -1.421875 31.78125 -1.421875 
Q 19.734375 -1.421875 13.25 4.234375 
Q 6.78125 9.90625 6.78125 20.515625 
Q 6.78125 27.484375 10.78125 32.3125 
Q 14.796875 37.15625 21.921875 38.8125 
z
M 18.3125 54.390625 
Q 18.3125 48.734375 21.84375 45.5625 
Q 25.390625 42.390625 31.78125 42.390625 
Q 38.140625 42.390625 41.71875 45.5625 
Q 45.3125 48.734375 45.3125 54.390625 
Q 45.3125 60.0625 41.71875 63.234375 
Q 38.140625 66.40625 31.78125 66.40625 
Q 25.390625 66.40625 21.84375 63.234375 
Q 18.3125 60.0625 18.3125 54.390625 
z
" id="DejaVuSans-56"/>
       </defs>
       <use xlink:href="#DejaVuSans-50"/>
       <use x="63.623047" xlink:href="#DejaVuSans-56"/>
      </g>
     </g>
    </g>
    <g id="text_6">
     <!-- $\sigma_1$ [kPa] -->
     <g transform="translate(709.808594 408.2)rotate(-90)scale(0.25 -0.25)">
      <defs>
       <path d="M 34.671875 47.5625 
Q 27.25 47.5625 22.21875 42.1875 
Q 16.890625 36.578125 15.140625 27.296875 
Q 13.1875 17.484375 16.3125 11.8125 
Q 19.390625 6.203125 26.65625 6.203125 
Q 33.84375 6.203125 39.109375 11.859375 
Q 44.4375 17.53125 46.34375 27.296875 
Q 48.046875 36.234375 45.015625 42.1875 
Q 42.1875 47.5625 34.671875 47.5625 
z
M 36.078125 54.734375 
L 65.921875 54.6875 
L 64.15625 45.703125 
L 54.109375 45.703125 
Q 57.90625 38.09375 55.859375 27.296875 
Q 53.21875 13.875 45.0625 6.25 
Q 36.859375 -1.421875 25.140625 -1.421875 
Q 13.375 -1.421875 8.203125 6.25 
Q 3.03125 13.875 5.671875 27.296875 
Q 8.25 40.765625 16.40625 48.390625 
Q 23.1875 54.734375 36.078125 54.734375 
z
" id="DejaVuSans-Oblique-963"/>
       <path id="DejaVuSans-32"/>
       <path d="M 8.59375 75.984375 
L 29.296875 75.984375 
L 29.296875 69 
L 17.578125 69 
L 17.578125 -6.203125 
L 29.296875 -6.203125 
L 29.296875 -13.1875 
L 8.59375 -13.1875 
z
" id="DejaVuSans-91"/>
       <path d="M 9.078125 75.984375 
L 18.109375 75.984375 
L 18.109375 31.109375 
L 44.921875 54.6875 
L 56.390625 54.6875 
L 27.390625 29.109375 
L 57.625 0 
L 45.90625 0 
L 18.109375 26.703125 
L 18.109375 0 
L 9.078125 0 
z
" id="DejaVuSans-107"/>
       <path d="M 19.671875 64.796875 
L 19.671875 37.40625 
L 32.078125 37.40625 
Q 38.96875 37.40625 42.71875 40.96875 
Q 46.484375 44.53125 46.484375 51.125 
Q 46.484375 57.671875 42.71875 61.234375 
Q 38.96875 64.796875 32.078125 64.796875 
z
M 9.8125 72.90625 
L 32.078125 72.90625 
Q 44.34375 72.90625 50.609375 67.359375 
Q 56.890625 61.8125 56.890625 51.125 
Q 56.890625 40.328125 50.609375 34.8125 
Q 44.34375 29.296875 32.078125 29.296875 
L 19.671875 29.296875 
L 19.671875 0 
L 9.8125 0 
z
" id="DejaVuSans-80"/>
       <path d="M 34.28125 27.484375 
Q 23.390625 27.484375 19.1875 25 
Q 14.984375 22.515625 14.984375 16.5 
Q 14.984375 11.71875 18.140625 8.90625 
Q 21.296875 6.109375 26.703125 6.109375 
Q 34.1875 6.109375 38.703125 11.40625 
Q 43.21875 16.703125 43.21875 25.484375 
L 43.21875 27.484375 
z
M 52.203125 31.203125 
L 52.203125 0 
L 43.21875 0 
L 43.21875 8.296875 
Q 40.140625 3.328125 35.546875 0.953125 
Q 30.953125 -1.421875 24.3125 -1.421875 
Q 15.921875 -1.421875 10.953125 3.296875 
Q 6 8.015625 6 15.921875 
Q 6 25.140625 12.171875 29.828125 
Q 18.359375 34.515625 30.609375 34.515625 
L 43.21875 34.515625 
L 43.21875 35.40625 
Q 43.21875 41.609375 39.140625 45 
Q 35.0625 48.390625 27.6875 48.390625 
Q 23 48.390625 18.546875 47.265625 
Q 14.109375 46.140625 10.015625 43.890625 
L 10.015625 52.203125 
Q 14.9375 54.109375 19.578125 55.046875 
Q 24.21875 56 28.609375 56 
Q 40.484375 56 46.34375 49.84375 
Q 52.203125 43.703125 52.203125 31.203125 
z
" id="DejaVuSans-97"/>
       <path d="M 30.421875 75.984375 
L 30.421875 -13.1875 
L 9.71875 -13.1875 
L 9.71875 -6.203125 
L 21.390625 -6.203125 
L 21.390625 69 
L 9.71875 69 
L 9.71875 75.984375 
z
" id="DejaVuSans-93"/>
      </defs>
      <use transform="translate(0 0.015625)" xlink:href="#DejaVuSans-Oblique-963"/>
      <use transform="translate(63.378906 -16.390625)scale(0.7)" xlink:href="#DejaVuSans-49"/>
      <use transform="translate(110.649414 0.015625)" xlink:href="#DejaVuSans-32"/>
      <use transform="translate(142.436523 0.015625)" xlink:href="#DejaVuSans-91"/>
      <use transform="translate(181.450195 0.015625)" xlink:href="#DejaVuSans-107"/>
      <use transform="translate(239.360352 0.015625)" xlink:href="#DejaVuSans-80"/>
      <use transform="translate(299.663086 0.015625)" xlink:href="#DejaVuSans-97"/>
      <use transform="translate(360.942383 0.015625)" xlink:href="#DejaVuSans-93"/>
     </g>
    </g>
   </g>
   <g id="patch_4">
    <path d="M 631.26 525.6 
L 631.26 441.9 
L 631.26 274.5 
L 631.26 190.8 
L 648 190.8 
L 648 274.5 
L 648 441.9 
L 648 525.6 
z
" style="fill:none;stroke:#000000;stroke-linejoin:miter;stroke-width:0.8;"/>
   </g>
  </g>
 </g>
 <defs>
  <clipPath id="p60fb68e8cb">
   <rect height="543.6" width="504.771429" x="98.588571" y="86.4"/>
  </clipPath>
  <clipPath id="pf82f8fe962">
   <rect height="334.8" width="16.74" x="631.26" y="190.8"/>
  </clipPath>
 </defs>
</svg>
