<?xml version="1.0" encoding="UTF-8" standalone="no"?>
<!DOCTYPE svg PUBLIC "-//W3C//DTD SVG 1.1//EN" "http://www.w3.org/Graphics/SVG/1.1/DTD/svg11.dtd">
<svg width="100%" height="100%" viewBox="0 0 720 720" version="1.1" xmlns="http://www.w3.org/2000/svg" xmlns:xlink="http://www.w3.org/1999/xlink" xml:space="preserve" xmlns:serif="http://www.serif.com/" style="fill-rule:evenodd;clip-rule:evenodd;stroke-linejoin:round;stroke-miterlimit:2;">
    <g id="figure_1">
        <g id="axes_1">
            <g id="PatchCollection_1">
                <path d="M137.417,591.171L161.107,587.023L159.697,567.593L137.417,570.735L137.417,591.171Z" style="fill:rgb(8,48,107);fill-rule:nonzero;"/>
                <path d="M137.417,570.735L159.697,567.593L159.67,547.344L137.417,550.299L137.417,570.735Z" style="fill:rgb(69,148,199);fill-rule:nonzero;"/>
                <path d="M137.417,550.299L159.67,547.344L159.609,527.028L137.417,529.863L137.417,550.299Z" style="fill:rgb(86,160,206);fill-rule:nonzero;"/>
                <path d="M137.417,529.863L159.609,527.028L159.597,506.685L137.417,509.427L137.417,529.863Z" style="fill:rgb(97,167,210);fill-rule:nonzero;"/>
                <path d="M137.417,509.427L159.597,506.685L159.599,486.334L137.417,488.991L137.417,509.427Z" style="fill:rgb(102,171,212);fill-rule:nonzero;"/>
                <path d="M137.417,488.991L159.599,486.334L159.612,465.985L137.417,468.555L137.417,488.991Z" style="fill:rgb(106,174,214);fill-rule:nonzero;"/>
                <path d="M137.417,468.555L159.612,465.985L159.63,445.643L137.417,448.119L137.417,468.555Z" style="fill:rgb(109,175,215);fill-rule:nonzero;"/>
                <path d="M137.417,448.119L159.63,445.643L159.651,425.314L137.417,427.683L137.417,448.119Z" style="fill:rgb(113,177,215);fill-rule:nonzero;"/>
                <path d="M137.417,427.683L159.651,425.314L159.674,405.001L137.417,407.247L137.417,427.683Z" style="fill:rgb(117,180,216);fill-rule:nonzero;"/>
                <path d="M137.417,407.247L159.674,405.001L159.695,384.711L137.417,386.811L137.417,407.247Z" style="fill:rgb(122,182,217);fill-rule:nonzero;"/>
                <path d="M137.417,386.811L159.695,384.711L159.712,364.45L137.417,366.374L137.417,386.811Z" style="fill:rgb(129,186,219);fill-rule:nonzero;"/>
                <path d="M137.417,366.374L159.712,364.45L159.718,344.221L137.417,345.938L137.417,366.374Z" style="fill:rgb(138,191,221);fill-rule:nonzero;"/>
                <path d="M137.417,345.938L159.718,344.221L159.706,324.031L137.417,325.502L137.417,345.938Z" style="fill:rgb(153,199,224);fill-rule:nonzero;"/>
                <path d="M137.417,325.502L159.706,324.031L159.668,303.881L137.417,305.066L137.417,325.502Z" style="fill:rgb(166,206,228);fill-rule:nonzero;"/>
                <path d="M137.417,305.066L159.668,303.881L159.594,283.774L137.417,284.63L137.417,305.066Z" style="fill:rgb(183,212,234);fill-rule:nonzero;"/>
                <path d="M137.417,284.63L159.594,283.774L159.472,263.711L137.417,264.194L137.417,284.63Z" style="fill:rgb(200,220,240);fill-rule:nonzero;"/>
                <path d="M137.417,264.194L159.472,263.711L159.28,243.695L137.417,243.758L137.417,264.194Z" style="fill:rgb(213,229,244);fill-rule:nonzero;"/>
                <path d="M137.417,243.758L159.28,243.695L158.946,223.733L137.417,223.322L137.417,243.758Z" style="fill:rgb(226,237,248);fill-rule:nonzero;"/>
                <path d="M137.417,223.322L158.946,223.733L158.329,203.805L137.417,202.886L137.417,223.322Z" style="fill:rgb(238,245,252);fill-rule:nonzero;"/>
                <path d="M161.107,587.023L184.801,583.545L182.587,564.372L159.697,567.593L161.107,587.023Z" style="fill:rgb(8,66,133);fill-rule:nonzero;"/>
                <path d="M159.697,567.593L182.587,564.372L182.028,544.466L159.67,547.344L159.697,567.593Z" style="fill:rgb(36,116,183);fill-rule:nonzero;"/>
                <path d="M159.67,547.344L182.028,544.466L181.915,524.281L159.609,527.028L159.67,547.344Z" style="fill:rgb(83,158,205);fill-rule:nonzero;"/>
                <path d="M159.609,527.028L181.915,524.281L181.867,504.05L159.597,506.685L159.609,527.028Z" style="fill:rgb(95,166,209);fill-rule:nonzero;"/>
                <path d="M159.597,506.685L181.867,504.05L181.869,483.799L159.599,486.334L159.597,506.685Z" style="fill:rgb(101,170,212);fill-rule:nonzero;"/>
                <path d="M159.599,486.334L181.869,483.799L181.896,463.548L159.612,465.985L159.599,486.334Z" style="fill:rgb(105,173,213);fill-rule:nonzero;"/>
                <path d="M159.612,465.985L181.896,463.548L181.937,443.309L159.63,445.643L159.612,465.985Z" style="fill:rgb(108,174,214);fill-rule:nonzero;"/>
                <path d="M159.63,445.643L181.937,443.309L181.986,423.089L159.651,425.314L159.63,445.643Z" style="fill:rgb(111,176,215);fill-rule:nonzero;"/>
                <path d="M159.651,425.314L181.986,423.089L182.039,402.895L159.674,405.001L159.651,425.314Z" style="fill:rgb(114,178,216);fill-rule:nonzero;"/>
                <path d="M159.674,405.001L182.039,402.895L182.09,382.735L159.695,384.711L159.674,405.001Z" style="fill:rgb(117,180,216);fill-rule:nonzero;"/>
                <path d="M159.695,384.711L182.09,382.735L182.132,362.615L159.712,364.45L159.695,384.711Z" style="fill:rgb(124,183,218);fill-rule:nonzero;"/>
                <path d="M159.712,364.45L182.132,362.615L182.154,342.541L159.718,344.221L159.712,364.45Z" style="fill:rgb(130,187,219);fill-rule:nonzero;"/>
                <path d="M159.718,344.221L182.154,342.541L182.139,322.515L159.706,324.031L159.718,344.221Z" style="fill:rgb(141,193,221);fill-rule:nonzero;"/>
                <path d="M159.706,324.031L182.139,322.515L182.07,302.539L159.668,303.881L159.706,324.031Z" style="fill:rgb(156,201,225);fill-rule:nonzero;"/>
                <path d="M159.668,303.881L182.07,302.539L181.927,282.607L159.594,283.774L159.668,303.881Z" style="fill:rgb(171,208,230);fill-rule:nonzero;"/>
                <path d="M159.594,283.774L181.927,282.607L181.687,262.709L159.472,263.711L159.594,283.774Z" style="fill:rgb(189,215,236);fill-rule:nonzero;"/>
                <path d="M159.472,263.711L181.687,262.709L181.308,242.829L159.28,243.695L159.472,263.711Z" style="fill:rgb(205,224,241);fill-rule:nonzero;"/>
                <path d="M159.28,243.695L181.308,242.829L180.693,222.944L158.946,223.733L159.28,243.695Z" style="fill:rgb(218,232,246);fill-rule:nonzero;"/>
                <path d="M158.946,223.733L180.693,222.944L179.52,203.041L158.329,203.805L158.946,223.733Z" style="fill:rgb(234,242,251);fill-rule:nonzero;"/>
                <path d="M184.801,583.545L208.236,580.357L205.68,561.311L182.587,564.372L184.801,583.545Z" style="fill:rgb(32,111,180);fill-rule:nonzero;"/>
                <path d="M182.587,564.372L205.68,561.311L204.629,541.656L182.028,544.466L182.587,564.372Z" style="fill:rgb(42,122,185);fill-rule:nonzero;"/>
                <path d="M182.028,544.466L204.629,541.656L204.327,521.653L181.915,524.281L182.028,544.466Z" style="fill:rgb(74,152,201);fill-rule:nonzero;"/>
                <path d="M181.915,524.281L204.327,521.653L204.238,501.536L181.867,504.05L181.915,524.281Z" style="fill:rgb(92,164,208);fill-rule:nonzero;"/>
                <path d="M181.867,504.05L204.238,501.536L204.229,481.388L181.869,483.799L181.867,504.05Z" style="fill:rgb(100,169,211);fill-rule:nonzero;"/>
                <path d="M181.869,483.799L204.229,481.388L204.266,461.234L181.896,463.548L181.869,483.799Z" style="fill:rgb(104,172,213);fill-rule:nonzero;"/>
                <path d="M181.896,463.548L204.266,461.234L204.327,441.091L181.937,443.309L181.896,463.548Z" style="fill:rgb(106,174,214);fill-rule:nonzero;"/>
                <path d="M181.937,443.309L204.327,441.091L204.403,420.968L181.986,423.089L181.937,443.309Z" style="fill:rgb(108,174,214);fill-rule:nonzero;"/>
                <path d="M181.986,423.089L204.403,420.968L204.485,400.873L182.039,402.895L181.986,423.089Z" style="fill:rgb(111,176,215);fill-rule:nonzero;"/>
                <path d="M182.039,402.895L204.485,400.873L204.565,380.812L182.09,382.735L182.039,402.895Z" style="fill:rgb(113,177,215);fill-rule:nonzero;"/>
                <path d="M182.09,382.735L204.565,380.812L204.63,360.79L182.132,362.615L182.09,382.735Z" style="fill:rgb(117,180,216);fill-rule:nonzero;"/>
                <path d="M182.132,362.615L204.63,360.79L204.664,340.811L182.154,342.541L182.132,362.615Z" style="fill:rgb(122,182,217);fill-rule:nonzero;"/>
                <path d="M182.154,342.541L204.664,340.811L204.643,320.876L182.139,322.515L182.154,342.541Z" style="fill:rgb(132,188,219);fill-rule:nonzero;"/>
                <path d="M182.139,322.515L204.643,320.876L204.539,300.983L182.07,302.539L182.139,322.515Z" style="fill:rgb(146,196,222);fill-rule:nonzero;"/>
                <path d="M182.07,302.539L204.539,300.983L204.322,281.123L181.927,282.607L182.07,302.539Z" style="fill:rgb(163,204,227);fill-rule:nonzero;"/>
                <path d="M181.927,282.607L204.322,281.123L203.957,261.283L181.687,262.709L181.927,282.607Z" style="fill:rgb(180,211,233);fill-rule:nonzero;"/>
                <path d="M181.687,262.709L203.957,261.283L203.392,241.448L181.308,242.829L181.687,262.709Z" style="fill:rgb(200,220,240);fill-rule:nonzero;"/>
                <path d="M181.308,242.829L203.392,241.448L202.516,221.615L180.693,222.944L181.308,242.829Z" style="fill:rgb(214,229,244);fill-rule:nonzero;"/>
                <path d="M180.693,222.944L202.516,221.615L200.974,201.853L179.52,203.041L180.693,222.944Z" style="fill:rgb(229,239,249);fill-rule:nonzero;"/>
                <path d="M208.236,580.357L231.462,577.486L228.808,558.457L205.68,561.311L208.236,580.357Z" style="fill:rgb(64,144,197);fill-rule:nonzero;"/>
                <path d="M205.68,561.311L228.808,558.457L227.407,538.975L204.629,541.656L205.68,561.311Z" style="fill:rgb(57,137,193);fill-rule:nonzero;"/>
                <path d="M204.629,541.656L227.407,538.975L226.869,519.138L204.327,521.653L204.629,541.656Z" style="fill:rgb(73,151,201);fill-rule:nonzero;"/>
                <path d="M204.327,521.653L226.869,519.138L226.7,499.138L204.238,501.536L204.327,521.653Z" style="fill:rgb(90,162,207);fill-rule:nonzero;"/>
                <path d="M204.238,501.536L226.7,499.138L226.669,479.084L204.229,481.388L204.238,501.536Z" style="fill:rgb(97,167,210);fill-rule:nonzero;"/>
                <path d="M204.229,481.388L226.669,479.084L226.707,459.017L204.266,461.234L204.229,481.388Z" style="fill:rgb(101,170,212);fill-rule:nonzero;"/>
                <path d="M204.266,461.234L226.707,459.017L226.783,438.953L204.327,441.091L204.266,461.234Z" style="fill:rgb(104,172,213);fill-rule:nonzero;"/>
                <path d="M204.327,441.091L226.783,438.953L226.879,418.906L204.403,420.968L204.327,441.091Z" style="fill:rgb(105,173,213);fill-rule:nonzero;"/>
                <path d="M204.403,420.968L226.879,418.906L226.983,398.882L204.485,400.873L204.403,420.968Z" style="fill:rgb(106,174,214);fill-rule:nonzero;"/>
                <path d="M204.485,400.873L226.983,398.882L227.084,378.885L204.565,380.812L204.485,400.873Z" style="fill:rgb(109,175,215);fill-rule:nonzero;"/>
                <path d="M204.565,380.812L227.084,378.885L227.166,358.92L204.63,360.79L204.565,380.812Z" style="fill:rgb(111,176,215);fill-rule:nonzero;"/>
                <path d="M204.63,360.79L227.166,358.92L227.207,338.989L204.664,340.811L204.63,360.79Z" style="fill:rgb(117,180,216);fill-rule:nonzero;"/>
                <path d="M204.664,340.811L227.207,338.989L227.177,319.094L204.643,320.876L204.664,340.811Z" style="fill:rgb(125,184,218);fill-rule:nonzero;"/>
                <path d="M204.643,320.876L227.177,319.094L227.038,299.234L204.539,300.983L204.643,320.876Z" style="fill:rgb(137,190,220);fill-rule:nonzero;"/>
                <path d="M204.539,300.983L227.038,299.234L226.751,279.405L204.322,281.123L204.539,300.983Z" style="fill:rgb(154,200,224);fill-rule:nonzero;"/>
                <path d="M204.322,281.123L226.751,279.405L226.274,259.6L203.957,261.283L204.322,281.123Z" style="fill:rgb(173,208,230);fill-rule:nonzero;"/>
                <path d="M203.957,261.283L226.274,259.6L225.548,239.815L203.392,241.448L203.957,261.283Z" style="fill:rgb(194,217,238);fill-rule:nonzero;"/>
                <path d="M203.392,241.448L225.548,239.815L224.461,220.06L202.516,221.615L203.392,241.448Z" style="fill:rgb(209,226,243);fill-rule:nonzero;"/>
                <path d="M202.516,221.615L224.461,220.06L222.676,200.411L200.974,201.853L202.516,221.615Z" style="fill:rgb(223,236,247);fill-rule:nonzero;"/>
                <path d="M231.462,577.486L254.529,574.87L251.894,555.818L228.808,558.457L231.462,577.486Z" style="fill:rgb(93,165,209);fill-rule:nonzero;"/>
                <path d="M228.808,558.457L251.894,555.818L250.28,536.433L227.407,538.975L228.808,558.457Z" style="fill:rgb(75,152,202);fill-rule:nonzero;"/>
                <path d="M227.407,538.975L250.28,536.433L249.523,516.728L226.869,519.138L227.407,538.975Z" style="fill:rgb(78,154,203);fill-rule:nonzero;"/>
                <path d="M226.869,519.138L249.523,516.728L249.243,496.835L226.7,499.138L226.869,519.138Z" style="fill:rgb(88,161,207);fill-rule:nonzero;"/>
                <path d="M226.7,499.138L249.243,496.835L249.174,476.863L226.669,479.084L226.7,499.138Z" style="fill:rgb(96,167,210);fill-rule:nonzero;"/>
                <path d="M226.669,479.084L249.174,476.863L249.202,456.864L226.707,459.017L226.669,479.084Z" style="fill:rgb(100,169,211);fill-rule:nonzero;"/>
                <path d="M226.707,459.017L249.202,456.864L249.283,436.861L226.783,438.953L226.707,459.017Z" style="fill:rgb(102,171,212);fill-rule:nonzero;"/>
                <path d="M226.783,438.953L249.283,436.861L249.391,416.866L226.879,418.906L226.783,438.953Z" style="fill:rgb(104,172,213);fill-rule:nonzero;"/>
                <path d="M226.879,418.906L249.391,416.866L249.509,396.886L226.983,398.882L226.879,418.906Z" style="fill:rgb(105,173,213);fill-rule:nonzero;"/>
                <path d="M226.983,398.882L249.509,396.886L249.623,376.925L227.084,378.885L226.983,398.882Z" style="fill:rgb(105,173,213);fill-rule:nonzero;"/>
                <path d="M227.084,378.885L249.623,376.925L249.716,356.988L227.166,358.92L227.084,378.885Z" style="fill:rgb(108,174,214);fill-rule:nonzero;"/>
                <path d="M227.166,358.92L249.716,356.988L249.761,337.076L227.207,338.989L227.166,358.92Z" style="fill:rgb(111,176,215);fill-rule:nonzero;"/>
                <path d="M227.207,338.989L249.761,337.076L249.723,317.195L227.177,319.094L227.207,338.989Z" style="fill:rgb(119,181,217);fill-rule:nonzero;"/>
                <path d="M227.177,319.094L249.723,317.195L249.559,297.349L227.038,299.234L227.177,319.094Z" style="fill:rgb(130,187,219);fill-rule:nonzero;"/>
                <path d="M227.038,299.234L249.559,297.349L249.218,277.54L226.751,279.405L227.038,299.234Z" style="fill:rgb(146,196,222);fill-rule:nonzero;"/>
                <path d="M226.751,279.405L249.218,277.54L248.65,257.77L226.274,259.6L226.751,279.405Z" style="fill:rgb(166,206,228);fill-rule:nonzero;"/>
                <path d="M226.274,259.6L248.65,257.77L247.793,238.039L225.548,239.815L226.274,259.6Z" style="fill:rgb(186,214,235);fill-rule:nonzero;"/>
                <path d="M225.548,239.815L247.793,238.039L246.532,218.361L224.461,220.06L225.548,239.815Z" style="fill:rgb(205,223,241);fill-rule:nonzero;"/>
                <path d="M224.461,220.06L246.532,218.361L244.577,198.807L222.676,200.411L224.461,220.06Z" style="fill:rgb(217,232,245);fill-rule:nonzero;"/>
                <path d="M254.529,574.87L277.477,572.456L274.902,553.364L251.894,555.818L254.529,574.87Z" style="fill:rgb(117,180,216);fill-rule:nonzero;"/>
                <path d="M251.894,555.818L274.902,553.364L273.177,534.021L250.28,536.433L251.894,555.818Z" style="fill:rgb(96,167,210);fill-rule:nonzero;"/>
                <path d="M250.28,536.433L273.177,534.021L272.249,514.406L249.523,516.728L250.28,536.433Z" style="fill:rgb(88,161,207);fill-rule:nonzero;"/>
                <path d="M249.523,516.728L272.249,514.406L271.851,494.599L249.243,496.835L249.523,516.728Z" style="fill:rgb(91,163,208);fill-rule:nonzero;"/>
                <path d="M249.243,496.835L271.851,494.599L271.727,474.694L249.174,476.863L249.243,496.835Z" style="fill:rgb(96,167,210);fill-rule:nonzero;"/>
                <path d="M249.174,476.863L271.727,474.694L271.735,454.746L249.202,456.864L249.174,476.863Z" style="fill:rgb(100,169,211);fill-rule:nonzero;"/>
                <path d="M249.202,456.864L271.735,454.746L271.811,434.785L249.283,436.861L249.202,456.864Z" style="fill:rgb(101,170,212);fill-rule:nonzero;"/>
                <path d="M249.283,436.861L271.811,434.785L271.922,414.824L249.391,416.866L249.283,436.861Z" style="fill:rgb(102,171,212);fill-rule:nonzero;"/>
                <path d="M249.391,416.866L271.922,414.824L272.047,394.869L249.509,396.886L249.391,416.866Z" style="fill:rgb(102,171,212);fill-rule:nonzero;"/>
                <path d="M249.509,396.886L272.047,394.869L272.169,374.926L249.623,376.925L249.509,396.886Z" style="fill:rgb(104,172,213);fill-rule:nonzero;"/>
                <path d="M249.623,376.925L272.169,374.926L272.268,354.999L249.716,356.988L249.623,376.925Z" style="fill:rgb(105,173,213);fill-rule:nonzero;"/>
                <path d="M249.716,356.988L272.268,354.999L272.318,335.093L249.761,337.076L249.716,356.988Z" style="fill:rgb(108,174,214);fill-rule:nonzero;"/>
                <path d="M249.761,337.076L272.318,335.093L272.28,315.216L249.723,317.195L249.761,337.076Z" style="fill:rgb(114,178,216);fill-rule:nonzero;"/>
                <path d="M249.723,317.195L272.28,315.216L272.103,295.377L249.559,297.349L249.723,317.195Z" style="fill:rgb(124,183,218);fill-rule:nonzero;"/>
                <path d="M249.559,297.349L272.103,295.377L271.728,275.585L249.218,277.54L249.559,297.349Z" style="fill:rgb(138,191,221);fill-rule:nonzero;"/>
                <path d="M249.218,277.54L271.728,275.585L271.093,255.847L248.65,257.77L249.218,277.54Z" style="fill:rgb(159,202,225);fill-rule:nonzero;"/>
                <path d="M248.65,257.77L271.093,255.847L270.129,236.167L247.793,238.039L248.65,257.77Z" style="fill:rgb(179,211,232);fill-rule:nonzero;"/>
                <path d="M247.793,238.039L270.129,236.167L268.725,216.56L246.532,218.361L247.793,238.039Z" style="fill:rgb(200,220,240);fill-rule:nonzero;"/>
                <path d="M246.532,218.361L268.725,216.56L266.645,197.086L244.577,198.807L246.532,218.361Z" style="fill:rgb(211,228,243);fill-rule:nonzero;"/>
                <path d="M277.477,572.456L300.325,570.193L297.818,551.055L274.902,553.364L277.477,572.456Z" style="fill:rgb(138,191,221);fill-rule:nonzero;"/>
                <path d="M274.902,553.364L297.818,551.055L296.052,531.718L273.177,534.021L274.902,553.364Z" style="fill:rgb(114,178,216);fill-rule:nonzero;"/>
                <path d="M273.177,534.021L296.052,531.718L295.008,512.153L272.249,514.406L273.177,534.021Z" style="fill:rgb(99,168,211);fill-rule:nonzero;"/>
                <path d="M272.249,514.406L295.008,512.153L294.501,492.409L271.851,494.599L272.249,514.406Z" style="fill:rgb(96,167,210);fill-rule:nonzero;"/>
                <path d="M271.851,494.599L294.501,492.409L294.312,472.554L271.727,474.694L271.851,494.599Z" style="fill:rgb(97,167,210);fill-rule:nonzero;"/>
                <path d="M271.727,474.694L294.312,472.554L294.291,452.645L271.735,454.746L271.727,474.694Z" style="fill:rgb(99,168,211);fill-rule:nonzero;"/>
                <path d="M271.735,454.746L294.291,452.645L294.355,432.712L271.811,434.785L271.735,454.746Z" style="fill:rgb(100,169,211);fill-rule:nonzero;"/>
                <path d="M271.811,434.785L294.355,432.712L294.463,412.77L271.922,414.824L271.811,434.785Z" style="fill:rgb(101,170,212);fill-rule:nonzero;"/>
                <path d="M271.922,414.824L294.463,412.77L294.589,392.829L272.047,394.869L271.922,414.824Z" style="fill:rgb(101,170,212);fill-rule:nonzero;"/>
                <path d="M272.047,394.869L294.589,392.829L294.715,372.894L272.169,374.926L272.047,394.869Z" style="fill:rgb(102,171,212);fill-rule:nonzero;"/>
                <path d="M272.169,374.926L294.715,372.894L294.82,352.97L272.268,354.999L272.169,374.926Z" style="fill:rgb(104,172,213);fill-rule:nonzero;"/>
                <path d="M272.268,354.999L294.82,352.97L294.877,333.064L272.318,335.093L272.268,354.999Z" style="fill:rgb(105,173,213);fill-rule:nonzero;"/>
                <path d="M272.318,335.093L294.877,333.064L294.846,313.186L272.28,315.216L272.318,335.093Z" style="fill:rgb(109,175,215);fill-rule:nonzero;"/>
                <path d="M272.28,315.216L294.846,313.186L294.672,293.349L272.103,295.377L272.28,315.216Z" style="fill:rgb(117,180,216);fill-rule:nonzero;"/>
                <path d="M272.103,295.377L294.672,293.349L294.282,273.568L271.728,275.585L272.103,295.377Z" style="fill:rgb(130,187,219);fill-rule:nonzero;"/>
                <path d="M271.728,275.585L294.282,273.568L293.603,253.856L271.093,255.847L271.728,275.585Z" style="fill:rgb(149,197,223);fill-rule:nonzero;"/>
                <path d="M271.093,255.847L293.603,253.856L292.555,234.222L270.129,236.167L271.093,255.847Z" style="fill:rgb(171,208,230);fill-rule:nonzero;"/>
                <path d="M270.129,236.167L292.555,234.222L291.034,214.681L268.725,216.56L270.129,236.167Z" style="fill:rgb(193,217,237);fill-rule:nonzero;"/>
                <path d="M268.725,216.56L291.034,214.681L288.858,195.277L266.645,197.086L268.725,216.56Z" style="fill:rgb(205,224,241);fill-rule:nonzero;"/>
                <path d="M300.325,570.193L323.079,568.04L320.639,548.855L297.818,551.055L300.325,570.193Z" style="fill:rgb(156,201,225);fill-rule:nonzero;"/>
                <path d="M297.818,551.055L320.639,548.855L318.877,529.499L296.052,531.718L297.818,551.055Z" style="fill:rgb(133,188,220);fill-rule:nonzero;"/>
                <path d="M296.052,531.718L318.877,529.499L317.766,509.954L295.008,512.153L296.052,531.718Z" style="fill:rgb(113,177,215);fill-rule:nonzero;"/>
                <path d="M295.008,512.153L317.766,509.954L317.171,490.248L294.501,492.409L295.008,512.153Z" style="fill:rgb(102,171,212);fill-rule:nonzero;"/>
                <path d="M294.501,492.409L317.171,490.248L316.918,470.43L294.312,472.554L294.501,492.409Z" style="fill:rgb(100,169,211);fill-rule:nonzero;"/>
                <path d="M294.312,472.554L316.918,470.43L316.861,450.548L294.291,452.645L294.312,472.554Z" style="fill:rgb(100,169,211);fill-rule:nonzero;"/>
                <path d="M294.291,452.645L316.861,450.548L316.907,430.634L294.355,432.712L294.291,452.645Z" style="fill:rgb(100,169,211);fill-rule:nonzero;"/>
                <path d="M294.355,432.712L316.907,430.634L317.007,410.705L294.463,412.77L294.355,432.712Z" style="fill:rgb(101,170,212);fill-rule:nonzero;"/>
                <path d="M294.463,412.77L317.007,410.705L317.132,390.772L294.589,392.829L294.463,412.77Z" style="fill:rgb(101,170,212);fill-rule:nonzero;"/>
                <path d="M294.589,392.829L317.132,390.772L317.26,370.84L294.715,372.894L294.589,392.829Z" style="fill:rgb(101,170,212);fill-rule:nonzero;"/>
                <path d="M294.715,372.894L317.26,370.84L317.37,350.916L294.82,352.97L294.715,372.894Z" style="fill:rgb(102,171,212);fill-rule:nonzero;"/>
                <path d="M294.82,352.97L317.37,350.916L317.437,331.007L294.877,333.064L294.82,352.97Z" style="fill:rgb(104,172,213);fill-rule:nonzero;"/>
                <path d="M294.877,333.064L317.437,331.007L317.42,311.124L294.846,313.186L294.877,333.064Z" style="fill:rgb(106,174,214);fill-rule:nonzero;"/>
                <path d="M294.846,313.186L317.42,311.124L317.261,291.283L294.672,293.349L294.846,313.186Z" style="fill:rgb(113,177,215);fill-rule:nonzero;"/>
                <path d="M294.672,293.349L317.261,291.283L316.877,271.507L294.282,273.568L294.672,293.349Z" style="fill:rgb(124,183,218);fill-rule:nonzero;"/>
                <path d="M294.282,273.568L316.877,271.507L316.177,251.814L293.603,253.856L294.282,273.568Z" style="fill:rgb(140,192,221);fill-rule:nonzero;"/>
                <path d="M293.603,253.856L316.177,251.814L315.07,232.22L292.555,234.222L293.603,253.856Z" style="fill:rgb(163,204,227);fill-rule:nonzero;"/>
                <path d="M292.555,234.222L315.07,232.22L313.454,212.738L291.034,214.681L292.555,234.222Z" style="fill:rgb(183,212,234);fill-rule:nonzero;"/>
                <path d="M291.034,214.681L313.454,212.738L311.199,193.396L288.858,195.277L291.034,214.681Z" style="fill:rgb(199,220,239);fill-rule:nonzero;"/>
                <path d="M323.079,568.04L345.739,565.971L343.363,546.736L320.639,548.855L323.079,568.04Z" style="fill:rgb(169,207,229);fill-rule:nonzero;"/>
                <path d="M320.639,548.855L343.363,546.736L341.634,527.346L318.877,529.499L320.639,548.855Z" style="fill:rgb(149,197,223);fill-rule:nonzero;"/>
                <path d="M318.877,529.499L341.634,527.346L340.497,507.798L317.766,509.954L318.877,529.499Z" style="fill:rgb(125,184,218);fill-rule:nonzero;"/>
                <path d="M317.766,509.954L340.497,507.798L339.843,488.11L317.171,490.248L317.766,509.954Z" style="fill:rgb(109,175,215);fill-rule:nonzero;"/>
                <path d="M317.171,490.248L339.843,488.11L339.533,468.316L316.918,470.43L317.171,490.248Z" style="fill:rgb(104,172,213);fill-rule:nonzero;"/>
                <path d="M316.918,470.43L339.533,468.316L339.438,448.454L316.861,450.548L316.918,470.43Z" style="fill:rgb(101,170,212);fill-rule:nonzero;"/>
                <path d="M316.861,450.548L339.438,448.454L339.464,428.553L316.907,430.634L316.861,450.548Z" style="fill:rgb(101,170,212);fill-rule:nonzero;"/>
                <path d="M316.907,430.634L339.464,428.553L339.554,408.633L317.007,410.705L316.907,430.634Z" style="fill:rgb(101,170,212);fill-rule:nonzero;"/>
                <path d="M317.007,410.705L339.554,408.633L339.675,388.704L317.132,390.772L317.007,410.705Z" style="fill:rgb(101,170,212);fill-rule:nonzero;"/>
                <path d="M317.132,390.772L339.675,388.704L339.804,368.773L317.26,370.84L317.132,390.772Z" style="fill:rgb(101,170,212);fill-rule:nonzero;"/>
                <path d="M317.26,370.84L339.804,368.773L339.919,348.847L317.37,350.916L317.26,370.84Z" style="fill:rgb(101,170,212);fill-rule:nonzero;"/>
                <path d="M317.37,350.916L339.919,348.847L339.997,328.933L317.437,331.007L317.37,350.916Z" style="fill:rgb(102,171,212);fill-rule:nonzero;"/>
                <path d="M317.437,331.007L339.997,328.933L339.999,309.042L317.42,311.124L317.437,331.007Z" style="fill:rgb(104,172,213);fill-rule:nonzero;"/>
                <path d="M317.42,311.124L339.999,309.042L339.866,289.194L317.261,291.283L317.42,311.124Z" style="fill:rgb(108,174,214);fill-rule:nonzero;"/>
                <path d="M317.261,291.283L339.866,289.194L339.508,269.413L316.877,271.507L317.261,291.283Z" style="fill:rgb(116,179,216);fill-rule:nonzero;"/>
                <path d="M316.877,271.507L339.508,269.413L338.813,249.73L316.177,251.814L316.877,271.507Z" style="fill:rgb(130,187,219);fill-rule:nonzero;"/>
                <path d="M316.177,251.814L338.813,249.73L337.67,230.166L315.07,232.22L316.177,251.814Z" style="fill:rgb(153,199,224);fill-rule:nonzero;"/>
                <path d="M315.07,232.22L337.67,230.166L335.98,210.736L313.454,212.738L315.07,232.22Z" style="fill:rgb(174,209,231);fill-rule:nonzero;"/>
                <path d="M313.454,212.738L335.98,210.736L333.656,191.451L311.199,193.396L313.454,212.738Z" style="fill:rgb(190,216,236);fill-rule:nonzero;"/>
                <path d="M345.739,565.971L368.298,563.971L365.986,544.682L343.363,546.736L345.739,565.971Z" style="fill:rgb(180,211,233);fill-rule:nonzero;"/>
                <path d="M343.363,546.736L365.986,544.682L364.314,525.247L341.634,527.346L343.363,546.736Z" style="fill:rgb(163,204,227);fill-rule:nonzero;"/>
                <path d="M341.634,527.346L364.314,525.247L363.185,505.68L340.497,507.798L341.634,527.346Z" style="fill:rgb(140,192,221);fill-rule:nonzero;"/>
                <path d="M340.497,507.798L363.185,505.68L362.499,485.994L339.843,488.11L340.497,507.798Z" style="fill:rgb(121,181,217);fill-rule:nonzero;"/>
                <path d="M339.843,488.11L362.499,485.994L362.148,466.213L339.533,468.316L339.843,488.11Z" style="fill:rgb(109,175,215);fill-rule:nonzero;"/>
                <path d="M339.533,468.316L362.148,466.213L362.019,446.364L339.438,448.454L339.533,468.316Z" style="fill:rgb(104,172,213);fill-rule:nonzero;"/>
                <path d="M339.438,448.454L362.019,446.364L362.023,426.474L339.464,428.553L339.438,448.454Z" style="fill:rgb(102,171,212);fill-rule:nonzero;"/>
                <path d="M339.464,428.553L362.023,426.474L362.102,406.559L339.554,408.633L339.464,428.553Z" style="fill:rgb(101,170,212);fill-rule:nonzero;"/>
                <path d="M339.554,408.633L362.102,406.559L362.218,386.633L339.675,388.704L339.554,408.633Z" style="fill:rgb(101,170,212);fill-rule:nonzero;"/>
                <path d="M339.675,388.704L362.218,386.633L362.347,366.702L339.804,368.773L339.675,388.704Z" style="fill:rgb(101,170,212);fill-rule:nonzero;"/>
                <path d="M339.804,368.773L362.347,366.702L362.467,346.773L339.919,348.847L339.804,368.773Z" style="fill:rgb(101,170,212);fill-rule:nonzero;"/>
                <path d="M339.919,348.847L362.467,346.773L362.556,326.852L339.997,328.933L339.919,348.847Z" style="fill:rgb(101,170,212);fill-rule:nonzero;"/>
                <path d="M339.997,328.933L362.556,326.852L362.579,306.95L339.999,309.042L339.997,328.933Z" style="fill:rgb(102,171,212);fill-rule:nonzero;"/>
                <path d="M339.999,309.042L362.579,306.95L362.48,287.088L339.866,289.194L339.999,309.042Z" style="fill:rgb(104,172,213);fill-rule:nonzero;"/>
                <path d="M339.866,289.194L362.48,287.088L362.164,267.294L339.508,269.413L339.866,289.194Z" style="fill:rgb(109,175,215);fill-rule:nonzero;"/>
                <path d="M339.508,269.413L362.164,267.294L361.501,247.607L338.813,249.73L339.508,269.413Z" style="fill:rgb(121,181,217);fill-rule:nonzero;"/>
                <path d="M338.813,249.73L361.501,247.607L360.352,228.063L337.67,230.166L338.813,249.73Z" style="fill:rgb(140,192,221);fill-rule:nonzero;"/>
                <path d="M337.67,230.166L360.352,228.063L358.607,208.676L335.98,210.736L337.67,230.166Z" style="fill:rgb(163,204,227);fill-rule:nonzero;"/>
                <path d="M335.98,210.736L358.607,208.676L356.219,189.444L333.656,191.451L335.98,210.736Z" style="fill:rgb(179,211,232);fill-rule:nonzero;"/>
                <path d="M368.298,563.971L390.749,562.032L388.507,542.685L365.986,544.682L368.298,563.971Z" style="fill:rgb(190,216,236);fill-rule:nonzero;"/>
                <path d="M365.986,544.682L388.507,542.685L386.911,523.197L364.314,525.247L365.986,544.682Z" style="fill:rgb(174,209,231);fill-rule:nonzero;"/>
                <path d="M364.314,525.247L386.911,523.197L385.819,503.599L363.185,505.68L364.314,525.247Z" style="fill:rgb(153,199,224);fill-rule:nonzero;"/>
                <path d="M363.185,505.68L385.819,503.599L385.129,483.904L362.499,485.994L363.185,505.68Z" style="fill:rgb(130,187,219);fill-rule:nonzero;"/>
                <path d="M362.499,485.994L385.129,483.904L384.753,464.126L362.148,466.213L362.499,485.994Z" style="fill:rgb(116,179,216);fill-rule:nonzero;"/>
                <path d="M362.148,466.213L384.753,464.126L384.598,444.285L362.019,446.364L362.148,466.213Z" style="fill:rgb(108,174,214);fill-rule:nonzero;"/>
                <path d="M362.019,446.364L384.598,444.285L384.584,424.402L362.023,426.474L362.019,446.364Z" style="fill:rgb(104,172,213);fill-rule:nonzero;"/>
                <path d="M362.023,426.474L384.584,424.402L384.651,404.492L362.102,406.559L362.023,426.474Z" style="fill:rgb(102,171,212);fill-rule:nonzero;"/>
                <path d="M362.102,406.559L384.651,404.492L384.762,384.567L362.218,386.633L362.102,406.559Z" style="fill:rgb(101,170,212);fill-rule:nonzero;"/>
                <path d="M362.218,386.633L384.762,384.567L384.889,364.635L362.347,366.702L362.218,386.633Z" style="fill:rgb(101,170,212);fill-rule:nonzero;"/>
                <path d="M362.347,366.702L384.889,364.635L385.013,344.7L362.467,346.773L362.347,366.702Z" style="fill:rgb(101,170,212);fill-rule:nonzero;"/>
                <path d="M362.467,346.773L385.013,344.7L385.112,324.77L362.556,326.852L362.467,346.773Z" style="fill:rgb(101,170,212);fill-rule:nonzero;"/>
                <path d="M362.556,326.852L385.112,324.77L385.156,304.854L362.579,306.95L362.556,326.852Z" style="fill:rgb(101,170,212);fill-rule:nonzero;"/>
                <path d="M362.579,306.95L385.156,304.854L385.094,284.97L362.48,287.088L362.579,306.95Z" style="fill:rgb(101,170,212);fill-rule:nonzero;"/>
                <path d="M362.48,287.088L385.094,284.97L384.835,265.151L362.164,267.294L362.48,287.088Z" style="fill:rgb(104,172,213);fill-rule:nonzero;"/>
                <path d="M362.164,267.294L384.835,265.151L384.233,245.445L361.501,247.607L362.164,267.294Z" style="fill:rgb(111,176,215);fill-rule:nonzero;"/>
                <path d="M361.501,247.607L384.233,245.445L383.109,225.902L360.352,228.063L361.501,247.607Z" style="fill:rgb(127,185,218);fill-rule:nonzero;"/>
                <path d="M360.352,228.063L383.109,225.902L381.332,206.549L358.607,208.676L360.352,228.063Z" style="fill:rgb(149,197,223);fill-rule:nonzero;"/>
                <path d="M358.607,208.676L381.332,206.549L378.879,187.366L356.219,189.444L358.607,208.676Z" style="fill:rgb(168,206,228);fill-rule:nonzero;"/>
                <path d="M390.749,562.032L413.081,560.159L410.921,540.748L388.507,542.685L390.749,562.032Z" style="fill:rgb(200,220,240);fill-rule:nonzero;"/>
                <path d="M388.507,542.685L410.921,540.748L409.423,521.199L386.911,523.197L388.507,542.685Z" style="fill:rgb(184,213,234);fill-rule:nonzero;"/>
                <path d="M386.911,523.197L409.423,521.199L408.393,501.561L385.819,503.599L386.911,523.197Z" style="fill:rgb(163,204,227);fill-rule:nonzero;"/>
                <path d="M385.819,503.599L408.393,501.561L407.724,481.846L385.129,483.904L385.819,503.599Z" style="fill:rgb(140,192,221);fill-rule:nonzero;"/>
                <path d="M385.129,483.904L407.724,481.846L407.342,462.064L384.753,464.126L385.129,483.904Z" style="fill:rgb(122,182,217);fill-rule:nonzero;"/>
                <path d="M384.753,464.126L407.342,462.064L407.172,442.226L384.598,444.285L384.753,464.126Z" style="fill:rgb(113,177,215);fill-rule:nonzero;"/>
                <path d="M384.598,444.285L407.172,442.226L407.144,422.347L384.584,424.402L384.598,444.285Z" style="fill:rgb(106,174,214);fill-rule:nonzero;"/>
                <path d="M384.584,424.402L407.144,422.347L407.202,402.44L384.651,404.492L384.584,424.402Z" style="fill:rgb(104,172,213);fill-rule:nonzero;"/>
                <path d="M384.651,404.492L407.202,402.44L407.307,382.515L384.762,384.567L384.651,404.492Z" style="fill:rgb(102,171,212);fill-rule:nonzero;"/>
                <path d="M384.762,384.567L407.307,382.515L407.431,362.578L384.889,364.635L384.762,384.567Z" style="fill:rgb(101,170,212);fill-rule:nonzero;"/>
                <path d="M384.889,364.635L407.431,362.578L407.556,342.635L385.013,344.7L384.889,364.635Z" style="fill:rgb(101,170,212);fill-rule:nonzero;"/>
                <path d="M385.013,344.7L407.556,342.635L407.662,322.69L385.112,324.77L385.013,344.7Z" style="fill:rgb(101,170,212);fill-rule:nonzero;"/>
                <path d="M385.112,324.77L407.662,322.69L407.723,302.754L385.156,304.854L385.112,324.77Z" style="fill:rgb(101,170,212);fill-rule:nonzero;"/>
                <path d="M385.156,304.854L407.723,302.754L407.698,282.841L385.094,284.97L385.156,304.854Z" style="fill:rgb(100,169,211);fill-rule:nonzero;"/>
                <path d="M385.094,284.97L407.698,282.841L407.504,262.984L384.835,265.151L385.094,284.97Z" style="fill:rgb(100,169,211);fill-rule:nonzero;"/>
                <path d="M384.835,265.151L407.504,262.984L406.989,243.237L384.233,245.445L384.835,265.151Z" style="fill:rgb(102,171,212);fill-rule:nonzero;"/>
                <path d="M384.233,245.445L406.989,243.237L405.934,223.673L383.109,225.902L384.233,245.445Z" style="fill:rgb(113,177,215);fill-rule:nonzero;"/>
                <path d="M383.109,225.902L405.934,223.673L404.153,204.338L381.332,206.549L383.109,225.902Z" style="fill:rgb(133,188,220);fill-rule:nonzero;"/>
                <path d="M381.332,206.549L404.153,204.338L401.633,185.202L378.879,187.366L381.332,206.549Z" style="fill:rgb(156,201,225);fill-rule:nonzero;"/>
                <path d="M413.081,560.159L435.28,558.36L433.222,538.876L410.921,540.748L413.081,560.159Z" style="fill:rgb(206,224,242);fill-rule:nonzero;"/>
                <path d="M410.921,540.748L433.222,538.876L431.847,519.261L409.423,521.199L410.921,540.748Z" style="fill:rgb(193,217,237);fill-rule:nonzero;"/>
                <path d="M409.423,521.199L431.847,519.261L430.902,499.576L408.393,501.561L409.423,521.199Z" style="fill:rgb(171,208,230);fill-rule:nonzero;"/>
                <path d="M408.393,501.561L430.902,499.576L430.279,479.835L407.724,481.846L408.393,501.561Z" style="fill:rgb(149,197,223);fill-rule:nonzero;"/>
                <path d="M407.724,481.846L430.279,479.835L429.911,460.042L407.342,462.064L407.724,481.846Z" style="fill:rgb(130,187,219);fill-rule:nonzero;"/>
                <path d="M407.342,462.064L429.911,460.042L429.739,440.202L407.172,442.226L407.342,462.064Z" style="fill:rgb(117,180,216);fill-rule:nonzero;"/>
                <path d="M407.172,442.226L429.739,440.202L429.703,420.323L407.144,422.347L407.172,442.226Z" style="fill:rgb(109,175,215);fill-rule:nonzero;"/>
                <path d="M407.144,422.347L429.703,420.323L429.753,400.416L407.202,402.44L407.144,422.347Z" style="fill:rgb(105,173,213);fill-rule:nonzero;"/>
                <path d="M407.202,402.44L429.753,400.416L429.851,380.486L407.307,382.515L407.202,402.44Z" style="fill:rgb(104,172,213);fill-rule:nonzero;"/>
                <path d="M407.307,382.515L429.851,380.486L429.971,360.539L407.431,362.578L407.307,382.515Z" style="fill:rgb(102,171,212);fill-rule:nonzero;"/>
                <path d="M407.431,362.578L429.971,360.539L430.094,340.58L407.556,342.635L407.431,362.578Z" style="fill:rgb(102,171,212);fill-rule:nonzero;"/>
                <path d="M407.556,342.635L430.094,340.58L430.202,320.613L407.662,322.69L407.556,342.635Z" style="fill:rgb(101,170,212);fill-rule:nonzero;"/>
                <path d="M407.662,322.69L430.202,320.613L430.275,300.646L407.723,302.754L407.662,322.69Z" style="fill:rgb(101,170,212);fill-rule:nonzero;"/>
                <path d="M407.723,302.754L430.275,300.646L430.28,280.693L407.698,282.841L407.723,302.754Z" style="fill:rgb(100,169,211);fill-rule:nonzero;"/>
                <path d="M407.698,282.841L430.28,280.693L430.151,260.782L407.504,262.984L407.698,282.841Z" style="fill:rgb(97,167,210);fill-rule:nonzero;"/>
                <path d="M407.504,262.984L430.151,260.782L429.745,240.972L406.989,243.237L407.504,262.984Z" style="fill:rgb(96,167,210);fill-rule:nonzero;"/>
                <path d="M406.989,243.237L429.745,240.972L428.808,221.355L405.934,223.673L406.989,243.237Z" style="fill:rgb(99,168,211);fill-rule:nonzero;"/>
                <path d="M405.934,223.673L428.808,221.355L427.07,202.013L404.153,204.338L405.934,223.673Z" style="fill:rgb(114,178,216);fill-rule:nonzero;"/>
                <path d="M404.153,204.338L427.07,202.013L424.479,182.923L401.633,185.202L404.153,204.338Z" style="fill:rgb(138,191,221);fill-rule:nonzero;"/>
                <path d="M435.28,558.36L457.329,556.655L455.406,537.087L433.222,538.876L435.28,558.36Z" style="fill:rgb(212,228,244);fill-rule:nonzero;"/>
                <path d="M433.222,538.876L455.406,537.087L454.18,517.398L431.847,519.261L433.222,538.876Z" style="fill:rgb(200,220,240);fill-rule:nonzero;"/>
                <path d="M431.847,519.261L454.18,517.398L453.345,497.661L430.902,499.576L431.847,519.261Z" style="fill:rgb(179,211,232);fill-rule:nonzero;"/>
                <path d="M430.902,499.576L453.345,497.661L452.79,477.889L430.279,479.835L430.902,499.576Z" style="fill:rgb(159,202,225);fill-rule:nonzero;"/>
                <path d="M430.279,479.835L452.79,477.889L452.457,458.079L429.911,460.042L430.279,479.835Z" style="fill:rgb(138,191,221);fill-rule:nonzero;"/>
                <path d="M429.911,460.042L452.457,458.079L452.296,438.232L429.739,440.202L429.911,460.042Z" style="fill:rgb(124,183,218);fill-rule:nonzero;"/>
                <path d="M429.739,440.202L452.296,438.232L452.26,418.348L429.703,420.323L429.739,440.202Z" style="fill:rgb(114,178,216);fill-rule:nonzero;"/>
                <path d="M429.703,420.323L452.26,418.348L452.304,398.433L429.753,400.416L429.703,420.323Z" style="fill:rgb(108,174,214);fill-rule:nonzero;"/>
                <path d="M429.753,400.416L452.304,398.433L452.394,378.489L429.851,380.486L429.753,400.416Z" style="fill:rgb(105,173,213);fill-rule:nonzero;"/>
                <path d="M429.851,380.486L452.394,378.489L452.505,358.522L429.971,360.539L429.851,380.486Z" style="fill:rgb(104,172,213);fill-rule:nonzero;"/>
                <path d="M429.971,360.539L452.505,358.522L452.62,338.534L430.094,340.58L429.971,360.539Z" style="fill:rgb(104,172,213);fill-rule:nonzero;"/>
                <path d="M430.094,340.58L452.62,338.534L452.724,318.53L430.202,320.613L430.094,340.58Z" style="fill:rgb(102,171,212);fill-rule:nonzero;"/>
                <path d="M430.202,320.613L452.724,318.53L452.801,298.519L430.275,300.646L430.202,320.613Z" style="fill:rgb(101,170,212);fill-rule:nonzero;"/>
                <path d="M430.275,300.646L452.801,298.519L452.826,278.511L430.28,280.693L430.275,300.646Z" style="fill:rgb(100,169,211);fill-rule:nonzero;"/>
                <path d="M430.28,280.693L452.826,278.511L452.753,258.531L430.151,260.782L430.28,280.693Z" style="fill:rgb(96,167,210);fill-rule:nonzero;"/>
                <path d="M430.151,260.782L452.753,258.531L452.468,238.633L429.745,240.972L430.151,260.782Z" style="fill:rgb(91,163,208);fill-rule:nonzero;"/>
                <path d="M429.745,240.972L452.468,238.633L451.703,218.924L428.808,221.355L429.745,240.972Z" style="fill:rgb(87,160,206);fill-rule:nonzero;"/>
                <path d="M428.808,221.355L451.703,218.924L450.076,199.539L427.07,202.013L428.808,221.355Z" style="fill:rgb(95,166,209);fill-rule:nonzero;"/>
                <path d="M427.07,202.013L450.076,199.539L447.425,180.488L424.479,182.923L427.07,202.013Z" style="fill:rgb(116,179,216);fill-rule:nonzero;"/>
                <path d="M457.329,556.655L479.205,555.073L477.464,535.407L455.406,537.087L457.329,556.655Z" style="fill:rgb(218,232,246);fill-rule:nonzero;"/>
                <path d="M455.406,537.087L477.464,535.407L476.422,515.639L454.18,517.398L455.406,537.087Z" style="fill:rgb(205,223,241);fill-rule:nonzero;"/>
                <path d="M454.18,517.398L476.422,515.639L475.722,495.848L453.345,497.661L454.18,517.398Z" style="fill:rgb(186,214,235);fill-rule:nonzero;"/>
                <path d="M453.345,497.661L475.722,495.848L475.259,476.041L452.79,477.889L453.345,497.661Z" style="fill:rgb(166,206,228);fill-rule:nonzero;"/>
                <path d="M452.79,477.889L475.259,476.041L474.98,456.211L452.457,458.079L452.79,477.889Z" style="fill:rgb(146,196,222);fill-rule:nonzero;"/>
                <path d="M452.457,458.079L474.98,456.211L474.843,436.347L452.296,438.232L452.457,458.079Z" style="fill:rgb(130,187,219);fill-rule:nonzero;"/>
                <path d="M452.296,438.232L474.843,436.347L474.812,416.446L452.26,418.348L452.296,438.232Z" style="fill:rgb(119,181,217);fill-rule:nonzero;"/>
                <path d="M452.26,418.348L474.812,416.446L474.85,396.506L452.304,398.433L452.26,418.348Z" style="fill:rgb(113,177,215);fill-rule:nonzero;"/>
                <path d="M452.304,398.433L474.85,396.506L474.927,376.529L452.394,378.489L452.304,398.433Z" style="fill:rgb(108,174,214);fill-rule:nonzero;"/>
                <path d="M452.394,378.489L474.927,376.529L475.024,356.521L452.505,358.522L452.394,378.489Z" style="fill:rgb(106,174,214);fill-rule:nonzero;"/>
                <path d="M452.505,358.522L475.024,356.521L475.123,336.484L452.62,338.534L452.505,358.522Z" style="fill:rgb(105,173,213);fill-rule:nonzero;"/>
                <path d="M452.62,338.534L475.123,336.484L475.215,316.425L452.724,318.53L452.62,338.534Z" style="fill:rgb(104,172,213);fill-rule:nonzero;"/>
                <path d="M452.724,318.53L475.215,316.425L475.287,296.35L452.801,298.519L452.724,318.53Z" style="fill:rgb(102,171,212);fill-rule:nonzero;"/>
                <path d="M452.801,298.519L475.287,296.35L475.321,276.272L452.826,278.511L452.801,298.519Z" style="fill:rgb(100,169,211);fill-rule:nonzero;"/>
                <path d="M452.826,278.511L475.321,276.272L475.288,256.208L452.753,258.531L452.826,278.511Z" style="fill:rgb(97,167,210);fill-rule:nonzero;"/>
                <path d="M452.753,258.531L475.288,256.208L475.115,236.201L452.468,238.633L452.753,258.531Z" style="fill:rgb(88,161,207);fill-rule:nonzero;"/>
                <path d="M452.468,238.633L475.115,236.201L474.57,216.359L451.703,218.924L452.468,238.633Z" style="fill:rgb(78,154,203);fill-rule:nonzero;"/>
                <path d="M451.703,218.924L474.57,216.359L473.16,196.875L450.076,199.539L451.703,218.924Z" style="fill:rgb(75,152,202);fill-rule:nonzero;"/>
                <path d="M450.076,199.539L473.16,196.875L470.49,177.848L447.425,180.488L450.076,199.539Z" style="fill:rgb(93,165,209);fill-rule:nonzero;"/>
                <path d="M479.205,555.073L500.873,553.672L499.391,533.884L477.464,535.407L479.205,555.073Z" style="fill:rgb(224,236,248);fill-rule:nonzero;"/>
                <path d="M477.464,535.407L499.391,533.884L498.576,514.033L476.422,515.639L477.464,535.407Z" style="fill:rgb(210,227,243);fill-rule:nonzero;"/>
                <path d="M476.422,515.639L498.576,514.033L498.043,494.198L475.722,495.848L476.422,515.639Z" style="fill:rgb(194,217,238);fill-rule:nonzero;"/>
                <path d="M475.722,495.848L498.043,494.198L497.692,474.358L475.259,476.041L475.722,495.848Z" style="fill:rgb(173,208,230);fill-rule:nonzero;"/>
                <path d="M475.259,476.041L497.692,474.358L497.479,454.49L474.98,456.211L475.259,476.041Z" style="fill:rgb(156,201,225);fill-rule:nonzero;"/>
                <path d="M474.98,456.211L497.479,454.49L497.373,434.583L474.843,436.347L474.98,456.211Z" style="fill:rgb(138,191,221);fill-rule:nonzero;"/>
                <path d="M474.843,436.347L497.373,434.583L497.348,414.631L474.812,416.446L474.843,436.347Z" style="fill:rgb(125,184,218);fill-rule:nonzero;"/>
                <path d="M474.812,416.446L497.348,414.631L497.376,394.634L474.85,396.506L474.812,416.446Z" style="fill:rgb(117,180,216);fill-rule:nonzero;"/>
                <path d="M474.85,396.506L497.376,394.634L497.435,374.593L474.927,376.529L474.85,396.506Z" style="fill:rgb(113,177,215);fill-rule:nonzero;"/>
                <path d="M474.927,376.529L497.435,374.593L497.509,354.515L475.024,356.521L474.927,376.529Z" style="fill:rgb(109,175,215);fill-rule:nonzero;"/>
                <path d="M475.024,356.521L497.509,354.515L497.587,334.404L475.123,336.484L475.024,356.521Z" style="fill:rgb(108,174,214);fill-rule:nonzero;"/>
                <path d="M475.123,336.484L497.587,334.404L497.658,314.267L475.215,316.425L475.123,336.484Z" style="fill:rgb(106,174,214);fill-rule:nonzero;"/>
                <path d="M475.215,316.425L497.658,314.267L497.716,294.111L475.287,296.35L475.215,316.425Z" style="fill:rgb(104,172,213);fill-rule:nonzero;"/>
                <path d="M475.287,296.35L497.716,294.111L497.751,273.946L475.321,276.272L475.287,296.35Z" style="fill:rgb(102,171,212);fill-rule:nonzero;"/>
                <path d="M475.321,276.272L497.751,273.946L497.739,253.788L475.288,256.208L475.321,276.272Z" style="fill:rgb(97,167,210);fill-rule:nonzero;"/>
                <path d="M475.288,256.208L497.739,253.788L497.648,233.662L475.115,236.201L475.288,256.208Z" style="fill:rgb(90,162,207);fill-rule:nonzero;"/>
                <path d="M475.115,236.201L497.648,233.662L497.343,213.653L474.57,216.359L475.115,236.201Z" style="fill:rgb(72,150,200);fill-rule:nonzero;"/>
                <path d="M474.57,216.359L497.343,213.653L496.285,193.994L473.16,196.875L474.57,216.359Z" style="fill:rgb(56,136,193);fill-rule:nonzero;"/>
                <path d="M473.16,196.875L496.285,193.994L493.715,174.95L470.49,177.848L473.16,196.875Z" style="fill:rgb(64,144,197);fill-rule:nonzero;"/>
                <path d="M500.873,553.672L522.297,552.531L521.193,532.628L499.391,533.884L500.873,553.672Z" style="fill:rgb(230,240,249);fill-rule:nonzero;"/>
                <path d="M499.391,533.884L521.193,532.628L520.666,512.75L498.576,514.033L499.391,533.884Z" style="fill:rgb(214,230,244);fill-rule:nonzero;"/>
                <path d="M498.576,514.033L520.666,512.75L520.316,492.86L498.043,494.198L498.576,514.033Z" style="fill:rgb(200,220,240);fill-rule:nonzero;"/>
                <path d="M498.043,494.198L520.316,492.86L520.082,472.932L497.692,474.358L498.043,494.198Z" style="fill:rgb(181,212,233);fill-rule:nonzero;"/>
                <path d="M497.692,474.358L520.082,472.932L519.936,452.964L497.479,454.49L497.692,474.358Z" style="fill:rgb(164,204,227);fill-rule:nonzero;"/>
                <path d="M497.479,454.49L519.936,452.964L519.862,432.951L497.373,434.583L497.479,454.49Z" style="fill:rgb(148,196,223);fill-rule:nonzero;"/>
                <path d="M497.373,434.583L519.862,432.951L519.84,412.893L497.348,414.631L497.373,434.583Z" style="fill:rgb(133,188,220);fill-rule:nonzero;"/>
                <path d="M497.348,414.631L519.84,412.893L519.856,392.79L497.376,394.634L497.348,414.631Z" style="fill:rgb(124,183,218);fill-rule:nonzero;"/>
                <path d="M497.376,394.634L519.856,392.79L519.892,372.646L497.435,374.593L497.376,394.634Z" style="fill:rgb(117,180,216);fill-rule:nonzero;"/>
                <path d="M497.435,374.593L519.892,372.646L519.939,352.467L497.509,354.515L497.435,374.593Z" style="fill:rgb(114,178,216);fill-rule:nonzero;"/>
                <path d="M497.509,354.515L519.939,352.467L519.988,332.257L497.587,334.404L497.509,354.515Z" style="fill:rgb(111,176,215);fill-rule:nonzero;"/>
                <path d="M497.587,334.404L519.988,332.257L520.035,312.023L497.658,314.267L497.587,334.404Z" style="fill:rgb(108,174,214);fill-rule:nonzero;"/>
                <path d="M497.658,314.267L520.035,312.023L520.073,291.772L497.716,294.111L497.658,314.267Z" style="fill:rgb(106,174,214);fill-rule:nonzero;"/>
                <path d="M497.716,294.111L520.073,291.772L520.098,271.51L497.751,273.946L497.716,294.111Z" style="fill:rgb(104,172,213);fill-rule:nonzero;"/>
                <path d="M497.751,273.946L520.098,271.51L520.1,251.25L497.739,253.788L497.751,273.946Z" style="fill:rgb(100,169,211);fill-rule:nonzero;"/>
                <path d="M497.739,253.788L520.1,251.25L520.051,231.01L497.648,233.662L497.739,253.788Z" style="fill:rgb(92,164,208);fill-rule:nonzero;"/>
                <path d="M497.648,233.662L520.051,231.01L519.936,210.818L497.343,213.653L497.648,233.662Z" style="fill:rgb(73,151,201);fill-rule:nonzero;"/>
                <path d="M497.343,213.653L519.936,210.818L519.374,190.907L496.285,193.994L497.343,213.653Z" style="fill:rgb(41,121,185);fill-rule:nonzero;"/>
                <path d="M496.285,193.994L519.374,190.907L517.149,171.734L493.715,174.95L496.285,193.994Z" style="fill:rgb(32,111,180);fill-rule:nonzero;"/>
                <path d="M522.297,552.531L543.24,552.466L542.867,532.323L521.193,532.628L522.297,552.531Z" style="fill:rgb(238,245,252);fill-rule:nonzero;"/>
                <path d="M521.193,532.628L542.867,532.323L542.646,512.155L520.666,512.75L521.193,532.628Z" style="fill:rgb(221,234,247);fill-rule:nonzero;"/>
                <path d="M520.666,512.75L542.646,512.155L542.486,491.979L520.316,492.86L520.666,512.75Z" style="fill:rgb(208,225,242);fill-rule:nonzero;"/>
                <path d="M520.316,492.86L542.486,491.979L542.374,471.801L520.082,472.932L520.316,492.86Z" style="fill:rgb(193,217,237);fill-rule:nonzero;"/>
                <path d="M520.082,472.932L542.374,471.801L542.302,451.614L519.936,452.964L520.082,472.932Z" style="fill:rgb(174,209,231);fill-rule:nonzero;"/>
                <path d="M519.936,452.964L542.302,451.614L542.262,431.407L519.862,432.951L519.936,452.964Z" style="fill:rgb(159,202,225);fill-rule:nonzero;"/>
                <path d="M519.862,432.951L542.262,431.407L542.249,411.175L519.84,412.893L519.862,432.951Z" style="fill:rgb(143,194,222);fill-rule:nonzero;"/>
                <path d="M519.84,412.893L542.249,411.175L542.253,390.917L519.856,392.79L519.84,412.893Z" style="fill:rgb(132,188,219);fill-rule:nonzero;"/>
                <path d="M519.856,392.79L542.253,390.917L542.267,370.632L519.892,372.646L519.856,392.79Z" style="fill:rgb(124,183,218);fill-rule:nonzero;"/>
                <path d="M519.892,372.646L542.267,370.632L542.287,350.325L519.939,352.467L519.892,372.646Z" style="fill:rgb(117,180,216);fill-rule:nonzero;"/>
                <path d="M519.939,352.467L542.287,350.325L542.308,329.999L519.988,332.257L519.939,352.467Z" style="fill:rgb(114,178,216);fill-rule:nonzero;"/>
                <path d="M519.988,332.257L542.308,329.999L542.328,309.659L520.035,312.023L519.988,332.257Z" style="fill:rgb(111,176,215);fill-rule:nonzero;"/>
                <path d="M520.035,312.023L542.328,309.659L542.345,289.308L520.073,291.772L520.035,312.023Z" style="fill:rgb(108,174,214);fill-rule:nonzero;"/>
                <path d="M520.073,291.772L542.345,289.308L542.357,268.951L520.098,271.51L520.073,291.772Z" style="fill:rgb(105,173,213);fill-rule:nonzero;"/>
                <path d="M520.098,271.51L542.357,268.951L542.359,248.592L520.1,251.25L520.098,271.51Z" style="fill:rgb(101,170,212);fill-rule:nonzero;"/>
                <path d="M520.1,251.25L542.359,248.592L542.346,228.242L520.051,231.01L520.1,251.25Z" style="fill:rgb(95,166,209);fill-rule:nonzero;"/>
                <path d="M520.051,231.01L542.346,228.242L542.285,207.919L519.936,210.818L520.051,231.01Z" style="fill:rgb(83,158,205);fill-rule:nonzero;"/>
                <path d="M519.936,210.818L542.285,207.919L542.258,187.662L519.374,190.907L519.936,210.818Z" style="fill:rgb(35,115,182);fill-rule:nonzero;"/>
                <path d="M519.374,190.907L542.258,187.662L540.842,168.229L517.149,171.734L519.374,190.907Z" style="fill:rgb(8,65,132);fill-rule:nonzero;"/>
                <path d="M543.24,552.466L564.531,552.343L564.531,531.907L542.867,532.323L543.24,552.466Z" style="fill:rgb(231,240,250);fill-rule:nonzero;"/>
                <path d="M542.867,532.323L564.531,531.907L564.531,511.471L542.646,512.155L542.867,532.323Z" style="fill:rgb(218,232,246);fill-rule:nonzero;"/>
                <path d="M542.646,512.155L564.531,511.471L564.531,491.035L542.486,491.979L542.646,512.155Z" style="fill:rgb(206,224,242);fill-rule:nonzero;"/>
                <path d="M542.486,491.979L564.531,491.035L564.531,470.598L542.374,471.801L542.486,491.979Z" style="fill:rgb(193,217,237);fill-rule:nonzero;"/>
                <path d="M542.374,471.801L564.531,470.598L564.531,450.162L542.302,451.614L542.374,471.801Z" style="fill:rgb(176,210,231);fill-rule:nonzero;"/>
                <path d="M542.302,451.614L564.531,450.162L564.531,429.726L542.262,431.407L542.302,451.614Z" style="fill:rgb(160,203,226);fill-rule:nonzero;"/>
                <path d="M542.262,431.407L564.531,429.726L564.531,409.29L542.249,411.175L542.262,431.407Z" style="fill:rgb(145,195,222);fill-rule:nonzero;"/>
                <path d="M542.249,411.175L564.531,409.29L564.531,388.854L542.253,390.917L542.249,411.175Z" style="fill:rgb(133,188,220);fill-rule:nonzero;"/>
                <path d="M542.253,390.917L564.531,388.854L564.531,368.418L542.267,370.632L542.253,390.917Z" style="fill:rgb(124,183,218);fill-rule:nonzero;"/>
                <path d="M542.267,370.632L564.531,368.418L564.531,347.982L542.287,350.325L542.267,370.632Z" style="fill:rgb(117,180,216);fill-rule:nonzero;"/>
                <path d="M542.287,350.325L564.531,347.982L564.531,327.546L542.308,329.999L542.287,350.325Z" style="fill:rgb(113,177,215);fill-rule:nonzero;"/>
                <path d="M542.308,329.999L564.531,327.546L564.531,307.11L542.328,309.659L542.308,329.999Z" style="fill:rgb(109,175,215);fill-rule:nonzero;"/>
                <path d="M542.328,309.659L564.531,307.11L564.531,286.674L542.345,289.308L542.328,309.659Z" style="fill:rgb(106,174,214);fill-rule:nonzero;"/>
                <path d="M542.345,289.308L564.531,286.674L564.531,266.238L542.357,268.951L542.345,289.308Z" style="fill:rgb(104,172,213);fill-rule:nonzero;"/>
                <path d="M542.357,268.951L564.531,266.238L564.531,245.802L542.359,248.592L542.357,268.951Z" style="fill:rgb(101,170,212);fill-rule:nonzero;"/>
                <path d="M542.359,248.592L564.531,245.802L564.531,225.365L542.346,228.242L542.359,248.592Z" style="fill:rgb(95,166,209);fill-rule:nonzero;"/>
                <path d="M542.346,228.242L564.531,225.365L564.531,204.929L542.285,207.919L542.346,228.242Z" style="fill:rgb(84,159,205);fill-rule:nonzero;"/>
                <path d="M542.285,207.919L564.531,204.929L564.531,184.493L542.258,187.662L542.285,207.919Z" style="fill:rgb(68,147,199);fill-rule:nonzero;"/>
                <path d="M542.258,187.662L564.531,184.493L564.531,164.057L540.842,168.229L542.258,187.662Z" style="fill:rgb(8,48,107);fill-rule:nonzero;"/>
            </g>
        </g>
        <g id="axes_2">
            <g id="patch_3">
                <path d="M631.26,525.6L631.26,190.8L648,190.8L648,525.6L631.26,525.6Z" style="fill:white;fill-rule:nonzero;"/>
            </g>
            <g id="QuadMesh_1">
                <path d="M631.26,525.6L648,525.6L648,441.9L631.26,441.9L631.26,525.6" style="fill:rgb(222,235,247);fill-rule:nonzero;"/>
                <path d="M631.26,441.9L648,441.9L648,358.2L631.26,358.2L631.26,441.9" style="fill:rgb(157,202,225);fill-rule:nonzero;"/>
                <path d="M631.26,358.2L648,358.2L648,274.5L631.26,274.5L631.26,358.2" style="fill:rgb(65,145,198);fill-rule:nonzero;"/>
                <path d="M631.26,274.5L648,274.5L648,190.8L631.26,190.8L631.26,274.5" style="fill:rgb(8,80,155);fill-rule:nonzero;"/>
            </g>
            <g id="matplotlib.axis_4">
                <g id="ytick_1">
                    <g transform="matrix(1,0,0,1,648,525.6)">
                        <g id="line2d_1">
                            <g>
                                <path id="m829a7333ce" d="M0,0L3.5,0" style="fill:none;fill-rule:nonzero;"/>
                            </g>
                        </g>
                    </g>
                    <g transform="matrix(0.25,0,0,-0.25,655,535.098)">
                        <g id="text_1">
                            <g>
                                <path id="DejaVuSans-48" d="M31.781,66.406C26.708,66.406 22.891,63.906 20.328,58.906C17.776,53.917 16.5,46.406 16.5,36.375C16.5,26.385 17.776,18.891 20.328,13.891C22.891,8.891 26.708,6.391 31.781,6.391C36.896,6.391 40.729,8.891 43.281,13.891C45.844,18.891 47.125,26.385 47.125,36.375C47.125,46.406 45.844,53.917 43.281,58.906C40.729,63.906 36.896,66.406 31.781,66.406ZM31.781,74.219C39.958,74.219 46.203,70.984 50.516,64.516C54.828,58.057 56.984,48.677 56.984,36.375C56.984,24.104 54.828,14.734 50.516,8.266C46.203,1.807 39.958,-1.422 31.781,-1.422C23.615,-1.422 17.375,1.807 13.063,8.266C8.75,14.734 6.594,24.104 6.594,36.375C6.594,48.677 8.75,58.057 13.063,64.516C17.375,70.984 23.615,74.219 31.781,74.219Z" style="fill:white;fill-rule:nonzero;"/>
                            </g>
                        </g>
                    </g>
                </g>
                <g id="ytick_2">
                    <g transform="matrix(1,0,0,1,648,441.9)">
                        <g id="line2d_2">
                            <g>
                                <path id="m829a7333ce1" serif:id="m829a7333ce" d="M0,0L3.5,0" style="fill:none;fill-rule:nonzero;"/>
                            </g>
                        </g>
                    </g>
                    <g transform="matrix(0.25,0,0,-0.25,655,451.398)">
                        <g id="text_2">
                            <g>
                                <path id="DejaVuSans-50" d="M19.188,8.297L53.609,8.297L53.609,0L7.328,0L7.328,8.297C11.068,12.172 16.167,17.37 22.625,23.891C29.094,30.422 33.156,34.635 34.813,36.531C37.969,40.073 40.172,43.073 41.422,45.531C42.682,47.99 43.313,50.406 43.313,52.781C43.313,56.656 41.953,59.813 39.234,62.25C36.516,64.698 32.974,65.922 28.609,65.922C25.516,65.922 22.25,65.385 18.813,64.313C15.385,63.24 11.719,61.609 7.813,59.422L7.813,69.391C11.781,70.984 15.49,72.188 18.938,73C22.396,73.813 25.557,74.219 28.422,74.219C35.974,74.219 41.995,72.328 46.484,68.547C50.974,64.776 53.219,59.734 53.219,53.422C53.219,50.422 52.656,47.578 51.531,44.891C50.417,42.214 48.375,39.052 45.406,35.406C44.594,34.458 42.005,31.729 37.641,27.219C33.286,22.708 27.135,16.401 19.188,8.297Z" style="fill:white;fill-rule:nonzero;"/>
                                <g id="DejaVuSans-481" serif:id="DejaVuSans-48" transform="matrix(1,0,0,1,63.623,0)">
                                    <path d="M31.781,66.406C26.708,66.406 22.891,63.906 20.328,58.906C17.776,53.917 16.5,46.406 16.5,36.375C16.5,26.385 17.776,18.891 20.328,13.891C22.891,8.891 26.708,6.391 31.781,6.391C36.896,6.391 40.729,8.891 43.281,13.891C45.844,18.891 47.125,26.385 47.125,36.375C47.125,46.406 45.844,53.917 43.281,58.906C40.729,63.906 36.896,66.406 31.781,66.406ZM31.781,74.219C39.958,74.219 46.203,70.984 50.516,64.516C54.828,58.057 56.984,48.677 56.984,36.375C56.984,24.104 54.828,14.734 50.516,8.266C46.203,1.807 39.958,-1.422 31.781,-1.422C23.615,-1.422 17.375,1.807 13.063,8.266C8.75,14.734 6.594,24.104 6.594,36.375C6.594,48.677 8.75,58.057 13.063,64.516C17.375,70.984 23.615,74.219 31.781,74.219Z" style="fill:white;fill-rule:nonzero;"/>
                                </g>
                            </g>
                        </g>
                    </g>
                </g>
                <g id="ytick_3">
                    <g transform="matrix(1,0,0,1,648,358.2)">
                        <g id="line2d_3">
                            <g>
                                <path id="m829a7333ce2" serif:id="m829a7333ce" d="M0,0L3.5,0" style="fill:none;fill-rule:nonzero;"/>
                            </g>
                        </g>
                    </g>
                    <g transform="matrix(0.25,0,0,-0.25,655,367.698)">
                        <g id="text_3">
                            <g>
                                <path id="DejaVuSans-52" d="M37.797,64.313L12.891,25.391L37.797,25.391L37.797,64.313ZM35.203,72.906L47.609,72.906L47.609,25.391L58.016,25.391L58.016,17.188L47.609,17.188L47.609,0L37.797,0L37.797,17.188L4.891,17.188L4.891,26.703L35.203,72.906Z" style="fill:white;fill-rule:nonzero;"/>
                                <g id="DejaVuSans-482" serif:id="DejaVuSans-48" transform="matrix(1,0,0,1,63.623,0)">
                                    <path d="M31.781,66.406C26.708,66.406 22.891,63.906 20.328,58.906C17.776,53.917 16.5,46.406 16.5,36.375C16.5,26.385 17.776,18.891 20.328,13.891C22.891,8.891 26.708,6.391 31.781,6.391C36.896,6.391 40.729,8.891 43.281,13.891C45.844,18.891 47.125,26.385 47.125,36.375C47.125,46.406 45.844,53.917 43.281,58.906C40.729,63.906 36.896,66.406 31.781,66.406ZM31.781,74.219C39.958,74.219 46.203,70.984 50.516,64.516C54.828,58.057 56.984,48.677 56.984,36.375C56.984,24.104 54.828,14.734 50.516,8.266C46.203,1.807 39.958,-1.422 31.781,-1.422C23.615,-1.422 17.375,1.807 13.063,8.266C8.75,14.734 6.594,24.104 6.594,36.375C6.594,48.677 8.75,58.057 13.063,64.516C17.375,70.984 23.615,74.219 31.781,74.219Z" style="fill:white;fill-rule:nonzero;"/>
                                </g>
                            </g>
                        </g>
                    </g>
                </g>
                <g id="ytick_4">
                    <g transform="matrix(1,0,0,1,648,274.5)">
                        <g id="line2d_4">
                            <g>
                                <path id="m829a7333ce3" serif:id="m829a7333ce" d="M0,0L3.5,0" style="fill:none;fill-rule:nonzero;"/>
                            </g>
                        </g>
                    </g>
                    <g transform="matrix(0.25,0,0,-0.25,655,283.998)">
                        <g id="text_4">
                            <g>
                                <path id="DejaVuSans-54" d="M33.016,40.375C28.589,40.375 25.078,38.859 22.484,35.828C19.901,32.807 18.609,28.661 18.609,23.391C18.609,18.151 19.901,14.005 22.484,10.953C25.078,7.911 28.589,6.391 33.016,6.391C37.443,6.391 40.948,7.911 43.531,10.953C46.115,14.005 47.406,18.151 47.406,23.391C47.406,28.661 46.115,32.807 43.531,35.828C40.948,38.859 37.443,40.375 33.016,40.375ZM52.594,71.297L52.594,62.313C50.115,63.479 47.615,64.37 45.094,64.984C42.573,65.609 40.073,65.922 37.594,65.922C31.083,65.922 26.109,63.724 22.672,59.328C19.245,54.932 17.286,48.292 16.797,39.406C18.714,42.24 21.12,44.411 24.016,45.922C26.922,47.432 30.115,48.188 33.594,48.188C40.917,48.188 46.703,45.964 50.953,41.516C55.203,37.078 57.328,31.036 57.328,23.391C57.328,15.901 55.115,9.891 50.688,5.359C46.26,0.839 40.37,-1.422 33.016,-1.422C24.578,-1.422 18.13,1.807 13.672,8.266C9.214,14.734 6.984,24.104 6.984,36.375C6.984,47.896 9.719,57.083 15.188,63.938C20.656,70.792 27.995,74.219 37.203,74.219C39.682,74.219 42.182,73.974 44.703,73.484C47.224,72.995 49.854,72.266 52.594,71.297Z" style="fill:white;fill-rule:nonzero;"/>
                                <g id="DejaVuSans-483" serif:id="DejaVuSans-48" transform="matrix(1,0,0,1,63.623,0)">
                                    <path d="M31.781,66.406C26.708,66.406 22.891,63.906 20.328,58.906C17.776,53.917 16.5,46.406 16.5,36.375C16.5,26.385 17.776,18.891 20.328,13.891C22.891,8.891 26.708,6.391 31.781,6.391C36.896,6.391 40.729,8.891 43.281,13.891C45.844,18.891 47.125,26.385 47.125,36.375C47.125,46.406 45.844,53.917 43.281,58.906C40.729,63.906 36.896,66.406 31.781,66.406ZM31.781,74.219C39.958,74.219 46.203,70.984 50.516,64.516C54.828,58.057 56.984,48.677 56.984,36.375C56.984,24.104 54.828,14.734 50.516,8.266C46.203,1.807 39.958,-1.422 31.781,-1.422C23.615,-1.422 17.375,1.807 13.063,8.266C8.75,14.734 6.594,24.104 6.594,36.375C6.594,48.677 8.75,58.057 13.063,64.516C17.375,70.984 23.615,74.219 31.781,74.219Z" style="fill:white;fill-rule:nonzero;"/>
                                </g>
                            </g>
                        </g>
                    </g>
                </g>
                <g id="ytick_5">
                    <g transform="matrix(1,0,0,1,648,190.8)">
                        <g id="line2d_5">
                            <g>
                                <path id="m829a7333ce4" serif:id="m829a7333ce" d="M0,0L3.5,0" style="fill:none;fill-rule:nonzero;"/>
                            </g>
                        </g>
                    </g>
                    <g transform="matrix(0.25,0,0,-0.25,655,200.298)">
                        <g id="text_5">
                            <g>
                                <path id="DejaVuSans-56" d="M31.781,34.625C27.094,34.625 23.406,33.37 20.719,30.859C18.042,28.349 16.703,24.901 16.703,20.516C16.703,16.12 18.042,12.667 20.719,10.156C23.406,7.646 27.094,6.391 31.781,6.391C36.469,6.391 40.161,7.651 42.859,10.172C45.568,12.703 46.922,16.151 46.922,20.516C46.922,24.901 45.578,28.349 42.891,30.859C40.214,33.37 36.51,34.625 31.781,34.625ZM21.922,38.813C17.693,39.854 14.396,41.823 12.031,44.719C9.677,47.625 8.5,51.161 8.5,55.328C8.5,61.151 10.573,65.755 14.719,69.141C18.875,72.526 24.563,74.219 31.781,74.219C39.042,74.219 44.74,72.526 48.875,69.141C53.01,65.755 55.078,61.151 55.078,55.328C55.078,51.161 53.896,47.625 51.531,44.719C49.177,41.823 45.901,39.854 41.703,38.813C46.453,37.708 50.151,35.542 52.797,32.313C55.453,29.094 56.781,25.161 56.781,20.516C56.781,13.443 54.625,8.016 50.313,4.234C46,0.464 39.823,-1.422 31.781,-1.422C23.75,-1.422 17.573,0.464 13.25,4.234C8.938,8.016 6.781,13.443 6.781,20.516C6.781,25.161 8.115,29.094 10.781,32.313C13.458,35.542 17.172,37.708 21.922,38.813ZM18.313,54.391C18.313,50.62 19.49,47.677 21.844,45.563C24.208,43.448 27.521,42.391 31.781,42.391C36.021,42.391 39.333,43.448 41.719,45.563C44.115,47.677 45.313,50.62 45.313,54.391C45.313,58.172 44.115,61.12 41.719,63.234C39.333,65.349 36.021,66.406 31.781,66.406C27.521,66.406 24.208,65.349 21.844,63.234C19.49,61.12 18.313,58.172 18.313,54.391Z" style="fill:white;fill-rule:nonzero;"/>
                                <g id="DejaVuSans-484" serif:id="DejaVuSans-48" transform="matrix(1,0,0,1,63.623,0)">
                                    <path d="M31.781,66.406C26.708,66.406 22.891,63.906 20.328,58.906C17.776,53.917 16.5,46.406 16.5,36.375C16.5,26.385 17.776,18.891 20.328,13.891C22.891,8.891 26.708,6.391 31.781,6.391C36.896,6.391 40.729,8.891 43.281,13.891C45.844,18.891 47.125,26.385 47.125,36.375C47.125,46.406 45.844,53.917 43.281,58.906C40.729,63.906 36.896,66.406 31.781,66.406ZM31.781,74.219C39.958,74.219 46.203,70.984 50.516,64.516C54.828,58.057 56.984,48.677 56.984,36.375C56.984,24.104 54.828,14.734 50.516,8.266C46.203,1.807 39.958,-1.422 31.781,-1.422C23.615,-1.422 17.375,1.807 13.063,8.266C8.75,14.734 6.594,24.104 6.594,36.375C6.594,48.677 8.75,58.057 13.063,64.516C17.375,70.984 23.615,74.219 31.781,74.219Z" style="fill:white;fill-rule:nonzero;"/>
                                </g>
                            </g>
                        </g>
                    </g>
                </g>
                <g transform="matrix(-9.57142e-17,-0.25,-0.25,9.57142e-17,709.809,408.2)">
                    <g id="text_6">
                        <g>
                            <g id="DejaVuSans-Oblique-963" transform="matrix(1,0,0,1,0,0.015625)">
                                <path d="M34.672,47.563C29.724,47.563 25.573,45.771 22.219,42.188C18.667,38.448 16.307,33.484 15.141,27.297C13.839,20.755 14.229,15.594 16.313,11.813C18.365,8.073 21.813,6.203 26.656,6.203C31.448,6.203 35.599,8.089 39.109,11.859C42.661,15.641 45.073,20.786 46.344,27.297C47.479,33.255 47.036,38.219 45.016,42.188C43.13,45.771 39.682,47.563 34.672,47.563ZM36.078,54.734L65.922,54.688L64.156,45.703L54.109,45.703C56.641,40.63 57.224,34.495 55.859,27.297C54.099,18.349 50.5,11.333 45.063,6.25C39.594,1.135 32.953,-1.422 25.141,-1.422C17.297,-1.422 11.651,1.135 8.203,6.25C4.755,11.333 3.911,18.349 5.672,27.297C7.391,36.276 10.969,43.307 16.406,48.391C20.927,52.62 27.484,54.734 36.078,54.734Z" style="fill:white;fill-rule:nonzero;"/>
                            </g>
                            <g id="DejaVuSans-49" transform="matrix(0.7,0,0,0.7,63.3789,-16.3906)">
                                <path d="M12.406,8.297L28.516,8.297L28.516,63.922L10.984,60.406L10.984,69.391L28.422,72.906L38.281,72.906L38.281,8.297L54.391,8.297L54.391,0L12.406,0L12.406,8.297Z" style="fill:white;fill-rule:nonzero;"/>
                            </g>
                            <g id="DejaVuSans-91" transform="matrix(1,0,0,1,142.437,0.015625)">
                                <path d="M8.594,75.984L29.297,75.984L29.297,69L17.578,69L17.578,-6.203L29.297,-6.203L29.297,-13.188L8.594,-13.188L8.594,75.984Z" style="fill:white;fill-rule:nonzero;"/>
                            </g>
                            <g id="DejaVuSans-107" transform="matrix(1,0,0,1,181.45,0.015625)">
                                <path d="M9.078,75.984L18.109,75.984L18.109,31.109L44.922,54.688L56.391,54.688L27.391,29.109L57.625,0L45.906,0L18.109,26.703L18.109,0L9.078,0L9.078,75.984Z" style="fill:white;fill-rule:nonzero;"/>
                            </g>
                            <g id="DejaVuSans-80" transform="matrix(1,0,0,1,239.36,0.015625)">
                                <path d="M19.672,64.797L19.672,37.406L32.078,37.406C36.672,37.406 40.219,38.594 42.719,40.969C45.229,43.344 46.484,46.729 46.484,51.125C46.484,55.49 45.229,58.859 42.719,61.234C40.219,63.609 36.672,64.797 32.078,64.797L19.672,64.797ZM9.813,72.906L32.078,72.906C40.255,72.906 46.432,71.057 50.609,67.359C54.797,63.661 56.891,58.25 56.891,51.125C56.891,43.927 54.797,38.49 50.609,34.813C46.432,31.135 40.255,29.297 32.078,29.297L19.672,29.297L19.672,0L9.813,0L9.813,72.906Z" style="fill:white;fill-rule:nonzero;"/>
                            </g>
                            <g id="DejaVuSans-97" transform="matrix(1,0,0,1,299.663,0.015625)">
                                <path d="M34.281,27.484C27.021,27.484 21.99,26.656 19.188,25C16.385,23.344 14.984,20.51 14.984,16.5C14.984,13.313 16.036,10.781 18.141,8.906C20.245,7.042 23.099,6.109 26.703,6.109C31.693,6.109 35.693,7.875 38.703,11.406C41.714,14.938 43.219,19.63 43.219,25.484L43.219,27.484L34.281,27.484ZM52.203,31.203L52.203,0L43.219,0L43.219,8.297C41.167,4.984 38.609,2.536 35.547,0.953C32.484,-0.63 28.74,-1.422 24.313,-1.422C18.719,-1.422 14.266,0.151 10.953,3.297C7.651,6.443 6,10.651 6,15.922C6,22.068 8.057,26.703 12.172,29.828C16.297,32.953 22.443,34.516 30.609,34.516L43.219,34.516L43.219,35.406C43.219,39.542 41.859,42.74 39.141,45C36.422,47.26 32.604,48.391 27.688,48.391C24.563,48.391 21.516,48.016 18.547,47.266C15.589,46.516 12.745,45.391 10.016,43.891L10.016,52.203C13.297,53.474 16.484,54.422 19.578,55.047C22.672,55.682 25.682,56 28.609,56C36.526,56 42.438,53.948 46.344,49.844C50.25,45.75 52.203,39.536 52.203,31.203Z" style="fill:white;fill-rule:nonzero;"/>
                            </g>
                            <g id="DejaVuSans-93" transform="matrix(1,0,0,1,360.942,0.015625)">
                                <path d="M30.422,75.984L30.422,-13.188L9.719,-13.188L9.719,-6.203L21.391,-6.203L21.391,69L9.719,69L9.719,75.984L30.422,75.984Z" style="fill:white;fill-rule:nonzero;"/>
                            </g>
                        </g>
                    </g>
                </g>
            </g>
            <g id="patch_4">
                <path d="M631.26,525.6L631.26,190.8L648,190.8L648,525.6L631.26,525.6Z" style="fill:none;fill-rule:nonzero;"/>
            </g>
        </g>
    </g>
</svg>
